# vtk DataFile Version 3.0
SHAPE_sfm_50k_v20200323
ASCII
DATASET POLYDATA
POINTS 1307 float
0.29572 -0.25792 0.21436
0.2979 -0.25717 0.21322
0.29676 -0.25614 0.21524
0.2968 -0.25891 0.21229
0.29902 -0.25808 0.21113
0.29803 -0.25995 0.21032
0.30014 -0.25914 0.2091
0.29929 -0.26114 0.20845
0.3014 -0.26028 0.20721
0.30066 -0.26237 0.20671
0.30271 -0.26142 0.20536
0.30193 -0.26348 0.20482
0.30396 -0.26245 0.20341
0.30309 -0.26444 0.20279
0.30509 -0.26364 0.20148
0.30421 -0.26563 0.20083
0.30635 -0.26484 0.19962
0.30554 -0.26689 0.19905
0.30776 -0.26612 0.19793
0.30703 -0.26825 0.19751
0.3092 -0.26735 0.19626
0.3085 -0.26952 0.19587
0.3104 -0.26848 0.19434
0.30957 -0.27059 0.19383
0.3116 -0.2695 0.19235
0.3106 -0.27151 0.19171
0.31277 -0.27052 0.19034
0.31164 -0.27243 0.18959
0.31382 -0.27142 0.1882
0.31259 -0.27324 0.18738
0.31472 -0.27243 0.18605
0.3134 -0.27416 0.18517
0.31558 -0.27326 0.18382
0.31424 -0.27499 0.18291
0.31658 -0.27418 0.18167
0.31532 -0.276 0.18085
0.31773 -0.27516 0.17963
0.31648 -0.27701 0.17884
0.31894 -0.27634 0.17774
0.31763 -0.27814 0.17688
0.32017 -0.27747 0.17582
0.31883 -0.27927 0.17496
0.32128 -0.27841 0.17374
0.32003 -0.28031 0.17298
0.3225 -0.27938 0.17174
0.32132 -0.28137 0.17107
0.32355 -0.2805 0.16972
0.3223 -0.28243 0.16896
0.32469 -0.28161 0.16773
0.32325 -0.28336 0.16681
0.32565 -0.28252 0.16555
0.32437 -0.28447 0.16484
0.32656 -0.28332 0.16332
0.32566 -0.28561 0.16295
0.32759 -0.28432 0.16123
0.32656 -0.2865 0.16073
0.32879 -0.28524 0.15918
0.3276 -0.28734 0.15857
0.3297 -0.2859 0.15689
0.32851 -0.28799 0.15629
0.33075 -0.28673 0.15475
0.32946 -0.28875 0.15407
0.33196 -0.28818 0.15304
0.33043 -0.28993 0.15205
0.33307 -0.28928 0.15103
0.33171 -0.29126 0.15029
0.33425 -0.29063 0.14924
0.33331 -0.29297 0.1493
0.33578 -0.29235 0.14812
0.29893 -0.25537 0.2141
0.30002 -0.25625 0.21199
0.30102 -0.25718 0.20985
0.30211 -0.25819 0.20779
0.30337 -0.25931 0.20588
0.30462 -0.26035 0.20394
0.30585 -0.2616 0.20211
0.3071 -0.26278 0.20025
0.30842 -0.26398 0.19844
0.30975 -0.26514 0.19663
0.31103 -0.2663 0.19478
0.31234 -0.26737 0.1929
0.31364 -0.26846 0.19102
0.31486 -0.2695 0.18905
0.31585 -0.27059 0.18698
0.31681 -0.27151 0.18482
0.31775 -0.27235 0.18262
0.31874 -0.27317 0.18044
0.3199 -0.27428 0.17848
0.32106 -0.27533 0.1765
0.32238 -0.27645 0.17465
0.32364 -0.27746 0.17268
0.32462 -0.2785 0.17058
0.32558 -0.27943 0.16842
0.32657 -0.28038 0.16629
0.32761 -0.28128 0.16416
0.32851 -0.28217 0.16196
0.32952 -0.28295 0.15978
0.33066 -0.28374 0.15766
0.33186 -0.2847 0.15567
0.33304 -0.28608 0.15391
0.33438 -0.2874 0.15218
0.33531 -0.28848 0.15007
0.33609 -0.28984 0.14806
0.30095 -0.25438 0.21284
0.29989 -0.25354 0.21498
0.30193 -0.25528 0.21068
0.30292 -0.2562 0.20852
0.30404 -0.25722 0.20649
0.30526 -0.25823 0.2045
0.30653 -0.25951 0.2027
0.30787 -0.26074 0.20094
0.3092 -0.26194 0.19915
0.31047 -0.26303 0.19726
0.31173 -0.26417 0.19538
0.31305 -0.26522 0.19349
0.31433 -0.26629 0.19158
0.31572 -0.26745 0.18979
0.31675 -0.26855 0.18775
0.3177 -0.26945 0.18558
0.31859 -0.27026 0.18335
0.31961 -0.27109 0.18118
0.32054 -0.27204 0.17903
0.32176 -0.27312 0.17709
0.32304 -0.27419 0.17519
0.32452 -0.27531 0.17344
0.32555 -0.2764 0.17137
0.32646 -0.27729 0.16916
0.32745 -0.27823 0.16704
0.32862 -0.2792 0.16499
0.32942 -0.28001 0.16271
0.33037 -0.28074 0.16049
0.33154 -0.28153 0.15839
0.33263 -0.2824 0.15629
0.33371 -0.2837 0.1544
0.33501 -0.28496 0.15263
0.33609 -0.28616 0.15066
0.33674 -0.28746 0.14857
0.30188 -0.25249 0.21367
0.30074 -0.2516 0.21576
0.30285 -0.25338 0.2115
0.30386 -0.25431 0.20937
0.30491 -0.25525 0.20726
0.30602 -0.25618 0.20517
0.30722 -0.25741 0.20327
0.30869 -0.25874 0.20166
0.31002 -0.25993 0.19988
0.31126 -0.26097 0.19793
0.31251 -0.26208 0.19602
0.31385 -0.26313 0.19415
0.31512 -0.26419 0.19222
0.31651 -0.26534 0.19043
0.31757 -0.26645 0.18841
0.31846 -0.26731 0.18619
0.31942 -0.26814 0.184
0.32039 -0.26894 0.1818
0.32133 -0.26988 0.17965
0.32235 -0.27085 0.17755
0.32363 -0.27191 0.17564
0.3251 -0.27301 0.17389
0.32631 -0.27417 0.17196
0.32721 -0.27505 0.16974
0.32819 -0.27597 0.1676
0.32933 -0.2769 0.16553
0.33019 -0.27775 0.16329
0.33115 -0.27847 0.16106
0.33229 -0.27923 0.15893
0.33332 -0.28006 0.15677
0.33449 -0.2814 0.15495
0.33558 -0.28255 0.15298
0.33674 -0.28377 0.15108
0.33744 -0.28509 0.14901
0.3381 -0.28637 0.14693
0.3028 -0.25066 0.21463
0.3038 -0.25156 0.21248
0.30475 -0.2524 0.21027
0.30584 -0.25339 0.2082
0.30693 -0.25429 0.20608
0.30806 -0.25545 0.2041
0.30945 -0.2567 0.20237
0.31085 -0.25795 0.20067
0.31205 -0.25892 0.19865
0.31335 -0.26005 0.19679
0.31474 -0.26114 0.19496
0.316 -0.26216 0.19301
0.31726 -0.26322 0.19109
0.31836 -0.26435 0.18909
0.31922 -0.26518 0.18685
0.32008 -0.26595 0.18459
0.32108 -0.26674 0.18239
0.32195 -0.26764 0.18019
0.32293 -0.26859 0.17806
0.32427 -0.26967 0.1762
0.32585 -0.27079 0.17454
0.32703 -0.27192 0.17255
0.32791 -0.2728 0.17032
0.32893 -0.27374 0.1682
0.32997 -0.27461 0.16605
0.33086 -0.27544 0.16382
0.33187 -0.27617 0.16161
0.33304 -0.27694 0.1595
0.33424 -0.27785 0.15747
0.33539 -0.27918 0.15564
0.3365 -0.28033 0.15366
0.33746 -0.28144 0.15158
0.33824 -0.28277 0.14956
0.33888 -0.28403 0.14747
0.30504 -0.24981 0.21321
0.30403 -0.24892 0.21537
0.30609 -0.25076 0.2111
0.30705 -0.25159 0.2089
0.30814 -0.25249 0.20678
0.30928 -0.25366 0.20482
0.31058 -0.25481 0.20295
0.31195 -0.25601 0.20119
0.31336 -0.25719 0.19944
0.3146 -0.25823 0.19749
0.31592 -0.25921 0.19555
0.31732 -0.26038 0.19377
0.31843 -0.26128 0.19166
0.31922 -0.2622 0.18943
0.32009 -0.26302 0.18719
0.32099 -0.2638 0.18495
0.32185 -0.26452 0.18267
0.32277 -0.26543 0.18049
0.32365 -0.26632 0.17829
0.32495 -0.26737 0.17639
0.32642 -0.26843 0.17461
0.32768 -0.26957 0.1727
0.32868 -0.27051 0.17054
0.32973 -0.27145 0.16843
0.3309 -0.27237 0.16636
0.3319 -0.27324 0.16418
0.33275 -0.27388 0.16188
0.33398 -0.27466 0.1598
0.33537 -0.27569 0.15796
0.33657 -0.27705 0.15617
0.33776 -0.27827 0.15427
0.33865 -0.2793 0.15213
0.33934 -0.28056 0.15002
0.33994 -0.28178 0.14788
0.30621 -0.24807 0.21406
0.30732 -0.24909 0.21201
0.30835 -0.25 0.20987
0.30921 -0.25065 0.20756
0.31031 -0.25176 0.20551
0.31166 -0.25294 0.2037
0.31295 -0.25404 0.20179
0.31444 -0.25529 0.20015
0.31589 -0.25654 0.19846
0.31708 -0.25737 0.19635
0.31844 -0.25846 0.19448
0.31957 -0.25936 0.19237
0.32015 -0.26012 0.18999
0.32082 -0.26083 0.18764
0.32169 -0.26159 0.18537
0.32239 -0.26223 0.18301
0.3232 -0.2631 0.18077
0.32425 -0.26404 0.17866
0.32549 -0.26505 0.17669
0.32674 -0.26605 0.17472
0.32802 -0.26718 0.17283
0.3293 -0.26818 0.17086
0.33037 -0.26912 0.16875
0.33158 -0.27004 0.1667
0.33254 -0.27088 0.16449
0.33357 -0.27159 0.16229
0.33474 -0.27233 0.16016
0.33612 -0.27333 0.15829
0.33744 -0.27475 0.15664
0.33878 -0.27607 0.15491
0.3399 -0.27729 0.15296
0.3405 -0.27846 0.15075
0.3411 -0.27966 0.1486
0.34208 -0.28042 0.1464
0.30848 -0.2473 0.21275
0.30748 -0.2464 0.21492
0.30955 -0.24824 0.21063
0.31047 -0.24894 0.20835
0.31144 -0.24991 0.20618
0.31284 -0.25113 0.20441
0.31414 -0.25221 0.2025
0.3154 -0.2532 0.2005
0.31688 -0.25445 0.19883
0.31829 -0.25549 0.19699
0.3194 -0.25635 0.19487
0.32041 -0.25718 0.19269
0.32116 -0.25805 0.19041
0.32191 -0.25879 0.18809
0.32259 -0.25944 0.18572
0.32308 -0.25998 0.18327
0.32372 -0.26078 0.18093
0.32479 -0.26172 0.17881
0.32601 -0.26272 0.17681
0.32738 -0.26375 0.17492
0.32866 -0.26487 0.17302
0.32989 -0.26584 0.17099
0.331 -0.26678 0.1689
0.33221 -0.26769 0.16684
0.33332 -0.26857 0.16472
0.3344 -0.26929 0.16252
0.33554 -0.26999 0.16035
0.33683 -0.27095 0.15838
0.3382 -0.27238 0.15677
0.33975 -0.27379 0.1553
0.34107 -0.27516 0.15358
0.34202 -0.27667 0.15169
0.34248 -0.27771 0.14937
0.34342 -0.27841 0.14713
0.30977 -0.24562 0.21356
0.30885 -0.24485 0.21583
0.31077 -0.24649 0.21137
0.31171 -0.24721 0.20911
0.31256 -0.24805 0.20682
0.31387 -0.24915 0.20488
0.31529 -0.25033 0.20311
0.3167 -0.25144 0.20128
0.31818 -0.2527 0.19962
0.3196 -0.25372 0.19776
0.3206 -0.25446 0.19553
0.32146 -0.25517 0.19322
0.32222 -0.25603 0.19094
0.323 -0.25678 0.18862
0.32364 -0.25739 0.18622
0.32405 -0.25787 0.18374
0.32446 -0.25856 0.18131
0.32539 -0.25943 0.17909
0.32663 -0.26044 0.17709
0.32803 -0.26146 0.17521
0.32932 -0.26257 0.17329
0.33053 -0.26353 0.17124
0.33167 -0.26447 0.16914
0.33289 -0.26537 0.16708
0.3341 -0.26627 0.16501
0.33525 -0.267 0.16284
0.33651 -0.26776 0.16075
0.33783 -0.26871 0.15879
0.33918 -0.27013 0.15715
0.34065 -0.27148 0.15556
0.34217 -0.27294 0.15409
0.3434 -0.27469 0.15255
0.34408 -0.27599 0.15036
0.34491 -0.27656 0.14801
0.34621 -0.27696 0.14585
0.31124 -0.24408 0.21434
0.31212 -0.24481 0.21204
0.3129 -0.24535 0.20965
0.31379 -0.24622 0.20738
0.31512 -0.24732 0.20546
0.31655 -0.24849 0.20365
0.31813 -0.24986 0.20215
0.31964 -0.25115 0.20053
0.32094 -0.25196 0.19847
0.32189 -0.25263 0.19618
0.32268 -0.25328 0.19383
0.32347 -0.25414 0.19155
0.3244 -0.25497 0.18927
0.32457 -0.25527 0.18669
0.32488 -0.2557 0.18418
0.32536 -0.25641 0.18177
0.32615 -0.25721 0.17947
0.32735 -0.25818 0.17743
0.32876 -0.2592 0.17554
0.32996 -0.26027 0.17353
0.33116 -0.26121 0.17147
0.33241 -0.26218 0.16945
0.33361 -0.26306 0.16736
0.33484 -0.26396 0.16529
0.33618 -0.26476 0.16327
0.33755 -0.26556 0.16126
0.33886 -0.26651 0.15929
0.3402 -0.26791 0.1576
0.34152 -0.26915 0.15579
0.34302 -0.27058 0.15429
0.3444 -0.27234 0.15294
0.34537 -0.27386 0.15102
0.34625 -0.27449 0.14867
0.34733 -0.27473 0.14637
0.31354 -0.24335 0.21308
0.31258 -0.24255 0.21535
0.31416 -0.24371 0.21059
0.315 -0.24449 0.20827
0.31641 -0.24572 0.20647
0.31783 -0.24683 0.20463
0.3193 -0.24801 0.20289
0.32084 -0.24933 0.20131
0.32213 -0.25013 0.19923
0.32292 -0.25065 0.19684
0.3237 -0.25128 0.19448
0.32447 -0.25211 0.19217
0.32531 -0.25284 0.18983
0.32558 -0.25321 0.18728
0.32568 -0.25353 0.18472
0.32608 -0.2542 0.18228
0.32688 -0.25499 0.17997
0.32794 -0.2559 0.17781
0.32931 -0.25689 0.17588
0.33055 -0.25796 0.1739
0.33182 -0.25892 0.17187
0.33309 -0.25989 0.16985
0.33427 -0.26075 0.16774
0.3355 -0.26163 0.16567
0.33701 -0.26248 0.16377
0.33839 -0.26328 0.16176
0.33975 -0.26424 0.15982
0.34099 -0.26558 0.158
0.34227 -0.2668 0.15613
0.3437 -0.26818 0.15452
0.345 -0.26987 0.15306
0.34617 -0.27145 0.15137
0.34727 -0.27221 0.14916
0.34828 -0.27242 0.1468
0.31474 -0.24159 0.21395
0.31562 -0.24226 0.21163
0.31637 -0.24297 0.20927
0.31772 -0.2441 0.20739
0.31937 -0.24561 0.20603
0.32062 -0.24639 0.20384
0.32208 -0.24751 0.20203
0.32365 -0.24847 0.20011
0.32406 -0.24871 0.19749
0.32458 -0.24918 0.19502
0.32523 -0.24994 0.19264
0.32576 -0.25054 0.19019
0.32623 -0.25097 0.1877
0.32653 -0.25137 0.18517
0.3269 -0.25201 0.1827
0.32761 -0.25275 0.18034
0.32874 -0.25368 0.17822
0.32992 -0.25458 0.17613
0.3312 -0.25565 0.17416
0.3326 -0.25665 0.17223
0.33376 -0.25756 0.17012
0.33504 -0.25846 0.16808
0.33633 -0.25935 0.16604
0.3378 -0.26017 0.1641
0.33923 -0.26097 0.16212
0.34062 -0.26194 0.1602
0.34187 -0.26328 0.15839
0.34309 -0.26446 0.15645
0.34449 -0.26581 0.15477
0.34582 -0.26751 0.15333
0.34695 -0.26906 0.15159
0.34806 -0.26981 0.1494
0.34926 -0.2701 0.14714
0.31671 -0.24034 0.21231
0.31554 -0.23949 0.21445
0.31768 -0.2413 0.21014
0.31902 -0.24236 0.20826
0.3205 -0.24359 0.20658
0.32209 -0.24474 0.20483
0.32307 -0.24546 0.20249
0.32446 -0.24626 0.20043
0.3253 -0.24677 0.19798
0.32531 -0.24698 0.19537
0.32566 -0.24764 0.1929
0.32618 -0.24823 0.19044
0.32683 -0.2487 0.18799
0.32753 -0.24926 0.18557
0.32797 -0.24992 0.18312
0.32858 -0.2506 0.18071
0.32966 -0.2515 0.17855
0.33088 -0.25241 0.17648
0.33209 -0.25343 0.17445
0.33337 -0.25436 0.17241
0.33455 -0.25528 0.17031
0.33583 -0.25617 0.16826
0.33717 -0.25706 0.16626
0.33867 -0.25787 0.16432
0.34006 -0.25864 0.16231
0.34149 -0.25962 0.16041
0.3429 -0.26104 0.15878
0.34423 -0.26228 0.15694
0.34553 -0.26356 0.15514
0.34673 -0.26517 0.1535
0.34788 -0.26671 0.15177
0.349 -0.26747 0.14958
0.35037 -0.26783 0.14742
0.3505 -0.27041 0.14491
0.3517 -0.26818 0.14524
0.31737 -0.23816 0.21259
0.31614 -0.23731 0.21469
0.31844 -0.23916 0.21046
0.31966 -0.24013 0.20841
0.321 -0.2413 0.20655
0.32255 -0.2424 0.20479
0.3238 -0.24327 0.2027
0.32511 -0.24401 0.2006
0.32629 -0.24469 0.19833
0.32624 -0.24485 0.19568
0.32646 -0.24544 0.19317
0.32696 -0.24603 0.19071
0.3277 -0.24653 0.18829
0.32849 -0.24712 0.1859
0.32915 -0.2479 0.18353
0.32981 -0.2486 0.18114
0.3307 -0.24937 0.17885
0.3319 -0.25026 0.17676
0.33311 -0.25126 0.17471
0.33431 -0.25215 0.1726
0.33547 -0.25305 0.17049
0.33679 -0.25394 0.16847
0.33816 -0.25483 0.16647
0.33943 -0.25551 0.16432
0.34097 -0.25635 0.16243
0.34247 -0.25734 0.1606
0.34378 -0.2587 0.15884
0.34526 -0.26002 0.15719
0.34662 -0.26132 0.15543
0.34767 -0.26284 0.15362
0.34862 -0.2643 0.15171
0.34986 -0.26509 0.14961
0.35145 -0.26554 0.14763
0.35284 -0.26591 0.14547
0.318 -0.23603 0.21301
0.31669 -0.23515 0.21506
0.31913 -0.23705 0.21093
0.32028 -0.23797 0.20881
0.32155 -0.2391 0.20686
0.32289 -0.24013 0.20491
0.32412 -0.24095 0.20279
0.3258 -0.24183 0.201
0.32729 -0.24267 0.19895
0.32764 -0.24306 0.19634
0.32765 -0.2435 0.19379
0.32794 -0.24394 0.19125
0.32865 -0.24443 0.18881
0.32945 -0.24502 0.18642
0.33013 -0.24579 0.18406
0.33097 -0.24659 0.18175
0.33186 -0.24736 0.17946
0.33287 -0.24811 0.17722
0.33404 -0.24908 0.17513
0.33523 -0.24995 0.173
0.33635 -0.25082 0.17085
0.33765 -0.25169 0.16881
0.33915 -0.25264 0.16692
0.34047 -0.25332 0.1648
0.34189 -0.25408 0.1628
0.34329 -0.25501 0.16085
0.34469 -0.25641 0.15918
0.3462 -0.25774 0.15756
0.34764 -0.25908 0.15589
0.34869 -0.26059 0.15405
0.34951 -0.26196 0.15201
0.35079 -0.26276 0.14994
0.35237 -0.2632 0.14794
0.35371 -0.26352 0.14575
0.31882 -0.23399 0.21356
0.32 -0.23503 0.2115
0.32112 -0.23592 0.20935
0.32224 -0.23695 0.20726
0.32357 -0.23796 0.20529
0.325 -0.23886 0.20333
0.32659 -0.2397 0.20146
0.32808 -0.24052 0.19946
0.32878 -0.24112 0.19699
0.32896 -0.24168 0.19446
0.32937 -0.24219 0.19196
0.32975 -0.24242 0.18941
0.33046 -0.24294 0.18697
0.33108 -0.24367 0.18457
0.33189 -0.24444 0.18224
0.33307 -0.24538 0.18012
0.33402 -0.24608 0.17781
0.33498 -0.2469 0.17558
0.33617 -0.24777 0.17346
0.3373 -0.24863 0.1713
0.33865 -0.24952 0.16929
0.34013 -0.25044 0.16738
0.34153 -0.25115 0.16532
0.34291 -0.25187 0.16327
0.34435 -0.25282 0.16136
0.34572 -0.2542 0.15966
0.34719 -0.25549 0.15797
0.34867 -0.25684 0.15633
0.34975 -0.25836 0.15452
0.35074 -0.25984 0.15263
0.3519 -0.26054 0.15043
0.35319 -0.2608 0.14821
0.35446 -0.26109 0.14598
0.32083 -0.23295 0.21195
0.31959 -0.23189 0.21396
0.32204 -0.2339 0.20985
0.32304 -0.23484 0.20765
0.32443 -0.23587 0.20571
0.32603 -0.23686 0.20392
0.32747 -0.23758 0.20188
0.32889 -0.23835 0.19984
0.33001 -0.23921 0.19761
0.33033 -0.23987 0.19508
0.33063 -0.24029 0.19254
0.33106 -0.24054 0.19
0.33165 -0.24096 0.18751
0.33216 -0.24161 0.18505
0.3329 -0.24232 0.18267
0.33388 -0.24312 0.18042
0.33484 -0.24382 0.17811
0.33598 -0.24474 0.17599
0.3372 -0.24562 0.17389
0.33855 -0.24664 0.17192
0.33976 -0.24741 0.16976
0.34108 -0.24821 0.16768
0.34245 -0.24888 0.16559
0.34396 -0.24966 0.16364
0.34553 -0.25069 0.16187
0.34694 -0.2521 0.16021
0.3484 -0.25337 0.15849
0.34985 -0.25468 0.15678
0.35095 -0.25619 0.15496
0.35187 -0.2576 0.15299
0.35299 -0.25828 0.15076
0.35407 -0.25843 0.14841
0.35522 -0.25865 0.14609
0.35648 -0.25917 0.14388
0.32148 -0.2308 0.21223
0.32024 -0.22973 0.21424
0.32283 -0.2318 0.21025
0.32399 -0.23283 0.20817
0.32525 -0.23375 0.20609
0.32671 -0.23464 0.20414
0.32821 -0.23539 0.20216
0.32968 -0.23618 0.20016
0.33088 -0.23706 0.19802
0.33141 -0.23785 0.19558
0.33192 -0.23839 0.19309
0.33245 -0.23872 0.19057
0.33286 -0.23899 0.18802
0.33327 -0.23956 0.18552
0.33377 -0.24012 0.18303
0.33468 -0.24088 0.18071
0.33577 -0.24164 0.17849
0.3369 -0.24255 0.17635
0.33818 -0.24345 0.1743
0.33962 -0.24452 0.1724
0.34098 -0.2454 0.17037
0.34225 -0.24613 0.16822
0.34368 -0.24683 0.16618
0.34512 -0.24755 0.16417
0.34669 -0.24856 0.16239
0.34812 -0.24998 0.16075
0.3496 -0.25126 0.15904
0.35099 -0.2525 0.15723
0.3521 -0.25401 0.15541
0.35301 -0.2554 0.1534
0.35412 -0.25606 0.15116
0.35526 -0.25622 0.14883
0.35639 -0.25641 0.1465
0.35758 -0.25686 0.14422
0.32186 -0.22859 0.21262
0.32337 -0.22965 0.21079
0.32478 -0.23081 0.20895
0.32606 -0.23174 0.20687
0.32755 -0.23263 0.20494
0.32899 -0.23332 0.2029
0.33033 -0.23402 0.20079
0.33157 -0.23493 0.19869
0.33232 -0.23584 0.19637
0.33284 -0.23637 0.19388
0.33359 -0.23683 0.19143
0.33414 -0.23721 0.18892
0.33439 -0.23764 0.18637
0.33482 -0.23814 0.18386
0.33546 -0.23872 0.18141
0.33651 -0.23946 0.17915
0.33769 -0.24037 0.17703
0.33912 -0.24139 0.17512
0.34056 -0.24244 0.17322
0.34186 -0.24324 0.17111
0.34319 -0.24401 0.16902
0.34465 -0.24472 0.167
0.346 -0.24533 0.16486
0.34758 -0.24634 0.16308
0.34907 -0.24781 0.16152
0.35055 -0.24908 0.15981
0.35198 -0.25036 0.15806
0.35307 -0.25183 0.15621
0.35396 -0.25319 0.15416
0.35513 -0.25389 0.15196
0.35645 -0.25418 0.14975
0.3576 -0.25435 0.14742
0.35881 -0.25479 0.14516
0.32398 -0.22747 0.2111
0.32249 -0.22642 0.21299
0.32543 -0.22864 0.20929
0.32692 -0.22967 0.20743
0.32842 -0.23056 0.2055
0.32997 -0.23132 0.20356
0.3313 -0.23199 0.20143
0.33252 -0.2329 0.19932
0.33343 -0.2339 0.19709
0.33404 -0.23448 0.19462
0.33472 -0.23489 0.19215
0.33529 -0.23526 0.18964
0.33577 -0.23586 0.18714
0.33606 -0.23623 0.18459
0.33661 -0.23674 0.1821
0.33759 -0.23742 0.1798
0.33878 -0.23833 0.17768
0.34037 -0.23947 0.17595
0.34175 -0.24045 0.17394
0.34296 -0.24116 0.17173
0.34426 -0.24189 0.16961
0.34573 -0.24258 0.16758
0.34725 -0.24333 0.16563
0.34884 -0.24435 0.16387
0.35017 -0.24563 0.16203
0.35172 -0.24696 0.16042
0.35314 -0.2482 0.15863
0.35429 -0.24973 0.15685
0.35519 -0.25109 0.15481
0.35646 -0.25187 0.1527
0.35785 -0.25222 0.15053
0.35909 -0.25245 0.14826
0.36048 -0.25307 0.14613
0.36161 -0.2533 0.14378
0.32484 -0.22539 0.2116
0.32341 -0.22439 0.21356
0.32636 -0.22663 0.20987
0.32784 -0.22764 0.20798
0.32937 -0.22852 0.20606
0.331 -0.22932 0.20419
0.3325 -0.23015 0.20224
0.33362 -0.23095 0.20003
0.33441 -0.23186 0.19772
0.33512 -0.23251 0.1953
0.33588 -0.23295 0.19285
0.33662 -0.23345 0.1904
0.33709 -0.23403 0.18789
0.33743 -0.23442 0.18534
0.33796 -0.2349 0.18284
0.33885 -0.23549 0.18047
0.34005 -0.23638 0.17833
0.34147 -0.23734 0.17637
0.34288 -0.23834 0.17441
0.34418 -0.23913 0.17228
0.34548 -0.23982 0.17013
0.34695 -0.2405 0.1681
0.34854 -0.2413 0.16622
0.35013 -0.24228 0.16441
0.35143 -0.24355 0.16254
0.3529 -0.24478 0.16077
0.35437 -0.24605 0.15904
0.35553 -0.24757 0.15726
0.35657 -0.24906 0.1554
0.35806 -0.2501 0.15353
0.35947 -0.25044 0.15135
0.36069 -0.25063 0.14905
0.36186 -0.25096 0.14674
0.36321 -0.25141 0.14454
0.32602 -0.22364 0.21249
0.32747 -0.2248 0.21065
0.32885 -0.22566 0.2086
0.3304 -0.22654 0.20669
0.33228 -0.22759 0.20517
0.33381 -0.22843 0.20317
0.33472 -0.22904 0.20077
0.33551 -0.22992 0.19844
0.33625 -0.23057 0.19602
0.33707 -0.23106 0.19359
0.33783 -0.23155 0.19114
0.33839 -0.23219 0.18867
0.33893 -0.23275 0.18617
0.33939 -0.23316 0.18364
0.3403 -0.23375 0.18127
0.3414 -0.23451 0.17903
0.34272 -0.23535 0.17694
0.34404 -0.23626 0.17488
0.3454 -0.23708 0.17281
0.34667 -0.23774 0.17062
0.3482 -0.23844 0.16862
0.34976 -0.23918 0.16667
0.35135 -0.24016 0.16485
0.35274 -0.2415 0.16309
0.3542 -0.24272 0.1613
0.35564 -0.24394 0.15949
0.35687 -0.24552 0.15782
0.358 -0.24708 0.15604
0.35958 -0.24822 0.15431
0.36113 -0.24872 0.15223
0.36244 -0.249 0.14997
0.36358 -0.24927 0.14764
0.36496 -0.24973 0.14546
0.3285 -0.22314 0.21184
0.32708 -0.22207 0.21376
0.32987 -0.22395 0.20976
0.33122 -0.2246 0.20762
0.33298 -0.22548 0.20589
0.33478 -0.22646 0.20414
0.33557 -0.22705 0.20164
0.33636 -0.22792 0.1993
0.33726 -0.22867 0.19697
0.33817 -0.22921 0.19457
0.33897 -0.22973 0.19213
0.33949 -0.23032 0.18963
0.34006 -0.23088 0.18714
0.34073 -0.23147 0.18468
0.3416 -0.23201 0.18229
0.34265 -0.2327 0.18
0.34388 -0.23342 0.1778
0.34513 -0.23426 0.17567
0.34643 -0.235 0.17353
0.3478 -0.23573 0.17143
0.34931 -0.23638 0.1694
0.35084 -0.23708 0.1674
0.35243 -0.23804 0.16557
0.35382 -0.23937 0.16379
0.35533 -0.24064 0.16207
0.35679 -0.24186 0.16028
0.35798 -0.24337 0.15851
0.35915 -0.24497 0.15678
0.36068 -0.24602 0.15495
0.36249 -0.2468 0.15321
0.36393 -0.24723 0.15105
0.36519 -0.24764 0.14879
0.36663 -0.24817 0.14667
0.36806 -0.24886 0.14458
0.32946 -0.22132 0.21294
0.33075 -0.22205 0.21075
0.33207 -0.22267 0.20857
0.33371 -0.2234 0.20666
0.33511 -0.22414 0.20455
0.33611 -0.22485 0.20222
0.33698 -0.22575 0.19991
0.33811 -0.22661 0.19771
0.33927 -0.22732 0.19547
0.34014 -0.22789 0.19305
0.34069 -0.22849 0.19055
0.34128 -0.22906 0.18807
0.342 -0.22968 0.18562
0.34293 -0.23026 0.18325
0.34392 -0.23084 0.18089
0.34515 -0.23156 0.17868
0.34633 -0.23231 0.17647
0.34768 -0.2331 0.17437
0.34906 -0.23379 0.17225
0.3505 -0.23435 0.17014
0.35205 -0.23506 0.16816
0.35362 -0.23598 0.16628
0.35505 -0.23735 0.16455
0.35654 -0.23857 0.16277
0.35806 -0.23985 0.16107
0.35934 -0.24149 0.15949
0.36045 -0.24298 0.15762
0.36198 -0.24401 0.15577
0.36375 -0.24475 0.15399
0.36535 -0.24534 0.15199
0.36681 -0.24601 0.14992
0.36839 -0.24679 0.14798
0.36979 -0.24739 0.14583
0.3317 -0.21997 0.21109
0.33025 -0.21915 0.21312
0.3331 -0.22063 0.20896
0.33458 -0.22125 0.20688
0.3359 -0.22196 0.20471
0.33695 -0.22267 0.20241
0.33787 -0.22357 0.2001
0.33922 -0.22457 0.19806
0.34062 -0.22548 0.19602
0.34156 -0.22608 0.19362
0.34216 -0.22672 0.19114
0.34283 -0.22735 0.18868
0.3436 -0.22801 0.18626
0.34456 -0.22862 0.18389
0.34557 -0.22921 0.18154
0.34668 -0.22977 0.17923
0.34788 -0.23052 0.17701
0.34919 -0.23126 0.17486
0.3505 -0.23185 0.17266
0.35192 -0.23237 0.1705
0.35361 -0.23321 0.16867
0.3552 -0.23412 0.16677
0.35662 -0.23547 0.16502
0.35815 -0.23674 0.16329
0.3597 -0.23803 0.1616
0.36106 -0.23978 0.16017
0.36226 -0.24143 0.15849
0.36373 -0.24232 0.15649
0.36535 -0.24284 0.15448
0.36696 -0.24342 0.15249
0.36854 -0.24421 0.15055
0.3702 -0.24506 0.1487
0.37172 -0.24591 0.14672
0.37331 -0.24665 0.14475
0.33261 -0.2179 0.21147
0.33109 -0.21706 0.21346
0.33403 -0.21856 0.20935
0.33559 -0.21922 0.20733
0.33699 -0.21996 0.20522
0.33812 -0.22072 0.20296
0.33907 -0.22162 0.20066
0.34038 -0.22259 0.19859
0.34182 -0.22353 0.19658
0.34294 -0.2243 0.19432
0.34374 -0.22515 0.19195
0.34445 -0.22581 0.18949
0.34511 -0.22632 0.18699
0.34605 -0.22688 0.18459
0.34697 -0.22736 0.18217
0.34814 -0.22797 0.17989
0.34942 -0.22882 0.17775
0.35074 -0.22955 0.17559
0.35197 -0.23 0.1733
0.35342 -0.23051 0.17114
0.35514 -0.23138 0.16933
0.35687 -0.23253 0.16769
0.35828 -0.23381 0.16587
0.3598 -0.23505 0.16411
0.36132 -0.23625 0.16232
0.36256 -0.23779 0.16057
0.36382 -0.23949 0.15898
0.36534 -0.24045 0.15705
0.36686 -0.24085 0.15493
0.36853 -0.24148 0.15298
0.37001 -0.24214 0.15091
0.37176 -0.24305 0.14916
0.37349 -0.24415 0.14749
0.3753 -0.24508 0.1457
0.33335 -0.21581 0.21207
0.33488 -0.21653 0.21004
0.33644 -0.21716 0.208
0.33802 -0.21804 0.20606
0.33916 -0.2188 0.20378
0.34029 -0.21987 0.20165
0.3416 -0.22083 0.19957
0.34297 -0.22168 0.19747
0.34418 -0.22252 0.19526
0.345 -0.22336 0.19289
0.3459 -0.22421 0.19054
0.34651 -0.22467 0.188
0.34731 -0.22506 0.18552
0.3482 -0.22546 0.18305
0.34943 -0.22613 0.1808
0.35078 -0.22706 0.17872
0.35219 -0.2279 0.17664
0.35342 -0.22831 0.17432
0.35491 -0.22884 0.1722
0.35664 -0.22969 0.17036
0.35843 -0.23103 0.16893
0.3599 -0.23256 0.16733
0.36141 -0.23367 0.16544
0.36292 -0.23478 0.16359
0.36411 -0.23611 0.16164
0.36503 -0.23731 0.15945
0.36654 -0.23826 0.15753
0.36815 -0.23875 0.1555
0.36975 -0.23929 0.15346
0.37142 -0.2401 0.15158
0.37322 -0.24104 0.14987
0.37483 -0.24196 0.14797
0.37633 -0.24259 0.14588
0.33574 -0.21456 0.21088
0.3342 -0.21386 0.21292
0.33718 -0.21507 0.2087
0.33872 -0.2159 0.20671
0.34016 -0.2169 0.20471
0.34131 -0.21799 0.20258
0.34279 -0.21911 0.20068
0.34414 -0.21991 0.19853
0.34533 -0.22071 0.19628
0.34621 -0.2216 0.19394
0.347 -0.22232 0.19151
0.34783 -0.22298 0.18908
0.34878 -0.22356 0.18667
0.34957 -0.22375 0.18412
0.35077 -0.22437 0.18181
0.35211 -0.22526 0.17968
0.35352 -0.2261 0.17761
0.35488 -0.22665 0.1754
0.35644 -0.22726 0.17334
0.35818 -0.2281 0.1715
0.35996 -0.22939 0.17
0.36148 -0.231 0.16851
0.36301 -0.23217 0.16666
0.36453 -0.23326 0.16478
0.36575 -0.23459 0.16282
0.36656 -0.23556 0.16046
0.36778 -0.23616 0.1582
0.36942 -0.23666 0.15618
0.37104 -0.23719 0.15414
0.37272 -0.23801 0.15226
0.37444 -0.23882 0.15041
0.37603 -0.2397 0.14845
0.37729 -0.24019 0.14616
0.3366 -0.21253 0.21158
0.3351 -0.21188 0.21368
0.33807 -0.21305 0.20943
0.33944 -0.21375 0.20726
0.3408 -0.21469 0.20518
0.34211 -0.21588 0.2032
0.34354 -0.21692 0.20122
0.34506 -0.21783 0.19924
0.34638 -0.21872 0.19709
0.34737 -0.2197 0.19481
0.34815 -0.22042 0.19237
0.3492 -0.22132 0.19011
0.35052 -0.22246 0.18803
0.3513 -0.22263 0.18543
0.35229 -0.22284 0.18294
0.35357 -0.22363 0.18073
0.35502 -0.22451 0.17869
0.35647 -0.22518 0.17656
0.35808 -0.22582 0.17456
0.35976 -0.22644 0.17256
0.3615 -0.22762 0.17088
0.36303 -0.22921 0.16935
0.36463 -0.23047 0.16762
0.36622 -0.23161 0.1658
0.36734 -0.23274 0.16362
0.36805 -0.23367 0.16121
0.36928 -0.23426 0.15895
0.37089 -0.23471 0.1569
0.37251 -0.23523 0.15486
0.37415 -0.23598 0.15291
0.37581 -0.2367 0.15095
0.37717 -0.23739 0.14876
0.37837 -0.23784 0.14642
0.37854 -0.24049 0.14384
0.37957 -0.23809 0.14407
0.33734 -0.21045 0.21227
0.33889 -0.21101 0.21018
0.3403 -0.21172 0.20804
0.34151 -0.21255 0.20582
0.34269 -0.21366 0.20371
0.34411 -0.21469 0.20172
0.3457 -0.21561 0.1998
0.34717 -0.21659 0.19779
0.34826 -0.21762 0.19558
0.34925 -0.21851 0.19329
0.35046 -0.21955 0.19117
0.35184 -0.22066 0.18916
0.35303 -0.22143 0.18684
0.35387 -0.22157 0.18428
0.35501 -0.22207 0.18192
0.35651 -0.22303 0.17993
0.35808 -0.224 0.17802
0.35975 -0.22503 0.17623
0.36145 -0.22573 0.17432
0.36308 -0.22624 0.17228
0.36431 -0.22718 0.1701
0.36578 -0.2283 0.16818
0.36735 -0.22939 0.16632
0.36841 -0.23049 0.16414
0.36923 -0.23152 0.16183
0.37049 -0.23214 0.1596
0.37216 -0.23263 0.15759
0.37384 -0.2332 0.15561
0.37557 -0.23395 0.15371
0.37688 -0.23438 0.15141
0.37804 -0.23495 0.14907
0.37906 -0.23532 0.14665
0.38006 -0.23552 0.14419
0.33965 -0.20893 0.21092
0.33815 -0.20843 0.21306
0.34108 -0.20965 0.20879
0.34233 -0.2105 0.2066
0.34342 -0.21154 0.2044
0.3448 -0.21252 0.20235
0.34639 -0.21344 0.20042
0.3479 -0.21443 0.19845
0.34906 -0.21549 0.1963
0.35025 -0.21651 0.19415
0.35141 -0.21748 0.19196
0.35264 -0.2184 0.18979
0.35384 -0.21914 0.18753
0.35518 -0.21978 0.18533
0.35645 -0.22054 0.18313
0.358 -0.22163 0.18127
0.35962 -0.22292 0.17961
0.36131 -0.2242 0.17799
0.36307 -0.22532 0.17626
0.36475 -0.22584 0.17418
0.36579 -0.22591 0.17168
0.36682 -0.22623 0.16922
0.36821 -0.22715 0.16712
0.36937 -0.22835 0.16505
0.37029 -0.22944 0.16279
0.37153 -0.23003 0.16053
0.37306 -0.2304 0.15839
0.37466 -0.23089 0.15632
0.3763 -0.2315 0.15428
0.37727 -0.23184 0.15179
0.37843 -0.23239 0.14945
0.37939 -0.23276 0.147
0.38033 -0.23294 0.14452
0.33944 -0.20653 0.21341
0.34088 -0.20698 0.21122
0.34232 -0.2077 0.20909
0.34372 -0.20868 0.20705
0.34479 -0.20966 0.20481
0.34616 -0.21063 0.20274
0.34767 -0.21148 0.20071
0.34908 -0.21238 0.19864
0.3504 -0.21355 0.19664
0.35164 -0.2146 0.19452
0.35273 -0.2155 0.19225
0.35387 -0.21634 0.18999
0.35492 -0.21697 0.18763
0.35636 -0.21764 0.18548
0.35796 -0.2187 0.18363
0.35971 -0.22016 0.18223
0.36141 -0.22169 0.18085
0.36311 -0.22288 0.17915
0.3649 -0.22402 0.1775
0.36668 -0.2249 0.17559
0.36778 -0.2252 0.17309
0.36862 -0.22501 0.17053
0.36986 -0.22559 0.16823
0.37095 -0.22666 0.16605
0.37174 -0.22757 0.16368
0.3729 -0.22806 0.16135
0.37418 -0.22821 0.15902
0.37527 -0.22843 0.15659
0.37643 -0.2289 0.15424
0.37736 -0.22927 0.15178
0.37849 -0.22979 0.14941
0.3796 -0.23017 0.14702
0.38054 -0.23035 0.14454
0.34102 -0.20484 0.21357
0.3423 -0.20514 0.21125
0.34371 -0.20582 0.20908
0.34527 -0.20693 0.20721
0.34648 -0.20806 0.20512
0.34776 -0.20892 0.20294
0.34917 -0.20966 0.20079
0.35041 -0.21043 0.19856
0.35172 -0.21157 0.19653
0.35314 -0.21271 0.19455
0.35397 -0.21346 0.19209
0.35515 -0.21431 0.18984
0.35637 -0.21503 0.18757
0.35799 -0.21584 0.18559
0.35973 -0.21707 0.18397
0.36149 -0.21849 0.18257
0.36326 -0.22 0.18123
0.36499 -0.22127 0.17963
0.36688 -0.22248 0.17814
0.36873 -0.22336 0.17627
0.36993 -0.22392 0.17383
0.37073 -0.22389 0.17125
0.37207 -0.2246 0.16908
0.37323 -0.22559 0.16684
0.37386 -0.22616 0.16425
0.37438 -0.22603 0.1616
0.3752 -0.22589 0.15906
0.37595 -0.22598 0.1565
0.37655 -0.22635 0.15391
0.37743 -0.22671 0.15141
0.3786 -0.22723 0.14904
0.37964 -0.2276 0.14662
0.38053 -0.22777 0.14411
0.38165 -0.23063 0.14212
0.3816 -0.22805 0.14167
0.34228 -0.20289 0.21344
0.34367 -0.20326 0.21119
0.34512 -0.20397 0.20905
0.34679 -0.20514 0.2073
0.34837 -0.20656 0.20556
0.34941 -0.20722 0.20312
0.35047 -0.20769 0.20069
0.35172 -0.20846 0.19846
0.35293 -0.20953 0.19631
0.35421 -0.21058 0.19422
0.35523 -0.21143 0.19188
0.35659 -0.21239 0.18978
0.35812 -0.21338 0.18782
0.35986 -0.21435 0.18603
0.36133 -0.21526 0.18398
0.36302 -0.21658 0.18238
0.36477 -0.21802 0.18096
0.36653 -0.21931 0.17943
0.36844 -0.22043 0.1779
0.37014 -0.22117 0.17591
0.37142 -0.22179 0.17362
0.37281 -0.22238 0.17141
0.37429 -0.22306 0.16924
0.37508 -0.22361 0.1666
0.37513 -0.2239 0.16391
0.37544 -0.22377 0.16124
0.37609 -0.22357 0.15866
0.37658 -0.22357 0.15602
0.37713 -0.22389 0.15342
0.3777 -0.22421 0.1508
0.37875 -0.22473 0.14838
0.37973 -0.22511 0.14592
0.38065 -0.22526 0.14341
0.38173 -0.22552 0.14095
0.34329 -0.20081 0.21356
0.34472 -0.20119 0.21132
0.34617 -0.2019 0.20917
0.34769 -0.20297 0.20722
0.3491 -0.20424 0.20533
0.35031 -0.20503 0.20307
0.35164 -0.20564 0.20082
0.3529 -0.2064 0.19857
0.354 -0.20739 0.19633
0.35529 -0.20845 0.19423
0.35641 -0.20933 0.19195
0.35781 -0.21031 0.18987
0.35963 -0.21153 0.18827
0.36137 -0.21244 0.1864
0.36246 -0.21312 0.184
0.36382 -0.21429 0.18198
0.36546 -0.21571 0.18039
0.36728 -0.217 0.17891
0.36916 -0.21808 0.17734
0.37086 -0.2188 0.17539
0.37234 -0.21947 0.17325
0.3739 -0.22004 0.17113
0.37523 -0.22057 0.16878
0.37553 -0.22103 0.16609
0.37558 -0.22143 0.16343
0.37623 -0.22142 0.16083
0.37672 -0.22117 0.15821
0.37722 -0.22115 0.15557
0.37766 -0.22142 0.15293
0.37828 -0.22172 0.15033
0.37907 -0.22222 0.14781
0.37986 -0.22259 0.14527
0.38075 -0.22273 0.14271
0.34704 -0.19975 0.20955
0.34572 -0.19915 0.21183
0.34849 -0.20079 0.20752
0.34976 -0.202 0.20549
0.3511 -0.20282 0.20332
0.35257 -0.2035 0.20118
0.35394 -0.20432 0.19901
0.35522 -0.20541 0.19691
0.35651 -0.20647 0.19481
0.35771 -0.20741 0.1926
0.35904 -0.20829 0.19043
0.36068 -0.20937 0.18858
0.36225 -0.21016 0.18655
0.3634 -0.21088 0.18423
0.36452 -0.21194 0.182
0.36607 -0.21333 0.18025
0.36792 -0.21461 0.17879
0.36963 -0.21567 0.17702
0.37124 -0.21637 0.175
0.37267 -0.21703 0.17283
0.3741 -0.21757 0.17062
0.37528 -0.21805 0.16825
0.37572 -0.21854 0.16564
0.37606 -0.21899 0.16302
0.37659 -0.21896 0.16039
0.3772 -0.21872 0.15779
0.3778 -0.2187 0.15517
0.37837 -0.21898 0.15255
0.37898 -0.21926 0.14996
0.3794 -0.21968 0.14734
0.34806 -0.19775 0.21024
0.34677 -0.19719 0.21255
0.34947 -0.19876 0.20816
0.35061 -0.19986 0.20599
0.35198 -0.20069 0.20384
0.35343 -0.20135 0.20167
0.35489 -0.2022 0.19955
0.35635 -0.20345 0.19765
0.35784 -0.20475 0.19581
0.35905 -0.20567 0.19359
0.36037 -0.20652 0.1914
0.3619 -0.20744 0.1894
0.36328 -0.20806 0.18717
0.36434 -0.2087 0.18478
0.36526 -0.20962 0.18239
0.36667 -0.21095 0.18047
0.36845 -0.21221 0.17888
0.37 -0.21322 0.17694
0.37157 -0.21391 0.17487
0.37304 -0.21457 0.17273
0.37432 -0.21509 0.17042
0.37533 -0.21555 0.16797
0.37652 -0.21652 0.16287
0.34921 -0.19587 0.21104
0.35052 -0.19678 0.20885
0.35173 -0.19794 0.20675
0.35299 -0.19865 0.20447
0.35442 -0.19928 0.20226
0.35605 -0.20027 0.20033
0.35753 -0.20154 0.19846
0.35897 -0.20277 0.19655
0.36041 -0.20397 0.19461
0.36172 -0.20479 0.1924
0.36324 -0.20567 0.19035
0.36464 -0.20627 0.1881
0.36552 -0.20672 0.18558
0.36626 -0.20747 0.18308
0.36728 -0.20858 0.18081
0.36872 -0.20974 0.17884
0.37029 -0.21075 0.1769
0.372 -0.21146 0.17494
0.3518 -0.195 0.20967
0.35036 -0.19395 0.21172
0.35289 -0.19601 0.20741
0.35401 -0.1966 0.20502
0.35551 -0.19726 0.20284
0.35711 -0.19823 0.20087
0.35866 -0.19955 0.19908
0.36018 -0.20084 0.19725
0.3617 -0.2021 0.1954
0.36336 -0.20328 0.19355
0.36448 -0.20372 0.19107
0.36579 -0.20422 0.18875
0.35304 -0.19317 0.21048
0.3542 -0.19425 0.20826
0.3553 -0.19478 0.20583
0.35658 -0.19523 0.20346
0.35816 -0.19618 0.20142
POLYGONS 2464 9856
3 0 1 2
3 0 3 1
3 3 4 1
3 3 5 4
3 5 6 4
3 5 7 6
3 7 8 6
3 7 9 8
3 9 10 8
3 9 11 10
3 11 12 10
3 11 13 12
3 13 14 12
3 13 15 14
3 15 16 14
3 15 17 16
3 17 18 16
3 17 19 18
3 19 20 18
3 19 21 20
3 21 22 20
3 21 23 22
3 23 24 22
3 23 25 24
3 25 26 24
3 25 27 26
3 27 28 26
3 27 29 28
3 29 30 28
3 29 31 30
3 31 32 30
3 31 33 32
3 33 34 32
3 33 35 34
3 35 36 34
3 35 37 36
3 37 38 36
3 37 39 38
3 39 40 38
3 39 41 40
3 41 42 40
3 41 43 42
3 43 44 42
3 43 45 44
3 45 46 44
3 45 47 46
3 47 48 46
3 47 49 48
3 49 50 48
3 49 51 50
3 51 52 50
3 51 53 52
3 53 54 52
3 53 55 54
3 55 56 54
3 55 57 56
3 57 58 56
3 57 59 58
3 59 60 58
3 59 61 60
3 61 62 60
3 61 63 62
3 63 64 62
3 63 65 64
3 65 66 64
3 67 68 66
3 2 1 69
3 1 70 69
3 1 4 70
3 4 71 70
3 4 6 71
3 6 72 71
3 6 8 72
3 8 73 72
3 8 10 73
3 10 74 73
3 10 12 74
3 12 75 74
3 12 14 75
3 14 76 75
3 14 16 76
3 16 77 76
3 16 18 77
3 18 78 77
3 18 20 78
3 20 79 78
3 20 22 79
3 22 80 79
3 22 24 80
3 24 81 80
3 24 26 81
3 26 82 81
3 26 28 82
3 28 83 82
3 28 30 83
3 30 84 83
3 30 32 84
3 32 85 84
3 32 34 85
3 34 86 85
3 34 36 86
3 36 87 86
3 36 38 87
3 38 88 87
3 38 40 88
3 40 89 88
3 40 42 89
3 42 90 89
3 42 44 90
3 44 91 90
3 44 46 91
3 46 92 91
3 46 48 92
3 48 93 92
3 48 50 93
3 50 94 93
3 50 52 94
3 52 95 94
3 52 54 95
3 54 96 95
3 54 56 96
3 56 97 96
3 56 58 97
3 58 98 97
3 58 60 98
3 60 99 98
3 60 62 99
3 62 100 99
3 62 64 100
3 64 101 100
3 64 66 101
3 66 102 101
3 66 68 102
3 69 103 104
3 69 70 103
3 70 105 103
3 70 71 105
3 71 106 105
3 71 72 106
3 72 107 106
3 72 73 107
3 73 108 107
3 73 74 108
3 74 109 108
3 74 75 109
3 75 110 109
3 75 76 110
3 76 111 110
3 76 77 111
3 77 112 111
3 77 78 112
3 78 113 112
3 78 79 113
3 79 114 113
3 79 80 114
3 80 115 114
3 80 81 115
3 81 116 115
3 81 82 116
3 82 117 116
3 82 83 117
3 83 118 117
3 83 84 118
3 84 119 118
3 84 85 119
3 85 120 119
3 85 86 120
3 86 121 120
3 86 87 121
3 87 122 121
3 87 88 122
3 88 123 122
3 88 89 123
3 89 124 123
3 89 90 124
3 90 125 124
3 90 91 125
3 91 126 125
3 91 92 126
3 92 127 126
3 92 93 127
3 93 128 127
3 93 94 128
3 94 129 128
3 94 95 129
3 95 130 129
3 95 96 130
3 96 131 130
3 96 97 131
3 97 132 131
3 97 98 132
3 98 133 132
3 98 99 133
3 99 134 133
3 99 100 134
3 100 135 134
3 100 101 135
3 101 136 135
3 101 102 136
3 104 137 138
3 104 103 137
3 103 139 137
3 103 105 139
3 105 140 139
3 105 106 140
3 106 141 140
3 106 107 141
3 107 142 141
3 107 108 142
3 108 143 142
3 108 109 143
3 109 144 143
3 109 110 144
3 110 145 144
3 110 111 145
3 111 146 145
3 111 112 146
3 112 147 146
3 112 113 147
3 113 148 147
3 113 114 148
3 114 149 148
3 114 115 149
3 115 150 149
3 115 116 150
3 116 151 150
3 116 117 151
3 117 152 151
3 117 118 152
3 118 153 152
3 118 119 153
3 119 154 153
3 119 120 154
3 120 155 154
3 120 121 155
3 121 156 155
3 121 122 156
3 122 157 156
3 122 123 157
3 123 158 157
3 123 124 158
3 124 159 158
3 124 125 159
3 125 160 159
3 125 126 160
3 126 161 160
3 126 127 161
3 127 162 161
3 127 128 162
3 128 163 162
3 128 129 163
3 129 164 163
3 129 130 164
3 130 165 164
3 130 131 165
3 131 166 165
3 131 132 166
3 132 167 166
3 132 133 167
3 133 168 167
3 133 134 168
3 134 169 168
3 134 135 169
3 135 170 169
3 135 136 170
3 136 171 170
3 138 137 172
3 137 173 172
3 137 139 173
3 139 174 173
3 139 140 174
3 140 175 174
3 140 141 175
3 141 176 175
3 141 142 176
3 142 177 176
3 142 143 177
3 143 178 177
3 143 144 178
3 144 179 178
3 144 145 179
3 145 180 179
3 145 146 180
3 146 181 180
3 146 147 181
3 147 182 181
3 147 148 182
3 148 183 182
3 148 149 183
3 149 184 183
3 149 150 184
3 150 185 184
3 150 151 185
3 151 186 185
3 151 152 186
3 152 187 186
3 152 153 187
3 153 188 187
3 153 154 188
3 154 189 188
3 154 155 189
3 155 190 189
3 155 156 190
3 156 191 190
3 156 157 191
3 157 192 191
3 157 158 192
3 158 193 192
3 158 159 193
3 159 194 193
3 159 160 194
3 160 195 194
3 160 161 195
3 161 196 195
3 161 162 196
3 162 197 196
3 162 163 197
3 163 198 197
3 163 164 198
3 164 199 198
3 164 165 199
3 165 200 199
3 165 166 200
3 166 201 200
3 166 167 201
3 167 202 201
3 167 168 202
3 168 203 202
3 168 169 203
3 169 204 203
3 169 170 204
3 170 205 204
3 170 171 205
3 172 206 207
3 172 173 206
3 173 208 206
3 173 174 208
3 174 209 208
3 174 175 209
3 175 210 209
3 175 176 210
3 176 211 210
3 176 177 211
3 177 212 211
3 177 178 212
3 178 213 212
3 178 179 213
3 179 214 213
3 179 180 214
3 180 215 214
3 180 181 215
3 181 216 215
3 181 182 216
3 182 217 216
3 182 183 217
3 183 218 217
3 183 184 218
3 184 219 218
3 184 185 219
3 185 220 219
3 185 186 220
3 186 221 220
3 186 187 221
3 187 222 221
3 187 188 222
3 188 223 222
3 188 189 223
3 189 224 223
3 189 190 224
3 190 225 224
3 190 191 225
3 191 226 225
3 191 192 226
3 192 227 226
3 192 193 227
3 193 228 227
3 193 194 228
3 194 229 228
3 194 195 229
3 195 230 229
3 195 196 230
3 196 231 230
3 196 197 231
3 197 232 231
3 197 198 232
3 198 233 232
3 198 199 233
3 199 234 233
3 199 200 234
3 200 235 234
3 200 201 235
3 201 236 235
3 201 202 236
3 202 237 236
3 202 203 237
3 203 238 237
3 203 204 238
3 204 239 238
3 204 205 239
3 207 206 240
3 206 241 240
3 206 208 241
3 208 242 241
3 208 209 242
3 209 243 242
3 209 210 243
3 210 244 243
3 210 211 244
3 211 245 244
3 211 212 245
3 212 246 245
3 212 213 246
3 213 247 246
3 213 214 247
3 214 248 247
3 214 215 248
3 215 249 248
3 215 216 249
3 216 250 249
3 216 217 250
3 217 251 250
3 217 218 251
3 218 252 251
3 218 219 252
3 219 253 252
3 219 220 253
3 220 254 253
3 220 221 254
3 221 255 254
3 221 222 255
3 222 256 255
3 222 223 256
3 223 257 256
3 223 224 257
3 224 258 257
3 224 225 258
3 225 259 258
3 225 226 259
3 226 260 259
3 226 227 260
3 227 261 260
3 227 228 261
3 228 262 261
3 228 229 262
3 229 263 262
3 229 230 263
3 230 264 263
3 230 231 264
3 231 265 264
3 231 232 265
3 232 266 265
3 232 233 266
3 233 267 266
3 233 234 267
3 234 268 267
3 234 235 268
3 235 269 268
3 235 236 269
3 236 270 269
3 236 237 270
3 237 271 270
3 237 238 271
3 238 272 271
3 238 239 272
3 239 273 272
3 240 274 275
3 240 241 274
3 241 276 274
3 241 242 276
3 242 277 276
3 242 243 277
3 243 278 277
3 243 244 278
3 244 279 278
3 244 245 279
3 245 280 279
3 245 246 280
3 246 281 280
3 246 247 281
3 247 282 281
3 247 248 282
3 248 283 282
3 248 249 283
3 249 284 283
3 249 250 284
3 250 285 284
3 250 251 285
3 251 286 285
3 251 252 286
3 252 287 286
3 252 253 287
3 253 288 287
3 253 254 288
3 254 289 288
3 254 255 289
3 255 290 289
3 255 256 290
3 256 291 290
3 256 257 291
3 257 292 291
3 257 258 292
3 258 293 292
3 258 259 293
3 259 294 293
3 259 260 294
3 260 295 294
3 260 261 295
3 261 296 295
3 261 262 296
3 262 297 296
3 262 263 297
3 263 298 297
3 263 264 298
3 264 299 298
3 264 265 299
3 265 300 299
3 265 266 300
3 266 301 300
3 266 267 301
3 267 302 301
3 267 268 302
3 268 303 302
3 268 269 303
3 269 304 303
3 269 270 304
3 270 305 304
3 270 271 305
3 271 306 305
3 271 272 306
3 272 307 306
3 272 273 307
3 275 308 309
3 275 274 308
3 274 310 308
3 274 276 310
3 276 311 310
3 276 277 311
3 277 312 311
3 277 278 312
3 278 313 312
3 278 279 313
3 279 314 313
3 279 280 314
3 280 315 314
3 280 281 315
3 281 316 315
3 281 282 316
3 282 317 316
3 282 283 317
3 283 318 317
3 283 284 318
3 284 319 318
3 284 285 319
3 285 320 319
3 285 286 320
3 286 321 320
3 286 287 321
3 287 322 321
3 287 288 322
3 288 323 322
3 288 289 323
3 289 324 323
3 289 290 324
3 290 325 324
3 290 291 325
3 291 326 325
3 291 292 326
3 292 327 326
3 292 293 327
3 293 328 327
3 293 294 328
3 294 329 328
3 294 295 329
3 295 330 329
3 295 296 330
3 296 331 330
3 296 297 331
3 297 332 331
3 297 298 332
3 298 333 332
3 298 299 333
3 299 334 333
3 299 300 334
3 300 335 334
3 300 301 335
3 301 336 335
3 301 302 336
3 302 337 336
3 302 303 337
3 303 338 337
3 303 304 338
3 304 339 338
3 304 305 339
3 305 340 339
3 305 306 340
3 306 341 340
3 306 307 341
3 307 342 341
3 309 308 343
3 308 344 343
3 308 310 344
3 310 345 344
3 310 311 345
3 311 346 345
3 311 312 346
3 312 347 346
3 312 313 347
3 313 348 347
3 313 314 348
3 314 349 348
3 314 315 349
3 315 350 349
3 315 316 350
3 316 351 350
3 316 317 351
3 317 352 351
3 317 318 352
3 318 353 352
3 318 319 353
3 319 354 353
3 319 320 354
3 320 355 354
3 320 321 355
3 321 356 355
3 321 322 356
3 322 357 356
3 322 323 357
3 323 358 357
3 323 324 358
3 324 359 358
3 324 325 359
3 325 360 359
3 325 326 360
3 326 361 360
3 326 327 361
3 327 362 361
3 327 328 362
3 328 363 362
3 328 329 363
3 329 364 363
3 329 330 364
3 330 365 364
3 330 331 365
3 331 366 365
3 331 332 366
3 332 367 366
3 332 333 367
3 333 368 367
3 333 334 368
3 334 369 368
3 334 335 369
3 335 370 369
3 335 336 370
3 336 371 370
3 336 337 371
3 337 372 371
3 337 338 372
3 338 373 372
3 338 339 373
3 339 374 373
3 339 340 374
3 340 375 374
3 340 341 375
3 341 376 375
3 341 342 376
3 343 377 378
3 343 344 377
3 344 379 377
3 344 345 379
3 345 380 379
3 345 346 380
3 346 381 380
3 346 347 381
3 347 382 381
3 347 348 382
3 348 383 382
3 348 349 383
3 349 384 383
3 349 350 384
3 350 385 384
3 350 351 385
3 351 386 385
3 351 352 386
3 352 387 386
3 352 353 387
3 353 388 387
3 353 354 388
3 354 389 388
3 354 355 389
3 355 390 389
3 355 356 390
3 356 391 390
3 356 357 391
3 357 392 391
3 357 358 392
3 358 393 392
3 358 359 393
3 359 394 393
3 359 360 394
3 360 395 394
3 360 361 395
3 361 396 395
3 361 362 396
3 362 397 396
3 362 363 397
3 363 398 397
3 363 364 398
3 364 399 398
3 364 365 399
3 365 400 399
3 365 366 400
3 366 401 400
3 366 367 401
3 367 402 401
3 367 368 402
3 368 403 402
3 368 369 403
3 369 404 403
3 369 370 404
3 370 405 404
3 370 371 405
3 371 406 405
3 371 372 406
3 372 407 406
3 372 373 407
3 373 408 407
3 373 374 408
3 374 409 408
3 374 375 409
3 375 410 409
3 375 376 410
3 378 377 411
3 377 412 411
3 377 379 412
3 379 413 412
3 379 380 413
3 380 414 413
3 380 381 414
3 381 415 414
3 381 382 415
3 382 416 415
3 382 383 416
3 383 417 416
3 383 384 417
3 384 418 417
3 384 385 418
3 385 419 418
3 385 386 419
3 386 420 419
3 386 387 420
3 387 421 420
3 387 388 421
3 388 422 421
3 388 389 422
3 389 423 422
3 389 390 423
3 390 424 423
3 390 391 424
3 391 425 424
3 391 392 425
3 392 426 425
3 392 393 426
3 393 427 426
3 393 394 427
3 394 428 427
3 394 395 428
3 395 429 428
3 395 396 429
3 396 430 429
3 396 397 430
3 397 431 430
3 397 398 431
3 398 432 431
3 398 399 432
3 399 433 432
3 399 400 433
3 400 434 433
3 400 401 434
3 401 435 434
3 401 402 435
3 402 436 435
3 402 403 436
3 403 437 436
3 403 404 437
3 404 438 437
3 404 405 438
3 405 439 438
3 405 406 439
3 406 440 439
3 406 407 440
3 407 441 440
3 407 408 441
3 408 442 441
3 408 409 442
3 409 443 442
3 409 410 443
3 411 444 445
3 411 412 444
3 412 446 444
3 412 413 446
3 413 447 446
3 413 414 447
3 414 448 447
3 414 415 448
3 415 449 448
3 415 416 449
3 416 450 449
3 416 417 450
3 417 451 450
3 417 418 451
3 418 452 451
3 418 419 452
3 419 453 452
3 419 420 453
3 420 454 453
3 420 421 454
3 421 455 454
3 421 422 455
3 422 456 455
3 422 423 456
3 423 457 456
3 423 424 457
3 424 458 457
3 424 425 458
3 425 459 458
3 425 426 459
3 426 460 459
3 426 427 460
3 427 461 460
3 427 428 461
3 428 462 461
3 428 429 462
3 429 463 462
3 429 430 463
3 430 464 463
3 430 431 464
3 431 465 464
3 431 432 465
3 432 466 465
3 432 433 466
3 433 467 466
3 433 434 467
3 434 468 467
3 434 435 468
3 435 469 468
3 435 436 469
3 436 470 469
3 436 437 470
3 437 471 470
3 437 438 471
3 438 472 471
3 438 439 472
3 439 473 472
3 439 440 473
3 440 474 473
3 440 441 474
3 441 475 474
3 441 442 475
3 442 443 475
3 475 443 476
3 443 477 476
3 476 477 478
3 445 479 480
3 445 444 479
3 444 481 479
3 444 446 481
3 446 482 481
3 446 447 482
3 447 483 482
3 447 448 483
3 448 484 483
3 448 449 484
3 449 485 484
3 449 450 485
3 450 486 485
3 450 451 486
3 451 487 486
3 451 452 487
3 452 488 487
3 452 453 488
3 453 489 488
3 453 454 489
3 454 490 489
3 454 455 490
3 455 491 490
3 455 456 491
3 456 492 491
3 456 457 492
3 457 493 492
3 457 458 493
3 458 494 493
3 458 459 494
3 459 495 494
3 459 460 495
3 460 496 495
3 460 461 496
3 461 497 496
3 461 462 497
3 462 498 497
3 462 463 498
3 463 499 498
3 463 464 499
3 464 500 499
3 464 465 500
3 465 501 500
3 465 466 501
3 466 502 501
3 466 467 502
3 467 503 502
3 467 468 503
3 468 504 503
3 468 469 504
3 469 505 504
3 469 470 505
3 470 506 505
3 470 471 506
3 471 507 506
3 471 472 507
3 472 508 507
3 472 473 508
3 473 509 508
3 473 474 509
3 474 510 509
3 474 475 510
3 475 476 510
3 510 476 511
3 476 478 511
3 511 478 512
3 480 513 514
3 480 479 513
3 479 515 513
3 479 481 515
3 481 516 515
3 481 482 516
3 482 517 516
3 482 483 517
3 483 518 517
3 483 484 518
3 484 519 518
3 484 485 519
3 485 520 519
3 485 486 520
3 486 521 520
3 486 487 521
3 487 522 521
3 487 488 522
3 488 523 522
3 488 489 523
3 489 524 523
3 489 490 524
3 490 525 524
3 490 491 525
3 491 526 525
3 491 492 526
3 492 527 526
3 492 493 527
3 493 528 527
3 493 494 528
3 494 529 528
3 494 495 529
3 495 530 529
3 495 496 530
3 496 531 530
3 496 497 531
3 497 532 531
3 497 498 532
3 498 533 532
3 498 499 533
3 499 534 533
3 499 500 534
3 500 535 534
3 500 501 535
3 501 536 535
3 501 502 536
3 502 537 536
3 502 503 537
3 503 538 537
3 503 504 538
3 504 539 538
3 504 505 539
3 505 540 539
3 505 506 540
3 506 541 540
3 506 507 541
3 507 542 541
3 507 508 542
3 508 543 542
3 508 509 543
3 509 544 543
3 509 510 544
3 510 511 544
3 544 511 545
3 511 512 545
3 545 512 546
3 514 513 547
3 513 548 547
3 513 515 548
3 515 549 548
3 515 516 549
3 516 550 549
3 516 517 550
3 517 551 550
3 517 518 551
3 518 552 551
3 518 519 552
3 519 553 552
3 519 520 553
3 520 554 553
3 520 521 554
3 521 555 554
3 521 522 555
3 522 556 555
3 522 523 556
3 523 557 556
3 523 524 557
3 524 558 557
3 524 525 558
3 525 559 558
3 525 526 559
3 526 560 559
3 526 527 560
3 527 561 560
3 527 528 561
3 528 562 561
3 528 529 562
3 529 563 562
3 529 530 563
3 530 564 563
3 530 531 564
3 531 565 564
3 531 532 565
3 532 566 565
3 532 533 566
3 533 567 566
3 533 534 567
3 534 568 567
3 534 535 568
3 535 569 568
3 535 536 569
3 536 570 569
3 536 537 570
3 537 571 570
3 537 538 571
3 538 572 571
3 538 539 572
3 539 573 572
3 539 540 573
3 540 574 573
3 540 541 574
3 541 575 574
3 541 542 575
3 542 576 575
3 542 543 576
3 543 577 576
3 543 544 577
3 544 545 577
3 577 545 578
3 545 546 578
3 578 546 579
3 547 580 581
3 547 548 580
3 548 582 580
3 548 549 582
3 549 583 582
3 549 550 583
3 550 584 583
3 550 551 584
3 551 585 584
3 551 552 585
3 552 586 585
3 552 553 586
3 553 587 586
3 553 554 587
3 554 588 587
3 554 555 588
3 555 589 588
3 555 556 589
3 556 590 589
3 556 557 590
3 557 591 590
3 557 558 591
3 558 592 591
3 558 559 592
3 559 593 592
3 559 560 593
3 560 594 593
3 560 561 594
3 561 595 594
3 561 562 595
3 562 596 595
3 562 563 596
3 563 597 596
3 563 564 597
3 564 598 597
3 564 565 598
3 565 599 598
3 565 566 599
3 566 600 599
3 566 567 600
3 567 601 600
3 567 568 601
3 568 602 601
3 568 569 602
3 569 603 602
3 569 570 603
3 570 604 603
3 570 571 604
3 571 605 604
3 571 572 605
3 572 606 605
3 572 573 606
3 573 607 606
3 573 574 607
3 574 608 607
3 574 575 608
3 575 609 608
3 575 576 609
3 576 610 609
3 576 577 610
3 577 578 610
3 610 578 611
3 578 579 611
3 611 579 612
3 579 613 612
3 581 614 615
3 581 580 614
3 580 616 614
3 580 582 616
3 582 617 616
3 582 583 617
3 583 618 617
3 583 584 618
3 584 619 618
3 584 585 619
3 585 620 619
3 585 586 620
3 586 621 620
3 586 587 621
3 587 622 621
3 587 588 622
3 588 623 622
3 588 589 623
3 589 624 623
3 589 590 624
3 590 625 624
3 590 591 625
3 591 626 625
3 591 592 626
3 592 627 626
3 592 593 627
3 593 628 627
3 593 594 628
3 594 629 628
3 594 595 629
3 595 630 629
3 595 596 630
3 596 631 630
3 596 597 631
3 597 632 631
3 597 598 632
3 598 633 632
3 598 599 633
3 599 634 633
3 599 600 634
3 600 635 634
3 600 601 635
3 601 636 635
3 601 602 636
3 602 637 636
3 602 603 637
3 603 638 637
3 603 604 638
3 604 639 638
3 604 605 639
3 605 640 639
3 605 606 640
3 606 641 640
3 606 607 641
3 607 642 641
3 607 608 642
3 608 643 642
3 608 609 643
3 609 644 643
3 609 610 644
3 610 611 644
3 644 611 645
3 611 646 645
3 611 612 646
3 612 647 646
3 612 613 647
3 615 614 648
3 614 649 648
3 614 616 649
3 616 650 649
3 616 617 650
3 617 651 650
3 617 618 651
3 618 652 651
3 618 619 652
3 619 653 652
3 619 620 653
3 620 654 653
3 620 621 654
3 621 655 654
3 621 622 655
3 622 656 655
3 622 623 656
3 623 657 656
3 623 624 657
3 624 658 657
3 624 625 658
3 625 659 658
3 625 626 659
3 626 660 659
3 626 627 660
3 627 661 660
3 627 628 661
3 628 662 661
3 628 629 662
3 629 663 662
3 629 630 663
3 630 664 663
3 630 631 664
3 631 665 664
3 631 632 665
3 632 666 665
3 632 633 666
3 633 667 666
3 633 634 667
3 634 668 667
3 634 635 668
3 635 669 668
3 635 636 669
3 636 670 669
3 636 637 670
3 637 671 670
3 637 638 671
3 638 672 671
3 638 639 672
3 639 673 672
3 639 640 673
3 640 674 673
3 640 641 674
3 641 675 674
3 641 642 675
3 642 676 675
3 642 643 676
3 643 677 676
3 643 644 677
3 644 678 677
3 644 645 678
3 645 679 678
3 645 646 679
3 646 680 679
3 646 647 680
3 648 681 682
3 648 649 681
3 649 683 681
3 649 650 683
3 650 684 683
3 650 651 684
3 651 685 684
3 651 652 685
3 652 686 685
3 652 653 686
3 653 687 686
3 653 654 687
3 654 688 687
3 654 655 688
3 655 689 688
3 655 656 689
3 656 690 689
3 656 657 690
3 657 691 690
3 657 658 691
3 658 692 691
3 658 659 692
3 659 693 692
3 659 660 693
3 660 694 693
3 660 661 694
3 661 695 694
3 661 662 695
3 662 696 695
3 662 663 696
3 663 697 696
3 663 664 697
3 664 698 697
3 664 665 698
3 665 699 698
3 665 666 699
3 666 700 699
3 666 667 700
3 667 701 700
3 667 668 701
3 668 702 701
3 668 669 702
3 669 703 702
3 669 670 703
3 670 704 703
3 670 671 704
3 671 705 704
3 671 672 705
3 672 706 705
3 672 673 706
3 673 707 706
3 673 674 707
3 674 708 707
3 674 675 708
3 675 709 708
3 675 676 709
3 676 710 709
3 676 677 710
3 677 711 710
3 677 678 711
3 678 712 711
3 678 679 712
3 679 713 712
3 679 680 713
3 680 714 713
3 682 715 716
3 682 681 715
3 681 717 715
3 681 683 717
3 683 718 717
3 683 684 718
3 684 719 718
3 684 685 719
3 685 720 719
3 685 686 720
3 686 721 720
3 686 687 721
3 687 722 721
3 687 688 722
3 688 723 722
3 688 689 723
3 689 724 723
3 689 690 724
3 690 725 724
3 690 691 725
3 691 726 725
3 691 692 726
3 692 727 726
3 692 693 727
3 693 728 727
3 693 694 728
3 694 729 728
3 694 695 729
3 695 730 729
3 695 696 730
3 696 731 730
3 696 697 731
3 697 732 731
3 697 698 732
3 698 733 732
3 698 699 733
3 699 734 733
3 699 700 734
3 700 735 734
3 700 701 735
3 701 736 735
3 701 702 736
3 702 737 736
3 702 703 737
3 703 738 737
3 703 704 738
3 704 739 738
3 704 705 739
3 705 740 739
3 705 706 740
3 706 741 740
3 706 707 741
3 707 742 741
3 707 708 742
3 708 743 742
3 708 709 743
3 709 744 743
3 709 710 744
3 710 745 744
3 710 711 745
3 711 746 745
3 711 712 746
3 712 747 746
3 712 713 747
3 713 748 747
3 713 714 748
3 716 715 749
3 715 750 749
3 715 717 750
3 717 751 750
3 717 718 751
3 718 752 751
3 718 719 752
3 719 753 752
3 719 720 753
3 720 754 753
3 720 721 754
3 721 755 754
3 721 722 755
3 722 756 755
3 722 723 756
3 723 757 756
3 723 724 757
3 724 758 757
3 724 725 758
3 725 759 758
3 725 726 759
3 726 760 759
3 726 727 760
3 727 761 760
3 727 728 761
3 728 762 761
3 728 729 762
3 729 763 762
3 729 730 763
3 730 764 763
3 730 731 764
3 731 765 764
3 731 732 765
3 732 766 765
3 732 733 766
3 733 767 766
3 733 734 767
3 734 768 767
3 734 735 768
3 735 769 768
3 735 736 769
3 736 770 769
3 736 737 770
3 737 771 770
3 737 738 771
3 738 772 771
3 738 739 772
3 739 773 772
3 739 740 773
3 740 774 773
3 740 741 774
3 741 775 774
3 741 742 775
3 742 776 775
3 742 743 776
3 743 777 776
3 743 744 777
3 744 778 777
3 744 745 778
3 745 779 778
3 745 746 779
3 746 780 779
3 746 747 780
3 747 781 780
3 747 748 781
3 749 782 783
3 749 750 782
3 750 784 782
3 750 751 784
3 751 785 784
3 751 752 785
3 752 786 785
3 752 753 786
3 753 787 786
3 753 754 787
3 754 788 787
3 754 755 788
3 755 789 788
3 755 756 789
3 756 790 789
3 756 757 790
3 757 791 790
3 757 758 791
3 758 792 791
3 758 759 792
3 759 793 792
3 759 760 793
3 760 794 793
3 760 761 794
3 761 795 794
3 761 762 795
3 762 796 795
3 762 763 796
3 763 797 796
3 763 764 797
3 764 798 797
3 764 765 798
3 765 799 798
3 765 766 799
3 766 800 799
3 766 767 800
3 767 801 800
3 767 768 801
3 768 802 801
3 768 769 802
3 769 803 802
3 769 770 803
3 770 804 803
3 770 771 804
3 771 805 804
3 771 772 805
3 772 806 805
3 772 773 806
3 773 807 806
3 773 774 807
3 774 808 807
3 774 775 808
3 775 809 808
3 775 776 809
3 776 810 809
3 776 777 810
3 777 811 810
3 777 778 811
3 778 812 811
3 778 779 812
3 779 813 812
3 779 780 813
3 780 814 813
3 780 781 814
3 781 815 814
3 783 782 816
3 782 817 816
3 782 784 817
3 784 818 817
3 784 785 818
3 785 819 818
3 785 786 819
3 786 820 819
3 786 787 820
3 787 821 820
3 787 788 821
3 788 822 821
3 788 789 822
3 789 823 822
3 789 790 823
3 790 824 823
3 790 791 824
3 791 825 824
3 791 792 825
3 792 826 825
3 792 793 826
3 793 827 826
3 793 794 827
3 794 828 827
3 794 795 828
3 795 829 828
3 795 796 829
3 796 830 829
3 796 797 830
3 797 831 830
3 797 798 831
3 798 832 831
3 798 799 832
3 799 833 832
3 799 800 833
3 800 834 833
3 800 801 834
3 801 835 834
3 801 802 835
3 802 836 835
3 802 803 836
3 803 837 836
3 803 804 837
3 804 838 837
3 804 805 838
3 805 839 838
3 805 806 839
3 806 840 839
3 806 807 840
3 807 841 840
3 807 808 841
3 808 842 841
3 808 809 842
3 809 843 842
3 809 810 843
3 810 844 843
3 810 811 844
3 811 845 844
3 811 812 845
3 812 846 845
3 812 813 846
3 813 847 846
3 813 814 847
3 814 848 847
3 814 815 848
3 816 849 850
3 816 817 849
3 817 851 849
3 817 818 851
3 818 852 851
3 818 819 852
3 819 853 852
3 819 820 853
3 820 854 853
3 820 821 854
3 821 855 854
3 821 822 855
3 822 856 855
3 822 823 856
3 823 857 856
3 823 824 857
3 824 858 857
3 824 825 858
3 825 859 858
3 825 826 859
3 826 860 859
3 826 827 860
3 827 861 860
3 827 828 861
3 828 862 861
3 828 829 862
3 829 863 862
3 829 830 863
3 830 864 863
3 830 831 864
3 831 865 864
3 831 832 865
3 832 866 865
3 832 833 866
3 833 867 866
3 833 834 867
3 834 835 867
3 867 835 868
3 835 869 868
3 835 836 869
3 836 870 869
3 836 837 870
3 837 871 870
3 837 838 871
3 838 872 871
3 838 839 872
3 839 873 872
3 839 840 873
3 840 874 873
3 840 841 874
3 841 875 874
3 841 842 875
3 842 876 875
3 842 843 876
3 843 877 876
3 843 844 877
3 844 845 877
3 877 845 878
3 845 879 878
3 845 846 879
3 846 880 879
3 846 847 880
3 847 881 880
3 847 848 881
3 848 882 881
3 850 883 884
3 850 849 883
3 849 885 883
3 849 851 885
3 851 886 885
3 851 852 886
3 852 887 886
3 852 853 887
3 853 888 887
3 853 854 888
3 854 889 888
3 854 855 889
3 855 890 889
3 855 856 890
3 856 891 890
3 856 857 891
3 857 892 891
3 857 858 892
3 858 893 892
3 858 859 893
3 859 894 893
3 859 860 894
3 860 895 894
3 860 861 895
3 861 896 895
3 861 862 896
3 862 897 896
3 862 863 897
3 863 898 897
3 863 864 898
3 864 899 898
3 864 865 899
3 865 900 899
3 865 866 900
3 866 901 900
3 866 867 901
3 867 902 901
3 867 868 902
3 868 903 902
3 868 869 903
3 869 904 903
3 869 870 904
3 870 905 904
3 870 871 905
3 871 906 905
3 871 872 906
3 872 907 906
3 872 873 907
3 873 908 907
3 873 874 908
3 874 909 908
3 874 875 909
3 875 910 909
3 875 876 910
3 876 877 910
3 910 877 911
3 877 878 911
3 911 878 912
3 878 913 912
3 878 879 913
3 879 914 913
3 879 880 914
3 880 915 914
3 880 881 915
3 881 916 915
3 881 882 916
3 884 883 917
3 883 918 917
3 883 885 918
3 885 919 918
3 885 886 919
3 886 920 919
3 886 887 920
3 887 921 920
3 887 888 921
3 888 922 921
3 888 889 922
3 889 923 922
3 889 890 923
3 890 924 923
3 890 891 924
3 891 925 924
3 891 892 925
3 892 926 925
3 892 893 926
3 893 927 926
3 893 894 927
3 894 928 927
3 894 895 928
3 895 929 928
3 895 896 929
3 896 930 929
3 896 897 930
3 897 931 930
3 897 898 931
3 898 932 931
3 898 899 932
3 899 933 932
3 899 900 933
3 900 934 933
3 900 901 934
3 901 935 934
3 901 902 935
3 902 936 935
3 902 903 936
3 903 937 936
3 903 904 937
3 904 938 937
3 904 905 938
3 905 939 938
3 905 906 939
3 906 940 939
3 906 907 940
3 907 941 940
3 907 908 941
3 908 942 941
3 908 909 942
3 909 943 942
3 909 910 943
3 910 944 943
3 910 911 944
3 911 945 944
3 911 912 945
3 912 946 945
3 912 913 946
3 913 947 946
3 913 914 947
3 914 948 947
3 914 915 948
3 915 949 948
3 915 916 949
3 917 950 951
3 917 918 950
3 918 952 950
3 918 919 952
3 919 953 952
3 919 920 953
3 920 954 953
3 920 921 954
3 921 955 954
3 921 922 955
3 922 956 955
3 922 923 956
3 923 957 956
3 923 924 957
3 924 958 957
3 924 925 958
3 925 959 958
3 925 926 959
3 926 960 959
3 926 927 960
3 927 961 960
3 927 928 961
3 928 962 961
3 928 929 962
3 929 963 962
3 929 930 963
3 930 964 963
3 930 931 964
3 931 965 964
3 931 932 965
3 932 966 965
3 932 933 966
3 933 967 966
3 933 934 967
3 934 968 967
3 934 935 968
3 935 969 968
3 935 936 969
3 936 970 969
3 936 937 970
3 937 971 970
3 937 938 971
3 938 972 971
3 938 939 972
3 939 973 972
3 939 940 973
3 940 974 973
3 940 941 974
3 941 975 974
3 941 942 975
3 942 976 975
3 942 943 976
3 943 977 976
3 943 944 977
3 944 978 977
3 944 945 978
3 945 979 978
3 945 946 979
3 946 980 979
3 946 947 980
3 947 981 980
3 947 948 981
3 948 982 981
3 948 949 982
3 951 983 984
3 951 950 983
3 950 985 983
3 950 952 985
3 952 986 985
3 952 953 986
3 953 987 986
3 953 954 987
3 954 988 987
3 954 955 988
3 955 989 988
3 955 956 989
3 956 990 989
3 956 957 990
3 957 991 990
3 957 958 991
3 958 992 991
3 958 959 992
3 959 993 992
3 959 960 993
3 960 994 993
3 960 961 994
3 961 995 994
3 961 962 995
3 962 996 995
3 962 963 996
3 963 997 996
3 963 964 997
3 964 998 997
3 964 965 998
3 965 999 998
3 965 966 999
3 966 1000 999
3 966 967 1000
3 967 1001 1000
3 967 968 1001
3 968 1002 1001
3 968 969 1002
3 969 1003 1002
3 969 970 1003
3 970 1004 1003
3 970 971 1004
3 971 1005 1004
3 971 972 1005
3 972 1006 1005
3 972 973 1006
3 973 1007 1006
3 973 974 1007
3 974 1008 1007
3 974 975 1008
3 975 1009 1008
3 975 976 1009
3 976 1010 1009
3 976 977 1010
3 977 1011 1010
3 977 978 1011
3 978 1012 1011
3 978 979 1012
3 979 1013 1012
3 979 980 1013
3 980 1014 1013
3 980 981 1014
3 981 1015 1014
3 981 982 1015
3 982 1016 1015
3 1015 1016 1017
3 984 983 1018
3 983 1019 1018
3 983 985 1019
3 985 1020 1019
3 985 986 1020
3 986 1021 1020
3 986 987 1021
3 987 1022 1021
3 987 988 1022
3 988 1023 1022
3 988 989 1023
3 989 1024 1023
3 989 990 1024
3 990 1025 1024
3 990 991 1025
3 991 1026 1025
3 991 992 1026
3 992 1027 1026
3 992 993 1027
3 993 1028 1027
3 993 994 1028
3 994 1029 1028
3 994 995 1029
3 995 1030 1029
3 995 996 1030
3 996 1031 1030
3 996 997 1031
3 997 1032 1031
3 997 998 1032
3 998 1033 1032
3 998 999 1033
3 999 1034 1033
3 999 1000 1034
3 1000 1035 1034
3 1000 1001 1035
3 1001 1036 1035
3 1001 1002 1036
3 1002 1037 1036
3 1002 1003 1037
3 1003 1038 1037
3 1003 1004 1038
3 1004 1039 1038
3 1004 1005 1039
3 1005 1040 1039
3 1005 1006 1040
3 1006 1041 1040
3 1006 1007 1041
3 1007 1042 1041
3 1007 1008 1042
3 1008 1043 1042
3 1008 1009 1043
3 1009 1044 1043
3 1009 1010 1044
3 1010 1045 1044
3 1010 1011 1045
3 1011 1046 1045
3 1011 1012 1046
3 1012 1047 1046
3 1012 1013 1047
3 1013 1048 1047
3 1013 1014 1048
3 1014 1049 1048
3 1014 1015 1049
3 1015 1050 1049
3 1015 1017 1050
3 1018 1051 1052
3 1018 1019 1051
3 1019 1053 1051
3 1019 1020 1053
3 1020 1054 1053
3 1020 1021 1054
3 1021 1055 1054
3 1021 1022 1055
3 1022 1056 1055
3 1022 1023 1056
3 1023 1057 1056
3 1023 1024 1057
3 1024 1058 1057
3 1024 1025 1058
3 1025 1059 1058
3 1025 1026 1059
3 1026 1060 1059
3 1026 1027 1060
3 1027 1061 1060
3 1027 1028 1061
3 1028 1062 1061
3 1028 1029 1062
3 1029 1063 1062
3 1029 1030 1063
3 1030 1064 1063
3 1030 1031 1064
3 1031 1065 1064
3 1031 1032 1065
3 1032 1066 1065
3 1032 1033 1066
3 1033 1067 1066
3 1033 1034 1067
3 1034 1068 1067
3 1034 1035 1068
3 1035 1069 1068
3 1035 1036 1069
3 1036 1070 1069
3 1036 1037 1070
3 1037 1071 1070
3 1037 1038 1071
3 1038 1072 1071
3 1038 1039 1072
3 1039 1073 1072
3 1039 1040 1073
3 1040 1074 1073
3 1040 1041 1074
3 1041 1075 1074
3 1041 1042 1075
3 1042 1076 1075
3 1042 1043 1076
3 1043 1077 1076
3 1043 1044 1077
3 1044 1078 1077
3 1044 1045 1078
3 1045 1079 1078
3 1045 1046 1079
3 1046 1080 1079
3 1046 1047 1080
3 1047 1081 1080
3 1047 1048 1081
3 1048 1082 1081
3 1048 1049 1082
3 1049 1083 1082
3 1049 1050 1083
3 1052 1051 1084
3 1084 1051 1085
3 1051 1086 1085
3 1051 1053 1086
3 1053 1087 1086
3 1053 1054 1087
3 1054 1088 1087
3 1054 1055 1088
3 1055 1089 1088
3 1055 1056 1089
3 1056 1090 1089
3 1056 1057 1090
3 1057 1091 1090
3 1057 1058 1091
3 1058 1092 1091
3 1058 1059 1092
3 1059 1093 1092
3 1059 1060 1093
3 1060 1094 1093
3 1060 1061 1094
3 1061 1095 1094
3 1061 1062 1095
3 1062 1096 1095
3 1062 1063 1096
3 1063 1097 1096
3 1063 1064 1097
3 1064 1098 1097
3 1064 1065 1098
3 1065 1099 1098
3 1065 1066 1099
3 1066 1100 1099
3 1066 1067 1100
3 1067 1101 1100
3 1067 1068 1101
3 1068 1102 1101
3 1068 1069 1102
3 1069 1103 1102
3 1069 1070 1103
3 1070 1104 1103
3 1070 1071 1104
3 1071 1105 1104
3 1071 1072 1105
3 1072 1106 1105
3 1072 1073 1106
3 1073 1107 1106
3 1073 1074 1107
3 1074 1108 1107
3 1074 1075 1108
3 1075 1109 1108
3 1075 1076 1109
3 1076 1110 1109
3 1076 1077 1110
3 1077 1111 1110
3 1077 1078 1111
3 1078 1112 1111
3 1078 1079 1112
3 1079 1113 1112
3 1079 1080 1113
3 1080 1114 1113
3 1080 1081 1114
3 1081 1115 1114
3 1081 1082 1115
3 1082 1116 1115
3 1082 1083 1116
3 1084 1085 1117
3 1117 1085 1118
3 1085 1086 1118
3 1118 1086 1119
3 1086 1120 1119
3 1086 1087 1120
3 1087 1121 1120
3 1087 1088 1121
3 1088 1122 1121
3 1088 1089 1122
3 1089 1090 1122
3 1122 1090 1123
3 1090 1091 1123
3 1123 1091 1124
3 1091 1125 1124
3 1091 1092 1125
3 1092 1126 1125
3 1092 1093 1126
3 1093 1127 1126
3 1093 1094 1127
3 1094 1095 1127
3 1127 1095 1128
3 1095 1096 1128
3 1128 1096 1129
3 1096 1097 1129
3 1129 1097 1130
3 1097 1131 1130
3 1097 1098 1131
3 1098 1132 1131
3 1098 1099 1132
3 1099 1133 1132
3 1099 1100 1133
3 1100 1134 1133
3 1100 1101 1134
3 1101 1135 1134
3 1101 1102 1135
3 1102 1136 1135
3 1102 1103 1136
3 1103 1137 1136
3 1103 1104 1137
3 1104 1105 1137
3 1137 1105 1138
3 1105 1139 1138
3 1105 1106 1139
3 1106 1140 1139
3 1106 1107 1140
3 1107 1141 1140
3 1107 1108 1141
3 1108 1109 1141
3 1141 1109 1142
3 1109 1110 1142
3 1142 1110 1143
3 1110 1111 1143
3 1143 1111 1144
3 1111 1145 1144
3 1111 1112 1145
3 1112 1113 1145
3 1145 1113 1146
3 1113 1114 1146
3 1146 1114 1147
3 1114 1115 1147
3 1147 1115 1148
3 1115 1116 1148
3 1148 1116 1149
3 1116 1150 1149
3 1149 1150 1151
3 1152 1118 1153
3 1118 1119 1153
3 1153 1119 1154
3 1119 1155 1154
3 1119 1120 1155
3 1120 1156 1155
3 1120 1121 1156
3 1121 1157 1156
3 1121 1122 1157
3 1122 1123 1157
3 1157 1123 1158
3 1123 1124 1158
3 1158 1124 1159
3 1124 1160 1159
3 1124 1125 1160
3 1125 1161 1160
3 1125 1126 1161
3 1126 1127 1161
3 1161 1127 1162
3 1127 1128 1162
3 1162 1128 1163
3 1128 1129 1163
3 1163 1129 1164
3 1129 1130 1164
3 1164 1130 1165
3 1130 1166 1165
3 1130 1131 1166
3 1131 1167 1166
3 1131 1132 1167
3 1132 1168 1167
3 1132 1133 1168
3 1133 1134 1168
3 1168 1134 1169
3 1134 1135 1169
3 1169 1135 1170
3 1135 1136 1170
3 1170 1136 1171
3 1136 1137 1171
3 1171 1137 1172
3 1137 1138 1172
3 1172 1138 1173
3 1138 1139 1173
3 1173 1139 1174
3 1139 1140 1174
3 1174 1140 1175
3 1140 1141 1175
3 1175 1141 1176
3 1141 1142 1176
3 1176 1142 1177
3 1142 1143 1177
3 1177 1143 1178
3 1143 1144 1178
3 1178 1144 1179
3 1144 1145 1179
3 1179 1145 1180
3 1145 1146 1180
3 1180 1146 1181
3 1146 1147 1181
3 1181 1147 1182
3 1147 1148 1182
3 1182 1148 1183
3 1148 1149 1183
3 1183 1149 1184
3 1149 1151 1184
3 1184 1151 1185
3 1186 1153 1187
3 1153 1188 1187
3 1153 1154 1188
3 1154 1189 1188
3 1154 1155 1189
3 1155 1190 1189
3 1155 1156 1190
3 1156 1191 1190
3 1156 1157 1191
3 1157 1158 1191
3 1191 1158 1192
3 1158 1193 1192
3 1158 1159 1193
3 1159 1194 1193
3 1159 1160 1194
3 1160 1195 1194
3 1160 1161 1195
3 1161 1196 1195
3 1161 1162 1196
3 1162 1197 1196
3 1162 1163 1197
3 1163 1198 1197
3 1163 1164 1198
3 1164 1199 1198
3 1164 1165 1199
3 1165 1200 1199
3 1165 1166 1200
3 1166 1201 1200
3 1166 1167 1201
3 1167 1202 1201
3 1167 1168 1202
3 1168 1169 1202
3 1202 1169 1203
3 1169 1170 1203
3 1203 1170 1204
3 1170 1171 1204
3 1204 1171 1205
3 1171 1172 1205
3 1205 1172 1206
3 1172 1173 1206
3 1206 1173 1207
3 1173 1174 1207
3 1207 1174 1208
3 1174 1175 1208
3 1208 1175 1209
3 1175 1210 1209
3 1175 1176 1210
3 1176 1177 1210
3 1210 1177 1211
3 1177 1178 1211
3 1211 1178 1212
3 1178 1179 1212
3 1212 1179 1213
3 1179 1180 1213
3 1213 1180 1214
3 1180 1181 1214
3 1214 1181 1215
3 1181 1182 1215
3 1215 1182 1216
3 1182 1183 1216
3 1216 1183 1217
3 1183 1184 1217
3 1217 1184 1218
3 1184 1185 1218
3 1187 1219 1220
3 1187 1188 1219
3 1188 1221 1219
3 1188 1189 1221
3 1189 1222 1221
3 1189 1190 1222
3 1190 1223 1222
3 1190 1191 1223
3 1191 1224 1223
3 1191 1192 1224
3 1192 1225 1224
3 1192 1193 1225
3 1193 1226 1225
3 1193 1194 1226
3 1194 1227 1226
3 1194 1195 1227
3 1195 1228 1227
3 1195 1196 1228
3 1196 1229 1228
3 1196 1197 1229
3 1197 1230 1229
3 1197 1198 1230
3 1198 1231 1230
3 1198 1199 1231
3 1199 1232 1231
3 1199 1200 1232
3 1200 1233 1232
3 1200 1201 1233
3 1201 1234 1233
3 1201 1202 1234
3 1202 1235 1234
3 1202 1203 1235
3 1203 1236 1235
3 1203 1204 1236
3 1204 1205 1236
3 1236 1205 1237
3 1205 1206 1237
3 1237 1206 1238
3 1206 1207 1238
3 1238 1207 1239
3 1207 1208 1239
3 1239 1208 1240
3 1208 1241 1240
3 1208 1209 1241
3 1209 1242 1241
3 1209 1210 1242
3 1210 1211 1242
3 1242 1211 1243
3 1211 1212 1243
3 1243 1212 1244
3 1212 1213 1244
3 1244 1213 1245
3 1213 1214 1245
3 1245 1214 1246
3 1214 1215 1246
3 1246 1215 1247
3 1215 1216 1247
3 1247 1216 1248
3 1216 1217 1248
3 1220 1249 1250
3 1220 1219 1249
3 1219 1251 1249
3 1219 1221 1251
3 1221 1252 1251
3 1221 1222 1252
3 1222 1253 1252
3 1222 1223 1253
3 1223 1254 1253
3 1223 1224 1254
3 1224 1255 1254
3 1224 1225 1255
3 1225 1256 1255
3 1225 1226 1256
3 1226 1257 1256
3 1226 1227 1257
3 1227 1258 1257
3 1227 1228 1258
3 1228 1259 1258
3 1228 1229 1259
3 1229 1260 1259
3 1229 1230 1260
3 1230 1261 1260
3 1230 1231 1261
3 1231 1262 1261
3 1231 1232 1262
3 1232 1263 1262
3 1232 1233 1263
3 1233 1264 1263
3 1233 1234 1264
3 1234 1265 1264
3 1234 1235 1265
3 1235 1266 1265
3 1235 1236 1266
3 1236 1267 1266
3 1236 1237 1267
3 1237 1268 1267
3 1237 1238 1268
3 1238 1269 1268
3 1238 1239 1269
3 1239 1270 1269
3 1239 1240 1270
3 1241 1242 1271
3 1242 1243 1271
3 1250 1249 1272
3 1249 1273 1272
3 1249 1251 1273
3 1251 1274 1273
3 1251 1252 1274
3 1252 1275 1274
3 1252 1253 1275
3 1253 1276 1275
3 1253 1254 1276
3 1254 1277 1276
3 1254 1255 1277
3 1255 1278 1277
3 1255 1256 1278
3 1256 1279 1278
3 1256 1257 1279
3 1257 1280 1279
3 1257 1258 1280
3 1258 1281 1280
3 1258 1259 1281
3 1259 1282 1281
3 1259 1260 1282
3 1260 1283 1282
3 1260 1261 1283
3 1261 1284 1283
3 1261 1262 1284
3 1262 1285 1284
3 1262 1263 1285
3 1263 1286 1285
3 1263 1264 1286
3 1264 1287 1286
3 1264 1265 1287
3 1265 1288 1287
3 1265 1266 1288
3 1266 1289 1288
3 1266 1267 1289
3 1272 1290 1291
3 1272 1273 1290
3 1273 1292 1290
3 1273 1274 1292
3 1274 1293 1292
3 1274 1275 1293
3 1275 1294 1293
3 1275 1276 1294
3 1276 1295 1294
3 1276 1277 1295
3 1277 1296 1295
3 1277 1278 1296
3 1278 1297 1296
3 1278 1279 1297
3 1279 1298 1297
3 1279 1280 1298
3 1280 1299 1298
3 1280 1281 1299
3 1281 1300 1299
3 1281 1282 1300
3 1282 1301 1300
3 1282 1283 1301
3 1291 1290 1302
3 1290 1303 1302
3 1290 1292 1303
3 1292 1304 1303
3 1292 1293 1304
3 1293 1305 1304
3 1293 1294 1305
3 1294 1306 1305
3 1294 1295 1306
CELL_DATA 2464
SCALARS brightness_temperature float
LOOKUP_TABLE default
POINT_DATA 1307
CELL_DATA 2464
SCALARS emission_angle float
LOOKUP_TABLE default
POINT_DATA 1307
CELL_DATA 2464
SCALARS incidence_angle float
LOOKUP_TABLE default
POINT_DATA 1307
CELL_DATA 2464
SCALARS phase_angle float
LOOKUP_TABLE default
POINT_DATA 1307
CELL_DATA 2464
SCALARS local_solar_time float
LOOKUP_TABLE default
POINT_DATA 1307
CELL_DATA 2464
SCALARS local_solar_time_normal_vector float
LOOKUP_TABLE default
CELL_DATA 2464
SCALARS pixel_x float
LOOKUP_TABLE default
POINT_DATA 1307
CELL_DATA 2464
SCALARS pixel_y float
LOOKUP_TABLE default
POINT_DATA 1307
CELL_DATA 2464
SCALARS longitude float
LOOKUP_TABLE default
POINT_DATA 1307
CELL_DATA 2464
SCALARS latitude float
LOOKUP_TABLE default
