# vtk DataFile Version 3.0
SHAPE_sfm_50k_v20200323
ASCII
DATASET POLYDATA
POINTS 1393 float
0.08313 -0.47263 -0.07608
0.08296 -0.47124 -0.07882
0.08626 -0.47184 -0.07599
0.08605 -0.47033 -0.07867
0.08282 -0.46953 -0.08138
0.08597 -0.46889 -0.08139
0.08277 -0.46798 -0.08404
0.08599 -0.46775 -0.08427
0.08276 -0.46648 -0.08673
0.08591 -0.46599 -0.08681
0.08279 -0.4647 -0.08923
0.08594 -0.46425 -0.08934
0.08265 -0.46304 -0.09182
0.08585 -0.46312 -0.09226
0.08529 -0.46109 -0.09455
0.08215 -0.46145 -0.09441
0.08484 -0.45912 -0.09689
0.08173 -0.45963 -0.09685
0.08163 -0.45813 -0.09954
0.08474 -0.45767 -0.0996
0.08173 -0.45643 -0.1021
0.08485 -0.45613 -0.10226
0.0815 -0.45484 -0.10473
0.08462 -0.45455 -0.10488
0.08397 -0.45295 -0.10742
0.08915 -0.46964 -0.07812
0.08943 -0.47136 -0.07558
0.08905 -0.46816 -0.08083
0.08897 -0.46669 -0.08353
0.089 -0.46538 -0.08631
0.08906 -0.46387 -0.08898
0.08891 -0.46232 -0.09163
0.08838 -0.46057 -0.09409
0.08799 -0.45901 -0.09671
0.08787 -0.4575 -0.09939
0.08797 -0.45589 -0.10201
0.08774 -0.45448 -0.10473
0.08708 -0.45284 -0.10723
0.0864 -0.45103 -0.10962
0.08329 -0.45125 -0.1099
0.08603 -0.44941 -0.11221
0.08295 -0.44969 -0.11252
0.08591 -0.44775 -0.1148
0.08285 -0.44805 -0.11511
0.08318 -0.44634 -0.11764
0.08622 -0.44597 -0.11727
0.08345 -0.44446 -0.12006
0.08646 -0.44399 -0.11962
0.08359 -0.44268 -0.12256
0.08659 -0.44224 -0.12214
0.08411 -0.4408 -0.12489
0.08712 -0.44042 -0.12453
0.08465 -0.43892 -0.12725
0.08764 -0.43852 -0.12688
0.08756 -0.43665 -0.12931
0.08456 -0.43692 -0.12959
0.08708 -0.43503 -0.13186
0.08404 -0.43514 -0.13203
0.08629 -0.4328 -0.13389
0.08337 -0.43329 -0.13441
0.08555 -0.43096 -0.13624
0.08271 -0.43164 -0.13691
0.08486 -0.4292 -0.13867
0.08207 -0.42995 -0.13939
0.08431 -0.4273 -0.14102
0.09227 -0.46907 -0.07751
0.0926 -0.47095 -0.07507
0.09218 -0.46769 -0.08027
0.09208 -0.46618 -0.08295
0.09203 -0.46467 -0.08562
0.09208 -0.46313 -0.08829
0.09193 -0.46155 -0.09092
0.09149 -0.46023 -0.09365
0.09112 -0.45891 -0.09641
0.091 -0.45743 -0.09911
0.0911 -0.45635 -0.10199
0.09084 -0.45509 -0.10482
0.0902 -0.45317 -0.10717
0.08947 -0.45095 -0.1092
0.08908 -0.44923 -0.11174
0.08895 -0.44754 -0.1143
0.08923 -0.44564 -0.1167
0.08949 -0.44377 -0.11913
0.08961 -0.44199 -0.12163
0.09011 -0.44007 -0.12395
0.09058 -0.43804 -0.1262
0.09044 -0.43606 -0.12854
0.08993 -0.43435 -0.13102
0.08929 -0.43269 -0.13354
0.08854 -0.43081 -0.13585
0.0877 -0.42866 -0.1379
0.08716 -0.42683 -0.14033
0.08672 -0.42509 -0.14281
0.08382 -0.42534 -0.14333
0.08604 -0.4233 -0.14522
0.08314 -0.4235 -0.14568
0.08567 -0.42178 -0.14787
0.08273 -0.42169 -0.14813
0.08279 -0.41967 -0.15043
0.08574 -0.42007 -0.15044
0.08557 -0.41777 -0.1525
0.08266 -0.41768 -0.15277
0.08475 -0.41561 -0.15452
0.08186 -0.41568 -0.15494
0.08388 -0.41371 -0.15678
0.09546 -0.46865 -0.07723
0.09571 -0.47018 -0.07457
0.09532 -0.46716 -0.07991
0.09516 -0.46546 -0.08247
0.09504 -0.46375 -0.08504
0.09515 -0.4624 -0.08783
0.09506 -0.46109 -0.09061
0.09459 -0.45973 -0.09332
0.09424 -0.45854 -0.09614
0.09417 -0.45756 -0.09907
0.09436 -0.4565 -0.10201
0.09409 -0.45485 -0.10468
0.09341 -0.45301 -0.10714
0.09261 -0.45082 -0.10918
0.09212 -0.44874 -0.11139
0.09193 -0.44687 -0.11382
0.0922 -0.44498 -0.11622
0.09251 -0.4433 -0.11878
0.09263 -0.44155 -0.12131
0.09307 -0.43947 -0.12352
0.09352 -0.43741 -0.12575
0.09338 -0.43542 -0.12808
0.09281 -0.43362 -0.1305
0.0922 -0.43208 -0.13309
0.09149 -0.43035 -0.13555
0.09063 -0.42816 -0.13757
0.09008 -0.42635 -0.14
0.0896 -0.42452 -0.14242
0.08895 -0.42289 -0.14494
0.08854 -0.42125 -0.14752
0.08864 -0.41966 -0.15014
0.08848 -0.41753 -0.15236
0.08764 -0.41535 -0.15436
0.08677 -0.4135 -0.15665
0.08614 -0.41163 -0.15901
0.0833 -0.41209 -0.15934
0.09863 -0.46859 -0.07667
0.09885 -0.46989 -0.07389
0.09839 -0.46673 -0.07911
0.09823 -0.46504 -0.08168
0.09814 -0.46342 -0.08432
0.09824 -0.46206 -0.0871
0.09814 -0.4608 -0.0899
0.09766 -0.45942 -0.0926
0.09729 -0.45824 -0.09541
0.09707 -0.45675 -0.09808
0.09695 -0.45502 -0.10062
0.09662 -0.45345 -0.10325
0.09612 -0.45187 -0.10585
0.09551 -0.45005 -0.10825
0.09506 -0.44813 -0.11062
0.09481 -0.44613 -0.11295
0.09505 -0.4442 -0.11534
0.09542 -0.44268 -0.118
0.09556 -0.44099 -0.12058
0.09596 -0.43885 -0.12273
0.09639 -0.43678 -0.12495
0.09624 -0.43479 -0.12728
0.09565 -0.43298 -0.12966
0.09503 -0.43145 -0.13227
0.09433 -0.42979 -0.13477
0.09361 -0.42809 -0.13723
0.093 -0.42616 -0.13955
0.09249 -0.42424 -0.1419
0.09183 -0.42261 -0.14442
0.09141 -0.42095 -0.14697
0.09141 -0.41904 -0.14936
0.09128 -0.41704 -0.15169
0.09052 -0.41518 -0.15398
0.08965 -0.41344 -0.15635
0.08902 -0.41155 -0.15869
0.10166 -0.46804 -0.07576
0.10189 -0.46936 -0.073
0.1014 -0.46618 -0.07819
0.10125 -0.46454 -0.08081
0.10124 -0.46317 -0.08359
0.1013 -0.46173 -0.08632
0.10119 -0.46045 -0.08911
0.10078 -0.45948 -0.092
0.10048 -0.45842 -0.09494
0.10006 -0.45629 -0.0972
0.09969 -0.45413 -0.09938
0.09928 -0.45245 -0.10194
0.09881 -0.45097 -0.1046
0.09817 -0.44906 -0.10695
0.0979 -0.44743 -0.10956
0.09774 -0.44565 -0.11207
0.09802 -0.44386 -0.11455
0.09835 -0.44225 -0.11715
0.09848 -0.44055 -0.11972
0.09889 -0.43847 -0.12194
0.09922 -0.43618 -0.12397
0.09909 -0.43426 -0.12636
0.09851 -0.4325 -0.12878
0.09783 -0.43087 -0.13131
0.09715 -0.42931 -0.13388
0.09637 -0.4275 -0.13624
0.09583 -0.42578 -0.13874
0.09538 -0.42409 -0.14127
0.0947 -0.42243 -0.14376
0.09427 -0.42073 -0.14629
0.09426 -0.4188 -0.14868
0.09412 -0.4168 -0.15101
0.09337 -0.41511 -0.15345
0.0925 -0.41336 -0.1558
0.09184 -0.41141 -0.15808
0.1047 -0.46706 -0.07541
0.10494 -0.46842 -0.07267
0.10441 -0.46518 -0.07784
0.10429 -0.46359 -0.08049
0.10421 -0.4621 -0.08319
0.1043 -0.46077 -0.08596
0.10418 -0.45951 -0.08877
0.10377 -0.45849 -0.09164
0.10327 -0.45697 -0.09426
0.10267 -0.45475 -0.09633
0.10238 -0.45271 -0.09864
0.10214 -0.45131 -0.1014
0.10165 -0.4498 -0.10404
0.10114 -0.44815 -0.10658
0.10076 -0.44638 -0.10906
0.10062 -0.44467 -0.11161
0.10095 -0.443 -0.11415
0.10127 -0.4414 -0.11676
0.1014 -0.43973 -0.11936
0.10173 -0.43746 -0.12141
0.10219 -0.43552 -0.12373
0.10206 -0.43364 -0.12617
0.10146 -0.43181 -0.12855
0.10072 -0.43008 -0.13098
0.09995 -0.42835 -0.13341
0.09919 -0.42662 -0.13583
0.09866 -0.425 -0.1384
0.09821 -0.42334 -0.14094
0.09755 -0.42172 -0.14346
0.09709 -0.41999 -0.14595
0.09701 -0.41789 -0.14821
0.09692 -0.41605 -0.15067
0.09617 -0.41437 -0.15311
0.09533 -0.41281 -0.15562
0.09469 -0.41096 -0.15799
0.10756 -0.46561 -0.07505
0.10792 -0.46719 -0.07245
0.10744 -0.46411 -0.07773
0.10731 -0.46255 -0.08037
0.10715 -0.46089 -0.08296
0.1072 -0.45948 -0.08569
0.10706 -0.45822 -0.08848
0.10648 -0.45694 -0.0912
0.10573 -0.4551 -0.09353
0.10541 -0.45324 -0.09596
0.10513 -0.45126 -0.09828
0.10456 -0.44941 -0.10067
0.10401 -0.44785 -0.10328
0.10377 -0.44655 -0.10606
0.10356 -0.44507 -0.10874
0.10339 -0.44333 -0.11126
0.10374 -0.44173 -0.11384
0.10413 -0.44027 -0.11652
0.10424 -0.43858 -0.11909
0.10466 -0.4366 -0.12136
0.10515 -0.43482 -0.1238
0.10506 -0.43307 -0.12633
0.1044 -0.4311 -0.1286
0.10367 -0.42946 -0.13109
0.10286 -0.42762 -0.13342
0.10207 -0.42582 -0.13578
0.10152 -0.42418 -0.13832
0.10109 -0.42265 -0.14094
0.1004 -0.42097 -0.14341
0.09991 -0.41915 -0.14583
0.09992 -0.41736 -0.14832
0.09976 -0.41535 -0.15063
0.099 -0.41367 -0.15308
0.09813 -0.41205 -0.15553
0.09751 -0.41036 -0.15801
0.11056 -0.46446 -0.07465
0.1109 -0.46599 -0.07201
0.11041 -0.46296 -0.07732
0.11035 -0.46159 -0.08007
0.11021 -0.46 -0.08269
0.11022 -0.45852 -0.08537
0.1099 -0.45692 -0.08796
0.10905 -0.45527 -0.0904
0.10855 -0.45375 -0.09303
0.10818 -0.45186 -0.09541
0.10793 -0.44994 -0.09779
0.1073 -0.44799 -0.10008
0.10668 -0.44633 -0.10261
0.10646 -0.44511 -0.10544
0.10627 -0.44368 -0.10814
0.1062 -0.44213 -0.11078
0.10655 -0.44054 -0.11337
0.10689 -0.43901 -0.11601
0.10712 -0.43764 -0.11875
0.10764 -0.43594 -0.12122
0.10812 -0.43413 -0.12364
0.10797 -0.43222 -0.12604
0.10733 -0.43038 -0.12839
0.1066 -0.4288 -0.13093
0.10582 -0.42715 -0.13339
0.10502 -0.42531 -0.13571
0.10443 -0.42356 -0.13816
0.10395 -0.42188 -0.14068
0.10328 -0.42033 -0.14323
0.10281 -0.41862 -0.14573
0.10281 -0.41682 -0.14821
0.10261 -0.41472 -0.15045
0.10183 -0.41303 -0.15288
0.10101 -0.41163 -0.15548
0.10034 -0.40979 -0.15785
0.11363 -0.46352 -0.07427
0.114 -0.46508 -0.07165
0.11344 -0.46195 -0.0769
0.11331 -0.46049 -0.0796
0.11321 -0.45901 -0.08227
0.11307 -0.45722 -0.08475
0.11262 -0.45546 -0.08719
0.11173 -0.45376 -0.08959
0.11121 -0.45226 -0.09223
0.11089 -0.45045 -0.09469
0.11069 -0.44861 -0.09712
0.11014 -0.4468 -0.09954
0.10962 -0.44533 -0.10219
0.10929 -0.44396 -0.10491
0.10908 -0.44249 -0.10759
0.10904 -0.44101 -0.11028
0.1094 -0.43947 -0.11289
0.10985 -0.43825 -0.11568
0.11014 -0.43713 -0.11854
0.11064 -0.43539 -0.12101
0.11111 -0.43352 -0.1234
0.11092 -0.43153 -0.12574
0.1103 -0.4298 -0.12818
0.10959 -0.42841 -0.13083
0.1088 -0.42684 -0.13334
0.10798 -0.42497 -0.13564
0.10739 -0.42329 -0.13814
0.10688 -0.42151 -0.14057
0.1062 -0.41989 -0.14308
0.10571 -0.41811 -0.14553
0.1056 -0.41599 -0.14776
0.10545 -0.4141 -0.15016
0.10466 -0.41243 -0.15259
0.10374 -0.41076 -0.15498
0.10309 -0.40904 -0.15743
0.11673 -0.46268 -0.07397
0.11713 -0.46427 -0.07138
0.1165 -0.46102 -0.07655
0.11632 -0.45945 -0.07917
0.11613 -0.45783 -0.08176
0.116 -0.45607 -0.08425
0.11554 -0.45429 -0.0867
0.11463 -0.45257 -0.08906
0.11388 -0.45078 -0.09144
0.11343 -0.44882 -0.09377
0.11335 -0.44713 -0.09634
0.11302 -0.44569 -0.09902
0.11247 -0.44419 -0.10164
0.11212 -0.4428 -0.10436
0.11191 -0.44135 -0.10705
0.11193 -0.44004 -0.10982
0.11238 -0.43871 -0.11253
0.1129 -0.43773 -0.11539
0.11314 -0.43649 -0.11823
0.11357 -0.43455 -0.12059
0.11398 -0.43259 -0.1229
0.11388 -0.43088 -0.12544
0.11331 -0.42942 -0.12805
0.11262 -0.42822 -0.13081
0.1118 -0.42656 -0.13329
0.11094 -0.42463 -0.13552
0.11031 -0.42281 -0.13791
0.10983 -0.42113 -0.14042
0.10906 -0.41924 -0.14271
0.10857 -0.41746 -0.14516
0.10847 -0.41543 -0.14746
0.10831 -0.41355 -0.14987
0.10751 -0.41187 -0.15229
0.10657 -0.41019 -0.15466
0.10586 -0.40832 -0.15699
0.12037 -0.46501 -0.0686
0.12019 -0.46328 -0.07112
0.11973 -0.46157 -0.07364
0.11961 -0.46021 -0.0764
0.11934 -0.45844 -0.07889
0.11906 -0.45662 -0.08132
0.11887 -0.45477 -0.08376
0.11841 -0.45302 -0.08623
0.11748 -0.4513 -0.08858
0.1166 -0.44933 -0.09076
0.11618 -0.44742 -0.09314
0.11605 -0.44568 -0.09568
0.11578 -0.44435 -0.09843
0.11536 -0.44313 -0.10121
0.11501 -0.44173 -0.10392
0.11481 -0.44033 -0.10664
0.11477 -0.4389 -0.10935
0.11511 -0.43733 -0.11197
0.11571 -0.43654 -0.11491
0.11594 -0.43526 -0.11769
0.1164 -0.43348 -0.12011
0.11682 -0.43158 -0.12247
0.11669 -0.42982 -0.12498
0.11621 -0.42856 -0.12772
0.1155 -0.42729 -0.13044
0.11466 -0.42566 -0.13291
0.11381 -0.42387 -0.13526
0.11317 -0.42205 -0.13765
0.11259 -0.42011 -0.13994
0.11178 -0.41821 -0.14221
0.1113 -0.41646 -0.14468
0.11129 -0.4147 -0.14719
0.11123 -0.41313 -0.14983
0.11033 -0.41122 -0.15207
0.10942 -0.40962 -0.15451
0.12348 -0.46409 -0.06833
0.12332 -0.46245 -0.07091
0.12283 -0.46066 -0.07335
0.12258 -0.45905 -0.07596
0.12239 -0.45749 -0.07859
0.12206 -0.45558 -0.08095
0.12184 -0.45367 -0.08333
0.12126 -0.45173 -0.08562
0.12028 -0.44996 -0.08791
0.11943 -0.44804 -0.09015
0.11895 -0.44605 -0.09247
0.1188 -0.4443 -0.09502
0.11858 -0.44309 -0.09785
0.11828 -0.44212 -0.10075
0.11798 -0.44088 -0.10354
0.11775 -0.43944 -0.10624
0.11764 -0.43786 -0.10887
0.11801 -0.43636 -0.11154
0.11875 -0.43604 -0.11462
0.1189 -0.43454 -0.11737
0.11926 -0.43251 -0.11965
0.11952 -0.43031 -0.12177
0.11941 -0.42861 -0.12433
0.11895 -0.42743 -0.12711
0.11814 -0.42599 -0.1297
0.11731 -0.42443 -0.13221
0.11659 -0.42292 -0.13478
0.11594 -0.4211 -0.13716
0.11531 -0.41909 -0.13938
0.11453 -0.41724 -0.1417
0.11397 -0.41535 -0.14406
0.11402 -0.41375 -0.14669
0.114 -0.41222 -0.14937
0.11314 -0.41049 -0.15175
0.11214 -0.40872 -0.15403
0.12648 -0.46186 -0.07061
0.12664 -0.46342 -0.06798
0.12601 -0.46013 -0.07309
0.12571 -0.45836 -0.07556
0.12542 -0.4566 -0.07806
0.12511 -0.45474 -0.08046
0.12487 -0.45282 -0.08282
0.12427 -0.45083 -0.08506
0.12328 -0.44906 -0.08734
0.12237 -0.44706 -0.08949
0.1219 -0.44509 -0.09182
0.12168 -0.44323 -0.09429
0.12136 -0.44188 -0.09706
0.12103 -0.44089 -0.09996
0.12084 -0.43986 -0.10285
0.12063 -0.43848 -0.10558
0.12058 -0.43707 -0.1083
0.12098 -0.43571 -0.111
0.12152 -0.43482 -0.11388
0.12191 -0.43401 -0.11689
0.12225 -0.43195 -0.11922
0.12241 -0.42953 -0.12114
0.12223 -0.42773 -0.1236
0.12174 -0.42653 -0.12636
0.12092 -0.42512 -0.12897
0.12006 -0.42353 -0.13144
0.11933 -0.42202 -0.13401
0.11872 -0.4203 -0.13647
0.11814 -0.41844 -0.13883
0.11734 -0.41655 -0.14109
0.11679 -0.4147 -0.14348
0.11662 -0.41268 -0.14579
0.11647 -0.41099 -0.14833
0.1157 -0.40942 -0.15083
0.11483 -0.40792 -0.15334
0.12978 -0.46263 -0.06771
0.12961 -0.46109 -0.07036
0.12914 -0.45946 -0.0729
0.12883 -0.45766 -0.07535
0.12852 -0.45584 -0.07778
0.12819 -0.45393 -0.08014
0.12795 -0.452 -0.08249
0.12735 -0.45004 -0.08475
0.12631 -0.4482 -0.08695
0.12541 -0.44624 -0.08911
0.12492 -0.44426 -0.09142
0.12475 -0.44254 -0.09397
0.12428 -0.44085 -0.0965
0.12383 -0.43965 -0.09931
0.12363 -0.43866 -0.1022
0.12352 -0.43751 -0.10503
0.12347 -0.43613 -0.10776
0.12376 -0.43451 -0.11034
0.12414 -0.43333 -0.11316
0.1248 -0.43297 -0.11626
0.12512 -0.43097 -0.11866
0.12522 -0.42853 -0.12056
0.12504 -0.42669 -0.123
0.12449 -0.42543 -0.12572
0.12377 -0.42427 -0.12847
0.12289 -0.42268 -0.13095
0.12207 -0.42103 -0.1334
0.12147 -0.41935 -0.13588
0.12097 -0.41768 -0.13838
0.12019 -0.41588 -0.14072
0.11958 -0.41388 -0.14295
0.11942 -0.4119 -0.14528
0.11914 -0.40998 -0.14764
0.11828 -0.4083 -0.15004
0.11742 -0.40684 -0.15259
0.13263 -0.46009 -0.06978
0.1328 -0.46161 -0.06709
0.13218 -0.45855 -0.07238
0.13191 -0.45689 -0.07492
0.13163 -0.45516 -0.07742
0.13129 -0.45327 -0.0798
0.13107 -0.45143 -0.08222
0.13048 -0.44953 -0.08453
0.12945 -0.44773 -0.08675
0.12849 -0.44563 -0.08876
0.12793 -0.4435 -0.09092
0.12771 -0.4417 -0.09341
0.12735 -0.44031 -0.09613
0.12678 -0.43877 -0.09872
0.12659 -0.43785 -0.10165
0.12663 -0.43724 -0.1047
0.12642 -0.43538 -0.10719
0.12665 -0.43365 -0.10971
0.12692 -0.43222 -0.11241
0.12735 -0.43147 -0.11539
0.12771 -0.42955 -0.11775
0.12801 -0.42745 -0.11994
0.12794 -0.42589 -0.12257
0.1273 -0.42445 -0.12516
0.12649 -0.42313 -0.1278
0.12573 -0.42185 -0.13046
0.12492 -0.42027 -0.13295
0.12428 -0.41853 -0.13538
0.12375 -0.41683 -0.13785
0.12304 -0.4152 -0.14032
0.12245 -0.41327 -0.14262
0.12228 -0.41131 -0.14496
0.12197 -0.4093 -0.14723
0.121 -0.4074 -0.14941
0.1201 -0.40591 -0.15194
0.13571 -0.45916 -0.06935
0.13599 -0.4609 -0.06684
0.13528 -0.45771 -0.07201
0.13498 -0.45603 -0.07453
0.13467 -0.45427 -0.07699
0.13432 -0.45239 -0.07937
0.1341 -0.45056 -0.0818
0.13356 -0.44881 -0.08422
0.13253 -0.44706 -0.08647
0.13154 -0.44488 -0.08839
0.131 -0.44286 -0.09063
0.13068 -0.44081 -0.0929
0.13022 -0.43923 -0.09552
0.12988 -0.43837 -0.09846
0.12954 -0.43704 -0.10119
0.12963 -0.43637 -0.10424
0.12931 -0.43445 -0.10667
0.12946 -0.43259 -0.10909
0.12979 -0.43128 -0.11184
0.12994 -0.43003 -0.11461
0.13037 -0.42823 -0.117
0.13089 -0.42652 -0.11946
0.13088 -0.42517 -0.1222
0.13024 -0.42377 -0.12482
0.12938 -0.42236 -0.12739
0.12863 -0.42119 -0.13011
0.1278 -0.41959 -0.13258
0.12712 -0.41781 -0.13496
0.12657 -0.41607 -0.1374
0.12585 -0.41443 -0.13986
0.12531 -0.41267 -0.14229
0.12513 -0.41069 -0.1446
0.12479 -0.40865 -0.14683
0.12381 -0.40671 -0.14897
0.12282 -0.40503 -0.15134
0.13908 -0.45992 -0.06689
0.13878 -0.45815 -0.06935
0.13833 -0.4567 -0.072
0.13801 -0.45501 -0.0745
0.13763 -0.4531 -0.07684
0.13731 -0.45132 -0.07928
0.13708 -0.44947 -0.08169
0.13655 -0.44778 -0.08416
0.1355 -0.44601 -0.08639
0.1346 -0.44414 -0.0886
0.13402 -0.44199 -0.09068
0.13367 -0.43985 -0.09284
0.13314 -0.43812 -0.09534
0.13261 -0.43689 -0.09812
0.13237 -0.43584 -0.10097
0.1321 -0.43446 -0.10365
0.13195 -0.4329 -0.10624
0.1322 -0.43121 -0.10877
0.13254 -0.42995 -0.11154
0.13271 -0.42876 -0.11433
0.13326 -0.42722 -0.11684
0.13382 -0.42567 -0.11939
0.13374 -0.42416 -0.12205
0.13313 -0.42292 -0.12476
0.13226 -0.4215 -0.12731
0.13144 -0.42019 -0.12993
0.13068 -0.41886 -0.13258
0.12993 -0.41688 -0.13478
0.12934 -0.41507 -0.13715
0.1286 -0.41341 -0.13959
0.12808 -0.41172 -0.14206
0.12791 -0.40979 -0.1444
0.12757 -0.40777 -0.14664
0.12661 -0.40592 -0.14886
0.12563 -0.40428 -0.15124
0.14208 -0.45871 -0.06722
0.14182 -0.45717 -0.06983
0.14133 -0.45559 -0.07236
0.14091 -0.45362 -0.07461
0.14057 -0.45182 -0.07705
0.14025 -0.45009 -0.07952
0.14 -0.44821 -0.08188
0.13944 -0.44649 -0.08432
0.13839 -0.44476 -0.08658
0.13749 -0.44291 -0.0888
0.13699 -0.44105 -0.09113
0.13665 -0.43895 -0.09331
0.1361 -0.43715 -0.09571
0.13545 -0.4356 -0.09826
0.1351 -0.43436 -0.10102
0.13471 -0.43277 -0.10357
0.13463 -0.43132 -0.10624
0.13503 -0.42997 -0.10893
0.13538 -0.42877 -0.1117
0.13554 -0.42755 -0.11448
0.13617 -0.42629 -0.11711
0.13673 -0.42474 -0.11964
0.13666 -0.42333 -0.12235
0.13604 -0.42214 -0.12508
0.13515 -0.42073 -0.12761
0.13428 -0.41927 -0.13013
0.13348 -0.41787 -0.13271
0.13277 -0.41604 -0.13504
0.13209 -0.41397 -0.13716
0.13134 -0.41231 -0.13958
0.13082 -0.41065 -0.14207
0.13068 -0.40882 -0.14448
0.1303 -0.40674 -0.14666
0.12938 -0.40505 -0.14901
0.12841 -0.40347 -0.15141
0.14511 -0.45957 -0.06534
0.14512 -0.45764 -0.06768
0.14483 -0.45606 -0.07025
0.14426 -0.4543 -0.07264
0.1439 -0.45247 -0.07502
0.14353 -0.45065 -0.07741
0.14313 -0.44874 -0.07971
0.14285 -0.44679 -0.08202
0.14231 -0.44515 -0.08452
0.14127 -0.44347 -0.08681
0.14031 -0.44146 -0.08889
0.13988 -0.43984 -0.09144
0.13958 -0.43795 -0.09377
0.13896 -0.43593 -0.09597
0.13832 -0.4344 -0.09853
0.13781 -0.43279 -0.10107
0.13757 -0.43153 -0.10381
0.13747 -0.43004 -0.10645
0.13787 -0.42876 -0.10917
0.13823 -0.42762 -0.11197
0.13848 -0.42676 -0.11486
0.13912 -0.42558 -0.11753
0.13968 -0.42413 -0.12011
0.13963 -0.42283 -0.12287
0.13898 -0.42156 -0.12555
0.13809 -0.42031 -0.12816
0.13718 -0.41865 -0.13053
0.13631 -0.417 -0.13292
0.13556 -0.41502 -0.13509
0.13492 -0.41312 -0.13735
0.13412 -0.41133 -0.13964
0.13358 -0.40961 -0.14207
0.13338 -0.40767 -0.14439
0.13302 -0.40567 -0.14663
0.13212 -0.40407 -0.14904
0.13114 -0.40253 -0.15146
0.14809 -0.45833 -0.0659
0.14811 -0.45652 -0.06831
0.14772 -0.45468 -0.07067
0.14716 -0.45294 -0.0731
0.14685 -0.45139 -0.07568
0.14645 -0.44946 -0.07796
0.14598 -0.44733 -0.08006
0.14571 -0.44541 -0.08239
0.14512 -0.44367 -0.08481
0.14414 -0.4422 -0.08728
0.14323 -0.44042 -0.08955
0.14273 -0.43864 -0.09193
0.14238 -0.4366 -0.09413
0.14173 -0.4345 -0.09625
0.14108 -0.43296 -0.09884
0.14064 -0.43151 -0.10148
0.1404 -0.4303 -0.10425
0.14034 -0.42896 -0.10695
0.14075 -0.42767 -0.10967
0.14117 -0.42687 -0.11259
0.14139 -0.426 -0.11547
0.14202 -0.4248 -0.11812
0.1426 -0.42341 -0.12075
0.14258 -0.42234 -0.12361
0.14187 -0.42154 -0.12647
0.14096 -0.42017 -0.12901
0.14007 -0.41834 -0.13126
0.13918 -0.41635 -0.13336
0.13838 -0.41413 -0.13527
0.13768 -0.41205 -0.13733
0.13686 -0.41022 -0.13959
0.13626 -0.40839 -0.14191
0.13608 -0.40655 -0.1443
0.13576 -0.40464 -0.14663
0.13482 -0.40298 -0.14897
0.13384 -0.40148 -0.15141
0.15056 -0.459 -0.06425
0.1511 -0.45727 -0.06666
0.15111 -0.45552 -0.06911
0.15069 -0.45353 -0.07136
0.15013 -0.45189 -0.07385
0.14977 -0.45023 -0.07634
0.1493 -0.44806 -0.0784
0.14885 -0.44599 -0.08058
0.1486 -0.44423 -0.08303
0.14803 -0.44255 -0.08549
0.14697 -0.44089 -0.08779
0.14609 -0.43925 -0.09017
0.14553 -0.4373 -0.0924
0.14518 -0.43527 -0.09462
0.14461 -0.43344 -0.09698
0.14394 -0.43186 -0.0995
0.1435 -0.43042 -0.10215
0.14326 -0.42927 -0.10494
0.14324 -0.42809 -0.10773
0.14367 -0.42708 -0.11056
0.14408 -0.42655 -0.11353
0.1443 -0.42561 -0.11639
0.14491 -0.42412 -0.11893
0.14551 -0.42313 -0.12177
0.14534 -0.42295 -0.12484
0.14451 -0.42237 -0.12779
0.14373 -0.4205 -0.13017
0.14295 -0.41823 -0.13208
0.14209 -0.41583 -0.13374
0.14128 -0.41351 -0.13549
0.14056 -0.41132 -0.13743
0.13958 -0.40912 -0.13924
0.139 -0.40735 -0.14162
0.13887 -0.40564 -0.14411
0.13857 -0.40384 -0.14652
0.1376 -0.40215 -0.14882
0.13657 -0.40053 -0.15115
0.15368 -0.45827 -0.06508
0.15416 -0.4564 -0.0674
0.15415 -0.45466 -0.06987
0.15375 -0.45285 -0.07226
0.15314 -0.45097 -0.07455
0.15267 -0.44883 -0.07664
0.15227 -0.44701 -0.07903
0.15181 -0.44492 -0.08118
0.15152 -0.44306 -0.08356
0.15093 -0.44137 -0.086
0.14985 -0.43965 -0.08822
0.14893 -0.43791 -0.09051
0.14838 -0.436 -0.09279
0.14806 -0.43413 -0.09515
0.14748 -0.43232 -0.09753
0.14684 -0.43091 -0.10017
0.14643 -0.42958 -0.10286
0.14618 -0.42844 -0.10567
0.14618 -0.42757 -0.10858
0.14661 -0.42674 -0.11145
0.147 -0.42616 -0.1144
0.1472 -0.425 -0.11719
0.14781 -0.42408 -0.11996
0.14828 -0.42386 -0.12293
0.14799 -0.42412 -0.12608
0.14739 -0.42271 -0.12888
0.14662 -0.42066 -0.13112
0.14585 -0.41821 -0.13287
0.14504 -0.41551 -0.13406
0.1442 -0.41294 -0.13539
0.14337 -0.41051 -0.13696
0.14241 -0.40838 -0.13884
0.14179 -0.40656 -0.14117
0.14162 -0.40476 -0.1436
0.14137 -0.4031 -0.14612
0.1404 -0.40144 -0.14843
0.15692 -0.45779 -0.06517
0.15738 -0.45583 -0.06743
0.15735 -0.45414 -0.06995
0.15695 -0.45254 -0.0725
0.15633 -0.45054 -0.07469
0.15589 -0.44859 -0.07693
0.15542 -0.44654 -0.07912
0.1549 -0.44421 -0.08103
0.15462 -0.44235 -0.08345
0.15402 -0.44067 -0.08589
0.15296 -0.43905 -0.08818
0.15202 -0.43733 -0.09049
0.1515 -0.43566 -0.09298
0.15114 -0.43361 -0.0952
0.15055 -0.4317 -0.09751
0.1499 -0.43032 -0.10018
0.14951 -0.42927 -0.10301
0.14926 -0.42817 -0.10583
0.14923 -0.42721 -0.10871
0.14963 -0.42633 -0.11158
0.15002 -0.42557 -0.11449
0.15024 -0.42481 -0.1174
0.15083 -0.42412 -0.12028
0.15123 -0.42464 -0.12331
0.15105 -0.42465 -0.1265
0.15041 -0.4231 -0.12925
0.14959 -0.42118 -0.13167
0.14883 -0.41851 -0.13326
0.14802 -0.41564 -0.13414
0.14711 -0.41286 -0.1349
0.14615 -0.41023 -0.136
0.14516 -0.40806 -0.13785
0.14454 -0.40623 -0.14021
0.14441 -0.40456 -0.14274
0.14407 -0.40273 -0.14512
0.14306 -0.40102 -0.14736
0.1602 -0.45744 -0.06517
0.16062 -0.45545 -0.06741
0.16057 -0.45372 -0.0699
0.16017 -0.45221 -0.07251
0.15955 -0.45047 -0.07492
0.15912 -0.44877 -0.07745
0.1586 -0.4462 -0.07909
0.15808 -0.44377 -0.0809
0.15779 -0.44189 -0.08331
0.15719 -0.44024 -0.08579
0.15612 -0.43878 -0.0882
0.15514 -0.43686 -0.09032
0.15456 -0.43498 -0.09263
0.15422 -0.43302 -0.09495
0.15368 -0.43151 -0.09756
0.15301 -0.43005 -0.10015
0.1526 -0.42892 -0.10295
0.15233 -0.42781 -0.10576
0.15228 -0.42676 -0.10861
0.15267 -0.42583 -0.11148
0.1531 -0.42556 -0.1145
0.1533 -0.42477 -0.11742
0.15387 -0.42421 -0.12031
0.15431 -0.42478 -0.12332
0.15412 -0.4245 -0.12645
0.15345 -0.42337 -0.12937
0.15267 -0.42143 -0.13184
0.1519 -0.41866 -0.13339
0.15101 -0.41571 -0.13401
0.15004 -0.41287 -0.13448
0.14902 -0.41014 -0.13526
0.14794 -0.40782 -0.13689
0.14731 -0.40599 -0.13925
0.14715 -0.40424 -0.14173
0.14673 -0.40227 -0.14399
0.14571 -0.40057 -0.14625
0.1447 -0.3991 -0.14868
0.14203 -0.39948 -0.14974
0.16333 -0.45641 -0.0649
0.1638 -0.45469 -0.06734
0.16373 -0.45301 -0.06984
0.16325 -0.45124 -0.07226
0.16263 -0.44954 -0.07469
0.16216 -0.44762 -0.07697
0.16172 -0.44546 -0.07903
0.16125 -0.4432 -0.08105
0.16097 -0.44132 -0.08349
0.16036 -0.44002 -0.08618
0.15926 -0.43851 -0.08856
0.15826 -0.43639 -0.09049
0.15765 -0.43433 -0.09267
0.15736 -0.43285 -0.09533
0.15678 -0.4312 -0.09781
0.1561 -0.42977 -0.1004
0.15565 -0.42836 -0.10306
0.15538 -0.42729 -0.1059
0.15532 -0.42621 -0.10874
0.15572 -0.42543 -0.11165
0.15612 -0.425 -0.11463
0.15627 -0.42409 -0.11755
0.15692 -0.4241 -0.12052
0.15737 -0.42478 -0.1235
0.15722 -0.42472 -0.12673
0.15668 -0.42356 -0.12983
0.15594 -0.42107 -0.13205
0.15501 -0.41811 -0.13307
0.15403 -0.41524 -0.13374
0.15299 -0.41242 -0.13419
0.1519 -0.40967 -0.13479
0.15078 -0.4073 -0.13629
0.15013 -0.40544 -0.1386
0.14987 -0.4035 -0.14092
0.14937 -0.40141 -0.14306
0.14838 -0.39979 -0.14541
0.14742 -0.39843 -0.14793
0.16644 -0.45755 -0.06243
0.16659 -0.45584 -0.06492
0.16702 -0.45406 -0.06731
0.1669 -0.45227 -0.06972
0.16633 -0.4503 -0.07196
0.16571 -0.44865 -0.07444
0.1653 -0.4469 -0.07687
0.16491 -0.44493 -0.07913
0.16446 -0.44298 -0.08143
0.16416 -0.4415 -0.08411
0.16345 -0.44041 -0.08689
0.16241 -0.43835 -0.08885
0.16141 -0.43617 -0.09069
0.16078 -0.43404 -0.09278
0.16046 -0.43246 -0.09537
0.15986 -0.43077 -0.09781
0.15915 -0.42918 -0.10031
0.15871 -0.42786 -0.10302
0.15843 -0.42677 -0.10584
0.1584 -0.42594 -0.10876
0.15876 -0.425 -0.11161
0.15905 -0.4241 -0.11449
0.15928 -0.42361 -0.1175
0.16003 -0.42422 -0.1204
0.16065 -0.4249 -0.12346
0.16083 -0.42491 -0.12701
0.15999 -0.42246 -0.12976
0.15862 -0.41953 -0.1308
0.15758 -0.41682 -0.13173
0.15665 -0.41405 -0.13254
0.15566 -0.41128 -0.13328
0.15459 -0.40862 -0.13416
0.15344 -0.40624 -0.13566
0.15282 -0.40438 -0.138
0.15248 -0.40234 -0.1402
0.15207 -0.40044 -0.14252
0.15111 -0.39889 -0.14493
0.15014 -0.39755 -0.14745
0.16964 -0.45677 -0.06251
0.16982 -0.45526 -0.06514
0.17031 -0.45397 -0.0679
0.17004 -0.45149 -0.06974
0.16941 -0.44932 -0.07178
0.1688 -0.44775 -0.07433
0.16845 -0.44632 -0.07698
0.16809 -0.44499 -0.07967
0.16759 -0.44326 -0.08211
0.16715 -0.44241 -0.08503
0.16651 -0.44108 -0.0878
0.16552 -0.43864 -0.08951
0.16455 -0.43609 -0.09086
0.16389 -0.43374 -0.09266
0.16356 -0.43204 -0.09517
0.16296 -0.43045 -0.09767
0.16224 -0.42883 -0.10013
0.16179 -0.42749 -0.10281
0.16149 -0.4263 -0.10559
0.16143 -0.42541 -0.10848
0.16181 -0.4246 -0.11137
0.16197 -0.42326 -0.1141
0.16218 -0.42278 -0.11709
0.16299 -0.42321 -0.12002
0.16368 -0.42332 -0.12318
0.1636 -0.42238 -0.12651
0.1623 -0.42002 -0.12876
0.16059 -0.41739 -0.12963
0.15912 -0.41475 -0.13007
0.15798 -0.41201 -0.13066
0.15716 -0.4092 -0.13155
0.15661 -0.40662 -0.13315
0.15598 -0.40474 -0.13549
0.15533 -0.40286 -0.13776
0.155 -0.40086 -0.13999
0.15463 -0.39905 -0.14238
0.15374 -0.39765 -0.1449
0.15271 -0.39623 -0.14735
0.17292 -0.45635 -0.06235
0.17306 -0.45481 -0.06494
0.17346 -0.4531 -0.06737
0.17323 -0.45095 -0.06944
0.1726 -0.44879 -0.07147
0.17194 -0.44709 -0.07392
0.17159 -0.44583 -0.07665
0.17125 -0.44464 -0.07939
0.17076 -0.44359 -0.08217
0.17043 -0.4432 -0.08532
0.16987 -0.4413 -0.0879
0.16876 -0.43878 -0.08949
0.16769 -0.43614 -0.09056
0.16696 -0.43358 -0.09203
0.16659 -0.43174 -0.09444
0.16599 -0.43019 -0.09697
0.16531 -0.42889 -0.09959
0.16483 -0.42745 -0.10218
0.16451 -0.42624 -0.10493
0.16442 -0.42519 -0.10774
0.16469 -0.42397 -0.11047
0.16479 -0.42257 -0.11312
0.16475 -0.4216 -0.11597
0.16519 -0.42129 -0.11895
0.16541 -0.42077 -0.12202
0.16482 -0.41958 -0.12491
0.16331 -0.41754 -0.12682
0.16171 -0.41515 -0.12783
0.16035 -0.4125 -0.12844
0.1596 -0.4097 -0.12945
0.15938 -0.40715 -0.13113
0.15905 -0.40484 -0.13308
0.15845 -0.40312 -0.13551
0.15785 -0.40134 -0.13784
0.15758 -0.39946 -0.14016
0.15718 -0.39762 -0.14249
0.15615 -0.39602 -0.14481
0.15514 -0.39466 -0.1473
0.17619 -0.45595 -0.06221
0.17627 -0.4542 -0.06463
0.17666 -0.45254 -0.06707
0.17641 -0.45038 -0.06912
0.17579 -0.44835 -0.07124
0.17511 -0.44664 -0.07363
0.17469 -0.44515 -0.07622
0.17432 -0.44393 -0.07894
0.17388 -0.44313 -0.0818
0.17366 -0.44232 -0.08481
0.17299 -0.44034 -0.08717
0.17174 -0.43792 -0.08863
0.17062 -0.43533 -0.08977
0.17 -0.43306 -0.09172
0.16968 -0.43146 -0.09427
0.16908 -0.42997 -0.09679
0.16836 -0.42861 -0.09935
0.16785 -0.42704 -0.10184
0.16751 -0.42577 -0.10453
0.16742 -0.42475 -0.10734
0.16761 -0.42326 -0.10993
0.16757 -0.42157 -0.11239
0.16727 -0.42018 -0.11502
0.16701 -0.41912 -0.1178
0.16629 -0.41816 -0.12052
0.16521 -0.41703 -0.12304
0.16392 -0.41515 -0.12493
0.16277 -0.41275 -0.12623
0.16207 -0.41012 -0.12756
0.16193 -0.4077 -0.1294
0.16188 -0.4055 -0.13143
0.16172 -0.40361 -0.13374
0.16094 -0.40157 -0.1358
0.1603 -0.39973 -0.13807
0.16006 -0.39792 -0.14042
0.1596 -0.39599 -0.14263
0.15858 -0.39445 -0.14499
0.17942 -0.45536 -0.06255
0.1795 -0.45363 -0.06496
0.17974 -0.45144 -0.06697
0.17958 -0.44972 -0.06938
0.17897 -0.44783 -0.07158
0.17825 -0.44596 -0.0738
0.17783 -0.44451 -0.07638
0.17745 -0.44325 -0.07905
0.17686 -0.44198 -0.08167
0.17623 -0.44035 -0.08405
0.17539 -0.43828 -0.08597
0.17443 -0.43633 -0.08795
0.17356 -0.43417 -0.08982
0.17303 -0.43229 -0.09208
0.17269 -0.43066 -0.09455
0.17209 -0.42927 -0.09709
0.17143 -0.4281 -0.09976
0.17085 -0.4263 -0.10208
0.17049 -0.42496 -0.1047
0.17031 -0.42367 -0.10736
0.17042 -0.42201 -0.10982
0.17035 -0.42028 -0.11223
0.16995 -0.41872 -0.11473
0.16928 -0.41716 -0.11715
0.16803 -0.41583 -0.11948
0.16664 -0.41461 -0.12174
0.16565 -0.41283 -0.12386
0.16479 -0.41051 -0.12548
0.1645 -0.40822 -0.12741
0.16451 -0.40615 -0.12956
0.16452 -0.40416 -0.13176
0.16431 -0.40217 -0.13394
0.16359 -0.40025 -0.1361
0.16296 -0.39845 -0.13837
0.16266 -0.39656 -0.14062
0.16219 -0.39465 -0.14283
0.16108 -0.39295 -0.14501
0.18261 -0.45587 -0.06034
0.18252 -0.45427 -0.06282
0.18249 -0.45219 -0.06494
0.18289 -0.45057 -0.0674
0.18273 -0.44913 -0.07001
0.18204 -0.44687 -0.07185
0.18132 -0.44509 -0.07414
0.18095 -0.44384 -0.07681
0.1806 -0.44282 -0.0796
0.17989 -0.44099 -0.08185
0.17921 -0.43915 -0.08407
0.1785 -0.4374 -0.08633
0.17745 -0.4353 -0.08809
0.17654 -0.43307 -0.08985
0.17598 -0.43118 -0.09211
0.17566 -0.42967 -0.09466
0.17501 -0.42816 -0.09712
0.17425 -0.42672 -0.0996
0.17378 -0.42528 -0.10214
0.1734 -0.4239 -0.10472
0.17315 -0.42244 -0.10728
0.17322 -0.42074 -0.10968
0.17312 -0.41896 -0.11204
0.17266 -0.4173 -0.11445
0.17197 -0.4157 -0.11683
0.17071 -0.41433 -0.11912
0.16922 -0.41295 -0.12123
0.16819 -0.41118 -0.12333
0.16748 -0.40905 -0.12526
0.16726 -0.40699 -0.12738
0.16729 -0.40507 -0.12963
0.16731 -0.40315 -0.13188
0.16715 -0.40131 -0.13419
0.16647 -0.39972 -0.13659
0.16584 -0.39788 -0.1388
0.1655 -0.39583 -0.14089
0.16492 -0.39361 -0.14276
0.16374 -0.39178 -0.14476
0.18544 -0.45419 -0.06063
0.18533 -0.45253 -0.06307
0.18552 -0.45102 -0.06561
0.18607 -0.45035 -0.06865
0.18578 -0.4481 -0.07074
0.185 -0.44567 -0.0723
0.18428 -0.44391 -0.07455
0.18402 -0.44295 -0.07735
0.18363 -0.4417 -0.08004
0.18285 -0.43987 -0.08227
0.18228 -0.43855 -0.08486
0.18155 -0.43692 -0.08728
0.18046 -0.43453 -0.08874
0.17953 -0.43212 -0.09024
0.17897 -0.43026 -0.09251
0.1786 -0.42858 -0.0949
0.17791 -0.42698 -0.09729
0.17714 -0.42555 -0.09977
0.17668 -0.42418 -0.10234
0.17623 -0.42264 -0.1048
0.17593 -0.42108 -0.10728
0.17601 -0.41944 -0.10972
0.17592 -0.41768 -0.11208
0.17549 -0.41611 -0.11455
0.17477 -0.41448 -0.11689
0.17343 -0.41294 -0.11902
0.17194 -0.41156 -0.12113
0.17091 -0.40984 -0.12328
0.17032 -0.40799 -0.1255
0.17 -0.40579 -0.12743
0.16998 -0.4038 -0.1296
0.17022 -0.4025 -0.13223
0.17012 -0.40131 -0.13496
0.16938 -0.39956 -0.13728
0.16874 -0.39757 -0.1394
0.1684 -0.39533 -0.14133
0.16772 -0.39276 -0.14267
0.18834 -0.45261 -0.06053
0.18841 -0.45134 -0.06319
0.18883 -0.45053 -0.06604
0.18929 -0.44913 -0.06878
0.18879 -0.44665 -0.07057
0.18785 -0.44421 -0.07203
0.18717 -0.44252 -0.07436
0.18672 -0.44121 -0.07696
0.18632 -0.43994 -0.07958
0.18583 -0.43874 -0.08223
0.18534 -0.43751 -0.08488
0.18465 -0.43587 -0.08732
0.18349 -0.43361 -0.08893
0.18254 -0.43127 -0.09051
0.182 -0.42947 -0.09282
0.18163 -0.42784 -0.09523
0.18089 -0.42607 -0.09746
0.18008 -0.42454 -0.09986
0.17959 -0.4231 -0.10238
0.17919 -0.42168 -0.10492
0.1788 -0.41993 -0.10725
0.17883 -0.41818 -0.1096
0.17875 -0.41646 -0.112
0.17829 -0.41481 -0.11438
0.17762 -0.41329 -0.11683
0.17617 -0.41163 -0.11882
0.17472 -0.41032 -0.12099
0.17369 -0.40863 -0.12315
0.1731 -0.40682 -0.1254
0.17267 -0.40447 -0.12715
0.17264 -0.40248 -0.12932
0.17278 -0.40096 -0.13186
0.17283 -0.39995 -0.13464
0.17233 -0.39873 -0.13736
0.17168 -0.39673 -0.13955
0.17106 -0.39407 -0.14083
0.17035 -0.39157 -0.14222
0.19125 -0.44996 -0.06224
0.1912 -0.45123 -0.05959
0.19154 -0.44889 -0.06496
0.19212 -0.44753 -0.06766
0.19141 -0.44506 -0.06934
0.19073 -0.44295 -0.07127
0.19009 -0.44135 -0.07365
0.18956 -0.43993 -0.07617
0.18907 -0.43855 -0.07871
0.18859 -0.43737 -0.08135
0.18803 -0.43603 -0.08391
0.18725 -0.43431 -0.08616
0.18634 -0.43242 -0.08822
0.18565 -0.43072 -0.0905
0.18519 -0.42932 -0.09304
0.18483 -0.42762 -0.09545
0.18396 -0.42551 -0.09736
0.18309 -0.4238 -0.09957
0.18261 -0.42235 -0.10207
0.18208 -0.42066 -0.10441
0.18172 -0.41902 -0.10681
0.18165 -0.41709 -0.10902
0.18135 -0.41505 -0.1111
0.18083 -0.41336 -0.11344
0.18015 -0.41183 -0.11584
0.179 -0.41061 -0.11825
0.17747 -0.40922 -0.12031
0.17644 -0.40756 -0.12247
0.17582 -0.40572 -0.12467
0.17542 -0.40347 -0.12652
0.17533 -0.40139 -0.12862
0.17532 -0.39968 -0.13101
0.17492 -0.39812 -0.13346
0.17463 -0.3971 -0.13624
0.17397 -0.39513 -0.13832
0.17346 -0.39264 -0.13983
0.17304 -0.3905 -0.14179
0.19369 -0.44199 -0.07038
0.19305 -0.44043 -0.07277
0.19244 -0.4389 -0.07518
0.19186 -0.4374 -0.07763
0.19121 -0.436 -0.08012
0.19059 -0.43462 -0.08262
0.18988 -0.433 -0.08494
0.18922 -0.43145 -0.08733
0.18856 -0.42983 -0.08968
0.18807 -0.42831 -0.09215
0.18754 -0.42638 -0.09429
0.18686 -0.42466 -0.09656
0.18605 -0.42308 -0.09889
0.18539 -0.42131 -0.10112
0.18485 -0.41963 -0.10346
0.18452 -0.41807 -0.10591
0.18442 -0.41611 -0.10808
0.18411 -0.41408 -0.11016
0.18354 -0.41234 -0.11243
0.18284 -0.41081 -0.11481
0.18172 -0.40964 -0.11725
0.18029 -0.40839 -0.11947
0.17925 -0.40676 -0.12165
0.17862 -0.40494 -0.12386
0.17823 -0.40275 -0.12578
0.17815 -0.40072 -0.12789
0.17812 -0.39898 -0.13024
0.17742 -0.39698 -0.13228
0.17665 -0.39549 -0.13469
0.17623 -0.39371 -0.13695
0.17617 -0.39172 -0.13907
0.17579 -0.38972 -0.14114
0.19341 -0.43334 -0.08188
0.19277 -0.43182 -0.08429
0.19209 -0.43029 -0.08668
0.19143 -0.42871 -0.08904
0.19083 -0.42704 -0.09137
0.19037 -0.42523 -0.09361
0.18972 -0.42357 -0.09593
0.18893 -0.42206 -0.0983
0.1883 -0.42037 -0.10059
0.18769 -0.41859 -0.10282
0.18727 -0.41688 -0.10515
0.18722 -0.41503 -0.1074
0.18701 -0.41315 -0.10963
0.18626 -0.41117 -0.11165
0.18548 -0.40956 -0.11394
0.18431 -0.40834 -0.11631
0.18294 -0.40718 -0.1186
0.18186 -0.40551 -0.12074
0.18111 -0.40357 -0.12279
0.18095 -0.40175 -0.12507
0.18111 -0.40018 -0.12757
0.18093 -0.39814 -0.12969
0.18009 -0.39595 -0.13149
0.17925 -0.3943 -0.1338
0.17901 -0.39282 -0.13632
0.17909 -0.39126 -0.13878
0.17862 -0.38913 -0.1407
0.19371 -0.42582 -0.09104
0.19328 -0.4241 -0.09335
0.19263 -0.42246 -0.09568
0.19183 -0.42096 -0.09805
0.19121 -0.4193 -0.10036
0.19063 -0.41761 -0.10267
0.19006 -0.41563 -0.10474
0.1899 -0.41361 -0.10683
0.18955 -0.41157 -0.10887
0.18891 -0.40975 -0.11106
0.18806 -0.40806 -0.11326
0.18684 -0.40679 -0.11558
0.18558 -0.40578 -0.118
0.18449 -0.40412 -0.12014
0.18378 -0.40228 -0.12228
0.1837 -0.4006 -0.12466
0.18361 -0.39867 -0.12685
0.18336 -0.39659 -0.12889
0.1827 -0.39465 -0.13098
0.18196 -0.39318 -0.1334
0.18184 -0.39197 -0.13607
0.18197 -0.39053 -0.13865
0.18146 -0.38837 -0.1406
0.19485 -0.42019 -0.09801
0.19433 -0.41878 -0.10056
0.19373 -0.41683 -0.10277
0.19292 -0.41444 -0.1043
0.19237 -0.41204 -0.10585
0.19208 -0.41008 -0.10798
0.19153 -0.40836 -0.11025
0.1908 -0.40684 -0.11263
0.18943 -0.40541 -0.11477
0.18807 -0.40428 -0.11706
0.18711 -0.40282 -0.11938
0.18653 -0.40118 -0.12171
0.18632 -0.39934 -0.12396
0.18617 -0.39735 -0.12609
0.18595 -0.39534 -0.12818
0.1854 -0.39356 -0.13042
0.18457 -0.39196 -0.13273
0.18433 -0.3906 -0.13531
0.18451 -0.38917 -0.13788
0.18409 -0.38716 -0.13999
0.19348 -0.40561 -0.11179
0.19225 -0.40438 -0.11413
0.19083 -0.4032 -0.11636
0.1898 -0.40168 -0.11859
0.18925 -0.4001 -0.12098
0.18903 -0.39827 -0.12324
0.18877 -0.39616 -0.12525
0.18859 -0.39423 -0.1274
0.18808 -0.39254 -0.1297
0.1873 -0.39103 -0.13207
0.18681 -0.38932 -0.13437
0.18665 -0.38751 -0.13664
0.18622 -0.38554 -0.13869
0.19341 -0.40176 -0.11561
0.19242 -0.40032 -0.11792
0.19181 -0.39868 -0.12024
0.19152 -0.39679 -0.12242
0.19125 -0.39472 -0.12444
0.19114 -0.39289 -0.12669
0.19065 -0.39124 -0.12903
0.18992 -0.38982 -0.13146
0.18937 -0.38804 -0.13368
0.18914 -0.38615 -0.13587
0.18877 -0.38425 -0.13801
0.19383 -0.39507 -0.12157
0.19364 -0.3931 -0.12369
0.19345 -0.3912 -0.12587
0.19285 -0.38948 -0.12813
0.19216 -0.3881 -0.13058
0.19181 -0.38653 -0.133
0.19167 -0.38476 -0.13529
0.1914 -0.38299 -0.13757
POLYGONS 2624 10496
3 0 1 2
3 2 1 3
3 1 4 3
3 3 4 5
3 4 6 5
3 5 6 7
3 6 8 7
3 7 8 9
3 8 10 9
3 9 10 11
3 10 12 11
3 11 12 13
3 12 14 13
3 12 15 14
3 15 16 14
3 15 17 16
3 17 18 16
3 16 18 19
3 18 20 19
3 19 20 21
3 20 22 21
3 21 22 23
3 22 24 23
3 2 25 26
3 2 3 25
3 3 27 25
3 3 5 27
3 5 28 27
3 5 7 28
3 7 29 28
3 7 9 29
3 9 30 29
3 9 11 30
3 11 31 30
3 11 13 31
3 13 32 31
3 13 14 32
3 14 33 32
3 14 16 33
3 16 34 33
3 16 19 34
3 19 21 34
3 34 21 35
3 21 36 35
3 21 23 36
3 23 37 36
3 23 24 37
3 24 38 37
3 24 39 38
3 39 40 38
3 39 41 40
3 41 42 40
3 41 43 42
3 43 44 42
3 42 44 45
3 44 46 45
3 45 46 47
3 46 48 47
3 47 48 49
3 48 50 49
3 49 50 51
3 50 52 51
3 51 52 53
3 52 54 53
3 52 55 54
3 55 56 54
3 55 57 56
3 57 58 56
3 57 59 58
3 59 60 58
3 59 61 60
3 61 62 60
3 61 63 62
3 63 64 62
3 26 65 66
3 26 25 65
3 25 67 65
3 25 27 67
3 27 68 67
3 27 28 68
3 28 69 68
3 28 29 69
3 29 70 69
3 29 30 70
3 30 71 70
3 30 31 71
3 31 72 71
3 31 32 72
3 32 73 72
3 32 33 73
3 33 74 73
3 33 34 74
3 34 35 74
3 74 35 75
3 35 76 75
3 35 36 76
3 36 77 76
3 36 37 77
3 37 78 77
3 37 38 78
3 38 79 78
3 38 40 79
3 40 80 79
3 40 42 80
3 42 45 80
3 80 45 81
3 45 47 81
3 81 47 82
3 47 83 82
3 47 49 83
3 49 51 83
3 83 51 84
3 51 53 84
3 84 53 85
3 53 86 85
3 53 54 86
3 54 87 86
3 54 56 87
3 56 88 87
3 56 58 88
3 58 89 88
3 58 60 89
3 60 90 89
3 60 62 90
3 62 91 90
3 62 64 91
3 64 92 91
3 64 93 92
3 93 94 92
3 93 95 94
3 95 96 94
3 95 97 96
3 97 98 96
3 96 98 99
3 98 100 99
3 98 101 100
3 101 102 100
3 101 103 102
3 103 104 102
3 66 105 106
3 66 65 105
3 65 107 105
3 65 67 107
3 67 108 107
3 67 68 108
3 68 109 108
3 68 69 109
3 69 110 109
3 69 70 110
3 70 111 110
3 70 71 111
3 71 112 111
3 71 72 112
3 72 113 112
3 72 73 113
3 73 114 113
3 73 74 114
3 74 75 114
3 114 75 115
3 75 116 115
3 75 76 116
3 76 117 116
3 76 77 117
3 77 118 117
3 77 78 118
3 78 119 118
3 78 79 119
3 79 120 119
3 79 80 120
3 80 81 120
3 120 81 121
3 81 82 121
3 121 82 122
3 82 83 122
3 122 83 123
3 83 84 123
3 123 84 124
3 84 85 124
3 124 85 125
3 85 126 125
3 85 86 126
3 86 127 126
3 86 87 127
3 87 128 127
3 87 88 128
3 88 129 128
3 88 89 129
3 89 130 129
3 89 90 130
3 90 131 130
3 90 91 131
3 91 132 131
3 91 92 132
3 92 133 132
3 92 94 133
3 94 134 133
3 94 96 134
3 96 99 134
3 134 99 135
3 99 100 135
3 135 100 136
3 100 137 136
3 100 102 137
3 102 138 137
3 102 104 138
3 104 139 138
3 104 140 139
3 106 141 142
3 106 105 141
3 105 143 141
3 105 107 143
3 107 144 143
3 107 108 144
3 108 145 144
3 108 109 145
3 109 146 145
3 109 110 146
3 110 147 146
3 110 111 147
3 111 148 147
3 111 112 148
3 112 149 148
3 112 113 149
3 113 150 149
3 113 114 150
3 114 151 150
3 114 115 151
3 115 152 151
3 115 116 152
3 116 153 152
3 116 117 153
3 117 154 153
3 117 118 154
3 118 155 154
3 118 119 155
3 119 156 155
3 119 120 156
3 120 157 156
3 120 121 157
3 121 158 157
3 121 122 158
3 122 159 158
3 122 123 159
3 123 124 159
3 159 124 160
3 124 125 160
3 160 125 161
3 125 162 161
3 125 126 162
3 126 163 162
3 126 127 163
3 127 164 163
3 127 128 164
3 128 165 164
3 128 129 165
3 129 166 165
3 129 130 166
3 130 167 166
3 130 131 167
3 131 168 167
3 131 132 168
3 132 169 168
3 132 133 169
3 133 170 169
3 133 134 170
3 134 171 170
3 134 135 171
3 135 172 171
3 135 136 172
3 136 173 172
3 136 137 173
3 137 174 173
3 137 138 174
3 138 175 174
3 138 139 175
3 142 176 177
3 142 141 176
3 141 178 176
3 141 143 178
3 143 179 178
3 143 144 179
3 144 180 179
3 144 145 180
3 145 181 180
3 145 146 181
3 146 182 181
3 146 147 182
3 147 183 182
3 147 148 183
3 148 184 183
3 148 149 184
3 149 185 184
3 149 150 185
3 150 186 185
3 150 151 186
3 151 187 186
3 151 152 187
3 152 188 187
3 152 153 188
3 153 189 188
3 153 154 189
3 154 190 189
3 154 155 190
3 155 191 190
3 155 156 191
3 156 192 191
3 156 157 192
3 157 193 192
3 157 158 193
3 158 194 193
3 158 159 194
3 159 160 194
3 194 160 195
3 160 161 195
3 195 161 196
3 161 197 196
3 161 162 197
3 162 198 197
3 162 163 198
3 163 199 198
3 163 164 199
3 164 200 199
3 164 165 200
3 165 201 200
3 165 166 201
3 166 202 201
3 166 167 202
3 167 203 202
3 167 168 203
3 168 204 203
3 168 169 204
3 169 205 204
3 169 170 205
3 170 206 205
3 170 171 206
3 171 207 206
3 171 172 207
3 172 208 207
3 172 173 208
3 173 209 208
3 173 174 209
3 174 210 209
3 174 175 210
3 177 211 212
3 177 176 211
3 176 213 211
3 176 178 213
3 178 214 213
3 178 179 214
3 179 215 214
3 179 180 215
3 180 181 215
3 215 181 216
3 181 217 216
3 181 182 217
3 182 218 217
3 182 183 218
3 183 219 218
3 183 184 219
3 184 220 219
3 184 185 220
3 185 221 220
3 185 186 221
3 186 222 221
3 186 187 222
3 187 223 222
3 187 188 223
3 188 224 223
3 188 189 224
3 189 225 224
3 189 190 225
3 190 226 225
3 190 191 226
3 191 192 226
3 226 192 227
3 192 193 227
3 227 193 228
3 193 194 228
3 228 194 229
3 194 195 229
3 229 195 230
3 195 196 230
3 230 196 231
3 196 197 231
3 231 197 232
3 197 233 232
3 197 198 233
3 198 234 233
3 198 199 234
3 199 235 234
3 199 200 235
3 200 236 235
3 200 201 236
3 201 237 236
3 201 202 237
3 202 238 237
3 202 203 238
3 203 239 238
3 203 204 239
3 204 240 239
3 204 205 240
3 205 206 240
3 240 206 241
3 206 242 241
3 206 207 242
3 207 243 242
3 207 208 243
3 208 244 243
3 208 209 244
3 209 245 244
3 209 210 245
3 212 246 247
3 212 211 246
3 211 213 246
3 246 213 248
3 213 214 248
3 248 214 249
3 214 215 249
3 249 215 250
3 215 216 250
3 250 216 251
3 216 217 251
3 251 217 252
3 217 253 252
3 217 218 253
3 218 254 253
3 218 219 254
3 219 255 254
3 219 220 255
3 220 221 255
3 255 221 256
3 221 257 256
3 221 222 257
3 222 258 257
3 222 223 258
3 223 259 258
3 223 224 259
3 224 260 259
3 224 225 260
3 225 226 260
3 260 226 261
3 226 227 261
3 261 227 262
3 227 228 262
3 262 228 263
3 228 229 263
3 263 229 264
3 229 230 264
3 264 230 265
3 230 231 265
3 265 231 266
3 231 232 266
3 266 232 267
3 232 268 267
3 232 233 268
3 233 269 268
3 233 234 269
3 234 270 269
3 234 235 270
3 235 271 270
3 235 236 271
3 236 272 271
3 236 237 272
3 237 273 272
3 237 238 273
3 238 274 273
3 238 239 274
3 239 275 274
3 239 240 275
3 240 241 275
3 275 241 276
3 241 242 276
3 276 242 277
3 242 278 277
3 242 243 278
3 243 279 278
3 243 244 279
3 244 280 279
3 244 245 280
3 247 281 282
3 247 246 281
3 246 283 281
3 246 248 283
3 248 284 283
3 248 249 284
3 249 250 284
3 284 250 285
3 250 251 285
3 285 251 286
3 251 287 286
3 251 252 287
3 252 288 287
3 252 253 288
3 253 289 288
3 253 254 289
3 254 290 289
3 254 255 290
3 255 291 290
3 255 256 291
3 256 292 291
3 256 257 292
3 257 293 292
3 257 258 293
3 258 294 293
3 258 259 294
3 259 295 294
3 259 260 295
3 260 296 295
3 260 261 296
3 261 262 296
3 296 262 297
3 262 263 297
3 297 263 298
3 263 264 298
3 298 264 299
3 264 265 299
3 299 265 300
3 265 266 300
3 300 266 301
3 266 267 301
3 301 267 302
3 267 303 302
3 267 268 303
3 268 304 303
3 268 269 304
3 269 305 304
3 269 270 305
3 270 306 305
3 270 271 306
3 271 307 306
3 271 272 307
3 272 308 307
3 272 273 308
3 273 309 308
3 273 274 309
3 274 310 309
3 274 275 310
3 275 276 310
3 310 276 311
3 276 277 311
3 311 277 312
3 277 313 312
3 277 278 313
3 278 314 313
3 278 279 314
3 279 315 314
3 279 280 315
3 282 316 317
3 282 281 316
3 281 318 316
3 281 283 318
3 283 319 318
3 283 284 319
3 284 320 319
3 284 285 320
3 285 321 320
3 285 286 321
3 286 322 321
3 286 287 322
3 287 323 322
3 287 288 323
3 288 324 323
3 288 289 324
3 289 325 324
3 289 290 325
3 290 326 325
3 290 291 326
3 291 327 326
3 291 292 327
3 292 328 327
3 292 293 328
3 293 329 328
3 293 294 329
3 294 330 329
3 294 295 330
3 295 331 330
3 295 296 331
3 296 297 331
3 331 297 332
3 297 298 332
3 332 298 333
3 298 299 333
3 333 299 334
3 299 300 334
3 334 300 335
3 300 301 335
3 335 301 336
3 301 302 336
3 336 302 337
3 302 338 337
3 302 303 338
3 303 339 338
3 303 304 339
3 304 340 339
3 304 305 340
3 305 341 340
3 305 306 341
3 306 342 341
3 306 307 342
3 307 343 342
3 307 308 343
3 308 344 343
3 308 309 344
3 309 345 344
3 309 310 345
3 310 311 345
3 345 311 346
3 311 347 346
3 311 312 347
3 312 348 347
3 312 313 348
3 313 349 348
3 313 314 349
3 314 350 349
3 314 315 350
3 317 351 352
3 317 316 351
3 316 353 351
3 316 318 353
3 318 354 353
3 318 319 354
3 319 355 354
3 319 320 355
3 320 356 355
3 320 321 356
3 321 357 356
3 321 322 357
3 322 358 357
3 322 323 358
3 323 359 358
3 323 324 359
3 324 360 359
3 324 325 360
3 325 361 360
3 325 326 361
3 326 362 361
3 326 327 362
3 327 363 362
3 327 328 363
3 328 364 363
3 328 329 364
3 329 365 364
3 329 330 365
3 330 366 365
3 330 331 366
3 331 332 366
3 366 332 367
3 332 333 367
3 367 333 368
3 333 334 368
3 368 334 369
3 334 335 369
3 369 335 370
3 335 336 370
3 370 336 371
3 336 372 371
3 336 337 372
3 337 373 372
3 337 338 373
3 338 374 373
3 338 339 374
3 339 375 374
3 339 340 375
3 340 376 375
3 340 341 376
3 341 377 376
3 341 342 377
3 342 378 377
3 342 343 378
3 343 379 378
3 343 344 379
3 344 380 379
3 344 345 380
3 345 346 380
3 380 346 381
3 346 382 381
3 346 347 382
3 347 383 382
3 347 348 383
3 348 384 383
3 348 349 384
3 349 385 384
3 386 352 387
3 352 388 387
3 352 351 388
3 351 353 388
3 388 353 389
3 353 354 389
3 389 354 390
3 354 391 390
3 354 355 391
3 355 392 391
3 355 356 392
3 356 393 392
3 356 357 393
3 357 394 393
3 357 358 394
3 358 395 394
3 358 359 395
3 359 396 395
3 359 360 396
3 360 397 396
3 360 361 397
3 361 398 397
3 361 362 398
3 362 399 398
3 362 363 399
3 363 400 399
3 363 364 400
3 364 401 400
3 364 365 401
3 365 402 401
3 365 366 402
3 366 367 402
3 402 367 403
3 367 368 403
3 403 368 404
3 368 369 404
3 404 369 405
3 369 370 405
3 405 370 406
3 370 371 406
3 406 371 407
3 371 408 407
3 371 372 408
3 372 409 408
3 372 373 409
3 373 410 409
3 373 374 410
3 374 411 410
3 374 375 411
3 375 412 411
3 375 376 412
3 376 413 412
3 376 377 413
3 377 414 413
3 377 378 414
3 378 415 414
3 378 379 415
3 379 416 415
3 379 380 416
3 380 381 416
3 416 381 417
3 381 382 417
3 417 382 418
3 382 419 418
3 382 383 419
3 383 420 419
3 383 384 420
3 421 387 422
3 387 423 422
3 387 388 423
3 388 424 423
3 388 389 424
3 389 425 424
3 389 390 425
3 390 426 425
3 390 391 426
3 391 427 426
3 391 392 427
3 392 428 427
3 392 393 428
3 393 429 428
3 393 394 429
3 394 430 429
3 394 395 430
3 395 431 430
3 395 396 431
3 396 432 431
3 396 397 432
3 397 433 432
3 397 398 433
3 398 434 433
3 398 399 434
3 399 435 434
3 399 400 435
3 400 436 435
3 400 401 436
3 401 437 436
3 401 402 437
3 402 403 437
3 437 403 438
3 403 404 438
3 438 404 439
3 404 405 439
3 439 405 440
3 405 406 440
3 440 406 441
3 406 407 441
3 441 407 442
3 407 443 442
3 407 408 443
3 408 444 443
3 408 409 444
3 409 445 444
3 409 410 445
3 410 446 445
3 410 411 446
3 411 447 446
3 411 412 447
3 412 448 447
3 412 413 448
3 413 449 448
3 413 414 449
3 414 450 449
3 414 415 450
3 415 451 450
3 415 416 451
3 416 417 451
3 451 417 452
3 417 453 452
3 417 418 453
3 418 454 453
3 418 419 454
3 419 455 454
3 419 420 455
3 421 456 457
3 421 422 456
3 422 458 456
3 422 423 458
3 423 459 458
3 423 424 459
3 424 460 459
3 424 425 460
3 425 461 460
3 425 426 461
3 426 462 461
3 426 427 462
3 427 463 462
3 427 428 463
3 428 464 463
3 428 429 464
3 429 465 464
3 429 430 465
3 430 466 465
3 430 431 466
3 431 467 466
3 431 432 467
3 432 468 467
3 432 433 468
3 433 469 468
3 433 434 469
3 434 470 469
3 434 435 470
3 435 471 470
3 435 436 471
3 436 472 471
3 436 437 472
3 437 438 472
3 472 438 473
3 438 439 473
3 473 439 474
3 439 475 474
3 439 440 475
3 440 441 475
3 475 441 476
3 441 442 476
3 476 442 477
3 442 478 477
3 442 443 478
3 443 479 478
3 443 444 479
3 444 480 479
3 444 445 480
3 445 481 480
3 445 446 481
3 446 482 481
3 446 447 482
3 447 483 482
3 447 448 483
3 448 484 483
3 448 449 484
3 449 485 484
3 449 450 485
3 450 486 485
3 450 451 486
3 451 487 486
3 451 452 487
3 452 488 487
3 452 453 488
3 453 489 488
3 453 454 489
3 454 490 489
3 454 455 490
3 457 456 491
3 491 456 492
3 456 493 492
3 456 458 493
3 458 494 493
3 458 459 494
3 459 495 494
3 459 460 495
3 460 496 495
3 460 461 496
3 461 462 496
3 496 462 497
3 462 498 497
3 462 463 498
3 463 499 498
3 463 464 499
3 464 500 499
3 464 465 500
3 465 501 500
3 465 466 501
3 466 502 501
3 466 467 502
3 467 503 502
3 467 468 503
3 468 504 503
3 468 469 504
3 469 505 504
3 469 470 505
3 470 506 505
3 470 471 506
3 471 507 506
3 471 472 507
3 472 473 507
3 507 473 508
3 473 474 508
3 508 474 509
3 474 475 509
3 509 475 510
3 475 476 510
3 510 476 511
3 476 477 511
3 511 477 512
3 477 513 512
3 477 478 513
3 478 514 513
3 478 479 514
3 479 515 514
3 479 480 515
3 480 516 515
3 480 481 516
3 481 517 516
3 481 482 517
3 482 518 517
3 482 483 518
3 483 519 518
3 483 484 519
3 484 520 519
3 484 485 520
3 485 521 520
3 485 486 521
3 486 522 521
3 486 487 522
3 487 523 522
3 487 488 523
3 488 524 523
3 488 489 524
3 489 525 524
3 489 490 525
3 491 526 527
3 491 492 526
3 492 528 526
3 492 493 528
3 493 529 528
3 493 494 529
3 494 530 529
3 494 495 530
3 495 531 530
3 495 496 531
3 496 497 531
3 531 497 532
3 497 533 532
3 497 498 533
3 498 534 533
3 498 499 534
3 499 535 534
3 499 500 535
3 500 536 535
3 500 501 536
3 501 537 536
3 501 502 537
3 502 538 537
3 502 503 538
3 503 539 538
3 503 504 539
3 504 540 539
3 504 505 540
3 505 541 540
3 505 506 541
3 506 542 541
3 506 507 542
3 507 508 542
3 542 508 543
3 508 509 543
3 543 509 544
3 509 545 544
3 509 510 545
3 510 511 545
3 545 511 546
3 511 512 546
3 546 512 547
3 512 548 547
3 512 513 548
3 513 549 548
3 513 514 549
3 514 550 549
3 514 515 550
3 515 551 550
3 515 516 551
3 516 552 551
3 516 517 552
3 517 553 552
3 517 518 553
3 518 554 553
3 518 519 554
3 519 555 554
3 519 520 555
3 520 556 555
3 520 521 556
3 521 522 556
3 556 522 557
3 522 558 557
3 522 523 558
3 523 559 558
3 523 524 559
3 524 560 559
3 524 525 560
3 527 561 562
3 527 526 561
3 526 563 561
3 526 528 563
3 528 564 563
3 528 529 564
3 529 565 564
3 529 530 565
3 530 566 565
3 530 531 566
3 531 567 566
3 531 532 567
3 532 568 567
3 532 533 568
3 533 569 568
3 533 534 569
3 534 570 569
3 534 535 570
3 535 571 570
3 535 536 571
3 536 572 571
3 536 537 572
3 537 573 572
3 537 538 573
3 538 574 573
3 538 539 574
3 539 575 574
3 539 540 575
3 540 576 575
3 540 541 576
3 541 577 576
3 541 542 577
3 542 543 577
3 577 543 578
3 543 544 578
3 578 544 579
3 544 580 579
3 544 545 580
3 545 546 580
3 580 546 581
3 546 547 581
3 581 547 582
3 547 583 582
3 547 548 583
3 548 584 583
3 548 549 584
3 549 585 584
3 549 550 585
3 550 586 585
3 550 551 586
3 551 587 586
3 551 552 587
3 552 588 587
3 552 553 588
3 553 589 588
3 553 554 589
3 554 590 589
3 554 555 590
3 555 591 590
3 555 556 591
3 556 557 591
3 591 557 592
3 557 593 592
3 557 558 593
3 558 594 593
3 558 559 594
3 559 595 594
3 559 560 595
3 562 561 596
3 596 561 597
3 561 563 597
3 597 563 598
3 563 564 598
3 598 564 599
3 564 565 599
3 599 565 600
3 565 566 600
3 600 566 601
3 566 567 601
3 601 567 602
3 567 603 602
3 567 568 603
3 568 604 603
3 568 569 604
3 569 605 604
3 569 570 605
3 570 571 605
3 605 571 606
3 571 572 606
3 606 572 607
3 572 608 607
3 572 573 608
3 573 609 608
3 573 574 609
3 574 610 609
3 574 575 610
3 575 611 610
3 575 576 611
3 576 612 611
3 576 577 612
3 577 578 612
3 612 578 613
3 578 579 613
3 613 579 614
3 579 580 614
3 614 580 615
3 580 581 615
3 615 581 616
3 581 582 616
3 616 582 617
3 582 583 617
3 617 583 618
3 583 619 618
3 583 584 619
3 584 620 619
3 584 585 620
3 585 621 620
3 585 586 621
3 586 622 621
3 586 587 622
3 587 623 622
3 587 588 623
3 588 624 623
3 588 589 624
3 589 625 624
3 589 590 625
3 590 626 625
3 590 591 626
3 591 592 626
3 626 592 627
3 592 593 627
3 627 593 628
3 593 629 628
3 593 594 629
3 594 630 629
3 594 595 630
3 596 597 631
3 631 597 632
3 597 598 632
3 632 598 633
3 598 599 633
3 633 599 634
3 599 600 634
3 634 600 635
3 600 601 635
3 635 601 636
3 601 602 636
3 636 602 637
3 602 603 637
3 637 603 638
3 603 639 638
3 603 604 639
3 604 640 639
3 604 605 640
3 605 606 640
3 640 606 641
3 606 607 641
3 641 607 642
3 607 608 642
3 642 608 643
3 608 609 643
3 643 609 644
3 609 610 644
3 644 610 645
3 610 611 645
3 645 611 646
3 611 612 646
3 646 612 647
3 612 613 647
3 647 613 648
3 613 614 648
3 648 614 649
3 614 615 649
3 649 615 650
3 615 616 650
3 650 616 651
3 616 617 651
3 651 617 652
3 617 618 652
3 652 618 653
3 618 619 653
3 653 619 654
3 619 655 654
3 619 620 655
3 620 656 655
3 620 621 656
3 621 657 656
3 621 622 657
3 622 623 657
3 657 623 658
3 623 624 658
3 658 624 659
3 624 660 659
3 624 625 660
3 625 626 660
3 660 626 661
3 626 627 661
3 661 627 662
3 627 628 662
3 662 628 663
3 628 664 663
3 628 629 664
3 629 665 664
3 629 630 665
3 666 631 667
3 631 632 667
3 667 632 668
3 632 633 668
3 668 633 669
3 633 634 669
3 669 634 670
3 634 635 670
3 670 635 671
3 635 636 671
3 671 636 672
3 636 637 672
3 672 637 673
3 637 638 673
3 673 638 674
3 638 675 674
3 638 639 675
3 639 676 675
3 639 640 676
3 640 641 676
3 676 641 677
3 641 642 677
3 677 642 678
3 642 643 678
3 678 643 679
3 643 644 679
3 679 644 680
3 644 645 680
3 680 645 681
3 645 646 681
3 681 646 682
3 646 647 682
3 682 647 683
3 647 648 683
3 683 648 684
3 648 649 684
3 684 649 685
3 649 650 685
3 685 650 686
3 650 651 686
3 686 651 687
3 651 652 687
3 687 652 688
3 652 653 688
3 688 653 689
3 653 654 689
3 689 654 690
3 654 691 690
3 654 655 691
3 655 692 691
3 655 656 692
3 656 693 692
3 656 657 693
3 657 658 693
3 693 658 694
3 658 659 694
3 694 659 695
3 659 696 695
3 659 660 696
3 660 661 696
3 696 661 697
3 661 662 697
3 697 662 698
3 662 663 698
3 698 663 699
3 663 700 699
3 663 664 700
3 664 701 700
3 664 665 701
3 666 667 702
3 702 667 703
3 667 668 703
3 703 668 704
3 668 669 704
3 704 669 705
3 669 670 705
3 705 670 706
3 670 671 706
3 706 671 707
3 671 672 707
3 707 672 708
3 672 673 708
3 708 673 709
3 673 674 709
3 709 674 710
3 674 711 710
3 674 675 711
3 675 676 711
3 711 676 712
3 676 677 712
3 712 677 713
3 677 678 713
3 713 678 714
3 678 679 714
3 714 679 715
3 679 680 715
3 715 680 716
3 680 681 716
3 716 681 717
3 681 682 717
3 717 682 718
3 682 683 718
3 718 683 719
3 683 684 719
3 719 684 720
3 684 685 720
3 720 685 721
3 685 686 721
3 721 686 722
3 686 687 722
3 722 687 723
3 687 688 723
3 723 688 724
3 688 689 724
3 724 689 725
3 689 690 725
3 725 690 726
3 690 691 726
3 726 691 727
3 691 692 727
3 727 692 728
3 692 693 728
3 728 693 729
3 693 694 729
3 729 694 730
3 694 695 730
3 730 695 731
3 695 732 731
3 695 696 732
3 696 733 732
3 696 697 733
3 697 698 733
3 733 698 734
3 698 699 734
3 734 699 735
3 699 736 735
3 699 700 736
3 700 737 736
3 700 701 737
3 738 702 739
3 702 703 739
3 739 703 740
3 703 704 740
3 740 704 741
3 704 705 741
3 741 705 742
3 705 706 742
3 742 706 743
3 706 707 743
3 743 707 744
3 707 708 744
3 744 708 745
3 708 709 745
3 745 709 746
3 709 710 746
3 746 710 747
3 710 711 747
3 747 711 748
3 711 712 748
3 748 712 749
3 712 713 749
3 749 713 750
3 713 714 750
3 750 714 751
3 714 715 751
3 751 715 752
3 715 716 752
3 752 716 753
3 716 717 753
3 753 717 754
3 717 718 754
3 754 718 755
3 718 719 755
3 755 719 756
3 719 720 756
3 756 720 757
3 720 721 757
3 757 721 758
3 721 722 758
3 758 722 759
3 722 723 759
3 759 723 760
3 723 724 760
3 760 724 761
3 724 725 761
3 761 725 762
3 725 726 762
3 762 726 763
3 726 727 763
3 763 727 764
3 727 728 764
3 764 728 765
3 728 729 765
3 765 729 766
3 729 730 766
3 766 730 767
3 730 731 767
3 767 731 768
3 731 769 768
3 731 732 769
3 732 770 769
3 732 733 770
3 733 734 770
3 770 734 771
3 734 735 771
3 771 735 772
3 735 773 772
3 735 736 773
3 736 774 773
3 738 739 775
3 775 739 776
3 739 740 776
3 776 740 777
3 740 741 777
3 777 741 778
3 741 742 778
3 778 742 779
3 742 743 779
3 779 743 780
3 743 744 780
3 780 744 781
3 744 745 781
3 781 745 782
3 745 746 782
3 782 746 783
3 746 747 783
3 783 747 784
3 747 785 784
3 747 748 785
3 748 749 785
3 785 749 786
3 749 750 786
3 786 750 787
3 750 751 787
3 787 751 788
3 751 752 788
3 788 752 789
3 752 753 789
3 789 753 790
3 753 754 790
3 790 754 791
3 754 755 791
3 791 755 792
3 755 756 792
3 792 756 793
3 756 757 793
3 793 757 794
3 757 758 794
3 794 758 795
3 758 759 795
3 795 759 796
3 759 760 796
3 796 760 797
3 760 761 797
3 797 761 798
3 761 762 798
3 798 762 799
3 762 763 799
3 799 763 800
3 763 764 800
3 800 764 801
3 764 765 801
3 801 765 802
3 765 766 802
3 802 766 803
3 766 804 803
3 766 767 804
3 767 805 804
3 767 768 805
3 768 806 805
3 768 769 806
3 769 807 806
3 769 770 807
3 770 808 807
3 770 771 808
3 771 809 808
3 771 772 809
3 772 810 809
3 772 773 810
3 775 776 811
3 811 776 812
3 776 777 812
3 812 777 813
3 777 778 813
3 813 778 814
3 778 779 814
3 814 779 815
3 779 780 815
3 815 780 816
3 780 781 816
3 816 781 817
3 781 782 817
3 817 782 818
3 782 783 818
3 818 783 819
3 783 820 819
3 783 784 820
3 784 821 820
3 784 785 821
3 785 822 821
3 785 786 822
3 786 787 822
3 822 787 823
3 787 788 823
3 823 788 824
3 788 825 824
3 788 789 825
3 789 826 825
3 789 790 826
3 790 827 826
3 790 791 827
3 791 792 827
3 827 792 828
3 792 793 828
3 828 793 829
3 793 794 829
3 829 794 830
3 794 795 830
3 830 795 831
3 795 796 831
3 831 796 832
3 796 797 832
3 832 797 833
3 797 798 833
3 833 798 834
3 798 835 834
3 798 799 835
3 799 836 835
3 799 800 836
3 800 837 836
3 800 801 837
3 801 802 837
3 837 802 838
3 802 803 838
3 838 803 839
3 803 840 839
3 803 804 840
3 804 841 840
3 804 805 841
3 805 842 841
3 805 806 842
3 806 843 842
3 806 807 843
3 807 844 843
3 807 808 844
3 808 845 844
3 808 809 845
3 809 846 845
3 809 810 846
3 811 812 847
3 847 812 848
3 812 813 848
3 848 813 849
3 813 814 849
3 849 814 850
3 814 815 850
3 850 815 851
3 815 816 851
3 851 816 852
3 816 817 852
3 852 817 853
3 817 818 853
3 853 818 854
3 818 819 854
3 854 819 855
3 819 856 855
3 819 820 856
3 820 857 856
3 820 821 857
3 821 858 857
3 821 822 858
3 822 859 858
3 822 823 859
3 823 824 859
3 859 824 860
3 824 861 860
3 824 825 861
3 825 862 861
3 825 826 862
3 826 863 862
3 826 827 863
3 827 864 863
3 827 828 864
3 828 829 864
3 864 829 865
3 829 830 865
3 865 830 866
3 830 831 866
3 866 831 867
3 831 832 867
3 867 832 868
3 832 833 868
3 868 833 869
3 833 870 869
3 833 834 870
3 834 871 870
3 834 835 871
3 835 872 871
3 835 836 872
3 836 873 872
3 836 837 873
3 837 838 873
3 873 838 874
3 838 875 874
3 838 839 875
3 839 876 875
3 839 840 876
3 840 877 876
3 840 841 877
3 841 878 877
3 841 842 878
3 842 879 878
3 842 843 879
3 843 880 879
3 843 844 880
3 844 881 880
3 844 845 881
3 845 882 881
3 845 846 882
3 846 883 882
3 846 884 883
3 847 848 885
3 885 848 886
3 848 849 886
3 886 849 887
3 849 888 887
3 849 850 888
3 850 889 888
3 850 851 889
3 851 890 889
3 851 852 890
3 852 853 890
3 890 853 891
3 853 854 891
3 891 854 892
3 854 855 892
3 892 855 893
3 855 856 893
3 893 856 894
3 856 895 894
3 856 857 895
3 857 896 895
3 857 858 896
3 858 859 896
3 896 859 897
3 859 860 897
3 897 860 898
3 860 861 898
3 898 861 899
3 861 900 899
3 861 862 900
3 862 863 900
3 900 863 901
3 863 864 901
3 901 864 902
3 864 865 902
3 902 865 903
3 865 866 903
3 903 866 904
3 866 867 904
3 904 867 905
3 867 868 905
3 905 868 906
3 868 869 906
3 906 869 907
3 869 870 907
3 907 870 908
3 870 909 908
3 870 871 909
3 871 910 909
3 871 872 910
3 872 873 910
3 910 873 911
3 873 874 911
3 911 874 912
3 874 913 912
3 874 875 913
3 875 914 913
3 875 876 914
3 876 915 914
3 876 877 915
3 877 916 915
3 877 878 916
3 878 917 916
3 878 879 917
3 879 918 917
3 879 880 918
3 880 919 918
3 880 881 919
3 881 920 919
3 881 882 920
3 882 921 920
3 882 883 921
3 922 885 923
3 885 886 923
3 923 886 924
3 886 887 924
3 924 887 925
3 887 926 925
3 887 888 926
3 888 927 926
3 888 889 927
3 889 890 927
3 927 890 928
3 890 891 928
3 928 891 929
3 891 892 929
3 929 892 930
3 892 893 930
3 930 893 931
3 893 894 931
3 931 894 932
3 894 933 932
3 894 895 933
3 895 934 933
3 895 896 934
3 896 897 934
3 934 897 935
3 897 898 935
3 935 898 936
3 898 937 936
3 898 899 937
3 899 938 937
3 899 900 938
3 900 939 938
3 900 901 939
3 901 940 939
3 901 902 940
3 902 903 940
3 940 903 941
3 903 904 941
3 941 904 942
3 904 905 942
3 942 905 943
3 905 906 943
3 943 906 944
3 906 907 944
3 944 907 945
3 907 946 945
3 907 908 946
3 908 947 946
3 908 909 947
3 909 948 947
3 909 910 948
3 910 949 948
3 910 911 949
3 911 950 949
3 911 912 950
3 912 951 950
3 912 913 951
3 913 952 951
3 913 914 952
3 914 953 952
3 914 915 953
3 915 954 953
3 915 916 954
3 916 955 954
3 916 917 955
3 917 956 955
3 917 918 956
3 918 957 956
3 918 919 957
3 919 958 957
3 919 920 958
3 920 959 958
3 920 921 959
3 922 923 960
3 960 923 961
3 923 924 961
3 961 924 962
3 924 925 962
3 962 925 963
3 925 926 963
3 963 926 964
3 926 965 964
3 926 927 965
3 927 928 965
3 965 928 966
3 928 929 966
3 966 929 967
3 929 930 967
3 967 930 968
3 930 931 968
3 968 931 969
3 931 932 969
3 969 932 970
3 932 933 970
3 970 933 971
3 933 934 971
3 971 934 972
3 934 935 972
3 972 935 973
3 935 974 973
3 935 936 974
3 936 975 974
3 936 937 975
3 937 976 975
3 937 938 976
3 938 977 976
3 938 939 977
3 939 978 977
3 939 940 978
3 940 979 978
3 940 941 979
3 941 942 979
3 979 942 980
3 942 943 980
3 980 943 981
3 943 982 981
3 943 944 982
3 944 945 982
3 982 945 983
3 945 946 983
3 983 946 984
3 946 947 984
3 984 947 985
3 947 986 985
3 947 948 986
3 948 987 986
3 948 949 987
3 949 988 987
3 949 950 988
3 950 989 988
3 950 951 989
3 951 990 989
3 951 952 990
3 952 991 990
3 952 953 991
3 953 992 991
3 953 954 992
3 954 955 992
3 992 955 993
3 955 956 993
3 993 956 994
3 956 957 994
3 994 957 995
3 957 996 995
3 957 958 996
3 958 997 996
3 958 959 997
3 960 961 998
3 998 961 999
3 961 962 999
3 999 962 1000
3 962 963 1000
3 1000 963 1001
3 963 1002 1001
3 963 964 1002
3 964 1003 1002
3 964 965 1003
3 965 1004 1003
3 965 966 1004
3 966 1005 1004
3 966 967 1005
3 967 1006 1005
3 967 968 1006
3 968 1007 1006
3 968 969 1007
3 969 1008 1007
3 969 970 1008
3 970 1009 1008
3 970 971 1009
3 971 1010 1009
3 971 972 1010
3 972 1011 1010
3 972 973 1011
3 973 1012 1011
3 973 974 1012
3 974 1013 1012
3 974 975 1013
3 975 1014 1013
3 975 976 1014
3 976 1015 1014
3 976 977 1015
3 977 1016 1015
3 977 978 1016
3 978 1017 1016
3 978 979 1017
3 979 1018 1017
3 979 980 1018
3 980 1019 1018
3 980 981 1019
3 981 1020 1019
3 981 982 1020
3 982 1021 1020
3 982 983 1021
3 983 1022 1021
3 983 984 1022
3 984 1023 1022
3 984 985 1023
3 985 1024 1023
3 985 986 1024
3 986 1025 1024
3 986 987 1025
3 987 1026 1025
3 987 988 1026
3 988 1027 1026
3 988 989 1027
3 989 990 1027
3 1027 990 1028
3 990 991 1028
3 1028 991 1029
3 991 992 1029
3 1029 992 1030
3 992 993 1030
3 1030 993 1031
3 993 994 1031
3 1031 994 1032
3 994 995 1032
3 1032 995 1033
3 995 1034 1033
3 995 996 1034
3 996 1035 1034
3 998 999 1036
3 1036 999 1037
3 999 1000 1037
3 1037 1000 1038
3 1000 1001 1038
3 1038 1001 1039
3 1001 1040 1039
3 1001 1002 1040
3 1002 1041 1040
3 1002 1003 1041
3 1003 1042 1041
3 1003 1004 1042
3 1004 1043 1042
3 1004 1005 1043
3 1005 1044 1043
3 1005 1006 1044
3 1006 1045 1044
3 1006 1007 1045
3 1007 1046 1045
3 1007 1008 1046
3 1008 1047 1046
3 1008 1009 1047
3 1009 1048 1047
3 1009 1010 1048
3 1010 1049 1048
3 1010 1011 1049
3 1011 1050 1049
3 1011 1012 1050
3 1012 1051 1050
3 1012 1013 1051
3 1013 1052 1051
3 1013 1014 1052
3 1014 1053 1052
3 1014 1015 1053
3 1015 1054 1053
3 1015 1016 1054
3 1016 1055 1054
3 1016 1017 1055
3 1017 1018 1055
3 1055 1018 1056
3 1018 1057 1056
3 1018 1019 1057
3 1019 1058 1057
3 1019 1020 1058
3 1020 1059 1058
3 1020 1021 1059
3 1021 1060 1059
3 1021 1022 1060
3 1022 1061 1060
3 1022 1023 1061
3 1023 1062 1061
3 1023 1024 1062
3 1024 1063 1062
3 1024 1025 1063
3 1025 1064 1063
3 1025 1026 1064
3 1026 1027 1064
3 1064 1027 1065
3 1027 1028 1065
3 1065 1028 1066
3 1028 1029 1066
3 1066 1029 1067
3 1029 1030 1067
3 1067 1030 1068
3 1030 1031 1068
3 1068 1031 1069
3 1031 1032 1069
3 1069 1032 1070
3 1032 1033 1070
3 1070 1033 1071
3 1033 1072 1071
3 1033 1034 1072
3 1036 1037 1073
3 1073 1037 1074
3 1037 1038 1074
3 1074 1038 1075
3 1038 1039 1075
3 1075 1039 1076
3 1039 1040 1076
3 1076 1040 1077
3 1040 1041 1077
3 1077 1041 1078
3 1041 1042 1078
3 1078 1042 1079
3 1042 1043 1079
3 1079 1043 1080
3 1043 1081 1080
3 1043 1044 1081
3 1044 1082 1081
3 1044 1045 1082
3 1045 1083 1082
3 1045 1046 1083
3 1046 1084 1083
3 1046 1047 1084
3 1047 1085 1084
3 1047 1048 1085
3 1048 1049 1085
3 1085 1049 1086
3 1049 1050 1086
3 1086 1050 1087
3 1050 1051 1087
3 1087 1051 1088
3 1051 1052 1088
3 1088 1052 1089
3 1052 1053 1089
3 1089 1053 1090
3 1053 1054 1090
3 1090 1054 1091
3 1054 1055 1091
3 1091 1055 1092
3 1055 1056 1092
3 1092 1056 1093
3 1056 1057 1093
3 1093 1057 1094
3 1057 1058 1094
3 1094 1058 1095
3 1058 1096 1095
3 1058 1059 1096
3 1059 1097 1096
3 1059 1060 1097
3 1060 1098 1097
3 1060 1061 1098
3 1061 1099 1098
3 1061 1062 1099
3 1062 1100 1099
3 1062 1063 1100
3 1063 1064 1100
3 1100 1064 1101
3 1064 1065 1101
3 1101 1065 1102
3 1065 1066 1102
3 1102 1066 1103
3 1066 1067 1103
3 1103 1067 1104
3 1067 1068 1104
3 1104 1068 1105
3 1068 1069 1105
3 1105 1069 1106
3 1069 1070 1106
3 1106 1070 1107
3 1070 1071 1107
3 1107 1071 1108
3 1071 1109 1108
3 1071 1072 1109
3 1110 1073 1111
3 1073 1074 1111
3 1111 1074 1112
3 1074 1075 1112
3 1112 1075 1113
3 1075 1076 1113
3 1113 1076 1114
3 1076 1077 1114
3 1114 1077 1115
3 1077 1078 1115
3 1115 1078 1116
3 1078 1079 1116
3 1116 1079 1117
3 1079 1080 1117
3 1117 1080 1118
3 1080 1081 1118
3 1118 1081 1119
3 1081 1082 1119
3 1119 1082 1120
3 1082 1083 1120
3 1120 1083 1121
3 1083 1122 1121
3 1083 1084 1122
3 1084 1085 1122
3 1122 1085 1123
3 1085 1086 1123
3 1123 1086 1124
3 1086 1087 1124
3 1124 1087 1125
3 1087 1088 1125
3 1125 1088 1126
3 1088 1127 1126
3 1088 1089 1127
3 1089 1090 1127
3 1127 1090 1128
3 1090 1091 1128
3 1128 1091 1129
3 1091 1092 1129
3 1129 1092 1130
3 1092 1093 1130
3 1130 1093 1131
3 1093 1094 1131
3 1131 1094 1132
3 1094 1095 1132
3 1132 1095 1133
3 1095 1134 1133
3 1095 1096 1134
3 1096 1135 1134
3 1096 1097 1135
3 1097 1136 1135
3 1097 1098 1136
3 1098 1137 1136
3 1098 1099 1137
3 1099 1138 1137
3 1099 1100 1138
3 1100 1101 1138
3 1138 1101 1139
3 1101 1102 1139
3 1139 1102 1140
3 1102 1103 1140
3 1140 1103 1141
3 1103 1104 1141
3 1141 1104 1142
3 1104 1105 1142
3 1142 1105 1143
3 1105 1106 1143
3 1143 1106 1144
3 1106 1107 1144
3 1144 1107 1145
3 1107 1108 1145
3 1145 1108 1146
3 1108 1147 1146
3 1148 1111 1149
3 1111 1112 1149
3 1149 1112 1150
3 1112 1113 1150
3 1150 1113 1151
3 1113 1114 1151
3 1151 1114 1152
3 1114 1115 1152
3 1152 1115 1153
3 1115 1116 1153
3 1153 1116 1154
3 1116 1117 1154
3 1154 1117 1155
3 1117 1118 1155
3 1155 1118 1156
3 1118 1119 1156
3 1156 1119 1157
3 1119 1120 1157
3 1157 1120 1158
3 1120 1121 1158
3 1158 1121 1159
3 1121 1122 1159
3 1159 1122 1160
3 1122 1123 1160
3 1160 1123 1161
3 1123 1124 1161
3 1161 1124 1162
3 1124 1125 1162
3 1162 1125 1163
3 1125 1126 1163
3 1163 1126 1164
3 1126 1165 1164
3 1126 1127 1165
3 1127 1128 1165
3 1165 1128 1166
3 1128 1129 1166
3 1166 1129 1167
3 1129 1130 1167
3 1167 1130 1168
3 1130 1131 1168
3 1168 1131 1169
3 1131 1132 1169
3 1169 1132 1170
3 1132 1133 1170
3 1170 1133 1171
3 1133 1134 1171
3 1171 1134 1172
3 1134 1173 1172
3 1134 1135 1173
3 1135 1174 1173
3 1135 1136 1174
3 1136 1175 1174
3 1136 1137 1175
3 1137 1138 1175
3 1175 1138 1176
3 1138 1139 1176
3 1176 1139 1177
3 1139 1140 1177
3 1177 1140 1178
3 1140 1141 1178
3 1178 1141 1179
3 1141 1142 1179
3 1179 1142 1180
3 1142 1143 1180
3 1180 1143 1181
3 1143 1144 1181
3 1181 1144 1182
3 1144 1145 1182
3 1182 1145 1183
3 1145 1146 1183
3 1183 1146 1184
3 1148 1149 1185
3 1185 1149 1186
3 1149 1150 1186
3 1186 1150 1187
3 1150 1151 1187
3 1187 1151 1188
3 1151 1152 1188
3 1188 1152 1189
3 1152 1153 1189
3 1189 1153 1190
3 1153 1191 1190
3 1153 1154 1191
3 1154 1192 1191
3 1154 1155 1192
3 1155 1193 1192
3 1155 1156 1193
3 1156 1194 1193
3 1156 1157 1194
3 1157 1195 1194
3 1157 1158 1195
3 1158 1196 1195
3 1158 1159 1196
3 1159 1197 1196
3 1159 1160 1197
3 1160 1161 1197
3 1197 1161 1198
3 1161 1162 1198
3 1198 1162 1199
3 1162 1163 1199
3 1199 1163 1200
3 1163 1164 1200
3 1200 1164 1201
3 1164 1202 1201
3 1164 1165 1202
3 1165 1166 1202
3 1202 1166 1203
3 1166 1167 1203
3 1203 1167 1204
3 1167 1168 1204
3 1204 1168 1205
3 1168 1169 1205
3 1205 1169 1206
3 1169 1170 1206
3 1206 1170 1207
3 1170 1171 1207
3 1207 1171 1208
3 1171 1209 1208
3 1171 1172 1209
3 1172 1210 1209
3 1172 1173 1210
3 1173 1211 1210
3 1173 1174 1211
3 1174 1212 1211
3 1174 1175 1212
3 1175 1176 1212
3 1212 1176 1213
3 1176 1177 1213
3 1213 1177 1214
3 1177 1178 1214
3 1214 1178 1215
3 1178 1179 1215
3 1215 1179 1216
3 1179 1180 1216
3 1216 1180 1217
3 1180 1218 1217
3 1180 1181 1218
3 1181 1182 1218
3 1218 1182 1219
3 1182 1183 1219
3 1219 1183 1220
3 1183 1184 1220
3 1220 1184 1221
3 1185 1222 1223
3 1185 1186 1222
3 1186 1224 1222
3 1186 1187 1224
3 1187 1188 1224
3 1224 1188 1225
3 1188 1226 1225
3 1188 1189 1226
3 1189 1227 1226
3 1189 1190 1227
3 1190 1228 1227
3 1190 1191 1228
3 1191 1229 1228
3 1191 1192 1229
3 1192 1230 1229
3 1192 1193 1230
3 1193 1231 1230
3 1193 1194 1231
3 1194 1232 1231
3 1194 1195 1232
3 1195 1233 1232
3 1195 1196 1233
3 1196 1234 1233
3 1196 1197 1234
3 1197 1235 1234
3 1197 1198 1235
3 1198 1199 1235
3 1235 1199 1236
3 1199 1200 1236
3 1236 1200 1237
3 1200 1238 1237
3 1200 1201 1238
3 1201 1239 1238
3 1201 1202 1239
3 1202 1240 1239
3 1202 1203 1240
3 1203 1241 1240
3 1203 1204 1241
3 1204 1242 1241
3 1204 1205 1242
3 1205 1206 1242
3 1242 1206 1243
3 1206 1244 1243
3 1206 1207 1244
3 1207 1245 1244
3 1207 1208 1245
3 1208 1246 1245
3 1208 1209 1246
3 1209 1247 1246
3 1209 1210 1247
3 1210 1248 1247
3 1210 1211 1248
3 1211 1249 1248
3 1211 1212 1249
3 1212 1250 1249
3 1212 1213 1250
3 1213 1251 1250
3 1213 1214 1251
3 1214 1215 1251
3 1251 1215 1252
3 1215 1253 1252
3 1215 1216 1253
3 1216 1254 1253
3 1216 1217 1254
3 1217 1255 1254
3 1217 1218 1255
3 1218 1256 1255
3 1218 1219 1256
3 1219 1257 1256
3 1219 1220 1257
3 1220 1258 1257
3 1220 1221 1258
3 1226 1227 1259
3 1227 1228 1260
3 1228 1261 1260
3 1228 1229 1261
3 1229 1262 1261
3 1229 1230 1262
3 1230 1263 1262
3 1230 1231 1263
3 1231 1264 1263
3 1231 1232 1264
3 1232 1265 1264
3 1232 1233 1265
3 1233 1266 1265
3 1233 1234 1266
3 1234 1267 1266
3 1234 1235 1267
3 1235 1268 1267
3 1235 1236 1268
3 1236 1269 1268
3 1236 1237 1269
3 1237 1270 1269
3 1237 1238 1270
3 1238 1271 1270
3 1238 1239 1271
3 1239 1272 1271
3 1239 1240 1272
3 1240 1273 1272
3 1240 1241 1273
3 1241 1274 1273
3 1241 1242 1274
3 1242 1275 1274
3 1242 1243 1275
3 1243 1276 1275
3 1243 1244 1276
3 1244 1277 1276
3 1244 1245 1277
3 1245 1278 1277
3 1245 1246 1278
3 1246 1279 1278
3 1246 1247 1279
3 1247 1280 1279
3 1247 1248 1280
3 1248 1281 1280
3 1248 1249 1281
3 1249 1282 1281
3 1249 1250 1282
3 1250 1283 1282
3 1250 1251 1283
3 1251 1284 1283
3 1251 1252 1284
3 1252 1285 1284
3 1252 1253 1285
3 1253 1286 1285
3 1253 1254 1286
3 1254 1287 1286
3 1254 1255 1287
3 1255 1288 1287
3 1255 1256 1288
3 1256 1289 1288
3 1256 1257 1289
3 1257 1290 1289
3 1257 1258 1290
3 1263 1264 1291
3 1264 1292 1291
3 1264 1265 1292
3 1265 1293 1292
3 1265 1266 1293
3 1266 1294 1293
3 1266 1267 1294
3 1267 1295 1294
3 1267 1268 1295
3 1268 1296 1295
3 1268 1269 1296
3 1269 1297 1296
3 1269 1270 1297
3 1270 1298 1297
3 1270 1271 1298
3 1271 1299 1298
3 1271 1272 1299
3 1272 1300 1299
3 1272 1273 1300
3 1273 1301 1300
3 1273 1274 1301
3 1274 1275 1301
3 1301 1275 1302
3 1275 1276 1302
3 1302 1276 1303
3 1276 1304 1303
3 1276 1277 1304
3 1277 1305 1304
3 1277 1278 1305
3 1278 1306 1305
3 1278 1279 1306
3 1279 1307 1306
3 1279 1280 1307
3 1280 1308 1307
3 1280 1281 1308
3 1281 1309 1308
3 1281 1282 1309
3 1282 1310 1309
3 1282 1283 1310
3 1283 1284 1310
3 1310 1284 1311
3 1284 1285 1311
3 1311 1285 1312
3 1285 1313 1312
3 1285 1286 1313
3 1286 1314 1313
3 1286 1287 1314
3 1287 1315 1314
3 1287 1288 1315
3 1288 1289 1315
3 1315 1289 1316
3 1289 1317 1316
3 1289 1290 1317
3 1294 1295 1318
3 1295 1296 1318
3 1318 1296 1319
3 1296 1320 1319
3 1296 1297 1320
3 1297 1321 1320
3 1297 1298 1321
3 1298 1322 1321
3 1298 1299 1322
3 1299 1323 1322
3 1299 1300 1323
3 1300 1301 1323
3 1323 1301 1324
3 1301 1302 1324
3 1324 1302 1325
3 1302 1303 1325
3 1325 1303 1326
3 1303 1327 1326
3 1303 1304 1327
3 1304 1328 1327
3 1304 1305 1328
3 1305 1329 1328
3 1305 1306 1329
3 1306 1330 1329
3 1306 1307 1330
3 1307 1331 1330
3 1307 1308 1331
3 1308 1332 1331
3 1308 1309 1332
3 1309 1310 1332
3 1332 1310 1333
3 1310 1311 1333
3 1333 1311 1334
3 1311 1312 1334
3 1334 1312 1335
3 1312 1336 1335
3 1312 1313 1336
3 1313 1337 1336
3 1313 1314 1337
3 1314 1315 1337
3 1337 1315 1338
3 1315 1316 1338
3 1338 1316 1339
3 1316 1317 1339
3 1339 1317 1340
3 1321 1322 1341
3 1322 1323 1342
3 1342 1323 1343
3 1323 1324 1343
3 1343 1324 1344
3 1324 1325 1344
3 1344 1325 1345
3 1325 1346 1345
3 1325 1326 1346
3 1326 1347 1346
3 1326 1327 1347
3 1327 1348 1347
3 1327 1328 1348
3 1328 1349 1348
3 1328 1329 1349
3 1329 1350 1349
3 1329 1330 1350
3 1330 1351 1350
3 1330 1331 1351
3 1331 1352 1351
3 1331 1332 1352
3 1332 1333 1352
3 1352 1333 1353
3 1333 1334 1353
3 1353 1334 1354
3 1334 1335 1354
3 1354 1335 1355
3 1335 1356 1355
3 1335 1336 1356
3 1336 1357 1356
3 1336 1337 1357
3 1337 1358 1357
3 1337 1338 1358
3 1338 1339 1358
3 1358 1339 1359
3 1339 1360 1359
3 1339 1340 1360
3 1347 1348 1361
3 1348 1362 1361
3 1348 1349 1362
3 1349 1363 1362
3 1349 1350 1363
3 1350 1364 1363
3 1350 1351 1364
3 1351 1365 1364
3 1351 1352 1365
3 1352 1366 1365
3 1352 1353 1366
3 1353 1354 1366
3 1366 1354 1367
3 1354 1368 1367
3 1354 1355 1368
3 1355 1369 1368
3 1355 1356 1369
3 1356 1370 1369
3 1356 1357 1370
3 1357 1371 1370
3 1357 1358 1371
3 1358 1372 1371
3 1358 1359 1372
3 1359 1373 1372
3 1359 1360 1373
3 1362 1363 1374
3 1363 1375 1374
3 1363 1364 1375
3 1364 1376 1375
3 1364 1365 1376
3 1365 1377 1376
3 1365 1366 1377
3 1366 1367 1377
3 1377 1367 1378
3 1367 1368 1378
3 1378 1368 1379
3 1368 1380 1379
3 1368 1369 1380
3 1369 1381 1380
3 1369 1370 1381
3 1370 1382 1381
3 1370 1371 1382
3 1371 1372 1382
3 1382 1372 1383
3 1372 1384 1383
3 1372 1373 1384
3 1377 1378 1385
3 1378 1379 1386
3 1386 1379 1387
3 1379 1388 1387
3 1379 1380 1388
3 1380 1389 1388
3 1380 1381 1389
3 1381 1390 1389
3 1381 1382 1390
3 1382 1383 1390
3 1390 1383 1391
3 1383 1384 1391
3 1391 1384 1392
CELL_DATA 2624
SCALARS brightness_temperature float
LOOKUP_TABLE default
POINT_DATA 1393
CELL_DATA 2624
SCALARS emission_angle float
LOOKUP_TABLE default
POINT_DATA 1393
CELL_DATA 2624
SCALARS incidence_angle float
LOOKUP_TABLE default
POINT_DATA 1393
CELL_DATA 2624
SCALARS phase_angle float
LOOKUP_TABLE default
POINT_DATA 1393
CELL_DATA 2624
SCALARS local_solar_time float
LOOKUP_TABLE default
POINT_DATA 1393
CELL_DATA 2624
SCALARS local_solar_time_normal_vector float
LOOKUP_TABLE default
CELL_DATA 2624
SCALARS pixel_x float
LOOKUP_TABLE default
POINT_DATA 1393
CELL_DATA 2624
SCALARS pixel_y float
LOOKUP_TABLE default
POINT_DATA 1393
CELL_DATA 2624
SCALARS longitude float
LOOKUP_TABLE default
POINT_DATA 1393
CELL_DATA 2624
SCALARS latitude float
LOOKUP_TABLE default
