# vtk DataFile Version 3.0
SHAPE_sfm_50k_v20200323
ASCII
DATASET POLYDATA
POINTS 1544 float
-0.34128 0.27067 0.16456
-0.34316 0.27195 0.16348
-0.34241 0.26833 0.16448
-0.34426 0.26957 0.1633
-0.34508 0.27334 0.16262
-0.34615 0.27092 0.16231
-0.34704 0.27478 0.16165
-0.34808 0.27224 0.1612
-0.34859 0.27591 0.15965
-0.34976 0.27334 0.1594
-0.34213 0.26484 0.16573
-0.34366 0.26608 0.16415
-0.34547 0.26729 0.16286
-0.34723 0.26861 0.1616
-0.34884 0.26992 0.16011
-0.35018 0.27092 0.15818
-0.35015 0.27385 0.1568
-0.35114 0.27155 0.15592
-0.35078 0.27436 0.15441
-0.35217 0.27221 0.15371
-0.34367 0.2628 0.1653
-0.34516 0.26401 0.16366
-0.34689 0.2652 0.16225
-0.34851 0.2665 0.16077
-0.34992 0.26776 0.15907
-0.35135 0.26877 0.15724
-0.35259 0.26947 0.15514
-0.35373 0.2702 0.15299
-0.3533 0.2729 0.15155
-0.35503 0.27098 0.15096
-0.35457 0.27371 0.14951
-0.35642 0.27187 0.14903
-0.35566 0.27445 0.14734
-0.35749 0.27259 0.14684
-0.34363 0.25956 0.16645
-0.34521 0.26076 0.16485
-0.34679 0.26201 0.16331
-0.34846 0.26317 0.16179
-0.35009 0.26447 0.16033
-0.35156 0.26575 0.15866
-0.3529 0.26671 0.15673
-0.35416 0.26741 0.15462
-0.35534 0.26814 0.15249
-0.35675 0.269 0.15055
-0.35817 0.26992 0.14865
-0.35941 0.27077 0.14658
-0.35865 0.27326 0.14469
-0.36049 0.27137 0.14436
-0.36005 0.27398 0.1427
-0.36171 0.27194 0.1422
-0.36143 0.27469 0.14068
-0.36318 0.27272 0.14026
-0.3625 0.27522 0.13843
-0.36441 0.27337 0.13813
-0.3451 0.25745 0.16628
-0.34666 0.25863 0.16464
-0.34825 0.25987 0.16309
-0.34993 0.26103 0.16156
-0.3516 0.26233 0.16013
-0.35322 0.26369 0.15865
-0.35453 0.26464 0.15665
-0.35574 0.26529 0.15449
-0.35714 0.26619 0.15255
-0.35857 0.26708 0.15064
-0.35996 0.26796 0.14868
-0.36113 0.26875 0.14656
-0.36221 0.26934 0.14431
-0.36361 0.27007 0.14232
-0.36502 0.27079 0.14032
-0.36657 0.27181 0.13858
-0.36797 0.27292 0.13672
-0.36569 0.27426 0.13613
-0.36926 0.27366 0.1346
-0.36711 0.27526 0.13426
-0.37032 0.27435 0.13236
-0.3437 0.25638 0.16812
-0.34652 0.2553 0.16634
-0.34502 0.25419 0.16809
-0.34802 0.25642 0.16459
-0.34967 0.25768 0.16309
-0.35135 0.25883 0.16153
-0.35288 0.26004 0.15989
-0.35445 0.26136 0.15836
-0.35602 0.26245 0.15666
-0.35746 0.26328 0.15471
-0.35898 0.26434 0.15294
-0.36049 0.26531 0.15111
-0.36169 0.26597 0.14893
-0.3628 0.26668 0.14674
-0.36399 0.26737 0.14458
-0.36518 0.2679 0.14238
-0.36662 0.26864 0.14039
-0.36832 0.26976 0.13881
-0.36999 0.27112 0.13728
-0.37116 0.27175 0.13498
-0.37197 0.27221 0.13258
-0.37304 0.27297 0.13038
-0.37127 0.275 0.13007
-0.37399 0.27365 0.12809
-0.37214 0.27562 0.12774
-0.37477 0.27415 0.12569
-0.34795 0.25317 0.16651
-0.34644 0.25207 0.16826
-0.34954 0.25433 0.16487
-0.35116 0.25556 0.16329
-0.3527 0.25659 0.16151
-0.3542 0.25778 0.1598
-0.35584 0.25912 0.15835
-0.35755 0.2603 0.15686
-0.35929 0.26148 0.15537
-0.36082 0.26255 0.15361
-0.36229 0.26346 0.15169
-0.3634 0.26401 0.14943
-0.36442 0.26463 0.14716
-0.36557 0.26527 0.14496
-0.36682 0.26584 0.14279
-0.36814 0.26646 0.14066
-0.36976 0.26749 0.13894
-0.37142 0.26876 0.13739
-0.37274 0.26954 0.13527
-0.37362 0.27009 0.1329
-0.37469 0.27082 0.13069
-0.37564 0.27149 0.12839
-0.3765 0.27204 0.12603
-0.37742 0.27274 0.12375
-0.3755 0.27465 0.1233
-0.37855 0.27347 0.12155
-0.37655 0.27536 0.12108
-0.37933 0.27399 0.11914
-0.34951 0.25113 0.16661
-0.34798 0.25004 0.16837
-0.35109 0.25225 0.16491
-0.35269 0.25346 0.1633
-0.35436 0.2546 0.16171
-0.35592 0.25581 0.16005
-0.35751 0.2571 0.15849
-0.35931 0.25836 0.15717
-0.3612 0.25974 0.15604
-0.36291 0.26106 0.15449
-0.36407 0.26153 0.15217
-0.36513 0.26204 0.14987
-0.36626 0.26277 0.14767
-0.36731 0.2633 0.14538
-0.36854 0.26384 0.14318
-0.36994 0.26452 0.14113
-0.37145 0.26542 0.13925
-0.37283 0.26645 0.13732
-0.37401 0.26714 0.13511
-0.37511 0.26782 0.13287
-0.37621 0.26857 0.13066
-0.37716 0.26922 0.12835
-0.37815 0.26985 0.12606
-0.37916 0.27059 0.12381
-0.38011 0.27117 0.12147
-0.38091 0.27172 0.11909
-0.38015 0.27444 0.11675
-0.38201 0.2724 0.11688
-0.38114 0.27493 0.11444
-0.38324 0.27315 0.11476
-0.38457 0.27402 0.11272
-0.38242 0.27573 0.11237
-0.38568 0.27481 0.1105
-0.34963 0.24808 0.16835
-0.35124 0.24922 0.16667
-0.35284 0.25034 0.16498
-0.35458 0.25171 0.16364
-0.35633 0.25297 0.16222
-0.3579 0.25416 0.16053
-0.35947 0.25536 0.15886
-0.36124 0.25656 0.15742
-0.36313 0.2579 0.15622
-0.36485 0.25916 0.15456
-0.36576 0.25948 0.15206
-0.36684 0.26 0.14977
-0.3681 0.26084 0.14766
-0.36915 0.26137 0.14536
-0.3705 0.26203 0.14326
-0.37189 0.26269 0.14118
-0.37315 0.26336 0.13902
-0.37413 0.26415 0.13676
-0.37539 0.26489 0.13463
-0.37668 0.26566 0.13252
-0.37787 0.26646 0.13035
-0.37881 0.2671 0.12801
-0.37973 0.26767 0.12567
-0.38069 0.26836 0.12337
-0.38185 0.2691 0.12118
-0.38274 0.2697 0.11884
-0.38403 0.27055 0.11679
-0.38553 0.2716 0.11497
-0.38693 0.27257 0.11297
-0.38779 0.27298 0.11052
-0.38655 0.27529 0.10811
-0.38845 0.27323 0.10803
-0.38739 0.27597 0.10578
-0.38922 0.27384 0.10565
-0.38844 0.27675 0.10358
-0.39024 0.27459 0.10341
-0.34811 0.24703 0.17015
-0.34978 0.24511 0.17019
-0.35139 0.24623 0.16849
-0.35307 0.24743 0.16692
-0.35477 0.24865 0.16539
-0.35654 0.2501 0.16418
-0.35835 0.25149 0.16292
-0.35995 0.25274 0.16129
-0.3615 0.25381 0.15949
-0.36315 0.25475 0.15773
-0.3647 0.25574 0.15591
-0.3661 0.25679 0.15401
-0.36748 0.25747 0.15192
-0.36877 0.25818 0.14978
-0.36987 0.25887 0.14754
-0.37104 0.2595 0.14531
-0.37242 0.26018 0.14322
-0.37383 0.26084 0.14113
-0.37495 0.26138 0.13885
-0.37587 0.26212 0.13654
-0.37709 0.26283 0.13437
-0.37835 0.26357 0.13223
-0.37954 0.26437 0.13005
-0.38056 0.26506 0.12775
-0.38144 0.26559 0.12537
-0.38251 0.26637 0.12314
-0.38365 0.26708 0.12092
-0.38474 0.26783 0.11871
-0.38617 0.2688 0.11685
-0.38799 0.27022 0.11552
-0.38973 0.27143 0.1135
-0.39021 0.2714 0.11068
-0.39041 0.27122 0.10807
-0.39103 0.2717 0.10562
-0.39209 0.27249 0.1034
-0.39139 0.27529 0.10121
-0.39329 0.27322 0.10123
-0.39257 0.27596 0.099
-0.39454 0.27391 0.09905
-0.35307 0.24433 0.16887
-0.35135 0.24312 0.17041
-0.35483 0.24564 0.16748
-0.35663 0.24707 0.16627
-0.35843 0.24864 0.16522
-0.36026 0.25017 0.16412
-0.36193 0.25162 0.16265
-0.36354 0.25264 0.16076
-0.36494 0.25298 0.15855
-0.36635 0.25375 0.15651
-0.36766 0.2547 0.15446
-0.36901 0.25534 0.15233
-0.37044 0.25619 0.15032
-0.37162 0.25696 0.14812
-0.37288 0.25769 0.14595
-0.3741 0.25818 0.14371
-0.3755 0.25879 0.14158
-0.3765 0.25922 0.13919
-0.3773 0.25987 0.1368
-0.37853 0.26058 0.13462
-0.37979 0.26132 0.13247
-0.38103 0.26215 0.13032
-0.3821 0.26287 0.12805
-0.38324 0.2636 0.12583
-0.38426 0.26431 0.12354
-0.38531 0.26492 0.12125
-0.38659 0.26585 0.11921
-0.38804 0.2668 0.11731
-0.38975 0.26789 0.11562
-0.39144 0.26882 0.11352
-0.39166 0.26889 0.11071
-0.39208 0.26897 0.10813
-0.39289 0.26961 0.10576
-0.39394 0.27039 0.10352
-0.39506 0.27103 0.10126
-0.35443 0.24223 0.16939
-0.35272 0.24105 0.17098
-0.35628 0.24365 0.16822
-0.35815 0.2452 0.16726
-0.35998 0.24686 0.16638
-0.36185 0.24846 0.16539
-0.36357 0.24997 0.16398
-0.36527 0.25112 0.16216
-0.36651 0.2512 0.15974
-0.36766 0.25164 0.15743
-0.36877 0.25239 0.15518
-0.37012 0.25304 0.15303
-0.37165 0.25396 0.15111
-0.37311 0.25497 0.14915
-0.37434 0.25562 0.14691
-0.37545 0.25601 0.14456
-0.37657 0.2564 0.14223
-0.37758 0.25686 0.13986
-0.37864 0.2577 0.13762
-0.37994 0.25848 0.13549
-0.38126 0.25926 0.13337
-0.38252 0.26007 0.1312
-0.38357 0.26073 0.12889
-0.38462 0.26135 0.12659
-0.38573 0.26211 0.12433
-0.38668 0.26264 0.12196
-0.38793 0.26349 0.11986
-0.38939 0.26437 0.11786
-0.39038 0.2651 0.11552
-0.39169 0.26588 0.11338
-0.39267 0.26629 0.11096
-0.3936 0.26666 0.10855
-0.39457 0.26742 0.10626
-0.39574 0.26832 0.10409
-0.39683 0.26893 0.10177
-0.3557 0.24009 0.17
-0.35399 0.23895 0.17165
-0.35758 0.24149 0.1688
-0.35949 0.24306 0.16791
-0.36136 0.24472 0.16711
-0.36327 0.24636 0.16625
-0.36505 0.24797 0.16501
-0.36679 0.24916 0.16321
-0.36808 0.24936 0.16082
-0.36892 0.24948 0.1583
-0.36998 0.25019 0.156
-0.37137 0.25085 0.15387
-0.37264 0.25155 0.15168
-0.37397 0.25244 0.14958
-0.37514 0.25306 0.1473
-0.37622 0.25345 0.14493
-0.37735 0.25385 0.1426
-0.37863 0.25445 0.14039
-0.38009 0.25558 0.13852
-0.38175 0.25669 0.13672
-0.38308 0.25737 0.13445
-0.38379 0.25773 0.1319
-0.38474 0.25832 0.12953
-0.38574 0.25891 0.12717
-0.38674 0.25958 0.12484
-0.38768 0.26011 0.12244
-0.38867 0.26081 0.12011
-0.38991 0.2616 0.11794
-0.39125 0.2625 0.11586
-0.39265 0.26332 0.11378
-0.39393 0.26387 0.11153
-0.39489 0.26424 0.1091
-0.396 0.26508 0.10689
-0.39741 0.26618 0.10494
-0.39864 0.26692 0.10264
-0.35704 0.23807 0.17083
-0.35536 0.237 0.17258
-0.35888 0.23936 0.16944
-0.36078 0.24084 0.16838
-0.36267 0.24247 0.16753
-0.36462 0.24412 0.16679
-0.36648 0.2458 0.16578
-0.36837 0.24718 0.16421
-0.36984 0.24754 0.16182
-0.3704 0.24743 0.15918
-0.37108 0.24787 0.15667
-0.37223 0.24838 0.15435
-0.3735 0.24909 0.15215
-0.37462 0.24988 0.14989
-0.37566 0.25045 0.14753
-0.37675 0.25085 0.14516
-0.37797 0.25126 0.14286
-0.37917 0.25183 0.14057
-0.3806 0.2529 0.13864
-0.38244 0.25393 0.13697
-0.38367 0.2546 0.13467
-0.38454 0.25512 0.13222
-0.38558 0.25574 0.12988
-0.38669 0.25637 0.12757
-0.38762 0.25701 0.12518
-0.38866 0.25759 0.12283
-0.38966 0.25828 0.12049
-0.39084 0.25902 0.11825
-0.39237 0.26001 0.11633
-0.39378 0.26082 0.11424
-0.39514 0.2614 0.11204
-0.39625 0.26186 0.10968
-0.39729 0.26264 0.10739
-0.39867 0.26368 0.1054
-0.40023 0.26464 0.10337
-0.3583 0.23623 0.17212
-0.35667 0.23529 0.17396
-0.35994 0.23716 0.17027
-0.3617 0.23846 0.16881
-0.36354 0.24001 0.16773
-0.36552 0.24161 0.167
-0.36747 0.24327 0.16617
-0.36952 0.24465 0.1648
-0.3709 0.24502 0.16234
-0.37129 0.24497 0.15962
-0.37202 0.24543 0.15712
-0.37305 0.24589 0.15471
-0.37431 0.24658 0.15249
-0.37532 0.24733 0.15016
-0.37626 0.24787 0.14775
-0.37713 0.24822 0.14527
-0.3783 0.24861 0.14293
-0.37936 0.24916 0.14057
-0.38063 0.25021 0.13848
-0.38222 0.25118 0.1366
-0.38387 0.25189 0.13465
-0.38518 0.2525 0.13243
-0.38633 0.25315 0.13014
-0.38746 0.25377 0.12783
-0.38849 0.25444 0.12549
-0.38963 0.25506 0.1232
-0.39085 0.25586 0.121
-0.39214 0.25666 0.11884
-0.39345 0.2575 0.1167
-0.39484 0.25828 0.1146
-0.39624 0.25887 0.11243
-0.39758 0.25947 0.11024
-0.39872 0.26032 0.10802
-0.40011 0.26135 0.106
-0.40152 0.26217 0.10386
-0.35938 0.23405 0.17296
-0.35782 0.23323 0.17493
-0.36098 0.23494 0.17106
-0.36261 0.23609 0.16934
-0.36424 0.2375 0.16782
-0.3661 0.23903 0.16673
-0.36808 0.24064 0.16586
-0.36993 0.24191 0.1643
-0.37103 0.24231 0.16183
-0.37195 0.24242 0.15934
-0.37301 0.24299 0.15698
-0.37407 0.24345 0.1546
-0.37524 0.24411 0.15232
-0.37627 0.24485 0.15
-0.37702 0.24533 0.1475
-0.37785 0.24566 0.14501
-0.37882 0.24601 0.14256
-0.37999 0.24656 0.14024
-0.38144 0.24764 0.13829
-0.38299 0.24861 0.13638
-0.38448 0.24929 0.1343
-0.38599 0.24992 0.13222
-0.38737 0.25064 0.13006
-0.38856 0.25128 0.12778
-0.38955 0.25192 0.12541
-0.39076 0.25256 0.12315
-0.39237 0.25357 0.1213
-0.39379 0.25448 0.11925
-0.39501 0.25524 0.11701
-0.39635 0.25597 0.11486
-0.39778 0.25657 0.11271
-0.39921 0.25724 0.11059
-0.40072 0.25844 0.10873
-0.4019 0.25922 0.10644
-0.40302 0.2598 0.10409
-0.3607 0.23188 0.17335
-0.35911 0.23105 0.1753
-0.36227 0.23273 0.1714
-0.36381 0.23379 0.16953
-0.36533 0.23513 0.16783
-0.36687 0.23658 0.16622
-0.36855 0.23819 0.16494
-0.37008 0.23945 0.16318
-0.37155 0.23984 0.16101
-0.37292 0.24002 0.15876
-0.3741 0.24063 0.15647
-0.37526 0.24113 0.15415
-0.37625 0.24172 0.15176
-0.37713 0.24242 0.14937
-0.37788 0.2429 0.14687
-0.37868 0.24321 0.14436
-0.37974 0.24357 0.14194
-0.38116 0.24419 0.13978
-0.38255 0.24525 0.13778
-0.38401 0.24619 0.13578
-0.38537 0.24683 0.13359
-0.3869 0.24747 0.13152
-0.38835 0.24819 0.12943
-0.38963 0.24884 0.12719
-0.3908 0.24955 0.12492
-0.39212 0.25022 0.12272
-0.39363 0.25115 0.12075
-0.3954 0.25224 0.11909
-0.397 0.25334 0.11727
-0.39838 0.25409 0.11512
-0.39992 0.25486 0.1131
-0.40131 0.25544 0.11091
-0.40263 0.25637 0.10878
-0.40358 0.25695 0.10635
-0.35859 0.22803 0.17705
-0.36034 0.22882 0.17521
-0.36196 0.22964 0.17328
-0.36355 0.23049 0.17133
-0.36513 0.23156 0.16948
-0.36674 0.23295 0.16789
-0.36818 0.23432 0.16611
-0.36957 0.23584 0.16444
-0.37097 0.23706 0.16255
-0.37251 0.23745 0.16041
-0.37397 0.23764 0.15822
-0.37513 0.23825 0.15592
-0.37621 0.23873 0.15354
-0.3772 0.23932 0.15115
-0.37804 0.24 0.14873
-0.37888 0.2405 0.14627
-0.37963 0.24079 0.14373
-0.38071 0.24116 0.1413
-0.38222 0.2418 0.13919
-0.38364 0.24286 0.13722
-0.38502 0.24378 0.13514
-0.3865 0.24445 0.13305
-0.38811 0.2451 0.13103
-0.38946 0.24578 0.12885
-0.39084 0.24646 0.12668
-0.39203 0.24716 0.12441
-0.39354 0.24791 0.12235
-0.39518 0.24889 0.12051
-0.39716 0.25012 0.11922
-0.39901 0.25149 0.11782
-0.40065 0.25261 0.11597
-0.40225 0.25338 0.11388
-0.4034 0.25363 0.11144
-0.40441 0.25422 0.10905
-0.40529 0.25474 0.10659
-0.36118 0.22641 0.17523
-0.35955 0.22568 0.17721
-0.36286 0.22724 0.17334
-0.36461 0.22816 0.17155
-0.36627 0.22926 0.16979
-0.36784 0.23059 0.1681
-0.36934 0.23198 0.16638
-0.37051 0.2334 0.16444
-0.37183 0.23457 0.16246
-0.37336 0.23495 0.16031
-0.37481 0.23513 0.15809
-0.37607 0.23577 0.15584
-0.3771 0.23624 0.15343
-0.37799 0.23679 0.15099
-0.37883 0.23748 0.14856
-0.37969 0.23798 0.14609
-0.38058 0.23831 0.1436
-0.38157 0.23863 0.14113
-0.38299 0.23925 0.13894
-0.38447 0.24032 0.137
-0.38587 0.24124 0.13494
-0.38749 0.24194 0.13294
-0.38913 0.24261 0.13095
-0.39052 0.24329 0.12878
-0.39194 0.24398 0.12664
-0.39327 0.24473 0.12446
-0.39482 0.24549 0.12244
-0.39652 0.24649 0.12066
-0.39853 0.24774 0.11943
-0.40056 0.24918 0.11836
-0.40248 0.25042 0.11674
-0.40395 0.25107 0.11451
-0.40524 0.25155 0.11215
-0.40596 0.25192 0.10957
-0.36185 0.22396 0.17543
-0.36021 0.22323 0.17743
-0.36367 0.22484 0.17369
-0.36559 0.22584 0.17214
-0.36715 0.22685 0.17022
-0.36855 0.22809 0.16831
-0.36996 0.22943 0.16648
-0.37118 0.23086 0.16459
-0.37252 0.23203 0.16261
-0.37409 0.23241 0.16049
-0.37554 0.23259 0.15827
-0.37684 0.23324 0.15604
-0.37786 0.2337 0.15361
-0.37863 0.23422 0.15112
-0.37949 0.2349 0.14869
-0.38039 0.23541 0.14623
-0.38134 0.23576 0.14376
-0.38243 0.23609 0.14134
-0.38381 0.23669 0.13912
-0.38525 0.23776 0.13715
-0.38661 0.23865 0.13503
-0.38826 0.23936 0.13307
-0.38994 0.24003 0.1311
-0.3913 0.24069 0.1289
-0.39285 0.24142 0.12686
-0.39434 0.24225 0.12482
-0.39593 0.24301 0.12282
-0.3977 0.24405 0.12112
-0.39975 0.2453 0.11994
-0.40168 0.24657 0.11851
-0.40312 0.24755 0.11645
-0.40494 0.24836 0.11466
-0.4067 0.24907 0.11263
-0.40738 0.2495 0.10998
-0.36075 0.22075 0.17721
-0.36268 0.22155 0.17555
-0.36463 0.22249 0.17398
-0.36656 0.22347 0.17241
-0.36823 0.22453 0.17062
-0.36957 0.22571 0.16863
-0.37074 0.22694 0.16655
-0.3719 0.22834 0.1646
-0.37329 0.2295 0.16265
-0.37487 0.22988 0.16053
-0.37636 0.23007 0.15833
-0.3776 0.2307 0.15605
-0.37846 0.23112 0.15355
-0.37933 0.23166 0.15109
-0.38022 0.23235 0.14867
-0.38114 0.23286 0.14622
-0.38219 0.23323 0.14378
-0.38338 0.2336 0.14141
-0.38481 0.2342 0.13923
-0.38605 0.23519 0.13708
-0.38754 0.23612 0.13507
-0.38925 0.23685 0.13315
-0.39077 0.23746 0.13104
-0.39221 0.23814 0.12889
-0.39388 0.23891 0.12696
-0.39565 0.23987 0.12521
-0.39742 0.24077 0.12342
-0.39905 0.24168 0.12152
-0.40093 0.24276 0.11996
-0.40266 0.24394 0.11827
-0.40412 0.24494 0.11627
-0.40587 0.2457 0.1144
-0.40756 0.24635 0.11236
-0.40855 0.24693 0.1099
-0.36368 0.21923 0.17586
-0.36164 0.21839 0.17739
-0.3656 0.22013 0.17423
-0.3675 0.22107 0.17259
-0.36926 0.22216 0.17089
-0.37063 0.22335 0.16891
-0.37171 0.22451 0.16674
-0.37285 0.22589 0.16474
-0.37413 0.227 0.16269
-0.3757 0.22736 0.16056
-0.37724 0.22757 0.15838
-0.37826 0.22812 0.15597
-0.37924 0.22858 0.15352
-0.38017 0.22914 0.15107
-0.38102 0.22981 0.14863
-0.38195 0.23032 0.14617
-0.38308 0.23072 0.14376
-0.38431 0.23109 0.14141
-0.38567 0.23167 0.13917
-0.387 0.23268 0.13707
-0.38857 0.23363 0.13512
-0.39015 0.23431 0.13307
-0.39156 0.23487 0.13086
-0.39315 0.23559 0.12882
-0.39492 0.23639 0.12697
-0.39686 0.23741 0.12542
-0.39869 0.2383 0.12365
-0.40015 0.23915 0.12155
-0.40167 0.2401 0.11957
-0.40337 0.24129 0.11786
-0.40487 0.24228 0.11588
-0.40663 0.24303 0.11402
-0.40853 0.24374 0.1122
-0.40973 0.24439 0.10985
-0.36296 0.21625 0.17773
-0.36497 0.21705 0.17612
-0.36687 0.21792 0.17442
-0.36874 0.21882 0.17272
-0.37047 0.21987 0.17095
-0.37193 0.22111 0.16908
-0.37303 0.22225 0.1669
-0.37401 0.22353 0.16475
-0.3752 0.22458 0.16259
-0.37679 0.22495 0.16047
-0.3783 0.22515 0.15826
-0.37922 0.22566 0.15579
-0.38019 0.22611 0.15333
-0.38109 0.22666 0.15086
-0.38193 0.22732 0.1484
-0.38286 0.22783 0.14592
-0.38407 0.22825 0.14355
-0.38524 0.22859 0.14115
-0.3867 0.22919 0.13894
-0.38818 0.23026 0.13698
-0.38964 0.23117 0.13491
-0.39118 0.23182 0.13282
-0.3927 0.23241 0.13067
-0.39435 0.23315 0.12867
-0.39617 0.23397 0.12687
-0.39791 0.2349 0.12505
-0.39955 0.23572 0.12308
-0.40116 0.23662 0.12113
-0.4028 0.23761 0.11925
-0.4044 0.23876 0.11741
-0.40605 0.23978 0.11558
-0.40791 0.24057 0.1138
-0.40969 0.24124 0.11188
-0.36437 0.21412 0.17778
-0.36638 0.21493 0.17616
-0.36835 0.21584 0.17455
-0.37033 0.21681 0.173
-0.37217 0.21794 0.17136
-0.37352 0.21905 0.16927
-0.37458 0.22015 0.16704
-0.37549 0.22136 0.16481
-0.37657 0.22233 0.16254
-0.37809 0.22265 0.16034
-0.37949 0.22279 0.15805
-0.3803 0.22325 0.15552
-0.38114 0.22364 0.15298
-0.38209 0.22422 0.15053
-0.38275 0.22481 0.14798
-0.38378 0.22535 0.14551
-0.38522 0.22585 0.14327
-0.38655 0.22625 0.14096
-0.38802 0.22686 0.13876
-0.38958 0.22797 0.13685
-0.39118 0.22895 0.13491
-0.39267 0.22957 0.13275
-0.39426 0.23019 0.13065
-0.39591 0.23093 0.12865
-0.39764 0.23168 0.12672
-0.39929 0.23256 0.12478
-0.40093 0.23337 0.1228
-0.40252 0.23425 0.12081
-0.40414 0.23522 0.11888
-0.40586 0.23642 0.11718
-0.40764 0.2375 0.11547
-0.40952 0.23831 0.1137
-0.41135 0.239 0.11179
-0.36318 0.21123 0.17915
-0.36543 0.21181 0.17777
-0.36753 0.21266 0.17629
-0.36955 0.21359 0.17475
-0.37164 0.21461 0.17336
-0.37357 0.21575 0.17178
-0.37487 0.21683 0.16962
-0.37589 0.21791 0.16734
-0.3768 0.2191 0.16509
-0.37784 0.22002 0.16277
-0.37924 0.22027 0.16048
-0.38053 0.22036 0.15812
-0.38141 0.22083 0.15561
-0.38232 0.22125 0.1531
-0.38311 0.22176 0.15056
-0.38384 0.22237 0.14802
-0.3849 0.22291 0.14556
-0.38638 0.22345 0.14335
-0.38768 0.22383 0.14101
-0.38913 0.22442 0.13879
-0.39061 0.22549 0.13676
-0.39233 0.22651 0.13494
-0.39406 0.22726 0.133
-0.39574 0.22795 0.131
-0.39738 0.22867 0.12898
-0.39902 0.22934 0.12693
-0.40067 0.23021 0.12497
-0.40228 0.23098 0.12295
-0.40379 0.23181 0.12086
-0.4055 0.23282 0.11901
-0.40727 0.23404 0.11736
-0.40914 0.23518 0.11578
-0.41106 0.236 0.11403
-0.41262 0.23651 0.11185
-0.36414 0.20893 0.17952
-0.36633 0.20946 0.17802
-0.36847 0.21032 0.17661
-0.37055 0.21127 0.17516
-0.37258 0.21222 0.17363
-0.37439 0.21326 0.17188
-0.37584 0.21442 0.16988
-0.37693 0.21553 0.16765
-0.37794 0.21677 0.16546
-0.379 0.21768 0.16314
-0.38035 0.21789 0.16082
-0.38162 0.21796 0.15844
-0.38254 0.21845 0.15594
-0.38347 0.21888 0.15344
-0.38425 0.21937 0.15089
-0.38508 0.22003 0.14839
-0.38608 0.22053 0.14591
-0.38735 0.22097 0.14355
-0.38872 0.22137 0.14123
-0.39022 0.22197 0.13904
-0.39165 0.22301 0.13696
-0.39339 0.22404 0.13515
-0.39521 0.22484 0.13331
-0.39699 0.22558 0.13141
-0.39868 0.22633 0.12943
-0.40038 0.22704 0.12744
-0.40204 0.2279 0.12548
-0.4036 0.22863 0.1234
-0.405 0.22935 0.12117
-0.4069 0.2305 0.11958
-0.40868 0.23172 0.11794
-0.41049 0.23278 0.11623
-0.41231 0.23352 0.11435
-0.41389 0.23404 0.1122
-0.36714 0.20713 0.17861
-0.36495 0.20662 0.18011
-0.3693 0.208 0.17721
-0.37134 0.20889 0.17565
-0.37326 0.20976 0.17395
-0.37502 0.21076 0.17216
-0.37657 0.21195 0.17027
-0.37786 0.21315 0.16819
-0.37885 0.21435 0.16595
-0.37999 0.2153 0.16369
-0.3814 0.21553 0.1614
-0.38273 0.21562 0.15905
-0.38372 0.21616 0.15659
-0.38462 0.21657 0.15406
-0.3855 0.21712 0.15156
-0.38629 0.21775 0.14904
-0.3872 0.21818 0.14651
-0.38846 0.2186 0.14414
-0.38982 0.21898 0.14181
-0.39124 0.21954 0.13955
-0.3927 0.22057 0.13749
-0.39446 0.22163 0.1357
-0.39628 0.22243 0.13386
-0.39811 0.2232 0.13202
-0.39983 0.22395 0.13006
-0.40155 0.22467 0.1281
-0.40319 0.22551 0.1261
-0.40475 0.22621 0.124
-0.4062 0.22695 0.12182
-0.40806 0.22807 0.12017
-0.40993 0.22934 0.11865
-0.41169 0.23034 0.11685
-0.41355 0.23111 0.11502
-0.4153 0.23175 0.11302
-0.36792 0.2049 0.17954
-0.3657 0.20439 0.181
-0.37007 0.20576 0.17812
-0.37199 0.20652 0.17636
-0.37387 0.20735 0.1746
-0.3756 0.20831 0.17276
-0.37717 0.20949 0.17089
-0.37851 0.2107 0.16885
-0.37968 0.212 0.16677
-0.38093 0.21299 0.16457
-0.38236 0.21322 0.16229
-0.38381 0.21341 0.16003
-0.38483 0.21396 0.15758
-0.38576 0.21439 0.15508
-0.38657 0.21489 0.15254
-0.38732 0.21548 0.14999
-0.38823 0.2159 0.14746
-0.38952 0.21633 0.14509
-0.39083 0.21668 0.14274
-0.39218 0.21716 0.14042
-0.39366 0.21821 0.13836
-0.39549 0.21934 0.13668
-0.39721 0.22004 0.1347
-0.39901 0.22078 0.13282
-0.40075 0.22154 0.13089
-0.40248 0.22225 0.12893
-0.40412 0.22307 0.12693
-0.40571 0.22379 0.12485
-0.40723 0.22459 0.12276
-0.40886 0.22551 0.12079
-0.41064 0.22668 0.11911
-0.41254 0.22776 0.11751
-0.41443 0.22855 0.11573
-0.41611 0.22913 0.11366
-0.36897 0.20286 0.18062
-0.37113 0.20371 0.17918
-0.37296 0.20433 0.17725
-0.37479 0.20509 0.17541
-0.37648 0.20599 0.17351
-0.37799 0.20711 0.17154
-0.37946 0.2084 0.16965
-0.38068 0.20972 0.16761
-0.382 0.21076 0.16548
-0.38351 0.21103 0.16326
-0.38495 0.21121 0.16099
-0.38598 0.21176 0.15855
-0.38691 0.2122 0.15605
-0.38771 0.21269 0.15351
-0.38841 0.21323 0.15094
-0.38943 0.21373 0.14845
-0.39073 0.21417 0.1461
-0.39196 0.21443 0.14369
-0.39335 0.21494 0.1414
-0.39475 0.21592 0.13927
-0.39652 0.21699 0.13749
-0.39823 0.21766 0.13549
-0.39985 0.21827 0.13339
-0.40167 0.21907 0.13155
-0.40345 0.21981 0.12964
-0.40513 0.22065 0.12769
-0.40676 0.22139 0.12565
-0.40825 0.22215 0.12351
-0.40976 0.22297 0.12141
-0.4114 0.22403 0.11951
-0.41338 0.22516 0.11803
-0.41545 0.22608 0.11652
-0.41721 0.22671 0.11454
-0.36671 0.2023 0.182
-0.37004 0.20079 0.18162
-0.37217 0.20157 0.18012
-0.37405 0.20226 0.17828
-0.3759 0.20302 0.17644
-0.37756 0.20385 0.17448
-0.37909 0.20497 0.17254
-0.38046 0.20613 0.17049
-0.3817 0.20746 0.16847
-0.38315 0.2086 0.16648
-0.3847 0.20889 0.16428
-0.38624 0.20916 0.16209
-0.38721 0.20967 0.15962
-0.38811 0.21007 0.1571
-0.38899 0.21062 0.1546
-0.38966 0.21113 0.15201
-0.39068 0.21162 0.14952
-0.39194 0.21203 0.14715
-0.39329 0.21239 0.14482
-0.39464 0.21285 0.1425
-0.39594 0.21373 0.14028
-0.39746 0.21456 0.1382
-0.39913 0.21521 0.13616
-0.40083 0.21586 0.13415
-0.40263 0.21665 0.13227
-0.40446 0.21741 0.13042
-0.4061 0.2182 0.12841
-0.40777 0.21896 0.12642
-0.40937 0.21979 0.12439
-0.41074 0.22049 0.12214
-0.41235 0.22151 0.12018
-0.41435 0.22264 0.11872
-0.41658 0.22368 0.11749
-0.41846 0.22439 0.1156
-0.37302 0.1994 0.18118
-0.37085 0.19857 0.18258
-0.37505 0.20027 0.17958
-0.37693 0.20105 0.17777
-0.37844 0.20168 0.17559
-0.37995 0.20274 0.1736
-0.3815 0.20412 0.17181
-0.38266 0.20531 0.16964
-0.38412 0.20644 0.16765
-0.38592 0.207 0.1657
-0.38735 0.20716 0.16343
-0.38829 0.20763 0.16093
-0.38931 0.20814 0.15847
-0.39012 0.20862 0.15594
-0.39087 0.20919 0.15338
-0.39186 0.20965 0.15088
-0.39312 0.21005 0.1485
-0.39446 0.21039 0.14617
-0.39563 0.21067 0.14373
-0.39696 0.21157 0.14152
-0.3984 0.2123 0.13933
-0.40005 0.21292 0.13727
-0.40172 0.21354 0.13522
-0.40351 0.21431 0.13333
-0.40534 0.21506 0.13149
-0.40698 0.21585 0.12948
-0.40863 0.21658 0.12745
-0.41019 0.21736 0.12538
-0.41158 0.21806 0.12315
-0.41314 0.21902 0.12112
-0.41509 0.22009 0.11957
-0.4171 0.22094 0.11796
-0.41895 0.22164 0.1161
-0.37393 0.19706 0.18174
-0.37178 0.19628 0.18322
-0.37603 0.19802 0.18033
-0.37802 0.19892 0.17872
-0.37957 0.19954 0.17656
-0.38107 0.20057 0.17454
-0.38255 0.20188 0.17267
-0.38383 0.20319 0.17067
-0.38526 0.20427 0.16863
-0.38713 0.20488 0.16675
-0.38866 0.20514 0.16453
-0.38961 0.20562 0.16203
-0.39063 0.20613 0.15958
-0.39147 0.20663 0.15705
-0.39225 0.20721 0.15451
-0.39335 0.2078 0.15209
-0.39458 0.20816 0.1497
-0.39583 0.2084 0.14731
-0.39711 0.20878 0.14495
-0.39823 0.20944 0.14256
-0.3997 0.21019 0.1404
-0.40133 0.21079 0.13832
-0.40298 0.21138 0.13625
-0.4047 0.21205 0.13426
-0.40647 0.21273 0.13232
-0.40809 0.21348 0.13028
-0.40971 0.21418 0.12823
-0.41128 0.21497 0.12617
-0.41279 0.21575 0.12405
-0.41435 0.21669 0.12204
-0.41623 0.21766 0.12034
-0.41791 0.21828 0.11829
-0.41974 0.21897 0.11642
-0.37553 0.19543 0.18289
-0.37333 0.1945 0.18419
-0.37764 0.19638 0.18147
-0.37956 0.19712 0.17967
-0.38128 0.19796 0.17774
-0.38271 0.19884 0.17561
-0.38397 0.19979 0.17339
-0.38521 0.20106 0.17133
-0.38659 0.20208 0.16923
-0.38815 0.20245 0.16704
-0.38971 0.20272 0.16485
-0.39098 0.20342 0.16255
-0.39209 0.204 0.16014
-0.39304 0.20459 0.15767
-0.39398 0.20533 0.15524
-0.3951 0.20594 0.15284
-0.39629 0.20627 0.15043
-0.3975 0.20644 0.148
-0.39879 0.20682 0.14564
-0.3998 0.20736 0.14316
-0.40122 0.20804 0.14094
-0.40294 0.20872 0.13895
-0.40461 0.20931 0.13688
-0.40622 0.20987 0.13477
-0.40784 0.2104 0.13266
-0.40935 0.21107 0.1305
-0.41094 0.21173 0.1284
-0.41274 0.21268 0.1266
-0.41461 0.2138 0.12494
-0.41596 0.21451 0.12264
-0.41751 0.21517 0.12051
-0.41923 0.21582 0.11852
-0.42095 0.21645 0.11652
-0.3771 0.1937 0.18402
-0.37492 0.19285 0.1854
-0.37922 0.1946 0.18254
-0.38121 0.19551 0.18091
-0.383 0.19652 0.17909
-0.38449 0.19745 0.17697
-0.38556 0.19801 0.17449
-0.38658 0.19897 0.17215
-0.38779 0.19982 0.16987
-0.38912 0.20003 0.16751
-0.39067 0.20029 0.16528
-0.39204 0.20104 0.16305
-0.39321 0.20165 0.16067
-0.39439 0.20242 0.15834
-0.39566 0.20348 0.15617
-0.39666 0.20396 0.15368
-0.39775 0.20418 0.1512
-0.39902 0.2044 0.1488
-0.40028 0.20473 0.14641
-0.40131 0.20528 0.14396
-0.40269 0.20591 0.14169
-0.4043 0.20648 0.13957
-0.40598 0.20706 0.13751
-0.40765 0.20766 0.13545
-0.40912 0.20806 0.13318
-0.4107 0.20876 0.13109
-0.41225 0.20938 0.12894
-0.41395 0.21024 0.12702
-0.41575 0.21126 0.12527
-0.41758 0.2124 0.12357
-0.41922 0.21312 0.12148
-0.42072 0.21354 0.11924
-0.4221 0.21393 0.11692
-0.37807 0.19132 0.1844
-0.3759 0.1905 0.18584
-0.38019 0.19221 0.18295
-0.38232 0.19324 0.1816
-0.38436 0.1945 0.18022
-0.38596 0.19555 0.17817
-0.38711 0.19624 0.17573
-0.38781 0.19687 0.17315
-0.38872 0.19747 0.17065
-0.38986 0.19758 0.16817
-0.39148 0.19786 0.16599
-0.39289 0.19863 0.16379
-0.39421 0.19934 0.16151
-0.39548 0.20018 0.15926
-0.39674 0.20122 0.15708
-0.39783 0.20177 0.15464
-0.39906 0.2021 0.15223
-0.40041 0.20238 0.14988
-0.40165 0.20269 0.14748
-0.40269 0.20323 0.14502
-0.4041 0.20389 0.14277
-0.4056 0.20432 0.14054
-0.40722 0.20484 0.13841
-0.40869 0.20525 0.13616
-0.41027 0.20572 0.13399
-0.41173 0.20633 0.13177
-0.41321 0.20689 0.12955
-0.41473 0.20762 0.12741
-0.41644 0.20857 0.12551
-0.41853 0.20981 0.12418
-0.42048 0.21067 0.12234
-0.42166 0.21094 0.11981
-0.42286 0.21127 0.11739
-0.37876 0.18887 0.18468
-0.3767 0.18814 0.18632
-0.38097 0.18982 0.18339
-0.38316 0.19084 0.18213
-0.38518 0.19198 0.18066
-0.3869 0.19305 0.17875
-0.3881 0.19379 0.17634
-0.38873 0.19448 0.17374
-0.38946 0.19499 0.17116
-0.39075 0.19515 0.16875
-0.39243 0.19547 0.16663
-0.39396 0.19633 0.16454
-0.39535 0.19709 0.16232
-0.39672 0.198 0.16015
-0.39781 0.1989 0.15781
-0.39883 0.19942 0.15534
-0.40013 0.19977 0.15296
-0.40181 0.20032 0.15087
-0.40328 0.20088 0.14863
-0.40421 0.20129 0.14609
-0.40559 0.2019 0.14381
-0.40687 0.2021 0.14141
-0.40832 0.20246 0.13912
-0.40986 0.20293 0.13693
-0.41152 0.20344 0.13482
-0.41279 0.2039 0.13245
-0.41439 0.20454 0.13034
-0.41589 0.20524 0.12819
-0.41751 0.20611 0.12618
-0.41923 0.20711 0.12432
-0.42098 0.20787 0.12235
-0.42224 0.20819 0.11993
-0.42357 0.20855 0.11757
-0.3791 0.18641 0.18532
-0.37711 0.18572 0.18705
-0.38122 0.18731 0.18384
-0.38336 0.18828 0.18247
-0.38532 0.18937 0.18092
-0.38684 0.19039 0.17888
-0.38794 0.19112 0.17649
-0.38894 0.19187 0.17408
-0.39001 0.19246 0.17163
-0.3915 0.19268 0.16932
-0.39341 0.19314 0.16743
-0.39502 0.19405 0.16542
-0.39622 0.1947 0.16306
-0.39748 0.19554 0.1608
-0.3985 0.1964 0.15842
-0.39974 0.19702 0.15607
-0.40116 0.19746 0.15378
-0.40289 0.19803 0.15174
-0.40463 0.19877 0.14975
-0.40563 0.19933 0.14726
-0.4069 0.1998 0.14489
-0.40824 0.20004 0.14253
-0.40944 0.2002 0.14009
-0.41081 0.20053 0.13777
-0.41239 0.20098 0.1356
-0.41385 0.20156 0.13339
-0.41533 0.2021 0.13117
-0.41682 0.20279 0.129
-0.41831 0.20356 0.12688
-0.42008 0.20456 0.12504
-0.42168 0.20521 0.12288
-0.42271 0.20547 0.12034
-0.42371 0.20575 0.11782
-0.37969 0.18413 0.18636
-0.37784 0.18358 0.18826
-0.38145 0.18479 0.18438
-0.38331 0.18569 0.18261
-0.38512 0.18676 0.18091
-0.38684 0.18779 0.17909
-0.38817 0.18854 0.17684
-0.38915 0.18926 0.1744
-0.3905 0.18991 0.1721
-0.39224 0.19024 0.17002
-0.39412 0.19068 0.16811
-0.39568 0.19154 0.16604
-0.39679 0.19218 0.16362
-0.39812 0.19304 0.16142
-0.39937 0.19401 0.15921
-0.40065 0.19466 0.15689
-0.40208 0.19511 0.15462
-0.40345 0.19548 0.1523
-0.40514 0.19614 0.15026
-0.40643 0.19686 0.14798
-0.40788 0.19739 0.14573
-0.4093 0.19766 0.14341
-0.4104 0.1978 0.14093
-0.41177 0.19813 0.13862
-0.41339 0.19859 0.13649
-0.41485 0.19916 0.13427
-0.41636 0.1997 0.13208
-0.41775 0.2003 0.12982
-0.4191 0.20099 0.12758
-0.42054 0.20183 0.12544
-0.422 0.20244 0.12322
-0.42304 0.20271 0.1207
-0.42418 0.20303 0.11825
-0.38063 0.18205 0.18751
-0.37899 0.18177 0.18967
-0.38212 0.18247 0.18527
-0.3837 0.18319 0.18319
-0.3852 0.18416 0.18115
-0.38682 0.18517 0.17923
-0.38838 0.18595 0.17717
-0.38959 0.18671 0.17485
-0.39107 0.18739 0.17266
-0.39283 0.18774 0.17062
-0.39436 0.18803 0.16841
-0.39583 0.18886 0.16628
-0.39742 0.18968 0.16422
-0.39881 0.19057 0.16208
-0.39998 0.19151 0.15981
-0.40137 0.19221 0.15759
-0.40266 0.19259 0.15524
-0.404 0.19294 0.1529
-0.40542 0.19349 0.15065
-0.40671 0.19422 0.14839
-0.40797 0.19468 0.14603
-0.40957 0.19498 0.14384
-0.41108 0.19525 0.1416
-0.41254 0.19561 0.13935
-0.41409 0.19602 0.13716
-0.41561 0.1966 0.13498
-0.417 0.19706 0.13268
-0.41815 0.19759 0.13028
-0.41945 0.19827 0.128
-0.4207 0.19906 0.12573
-0.42225 0.19969 0.1236
-0.42364 0.20004 0.12128
-0.42484 0.20037 0.11886
-0.3814 0.17983 0.1885
-0.37999 0.17966 0.1909
-0.38269 0.18013 0.18611
-0.38417 0.18076 0.18393
-0.38554 0.18164 0.18176
-0.38699 0.18259 0.17967
-0.38859 0.18338 0.17763
-0.39 0.18419 0.17545
-0.39164 0.18492 0.1734
-0.39328 0.18522 0.17126
-0.39501 0.18557 0.16921
-0.39636 0.18635 0.16698
-0.39795 0.18717 0.16493
-0.39937 0.18807 0.1628
-0.40062 0.18904 0.16058
-0.40193 0.18971 0.15829
-0.40298 0.19002 0.15579
-0.40455 0.19041 0.15359
-0.40588 0.19093 0.15129
-0.40706 0.19161 0.14895
-0.40835 0.19208 0.1466
-0.40994 0.19238 0.14442
-0.41135 0.1926 0.14211
-0.41287 0.19296 0.13989
-0.41456 0.19339 0.1378
-0.416 0.19392 0.13553
-0.41707 0.19432 0.13305
-0.41837 0.19488 0.13075
-0.41972 0.19557 0.1285
-0.42118 0.1964 0.12636
-0.4225 0.19696 0.12406
-0.42396 0.19731 0.1218
-0.42528 0.19767 0.11945
-0.3803 0.17706 0.19087
-0.38183 0.1773 0.18861
-0.38353 0.17773 0.18653
-0.38514 0.17842 0.18445
-0.38637 0.1792 0.18216
-0.3878 0.18013 0.18004
-0.38916 0.18083 0.1778
-0.39047 0.18161 0.17553
-0.39202 0.18232 0.17338
-0.39381 0.18264 0.17136
-0.39542 0.18295 0.1692
-0.39681 0.18374 0.16699
-0.39846 0.18457 0.16497
-0.39981 0.18545 0.16279
-0.40103 0.18642 0.16057
-0.40209 0.18704 0.15814
-0.40343 0.1874 0.15577
-0.40516 0.18782 0.15369
-0.40657 0.18835 0.15142
-0.40774 0.18902 0.14906
-0.40913 0.18951 0.14677
-0.41064 0.18978 0.14451
-0.41197 0.18998 0.14215
-0.41363 0.19037 0.14002
-0.41506 0.19071 0.13772
-0.41627 0.1912 0.13532
-0.41756 0.19163 0.13296
-0.4189 0.1922 0.13066
-0.42037 0.1929 0.12848
-0.42185 0.19372 0.12634
-0.42322 0.19428 0.12407
-0.42483 0.19468 0.1219
-0.42617 0.19503 0.11955
-0.3808 0.17456 0.1904
-0.38296 0.17499 0.18876
-0.38505 0.17572 0.18714
-0.38651 0.17628 0.18489
-0.38759 0.17692 0.18247
-0.38871 0.17769 0.1801
-0.39008 0.17838 0.17784
-0.39125 0.17909 0.17547
-0.39262 0.17974 0.17315
-0.3945 0.18009 0.17116
-0.39616 0.1804 0.16905
-0.3976 0.1812 0.16685
-0.3995 0.18212 0.16505
-0.40072 0.18295 0.16275
-0.40153 0.18382 0.16028
-0.40266 0.18445 0.15785
-0.40418 0.18485 0.1556
-0.40573 0.18523 0.15338
-0.4071 0.18575 0.15107
-0.40864 0.1865 0.14893
-0.41023 0.18704 0.14676
-0.41145 0.18721 0.14431
-0.41281 0.18741 0.14195
-0.41439 0.18777 0.13975
-0.41576 0.18809 0.1374
-0.41709 0.1886 0.13507
-0.41837 0.18903 0.13269
-0.41974 0.18959 0.13039
-0.42148 0.19037 0.12842
-0.42298 0.1912 0.12627
-0.42446 0.19179 0.12405
-0.42598 0.19215 0.12179
-0.42722 0.19245 0.11935
-0.38195 0.17226 0.19059
-0.38422 0.17281 0.18914
-0.38648 0.17362 0.1877
-0.38811 0.17423 0.18547
-0.38884 0.17469 0.18282
-0.38968 0.1753 0.18028
-0.39092 0.17591 0.17789
-0.39217 0.17662 0.17555
-0.39352 0.17722 0.17322
-0.39532 0.17755 0.17115
-0.3971 0.17792 0.16911
-0.39861 0.17874 0.16698
-0.40008 0.17953 0.16481
-0.4012 0.18035 0.16247
-0.40218 0.18125 0.16007
-0.40333 0.18188 0.15765
-0.4047 0.18226 0.1553
-0.40616 0.18261 0.15298
-0.40776 0.18316 0.15082
-0.4094 0.18393 0.14876
-0.41083 0.18442 0.14647
-0.41219 0.18462 0.1441
-0.41359 0.18483 0.14175
-0.41507 0.18515 0.13946
-0.4165 0.18549 0.13715
-0.41787 0.186 0.13482
-0.41925 0.18644 0.13249
-0.4207 0.18702 0.13024
-0.42254 0.18779 0.12835
-0.42404 0.18863 0.1262
-0.42567 0.18929 0.12409
-0.42719 0.18964 0.1218
-0.42841 0.18992 0.11933
-0.38296 0.16999 0.19111
-0.38517 0.17048 0.18953
-0.38717 0.17109 0.18772
-0.38841 0.1716 0.18529
-0.38924 0.17214 0.18273
-0.39041 0.17282 0.18033
-0.3917 0.17343 0.17797
-0.39312 0.17418 0.17572
-0.39466 0.17485 0.17355
-0.39626 0.17508 0.17133
-0.39783 0.17537 0.16911
-0.39929 0.17619 0.16693
-0.40059 0.17693 0.16464
-0.40171 0.17775 0.16229
-0.4028 0.17866 0.15993
-0.40395 0.17928 0.15751
-0.40535 0.17966 0.15517
-0.40684 0.18001 0.15287
-0.40842 0.18055 0.15069
-0.40999 0.18131 0.14856
-0.41152 0.18182 0.14634
-0.41301 0.18205 0.14405
-0.41436 0.18224 0.14166
-0.41584 0.18256 0.13937
-0.41716 0.18285 0.13698
-0.4186 0.18337 0.13469
-0.42003 0.18382 0.1324
-0.42141 0.18437 0.13009
-0.42298 0.18507 0.12794
-0.42487 0.18599 0.12618
-0.42707 0.18685 0.12457
-0.42844 0.18712 0.12207
-0.42948 0.18732 0.1195
-0.38535 0.16793 0.18972
-0.38355 0.16762 0.19175
-0.38694 0.16848 0.18759
-0.38829 0.16899 0.18529
-0.38962 0.16959 0.18298
-0.39098 0.17031 0.18072
-0.39218 0.17089 0.17832
-0.39343 0.1716 0.17594
-0.39523 0.17232 0.17396
-0.39679 0.17253 0.17172
-0.39837 0.17281 0.16951
-0.39968 0.17358 0.16722
-0.40121 0.17438 0.16509
-0.40227 0.17516 0.1627
-0.40334 0.17607 0.16033
-0.40461 0.17673 0.15798
-0.406 0.1771 0.15564
-0.40748 0.17744 0.15335
-0.40898 0.17796 0.1511
-0.41054 0.17871 0.14898
-0.41219 0.17926 0.14685
-0.41371 0.1795 0.14458
-0.41483 0.17961 0.14207
-0.41614 0.17987 0.13967
-0.41754 0.18018 0.13733
-0.41895 0.18068 0.13504
-0.42049 0.18116 0.13282
-0.42199 0.18174 0.1306
-0.42345 0.18239 0.12838
-0.42535 0.18328 0.12662
-0.42746 0.184 0.12493
-0.429 0.18435 0.12257
-0.43024 0.18465 0.12008
-0.38567 0.16547 0.19039
-0.38712 0.16595 0.18813
-0.38848 0.16644 0.18581
-0.38986 0.16704 0.18354
-0.39119 0.16776 0.18128
-0.39243 0.16835 0.17893
-0.39345 0.169 0.17642
-0.39507 0.16968 0.17425
-0.39697 0.16996 0.17229
-0.39854 0.17024 0.1701
-0.39975 0.17097 0.16774
-0.40132 0.17179 0.16563
-0.40292 0.17274 0.16362
-0.40378 0.17357 0.16113
-0.40507 0.17423 0.1588
-0.40641 0.17459 0.15643
-0.40781 0.17489 0.15409
-0.40921 0.17536 0.15178
-0.41079 0.17613 0.14967
-0.41254 0.17671 0.14763
-0.41392 0.1769 0.14527
-0.41511 0.17703 0.14281
-0.41631 0.17726 0.14036
-0.41769 0.17755 0.13802
-0.4192 0.17807 0.1358
-0.4207 0.17853 0.13356
-0.42239 0.17918 0.13151
-0.42386 0.17982 0.12928
-0.4253 0.18055 0.12708
-0.42708 0.18122 0.12513
-0.42888 0.18158 0.12307
-0.43046 0.1819 0.12076
-0.39278 0.16586 0.17976
-0.39383 0.16649 0.17729
-0.39518 0.1671 0.17494
-0.39693 0.16736 0.17283
-0.39867 0.16768 0.17077
-0.40007 0.16846 0.16856
-0.40146 0.16922 0.16633
-0.40275 0.17008 0.16408
-0.40416 0.17108 0.16197
-0.40548 0.17175 0.15969
-0.40682 0.17211 0.15732
-0.40832 0.17244 0.15505
-0.40969 0.17289 0.15273
-0.41112 0.17359 0.1505
-0.41277 0.17414 0.14838
-0.41413 0.17431 0.14601
-0.41519 0.17441 0.14349
-0.4164 0.17463 0.14104
-0.41781 0.17492 0.13872
-0.41931 0.17544 0.13651
-0.42099 0.17594 0.1344
-0.4227 0.17658 0.13237
-0.42423 0.17724 0.13019
-0.42553 0.17791 0.12787
-0.42713 0.17853 0.12576
-0.42893 0.17887 0.12372
-0.43045 0.17915 0.12138
-0.4004 0.16592 0.16924
-0.40185 0.16669 0.16706
-0.40321 0.16756 0.16485
-0.40481 0.16866 0.1629
-0.40622 0.16939 0.16068
-0.4074 0.16965 0.15822
-0.4089 0.16998 0.15594
-0.4104 0.17049 0.15372
-0.4116 0.17108 0.15134
-0.41294 0.17152 0.14899
-0.41422 0.17167 0.14658
-0.4154 0.17179 0.14412
-0.41651 0.17198 0.14162
-0.41796 0.17227 0.1393
-0.41951 0.17278 0.13712
-0.42119 0.17327 0.13501
-0.42301 0.17394 0.13309
-0.42461 0.17462 0.13095
-0.42595 0.17528 0.12866
-0.42742 0.17585 0.12643
-0.42899 0.17612 0.12422
-0.43041 0.17639 0.12184
-0.43119 0.17688 0.11924
-0.40537 0.16614 0.1635
-0.40683 0.16688 0.1613
-0.40825 0.16724 0.15899
-0.40973 0.16755 0.1567
-0.41113 0.168 0.15439
-0.41224 0.16855 0.15195
-0.41321 0.16887 0.1494
-0.41439 0.169 0.14693
-0.41559 0.16911 0.14447
-0.4169 0.16933 0.14207
-0.41839 0.16962 0.13978
-0.42003 0.17015 0.13766
-0.42176 0.17065 0.13559
-0.42358 0.1713 0.13365
-0.42529 0.17201 0.1316
-0.42669 0.17269 0.12931
-0.42795 0.17317 0.12693
-0.42936 0.1734 0.12459
-0.43064 0.17365 0.12216
-0.43162 0.17416 0.11965
-0.41252 0.16592 0.15246
-0.41358 0.16626 0.14995
-0.41471 0.16637 0.14744
-0.41574 0.16643 0.14489
-0.41713 0.16666 0.1425
-0.41887 0.16701 0.14039
-0.42049 0.16752 0.13824
-0.42206 0.16796 0.13603
-0.42388 0.16859 0.13409
-0.42567 0.16932 0.13213
-0.42732 0.17008 0.13003
-0.42876 0.17063 0.12774
-0.43014 0.17084 0.12535
-0.43131 0.17105 0.12286
-0.43226 0.17152 0.12031
-0.4212 0.16489 0.13824
-0.42263 0.16527 0.13591
-0.4245 0.16591 0.13398
-0.42648 0.16667 0.13221
-0.42818 0.16743 0.13015
-0.42967 0.16797 0.12787
-0.43111 0.16821 0.12551
-0.43231 0.16843 0.12301
-0.43316 0.16887 0.12042
-0.43198 0.16556 0.12505
-0.43319 0.1658 0.12257
POLYGONS 2919 11676
3 0 1 2
3 2 1 3
3 1 4 3
3 3 4 5
3 4 6 5
3 5 6 7
3 7 8 9
3 10 2 11
3 2 3 11
3 11 3 12
3 3 5 12
3 12 5 13
3 5 7 13
3 13 7 14
3 7 9 14
3 14 9 15
3 9 16 15
3 15 16 17
3 16 18 17
3 17 18 19
3 10 11 20
3 20 11 21
3 11 12 21
3 21 12 22
3 12 13 22
3 22 13 23
3 13 14 23
3 23 14 24
3 14 15 24
3 24 15 25
3 15 17 25
3 25 17 26
3 17 19 26
3 26 19 27
3 19 28 27
3 27 28 29
3 28 30 29
3 29 30 31
3 30 32 31
3 31 32 33
3 34 20 35
3 20 21 35
3 35 21 36
3 21 22 36
3 36 22 37
3 22 23 37
3 37 23 38
3 23 24 38
3 38 24 39
3 24 25 39
3 39 25 40
3 25 26 40
3 40 26 41
3 26 27 41
3 41 27 42
3 27 29 42
3 42 29 43
3 29 31 43
3 43 31 44
3 31 33 44
3 44 33 45
3 33 46 45
3 45 46 47
3 46 48 47
3 47 48 49
3 48 50 49
3 49 50 51
3 51 52 53
3 34 35 54
3 54 35 55
3 35 36 55
3 55 36 56
3 36 37 56
3 56 37 57
3 37 38 57
3 57 38 58
3 38 59 58
3 38 39 59
3 39 40 59
3 59 40 60
3 40 41 60
3 60 41 61
3 41 42 61
3 61 42 62
3 42 43 62
3 62 43 63
3 43 44 63
3 63 44 64
3 44 45 64
3 64 45 65
3 45 47 65
3 65 47 66
3 47 49 66
3 66 49 67
3 49 51 67
3 67 51 68
3 51 53 68
3 68 53 69
3 53 70 69
3 53 71 70
3 71 72 70
3 71 73 72
3 73 74 72
3 75 76 77
3 54 78 76
3 54 55 78
3 55 79 78
3 55 56 79
3 56 57 79
3 79 57 80
3 57 81 80
3 57 58 81
3 58 82 81
3 58 59 82
3 59 60 82
3 82 60 83
3 60 61 83
3 83 61 84
3 61 85 84
3 61 62 85
3 62 86 85
3 62 63 86
3 63 87 86
3 63 64 87
3 64 88 87
3 64 65 88
3 65 66 88
3 88 66 89
3 66 67 89
3 89 67 90
3 67 68 90
3 90 68 91
3 68 69 91
3 91 69 92
3 69 93 92
3 69 70 93
3 70 94 93
3 70 72 94
3 72 95 94
3 72 74 95
3 74 96 95
3 74 97 96
3 97 98 96
3 97 99 98
3 99 100 98
3 77 101 102
3 77 76 101
3 76 103 101
3 76 78 103
3 78 104 103
3 78 79 104
3 79 105 104
3 79 80 105
3 80 106 105
3 80 81 106
3 81 107 106
3 81 82 107
3 82 108 107
3 82 83 108
3 83 109 108
3 83 84 109
3 84 110 109
3 84 85 110
3 85 111 110
3 85 86 111
3 86 112 111
3 86 87 112
3 87 113 112
3 87 88 113
3 88 114 113
3 88 89 114
3 89 115 114
3 89 90 115
3 90 116 115
3 90 91 116
3 91 117 116
3 91 92 117
3 92 118 117
3 92 93 118
3 93 119 118
3 93 94 119
3 94 120 119
3 94 95 120
3 95 121 120
3 95 96 121
3 96 122 121
3 96 98 122
3 98 123 122
3 98 100 123
3 100 124 123
3 100 125 124
3 125 126 124
3 125 127 126
3 127 128 126
3 102 129 130
3 102 101 129
3 101 131 129
3 101 103 131
3 103 132 131
3 103 104 132
3 104 105 132
3 132 105 133
3 105 134 133
3 105 106 134
3 106 135 134
3 106 107 135
3 107 136 135
3 107 108 136
3 108 137 136
3 108 109 137
3 109 138 137
3 109 110 138
3 110 139 138
3 110 111 139
3 111 140 139
3 111 112 140
3 112 141 140
3 112 113 141
3 113 142 141
3 113 114 142
3 114 143 142
3 114 115 143
3 115 144 143
3 115 116 144
3 116 145 144
3 116 117 145
3 117 146 145
3 117 118 146
3 118 119 146
3 146 119 147
3 119 120 147
3 147 120 148
3 120 121 148
3 148 121 149
3 121 122 149
3 149 122 150
3 122 123 150
3 150 123 151
3 123 152 151
3 123 124 152
3 124 126 152
3 152 126 153
3 126 128 153
3 153 128 154
3 128 155 154
3 154 155 156
3 155 157 156
3 156 157 158
3 157 159 158
3 157 160 159
3 160 161 159
3 130 129 162
3 162 129 163
3 129 131 163
3 163 131 164
3 131 165 164
3 131 132 165
3 132 166 165
3 132 133 166
3 133 167 166
3 133 134 167
3 134 168 167
3 134 135 168
3 135 169 168
3 135 136 169
3 136 170 169
3 136 137 170
3 137 171 170
3 137 138 171
3 138 139 171
3 171 139 172
3 139 140 172
3 172 140 173
3 140 141 173
3 173 141 174
3 141 142 174
3 174 142 175
3 142 143 175
3 175 143 176
3 143 144 176
3 176 144 177
3 144 145 177
3 177 145 178
3 145 146 178
3 178 146 179
3 146 147 179
3 179 147 180
3 147 148 180
3 180 148 181
3 148 149 181
3 181 149 182
3 149 150 182
3 182 150 183
3 150 151 183
3 183 151 184
3 151 152 184
3 184 152 185
3 152 153 185
3 185 153 186
3 153 154 186
3 186 154 187
3 154 156 187
3 187 156 188
3 156 158 188
3 188 158 189
3 158 159 189
3 189 159 190
3 159 161 190
3 190 161 191
3 161 192 191
3 191 192 193
3 192 194 193
3 193 194 195
3 194 196 195
3 195 196 197
3 198 162 199
3 199 162 200
3 162 201 200
3 162 163 201
3 163 202 201
3 163 164 202
3 164 203 202
3 164 165 203
3 165 204 203
3 165 166 204
3 166 205 204
3 166 167 205
3 167 206 205
3 167 168 206
3 168 207 206
3 168 169 207
3 169 170 207
3 207 170 208
3 170 171 208
3 208 171 209
3 171 172 209
3 209 172 210
3 172 173 210
3 210 173 211
3 173 174 211
3 211 174 212
3 174 175 212
3 212 175 213
3 175 176 213
3 213 176 214
3 176 177 214
3 214 177 215
3 177 178 215
3 215 178 216
3 178 179 216
3 216 179 217
3 179 180 217
3 217 180 218
3 180 181 218
3 218 181 219
3 181 182 219
3 219 182 220
3 182 183 220
3 220 183 221
3 183 184 221
3 221 184 222
3 184 185 222
3 222 185 223
3 185 186 223
3 223 186 224
3 186 187 224
3 224 187 225
3 187 188 225
3 225 188 226
3 188 227 226
3 188 189 227
3 189 228 227
3 189 190 228
3 190 191 228
3 228 191 229
3 191 193 229
3 229 193 230
3 193 195 230
3 230 195 231
3 195 197 231
3 231 197 232
3 197 233 232
3 232 233 234
3 233 235 234
3 234 235 236
3 199 237 238
3 199 200 237
3 200 239 237
3 200 201 239
3 201 240 239
3 201 202 240
3 202 241 240
3 202 203 241
3 203 242 241
3 203 204 242
3 204 243 242
3 204 205 243
3 205 244 243
3 205 206 244
3 206 245 244
3 206 207 245
3 207 246 245
3 207 208 246
3 208 247 246
3 208 209 247
3 209 248 247
3 209 210 248
3 210 249 248
3 210 211 249
3 211 250 249
3 211 212 250
3 212 251 250
3 212 213 251
3 213 252 251
3 213 214 252
3 214 253 252
3 214 215 253
3 215 254 253
3 215 216 254
3 216 255 254
3 216 217 255
3 217 256 255
3 217 218 256
3 218 257 256
3 218 219 257
3 219 258 257
3 219 220 258
3 220 259 258
3 220 221 259
3 221 260 259
3 221 222 260
3 222 261 260
3 222 223 261
3 223 262 261
3 223 224 262
3 224 263 262
3 224 225 263
3 225 264 263
3 225 226 264
3 226 265 264
3 226 227 265
3 227 228 265
3 265 228 266
3 228 229 266
3 266 229 267
3 229 230 267
3 267 230 268
3 230 269 268
3 230 231 269
3 231 270 269
3 231 232 270
3 232 234 270
3 270 234 271
3 234 236 271
3 238 272 273
3 238 237 272
3 237 274 272
3 237 239 274
3 239 275 274
3 239 240 275
3 240 276 275
3 240 241 276
3 241 277 276
3 241 242 277
3 242 278 277
3 242 243 278
3 243 279 278
3 243 244 279
3 244 280 279
3 244 245 280
3 245 281 280
3 245 246 281
3 246 282 281
3 246 247 282
3 247 283 282
3 247 248 283
3 248 284 283
3 248 249 284
3 249 285 284
3 249 250 285
3 250 286 285
3 250 251 286
3 251 287 286
3 251 252 287
3 252 288 287
3 252 253 288
3 253 289 288
3 253 254 289
3 254 290 289
3 254 255 290
3 255 291 290
3 255 256 291
3 256 292 291
3 256 257 292
3 257 293 292
3 257 258 293
3 258 294 293
3 258 259 294
3 259 295 294
3 259 260 295
3 260 296 295
3 260 261 296
3 261 297 296
3 261 262 297
3 262 298 297
3 262 263 298
3 263 299 298
3 263 264 299
3 264 300 299
3 264 265 300
3 265 301 300
3 265 266 301
3 266 302 301
3 266 267 302
3 267 303 302
3 267 268 303
3 268 304 303
3 268 269 304
3 269 305 304
3 269 270 305
3 270 306 305
3 270 271 306
3 273 307 308
3 273 272 307
3 272 309 307
3 272 274 309
3 274 310 309
3 274 275 310
3 275 311 310
3 275 276 311
3 276 312 311
3 276 277 312
3 277 313 312
3 277 278 313
3 278 314 313
3 278 279 314
3 279 315 314
3 279 280 315
3 280 316 315
3 280 281 316
3 281 317 316
3 281 282 317
3 282 318 317
3 282 283 318
3 283 319 318
3 283 284 319
3 284 320 319
3 284 285 320
3 285 321 320
3 285 286 321
3 286 322 321
3 286 287 322
3 287 323 322
3 287 288 323
3 288 324 323
3 288 289 324
3 289 325 324
3 289 290 325
3 290 326 325
3 290 291 326
3 291 327 326
3 291 292 327
3 292 328 327
3 292 293 328
3 293 329 328
3 293 294 329
3 294 330 329
3 294 295 330
3 295 331 330
3 295 296 331
3 296 332 331
3 296 297 332
3 297 333 332
3 297 298 333
3 298 334 333
3 298 299 334
3 299 335 334
3 299 300 335
3 300 336 335
3 300 301 336
3 301 337 336
3 301 302 337
3 302 338 337
3 302 303 338
3 303 339 338
3 303 304 339
3 304 340 339
3 304 305 340
3 305 341 340
3 305 306 341
3 308 342 343
3 308 307 342
3 307 344 342
3 307 309 344
3 309 345 344
3 309 310 345
3 310 346 345
3 310 311 346
3 311 347 346
3 311 312 347
3 312 348 347
3 312 313 348
3 313 349 348
3 313 314 349
3 314 350 349
3 314 315 350
3 315 351 350
3 315 316 351
3 316 352 351
3 316 317 352
3 317 353 352
3 317 318 353
3 318 354 353
3 318 319 354
3 319 355 354
3 319 320 355
3 320 356 355
3 320 321 356
3 321 357 356
3 321 322 357
3 322 358 357
3 322 323 358
3 323 359 358
3 323 324 359
3 324 360 359
3 324 325 360
3 325 361 360
3 325 326 361
3 326 362 361
3 326 327 362
3 327 363 362
3 327 328 363
3 328 364 363
3 328 329 364
3 329 365 364
3 329 330 365
3 330 366 365
3 330 331 366
3 331 367 366
3 331 332 367
3 332 368 367
3 332 333 368
3 333 369 368
3 333 334 369
3 334 370 369
3 334 335 370
3 335 371 370
3 335 336 371
3 336 372 371
3 336 337 372
3 337 373 372
3 337 338 373
3 338 374 373
3 338 339 374
3 339 375 374
3 339 340 375
3 340 376 375
3 340 341 376
3 343 377 378
3 343 342 377
3 342 379 377
3 342 344 379
3 344 380 379
3 344 345 380
3 345 381 380
3 345 346 381
3 346 382 381
3 346 347 382
3 347 383 382
3 347 348 383
3 348 384 383
3 348 349 384
3 349 385 384
3 349 350 385
3 350 386 385
3 350 351 386
3 351 387 386
3 351 352 387
3 352 388 387
3 352 353 388
3 353 389 388
3 353 354 389
3 354 390 389
3 354 355 390
3 355 391 390
3 355 356 391
3 356 392 391
3 356 357 392
3 357 393 392
3 357 358 393
3 358 394 393
3 358 359 394
3 359 395 394
3 359 360 395
3 360 396 395
3 360 361 396
3 361 397 396
3 361 362 397
3 362 398 397
3 362 363 398
3 363 399 398
3 363 364 399
3 364 400 399
3 364 365 400
3 365 401 400
3 365 366 401
3 366 402 401
3 366 367 402
3 367 403 402
3 367 368 403
3 368 404 403
3 368 369 404
3 369 405 404
3 369 370 405
3 370 406 405
3 370 371 406
3 371 407 406
3 371 372 407
3 372 408 407
3 372 373 408
3 373 409 408
3 373 374 409
3 374 410 409
3 374 375 410
3 375 411 410
3 375 376 411
3 378 412 413
3 378 377 412
3 377 414 412
3 377 379 414
3 379 415 414
3 379 380 415
3 380 416 415
3 380 381 416
3 381 417 416
3 381 382 417
3 382 418 417
3 382 383 418
3 383 419 418
3 383 384 419
3 384 385 419
3 419 385 420
3 385 386 420
3 420 386 421
3 386 387 421
3 421 387 422
3 387 388 422
3 422 388 423
3 388 389 423
3 423 389 424
3 389 425 424
3 389 390 425
3 390 391 425
3 425 391 426
3 391 392 426
3 426 392 427
3 392 393 427
3 427 393 428
3 393 394 428
3 428 394 429
3 394 430 429
3 394 395 430
3 395 396 430
3 430 396 431
3 396 397 431
3 431 397 432
3 397 398 432
3 432 398 433
3 398 399 433
3 433 399 434
3 399 400 434
3 434 400 435
3 400 436 435
3 400 401 436
3 401 402 436
3 436 402 437
3 402 438 437
3 402 403 438
3 403 439 438
3 403 404 439
3 404 440 439
3 404 405 440
3 405 441 440
3 405 406 441
3 406 407 441
3 441 407 442
3 407 443 442
3 407 408 443
3 408 444 443
3 408 409 444
3 409 445 444
3 409 410 445
3 410 446 445
3 410 411 446
3 413 447 448
3 413 412 447
3 412 449 447
3 412 414 449
3 414 450 449
3 414 415 450
3 415 451 450
3 415 416 451
3 416 452 451
3 416 417 452
3 417 453 452
3 417 418 453
3 418 419 453
3 453 419 454
3 419 420 454
3 454 420 455
3 420 421 455
3 455 421 456
3 421 422 456
3 456 422 457
3 422 423 457
3 457 423 458
3 423 424 458
3 458 424 459
3 424 425 459
3 459 425 460
3 425 426 460
3 460 426 461
3 426 427 461
3 461 427 462
3 427 428 462
3 462 428 463
3 428 429 463
3 463 429 464
3 429 430 464
3 464 430 465
3 430 431 465
3 465 431 466
3 431 432 466
3 466 432 467
3 432 433 467
3 467 433 468
3 433 434 468
3 468 434 469
3 434 435 469
3 469 435 470
3 435 436 470
3 470 436 471
3 436 437 471
3 471 437 472
3 437 438 472
3 472 438 473
3 438 439 473
3 473 439 474
3 439 440 474
3 474 440 475
3 440 441 475
3 475 441 476
3 441 442 476
3 476 442 477
3 442 443 477
3 477 443 478
3 443 479 478
3 443 444 479
3 444 445 479
3 479 445 480
3 481 448 482
3 448 447 482
3 482 447 483
3 447 449 483
3 483 449 484
3 449 485 484
3 449 450 485
3 450 486 485
3 450 451 486
3 451 487 486
3 451 452 487
3 452 488 487
3 452 453 488
3 453 454 488
3 488 454 489
3 454 455 489
3 489 455 490
3 455 456 490
3 490 456 491
3 456 457 491
3 491 457 492
3 457 458 492
3 492 458 493
3 458 459 493
3 493 459 494
3 459 460 494
3 494 460 495
3 460 461 495
3 495 461 496
3 461 462 496
3 496 462 497
3 462 463 497
3 497 463 498
3 463 464 498
3 498 464 499
3 464 465 499
3 499 465 500
3 465 466 500
3 500 466 501
3 466 467 501
3 501 467 502
3 467 468 502
3 502 468 503
3 468 469 503
3 503 469 504
3 469 470 504
3 504 470 505
3 470 471 505
3 505 471 506
3 471 472 506
3 506 472 507
3 472 473 507
3 507 473 508
3 473 474 508
3 508 474 509
3 474 510 509
3 474 475 510
3 475 511 510
3 475 476 511
3 476 512 511
3 476 477 512
3 477 513 512
3 477 478 513
3 478 514 513
3 478 479 514
3 479 515 514
3 479 480 515
3 481 516 517
3 481 482 516
3 482 518 516
3 482 483 518
3 483 519 518
3 483 484 519
3 484 520 519
3 484 485 520
3 485 521 520
3 485 486 521
3 486 522 521
3 486 487 522
3 487 523 522
3 487 488 523
3 488 524 523
3 488 489 524
3 489 490 524
3 524 490 525
3 490 491 525
3 525 491 526
3 491 492 526
3 526 492 527
3 492 493 527
3 527 493 528
3 493 529 528
3 493 494 529
3 494 530 529
3 494 495 530
3 495 531 530
3 495 496 531
3 496 497 531
3 531 497 532
3 497 498 532
3 532 498 533
3 498 499 533
3 533 499 534
3 499 535 534
3 499 500 535
3 500 536 535
3 500 501 536
3 501 502 536
3 536 502 537
3 502 503 537
3 537 503 538
3 503 504 538
3 538 504 539
3 504 505 539
3 539 505 540
3 505 541 540
3 505 506 541
3 506 507 541
3 541 507 542
3 507 543 542
3 507 508 543
3 508 544 543
3 508 509 544
3 509 545 544
3 509 510 545
3 510 546 545
3 510 511 546
3 511 547 546
3 511 512 547
3 512 548 547
3 512 513 548
3 513 549 548
3 513 514 549
3 517 550 551
3 517 516 550
3 516 552 550
3 516 518 552
3 518 553 552
3 518 519 553
3 519 554 553
3 519 520 554
3 520 555 554
3 520 521 555
3 521 556 555
3 521 522 556
3 522 557 556
3 522 523 557
3 523 558 557
3 523 524 558
3 524 525 558
3 558 525 559
3 525 526 559
3 559 526 560
3 526 561 560
3 526 527 561
3 527 562 561
3 527 528 562
3 528 563 562
3 528 529 563
3 529 564 563
3 529 530 564
3 530 565 564
3 530 531 565
3 531 566 565
3 531 532 566
3 532 567 566
3 532 533 567
3 533 568 567
3 533 534 568
3 534 569 568
3 534 535 569
3 535 570 569
3 535 536 570
3 536 571 570
3 536 537 571
3 537 538 571
3 571 538 572
3 538 573 572
3 538 539 573
3 539 574 573
3 539 540 574
3 540 575 574
3 540 541 575
3 541 576 575
3 541 542 576
3 542 577 576
3 542 543 577
3 543 578 577
3 543 544 578
3 544 579 578
3 544 545 579
3 545 580 579
3 545 546 580
3 546 547 580
3 580 547 581
3 547 582 581
3 547 548 582
3 548 583 582
3 548 549 583
3 551 550 584
3 584 550 585
3 550 586 585
3 550 552 586
3 552 587 586
3 552 553 587
3 553 588 587
3 553 554 588
3 554 589 588
3 554 555 589
3 555 590 589
3 555 556 590
3 556 591 590
3 556 557 591
3 557 592 591
3 557 558 592
3 558 559 592
3 592 559 593
3 559 560 593
3 593 560 594
3 560 595 594
3 560 561 595
3 561 596 595
3 561 562 596
3 562 597 596
3 562 563 597
3 563 598 597
3 563 564 598
3 564 599 598
3 564 565 599
3 565 566 599
3 599 566 600
3 566 567 600
3 600 567 601
3 567 568 601
3 601 568 602
3 568 603 602
3 568 569 603
3 569 604 603
3 569 570 604
3 570 571 604
3 604 571 605
3 571 572 605
3 605 572 606
3 572 573 606
3 606 573 607
3 573 574 607
3 607 574 608
3 574 609 608
3 574 575 609
3 575 610 609
3 575 576 610
3 576 611 610
3 576 577 611
3 577 612 611
3 577 578 612
3 578 613 612
3 578 579 613
3 579 614 613
3 579 580 614
3 580 581 614
3 614 581 615
3 581 582 615
3 615 582 616
3 582 583 616
3 616 583 617
3 584 618 619
3 584 585 618
3 585 620 618
3 585 586 620
3 586 621 620
3 586 587 621
3 587 622 621
3 587 588 622
3 588 623 622
3 588 589 623
3 589 624 623
3 589 590 624
3 590 625 624
3 590 591 625
3 591 626 625
3 591 592 626
3 592 593 626
3 626 593 627
3 593 594 627
3 627 594 628
3 594 629 628
3 594 595 629
3 595 630 629
3 595 596 630
3 596 631 630
3 596 597 631
3 597 632 631
3 597 598 632
3 598 633 632
3 598 599 633
3 599 600 633
3 633 600 634
3 600 601 634
3 634 601 635
3 601 602 635
3 635 602 636
3 602 637 636
3 602 603 637
3 603 638 637
3 603 604 638
3 604 605 638
3 638 605 639
3 605 606 639
3 639 606 640
3 606 607 640
3 640 607 641
3 607 608 641
3 641 608 642
3 608 643 642
3 608 609 643
3 609 644 643
3 609 610 644
3 610 645 644
3 610 611 645
3 611 612 645
3 645 612 646
3 612 613 646
3 646 613 647
3 613 614 647
3 647 614 648
3 614 615 648
3 648 615 649
3 615 616 649
3 649 616 650
3 616 617 650
3 650 617 651
3 619 618 652
3 652 618 653
3 618 620 653
3 653 620 654
3 620 621 654
3 654 621 655
3 621 656 655
3 621 622 656
3 622 657 656
3 622 623 657
3 623 658 657
3 623 624 658
3 624 659 658
3 624 625 659
3 625 660 659
3 625 626 660
3 626 627 660
3 660 627 661
3 627 628 661
3 661 628 662
3 628 629 662
3 662 629 663
3 629 630 663
3 663 630 664
3 630 631 664
3 664 631 665
3 631 666 665
3 631 632 666
3 632 633 666
3 666 633 667
3 633 634 667
3 667 634 668
3 634 635 668
3 668 635 669
3 635 636 669
3 669 636 670
3 636 671 670
3 636 637 671
3 637 638 671
3 671 638 672
3 638 639 672
3 672 639 673
3 639 640 673
3 673 640 674
3 640 641 674
3 674 641 675
3 641 642 675
3 675 642 676
3 642 643 676
3 676 643 677
3 643 644 677
3 677 644 678
3 644 645 678
3 678 645 679
3 645 646 679
3 679 646 680
3 646 647 680
3 680 647 681
3 647 648 681
3 681 648 682
3 648 649 682
3 682 649 683
3 649 650 683
3 683 650 684
3 650 651 684
3 652 653 685
3 685 653 686
3 653 654 686
3 686 654 687
3 654 655 687
3 687 655 688
3 655 689 688
3 655 656 689
3 656 690 689
3 656 657 690
3 657 691 690
3 657 658 691
3 658 692 691
3 658 659 692
3 659 693 692
3 659 660 693
3 660 661 693
3 693 661 694
3 661 662 694
3 694 662 695
3 662 663 695
3 695 663 696
3 663 664 696
3 696 664 697
3 664 665 697
3 697 665 698
3 665 666 698
3 698 666 699
3 666 667 699
3 699 667 700
3 667 668 700
3 700 668 701
3 668 669 701
3 701 669 702
3 669 670 702
3 702 670 703
3 670 704 703
3 670 671 704
3 671 672 704
3 704 672 705
3 672 673 705
3 705 673 706
3 673 674 706
3 706 674 707
3 674 675 707
3 707 675 708
3 675 676 708
3 708 676 709
3 676 677 709
3 709 677 710
3 677 678 710
3 710 678 711
3 678 679 711
3 711 679 712
3 679 680 712
3 712 680 713
3 680 681 713
3 713 681 714
3 681 682 714
3 714 682 715
3 682 683 715
3 715 683 716
3 683 684 716
3 716 684 717
3 718 685 719
3 685 686 719
3 719 686 720
3 686 687 720
3 720 687 721
3 687 722 721
3 687 688 722
3 688 723 722
3 688 689 723
3 689 724 723
3 689 690 724
3 690 725 724
3 690 691 725
3 691 726 725
3 691 692 726
3 692 727 726
3 692 693 727
3 693 694 727
3 727 694 728
3 694 695 728
3 728 695 729
3 695 730 729
3 695 696 730
3 696 731 730
3 696 697 731
3 697 732 731
3 697 698 732
3 698 733 732
3 698 699 733
3 699 734 733
3 699 700 734
3 700 701 734
3 734 701 735
3 701 702 735
3 735 702 736
3 702 703 736
3 736 703 737
3 703 738 737
3 703 704 738
3 704 739 738
3 704 705 739
3 705 706 739
3 739 706 740
3 706 707 740
3 740 707 741
3 707 742 741
3 707 708 742
3 708 709 742
3 742 709 743
3 709 744 743
3 709 710 744
3 710 745 744
3 710 711 745
3 711 746 745
3 711 712 746
3 712 747 746
3 712 713 747
3 713 748 747
3 713 714 748
3 714 749 748
3 714 715 749
3 715 716 749
3 749 716 750
3 716 717 750
3 750 717 751
3 718 719 752
3 752 719 753
3 719 754 753
3 719 720 754
3 720 755 754
3 720 721 755
3 721 756 755
3 721 722 756
3 722 757 756
3 722 723 757
3 723 758 757
3 723 724 758
3 724 759 758
3 724 725 759
3 725 760 759
3 725 726 760
3 726 761 760
3 726 727 761
3 727 728 761
3 761 728 762
3 728 729 762
3 762 729 763
3 729 764 763
3 729 730 764
3 730 765 764
3 730 731 765
3 731 766 765
3 731 732 766
3 732 767 766
3 732 733 767
3 733 768 767
3 733 734 768
3 734 769 768
3 734 735 769
3 735 736 769
3 769 736 770
3 736 771 770
3 736 737 771
3 737 772 771
3 737 738 772
3 738 773 772
3 738 739 773
3 739 774 773
3 739 740 774
3 740 775 774
3 740 741 775
3 741 776 775
3 741 742 776
3 742 777 776
3 742 743 777
3 743 778 777
3 743 744 778
3 744 779 778
3 744 745 779
3 745 780 779
3 745 746 780
3 746 781 780
3 746 747 781
3 747 782 781
3 747 748 782
3 748 783 782
3 748 749 783
3 749 784 783
3 749 750 784
3 750 751 784
3 784 751 785
3 752 786 787
3 752 753 786
3 753 788 786
3 753 754 788
3 754 789 788
3 754 755 789
3 755 790 789
3 755 756 790
3 756 791 790
3 756 757 791
3 757 792 791
3 757 758 792
3 758 793 792
3 758 759 793
3 759 794 793
3 759 760 794
3 760 795 794
3 760 761 795
3 761 796 795
3 761 762 796
3 762 797 796
3 762 763 797
3 763 798 797
3 763 764 798
3 764 799 798
3 764 765 799
3 765 800 799
3 765 766 800
3 766 801 800
3 766 767 801
3 767 802 801
3 767 768 802
3 768 803 802
3 768 769 803
3 769 804 803
3 769 770 804
3 770 805 804
3 770 771 805
3 771 806 805
3 771 772 806
3 772 807 806
3 772 773 807
3 773 808 807
3 773 774 808
3 774 809 808
3 774 775 809
3 775 810 809
3 775 776 810
3 776 811 810
3 776 777 811
3 777 812 811
3 777 778 812
3 778 813 812
3 778 779 813
3 779 814 813
3 779 780 814
3 780 815 814
3 780 781 815
3 781 816 815
3 781 782 816
3 782 817 816
3 782 783 817
3 783 818 817
3 783 784 818
3 784 819 818
3 784 785 819
3 787 820 821
3 787 786 820
3 786 822 820
3 786 788 822
3 788 823 822
3 788 789 823
3 789 824 823
3 789 790 824
3 790 825 824
3 790 791 825
3 791 826 825
3 791 792 826
3 792 827 826
3 792 793 827
3 793 828 827
3 793 794 828
3 794 829 828
3 794 795 829
3 795 830 829
3 795 796 830
3 796 831 830
3 796 797 831
3 797 832 831
3 797 798 832
3 798 833 832
3 798 799 833
3 799 834 833
3 799 800 834
3 800 835 834
3 800 801 835
3 801 836 835
3 801 802 836
3 802 837 836
3 802 803 837
3 803 838 837
3 803 804 838
3 804 839 838
3 804 805 839
3 805 840 839
3 805 806 840
3 806 841 840
3 806 807 841
3 807 842 841
3 807 808 842
3 808 843 842
3 808 809 843
3 809 844 843
3 809 810 844
3 810 845 844
3 810 811 845
3 811 846 845
3 811 812 846
3 812 847 846
3 812 813 847
3 813 848 847
3 813 814 848
3 814 849 848
3 814 815 849
3 815 850 849
3 815 816 850
3 816 851 850
3 816 817 851
3 817 852 851
3 817 818 852
3 818 853 852
3 818 819 853
3 821 820 854
3 820 855 854
3 820 822 855
3 822 856 855
3 822 823 856
3 823 857 856
3 823 824 857
3 824 858 857
3 824 825 858
3 825 859 858
3 825 826 859
3 826 860 859
3 826 827 860
3 827 861 860
3 827 828 861
3 828 862 861
3 828 829 862
3 829 863 862
3 829 830 863
3 830 864 863
3 830 831 864
3 831 865 864
3 831 832 865
3 832 866 865
3 832 833 866
3 833 867 866
3 833 834 867
3 834 868 867
3 834 835 868
3 835 869 868
3 835 836 869
3 836 870 869
3 836 837 870
3 837 871 870
3 837 838 871
3 838 872 871
3 838 839 872
3 839 873 872
3 839 840 873
3 840 874 873
3 840 841 874
3 841 875 874
3 841 842 875
3 842 876 875
3 842 843 876
3 843 877 876
3 843 844 877
3 844 878 877
3 844 845 878
3 845 879 878
3 845 846 879
3 846 880 879
3 846 847 880
3 847 881 880
3 847 848 881
3 848 882 881
3 848 849 882
3 849 883 882
3 849 850 883
3 850 884 883
3 850 851 884
3 851 885 884
3 851 852 885
3 852 886 885
3 852 853 886
3 887 854 888
3 854 889 888
3 854 855 889
3 855 890 889
3 855 856 890
3 856 891 890
3 856 857 891
3 857 892 891
3 857 858 892
3 858 893 892
3 858 859 893
3 859 894 893
3 859 860 894
3 860 895 894
3 860 861 895
3 861 896 895
3 861 862 896
3 862 897 896
3 862 863 897
3 863 898 897
3 863 864 898
3 864 899 898
3 864 865 899
3 865 900 899
3 865 866 900
3 866 901 900
3 866 867 901
3 867 902 901
3 867 868 902
3 868 903 902
3 868 869 903
3 869 904 903
3 869 870 904
3 870 905 904
3 870 871 905
3 871 906 905
3 871 872 906
3 872 907 906
3 872 873 907
3 873 908 907
3 873 874 908
3 874 909 908
3 874 875 909
3 875 910 909
3 875 876 910
3 876 911 910
3 876 877 911
3 877 912 911
3 877 878 912
3 878 913 912
3 878 879 913
3 879 914 913
3 879 880 914
3 880 915 914
3 880 881 915
3 881 916 915
3 881 882 916
3 882 917 916
3 882 883 917
3 883 918 917
3 883 884 918
3 884 919 918
3 884 885 919
3 885 920 919
3 885 886 920
3 888 921 922
3 888 889 921
3 889 923 921
3 889 890 923
3 890 924 923
3 890 891 924
3 891 925 924
3 891 892 925
3 892 926 925
3 892 893 926
3 893 927 926
3 893 894 927
3 894 928 927
3 894 895 928
3 895 929 928
3 895 896 929
3 896 930 929
3 896 897 930
3 897 931 930
3 897 898 931
3 898 932 931
3 898 899 932
3 899 933 932
3 899 900 933
3 900 934 933
3 900 901 934
3 901 935 934
3 901 902 935
3 902 936 935
3 902 903 936
3 903 937 936
3 903 904 937
3 904 938 937
3 904 905 938
3 905 939 938
3 905 906 939
3 906 940 939
3 906 907 940
3 907 941 940
3 907 908 941
3 908 942 941
3 908 909 942
3 909 943 942
3 909 910 943
3 910 944 943
3 910 911 944
3 911 945 944
3 911 912 945
3 912 946 945
3 912 913 946
3 913 947 946
3 913 914 947
3 914 948 947
3 914 915 948
3 915 949 948
3 915 916 949
3 916 950 949
3 916 917 950
3 917 951 950
3 917 918 951
3 918 952 951
3 918 919 952
3 919 953 952
3 919 920 953
3 922 954 955
3 922 921 954
3 921 956 954
3 921 923 956
3 923 957 956
3 923 924 957
3 924 958 957
3 924 925 958
3 925 959 958
3 925 926 959
3 926 960 959
3 926 927 960
3 927 961 960
3 927 928 961
3 928 962 961
3 928 929 962
3 929 963 962
3 929 930 963
3 930 964 963
3 930 931 964
3 931 965 964
3 931 932 965
3 932 966 965
3 932 933 966
3 933 967 966
3 933 934 967
3 934 968 967
3 934 935 968
3 935 969 968
3 935 936 969
3 936 970 969
3 936 937 970
3 937 971 970
3 937 938 971
3 938 972 971
3 938 939 972
3 939 973 972
3 939 940 973
3 940 974 973
3 940 941 974
3 941 975 974
3 941 942 975
3 942 976 975
3 942 943 976
3 943 977 976
3 943 944 977
3 944 978 977
3 944 945 978
3 945 979 978
3 945 946 979
3 946 980 979
3 946 947 980
3 947 981 980
3 947 948 981
3 948 982 981
3 948 949 982
3 949 983 982
3 949 950 983
3 950 984 983
3 950 951 984
3 951 985 984
3 951 952 985
3 952 986 985
3 952 953 986
3 955 987 988
3 955 954 987
3 954 989 987
3 954 956 989
3 956 990 989
3 956 957 990
3 957 991 990
3 957 958 991
3 958 992 991
3 958 959 992
3 959 993 992
3 959 960 993
3 960 994 993
3 960 961 994
3 961 995 994
3 961 962 995
3 962 996 995
3 962 963 996
3 963 964 996
3 996 964 997
3 964 998 997
3 964 965 998
3 965 999 998
3 965 966 999
3 966 1000 999
3 966 967 1000
3 967 1001 1000
3 967 968 1001
3 968 1002 1001
3 968 969 1002
3 969 1003 1002
3 969 970 1003
3 970 1004 1003
3 970 971 1004
3 971 1005 1004
3 971 972 1005
3 972 1006 1005
3 972 973 1006
3 973 1007 1006
3 973 974 1007
3 974 1008 1007
3 974 975 1008
3 975 1009 1008
3 975 976 1009
3 976 1010 1009
3 976 977 1010
3 977 1011 1010
3 977 978 1011
3 978 1012 1011
3 978 979 1012
3 979 1013 1012
3 979 980 1013
3 980 1014 1013
3 980 981 1014
3 981 1015 1014
3 981 982 1015
3 982 1016 1015
3 982 983 1016
3 983 1017 1016
3 983 984 1017
3 984 985 1017
3 1017 985 1018
3 985 986 1018
3 1018 986 1019
3 988 1020 1021
3 988 987 1020
3 987 1022 1020
3 987 989 1022
3 989 1023 1022
3 989 990 1023
3 990 1024 1023
3 990 991 1024
3 991 1025 1024
3 991 992 1025
3 992 1026 1025
3 992 993 1026
3 993 1027 1026
3 993 994 1027
3 994 1028 1027
3 994 995 1028
3 995 1029 1028
3 995 996 1029
3 996 1030 1029
3 996 997 1030
3 997 1031 1030
3 997 998 1031
3 998 1032 1031
3 998 999 1032
3 999 1033 1032
3 999 1000 1033
3 1000 1034 1033
3 1000 1001 1034
3 1001 1035 1034
3 1001 1002 1035
3 1002 1036 1035
3 1002 1003 1036
3 1003 1037 1036
3 1003 1004 1037
3 1004 1038 1037
3 1004 1005 1038
3 1005 1039 1038
3 1005 1006 1039
3 1006 1040 1039
3 1006 1007 1040
3 1007 1041 1040
3 1007 1008 1041
3 1008 1042 1041
3 1008 1009 1042
3 1009 1043 1042
3 1009 1010 1043
3 1010 1044 1043
3 1010 1011 1044
3 1011 1045 1044
3 1011 1012 1045
3 1012 1046 1045
3 1012 1013 1046
3 1013 1047 1046
3 1013 1014 1047
3 1014 1048 1047
3 1014 1015 1048
3 1015 1049 1048
3 1015 1016 1049
3 1016 1050 1049
3 1016 1017 1050
3 1017 1051 1050
3 1017 1018 1051
3 1018 1052 1051
3 1018 1019 1052
3 1021 1053 1054
3 1021 1020 1053
3 1020 1055 1053
3 1020 1022 1055
3 1022 1056 1055
3 1022 1023 1056
3 1023 1057 1056
3 1023 1024 1057
3 1024 1058 1057
3 1024 1025 1058
3 1025 1059 1058
3 1025 1026 1059
3 1026 1060 1059
3 1026 1027 1060
3 1027 1061 1060
3 1027 1028 1061
3 1028 1062 1061
3 1028 1029 1062
3 1029 1063 1062
3 1029 1030 1063
3 1030 1064 1063
3 1030 1031 1064
3 1031 1065 1064
3 1031 1032 1065
3 1032 1066 1065
3 1032 1033 1066
3 1033 1067 1066
3 1033 1034 1067
3 1034 1068 1067
3 1034 1035 1068
3 1035 1069 1068
3 1035 1036 1069
3 1036 1070 1069
3 1036 1037 1070
3 1037 1071 1070
3 1037 1038 1071
3 1038 1072 1071
3 1038 1039 1072
3 1039 1073 1072
3 1039 1040 1073
3 1040 1074 1073
3 1040 1041 1074
3 1041 1075 1074
3 1041 1042 1075
3 1042 1076 1075
3 1042 1043 1076
3 1043 1077 1076
3 1043 1044 1077
3 1044 1078 1077
3 1044 1045 1078
3 1045 1079 1078
3 1045 1046 1079
3 1046 1080 1079
3 1046 1047 1080
3 1047 1081 1080
3 1047 1048 1081
3 1048 1082 1081
3 1048 1049 1082
3 1049 1083 1082
3 1049 1050 1083
3 1050 1084 1083
3 1050 1051 1084
3 1051 1085 1084
3 1051 1052 1085
3 1054 1086 1087
3 1054 1053 1086
3 1053 1088 1086
3 1053 1055 1088
3 1055 1089 1088
3 1055 1056 1089
3 1056 1090 1089
3 1056 1057 1090
3 1057 1091 1090
3 1057 1058 1091
3 1058 1092 1091
3 1058 1059 1092
3 1059 1093 1092
3 1059 1060 1093
3 1060 1094 1093
3 1060 1061 1094
3 1061 1095 1094
3 1061 1062 1095
3 1062 1096 1095
3 1062 1063 1096
3 1063 1097 1096
3 1063 1064 1097
3 1064 1098 1097
3 1064 1065 1098
3 1065 1099 1098
3 1065 1066 1099
3 1066 1100 1099
3 1066 1067 1100
3 1067 1101 1100
3 1067 1068 1101
3 1068 1102 1101
3 1068 1069 1102
3 1069 1103 1102
3 1069 1070 1103
3 1070 1104 1103
3 1070 1071 1104
3 1071 1105 1104
3 1071 1072 1105
3 1072 1106 1105
3 1072 1073 1106
3 1073 1107 1106
3 1073 1074 1107
3 1074 1108 1107
3 1074 1075 1108
3 1075 1109 1108
3 1075 1076 1109
3 1076 1110 1109
3 1076 1077 1110
3 1077 1111 1110
3 1077 1078 1111
3 1078 1112 1111
3 1078 1079 1112
3 1079 1113 1112
3 1079 1080 1113
3 1080 1114 1113
3 1080 1081 1114
3 1081 1115 1114
3 1081 1082 1115
3 1082 1116 1115
3 1082 1083 1116
3 1083 1084 1116
3 1116 1084 1117
3 1084 1118 1117
3 1084 1085 1118
3 1087 1119 1120
3 1087 1086 1119
3 1086 1121 1119
3 1086 1088 1121
3 1088 1122 1121
3 1088 1089 1122
3 1089 1123 1122
3 1089 1090 1123
3 1090 1124 1123
3 1090 1091 1124
3 1091 1125 1124
3 1091 1092 1125
3 1092 1126 1125
3 1092 1093 1126
3 1093 1127 1126
3 1093 1094 1127
3 1094 1128 1127
3 1094 1095 1128
3 1095 1129 1128
3 1095 1096 1129
3 1096 1130 1129
3 1096 1097 1130
3 1097 1131 1130
3 1097 1098 1131
3 1098 1132 1131
3 1098 1099 1132
3 1099 1133 1132
3 1099 1100 1133
3 1100 1134 1133
3 1100 1101 1134
3 1101 1135 1134
3 1101 1102 1135
3 1102 1136 1135
3 1102 1103 1136
3 1103 1137 1136
3 1103 1104 1137
3 1104 1138 1137
3 1104 1105 1138
3 1105 1139 1138
3 1105 1106 1139
3 1106 1140 1139
3 1106 1107 1140
3 1107 1141 1140
3 1107 1108 1141
3 1108 1142 1141
3 1108 1109 1142
3 1109 1143 1142
3 1109 1110 1143
3 1110 1144 1143
3 1110 1111 1144
3 1111 1145 1144
3 1111 1112 1145
3 1112 1146 1145
3 1112 1113 1146
3 1113 1147 1146
3 1113 1114 1147
3 1114 1148 1147
3 1114 1115 1148
3 1115 1149 1148
3 1115 1116 1149
3 1116 1150 1149
3 1116 1117 1150
3 1117 1151 1150
3 1117 1118 1151
3 1120 1152 1153
3 1120 1119 1152
3 1119 1154 1152
3 1119 1121 1154
3 1121 1155 1154
3 1121 1122 1155
3 1122 1156 1155
3 1122 1123 1156
3 1123 1157 1156
3 1123 1124 1157
3 1124 1158 1157
3 1124 1125 1158
3 1125 1159 1158
3 1125 1126 1159
3 1126 1160 1159
3 1126 1127 1160
3 1127 1161 1160
3 1127 1128 1161
3 1128 1162 1161
3 1128 1129 1162
3 1129 1163 1162
3 1129 1130 1163
3 1130 1164 1163
3 1130 1131 1164
3 1131 1165 1164
3 1131 1132 1165
3 1132 1166 1165
3 1132 1133 1166
3 1133 1167 1166
3 1133 1134 1167
3 1134 1168 1167
3 1134 1135 1168
3 1135 1169 1168
3 1135 1136 1169
3 1136 1170 1169
3 1136 1137 1170
3 1137 1171 1170
3 1137 1138 1171
3 1138 1172 1171
3 1138 1139 1172
3 1139 1173 1172
3 1139 1140 1173
3 1140 1174 1173
3 1140 1141 1174
3 1141 1175 1174
3 1141 1142 1175
3 1142 1176 1175
3 1142 1143 1176
3 1143 1177 1176
3 1143 1144 1177
3 1144 1178 1177
3 1144 1145 1178
3 1145 1179 1178
3 1145 1146 1179
3 1146 1180 1179
3 1146 1147 1180
3 1147 1181 1180
3 1147 1148 1181
3 1148 1182 1181
3 1148 1149 1182
3 1149 1183 1182
3 1149 1150 1183
3 1150 1184 1183
3 1150 1151 1184
3 1153 1185 1186
3 1153 1152 1185
3 1152 1187 1185
3 1152 1154 1187
3 1154 1188 1187
3 1154 1155 1188
3 1155 1189 1188
3 1155 1156 1189
3 1156 1190 1189
3 1156 1157 1190
3 1157 1191 1190
3 1157 1158 1191
3 1158 1192 1191
3 1158 1159 1192
3 1159 1193 1192
3 1159 1160 1193
3 1160 1194 1193
3 1160 1161 1194
3 1161 1195 1194
3 1161 1162 1195
3 1162 1196 1195
3 1162 1163 1196
3 1163 1197 1196
3 1163 1164 1197
3 1164 1198 1197
3 1164 1165 1198
3 1165 1199 1198
3 1165 1166 1199
3 1166 1200 1199
3 1166 1167 1200
3 1167 1201 1200
3 1167 1168 1201
3 1168 1202 1201
3 1168 1169 1202
3 1169 1203 1202
3 1169 1170 1203
3 1170 1204 1203
3 1170 1171 1204
3 1171 1205 1204
3 1171 1172 1205
3 1172 1206 1205
3 1172 1173 1206
3 1173 1207 1206
3 1173 1174 1207
3 1174 1208 1207
3 1174 1175 1208
3 1175 1209 1208
3 1175 1176 1209
3 1176 1210 1209
3 1176 1177 1210
3 1177 1211 1210
3 1177 1178 1211
3 1178 1212 1211
3 1178 1179 1212
3 1179 1213 1212
3 1179 1180 1213
3 1180 1214 1213
3 1180 1181 1214
3 1181 1215 1214
3 1181 1182 1215
3 1182 1216 1215
3 1182 1183 1216
3 1183 1217 1216
3 1183 1184 1217
3 1186 1218 1219
3 1186 1185 1218
3 1185 1220 1218
3 1185 1187 1220
3 1187 1221 1220
3 1187 1188 1221
3 1188 1222 1221
3 1188 1189 1222
3 1189 1223 1222
3 1189 1190 1223
3 1190 1224 1223
3 1190 1191 1224
3 1191 1225 1224
3 1191 1192 1225
3 1192 1226 1225
3 1192 1193 1226
3 1193 1227 1226
3 1193 1194 1227
3 1194 1228 1227
3 1194 1195 1228
3 1195 1229 1228
3 1195 1196 1229
3 1196 1230 1229
3 1196 1197 1230
3 1197 1231 1230
3 1197 1198 1231
3 1198 1232 1231
3 1198 1199 1232
3 1199 1233 1232
3 1199 1200 1233
3 1200 1234 1233
3 1200 1201 1234
3 1201 1235 1234
3 1201 1202 1235
3 1202 1236 1235
3 1202 1203 1236
3 1203 1237 1236
3 1203 1204 1237
3 1204 1238 1237
3 1204 1205 1238
3 1205 1239 1238
3 1205 1206 1239
3 1206 1240 1239
3 1206 1207 1240
3 1207 1241 1240
3 1207 1208 1241
3 1208 1242 1241
3 1208 1209 1242
3 1209 1243 1242
3 1209 1210 1243
3 1210 1244 1243
3 1210 1211 1244
3 1211 1245 1244
3 1211 1212 1245
3 1212 1246 1245
3 1212 1213 1246
3 1213 1247 1246
3 1213 1214 1247
3 1214 1248 1247
3 1214 1215 1248
3 1215 1249 1248
3 1215 1216 1249
3 1216 1250 1249
3 1216 1217 1250
3 1219 1218 1251
3 1251 1218 1252
3 1218 1253 1252
3 1218 1220 1253
3 1220 1254 1253
3 1220 1221 1254
3 1221 1255 1254
3 1221 1222 1255
3 1222 1256 1255
3 1222 1223 1256
3 1223 1257 1256
3 1223 1224 1257
3 1224 1258 1257
3 1224 1225 1258
3 1225 1259 1258
3 1225 1226 1259
3 1226 1227 1259
3 1259 1227 1260
3 1227 1228 1260
3 1260 1228 1261
3 1228 1262 1261
3 1228 1229 1262
3 1229 1263 1262
3 1229 1230 1263
3 1230 1264 1263
3 1230 1231 1264
3 1231 1265 1264
3 1231 1232 1265
3 1232 1266 1265
3 1232 1233 1266
3 1233 1267 1266
3 1233 1234 1267
3 1234 1235 1267
3 1267 1235 1268
3 1235 1269 1268
3 1235 1236 1269
3 1236 1270 1269
3 1236 1237 1270
3 1237 1271 1270
3 1237 1238 1271
3 1238 1239 1271
3 1271 1239 1272
3 1239 1240 1272
3 1272 1240 1273
3 1240 1241 1273
3 1273 1241 1274
3 1241 1242 1274
3 1274 1242 1275
3 1242 1243 1275
3 1275 1243 1276
3 1243 1244 1276
3 1276 1244 1277
3 1244 1278 1277
3 1244 1245 1278
3 1245 1279 1278
3 1245 1246 1279
3 1246 1280 1279
3 1246 1247 1280
3 1247 1281 1280
3 1247 1248 1281
3 1248 1249 1281
3 1281 1249 1282
3 1249 1250 1282
3 1282 1250 1283
3 1251 1252 1284
3 1284 1252 1285
3 1252 1253 1285
3 1285 1253 1286
3 1253 1287 1286
3 1253 1254 1287
3 1254 1288 1287
3 1254 1255 1288
3 1255 1289 1288
3 1255 1256 1289
3 1256 1290 1289
3 1256 1257 1290
3 1257 1291 1290
3 1257 1258 1291
3 1258 1292 1291
3 1258 1259 1292
3 1259 1260 1292
3 1292 1260 1293
3 1260 1261 1293
3 1293 1261 1294
3 1261 1295 1294
3 1261 1262 1295
3 1262 1296 1295
3 1262 1263 1296
3 1263 1297 1296
3 1263 1264 1297
3 1264 1298 1297
3 1264 1265 1298
3 1265 1299 1298
3 1265 1266 1299
3 1266 1267 1299
3 1299 1267 1300
3 1267 1268 1300
3 1300 1268 1301
3 1268 1269 1301
3 1301 1269 1302
3 1269 1270 1302
3 1302 1270 1303
3 1270 1271 1303
3 1303 1271 1304
3 1271 1272 1304
3 1304 1272 1305
3 1272 1273 1305
3 1305 1273 1306
3 1273 1274 1306
3 1306 1274 1307
3 1274 1275 1307
3 1307 1275 1308
3 1275 1276 1308
3 1308 1276 1309
3 1276 1277 1309
3 1309 1277 1310
3 1277 1278 1310
3 1310 1278 1311
3 1278 1279 1311
3 1311 1279 1312
3 1279 1313 1312
3 1279 1280 1313
3 1280 1281 1313
3 1313 1281 1314
3 1281 1282 1314
3 1314 1282 1315
3 1282 1283 1315
3 1315 1283 1316
3 1284 1285 1317
3 1317 1285 1318
3 1285 1319 1318
3 1285 1286 1319
3 1286 1320 1319
3 1286 1287 1320
3 1287 1321 1320
3 1287 1288 1321
3 1288 1322 1321
3 1288 1289 1322
3 1289 1323 1322
3 1289 1290 1323
3 1290 1324 1323
3 1290 1291 1324
3 1291 1325 1324
3 1291 1292 1325
3 1292 1293 1325
3 1325 1293 1326
3 1293 1294 1326
3 1326 1294 1327
3 1294 1328 1327
3 1294 1295 1328
3 1295 1329 1328
3 1295 1296 1329
3 1296 1330 1329
3 1296 1297 1330
3 1297 1331 1330
3 1297 1298 1331
3 1298 1332 1331
3 1298 1299 1332
3 1299 1300 1332
3 1332 1300 1333
3 1300 1301 1333
3 1333 1301 1334
3 1301 1302 1334
3 1334 1302 1335
3 1302 1303 1335
3 1335 1303 1336
3 1303 1304 1336
3 1336 1304 1337
3 1304 1305 1337
3 1337 1305 1338
3 1305 1306 1338
3 1338 1306 1339
3 1306 1307 1339
3 1339 1307 1340
3 1307 1308 1340
3 1340 1308 1341
3 1308 1309 1341
3 1341 1309 1342
3 1309 1310 1342
3 1342 1310 1343
3 1310 1311 1343
3 1343 1311 1344
3 1311 1312 1344
3 1344 1312 1345
3 1312 1346 1345
3 1312 1313 1346
3 1313 1314 1346
3 1346 1314 1347
3 1314 1315 1347
3 1347 1315 1348
3 1315 1316 1348
3 1348 1316 1349
3 1317 1318 1350
3 1350 1318 1351
3 1318 1352 1351
3 1318 1319 1352
3 1319 1353 1352
3 1319 1320 1353
3 1320 1354 1353
3 1320 1321 1354
3 1321 1355 1354
3 1321 1322 1355
3 1322 1356 1355
3 1322 1323 1356
3 1323 1357 1356
3 1323 1324 1357
3 1324 1358 1357
3 1324 1325 1358
3 1325 1326 1358
3 1358 1326 1359
3 1326 1327 1359
3 1359 1327 1360
3 1327 1361 1360
3 1327 1328 1361
3 1328 1362 1361
3 1328 1329 1362
3 1329 1363 1362
3 1329 1330 1363
3 1330 1364 1363
3 1330 1331 1364
3 1331 1365 1364
3 1331 1332 1365
3 1332 1333 1365
3 1365 1333 1366
3 1333 1334 1366
3 1366 1334 1367
3 1334 1335 1367
3 1367 1335 1368
3 1335 1369 1368
3 1335 1336 1369
3 1336 1337 1369
3 1369 1337 1370
3 1337 1338 1370
3 1370 1338 1371
3 1338 1339 1371
3 1371 1339 1372
3 1339 1340 1372
3 1372 1340 1373
3 1340 1341 1373
3 1373 1341 1374
3 1341 1342 1374
3 1374 1342 1375
3 1342 1343 1375
3 1375 1343 1376
3 1343 1344 1376
3 1376 1344 1377
3 1344 1345 1377
3 1377 1345 1378
3 1345 1379 1378
3 1345 1346 1379
3 1346 1380 1379
3 1346 1347 1380
3 1347 1348 1380
3 1380 1348 1381
3 1348 1349 1381
3 1381 1349 1382
3 1350 1383 1384
3 1350 1351 1383
3 1351 1385 1383
3 1351 1352 1385
3 1352 1386 1385
3 1352 1353 1386
3 1353 1387 1386
3 1353 1354 1387
3 1354 1388 1387
3 1354 1355 1388
3 1355 1389 1388
3 1355 1356 1389
3 1356 1390 1389
3 1356 1357 1390
3 1357 1391 1390
3 1357 1358 1391
3 1358 1392 1391
3 1358 1359 1392
3 1359 1393 1392
3 1359 1360 1393
3 1360 1394 1393
3 1360 1361 1394
3 1361 1395 1394
3 1361 1362 1395
3 1362 1396 1395
3 1362 1363 1396
3 1363 1397 1396
3 1363 1364 1397
3 1364 1398 1397
3 1364 1365 1398
3 1365 1399 1398
3 1365 1366 1399
3 1366 1400 1399
3 1366 1367 1400
3 1367 1401 1400
3 1367 1368 1401
3 1368 1402 1401
3 1368 1369 1402
3 1369 1403 1402
3 1369 1370 1403
3 1370 1404 1403
3 1370 1371 1404
3 1371 1405 1404
3 1371 1372 1405
3 1372 1406 1405
3 1372 1373 1406
3 1373 1407 1406
3 1373 1374 1407
3 1374 1408 1407
3 1374 1375 1408
3 1375 1409 1408
3 1375 1376 1409
3 1376 1410 1409
3 1376 1377 1410
3 1377 1411 1410
3 1377 1378 1411
3 1378 1412 1411
3 1378 1379 1412
3 1379 1413 1412
3 1379 1380 1413
3 1380 1414 1413
3 1380 1381 1414
3 1381 1415 1414
3 1381 1382 1415
3 1384 1383 1416
3 1383 1417 1416
3 1383 1385 1417
3 1385 1418 1417
3 1385 1386 1418
3 1386 1419 1418
3 1386 1387 1419
3 1387 1420 1419
3 1387 1388 1420
3 1388 1421 1420
3 1388 1389 1421
3 1389 1422 1421
3 1389 1390 1422
3 1390 1423 1422
3 1390 1391 1423
3 1391 1424 1423
3 1391 1392 1424
3 1392 1425 1424
3 1392 1393 1425
3 1393 1426 1425
3 1393 1394 1426
3 1394 1427 1426
3 1394 1395 1427
3 1395 1428 1427
3 1395 1396 1428
3 1396 1429 1428
3 1396 1397 1429
3 1397 1430 1429
3 1397 1398 1430
3 1398 1431 1430
3 1398 1399 1431
3 1399 1432 1431
3 1399 1400 1432
3 1400 1433 1432
3 1400 1401 1433
3 1401 1434 1433
3 1401 1402 1434
3 1402 1435 1434
3 1402 1403 1435
3 1403 1436 1435
3 1403 1404 1436
3 1404 1437 1436
3 1404 1405 1437
3 1405 1438 1437
3 1405 1406 1438
3 1406 1439 1438
3 1406 1407 1439
3 1407 1440 1439
3 1407 1408 1440
3 1408 1441 1440
3 1408 1409 1441
3 1409 1442 1441
3 1409 1410 1442
3 1410 1443 1442
3 1410 1411 1443
3 1411 1444 1443
3 1411 1412 1444
3 1412 1445 1444
3 1412 1413 1445
3 1413 1446 1445
3 1413 1414 1446
3 1414 1447 1446
3 1414 1415 1447
3 1420 1421 1448
3 1421 1449 1448
3 1421 1422 1449
3 1422 1450 1449
3 1422 1423 1450
3 1423 1451 1450
3 1423 1424 1451
3 1424 1452 1451
3 1424 1425 1452
3 1425 1453 1452
3 1425 1426 1453
3 1426 1454 1453
3 1426 1427 1454
3 1427 1455 1454
3 1427 1428 1455
3 1428 1456 1455
3 1428 1429 1456
3 1429 1457 1456
3 1429 1430 1457
3 1430 1458 1457
3 1430 1431 1458
3 1431 1459 1458
3 1431 1432 1459
3 1432 1460 1459
3 1432 1433 1460
3 1433 1461 1460
3 1433 1434 1461
3 1434 1462 1461
3 1434 1435 1462
3 1435 1463 1462
3 1435 1436 1463
3 1436 1464 1463
3 1436 1437 1464
3 1437 1465 1464
3 1437 1438 1465
3 1438 1466 1465
3 1438 1439 1466
3 1439 1467 1466
3 1439 1440 1467
3 1440 1468 1467
3 1440 1441 1468
3 1441 1469 1468
3 1441 1442 1469
3 1442 1470 1469
3 1442 1443 1470
3 1443 1471 1470
3 1443 1444 1471
3 1444 1472 1471
3 1444 1445 1472
3 1445 1473 1472
3 1445 1446 1473
3 1446 1474 1473
3 1446 1447 1474
3 1452 1453 1475
3 1453 1476 1475
3 1453 1454 1476
3 1454 1477 1476
3 1454 1455 1477
3 1455 1478 1477
3 1455 1456 1478
3 1456 1479 1478
3 1456 1457 1479
3 1457 1480 1479
3 1457 1458 1480
3 1458 1481 1480
3 1458 1459 1481
3 1459 1482 1481
3 1459 1460 1482
3 1460 1483 1482
3 1460 1461 1483
3 1461 1484 1483
3 1461 1462 1484
3 1462 1485 1484
3 1462 1463 1485
3 1463 1486 1485
3 1463 1464 1486
3 1464 1487 1486
3 1464 1465 1487
3 1465 1488 1487
3 1465 1466 1488
3 1466 1489 1488
3 1466 1467 1489
3 1467 1490 1489
3 1467 1468 1490
3 1468 1491 1490
3 1468 1469 1491
3 1469 1492 1491
3 1469 1470 1492
3 1470 1493 1492
3 1470 1471 1493
3 1471 1494 1493
3 1471 1472 1494
3 1472 1495 1494
3 1472 1473 1495
3 1473 1496 1495
3 1473 1474 1496
3 1474 1497 1496
3 1477 1478 1498
3 1478 1499 1498
3 1478 1479 1499
3 1479 1500 1499
3 1479 1480 1500
3 1480 1501 1500
3 1480 1481 1501
3 1481 1502 1501
3 1481 1482 1502
3 1482 1503 1502
3 1482 1483 1503
3 1483 1504 1503
3 1483 1484 1504
3 1484 1505 1504
3 1484 1485 1505
3 1485 1506 1505
3 1485 1486 1506
3 1486 1507 1506
3 1486 1487 1507
3 1487 1508 1507
3 1487 1488 1508
3 1488 1509 1508
3 1488 1489 1509
3 1489 1510 1509
3 1489 1490 1510
3 1490 1511 1510
3 1490 1491 1511
3 1491 1512 1511
3 1491 1492 1512
3 1492 1513 1512
3 1492 1493 1513
3 1493 1514 1513
3 1493 1494 1514
3 1494 1515 1514
3 1494 1495 1515
3 1495 1516 1515
3 1495 1496 1516
3 1496 1517 1516
3 1496 1497 1517
3 1502 1503 1518
3 1503 1519 1518
3 1503 1504 1519
3 1504 1520 1519
3 1504 1505 1520
3 1505 1521 1520
3 1505 1506 1521
3 1506 1522 1521
3 1506 1507 1522
3 1507 1523 1522
3 1507 1508 1523
3 1508 1524 1523
3 1508 1509 1524
3 1509 1525 1524
3 1509 1510 1525
3 1510 1526 1525
3 1510 1511 1526
3 1511 1527 1526
3 1511 1512 1527
3 1512 1528 1527
3 1512 1513 1528
3 1513 1529 1528
3 1513 1514 1529
3 1514 1530 1529
3 1514 1515 1530
3 1515 1531 1530
3 1515 1516 1531
3 1516 1532 1531
3 1516 1517 1532
3 1524 1525 1533
3 1533 1525 1534
3 1525 1526 1534
3 1534 1526 1535
3 1526 1536 1535
3 1526 1527 1536
3 1527 1537 1536
3 1527 1528 1537
3 1528 1538 1537
3 1528 1529 1538
3 1529 1530 1538
3 1538 1530 1539
3 1530 1531 1539
3 1539 1531 1540
3 1531 1541 1540
3 1531 1532 1541
3 1539 1540 1542
3 1540 1541 1543
CELL_DATA 2919
SCALARS brightness_temperature float
LOOKUP_TABLE default
POINT_DATA 1544
CELL_DATA 2919
SCALARS emission_angle float
LOOKUP_TABLE default
POINT_DATA 1544
CELL_DATA 2919
SCALARS incidence_angle float
LOOKUP_TABLE default
POINT_DATA 1544
CELL_DATA 2919
SCALARS phase_angle float
LOOKUP_TABLE default
POINT_DATA 1544
CELL_DATA 2919
SCALARS local_solar_time float
LOOKUP_TABLE default
POINT_DATA 1544
CELL_DATA 2919
SCALARS local_solar_time_normal_vector float
LOOKUP_TABLE default
CELL_DATA 2919
SCALARS pixel_x float
LOOKUP_TABLE default
POINT_DATA 1544
CELL_DATA 2919
SCALARS pixel_y float
LOOKUP_TABLE default
POINT_DATA 1544
CELL_DATA 2919
SCALARS longitude float
LOOKUP_TABLE default
POINT_DATA 1544
CELL_DATA 2919
SCALARS latitude float
LOOKUP_TABLE default
