# vtk DataFile Version 3.0
SHAPE_sfm_50k_v20200323
ASCII
DATASET POLYDATA
POINTS 1081 float
-0.4232 0.05851 -0.11441
-0.42136 0.06036 -0.11593
-0.42197 0.05809 -0.11708
-0.42061 0.06029 -0.11877
-0.42112 0.05797 -0.11991
-0.4197 0.05978 -0.12157
-0.42083 0.05783 -0.12289
-0.43242 0.05671 -0.09413
-0.43075 0.05871 -0.09577
-0.43095 0.05613 -0.0966
-0.42907 0.05877 -0.09815
-0.42947 0.05627 -0.09912
-0.42744 0.05934 -0.10051
-0.42801 0.05693 -0.10158
-0.42633 0.05957 -0.10319
-0.42678 0.05712 -0.10422
-0.42529 0.05918 -0.1059
-0.42586 0.0568 -0.10697
-0.42438 0.05875 -0.10864
-0.42511 0.05646 -0.10979
-0.42408 0.05875 -0.11158
-0.42435 0.05629 -0.11263
-0.42347 0.05607 -0.11544
-0.42253 0.05579 -0.11822
-0.42185 0.05575 -0.12111
-0.42186 0.05575 -0.12414
-0.43688 0.05553 -0.08735
-0.43547 0.05776 -0.08918
-0.43554 0.05518 -0.08997
-0.43418 0.05731 -0.09183
-0.43403 0.05468 -0.09249
-0.43264 0.05417 -0.09505
-0.43122 0.05361 -0.09756
-0.4299 0.0538 -0.10016
-0.42863 0.05454 -0.10271
-0.42737 0.05476 -0.10535
-0.42658 0.05452 -0.10816
-0.42561 0.05411 -0.11093
-0.42471 0.05391 -0.11373
-0.42383 0.05371 -0.11654
-0.42309 0.0535 -0.1194
-0.42259 0.05352 -0.12237
-0.42324 0.05381 -0.12532
-0.44202 0.05527 -0.07772
-0.44062 0.05683 -0.07947
-0.44099 0.05423 -0.08032
-0.43948 0.05615 -0.08209
-0.4398 0.05356 -0.08293
-0.43818 0.05586 -0.08471
-0.43844 0.05327 -0.08554
-0.43697 0.05291 -0.08808
-0.43566 0.05258 -0.09072
-0.43442 0.05216 -0.09338
-0.43321 0.05172 -0.09606
-0.43173 0.05112 -0.09856
-0.43027 0.05127 -0.10109
-0.42901 0.05203 -0.10364
-0.42805 0.05238 -0.1064
-0.42721 0.05215 -0.10923
-0.42618 0.05174 -0.11198
-0.42518 0.05152 -0.11476
-0.42427 0.05131 -0.11757
-0.42371 0.05116 -0.1205
-0.42368 0.05137 -0.12355
-0.44497 0.05493 -0.07355
-0.44308 0.05648 -0.07521
-0.44343 0.05379 -0.07578
-0.44223 0.05256 -0.0782
-0.44122 0.05153 -0.08079
-0.44018 0.0509 -0.08349
-0.4388 0.05063 -0.0861
-0.43742 0.05031 -0.08869
-0.43637 0.05006 -0.09145
-0.43529 0.04968 -0.0942
-0.43394 0.04918 -0.09682
-0.43231 0.04855 -0.09922
-0.43094 0.04875 -0.10181
-0.42975 0.04954 -0.10438
-0.42893 0.04996 -0.10719
-0.42799 0.04971 -0.11
-0.42707 0.04938 -0.11279
-0.42592 0.0491 -0.11552
-0.42496 0.04886 -0.11834
-0.4248 0.04887 -0.12136
-0.42529 0.04937 -0.12431
-0.42645 0.04999 -0.127
-0.45852 0.05344 -0.05462
-0.45726 0.05094 -0.05708
-0.45858 0.05053 -0.05446
-0.45711 0.05385 -0.05719
-0.45579 0.05079 -0.05955
-0.45559 0.05369 -0.05963
-0.45404 0.05336 -0.06213
-0.45432 0.05048 -0.06209
-0.45261 0.05088 -0.06447
-0.45239 0.05376 -0.06457
-0.45114 0.05164 -0.06696
-0.4504 0.05441 -0.0667
-0.44938 0.05242 -0.06925
-0.44843 0.05508 -0.06884
-0.44756 0.05284 -0.07162
-0.44658 0.05546 -0.07112
-0.44556 0.05219 -0.07371
-0.44403 0.05108 -0.07594
-0.44277 0.04986 -0.07834
-0.44169 0.04882 -0.0809
-0.4408 0.04824 -0.08366
-0.43955 0.04801 -0.08634
-0.4383 0.04774 -0.08901
-0.43716 0.04747 -0.09172
-0.43603 0.04706 -0.09445
-0.43454 0.0465 -0.09696
-0.43338 0.04605 -0.09961
-0.43199 0.04626 -0.10219
-0.43071 0.04704 -0.10473
-0.42966 0.04738 -0.10746
-0.42884 0.04719 -0.11029
-0.42828 0.04703 -0.11321
-0.42709 0.04676 -0.11593
-0.4261 0.04653 -0.11874
-0.42653 0.04687 -0.12168
-0.42708 0.04745 -0.12453
-0.42812 0.04798 -0.12724
-0.45743 0.04806 -0.05673
-0.45902 0.04766 -0.05427
-0.45609 0.04793 -0.05928
-0.45449 0.04763 -0.06174
-0.45275 0.04805 -0.06408
-0.45144 0.0488 -0.06666
-0.45004 0.04963 -0.06919
-0.44847 0.0501 -0.07176
-0.44625 0.04947 -0.07368
-0.44479 0.0484 -0.07597
-0.44368 0.04726 -0.07846
-0.44284 0.04631 -0.08115
-0.44158 0.04561 -0.08373
-0.44037 0.04538 -0.0864
-0.43933 0.04519 -0.08916
-0.43814 0.0449 -0.09187
-0.43686 0.04443 -0.09452
-0.43535 0.04389 -0.097
-0.43417 0.04341 -0.09963
-0.43294 0.04369 -0.10228
-0.43176 0.04453 -0.10484
-0.43066 0.04487 -0.10757
-0.42969 0.04465 -0.11034
-0.42927 0.04452 -0.1133
-0.42807 0.04428 -0.11602
-0.42711 0.04412 -0.11881
-0.42738 0.04435 -0.12174
-0.42793 0.04494 -0.12455
-0.42902 0.04538 -0.12726
-0.45792 0.04521 -0.05663
-0.45639 0.04509 -0.05907
-0.45463 0.04478 -0.06141
-0.453 0.04521 -0.06383
-0.45166 0.04597 -0.06638
-0.45035 0.04682 -0.06892
-0.44855 0.04727 -0.07127
-0.44693 0.04676 -0.07367
-0.44554 0.04573 -0.07603
-0.44461 0.04464 -0.07863
-0.44346 0.0436 -0.08117
-0.4422 0.04292 -0.08374
-0.44099 0.0427 -0.08641
-0.43994 0.04246 -0.08917
-0.43878 0.04217 -0.09188
-0.43748 0.04171 -0.09453
-0.43587 0.04117 -0.09695
-0.43462 0.04069 -0.09954
-0.43355 0.04101 -0.10225
-0.43247 0.04188 -0.10485
-0.43145 0.04227 -0.1076
-0.43045 0.04207 -0.11037
-0.42965 0.04184 -0.11322
-0.42841 0.04164 -0.11591
-0.42736 0.04153 -0.11868
-0.42701 0.04172 -0.12161
-0.42703 0.04243 -0.12449
-0.42782 0.04291 -0.12732
-0.45866 0.04242 -0.05677
-0.45698 0.04226 -0.05911
-0.45516 0.04196 -0.0614
-0.45347 0.04239 -0.06378
-0.45199 0.04315 -0.06625
-0.45083 0.04404 -0.06887
-0.44924 0.04454 -0.07135
-0.44777 0.0441 -0.07387
-0.44617 0.04302 -0.0761
-0.445 0.0419 -0.07859
-0.44373 0.04085 -0.08105
-0.44268 0.0402 -0.08374
-0.44132 0.03994 -0.08635
-0.43997 0.03968 -0.08895
-0.43876 0.03938 -0.09162
-0.43756 0.03892 -0.09429
-0.43605 0.03842 -0.09679
-0.43483 0.03796 -0.09941
-0.43382 0.03828 -0.10214
-0.43287 0.03918 -0.1048
-0.43194 0.0396 -0.10758
-0.43091 0.03942 -0.11036
-0.42977 0.03917 -0.11308
-0.42858 0.039 -0.11578
-0.42747 0.0389 -0.11852
-0.42664 0.03913 -0.12136
-0.42618 0.03996 -0.12418
-0.42626 0.04072 -0.12711
-0.4576 0.03946 -0.05875
-0.45967 0.03966 -0.05673
-0.45592 0.0392 -0.06114
-0.4543 0.03966 -0.06356
-0.45281 0.04043 -0.06603
-0.4515 0.04129 -0.06858
-0.45024 0.04189 -0.07122
-0.44907 0.04158 -0.07392
-0.44756 0.04057 -0.07627
-0.4463 0.03941 -0.07872
-0.44462 0.03823 -0.08086
-0.44311 0.03748 -0.08328
-0.44144 0.03723 -0.08571
-0.43986 0.03703 -0.08817
-0.43866 0.03673 -0.09082
-0.4374 0.03628 -0.09344
-0.43609 0.03578 -0.09603
-0.43518 0.03531 -0.09879
-0.43422 0.03565 -0.10157
-0.43329 0.03655 -0.10425
-0.43232 0.03698 -0.10701
-0.43124 0.03682 -0.10976
-0.43019 0.03662 -0.11251
-0.42904 0.03647 -0.11523
-0.42784 0.03636 -0.11793
-0.42665 0.03658 -0.12064
-0.42571 0.03746 -0.12335
-0.42542 0.0383 -0.12629
-0.45823 0.03669 -0.05828
-0.45997 0.03683 -0.05599
-0.45646 0.03643 -0.06061
-0.45496 0.03692 -0.06309
-0.45357 0.03771 -0.06562
-0.45194 0.03854 -0.06799
-0.4506 0.03912 -0.07059
-0.44992 0.0388 -0.07346
-0.44862 0.03785 -0.07598
-0.44706 0.03663 -0.07827
-0.44521 0.03549 -0.08034
-0.44307 0.03487 -0.08229
-0.44126 0.0347 -0.08461
-0.43957 0.03456 -0.087
-0.43829 0.03429 -0.08962
-0.4372 0.03378 -0.0923
-0.43606 0.03326 -0.09496
-0.43525 0.03276 -0.09775
-0.43452 0.03308 -0.10061
-0.43372 0.03401 -0.10333
-0.43259 0.03447 -0.10602
-0.43155 0.03435 -0.10877
-0.43054 0.03417 -0.11153
-0.42967 0.03404 -0.11436
-0.42846 0.03395 -0.11706
-0.42733 0.03417 -0.11979
-0.42602 0.03501 -0.12233
-0.42502 0.03595 -0.12505
-0.42553 0.03632 -0.12804
-0.45866 0.03385 -0.05802
-0.45695 0.03361 -0.0604
-0.45544 0.03411 -0.06288
-0.45402 0.03491 -0.06536
-0.45247 0.03578 -0.06774
-0.45091 0.03635 -0.07019
-0.44943 0.03604 -0.07269
-0.44819 0.03512 -0.0752
-0.44645 0.03398 -0.07733
-0.4446 0.0329 -0.07939
-0.44269 0.03226 -0.08153
-0.44086 0.03211 -0.08383
-0.43904 0.03202 -0.08614
-0.43766 0.03179 -0.08873
-0.43668 0.03124 -0.09145
-0.43571 0.03067 -0.09417
-0.43484 0.03017 -0.09694
-0.43431 0.03043 -0.09985
-0.43356 0.03137 -0.10256
-0.43252 0.03188 -0.10527
-0.43165 0.03176 -0.10808
-0.4308 0.0316 -0.1109
-0.42994 0.03149 -0.11371
-0.42895 0.03143 -0.1165
-0.42799 0.03168 -0.11928
-0.42678 0.03252 -0.12184
-0.42498 0.03343 -0.12409
-0.42428 0.0342 -0.12699
-0.45912 0.03101 -0.05819
-0.45752 0.0308 -0.06063
-0.45609 0.03134 -0.06316
-0.45463 0.03214 -0.06562
-0.45302 0.03301 -0.06799
-0.45115 0.03355 -0.07021
-0.44952 0.03325 -0.07263
-0.44789 0.03238 -0.07494
-0.44594 0.03131 -0.07691
-0.44407 0.03025 -0.07895
-0.44213 0.02961 -0.08107
-0.44021 0.0295 -0.0833
-0.43848 0.02939 -0.08568
-0.43706 0.02917 -0.08825
-0.43606 0.02863 -0.09097
-0.43529 0.028 -0.09376
-0.43407 0.0276 -0.09642
-0.43329 0.02794 -0.09925
-0.43267 0.02885 -0.10199
-0.43205 0.02926 -0.10484
-0.4313 0.02913 -0.10768
-0.43075 0.02896 -0.11057
-0.43012 0.02887 -0.11346
-0.42935 0.02883 -0.11631
-0.42808 0.02906 -0.11897
-0.42692 0.02991 -0.12154
-0.42519 0.03079 -0.12378
-0.42365 0.03164 -0.12625
-0.45967 0.02818 -0.05834
-0.45804 0.02798 -0.06079
-0.4566 0.02853 -0.06332
-0.4551 0.02934 -0.06577
-0.45344 0.0302 -0.06812
-0.4514 0.03075 -0.07023
-0.44958 0.03046 -0.07252
-0.44768 0.02964 -0.07464
-0.44577 0.02858 -0.07665
-0.4438 0.02755 -0.07862
-0.44183 0.02692 -0.08071
-0.43974 0.02686 -0.0828
-0.4379 0.02678 -0.08513
-0.43649 0.02655 -0.08773
-0.43561 0.02599 -0.0905
-0.43471 0.02539 -0.09326
-0.4337 0.02494 -0.09601
-0.43272 0.02533 -0.09878
-0.43205 0.02626 -0.10152
-0.4315 0.02667 -0.10438
-0.43107 0.0265 -0.10729
-0.43068 0.02633 -0.11023
-0.43008 0.02624 -0.11312
-0.42954 0.02621 -0.11603
-0.42834 0.02645 -0.11873
-0.42713 0.0273 -0.12129
-0.42576 0.02819 -0.12375
-0.42395 0.02896 -0.12599
-0.46027 0.02538 -0.05867
-0.45868 0.0252 -0.06115
-0.45712 0.02573 -0.06361
-0.45563 0.02655 -0.06607
-0.45371 0.02738 -0.06822
-0.45184 0.02798 -0.07048
-0.44972 0.02767 -0.07253
-0.44769 0.02687 -0.07452
-0.44579 0.02583 -0.07657
-0.44379 0.02481 -0.07853
-0.44173 0.0242 -0.08056
-0.43958 0.02414 -0.08259
-0.4375 0.0241 -0.08471
-0.4361 0.02388 -0.08731
-0.43515 0.02334 -0.09007
-0.4344 0.02273 -0.09288
-0.43337 0.02229 -0.09563
-0.43245 0.02267 -0.09843
-0.43162 0.02362 -0.10111
-0.43123 0.02402 -0.104
-0.4314 0.02382 -0.10699
-0.4307 0.02369 -0.1099
-0.42992 0.02363 -0.11277
-0.42934 0.0236 -0.11568
-0.42856 0.02383 -0.11852
-0.42758 0.02472 -0.12116
-0.42619 0.02561 -0.12362
-0.42448 0.02637 -0.12593
-0.42266 0.02711 -0.12815
-0.46082 0.02257 -0.05909
-0.45918 0.0224 -0.06154
-0.45757 0.02293 -0.06397
-0.45605 0.02375 -0.06641
-0.45419 0.02461 -0.06859
-0.45225 0.02522 -0.0708
-0.45009 0.02491 -0.07283
-0.44785 0.0241 -0.0746
-0.44587 0.02307 -0.07659
-0.44396 0.02208 -0.07866
-0.44179 0.02147 -0.08058
-0.43954 0.02141 -0.08251
-0.43718 0.02139 -0.08436
-0.43546 0.02124 -0.08685
-0.43485 0.02065 -0.08975
-0.43444 0.02005 -0.09265
-0.43367 0.0196 -0.09554
-0.43233 0.01999 -0.09816
-0.43133 0.02096 -0.10074
-0.43106 0.02134 -0.10364
-0.43139 0.02107 -0.10663
-0.43051 0.02104 -0.10956
-0.42978 0.021 -0.11244
-0.4295 0.02098 -0.1154
-0.42948 0.02132 -0.11839
-0.42805 0.02215 -0.12091
-0.42655 0.02303 -0.12332
-0.42485 0.02379 -0.12563
-0.42316 0.02453 -0.12795
-0.46093 0.01975 -0.05971
-0.45918 0.01957 -0.06209
-0.45764 0.02012 -0.06457
-0.45608 0.02095 -0.06696
-0.45437 0.02185 -0.06923
-0.45241 0.02247 -0.07143
-0.45007 0.02215 -0.07326
-0.44778 0.02134 -0.07493
-0.44593 0.02036 -0.07708
-0.44391 0.01936 -0.07905
-0.44169 0.01875 -0.08092
-0.43939 0.0187 -0.08279
-0.43709 0.01866 -0.08468
-0.43544 0.0185 -0.08718
-0.43514 0.01797 -0.09014
-0.43484 0.01733 -0.09308
-0.43354 0.01684 -0.09584
-0.43199 0.01731 -0.09832
-0.43106 0.01829 -0.10092
-0.43052 0.01871 -0.10376
-0.4302 0.0186 -0.10668
-0.43 0.01842 -0.10965
-0.42953 0.01837 -0.11257
-0.43005 0.01829 -0.11551
-0.43063 0.01862 -0.11874
-0.42846 0.01954 -0.12115
-0.42644 0.02041 -0.12322
-0.4253 0.02121 -0.12588
-0.42342 0.02193 -0.12808
-0.46095 0.01689 -0.06008
-0.45932 0.01674 -0.06254
-0.45776 0.0173 -0.06498
-0.45621 0.01814 -0.06738
-0.45455 0.01906 -0.06969
-0.45253 0.01968 -0.07182
-0.45028 0.01941 -0.07373
-0.44812 0.01866 -0.07557
-0.44616 0.01766 -0.07758
-0.44413 0.01666 -0.07952
-0.44185 0.01605 -0.0813
-0.43959 0.01602 -0.0832
-0.43747 0.01601 -0.08526
-0.4358 0.01583 -0.08768
-0.43528 0.01526 -0.09057
-0.43424 0.01458 -0.09331
-0.43273 0.01419 -0.09586
-0.43177 0.01459 -0.09859
-0.43106 0.01559 -0.10127
-0.43003 0.0161 -0.10397
-0.42974 0.01601 -0.1069
-0.42935 0.01586 -0.10983
-0.42904 0.01575 -0.11274
-0.42941 0.01559 -0.11568
-0.42967 0.01583 -0.11879
-0.4283 0.01689 -0.12147
-0.42626 0.01782 -0.12353
-0.4251 0.0186 -0.12617
-0.42319 0.01932 -0.12833
-0.46118 0.01401 -0.06017
-0.45957 0.01388 -0.06264
-0.45819 0.01448 -0.06519
-0.45659 0.01532 -0.06754
-0.45488 0.01624 -0.0698
-0.45316 0.01696 -0.07214
-0.45118 0.01684 -0.0744
-0.44889 0.01604 -0.07613
-0.44667 0.01495 -0.07776
-0.44461 0.01396 -0.07965
-0.44246 0.0134 -0.08157
-0.44025 0.01339 -0.08353
-0.43815 0.01339 -0.08559
-0.43636 0.01317 -0.08791
-0.43511 0.01252 -0.0905
-0.43387 0.0119 -0.09313
-0.43233 0.01152 -0.09561
-0.43128 0.01192 -0.0983
-0.43075 0.0129 -0.10101
-0.43015 0.01344 -0.10383
-0.4296 0.01338 -0.10675
-0.4289 0.01326 -0.10964
-0.42809 0.0133 -0.11246
-0.42782 0.01342 -0.11538
-0.42813 0.01361 -0.11834
-0.42787 0.01426 -0.12131
-0.42614 0.01521 -0.12365
-0.4248 0.01598 -0.12617
-0.42339 0.01671 -0.12864
-0.46125 0.01113 -0.06026
-0.45972 0.01102 -0.06278
-0.45828 0.01162 -0.06529
-0.45682 0.01248 -0.06773
-0.45515 0.01342 -0.07
-0.45359 0.01414 -0.07245
-0.45194 0.01405 -0.07504
-0.44945 0.01329 -0.07662
-0.44711 0.01224 -0.0781
-0.44508 0.01128 -0.08001
-0.44303 0.01076 -0.08205
-0.44088 0.01077 -0.08408
-0.43872 0.01075 -0.08609
-0.43681 0.01049 -0.08829
-0.43519 0.0098 -0.09065
-0.43354 0.00922 -0.09302
-0.43209 0.00883 -0.09552
-0.43098 0.00923 -0.09818
-0.43044 0.01021 -0.10086
-0.43021 0.0107 -0.10374
-0.42989 0.0106 -0.10677
-0.42855 0.01063 -0.10949
-0.4273 0.0108 -0.11217
-0.42735 0.01088 -0.11511
-0.42722 0.01118 -0.11805
-0.42733 0.01175 -0.12101
-0.42619 0.01258 -0.12367
-0.42499 0.01337 -0.12627
-0.42404 0.01418 -0.12894
-0.46153 0.00826 -0.06045
-0.45988 0.00815 -0.06289
-0.45837 0.00876 -0.06536
-0.45679 0.00963 -0.06772
-0.45531 0.01058 -0.07014
-0.4532 0.01131 -0.07214
-0.45128 0.01121 -0.07436
-0.44934 0.01047 -0.07645
-0.44727 0.00948 -0.0783
-0.44543 0.00856 -0.08044
-0.44341 0.00804 -0.08254
-0.44121 0.00804 -0.08453
-0.43897 0.00801 -0.08643
-0.43685 0.00775 -0.08843
-0.43513 0.00708 -0.09073
-0.43341 0.00652 -0.09304
-0.43192 0.00615 -0.09552
-0.43075 0.00656 -0.09816
-0.43009 0.00753 -0.10082
-0.42954 0.00804 -0.10367
-0.42874 0.00809 -0.10652
-0.42791 0.00807 -0.10935
-0.42744 0.00817 -0.11224
-0.42739 0.00829 -0.11517
-0.42745 0.00859 -0.11812
-0.42703 0.0092 -0.121
-0.42618 0.00997 -0.12374
-0.42534 0.01077 -0.12646
-0.42448 0.01161 -0.12917
-0.4618 0.00539 -0.06063
-0.46022 0.00529 -0.06314
-0.45875 0.00594 -0.06563
-0.45699 0.00679 -0.06786
-0.45511 0.00774 -0.06996
-0.45318 0.00849 -0.07209
-0.4511 0.00842 -0.07416
-0.44921 0.0077 -0.07629
-0.44737 0.00672 -0.0784
-0.44546 0.00579 -0.08047
-0.44336 0.00527 -0.08249
-0.44105 0.00528 -0.08433
-0.43887 0.00526 -0.08631
-0.43698 0.00503 -0.08855
-0.43518 0.00437 -0.09079
-0.43351 0.00382 -0.09314
-0.43222 0.00351 -0.09574
-0.43089 0.00389 -0.09833
-0.42977 0.00488 -0.10085
-0.42876 0.00549 -0.10354
-0.42807 0.00552 -0.10639
-0.42802 0.00545 -0.10934
-0.42778 0.00557 -0.11227
-0.42778 0.0057 -0.11522
-0.42827 0.0061 -0.1182
-0.4274 0.00663 -0.12105
-0.42653 0.00738 -0.12379
-0.4255 0.00815 -0.12647
-0.42427 0.00899 -0.12902
-0.46241 0.00258 -0.06104
-0.46132 0.00267 -0.06383
-0.45937 0.00317 -0.06603
-0.45727 0.00396 -0.06798
-0.45529 0.00491 -0.06998
-0.45341 0.00569 -0.07215
-0.45131 0.00563 -0.0742
-0.4495 0.00494 -0.07641
-0.4477 0.00398 -0.07857
-0.44568 0.00305 -0.08055
-0.44348 0.00254 -0.08244
-0.44121 0.00256 -0.08433
-0.43908 0.00255 -0.08636
-0.43712 0.00231 -0.08855
-0.43548 0.00168 -0.0909
-0.43404 0.00119 -0.09341
-0.43295 0.00097 -0.09615
-0.4314 0.00127 -0.09864
-0.42995 0.00223 -0.10099
-0.42884 0.00285 -0.1036
-0.42843 0.0029 -0.10649
-0.4288 0.00296 -0.10945
-0.42816 0.00295 -0.11237
-0.42839 0.00313 -0.11531
-0.42901 0.0036 -0.11832
-0.42787 0.00406 -0.12114
-0.42692 0.00478 -0.12387
-0.42549 0.00553 -0.12638
-0.42419 0.00638 -0.1289
-0.46342 -8e-05 -0.06172
-0.46175 -0.00021 -0.06417
-0.45962 0.00031 -0.06619
-0.45759 0.00114 -0.06819
-0.45582 0.00215 -0.07038
-0.45361 0.00288 -0.07224
-0.45157 0.00285 -0.07435
-0.44973 0.00217 -0.07652
-0.44788 0.00121 -0.07863
-0.44595 0.00032 -0.0807
-0.44381 -0.00016 -0.08267
-0.44155 -0.00013 -0.08457
-0.43939 -0.00015 -0.08656
-0.43744 -0.00039 -0.08875
-0.43593 -0.00099 -0.09119
-0.43493 -0.00134 -0.09392
-0.43428 -0.00134 -0.09693
-0.43214 -0.00128 -0.09908
-0.43053 -0.00036 -0.10132
-0.42941 0.00027 -0.10388
-0.4294 0.00042 -0.10677
-0.43011 0.0006 -0.10978
-0.4288 0.0004 -0.11261
-0.429 0.00058 -0.11554
-0.42956 0.001 -0.11856
-0.42846 0.00151 -0.1214
-0.42696 0.00216 -0.12392
-0.42558 0.00293 -0.12643
-0.42408 0.00378 -0.12882
-0.46179 -0.00308 -0.06379
-0.46377 -0.00296 -0.06163
-0.45985 -0.00253 -0.06594
-0.45797 -0.00169 -0.0681
-0.45628 -0.00067 -0.07036
-0.45417 0.00012 -0.07234
-0.45199 8e-05 -0.07428
-0.44999 -0.00059 -0.07631
-0.44812 -0.00153 -0.07839
-0.44642 -0.00239 -0.08067
-0.44439 -0.00285 -0.08275
-0.44222 -0.00279 -0.08476
-0.44009 -0.00278 -0.08677
-0.43812 -0.00302 -0.08892
-0.43662 -0.00362 -0.09136
-0.43584 -0.00393 -0.09415
-0.4352 -0.00404 -0.09718
-0.43318 -0.00381 -0.09945
-0.4313 -0.00294 -0.10149
-0.43012 -0.00231 -0.10404
-0.43031 -0.00213 -0.10693
-0.43066 -0.00216 -0.11
-0.42927 -0.0022 -0.11276
-0.42974 -0.002 -0.11569
-0.42981 -0.00172 -0.11874
-0.42855 -0.00117 -0.12147
-0.42749 -0.0004 -0.12415
-0.42589 0.00035 -0.12656
-0.42424 0.00117 -0.12883
-0.46469 -0.00568 -0.06173
-0.46286 -0.0057 -0.06402
-0.46067 -0.00528 -0.06595
-0.45862 -0.00444 -0.06796
-0.45665 -0.00346 -0.06997
-0.4547 -0.00264 -0.07209
-0.45264 -0.00263 -0.07415
-0.45062 -0.00329 -0.07616
-0.44883 -0.00419 -0.07833
-0.447 -0.00506 -0.08047
-0.44496 -0.00552 -0.08255
-0.44279 -0.00546 -0.08455
-0.44077 -0.00543 -0.08666
-0.43905 -0.00558 -0.08902
-0.43762 -0.00616 -0.09149
-0.43644 -0.0066 -0.09413
-0.43553 -0.0068 -0.09697
-0.43384 -0.00649 -0.09942
-0.43215 -0.00551 -0.10162
-0.43095 -0.00488 -0.10415
-0.43064 -0.00483 -0.10703
-0.43034 -0.00488 -0.10998
-0.42949 -0.00484 -0.11282
-0.42994 -0.0047 -0.11578
-0.42958 -0.00442 -0.11878
-0.42845 -0.00384 -0.12149
-0.42768 -0.00311 -0.1243
-0.42622 -0.0023 -0.12683
-0.4243 -0.00145 -0.12892
-0.42276 -0.00136 -0.1314
-0.46483 -0.00757 -0.06489
-0.4625 -0.00735 -0.06671
-0.45997 -0.00691 -0.06825
-0.45766 -0.0061 -0.06998
-0.45559 -0.0053 -0.072
-0.45354 -0.00528 -0.07404
-0.45167 -0.00587 -0.07623
-0.4497 -0.00681 -0.0782
-0.44782 -0.00767 -0.08029
-0.44571 -0.00814 -0.08231
-0.44353 -0.00808 -0.0843
-0.44159 -0.00802 -0.08649
-0.43999 -0.00813 -0.08894
-0.43848 -0.00875 -0.09137
-0.4371 -0.00924 -0.09391
-0.4359 -0.00946 -0.09659
-0.43461 -0.00907 -0.09922
-0.43305 -0.00807 -0.10153
-0.4318 -0.00745 -0.10407
-0.43061 -0.0075 -0.10672
-0.43014 -0.0075 -0.10962
-0.4298 -0.00744 -0.11254
-0.4296 -0.00731 -0.11548
-0.42937 -0.00703 -0.11845
-0.42818 -0.00643 -0.12115
-0.42714 -0.00571 -0.12383
-0.42583 -0.00495 -0.12639
-0.42436 -0.0041 -0.12881
-0.42289 -0.004 -0.13135
-0.4672 -0.00925 -0.06591
-0.46477 -0.00909 -0.06777
-0.46195 -0.00892 -0.06898
-0.45919 -0.00848 -0.07014
-0.45667 -0.00788 -0.07165
-0.45466 -0.00782 -0.07367
-0.45304 -0.00837 -0.0761
-0.45077 -0.00933 -0.07779
-0.44895 -0.01016 -0.07993
-0.44694 -0.01058 -0.08207
-0.44481 -0.01049 -0.08414
-0.4428 -0.01045 -0.08626
-0.44113 -0.0106 -0.08864
-0.43956 -0.01122 -0.09103
-0.43815 -0.0117 -0.09357
-0.43673 -0.01197 -0.09612
-0.43546 -0.01159 -0.09876
-0.43411 -0.01053 -0.10122
-0.43244 -0.00999 -0.10357
-0.43117 -0.01004 -0.10618
-0.43062 -0.01003 -0.10907
-0.43036 -0.00995 -0.11202
-0.42981 -0.00985 -0.11492
-0.42927 -0.00953 -0.11782
-0.42817 -0.00897 -0.12055
-0.42673 -0.00815 -0.123
-0.42516 -0.00732 -0.12537
-0.42409 -0.00661 -0.12805
-0.4226 -0.0065 -0.13055
-0.46894 -0.01201 -0.06634
-0.46628 -0.01194 -0.06809
-0.46355 -0.01158 -0.06947
-0.46063 -0.01103 -0.07029
-0.45787 -0.01041 -0.07129
-0.45577 -0.01037 -0.07318
-0.45374 -0.01095 -0.07518
-0.45172 -0.01185 -0.07715
-0.44986 -0.01268 -0.07928
-0.44798 -0.01308 -0.08152
-0.44601 -0.01293 -0.08376
-0.44412 -0.01282 -0.08601
-0.44227 -0.01303 -0.08826
-0.44074 -0.01365 -0.09068
-0.43938 -0.0141 -0.09326
-0.43798 -0.01435 -0.09584
-0.43648 -0.01404 -0.09836
-0.43501 -0.01302 -0.10074
-0.43357 -0.01237 -0.10319
-0.43256 -0.01231 -0.1059
-0.43187 -0.01235 -0.10878
-0.43088 -0.01249 -0.11157
-0.43035 -0.01237 -0.11447
-0.43024 -0.01199 -0.11751
-0.42856 -0.0115 -0.12007
-0.42697 -0.01068 -0.12245
-0.42518 -0.00986 -0.12468
-0.424 -0.00912 -0.1273
-0.42258 -0.00901 -0.12983
-0.46671 -0.01514 -0.06744
-0.46386 -0.01455 -0.06849
-0.4612 -0.01391 -0.06973
-0.45851 -0.01313 -0.07076
-0.45641 -0.01309 -0.0727
-0.45443 -0.01363 -0.07476
-0.45265 -0.01447 -0.07697
-0.4507 -0.0153 -0.07904
-0.44886 -0.01567 -0.0813
-0.44704 -0.01546 -0.08365
-0.44519 -0.01533 -0.08596
-0.44333 -0.01554 -0.08822
-0.44181 -0.01616 -0.09067
-0.4404 -0.01663 -0.0932
-0.43924 -0.01674 -0.09592
-0.43754 -0.01651 -0.09833
-0.43611 -0.01546 -0.1007
-0.43463 -0.01484 -0.10315
-0.43376 -0.01471 -0.10594
-0.43287 -0.01481 -0.10877
-0.43174 -0.01498 -0.11151
-0.43084 -0.01496 -0.11432
-0.43032 -0.01469 -0.11728
-0.42887 -0.01413 -0.11989
-0.42716 -0.01327 -0.12218
-0.42538 -0.01246 -0.12442
-0.42404 -0.0117 -0.12695
-0.42287 -0.01159 -0.12965
-0.46971 -0.01551 -0.06597
-0.46619 -0.01769 -0.0656
-0.46364 -0.0172 -0.06718
-0.46102 -0.01655 -0.06854
-0.45849 -0.01585 -0.06997
-0.45639 -0.01583 -0.07199
-0.45472 -0.01638 -0.07435
-0.45298 -0.01723 -0.07661
-0.45117 -0.01801 -0.07881
-0.44948 -0.01836 -0.08118
-0.44786 -0.01809 -0.08368
-0.44615 -0.0179 -0.08609
-0.44442 -0.01805 -0.0885
-0.44271 -0.01874 -0.09081
-0.44135 -0.01918 -0.09335
-0.44023 -0.01926 -0.09608
-0.43873 -0.01892 -0.09863
-0.43706 -0.018 -0.10089
-0.43564 -0.01734 -0.10335
-0.43482 -0.01717 -0.10617
-0.43394 -0.01727 -0.10903
-0.43276 -0.01747 -0.11177
-0.43128 -0.01758 -0.11436
-0.42999 -0.01734 -0.11701
-0.42863 -0.01675 -0.11957
-0.42727 -0.01589 -0.12207
-0.42579 -0.01505 -0.12449
-0.42446 -0.01427 -0.12703
-0.423 -0.01419 -0.12959
-0.42126 -0.0123 -0.13206
-0.46264 -0.01959 -0.06587
-0.46479 -0.01963 -0.06384
-0.46063 -0.0193 -0.06804
-0.45834 -0.01866 -0.06983
-0.45636 -0.01862 -0.072
-0.45452 -0.01915 -0.07423
-0.45286 -0.01999 -0.07655
-0.45121 -0.02077 -0.07888
-0.4497 -0.02109 -0.08138
-0.44825 -0.02081 -0.08396
-0.4466 -0.0206 -0.08643
-0.44489 -0.02075 -0.08887
-0.44329 -0.02139 -0.09124
-0.44212 -0.02178 -0.09386
-0.4416 -0.02169 -0.09685
-0.44016 -0.02129 -0.0996
-0.43764 -0.02064 -0.10129
-0.43642 -0.01991 -0.1038
-0.43584 -0.01973 -0.10675
-0.4346 -0.01998 -0.10953
-0.43278 -0.02021 -0.11193
-0.43147 -0.02028 -0.11461
-0.42972 -0.01997 -0.11699
-0.42824 -0.01935 -0.11946
-0.42703 -0.01851 -0.12202
-0.42654 -0.01758 -0.12488
-0.42538 -0.01679 -0.12761
-0.42321 -0.0168 -0.12978
-0.42167 -0.01488 -0.13218
-0.42166 -0.01753 -0.13222
-0.4619 -0.02226 -0.06516
-0.46009 -0.02204 -0.06749
-0.45841 -0.02149 -0.06989
-0.45644 -0.02142 -0.07208
-0.45441 -0.02193 -0.07415
-0.45273 -0.02274 -0.07645
-0.45119 -0.02352 -0.07887
-0.44983 -0.02384 -0.08147
-0.44849 -0.02355 -0.0841
-0.44709 -0.0233 -0.08673
-0.44527 -0.02345 -0.08908
-0.44374 -0.02406 -0.09151
-0.44265 -0.02446 -0.0942
-0.4413 -0.02462 -0.09685
-0.44013 -0.02424 -0.09961
-0.43817 -0.02329 -0.10168
-0.43684 -0.02259 -0.10419
-0.43527 -0.02253 -0.10672
-0.4338 -0.02268 -0.10929
-0.43204 -0.02279 -0.11168
-0.43056 -0.02282 -0.11424
-0.42918 -0.02255 -0.11683
-0.4278 -0.02195 -0.11938
-0.42705 -0.02113 -0.12213
-0.42669 -0.02027 -0.12507
-0.42508 -0.01954 -0.12757
-0.42325 -0.01945 -0.1299
-0.42144 -0.02016 -0.13218
-0.45992 -0.02486 -0.0672
-0.46158 -0.02507 -0.06475
-0.45816 -0.02428 -0.06952
-0.45629 -0.02422 -0.07179
-0.45444 -0.02471 -0.07404
-0.45299 -0.0255 -0.07651
-0.45124 -0.02627 -0.07878
-0.44973 -0.02659 -0.0813
-0.44865 -0.02631 -0.08406
-0.44733 -0.02605 -0.08671
-0.44578 -0.02613 -0.08924
-0.44456 -0.02667 -0.0919
-0.44297 -0.0272 -0.09436
-0.44136 -0.02736 -0.09684
-0.43992 -0.02702 -0.0994
-0.43855 -0.02603 -0.10184
-0.43688 -0.02532 -0.1042
-0.43525 -0.02522 -0.10668
-0.43344 -0.0253 -0.10903
-0.43178 -0.02541 -0.11147
-0.4303 -0.02544 -0.11403
-0.42892 -0.02516 -0.11663
-0.42768 -0.02458 -0.11926
-0.42717 -0.02374 -0.12207
-0.4266 -0.02287 -0.12496
-0.42453 -0.0221 -0.1271
-0.42288 -0.02204 -0.12955
-0.42095 -0.0227 -0.13172
-0.45965 -0.02768 -0.06728
-0.46129 -0.02791 -0.06484
-0.45797 -0.02709 -0.06965
-0.45617 -0.027 -0.07199
-0.45443 -0.02747 -0.07433
-0.45265 -0.02826 -0.07659
-0.45118 -0.02901 -0.07907
-0.44958 -0.02932 -0.08152
-0.44832 -0.02904 -0.08417
-0.44719 -0.02882 -0.08689
-0.44598 -0.02889 -0.08961
-0.44487 -0.02947 -0.09236
-0.44293 -0.02995 -0.09463
-0.44143 -0.03009 -0.09722
-0.43951 -0.02971 -0.09944
-0.43822 -0.02876 -0.10191
-0.43683 -0.02806 -0.10447
-0.4348 -0.02786 -0.10665
-0.43317 -0.02793 -0.10911
-0.43176 -0.02805 -0.11168
-0.43057 -0.02805 -0.11439
-0.42917 -0.02777 -0.11699
-0.42814 -0.02716 -0.11966
-0.42766 -0.02631 -0.12248
-0.42679 -0.02544 -0.12534
-0.42454 -0.02471 -0.12736
-0.42246 -0.02462 -0.12945
-0.42052 -0.02527 -0.1316
-0.4597 -0.03051 -0.0673
-0.46137 -0.03075 -0.06487
-0.45802 -0.0299 -0.06968
-0.45645 -0.02978 -0.07218
-0.45477 -0.03022 -0.07458
-0.45293 -0.031 -0.07679
-0.45118 -0.03175 -0.07906
-0.44949 -0.03206 -0.08146
-0.44802 -0.03175 -0.084
-0.44675 -0.03152 -0.08666
-0.44551 -0.03161 -0.08934
-0.44424 -0.03221 -0.09197
-0.4428 -0.03268 -0.09454
-0.44114 -0.03279 -0.09702
-0.43933 -0.03239 -0.09933
-0.43777 -0.03141 -0.10164
-0.43618 -0.03067 -0.10403
-0.43466 -0.03053 -0.10658
-0.43309 -0.03058 -0.10907
-0.43174 -0.03069 -0.11168
-0.43063 -0.03071 -0.11442
-0.42951 -0.03041 -0.11715
-0.42829 -0.0298 -0.11975
-0.42772 -0.02902 -0.12257
-0.4265 -0.02818 -0.12527
-0.42459 -0.02737 -0.12754
-0.42224 -0.02722 -0.12936
-0.42015 -0.02783 -0.13134
-0.45996 -0.03332 -0.06704
-0.46159 -0.03357 -0.06457
-0.45839 -0.03269 -0.06951
-0.45671 -0.03256 -0.07192
-0.45504 -0.03299 -0.07432
-0.45314 -0.03374 -0.07648
-0.45142 -0.03447 -0.07878
-0.44961 -0.03477 -0.0811
-0.44803 -0.03444 -0.08359
-0.44668 -0.03419 -0.08621
-0.44546 -0.03428 -0.0889
-0.44417 -0.03487 -0.0915
-0.44291 -0.03537 -0.09415
-0.44146 -0.03549 -0.09676
-0.43981 -0.03507 -0.09923
-0.43791 -0.03406 -0.10132
-0.43609 -0.03329 -0.10351
-0.43464 -0.03315 -0.10606
-0.43319 -0.0332 -0.10864
-0.43172 -0.03329 -0.1112
-0.43045 -0.03329 -0.11387
-0.4295 -0.03302 -0.11667
-0.42836 -0.03242 -0.11933
-0.42734 -0.03161 -0.122
-0.42597 -0.03071 -0.12451
-0.42433 -0.02997 -0.12694
-0.42206 -0.02979 -0.12885
-0.41997 -0.03038 -0.13085
-0.46006 -0.03612 -0.06658
-0.46175 -0.03639 -0.06415
-0.45851 -0.03547 -0.06905
-0.45701 -0.03533 -0.07158
-0.4552 -0.03574 -0.07388
-0.45345 -0.03647 -0.07617
-0.45179 -0.03719 -0.07852
-0.44994 -0.03747 -0.08081
-0.44845 -0.03713 -0.08335
-0.44694 -0.03688 -0.08589
-0.44558 -0.03697 -0.0885
-0.44429 -0.03757 -0.0911
-0.44295 -0.03807 -0.09371
-0.44144 -0.0382 -0.09628
-0.43998 -0.03781 -0.09887
-0.43831 -0.03676 -0.10114
-0.43626 -0.03594 -0.10315
-0.43448 -0.03576 -0.10548
-0.4332 -0.03582 -0.10814
-0.43185 -0.0359 -0.11077
-0.43064 -0.03588 -0.11348
-0.42933 -0.03558 -0.11611
-0.42807 -0.03497 -0.11873
-0.42681 -0.03408 -0.12126
-0.42536 -0.03312 -0.12367
-0.42386 -0.03243 -0.12615
-0.42183 -0.03233 -0.1283
-0.4202 -0.03298 -0.13071
-0.46013 -0.03894 -0.06629
-0.45854 -0.03828 -0.06874
-0.4572 -0.03813 -0.07137
-0.45529 -0.0385 -0.07361
-0.45385 -0.03922 -0.07613
-0.45193 -0.03993 -0.07831
-0.45034 -0.04019 -0.08077
-0.44892 -0.03983 -0.08337
-0.4472 -0.03959 -0.08578
-0.44565 -0.03968 -0.08829
-0.44425 -0.04029 -0.09084
-0.44272 -0.04077 -0.09334
-0.44122 -0.04089 -0.09591
-0.43954 -0.04047 -0.09834
-0.4381 -0.03948 -0.10076
-0.43637 -0.03865 -0.10304
-0.43444 -0.03842 -0.10526
-0.43292 -0.03843 -0.10779
-0.43168 -0.03853 -0.11046
-0.43068 -0.03851 -0.11327
-0.42939 -0.0382 -0.11594
-0.42785 -0.03754 -0.1184
-0.42634 -0.03658 -0.12076
-0.42493 -0.03564 -0.12319
-0.42365 -0.03498 -0.1258
-0.42197 -0.03494 -0.12825
-0.42014 -0.03558 -0.13051
-0.41831 -0.03335 -0.13294
-0.46175 -0.03922 -0.06382
-0.46016 -0.04177 -0.06623
-0.45871 -0.0411 -0.06874
-0.45693 -0.04091 -0.0711
-0.45512 -0.04127 -0.0734
-0.45359 -0.04198 -0.07586
-0.45194 -0.04267 -0.07824
-0.42497 -0.03825 -0.12308
-0.42372 -0.03758 -0.1257
-0.42206 -0.03755 -0.1282
-0.41831 -0.03594 -0.1328
-0.42003 -0.03818 -0.1303
POLYGONS 2020 8080
3 0 1 2
3 1 3 2
3 2 3 4
3 3 5 4
3 4 5 6
3 7 8 9
3 8 10 9
3 9 10 11
3 10 12 11
3 11 12 13
3 12 14 13
3 13 14 15
3 14 16 15
3 15 16 17
3 16 18 17
3 17 18 19
3 18 20 19
3 19 20 21
3 20 0 21
3 21 0 22
3 0 2 22
3 22 2 23
3 2 4 23
3 23 4 24
3 4 6 24
3 24 6 25
3 26 27 28
3 27 29 28
3 28 29 30
3 29 7 30
3 30 7 31
3 7 9 31
3 31 9 32
3 9 11 32
3 32 11 33
3 11 13 33
3 33 13 34
3 13 15 34
3 34 15 35
3 15 17 35
3 35 17 36
3 17 19 36
3 36 19 37
3 19 21 37
3 37 21 38
3 21 22 38
3 38 22 39
3 22 23 39
3 39 23 40
3 23 24 40
3 40 24 41
3 24 25 41
3 41 25 42
3 43 44 45
3 44 46 45
3 45 46 47
3 46 48 47
3 47 48 49
3 48 26 49
3 49 26 50
3 26 28 50
3 50 28 51
3 28 30 51
3 51 30 52
3 30 31 52
3 52 31 53
3 31 32 53
3 53 32 54
3 32 33 54
3 54 33 55
3 33 34 55
3 55 34 56
3 34 35 56
3 56 35 57
3 35 36 57
3 57 36 58
3 36 37 58
3 58 37 59
3 37 38 59
3 59 38 60
3 38 39 60
3 60 39 61
3 39 40 61
3 61 40 62
3 40 41 62
3 62 41 63
3 41 42 63
3 64 65 66
3 65 43 66
3 66 43 67
3 43 45 67
3 67 45 68
3 45 47 68
3 68 47 69
3 47 49 69
3 69 49 70
3 49 50 70
3 70 50 71
3 50 51 71
3 71 51 72
3 51 52 72
3 72 52 73
3 52 53 73
3 73 53 74
3 53 54 74
3 74 54 75
3 54 55 75
3 75 55 76
3 55 77 76
3 55 56 77
3 56 57 77
3 77 57 78
3 57 58 78
3 78 58 79
3 58 59 79
3 79 59 80
3 59 60 80
3 80 60 81
3 60 61 81
3 81 61 82
3 61 62 82
3 82 62 83
3 62 63 83
3 83 63 84
3 63 85 84
3 86 87 88
3 86 89 87
3 89 90 87
3 89 91 90
3 91 92 90
3 90 92 93
3 92 94 93
3 92 95 94
3 95 96 94
3 95 97 96
3 97 98 96
3 97 99 98
3 99 100 98
3 99 101 100
3 101 64 100
3 100 64 102
3 64 66 102
3 102 66 103
3 66 67 103
3 103 67 104
3 67 68 104
3 104 68 105
3 68 69 105
3 105 69 106
3 69 70 106
3 106 70 107
3 70 71 107
3 107 71 108
3 71 72 108
3 108 72 109
3 72 73 109
3 109 73 110
3 73 74 110
3 110 74 111
3 74 75 111
3 111 75 112
3 75 113 112
3 75 76 113
3 76 114 113
3 76 77 114
3 77 115 114
3 77 78 115
3 78 79 115
3 115 79 116
3 79 80 116
3 116 80 117
3 80 81 117
3 117 81 118
3 81 82 118
3 118 82 119
3 82 120 119
3 82 83 120
3 83 121 120
3 83 84 121
3 84 122 121
3 88 123 124
3 88 87 123
3 87 125 123
3 87 90 125
3 90 126 125
3 90 93 126
3 93 127 126
3 93 94 127
3 94 128 127
3 94 96 128
3 96 129 128
3 96 98 129
3 98 130 129
3 98 100 130
3 100 102 130
3 130 102 131
3 102 103 131
3 131 103 132
3 103 104 132
3 132 104 133
3 104 105 133
3 133 105 134
3 105 106 134
3 134 106 135
3 106 107 135
3 135 107 136
3 107 108 136
3 136 108 137
3 108 109 137
3 137 109 138
3 109 110 138
3 138 110 139
3 110 111 139
3 139 111 140
3 111 112 140
3 140 112 141
3 112 142 141
3 112 113 142
3 113 143 142
3 113 114 143
3 114 144 143
3 114 115 144
3 115 116 144
3 144 116 145
3 116 146 145
3 116 117 146
3 117 118 146
3 146 118 147
3 118 148 147
3 118 119 148
3 119 149 148
3 119 120 149
3 120 150 149
3 120 121 150
3 121 151 150
3 121 122 151
3 124 123 152
3 123 153 152
3 123 125 153
3 125 154 153
3 125 126 154
3 126 155 154
3 126 127 155
3 127 156 155
3 127 128 156
3 128 157 156
3 128 129 157
3 129 158 157
3 129 130 158
3 130 131 158
3 158 131 159
3 131 132 159
3 159 132 160
3 132 133 160
3 160 133 161
3 133 134 161
3 161 134 162
3 134 135 162
3 162 135 163
3 135 136 163
3 163 136 164
3 136 137 164
3 164 137 165
3 137 138 165
3 165 138 166
3 138 139 166
3 166 139 167
3 139 140 167
3 167 140 168
3 140 141 168
3 168 141 169
3 141 170 169
3 141 142 170
3 142 171 170
3 142 143 171
3 143 172 171
3 143 144 172
3 144 145 172
3 172 145 173
3 145 146 173
3 173 146 174
3 146 175 174
3 146 147 175
3 147 176 175
3 147 148 176
3 148 177 176
3 148 149 177
3 149 178 177
3 149 150 178
3 150 151 178
3 178 151 179
3 152 153 180
3 180 153 181
3 153 154 181
3 181 154 182
3 154 183 182
3 154 155 183
3 155 184 183
3 155 156 184
3 156 185 184
3 156 157 185
3 157 186 185
3 157 158 186
3 158 159 186
3 186 159 187
3 159 160 187
3 187 160 188
3 160 161 188
3 188 161 189
3 161 162 189
3 189 162 190
3 162 163 190
3 190 163 191
3 163 164 191
3 191 164 192
3 164 165 192
3 192 165 193
3 165 194 193
3 165 166 194
3 166 167 194
3 194 167 195
3 167 168 195
3 195 168 196
3 168 169 196
3 196 169 197
3 169 198 197
3 169 170 198
3 170 199 198
3 170 171 199
3 171 200 199
3 171 172 200
3 172 173 200
3 200 173 201
3 173 174 201
3 201 174 202
3 174 203 202
3 174 175 203
3 175 204 203
3 175 176 204
3 176 205 204
3 176 177 205
3 177 206 205
3 177 178 206
3 178 207 206
3 178 179 207
3 180 208 209
3 180 181 208
3 181 210 208
3 181 182 210
3 182 211 210
3 182 183 211
3 183 212 211
3 183 184 212
3 184 213 212
3 184 185 213
3 185 214 213
3 185 186 214
3 186 187 214
3 214 187 215
3 187 188 215
3 215 188 216
3 188 189 216
3 216 189 217
3 189 190 217
3 217 190 218
3 190 191 218
3 218 191 219
3 191 220 219
3 191 192 220
3 192 221 220
3 192 193 221
3 193 222 221
3 193 194 222
3 194 223 222
3 194 195 223
3 195 224 223
3 195 196 224
3 196 225 224
3 196 197 225
3 197 226 225
3 197 198 226
3 198 227 226
3 198 199 227
3 199 228 227
3 199 200 228
3 200 229 228
3 200 201 229
3 201 230 229
3 201 202 230
3 202 231 230
3 202 203 231
3 203 232 231
3 203 204 232
3 204 233 232
3 204 205 233
3 205 234 233
3 205 206 234
3 206 235 234
3 206 207 235
3 209 236 237
3 209 208 236
3 208 238 236
3 208 210 238
3 210 239 238
3 210 211 239
3 211 240 239
3 211 212 240
3 212 241 240
3 212 213 241
3 213 242 241
3 213 214 242
3 214 243 242
3 214 215 243
3 215 216 243
3 243 216 244
3 216 217 244
3 244 217 245
3 217 218 245
3 245 218 246
3 218 247 246
3 218 219 247
3 219 248 247
3 219 220 248
3 220 249 248
3 220 221 249
3 221 250 249
3 221 222 250
3 222 251 250
3 222 223 251
3 223 252 251
3 223 224 252
3 224 253 252
3 224 225 253
3 225 254 253
3 225 226 254
3 226 255 254
3 226 227 255
3 227 256 255
3 227 228 256
3 228 257 256
3 228 229 257
3 229 258 257
3 229 230 258
3 230 259 258
3 230 231 259
3 231 260 259
3 231 232 260
3 232 261 260
3 232 233 261
3 233 262 261
3 233 234 262
3 234 263 262
3 234 235 263
3 235 264 263
3 237 236 265
3 236 266 265
3 236 238 266
3 238 267 266
3 238 239 267
3 239 268 267
3 239 240 268
3 240 269 268
3 240 241 269
3 241 270 269
3 241 242 270
3 242 271 270
3 242 243 271
3 243 244 271
3 271 244 272
3 244 245 272
3 272 245 273
3 245 246 273
3 273 246 274
3 246 275 274
3 246 247 275
3 247 276 275
3 247 248 276
3 248 277 276
3 248 249 277
3 249 278 277
3 249 250 278
3 250 279 278
3 250 251 279
3 251 280 279
3 251 252 280
3 252 281 280
3 252 253 281
3 253 282 281
3 253 254 282
3 254 283 282
3 254 255 283
3 255 284 283
3 255 256 284
3 256 285 284
3 256 257 285
3 257 286 285
3 257 258 286
3 258 287 286
3 258 259 287
3 259 288 287
3 259 260 288
3 260 289 288
3 260 261 289
3 261 290 289
3 261 262 290
3 262 291 290
3 262 263 291
3 263 292 291
3 263 264 292
3 265 266 293
3 293 266 294
3 266 295 294
3 266 267 295
3 267 296 295
3 267 268 296
3 268 297 296
3 268 269 297
3 269 298 297
3 269 270 298
3 270 271 298
3 298 271 299
3 271 272 299
3 299 272 300
3 272 273 300
3 300 273 301
3 273 274 301
3 301 274 302
3 274 275 302
3 302 275 303
3 275 304 303
3 275 276 304
3 276 305 304
3 276 277 305
3 277 306 305
3 277 278 306
3 278 279 306
3 306 279 307
3 279 280 307
3 307 280 308
3 280 281 308
3 308 281 309
3 281 310 309
3 281 282 310
3 282 311 310
3 282 283 311
3 283 312 311
3 283 284 312
3 284 313 312
3 284 285 313
3 285 314 313
3 285 286 314
3 286 315 314
3 286 287 315
3 287 316 315
3 287 288 316
3 288 317 316
3 288 289 317
3 289 318 317
3 289 290 318
3 290 319 318
3 290 291 319
3 291 320 319
3 291 292 320
3 293 294 321
3 321 294 322
3 294 323 322
3 294 295 323
3 295 324 323
3 295 296 324
3 296 325 324
3 296 297 325
3 297 326 325
3 297 298 326
3 298 299 326
3 326 299 327
3 299 300 327
3 327 300 328
3 300 301 328
3 328 301 329
3 301 302 329
3 329 302 330
3 302 303 330
3 330 303 331
3 303 332 331
3 303 304 332
3 304 333 332
3 304 305 333
3 305 334 333
3 305 306 334
3 306 307 334
3 334 307 335
3 307 308 335
3 335 308 336
3 308 309 336
3 336 309 337
3 309 338 337
3 309 310 338
3 310 339 338
3 310 311 339
3 311 340 339
3 311 312 340
3 312 341 340
3 312 313 341
3 313 342 341
3 313 314 342
3 314 343 342
3 314 315 343
3 315 344 343
3 315 316 344
3 316 345 344
3 316 317 345
3 317 346 345
3 317 318 346
3 318 347 346
3 318 319 347
3 319 348 347
3 319 320 348
3 321 322 349
3 349 322 350
3 322 351 350
3 322 323 351
3 323 352 351
3 323 324 352
3 324 353 352
3 324 325 353
3 325 354 353
3 325 326 354
3 326 327 354
3 354 327 355
3 327 328 355
3 355 328 356
3 328 329 356
3 356 329 357
3 329 330 357
3 357 330 358
3 330 331 358
3 358 331 359
3 331 360 359
3 331 332 360
3 332 361 360
3 332 333 361
3 333 362 361
3 333 334 362
3 334 335 362
3 362 335 363
3 335 336 363
3 363 336 364
3 336 337 364
3 364 337 365
3 337 366 365
3 337 338 366
3 338 367 366
3 338 339 367
3 339 368 367
3 339 340 368
3 340 369 368
3 340 341 369
3 341 370 369
3 341 342 370
3 342 371 370
3 342 343 371
3 343 372 371
3 343 344 372
3 344 373 372
3 344 345 373
3 345 374 373
3 345 346 374
3 346 375 374
3 346 347 375
3 347 376 375
3 347 348 376
3 348 377 376
3 349 350 378
3 378 350 379
3 350 380 379
3 350 351 380
3 351 381 380
3 351 352 381
3 352 382 381
3 352 353 382
3 353 383 382
3 353 354 383
3 354 355 383
3 383 355 384
3 355 356 384
3 384 356 385
3 356 357 385
3 385 357 386
3 357 358 386
3 386 358 387
3 358 359 387
3 387 359 388
3 359 389 388
3 359 360 389
3 360 390 389
3 360 361 390
3 361 391 390
3 361 362 391
3 362 363 391
3 391 363 392
3 363 364 392
3 392 364 393
3 364 365 393
3 393 365 394
3 365 395 394
3 365 366 395
3 366 396 395
3 366 367 396
3 367 397 396
3 367 368 397
3 368 398 397
3 368 369 398
3 369 399 398
3 369 370 399
3 370 400 399
3 370 371 400
3 371 401 400
3 371 372 401
3 372 402 401
3 372 373 402
3 373 403 402
3 373 374 403
3 374 404 403
3 374 375 404
3 375 405 404
3 375 376 405
3 376 406 405
3 376 377 406
3 378 379 407
3 407 379 408
3 379 409 408
3 379 380 409
3 380 410 409
3 380 381 410
3 381 411 410
3 381 382 411
3 382 412 411
3 382 383 412
3 383 384 412
3 412 384 413
3 384 385 413
3 413 385 414
3 385 386 414
3 414 386 415
3 386 387 415
3 415 387 416
3 387 388 416
3 416 388 417
3 388 389 417
3 417 389 418
3 389 390 418
3 418 390 419
3 390 391 419
3 419 391 420
3 391 392 420
3 420 392 421
3 392 393 421
3 421 393 422
3 393 394 422
3 422 394 423
3 394 424 423
3 394 395 424
3 395 425 424
3 395 396 425
3 396 426 425
3 396 397 426
3 397 398 426
3 426 398 427
3 398 399 427
3 427 399 428
3 399 400 428
3 428 400 429
3 400 401 429
3 429 401 430
3 401 431 430
3 401 402 431
3 402 432 431
3 402 403 432
3 403 433 432
3 403 404 433
3 404 434 433
3 404 405 434
3 405 435 434
3 405 406 435
3 407 408 436
3 436 408 437
3 408 438 437
3 408 409 438
3 409 439 438
3 409 410 439
3 410 440 439
3 410 411 440
3 411 441 440
3 411 412 441
3 412 413 441
3 441 413 442
3 413 414 442
3 442 414 443
3 414 415 443
3 443 415 444
3 415 416 444
3 444 416 445
3 416 417 445
3 445 417 446
3 417 418 446
3 446 418 447
3 418 419 447
3 447 419 448
3 419 420 448
3 448 420 449
3 420 421 449
3 449 421 450
3 421 422 450
3 450 422 451
3 422 423 451
3 451 423 452
3 423 453 452
3 423 424 453
3 424 454 453
3 424 425 454
3 425 455 454
3 425 426 455
3 426 427 455
3 455 427 456
3 427 428 456
3 456 428 457
3 428 429 457
3 457 429 458
3 429 430 458
3 458 430 459
3 430 431 459
3 459 431 460
3 431 461 460
3 431 432 461
3 432 462 461
3 432 433 462
3 433 463 462
3 433 434 463
3 434 464 463
3 434 435 464
3 436 437 465
3 465 437 466
3 437 467 466
3 437 438 467
3 438 468 467
3 438 439 468
3 439 469 468
3 439 440 469
3 440 470 469
3 440 441 470
3 441 442 470
3 470 442 471
3 442 443 471
3 471 443 472
3 443 444 472
3 472 444 473
3 444 445 473
3 473 445 474
3 445 446 474
3 474 446 475
3 446 447 475
3 475 447 476
3 447 448 476
3 476 448 477
3 448 449 477
3 477 449 478
3 449 450 478
3 478 450 479
3 450 451 479
3 479 451 480
3 451 452 480
3 480 452 481
3 452 482 481
3 452 453 482
3 453 483 482
3 453 454 483
3 454 484 483
3 454 455 484
3 455 485 484
3 455 456 485
3 456 457 485
3 485 457 486
3 457 487 486
3 457 458 487
3 458 459 487
3 487 459 488
3 459 489 488
3 459 460 489
3 460 490 489
3 460 461 490
3 461 491 490
3 461 462 491
3 462 492 491
3 462 463 492
3 463 493 492
3 463 464 493
3 465 466 494
3 494 466 495
3 466 496 495
3 466 467 496
3 467 497 496
3 467 468 497
3 468 498 497
3 468 469 498
3 469 499 498
3 469 470 499
3 470 471 499
3 499 471 500
3 471 472 500
3 500 472 501
3 472 473 501
3 501 473 502
3 473 474 502
3 502 474 503
3 474 475 503
3 503 475 504
3 475 476 504
3 504 476 505
3 476 477 505
3 505 477 506
3 477 478 506
3 506 478 507
3 478 479 507
3 507 479 508
3 479 480 508
3 508 480 509
3 480 481 509
3 509 481 510
3 481 511 510
3 481 482 511
3 482 512 511
3 482 483 512
3 483 513 512
3 483 484 513
3 484 485 513
3 513 485 514
3 485 515 514
3 485 486 515
3 486 516 515
3 486 487 516
3 487 517 516
3 487 488 517
3 488 518 517
3 488 489 518
3 489 519 518
3 489 490 519
3 490 520 519
3 490 491 520
3 491 521 520
3 491 492 521
3 492 522 521
3 492 493 522
3 494 495 523
3 523 495 524
3 495 525 524
3 495 496 525
3 496 526 525
3 496 497 526
3 497 527 526
3 497 498 527
3 498 528 527
3 498 499 528
3 499 529 528
3 499 500 529
3 500 501 529
3 529 501 530
3 501 502 530
3 530 502 531
3 502 503 531
3 531 503 532
3 503 504 532
3 532 504 533
3 504 505 533
3 533 505 534
3 505 506 534
3 534 506 535
3 506 507 535
3 535 507 536
3 507 508 536
3 536 508 537
3 508 509 537
3 537 509 538
3 509 510 538
3 538 510 539
3 510 540 539
3 510 511 540
3 511 541 540
3 511 512 541
3 512 542 541
3 512 513 542
3 513 514 542
3 542 514 543
3 514 515 543
3 543 515 544
3 515 545 544
3 515 516 545
3 516 546 545
3 516 517 546
3 517 547 546
3 517 518 547
3 518 548 547
3 518 519 548
3 519 549 548
3 519 520 549
3 520 550 549
3 520 521 550
3 521 551 550
3 521 522 551
3 523 524 552
3 552 524 553
3 524 554 553
3 524 525 554
3 525 555 554
3 525 526 555
3 526 556 555
3 526 527 556
3 527 557 556
3 527 528 557
3 528 558 557
3 528 529 558
3 529 530 558
3 558 530 559
3 530 531 559
3 559 531 560
3 531 532 560
3 560 532 561
3 532 533 561
3 561 533 562
3 533 563 562
3 533 534 563
3 534 564 563
3 534 535 564
3 535 536 564
3 564 536 565
3 536 537 565
3 565 537 566
3 537 538 566
3 566 538 567
3 538 539 567
3 567 539 568
3 539 569 568
3 539 540 569
3 540 570 569
3 540 541 570
3 541 571 570
3 541 542 571
3 542 543 571
3 571 543 572
3 543 544 572
3 572 544 573
3 544 574 573
3 544 545 574
3 545 575 574
3 545 546 575
3 546 576 575
3 546 547 576
3 547 577 576
3 547 548 577
3 548 578 577
3 548 549 578
3 549 579 578
3 549 550 579
3 550 580 579
3 550 551 580
3 552 553 581
3 581 553 582
3 553 583 582
3 553 554 583
3 554 584 583
3 554 555 584
3 555 585 584
3 555 556 585
3 556 586 585
3 556 557 586
3 557 558 586
3 586 558 587
3 558 559 587
3 587 559 588
3 559 560 588
3 588 560 589
3 560 561 589
3 589 561 590
3 561 562 590
3 590 562 591
3 562 592 591
3 562 563 592
3 563 593 592
3 563 564 593
3 564 565 593
3 593 565 594
3 565 566 594
3 594 566 595
3 566 567 595
3 595 567 596
3 567 568 596
3 596 568 597
3 568 598 597
3 568 569 598
3 569 599 598
3 569 570 599
3 570 600 599
3 570 571 600
3 571 601 600
3 571 572 601
3 572 602 601
3 572 573 602
3 573 603 602
3 573 574 603
3 574 604 603
3 574 575 604
3 575 605 604
3 575 576 605
3 576 606 605
3 576 577 606
3 577 607 606
3 577 578 607
3 578 608 607
3 578 579 608
3 579 609 608
3 579 580 609
3 581 582 610
3 610 582 611
3 582 612 611
3 582 583 612
3 583 613 612
3 583 584 613
3 584 614 613
3 584 585 614
3 585 615 614
3 585 586 615
3 586 587 615
3 615 587 616
3 587 588 616
3 616 588 617
3 588 589 617
3 617 589 618
3 589 590 618
3 618 590 619
3 590 591 619
3 619 591 620
3 591 592 620
3 620 592 621
3 592 593 621
3 621 593 622
3 593 594 622
3 622 594 623
3 594 595 623
3 623 595 624
3 595 596 624
3 624 596 625
3 596 597 625
3 625 597 626
3 597 598 626
3 626 598 627
3 598 628 627
3 598 599 628
3 599 629 628
3 599 600 629
3 600 601 629
3 629 601 630
3 601 631 630
3 601 602 631
3 602 603 631
3 631 603 632
3 603 633 632
3 603 604 633
3 604 634 633
3 604 605 634
3 605 635 634
3 605 606 635
3 606 636 635
3 606 607 636
3 607 637 636
3 607 608 637
3 608 638 637
3 608 609 638
3 610 639 640
3 610 611 639
3 611 641 639
3 611 612 641
3 612 642 641
3 612 613 642
3 613 643 642
3 613 614 643
3 614 644 643
3 614 615 644
3 615 645 644
3 615 616 645
3 616 617 645
3 645 617 646
3 617 618 646
3 646 618 647
3 618 619 647
3 647 619 648
3 619 620 648
3 648 620 649
3 620 650 649
3 620 621 650
3 621 622 650
3 650 622 651
3 622 623 651
3 651 623 652
3 623 624 652
3 652 624 653
3 624 625 653
3 653 625 654
3 625 626 654
3 654 626 655
3 626 656 655
3 626 627 656
3 627 657 656
3 627 628 657
3 628 658 657
3 628 629 658
3 629 659 658
3 629 630 659
3 630 660 659
3 630 631 660
3 631 632 660
3 660 632 661
3 632 662 661
3 632 633 662
3 633 663 662
3 633 634 663
3 634 664 663
3 634 635 664
3 635 665 664
3 635 636 665
3 636 666 665
3 636 637 666
3 637 667 666
3 637 638 667
3 668 639 669
3 639 670 669
3 639 641 670
3 641 671 670
3 641 642 671
3 642 672 671
3 642 643 672
3 643 673 672
3 643 644 673
3 644 674 673
3 644 645 674
3 645 646 674
3 674 646 675
3 646 647 675
3 675 647 676
3 647 648 676
3 676 648 677
3 648 649 677
3 677 649 678
3 649 679 678
3 649 650 679
3 650 680 679
3 650 651 680
3 651 652 680
3 680 652 681
3 652 653 681
3 681 653 682
3 653 654 682
3 682 654 683
3 654 684 683
3 654 655 684
3 655 685 684
3 655 656 685
3 656 686 685
3 656 657 686
3 657 687 686
3 657 658 687
3 658 688 687
3 658 659 688
3 659 660 688
3 688 660 689
3 660 661 689
3 689 661 690
3 661 691 690
3 661 662 691
3 662 692 691
3 662 663 692
3 663 693 692
3 663 664 693
3 664 694 693
3 664 665 694
3 665 695 694
3 665 666 695
3 666 696 695
3 666 667 696
3 667 697 696
3 669 670 698
3 698 670 699
3 670 700 699
3 670 671 700
3 671 701 700
3 671 672 701
3 672 702 701
3 672 673 702
3 673 703 702
3 673 674 703
3 674 675 703
3 703 675 704
3 675 676 704
3 704 676 705
3 676 677 705
3 705 677 706
3 677 678 706
3 706 678 707
3 678 708 707
3 678 679 708
3 679 709 708
3 679 680 709
3 680 710 709
3 680 681 710
3 681 682 710
3 710 682 711
3 682 683 711
3 711 683 712
3 683 713 712
3 683 684 713
3 684 714 713
3 684 685 714
3 685 715 714
3 685 686 715
3 686 716 715
3 686 687 716
3 687 717 716
3 687 688 717
3 688 718 717
3 688 689 718
3 689 719 718
3 689 690 719
3 690 720 719
3 690 691 720
3 691 721 720
3 691 692 721
3 692 722 721
3 692 693 722
3 693 723 722
3 693 694 723
3 694 724 723
3 694 695 724
3 695 725 724
3 695 696 725
3 696 726 725
3 698 699 727
3 727 699 728
3 699 700 728
3 728 700 729
3 700 730 729
3 700 701 730
3 701 731 730
3 701 702 731
3 702 732 731
3 702 703 732
3 703 704 732
3 732 704 733
3 704 705 733
3 733 705 734
3 705 706 734
3 734 706 735
3 706 736 735
3 706 707 736
3 707 737 736
3 707 708 737
3 708 738 737
3 708 709 738
3 709 739 738
3 709 710 739
3 710 711 739
3 739 711 740
3 711 741 740
3 711 712 741
3 712 742 741
3 712 713 742
3 713 743 742
3 713 714 743
3 714 744 743
3 714 715 744
3 715 745 744
3 715 716 745
3 716 746 745
3 716 717 746
3 717 747 746
3 717 718 747
3 718 748 747
3 718 719 748
3 719 749 748
3 719 720 749
3 720 750 749
3 720 721 750
3 721 751 750
3 721 722 751
3 722 752 751
3 722 723 752
3 723 753 752
3 723 724 753
3 724 754 753
3 724 725 754
3 725 755 754
3 725 726 755
3 727 728 756
3 756 728 757
3 728 758 757
3 728 729 758
3 729 759 758
3 729 730 759
3 730 760 759
3 730 731 760
3 731 761 760
3 731 732 761
3 732 762 761
3 732 733 762
3 733 734 762
3 762 734 763
3 734 735 763
3 763 735 764
3 735 765 764
3 735 736 765
3 736 766 765
3 736 737 766
3 737 767 766
3 737 738 767
3 738 768 767
3 738 739 768
3 739 769 768
3 739 740 769
3 740 770 769
3 740 741 770
3 741 771 770
3 741 742 771
3 742 772 771
3 742 743 772
3 743 773 772
3 743 744 773
3 744 774 773
3 744 745 774
3 745 775 774
3 745 746 775
3 746 776 775
3 746 747 776
3 747 777 776
3 747 748 777
3 748 778 777
3 748 749 778
3 749 779 778
3 749 750 779
3 750 780 779
3 750 751 780
3 751 781 780
3 751 752 781
3 752 782 781
3 752 753 782
3 753 783 782
3 753 754 783
3 754 784 783
3 754 755 784
3 756 757 785
3 757 786 785
3 757 758 786
3 758 787 786
3 758 759 787
3 759 788 787
3 759 760 788
3 760 789 788
3 760 761 789
3 761 762 789
3 789 762 790
3 762 763 790
3 790 763 791
3 763 764 791
3 791 764 792
3 764 765 792
3 792 765 793
3 765 794 793
3 765 766 794
3 766 795 794
3 766 767 795
3 767 796 795
3 767 768 796
3 768 769 796
3 796 769 797
3 769 770 797
3 797 770 798
3 770 799 798
3 770 771 799
3 771 800 799
3 771 772 800
3 772 801 800
3 772 773 801
3 773 802 801
3 773 774 802
3 774 803 802
3 774 775 803
3 775 804 803
3 775 776 804
3 776 805 804
3 776 777 805
3 777 806 805
3 777 778 806
3 778 807 806
3 778 779 807
3 779 808 807
3 779 780 808
3 780 809 808
3 780 781 809
3 781 810 809
3 781 782 810
3 782 811 810
3 782 783 811
3 783 812 811
3 783 784 812
3 813 785 814
3 785 815 814
3 785 786 815
3 786 816 815
3 786 787 816
3 787 817 816
3 787 788 817
3 788 818 817
3 788 789 818
3 789 790 818
3 818 790 819
3 790 791 819
3 819 791 820
3 791 792 820
3 820 792 821
3 792 793 821
3 821 793 822
3 793 823 822
3 793 794 823
3 794 824 823
3 794 795 824
3 795 796 824
3 824 796 825
3 796 797 825
3 825 797 826
3 797 798 826
3 826 798 827
3 798 799 827
3 827 799 828
3 799 829 828
3 799 800 829
3 800 830 829
3 800 801 830
3 801 831 830
3 801 802 831
3 802 832 831
3 802 803 832
3 803 804 832
3 832 804 833
3 804 805 833
3 833 805 834
3 805 806 834
3 834 806 835
3 806 836 835
3 806 807 836
3 807 837 836
3 807 808 837
3 808 838 837
3 808 809 838
3 809 839 838
3 809 810 839
3 810 840 839
3 810 811 840
3 811 841 840
3 811 812 841
3 812 842 841
3 814 843 844
3 814 815 843
3 815 845 843
3 815 816 845
3 816 846 845
3 816 817 846
3 817 847 846
3 817 818 847
3 818 819 847
3 847 819 848
3 819 820 848
3 848 820 849
3 820 821 849
3 849 821 850
3 821 822 850
3 850 822 851
3 822 852 851
3 822 823 852
3 823 824 852
3 852 824 853
3 824 825 853
3 853 825 854
3 825 826 854
3 854 826 855
3 826 827 855
3 855 827 856
3 827 828 856
3 856 828 857
3 828 829 857
3 857 829 858
3 829 859 858
3 829 830 859
3 830 860 859
3 830 831 860
3 831 832 860
3 860 832 861
3 832 833 861
3 861 833 862
3 833 834 862
3 862 834 863
3 834 835 863
3 863 835 864
3 835 865 864
3 835 836 865
3 836 866 865
3 836 837 866
3 837 867 866
3 837 838 867
3 838 868 867
3 838 839 868
3 839 869 868
3 839 840 869
3 840 841 869
3 869 841 870
3 841 871 870
3 870 871 872
3 844 843 873
3 843 874 873
3 843 845 874
3 845 875 874
3 845 846 875
3 846 847 875
3 875 847 876
3 847 848 876
3 876 848 877
3 848 849 877
3 877 849 878
3 849 850 878
3 878 850 879
3 850 851 879
3 879 851 880
3 851 881 880
3 851 852 881
3 852 882 881
3 852 853 882
3 853 854 882
3 882 854 883
3 854 855 883
3 883 855 884
3 855 856 884
3 884 856 885
3 856 857 885
3 885 857 886
3 857 887 886
3 857 858 887
3 858 888 887
3 858 859 888
3 859 889 888
3 859 860 889
3 860 861 889
3 889 861 890
3 861 862 890
3 890 862 891
3 862 863 891
3 891 863 892
3 863 893 892
3 863 864 893
3 864 894 893
3 864 865 894
3 865 895 894
3 865 866 895
3 866 896 895
3 866 867 896
3 867 897 896
3 867 868 897
3 868 898 897
3 868 869 898
3 869 870 898
3 898 870 899
3 870 872 899
3 899 872 900
3 873 901 902
3 873 874 901
3 874 903 901
3 874 875 903
3 875 904 903
3 875 876 904
3 876 877 904
3 904 877 905
3 877 878 905
3 905 878 906
3 878 879 906
3 906 879 907
3 879 880 907
3 907 880 908
3 880 909 908
3 880 881 909
3 881 910 909
3 881 882 910
3 882 883 910
3 910 883 911
3 883 884 911
3 911 884 912
3 884 885 912
3 912 885 913
3 885 886 913
3 913 886 914
3 886 915 914
3 886 887 915
3 887 916 915
3 887 888 916
3 888 917 916
3 888 889 917
3 889 918 917
3 889 890 918
3 890 891 918
3 918 891 919
3 891 892 919
3 919 892 920
3 892 921 920
3 892 893 921
3 893 922 921
3 893 894 922
3 894 923 922
3 894 895 923
3 895 924 923
3 895 896 924
3 896 925 924
3 896 897 925
3 897 926 925
3 897 898 926
3 898 927 926
3 898 899 927
3 899 900 927
3 927 900 928
3 902 929 930
3 902 901 929
3 901 931 929
3 901 903 931
3 903 904 931
3 931 904 932
3 904 905 932
3 932 905 933
3 905 906 933
3 933 906 934
3 906 907 934
3 934 907 935
3 907 908 935
3 935 908 936
3 908 937 936
3 908 909 937
3 909 938 937
3 909 910 938
3 910 911 938
3 938 911 939
3 911 912 939
3 939 912 940
3 912 913 940
3 940 913 941
3 913 914 941
3 941 914 942
3 914 943 942
3 914 915 943
3 915 944 943
3 915 916 944
3 916 945 944
3 916 917 945
3 917 918 945
3 945 918 946
3 918 919 946
3 946 919 947
3 919 920 947
3 947 920 948
3 920 921 948
3 948 921 949
3 921 922 949
3 949 922 950
3 922 951 950
3 922 923 951
3 923 952 951
3 923 924 952
3 924 953 952
3 924 925 953
3 925 954 953
3 925 926 954
3 926 927 954
3 954 927 955
3 927 928 955
3 955 928 956
3 930 957 958
3 930 929 957
3 929 959 957
3 929 931 959
3 931 932 959
3 959 932 960
3 932 933 960
3 960 933 961
3 933 934 961
3 961 934 962
3 934 935 962
3 962 935 963
3 935 936 963
3 963 936 964
3 936 965 964
3 936 937 965
3 937 966 965
3 937 938 966
3 938 967 966
3 938 939 967
3 939 940 967
3 967 940 968
3 940 941 968
3 968 941 969
3 941 942 969
3 969 942 970
3 942 971 970
3 942 943 971
3 943 972 971
3 943 944 972
3 944 973 972
3 944 945 973
3 945 974 973
3 945 946 974
3 946 947 974
3 974 947 975
3 947 948 975
3 975 948 976
3 948 949 976
3 976 949 977
3 949 978 977
3 949 950 978
3 950 979 978
3 950 951 979
3 951 980 979
3 951 952 980
3 952 981 980
3 952 953 981
3 953 982 981
3 953 954 982
3 954 955 982
3 982 955 983
3 955 956 983
3 983 956 984
3 958 985 986
3 958 957 985
3 957 987 985
3 957 959 987
3 959 988 987
3 959 960 988
3 960 961 988
3 988 961 989
3 961 962 989
3 989 962 990
3 962 963 990
3 990 963 991
3 963 964 991
3 991 964 992
3 964 993 992
3 964 965 993
3 965 994 993
3 965 966 994
3 966 995 994
3 966 967 995
3 967 968 995
3 995 968 996
3 968 969 996
3 996 969 997
3 969 998 997
3 969 970 998
3 970 999 998
3 970 971 999
3 971 1000 999
3 971 972 1000
3 972 1001 1000
3 972 973 1001
3 973 1002 1001
3 973 974 1002
3 974 1003 1002
3 974 975 1003
3 975 1004 1003
3 975 976 1004
3 976 1005 1004
3 976 977 1005
3 977 1006 1005
3 977 978 1006
3 978 1007 1006
3 978 979 1007
3 979 1008 1007
3 979 980 1008
3 980 1009 1008
3 980 981 1009
3 981 1010 1009
3 981 982 1010
3 982 1011 1010
3 982 983 1011
3 983 984 1011
3 1011 984 1012
3 986 1013 1014
3 986 985 1013
3 985 1015 1013
3 985 987 1015
3 987 1016 1015
3 987 988 1016
3 988 989 1016
3 1016 989 1017
3 989 990 1017
3 1017 990 1018
3 990 991 1018
3 1018 991 1019
3 991 992 1019
3 1019 992 1020
3 992 1021 1020
3 992 993 1021
3 993 1022 1021
3 993 994 1022
3 994 1023 1022
3 994 995 1023
3 995 996 1023
3 1023 996 1024
3 996 997 1024
3 1024 997 1025
3 997 1026 1025
3 997 998 1026
3 998 1027 1026
3 998 999 1027
3 999 1028 1027
3 999 1000 1028
3 1000 1029 1028
3 1000 1001 1029
3 1001 1030 1029
3 1001 1002 1030
3 1002 1031 1030
3 1002 1003 1031
3 1003 1032 1031
3 1003 1004 1032
3 1004 1033 1032
3 1004 1005 1033
3 1005 1034 1033
3 1005 1006 1034
3 1006 1035 1034
3 1006 1007 1035
3 1007 1036 1035
3 1007 1008 1036
3 1008 1037 1036
3 1008 1009 1037
3 1009 1038 1037
3 1009 1010 1038
3 1010 1039 1038
3 1010 1011 1039
3 1011 1012 1039
3 1039 1012 1040
3 1014 1013 1041
3 1013 1042 1041
3 1013 1015 1042
3 1015 1043 1042
3 1015 1016 1043
3 1016 1017 1043
3 1043 1017 1044
3 1017 1018 1044
3 1044 1018 1045
3 1018 1019 1045
3 1045 1019 1046
3 1019 1020 1046
3 1046 1020 1047
3 1020 1048 1047
3 1020 1021 1048
3 1021 1049 1048
3 1021 1022 1049
3 1022 1050 1049
3 1022 1023 1050
3 1023 1024 1050
3 1050 1024 1051
3 1024 1025 1051
3 1051 1025 1052
3 1025 1053 1052
3 1025 1026 1053
3 1026 1054 1053
3 1026 1027 1054
3 1027 1055 1054
3 1027 1028 1055
3 1028 1056 1055
3 1028 1029 1056
3 1029 1057 1056
3 1029 1030 1057
3 1030 1058 1057
3 1030 1031 1058
3 1031 1059 1058
3 1031 1032 1059
3 1032 1060 1059
3 1032 1033 1060
3 1033 1061 1060
3 1033 1034 1061
3 1034 1062 1061
3 1034 1035 1062
3 1035 1063 1062
3 1035 1036 1063
3 1036 1064 1063
3 1036 1037 1064
3 1037 1065 1064
3 1037 1038 1065
3 1038 1066 1065
3 1038 1039 1066
3 1039 1040 1066
3 1066 1040 1067
3 1040 1068 1067
3 1069 1041 1070
3 1041 1071 1070
3 1041 1042 1071
3 1042 1072 1071
3 1042 1043 1072
3 1043 1044 1072
3 1072 1044 1073
3 1044 1045 1073
3 1073 1045 1074
3 1045 1046 1074
3 1074 1046 1075
3 1046 1047 1075
3 1063 1064 1076
3 1064 1077 1076
3 1064 1065 1077
3 1065 1078 1077
3 1065 1066 1078
3 1066 1067 1078
3 1067 1079 1080
CELL_DATA 2020
SCALARS brightness_temperature float
LOOKUP_TABLE default
POINT_DATA 1081
CELL_DATA 2020
SCALARS emission_angle float
LOOKUP_TABLE default
POINT_DATA 1081
CELL_DATA 2020
SCALARS incidence_angle float
LOOKUP_TABLE default
POINT_DATA 1081
CELL_DATA 2020
SCALARS phase_angle float
LOOKUP_TABLE default
POINT_DATA 1081
CELL_DATA 2020
SCALARS local_solar_time float
LOOKUP_TABLE default
POINT_DATA 1081
CELL_DATA 2020
SCALARS local_solar_time_normal_vector float
LOOKUP_TABLE default
CELL_DATA 2020
SCALARS pixel_x float
LOOKUP_TABLE default
POINT_DATA 1081
CELL_DATA 2020
SCALARS pixel_y float
LOOKUP_TABLE default
POINT_DATA 1081
CELL_DATA 2020
SCALARS longitude float
LOOKUP_TABLE default
POINT_DATA 1081
CELL_DATA 2020
SCALARS latitude float
LOOKUP_TABLE default
