# vtk DataFile Version 3.0
SHAPE_sfm_50k_v20200323
ASCII
DATASET POLYDATA
POINTS 1134 float
-0.34659 -0.16535 0.20763
-0.34888 -0.16407 0.20591
-0.34808 -0.16631 0.20549
-0.35012 -0.16533 0.20374
-0.3493 -0.16756 0.20331
-0.34175 -0.16626 0.21076
-0.34459 -0.16463 0.20944
-0.34387 -0.16689 0.20904
-0.34583 -0.1676 0.2072
-0.34733 -0.16859 0.20507
-0.34864 -0.16992 0.20298
-0.33674 -0.16732 0.2139
-0.33965 -0.16579 0.21256
-0.33883 -0.16802 0.2122
-0.34103 -0.16855 0.21054
-0.34316 -0.16918 0.20882
-0.3451 -0.16989 0.20695
-0.34674 -0.17095 0.20494
-0.34828 -0.17234 0.20306
-0.34998 -0.17106 0.20081
-0.34978 -0.17348 0.20101
-0.33404 -0.16866 0.21503
-0.33636 -0.1697 0.21396
-0.33841 -0.17044 0.21227
-0.34042 -0.1709 0.21039
-0.34249 -0.17148 0.20857
-0.34444 -0.17219 0.2067
-0.34627 -0.17329 0.20487
-0.34798 -0.17471 0.20315
-0.34934 -0.17582 0.20099
-0.3285 -0.16875 0.21684
-0.33156 -0.16764 0.21594
-0.33089 -0.16989 0.21577
-0.33344 -0.17096 0.21514
-0.33594 -0.17198 0.21448
-0.33819 -0.17272 0.21305
-0.33975 -0.1732 0.21075
-0.34164 -0.17374 0.20874
-0.34354 -0.17442 0.20678
-0.3453 -0.17548 0.20487
-0.34686 -0.17683 0.203
-0.34839 -0.17802 0.20102
-0.35054 -0.17657 0.19859
-0.34984 -0.17886 0.19881
-0.32298 -0.169 0.21891
-0.32615 -0.16787 0.21814
-0.32525 -0.16991 0.21748
-0.3277 -0.17093 0.21646
-0.33019 -0.17212 0.2158
-0.33275 -0.17318 0.21535
-0.33529 -0.1742 0.21484
-0.33774 -0.17499 0.21367
-0.33929 -0.17546 0.21133
-0.34085 -0.17599 0.20905
-0.34267 -0.17666 0.20701
-0.34436 -0.1777 0.20504
-0.34591 -0.17905 0.20316
-0.34752 -0.18026 0.20124
-0.34879 -0.18102 0.1989
-0.34988 -0.18157 0.19639
-0.31968 -0.17008 0.21962
-0.32199 -0.17096 0.21825
-0.32437 -0.17203 0.21712
-0.32689 -0.17311 0.21639
-0.3294 -0.17429 0.2159
-0.33194 -0.17535 0.21549
-0.33439 -0.17636 0.21475
-0.33655 -0.17703 0.21319
-0.33856 -0.17768 0.21138
-0.34029 -0.17827 0.20927
-0.34194 -0.17892 0.2071
-0.34365 -0.17998 0.20516
-0.34515 -0.18132 0.20324
-0.34653 -0.18243 0.2011
-0.34779 -0.18322 0.19873
-0.34927 -0.18394 0.19649
-0.31268 -0.17062 0.22463
-0.31499 -0.16935 0.22273
-0.31417 -0.1715 0.22238
-0.31636 -0.17162 0.22054
-0.31727 -0.16956 0.22103
-0.31878 -0.17212 0.21913
-0.32115 -0.17306 0.21788
-0.3236 -0.17418 0.21703
-0.32613 -0.17527 0.21645
-0.32861 -0.17645 0.21596
-0.33112 -0.1775 0.21546
-0.33353 -0.17853 0.21453
-0.33555 -0.17908 0.21269
-0.33734 -0.17953 0.21058
-0.33928 -0.18033 0.20874
-0.34112 -0.18112 0.20683
-0.34272 -0.18211 0.20477
-0.34409 -0.1834 0.20272
-0.34542 -0.18454 0.20057
-0.34705 -0.18553 0.19854
-0.34871 -0.18629 0.19644
-0.35055 -0.1846 0.1941
-0.35011 -0.18699 0.19415
-0.31091 -0.17148 0.22678
-0.3121 -0.17281 0.22463
-0.31368 -0.17374 0.2225
-0.31567 -0.17383 0.22048
-0.31799 -0.17427 0.21889
-0.32035 -0.17519 0.21764
-0.32282 -0.1763 0.21683
-0.32535 -0.17739 0.21632
-0.3278 -0.17858 0.2158
-0.33023 -0.17956 0.21494
-0.33247 -0.18035 0.21351
-0.33444 -0.18087 0.21163
-0.33636 -0.18151 0.20969
-0.33853 -0.18254 0.20823
-0.34029 -0.18325 0.20622
-0.34173 -0.18417 0.20399
-0.34328 -0.18563 0.20218
-0.34484 -0.1869 0.20028
-0.34646 -0.18786 0.19824
-0.34809 -0.18862 0.19614
-0.34965 -0.18937 0.19398
-0.30913 -0.17249 0.22906
-0.31044 -0.17366 0.22691
-0.31176 -0.17501 0.22488
-0.31339 -0.17594 0.22282
-0.31527 -0.17605 0.22075
-0.31741 -0.17648 0.21899
-0.31967 -0.17738 0.21758
-0.32205 -0.17842 0.2165
-0.32455 -0.17945 0.21582
-0.32693 -0.18051 0.21496
-0.32925 -0.1813 0.21374
-0.33136 -0.1819 0.21209
-0.33343 -0.18266 0.21041
-0.33548 -0.18351 0.20873
-0.3376 -0.1845 0.20724
-0.33946 -0.18535 0.2054
-0.3411 -0.18647 0.20345
-0.34275 -0.18796 0.20179
-0.34441 -0.18926 0.20001
-0.34595 -0.19021 0.19792
-0.34764 -0.19099 0.19588
-0.3492 -0.19175 0.19373
-0.30863 -0.17464 0.22926
-0.31008 -0.17583 0.22723
-0.3114 -0.17722 0.22522
-0.31294 -0.17814 0.22312
-0.31472 -0.17823 0.22096
-0.31684 -0.17866 0.21917
-0.3192 -0.17959 0.21799
-0.32128 -0.18056 0.21642
-0.32364 -0.18146 0.21526
-0.32593 -0.18237 0.21404
-0.32817 -0.183 0.21255
-0.33034 -0.18382 0.21107
-0.33247 -0.18471 0.20956
-0.33457 -0.18562 0.20801
-0.33662 -0.18655 0.20642
-0.33861 -0.18752 0.20477
-0.34047 -0.18876 0.20314
-0.34209 -0.19024 0.20147
-0.34378 -0.19156 0.19975
-0.34536 -0.19253 0.19772
-0.34707 -0.19333 0.1957
-0.34864 -0.19411 0.19357
-0.35055 -0.19216 0.19136
-0.35004 -0.19455 0.19124
-0.30516 -0.17432 0.2331
-0.30718 -0.17343 0.23126
-0.3068 -0.17558 0.23128
-0.30836 -0.17683 0.22938
-0.31001 -0.17804 0.22753
-0.31158 -0.17941 0.22574
-0.31307 -0.18037 0.22363
-0.31438 -0.18049 0.22116
-0.31643 -0.18087 0.21925
-0.3187 -0.18179 0.21794
-0.32054 -0.18264 0.21607
-0.32256 -0.18321 0.21422
-0.32484 -0.18407 0.21286
-0.32712 -0.18487 0.21153
-0.32938 -0.18586 0.21029
-0.33159 -0.18685 0.20899
-0.33365 -0.18774 0.20741
-0.33569 -0.18866 0.2058
-0.33769 -0.18964 0.20416
-0.33958 -0.19091 0.20261
-0.34124 -0.19241 0.201
-0.34295 -0.19376 0.19933
-0.3446 -0.19478 0.19739
-0.34633 -0.19562 0.19542
-0.34791 -0.19641 0.19332
-0.3494 -0.1969 0.19105
-0.30488 -0.17648 0.23314
-0.30647 -0.17775 0.23127
-0.30839 -0.17901 0.22972
-0.31023 -0.18019 0.22804
-0.3121 -0.18146 0.22648
-0.31362 -0.18242 0.22439
-0.31454 -0.18267 0.22178
-0.31593 -0.18307 0.21939
-0.31767 -0.18374 0.21731
-0.31947 -0.18454 0.21536
-0.32151 -0.18521 0.21359
-0.32373 -0.186 0.21207
-0.32608 -0.18689 0.21087
-0.32837 -0.18791 0.20974
-0.33057 -0.1889 0.20844
-0.33262 -0.18979 0.20683
-0.33462 -0.19068 0.20515
-0.33668 -0.19175 0.20366
-0.33855 -0.193 0.20208
-0.34012 -0.1944 0.2003
-0.34187 -0.19581 0.19871
-0.34364 -0.19693 0.19695
-0.34542 -0.19782 0.19505
-0.34704 -0.19865 0.19299
-0.34868 -0.19923 0.19085
-0.35085 -0.19747 0.18876
-0.35046 -0.1999 0.18885
-0.30063 -0.17612 0.23594
-0.30301 -0.17528 0.23475
-0.3027 -0.17741 0.23466
-0.30458 -0.17862 0.23307
-0.30626 -0.17993 0.23131
-0.30823 -0.1812 0.22984
-0.31035 -0.18234 0.2285
-0.31235 -0.18359 0.22706
-0.31401 -0.18453 0.22504
-0.31465 -0.18483 0.22235
-0.3155 -0.18526 0.21973
-0.31686 -0.18591 0.21738
-0.31849 -0.18666 0.21524
-0.32053 -0.18733 0.21346
-0.32261 -0.18807 0.21177
-0.32487 -0.18885 0.21035
-0.32714 -0.1898 0.2091
-0.32931 -0.19076 0.20773
-0.33135 -0.19166 0.20612
-0.33339 -0.19264 0.20454
-0.33546 -0.19374 0.2031
-0.33732 -0.19499 0.20152
-0.33891 -0.19642 0.19979
-0.34063 -0.19779 0.19813
-0.34243 -0.19894 0.19642
-0.34425 -0.19989 0.19461
-0.34599 -0.20083 0.1927
-0.34782 -0.20151 0.19075
-0.34987 -0.20228 0.18907
-0.29825 -0.17714 0.23755
-0.30029 -0.17823 0.23606
-0.30227 -0.17952 0.23465
-0.30418 -0.18075 0.23312
-0.30599 -0.18208 0.23153
-0.3079 -0.18335 0.22999
-0.31002 -0.1845 0.22866
-0.31219 -0.18577 0.22752
-0.31418 -0.18673 0.2257
-0.31451 -0.187 0.22286
-0.31501 -0.18741 0.22015
-0.31624 -0.18808 0.21772
-0.31778 -0.18884 0.21553
-0.31953 -0.18942 0.21344
-0.32156 -0.19016 0.21168
-0.32368 -0.19087 0.21004
-0.32584 -0.19172 0.20856
-0.32795 -0.19258 0.20701
-0.33004 -0.19358 0.20552
-0.33214 -0.19465 0.20409
-0.3342 -0.19574 0.20264
-0.33608 -0.19701 0.20111
-0.33765 -0.19844 0.19938
-0.33933 -0.19977 0.19767
-0.34112 -0.20092 0.19593
-0.34304 -0.20196 0.19425
-0.34487 -0.20297 0.19248
-0.34672 -0.20367 0.19058
-0.34871 -0.20443 0.18882
-0.35179 -0.20313 0.18727
-0.3506 -0.2053 0.18703
-0.29568 -0.17806 0.23866
-0.29775 -0.17919 0.23727
-0.29982 -0.18031 0.23585
-0.30183 -0.18162 0.23452
-0.30371 -0.18287 0.23296
-0.30553 -0.1842 0.2314
-0.3074 -0.18547 0.22981
-0.30962 -0.18667 0.22868
-0.31189 -0.18806 0.22771
-0.31376 -0.1891 0.22574
-0.31421 -0.18918 0.22288
-0.31453 -0.18957 0.22012
-0.31577 -0.19025 0.21768
-0.3172 -0.19101 0.21542
-0.3189 -0.19162 0.2133
-0.32086 -0.19236 0.21148
-0.32287 -0.19305 0.20973
-0.32485 -0.19378 0.20794
-0.32693 -0.19463 0.20632
-0.32907 -0.19569 0.20492
-0.33119 -0.19679 0.20356
-0.33325 -0.19788 0.20212
-0.3351 -0.19912 0.20053
-0.33666 -0.20055 0.1988
-0.33831 -0.20187 0.19704
-0.34012 -0.20305 0.19534
-0.34204 -0.20409 0.19369
-0.34382 -0.20507 0.19186
-0.34562 -0.20575 0.1899
-0.34753 -0.20647 0.18804
-0.34946 -0.2074 0.18631
-0.29289 -0.17879 0.2395
-0.295 -0.18003 0.23825
-0.29712 -0.18119 0.23696
-0.29923 -0.18236 0.23565
-0.30124 -0.1837 0.23436
-0.30321 -0.18498 0.23296
-0.30495 -0.18632 0.23133
-0.30684 -0.1876 0.22979
-0.30892 -0.18875 0.22841
-0.31089 -0.18998 0.22693
-0.31227 -0.19062 0.22464
-0.31331 -0.19109 0.22219
-0.31416 -0.19168 0.21963
-0.31529 -0.19237 0.21719
-0.31667 -0.19313 0.21489
-0.31849 -0.19383 0.21291
-0.32039 -0.19457 0.21105
-0.32226 -0.19522 0.20915
-0.32416 -0.19595 0.20729
-0.3262 -0.19678 0.20558
-0.32834 -0.19784 0.20419
-0.33044 -0.19892 0.20279
-0.33249 -0.20002 0.20137
-0.33431 -0.20125 0.19974
-0.33589 -0.20271 0.19805
-0.33753 -0.20403 0.1963
-0.33935 -0.20522 0.19464
-0.34116 -0.20618 0.19283
-0.34294 -0.20718 0.19101
-0.34482 -0.20796 0.18916
-0.34682 -0.20879 0.18746
-0.34874 -0.20973 0.18575
-0.35121 -0.20851 0.18453
-0.35041 -0.21077 0.18388
-0.28841 -0.17705 0.24208
-0.29002 -0.17965 0.24049
-0.28764 -0.17898 0.24168
-0.29076 -0.17769 0.24083
-0.29216 -0.18078 0.23922
-0.29422 -0.18199 0.2379
-0.29632 -0.18315 0.23657
-0.29849 -0.18436 0.2354
-0.30055 -0.18574 0.23427
-0.30255 -0.18705 0.23296
-0.30443 -0.18845 0.23157
-0.30619 -0.18972 0.22994
-0.30798 -0.19074 0.22817
-0.30944 -0.19152 0.22601
-0.3109 -0.19225 0.22386
-0.31228 -0.19298 0.22166
-0.31324 -0.19365 0.21917
-0.31453 -0.19444 0.21686
-0.31601 -0.19528 0.2147
-0.3176 -0.19586 0.21252
-0.31948 -0.19662 0.21064
-0.32149 -0.19741 0.20896
-0.32325 -0.19808 0.20695
-0.32528 -0.19895 0.20529
-0.3273 -0.19993 0.2037
-0.32937 -0.20099 0.20226
-0.33141 -0.20209 0.20082
-0.33324 -0.20334 0.19925
-0.33481 -0.20479 0.19755
-0.33652 -0.20618 0.19594
-0.33819 -0.20726 0.19407
-0.33998 -0.20823 0.19224
-0.34186 -0.20933 0.1906
-0.34377 -0.21014 0.18882
-0.3458 -0.211 0.18719
-0.34769 -0.21194 0.18546
-0.34921 -0.21289 0.1834
-0.28303 -0.17774 0.24432
-0.28456 -0.18041 0.24292
-0.28227 -0.17968 0.24417
-0.28531 -0.17843 0.243
-0.28688 -0.18098 0.24162
-0.28922 -0.18162 0.24039
-0.29137 -0.18275 0.23915
-0.2934 -0.18396 0.23782
-0.29548 -0.18512 0.23647
-0.29764 -0.18633 0.23532
-0.2997 -0.18771 0.23418
-0.30183 -0.18909 0.23319
-0.30398 -0.1905 0.23225
-0.30579 -0.19178 0.23067
-0.30697 -0.19271 0.2284
-0.30824 -0.19345 0.2261
-0.30968 -0.19417 0.22391
-0.31096 -0.19481 0.22161
-0.31208 -0.19557 0.21925
-0.31335 -0.19636 0.21695
-0.31476 -0.19717 0.21476
-0.31623 -0.1977 0.2125
-0.31795 -0.19835 0.21042
-0.31998 -0.19916 0.20875
-0.32184 -0.19993 0.2069
-0.32385 -0.20083 0.20526
-0.32586 -0.20184 0.20371
-0.32788 -0.20288 0.20219
-0.32987 -0.20394 0.20069
-0.33173 -0.20521 0.19917
-0.33327 -0.20664 0.19745
-0.3349 -0.20796 0.19572
-0.33668 -0.20917 0.19406
-0.33852 -0.21019 0.19233
-0.34037 -0.21126 0.19066
-0.34222 -0.21204 0.18883
-0.34409 -0.21278 0.18699
-0.34593 -0.21367 0.1852
-0.34749 -0.2147 0.18325
-0.349 -0.21546 0.18113
-0.27976 -0.18014 0.24491
-0.28176 -0.18168 0.24389
-0.28411 -0.18245 0.2428
-0.28649 -0.18306 0.24168
-0.28871 -0.18367 0.24027
-0.29076 -0.18476 0.23887
-0.29277 -0.18597 0.2375
-0.29486 -0.18715 0.23621
-0.297 -0.18835 0.23499
-0.2991 -0.18977 0.23397
-0.30131 -0.19119 0.23323
-0.30352 -0.19264 0.23255
-0.30536 -0.19394 0.23097
-0.30629 -0.19479 0.22852
-0.30727 -0.19545 0.22606
-0.30863 -0.19615 0.22381
-0.30986 -0.19677 0.22147
-0.31102 -0.19756 0.21914
-0.31227 -0.19834 0.21685
-0.31355 -0.19909 0.21457
-0.31509 -0.19971 0.21239
-0.31673 -0.20037 0.21028
-0.31859 -0.20104 0.20836
-0.32055 -0.2019 0.20665
-0.32255 -0.20281 0.20501
-0.32457 -0.20384 0.2035
-0.32657 -0.20488 0.20198
-0.32857 -0.20597 0.20051
-0.33037 -0.20719 0.19891
-0.33189 -0.20862 0.19719
-0.33357 -0.21 0.19555
-0.33536 -0.2112 0.1939
-0.33725 -0.21226 0.19228
-0.33901 -0.21327 0.19049
-0.34076 -0.21399 0.18856
-0.34256 -0.21471 0.18665
-0.34438 -0.21559 0.18484
-0.34597 -0.21665 0.18292
-0.34754 -0.21749 0.18089
-0.35027 -0.21622 0.17883
-0.34895 -0.21839 0.17874
-0.27919 -0.18211 0.24454
-0.28116 -0.18361 0.24341
-0.28357 -0.18441 0.24249
-0.28603 -0.18508 0.24161
-0.28826 -0.18571 0.24025
-0.2902 -0.18679 0.23871
-0.29221 -0.18802 0.23735
-0.29426 -0.18919 0.236
-0.29632 -0.19036 0.23465
-0.29844 -0.19179 0.2337
-0.30062 -0.1932 0.23293
-0.30273 -0.19464 0.23201
-0.30451 -0.19592 0.23038
-0.3055 -0.19673 0.22796
-0.30653 -0.19745 0.22557
-0.30781 -0.19814 0.22327
-0.30904 -0.19879 0.22095
-0.31025 -0.19962 0.21867
-0.31143 -0.20037 0.21635
-0.3127 -0.20114 0.21406
-0.31428 -0.20182 0.21192
-0.31601 -0.20256 0.20994
-0.31781 -0.20326 0.20801
-0.31972 -0.20409 0.20622
-0.32174 -0.20502 0.20464
-0.32374 -0.20605 0.20312
-0.32577 -0.20712 0.20167
-0.32772 -0.20819 0.20013
-0.32955 -0.20945 0.1986
-0.33108 -0.2109 0.1969
-0.33276 -0.21228 0.19529
-0.3345 -0.21346 0.19362
-0.33627 -0.21443 0.19182
-0.33799 -0.21543 0.19
-0.33977 -0.21621 0.18811
-0.34155 -0.21693 0.18621
-0.34326 -0.21775 0.18428
-0.34479 -0.21877 0.1823
-0.34645 -0.21971 0.18038
-0.34802 -0.22072 0.17842
-0.2786 -0.18406 0.24412
-0.28055 -0.18557 0.243
-0.28292 -0.18633 0.24197
-0.28537 -0.18698 0.24107
-0.2877 -0.1877 0.23996
-0.28967 -0.18882 0.2385
-0.29163 -0.19005 0.23711
-0.29362 -0.19121 0.2357
-0.29564 -0.19236 0.23432
-0.29767 -0.19372 0.23314
-0.29977 -0.19497 0.23202
-0.30176 -0.19614 0.23067
-0.30339 -0.19731 0.22895
-0.30459 -0.19846 0.22689
-0.30588 -0.1994 0.22475
-0.30711 -0.20008 0.22246
-0.30834 -0.20075 0.22014
-0.30958 -0.20162 0.2179
-0.31073 -0.20239 0.21558
-0.31207 -0.20324 0.21335
-0.31371 -0.20397 0.2113
-0.3155 -0.20476 0.20941
-0.31732 -0.20551 0.20754
-0.3192 -0.20636 0.20576
-0.3212 -0.2073 0.20418
-0.32316 -0.20832 0.20262
-0.32514 -0.20937 0.2011
-0.32713 -0.21047 0.19966
-0.32892 -0.21171 0.19808
-0.33056 -0.21322 0.19655
-0.33225 -0.21461 0.195
-0.33388 -0.21575 0.1932
-0.33553 -0.21669 0.19129
-0.33722 -0.21768 0.18944
-0.33891 -0.21841 0.18747
-0.34064 -0.21912 0.18554
-0.34229 -0.21992 0.18356
-0.34379 -0.22094 0.18156
-0.34544 -0.22188 0.17964
-0.34704 -0.22293 0.17773
-0.34962 -0.22174 0.17649
-0.34881 -0.2241 0.17605
-0.27804 -0.18604 0.24375
-0.27997 -0.18756 0.24261
-0.28232 -0.18832 0.24155
-0.2847 -0.18892 0.24048
-0.28702 -0.18962 0.23934
-0.28908 -0.19082 0.23813
-0.29101 -0.19204 0.23671
-0.293 -0.19322 0.23533
-0.29501 -0.19439 0.23398
-0.29693 -0.19568 0.23261
-0.2989 -0.19681 0.23117
-0.30081 -0.19791 0.22965
-0.30251 -0.19919 0.22809
-0.30385 -0.20047 0.22621
-0.30504 -0.20134 0.22401
-0.30629 -0.20204 0.22173
-0.30759 -0.20277 0.21949
-0.3088 -0.20364 0.21724
-0.31003 -0.20448 0.21497
-0.31144 -0.20539 0.21282
-0.31317 -0.20618 0.21088
-0.31491 -0.20698 0.20896
-0.31678 -0.20777 0.20717
-0.31866 -0.20864 0.20542
-0.32063 -0.20958 0.20382
-0.32257 -0.21061 0.20226
-0.32454 -0.21168 0.20076
-0.32645 -0.21273 0.19919
-0.32823 -0.21396 0.19759
-0.32986 -0.21546 0.19608
-0.33151 -0.21684 0.19449
-0.33312 -0.21798 0.19268
-0.33475 -0.21892 0.19077
-0.33633 -0.21986 0.18882
-0.338 -0.2206 0.18684
-0.33968 -0.2213 0.18486
-0.34129 -0.22209 0.18285
-0.34278 -0.22313 0.18087
-0.34442 -0.22408 0.17896
-0.34591 -0.22503 0.17692
-0.34753 -0.22607 0.17503
-0.27949 -0.18962 0.24237
-0.28184 -0.19038 0.24133
-0.28422 -0.19099 0.24027
-0.28651 -0.19168 0.2391
-0.28853 -0.19285 0.2378
-0.29046 -0.19411 0.23643
-0.29241 -0.19528 0.23502
-0.29442 -0.19644 0.23367
-0.29623 -0.19769 0.23214
-0.29813 -0.1988 0.23059
-0.30011 -0.2 0.22923
-0.30188 -0.20131 0.22776
-0.30314 -0.20251 0.22577
-0.3043 -0.20339 0.22354
-0.30552 -0.2041 0.22126
-0.30685 -0.20486 0.21904
-0.308 -0.20573 0.21677
-0.30939 -0.20665 0.21464
-0.31086 -0.20758 0.21256
-0.31262 -0.2084 0.21066
-0.31442 -0.20926 0.20884
-0.31623 -0.21005 0.207
-0.3181 -0.21096 0.20529
-0.31998 -0.21188 0.20359
-0.32193 -0.21291 0.20204
-0.32386 -0.21397 0.20051
-0.3257 -0.215 0.19885
-0.32748 -0.21623 0.19726
-0.32909 -0.21773 0.19573
-0.33069 -0.21908 0.19408
-0.33231 -0.22023 0.1923
-0.33387 -0.22113 0.19032
-0.33537 -0.22204 0.18829
-0.33701 -0.22278 0.1863
-0.33862 -0.22347 0.18427
-0.34025 -0.22429 0.18229
-0.34179 -0.22538 0.18038
-0.3433 -0.22626 0.17835
-0.34473 -0.22721 0.17625
-0.34643 -0.22833 0.17447
-0.34908 -0.22725 0.17318
-0.34808 -0.22957 0.17275
-0.28139 -0.19245 0.24123
-0.28377 -0.19304 0.24018
-0.28602 -0.19372 0.23892
-0.28806 -0.19491 0.23764
-0.29011 -0.19622 0.23655
-0.29192 -0.19737 0.23498
-0.29374 -0.19845 0.23333
-0.29554 -0.19971 0.23178
-0.29748 -0.20088 0.23033
-0.29938 -0.20202 0.22886
-0.30107 -0.20327 0.22725
-0.30224 -0.20441 0.22516
-0.30344 -0.20537 0.22299
-0.30478 -0.20619 0.22082
-0.30613 -0.20697 0.21864
-0.30741 -0.20791 0.21648
-0.3088 -0.20884 0.21437
-0.31016 -0.20973 0.21219
-0.31194 -0.21057 0.21031
-0.3138 -0.21147 0.20857
-0.31575 -0.21234 0.20692
-0.31776 -0.2133 0.20543
-0.3195 -0.21421 0.20361
-0.32133 -0.21521 0.20191
-0.32324 -0.21628 0.20036
-0.32506 -0.21731 0.19869
-0.32674 -0.21849 0.19696
-0.32836 -0.22 0.19545
-0.32999 -0.22138 0.19386
-0.33143 -0.22244 0.19189
-0.33291 -0.22332 0.18985
-0.33437 -0.2242 0.18777
-0.33604 -0.22498 0.18582
-0.33777 -0.22578 0.18393
-0.33929 -0.22655 0.18185
-0.34078 -0.22761 0.1799
-0.34235 -0.22856 0.17795
-0.34379 -0.22956 0.17591
-0.34541 -0.23063 0.17404
-0.28325 -0.19506 0.23999
-0.28098 -0.19452 0.24128
-0.28546 -0.1957 0.23863
-0.28753 -0.19692 0.2374
-0.28959 -0.19824 0.23634
-0.29141 -0.19941 0.23484
-0.29305 -0.20046 0.23299
-0.29489 -0.20176 0.2315
-0.29683 -0.20293 0.23009
-0.29863 -0.20402 0.22848
-0.3001 -0.20511 0.22656
-0.30125 -0.2063 0.22446
-0.30276 -0.20748 0.22259
-0.30422 -0.20836 0.22056
-0.30555 -0.20914 0.21839
-0.30693 -0.21012 0.2163
-0.30822 -0.21104 0.21414
-0.30963 -0.21198 0.21204
-0.31138 -0.21282 0.21013
-0.31329 -0.21374 0.20847
-0.31521 -0.2146 0.20681
-0.31714 -0.21554 0.20522
-0.31895 -0.21648 0.20351
-0.32065 -0.21748 0.20167
-0.32257 -0.21856 0.20013
-0.32431 -0.21957 0.19839
-0.32601 -0.22076 0.1967
-0.32759 -0.22225 0.19514
-0.32911 -0.22359 0.19343
-0.33056 -0.22468 0.1915
-0.33201 -0.22555 0.18945
-0.33341 -0.22642 0.18733
-0.33508 -0.22721 0.18538
-0.33673 -0.22797 0.18342
-0.3383 -0.22879 0.18142
-0.33977 -0.22986 0.17945
-0.34133 -0.23082 0.17751
-0.34288 -0.2319 0.17561
-0.28261 -0.19704 0.23977
-0.28477 -0.19766 0.23828
-0.28682 -0.19886 0.23699
-0.28885 -0.20014 0.23585
-0.29068 -0.20133 0.23437
-0.29244 -0.20248 0.23272
-0.29423 -0.20377 0.23122
-0.29607 -0.20489 0.22965
-0.29774 -0.20593 0.22789
-0.2992 -0.20707 0.22597
-0.3006 -0.20845 0.22415
-0.30219 -0.20962 0.22238
-0.30371 -0.21052 0.2204
-0.305 -0.2113 0.21819
-0.30642 -0.21231 0.21615
-0.30779 -0.21327 0.21406
-0.30931 -0.21426 0.21208
-0.31092 -0.21509 0.21008
-0.31274 -0.21599 0.2083
-0.31465 -0.21686 0.20662
-0.3165 -0.21778 0.20494
-0.31829 -0.21875 0.20321
-0.32003 -0.21979 0.20146
-0.32192 -0.22086 0.1999
-0.32366 -0.22187 0.19817
-0.32528 -0.22303 0.19638
-0.3268 -0.22449 0.19472
-0.32837 -0.22586 0.19309
-0.32991 -0.22701 0.19127
-0.33123 -0.22783 0.18912
-0.33261 -0.22871 0.18699
-0.33418 -0.22945 0.18495
-0.33583 -0.23023 0.18299
-0.33742 -0.23109 0.18101
-0.3389 -0.23219 0.17909
-0.28413 -0.19968 0.23809
-0.28193 -0.19907 0.23959
-0.28618 -0.20087 0.23683
-0.288 -0.20198 0.23524
-0.28985 -0.20317 0.23373
-0.29171 -0.20441 0.23228
-0.29349 -0.20573 0.2308
-0.29521 -0.20677 0.22906
-0.29696 -0.20792 0.22739
-0.29857 -0.20918 0.22567
-0.30009 -0.21061 0.22404
-0.30149 -0.2117 0.22208
-0.30289 -0.21256 0.21999
-0.30435 -0.21343 0.21792
-0.30589 -0.2145 0.21601
-0.30736 -0.21549 0.21401
-0.30897 -0.2165 0.21211
-0.31059 -0.21736 0.21016
-0.31229 -0.21828 0.20831
-0.31408 -0.21912 0.2065
-0.3159 -0.22007 0.20477
-0.31777 -0.22107 0.20315
-0.31952 -0.22212 0.20144
-0.32128 -0.22315 0.19974
-0.32294 -0.22414 0.1979
-0.32454 -0.22529 0.19609
-0.32607 -0.22676 0.19445
-0.32768 -0.22815 0.19285
-0.32914 -0.22925 0.19094
-0.33045 -0.23008 0.18878
-0.33178 -0.23096 0.18663
-0.33329 -0.2317 0.18455
-0.33493 -0.23249 0.18258
-0.33653 -0.23337 0.18062
-0.28331 -0.20161 0.23805
-0.28524 -0.20272 0.23654
-0.28699 -0.20379 0.23483
-0.28884 -0.20499 0.23331
-0.29068 -0.20619 0.2318
-0.29239 -0.20746 0.23021
-0.29414 -0.20857 0.22851
-0.29598 -0.20984 0.22702
-0.29775 -0.21121 0.22557
-0.2993 -0.21266 0.22401
-0.30063 -0.21375 0.222
-0.30209 -0.21465 0.21996
-0.30359 -0.21554 0.21793
-0.30516 -0.21662 0.21605
-0.30668 -0.21763 0.2141
-0.30817 -0.21864 0.21211
-0.30993 -0.21954 0.21029
-0.3117 -0.2205 0.20856
-0.31332 -0.22132 0.20659
-0.3151 -0.22227 0.2048
-0.31713 -0.22334 0.20339
-0.31872 -0.22434 0.20149
-0.32038 -0.22536 0.19969
-0.32201 -0.22634 0.19783
-0.32356 -0.22747 0.19596
-0.32497 -0.22886 0.19417
-0.32651 -0.2302 0.19245
-0.32794 -0.2313 0.19053
-0.32931 -0.23218 0.18842
-0.33066 -0.23309 0.1863
-0.33221 -0.23389 0.18428
-0.33376 -0.23465 0.18223
-0.28233 -0.2035 0.23808
-0.28406 -0.20443 0.23618
-0.28582 -0.2055 0.23445
-0.28765 -0.20668 0.23287
-0.28945 -0.20785 0.23129
-0.29112 -0.20909 0.2296
-0.29295 -0.21035 0.22808
-0.29487 -0.21171 0.22679
-0.29675 -0.21315 0.22558
-0.29831 -0.21461 0.22403
-0.29971 -0.21575 0.22209
-0.3012 -0.21668 0.22008
-0.30273 -0.21759 0.21809
-0.30425 -0.21866 0.21616
-0.30587 -0.21972 0.21432
-0.3075 -0.22077 0.21248
-0.30922 -0.22168 0.21066
-0.31077 -0.22259 0.20871
-0.31235 -0.22342 0.20672
-0.31408 -0.22437 0.20488
-0.31588 -0.22534 0.20314
-0.31774 -0.22649 0.20162
-0.3194 -0.22753 0.19984
-0.3209 -0.22847 0.19786
-0.32236 -0.22955 0.19591
-0.32368 -0.23089 0.19401
-0.32514 -0.23218 0.19218
-0.3266 -0.2333 0.19028
-0.32806 -0.23426 0.18827
-0.32948 -0.23523 0.18622
-0.33102 -0.23603 0.18421
-0.28171 -0.20546 0.23813
-0.28299 -0.20618 0.23582
-0.28466 -0.20716 0.23391
-0.28638 -0.20825 0.23216
-0.28819 -0.20946 0.23057
-0.28992 -0.21083 0.22904
-0.29184 -0.21219 0.22773
-0.29383 -0.21361 0.22663
-0.29567 -0.21503 0.22537
-0.29718 -0.21645 0.22375
-0.29867 -0.21767 0.22192
-0.30026 -0.21868 0.22005
-0.30184 -0.21963 0.21812
-0.30336 -0.22072 0.21621
-0.30499 -0.22179 0.21439
-0.30669 -0.22286 0.21265
-0.3083 -0.22375 0.21075
-0.3098 -0.22467 0.20875
-0.31138 -0.22554 0.20677
-0.31301 -0.22646 0.20485
-0.31474 -0.22743 0.20302
-0.31663 -0.22858 0.20152
-0.31839 -0.22968 0.1999
-0.31989 -0.23063 0.19794
-0.32123 -0.23166 0.19587
-0.32254 -0.23302 0.19398
-0.32391 -0.23426 0.19206
-0.32532 -0.23536 0.19009
-0.32684 -0.23636 0.18815
-0.28209 -0.20788 0.23506
-0.28372 -0.20888 0.23311
-0.28545 -0.21003 0.23138
-0.28733 -0.21136 0.22998
-0.2891 -0.21279 0.22859
-0.29101 -0.21414 0.22731
-0.29294 -0.2155 0.2261
-0.29473 -0.21687 0.22474
-0.29622 -0.21831 0.22311
-0.29771 -0.21956 0.22132
-0.2994 -0.22067 0.2196
-0.3011 -0.22171 0.21785
-0.30273 -0.22287 0.2161
-0.30435 -0.22394 0.2143
-0.30593 -0.22498 0.21245
-0.30749 -0.22586 0.21051
-0.309 -0.22682 0.20853
-0.31058 -0.22772 0.20658
-0.31224 -0.22868 0.20473
-0.31397 -0.22967 0.20295
-0.31579 -0.2308 0.20137
-0.31742 -0.23181 0.19957
-0.31884 -0.23272 0.19753
-0.32023 -0.23379 0.19551
-0.32165 -0.23523 0.19378
-0.32295 -0.23646 0.19182
-0.32434 -0.23756 0.18985
-0.28147 -0.20966 0.23405
-0.28312 -0.21074 0.23219
-0.28491 -0.21197 0.23061
-0.2868 -0.21334 0.22929
-0.28857 -0.21479 0.22797
-0.29045 -0.21613 0.22667
-0.2923 -0.21743 0.22532
-0.29403 -0.21876 0.22386
-0.2955 -0.22022 0.22223
-0.29709 -0.22159 0.22063
-0.2988 -0.22274 0.21897
-0.3006 -0.22385 0.21738
-0.3023 -0.22505 0.21577
-0.30386 -0.22612 0.21395
-0.30537 -0.22714 0.21205
-0.30686 -0.22802 0.21005
-0.30842 -0.22903 0.20815
-0.31006 -0.22998 0.2063
-0.3116 -0.23092 0.20435
-0.31336 -0.23193 0.20263
-0.31504 -0.23299 0.20092
-0.31644 -0.23386 0.19887
-0.31781 -0.23473 0.19675
-0.3193 -0.23589 0.19486
-0.32074 -0.23737 0.1932
-0.3222 -0.23872 0.19147
-0.28107 -0.21148 0.23301
-0.28277 -0.21266 0.2313
-0.28454 -0.21391 0.22975
-0.28642 -0.21528 0.22845
-0.28819 -0.21677 0.22721
-0.29002 -0.2181 0.22589
-0.2918 -0.21937 0.22444
-0.29351 -0.22071 0.22296
-0.29502 -0.22225 0.22145
-0.2966 -0.22364 0.21989
-0.29837 -0.22484 0.21835
-0.30026 -0.22602 0.21694
-0.30191 -0.2272 0.2153
-0.30341 -0.22825 0.21343
-0.30484 -0.22926 0.21147
-0.30638 -0.2302 0.20954
-0.30795 -0.23124 0.2077
-0.30957 -0.23221 0.20585
-0.31126 -0.23324 0.20411
-0.31286 -0.2342 0.20228
-0.31422 -0.2351 0.20024
-0.31549 -0.23589 0.19806
-0.31685 -0.23676 0.19595
-0.31838 -0.23797 0.19413
-0.31982 -0.23946 0.1925
-0.28059 -0.21339 0.2322
-0.28228 -0.21459 0.23054
-0.28409 -0.21593 0.22914
-0.28593 -0.2173 0.22784
-0.28767 -0.21878 0.22657
-0.28948 -0.22012 0.22525
-0.29124 -0.22141 0.22381
-0.29293 -0.22275 0.22232
-0.29444 -0.2243 0.22085
-0.29606 -0.22574 0.21938
-0.29787 -0.22698 0.21794
-0.29969 -0.22811 0.21645
-0.30127 -0.22926 0.21472
-0.30274 -0.23032 0.21283
-0.30419 -0.23137 0.21092
-0.30581 -0.23236 0.20911
-0.30728 -0.23337 0.20717
-0.30898 -0.23441 0.20546
-0.31064 -0.23545 0.20373
-0.312 -0.23628 0.20167
-0.31316 -0.23707 0.19946
-0.31444 -0.23789 0.19731
-0.31576 -0.23871 0.19514
-0.31734 -0.24 0.19344
-0.28001 -0.21527 0.23137
-0.2818 -0.2166 0.22994
-0.28361 -0.21795 0.2286
-0.28544 -0.21935 0.22736
-0.28715 -0.22083 0.22607
-0.28894 -0.22217 0.22473
-0.29067 -0.22345 0.22327
-0.29232 -0.22479 0.22175
-0.29384 -0.22638 0.22033
-0.29548 -0.22786 0.21896
-0.29721 -0.22906 0.21744
-0.29893 -0.23013 0.2158
-0.30051 -0.23129 0.21409
-0.30204 -0.2324 0.21231
-0.30354 -0.2335 0.21049
-0.305 -0.23441 0.20853
-0.30644 -0.23543 0.20659
-0.30807 -0.23642 0.20481
-0.30958 -0.23735 0.2029
-0.31085 -0.23812 0.20077
-0.31211 -0.23905 0.19869
-0.31325 -0.23976 0.19644
-0.31458 -0.24061 0.19429
-0.28122 -0.21861 0.22947
-0.28304 -0.21998 0.22819
-0.28485 -0.22137 0.22693
-0.28656 -0.22287 0.22567
-0.2883 -0.22419 0.22427
-0.29001 -0.22548 0.22279
-0.29169 -0.22687 0.22135
-0.29333 -0.22854 0.22018
-0.29494 -0.23001 0.21879
-0.29656 -0.23119 0.21715
-0.29825 -0.23226 0.21549
-0.29978 -0.2334 0.21373
-0.30131 -0.23451 0.21195
-0.30269 -0.23554 0.21001
-0.30399 -0.23636 0.20791
-0.30538 -0.23735 0.20592
-0.30692 -0.23829 0.20405
-0.30832 -0.23912 0.20203
-0.30962 -0.23995 0.19993
-0.31088 -0.24091 0.19788
-0.31201 -0.24166 0.19565
-0.28073 -0.22065 0.22908
-0.28253 -0.22203 0.22779
-0.28433 -0.22343 0.22654
-0.28604 -0.22492 0.22528
-0.2877 -0.22621 0.22377
-0.28939 -0.2275 0.22225
-0.29114 -0.22896 0.22096
-0.2928 -0.23065 0.21989
-0.29444 -0.23215 0.21858
-0.29607 -0.23336 0.21697
-0.29766 -0.2344 0.21521
-0.29914 -0.23552 0.2134
-0.30046 -0.23652 0.21141
-0.30171 -0.23747 0.20933
-0.30303 -0.23833 0.20726
-0.30435 -0.23931 0.20525
-0.30575 -0.24011 0.20321
-0.30711 -0.24092 0.20114
-0.30838 -0.24175 0.19902
-0.28204 -0.22408 0.22744
-0.2838 -0.22546 0.22613
-0.2854 -0.22689 0.2247
-0.28702 -0.22816 0.22312
-0.28874 -0.22952 0.22167
-0.29056 -0.23105 0.22058
-0.29217 -0.23272 0.21944
-0.29385 -0.23425 0.21822
-0.29546 -0.23547 0.21663
-0.29698 -0.23648 0.21481
-0.29825 -0.23749 0.21279
-0.29952 -0.23846 0.21076
-0.30066 -0.23933 0.20859
-0.30205 -0.2403 0.20662
-0.30318 -0.24112 0.20444
-0.30446 -0.24182 0.20228
-0.30584 -0.2427 0.20025
-0.28153 -0.22613 0.2271
-0.28321 -0.22748 0.2257
-0.28471 -0.22885 0.22411
-0.28636 -0.23017 0.22257
-0.28818 -0.23162 0.22138
-0.28999 -0.23316 0.22033
-0.29155 -0.23482 0.21913
-0.29317 -0.23633 0.21784
-0.29482 -0.23757 0.21631
-0.29611 -0.23846 0.21426
-0.29718 -0.23933 0.21208
-0.29842 -0.24028 0.21001
-0.29959 -0.24121 0.2079
-0.30086 -0.2421 0.20584
-0.30194 -0.24292 0.20364
-0.3032 -0.24367 0.20148
-0.28263 -0.22952 0.22532
-0.28406 -0.23087 0.22364
-0.28576 -0.23223 0.22221
-0.28754 -0.23367 0.22096
-0.28936 -0.23523 0.21999
-0.29097 -0.23694 0.21894
-0.29253 -0.23844 0.21757
-0.29395 -0.23953 0.21573
-0.29506 -0.24029 0.21353
-0.29623 -0.24126 0.21144
-0.29739 -0.24218 0.20933
-0.29846 -0.24302 0.20712
-0.29987 -0.24408 0.20523
-0.30098 -0.24496 0.20307
-0.28213 -0.23157 0.22491
-0.28354 -0.23292 0.22322
-0.28517 -0.23425 0.22166
-0.28703 -0.23577 0.22064
-0.28887 -0.23736 0.21977
-0.2904 -0.23903 0.21854
-0.29176 -0.24038 0.21684
-0.29304 -0.24136 0.21485
-0.29423 -0.24221 0.21273
-0.29522 -0.24302 0.21049
-0.29629 -0.24386 0.20828
-0.29752 -0.24491 0.20626
-0.29886 -0.24591 0.2043
-0.28163 -0.23361 0.2245
-0.28294 -0.23492 0.22266
-0.28469 -0.23635 0.22134
-0.28652 -0.23786 0.2203
-0.28826 -0.23936 0.21912
-0.28968 -0.24089 0.21762
-0.29117 -0.2424 0.21615
-0.29223 -0.24322 0.21394
-0.29316 -0.24383 0.21162
-0.29417 -0.24466 0.20936
-0.29541 -0.24572 0.20733
-0.28233 -0.23695 0.22229
-0.28409 -0.23842 0.22109
-0.28581 -0.23987 0.21983
-0.28744 -0.24125 0.21839
-0.28889 -0.24286 0.21699
-0.29037 -0.24437 0.21546
-0.29124 -0.24499 0.21309
-0.29215 -0.24564 0.21077
-0.29315 -0.24647 0.20852
-0.28145 -0.23891 0.22208
-0.28307 -0.24026 0.2206
-0.28472 -0.24164 0.21919
-0.28635 -0.24305 0.21778
-0.28775 -0.24463 0.2163
-0.28904 -0.24585 0.21442
-0.29004 -0.2466 0.21216
-0.29092 -0.24723 0.20982
-0.28212 -0.24216 0.22018
-0.2836 -0.24335 0.21845
-0.28512 -0.24458 0.21679
-0.28644 -0.24596 0.21509
-0.28764 -0.24701 0.2131
-0.28873 -0.248 0.21102
-0.28092 -0.24377 0.21934
-0.28239 -0.24497 0.21762
-0.28392 -0.24627 0.21604
-0.28519 -0.24761 0.21429
-0.28632 -0.2486 0.21224
-0.28127 -0.24673 0.21693
-0.28276 -0.24799 0.21532
-0.284 -0.24931 0.21355
-0.28019 -0.24856 0.21637
-0.28163 -0.24978 0.2147
POLYGONS 2127 8508
3 0 1 2
3 1 3 2
3 2 3 4
3 5 6 7
3 6 0 7
3 7 0 8
3 0 2 8
3 8 2 9
3 2 4 9
3 9 4 10
3 11 12 13
3 12 14 13
3 12 5 14
3 5 7 14
3 14 7 15
3 7 8 15
3 15 8 16
3 8 9 16
3 16 9 17
3 9 10 17
3 17 10 18
3 10 19 18
3 18 19 20
3 21 11 22
3 11 13 22
3 22 13 23
3 13 24 23
3 13 14 24
3 14 15 24
3 24 15 25
3 15 16 25
3 25 16 26
3 16 17 26
3 26 17 27
3 17 18 27
3 27 18 28
3 18 20 28
3 28 20 29
3 30 31 32
3 31 21 32
3 32 21 33
3 21 34 33
3 21 22 34
3 22 35 34
3 22 23 35
3 23 36 35
3 23 24 36
3 24 37 36
3 24 25 37
3 25 38 37
3 25 26 38
3 26 27 38
3 38 27 39
3 27 28 39
3 39 28 40
3 28 29 40
3 40 29 41
3 29 42 41
3 41 42 43
3 44 45 46
3 45 30 46
3 46 30 47
3 30 32 47
3 47 32 48
3 32 49 48
3 32 33 49
3 33 50 49
3 33 34 50
3 34 51 50
3 34 35 51
3 35 52 51
3 35 36 52
3 36 53 52
3 36 37 53
3 37 54 53
3 37 38 54
3 38 39 54
3 54 39 55
3 39 40 55
3 55 40 56
3 40 41 56
3 56 41 57
3 41 43 57
3 57 43 58
3 43 59 58
3 60 44 61
3 44 46 61
3 61 46 62
3 46 47 62
3 62 47 63
3 47 48 63
3 63 48 64
3 48 65 64
3 48 49 65
3 49 66 65
3 49 50 66
3 50 67 66
3 50 51 67
3 51 68 67
3 51 52 68
3 52 69 68
3 52 53 69
3 53 70 69
3 53 54 70
3 54 55 70
3 70 55 71
3 55 56 71
3 71 56 72
3 56 57 72
3 72 57 73
3 57 58 73
3 73 58 74
3 58 59 74
3 74 59 75
3 76 77 78
3 77 79 78
3 77 80 79
3 80 81 79
3 80 60 81
3 60 61 81
3 81 61 82
3 61 62 82
3 82 62 83
3 62 84 83
3 62 63 84
3 63 85 84
3 63 64 85
3 64 86 85
3 64 65 86
3 65 87 86
3 65 66 87
3 66 88 87
3 66 67 88
3 67 68 88
3 88 68 89
3 68 69 89
3 89 69 90
3 69 70 90
3 90 70 91
3 70 71 91
3 91 71 92
3 71 72 92
3 92 72 93
3 72 73 93
3 93 73 94
3 73 74 94
3 94 74 95
3 74 75 95
3 95 75 96
3 75 97 96
3 96 97 98
3 99 76 100
3 76 78 100
3 100 78 101
3 78 102 101
3 78 79 102
3 79 103 102
3 79 81 103
3 81 82 103
3 103 82 104
3 82 83 104
3 104 83 105
3 83 84 105
3 105 84 106
3 84 85 106
3 106 85 107
3 85 86 107
3 107 86 108
3 86 87 108
3 108 87 109
3 87 88 109
3 109 88 110
3 88 89 110
3 110 89 111
3 89 90 111
3 111 90 112
3 90 91 112
3 112 91 113
3 91 92 113
3 113 92 114
3 92 93 114
3 114 93 115
3 93 94 115
3 115 94 116
3 94 95 116
3 116 95 117
3 95 96 117
3 117 96 118
3 96 98 118
3 118 98 119
3 120 99 121
3 99 100 121
3 121 100 122
3 100 101 122
3 122 101 123
3 101 124 123
3 101 102 124
3 102 125 124
3 102 103 125
3 103 126 125
3 103 104 126
3 104 105 126
3 126 105 127
3 105 106 127
3 127 106 128
3 106 107 128
3 128 107 129
3 107 108 129
3 129 108 130
3 108 109 130
3 130 109 131
3 109 110 131
3 131 110 132
3 110 111 132
3 132 111 133
3 111 112 133
3 133 112 134
3 112 113 134
3 134 113 135
3 113 114 135
3 135 114 136
3 114 115 136
3 136 115 137
3 115 116 137
3 137 116 138
3 116 117 138
3 138 117 139
3 117 118 139
3 139 118 140
3 118 119 140
3 140 119 141
3 120 121 142
3 142 121 143
3 121 122 143
3 143 122 144
3 122 123 144
3 144 123 145
3 123 146 145
3 123 124 146
3 124 147 146
3 124 125 147
3 125 148 147
3 125 126 148
3 126 149 148
3 126 127 149
3 127 128 149
3 149 128 150
3 128 129 150
3 150 129 151
3 129 130 151
3 151 130 152
3 130 131 152
3 152 131 153
3 131 132 153
3 153 132 154
3 132 133 154
3 154 133 155
3 133 134 155
3 155 134 156
3 134 135 156
3 156 135 157
3 135 136 157
3 157 136 158
3 136 137 158
3 158 137 159
3 137 138 159
3 159 138 160
3 138 139 160
3 160 139 161
3 139 140 161
3 161 140 162
3 140 141 162
3 162 141 163
3 141 164 163
3 163 164 165
3 166 167 168
3 167 142 168
3 168 142 169
3 142 143 169
3 169 143 170
3 143 144 170
3 170 144 171
3 144 145 171
3 171 145 172
3 145 173 172
3 145 146 173
3 146 174 173
3 146 147 174
3 147 148 174
3 174 148 175
3 148 149 175
3 175 149 176
3 149 150 176
3 176 150 177
3 150 151 177
3 177 151 178
3 151 152 178
3 178 152 179
3 152 153 179
3 179 153 180
3 153 154 180
3 180 154 181
3 154 155 181
3 181 155 182
3 155 156 182
3 182 156 183
3 156 157 183
3 183 157 184
3 157 158 184
3 184 158 185
3 158 159 185
3 185 159 186
3 159 160 186
3 186 160 187
3 160 161 187
3 187 161 188
3 161 162 188
3 188 162 189
3 162 163 189
3 189 163 190
3 163 165 190
3 190 165 191
3 166 168 192
3 192 168 193
3 168 169 193
3 193 169 194
3 169 170 194
3 194 170 195
3 170 171 195
3 195 171 196
3 171 172 196
3 196 172 197
3 172 198 197
3 172 173 198
3 173 199 198
3 173 174 199
3 174 175 199
3 199 175 200
3 175 176 200
3 200 176 201
3 176 177 201
3 201 177 202
3 177 178 202
3 202 178 203
3 178 179 203
3 203 179 204
3 179 180 204
3 204 180 205
3 180 181 205
3 205 181 206
3 181 182 206
3 206 182 207
3 182 183 207
3 207 183 208
3 183 184 208
3 208 184 209
3 184 185 209
3 209 185 210
3 185 186 210
3 210 186 211
3 186 187 211
3 211 187 212
3 187 188 212
3 212 188 213
3 188 189 213
3 213 189 214
3 189 190 214
3 214 190 215
3 190 191 215
3 215 191 216
3 191 217 216
3 216 217 218
3 219 220 221
3 220 192 221
3 221 192 222
3 192 193 222
3 222 193 223
3 193 194 223
3 223 194 224
3 194 195 224
3 224 195 225
3 195 196 225
3 225 196 226
3 196 197 226
3 226 197 227
3 197 198 227
3 227 198 228
3 198 229 228
3 198 199 229
3 199 230 229
3 199 200 230
3 200 201 230
3 230 201 231
3 201 232 231
3 201 202 232
3 202 233 232
3 202 203 233
3 203 234 233
3 203 204 234
3 204 205 234
3 234 205 235
3 205 206 235
3 235 206 236
3 206 207 236
3 236 207 237
3 207 208 237
3 237 208 238
3 208 209 238
3 238 209 239
3 209 210 239
3 239 210 240
3 210 211 240
3 240 211 241
3 211 212 241
3 241 212 242
3 212 213 242
3 242 213 243
3 213 214 243
3 243 214 244
3 214 215 244
3 244 215 245
3 215 216 245
3 245 216 246
3 216 247 246
3 216 218 247
3 248 219 249
3 219 221 249
3 249 221 250
3 221 222 250
3 250 222 251
3 222 223 251
3 251 223 252
3 223 224 252
3 252 224 253
3 224 225 253
3 253 225 254
3 225 226 254
3 254 226 255
3 226 227 255
3 255 227 256
3 227 228 256
3 256 228 257
3 228 229 257
3 257 229 258
3 229 259 258
3 229 230 259
3 230 260 259
3 230 231 260
3 231 261 260
3 231 232 261
3 232 262 261
3 232 233 262
3 233 263 262
3 233 234 263
3 234 264 263
3 234 235 264
3 235 236 264
3 264 236 265
3 236 237 265
3 265 237 266
3 237 238 266
3 266 238 267
3 238 239 267
3 267 239 268
3 239 240 268
3 268 240 269
3 240 241 269
3 269 241 270
3 241 242 270
3 270 242 271
3 242 243 271
3 271 243 272
3 243 244 272
3 272 244 273
3 244 245 273
3 273 245 274
3 245 275 274
3 245 246 275
3 246 276 275
3 246 247 276
3 247 277 276
3 276 277 278
3 279 248 280
3 248 249 280
3 280 249 281
3 249 250 281
3 281 250 282
3 250 251 282
3 282 251 283
3 251 252 283
3 283 252 284
3 252 253 284
3 284 253 285
3 253 254 285
3 285 254 286
3 254 255 286
3 286 255 287
3 255 256 287
3 287 256 288
3 256 257 288
3 288 257 289
3 257 258 289
3 289 258 290
3 258 259 290
3 290 259 291
3 259 260 291
3 291 260 292
3 260 261 292
3 292 261 293
3 261 262 293
3 293 262 294
3 262 263 294
3 294 263 295
3 263 264 295
3 295 264 296
3 264 265 296
3 296 265 297
3 265 266 297
3 297 266 298
3 266 267 298
3 298 267 299
3 267 268 299
3 299 268 300
3 268 269 300
3 300 269 301
3 269 270 301
3 301 270 302
3 270 271 302
3 302 271 303
3 271 272 303
3 303 272 304
3 272 273 304
3 304 273 305
3 273 274 305
3 305 274 306
3 274 275 306
3 306 275 307
3 275 276 307
3 307 276 308
3 276 278 308
3 308 278 309
3 310 279 311
3 279 280 311
3 311 280 312
3 280 281 312
3 312 281 313
3 281 282 313
3 313 282 314
3 282 283 314
3 314 283 315
3 283 284 315
3 315 284 316
3 284 285 316
3 316 285 317
3 285 286 317
3 317 286 318
3 286 287 318
3 318 287 319
3 287 288 319
3 319 288 320
3 288 289 320
3 320 289 321
3 289 290 321
3 321 290 322
3 290 291 322
3 322 291 323
3 291 292 323
3 323 292 324
3 292 293 324
3 324 293 325
3 293 294 325
3 325 294 326
3 294 295 326
3 326 295 327
3 295 296 327
3 327 296 328
3 296 297 328
3 328 297 329
3 297 298 329
3 329 298 330
3 298 299 330
3 330 299 331
3 299 300 331
3 331 300 332
3 300 301 332
3 332 301 333
3 301 302 333
3 333 302 334
3 302 303 334
3 334 303 335
3 303 304 335
3 335 304 336
3 304 305 336
3 336 305 337
3 305 306 337
3 337 306 338
3 306 307 338
3 338 307 339
3 307 308 339
3 339 308 340
3 308 309 340
3 340 309 341
3 309 342 341
3 341 342 343
3 344 345 346
3 344 347 345
3 347 310 345
3 345 310 348
3 310 311 348
3 348 311 349
3 311 312 349
3 349 312 350
3 312 313 350
3 350 313 351
3 313 314 351
3 351 314 352
3 314 315 352
3 352 315 353
3 315 316 353
3 353 316 354
3 316 317 354
3 354 317 355
3 317 318 355
3 355 318 356
3 318 319 356
3 356 319 357
3 319 320 357
3 357 320 358
3 320 321 358
3 358 321 359
3 321 322 359
3 359 322 360
3 322 323 360
3 360 323 361
3 323 324 361
3 361 324 362
3 324 325 362
3 362 325 363
3 325 326 363
3 363 326 364
3 326 327 364
3 364 327 365
3 327 328 365
3 365 328 366
3 328 329 366
3 366 329 367
3 329 330 367
3 367 330 368
3 330 331 368
3 368 331 369
3 331 332 369
3 369 332 370
3 332 333 370
3 370 333 371
3 333 334 371
3 371 334 372
3 334 335 372
3 372 335 373
3 335 336 373
3 373 336 374
3 336 337 374
3 374 337 375
3 337 338 375
3 375 338 376
3 338 339 376
3 376 339 377
3 339 340 377
3 377 340 378
3 340 341 378
3 378 341 379
3 341 343 379
3 379 343 380
3 381 382 383
3 384 385 382
3 384 346 385
3 346 386 385
3 346 345 386
3 345 348 386
3 386 348 387
3 348 349 387
3 387 349 388
3 349 350 388
3 388 350 389
3 350 351 389
3 389 351 390
3 351 352 390
3 390 352 391
3 352 353 391
3 391 353 392
3 353 354 392
3 392 354 393
3 354 394 393
3 354 355 394
3 355 395 394
3 355 356 395
3 356 396 395
3 356 357 396
3 357 397 396
3 357 358 397
3 358 398 397
3 358 359 398
3 359 360 398
3 398 360 399
3 360 400 399
3 360 361 400
3 361 401 400
3 361 362 401
3 362 402 401
3 362 363 402
3 363 403 402
3 363 364 403
3 364 404 403
3 364 365 404
3 365 405 404
3 365 366 405
3 366 406 405
3 366 367 406
3 367 407 406
3 367 368 407
3 368 408 407
3 368 369 408
3 369 409 408
3 369 370 409
3 370 371 409
3 409 371 410
3 371 372 410
3 410 372 411
3 372 373 411
3 411 373 412
3 373 374 412
3 412 374 413
3 374 414 413
3 374 375 414
3 375 415 414
3 375 376 415
3 376 416 415
3 376 377 416
3 377 417 416
3 377 378 417
3 378 418 417
3 378 379 418
3 379 419 418
3 379 380 419
3 380 420 419
3 421 383 422
3 383 382 422
3 422 382 423
3 382 424 423
3 382 385 424
3 385 425 424
3 385 386 425
3 386 387 425
3 425 387 426
3 387 388 426
3 426 388 427
3 388 389 427
3 427 389 428
3 389 390 428
3 428 390 429
3 390 391 429
3 429 391 430
3 391 392 430
3 430 392 431
3 392 393 431
3 431 393 432
3 393 394 432
3 432 394 433
3 394 395 433
3 433 395 434
3 395 396 434
3 434 396 435
3 396 397 435
3 435 397 436
3 397 398 436
3 436 398 437
3 398 399 437
3 437 399 438
3 399 400 438
3 438 400 439
3 400 401 439
3 439 401 440
3 401 441 440
3 401 402 441
3 402 442 441
3 402 403 442
3 403 443 442
3 403 404 443
3 404 444 443
3 404 405 444
3 405 445 444
3 405 406 445
3 406 446 445
3 406 407 446
3 407 447 446
3 407 408 447
3 408 409 447
3 447 409 448
3 409 410 448
3 448 410 449
3 410 411 449
3 449 411 450
3 411 412 450
3 450 412 451
3 412 413 451
3 451 413 452
3 413 453 452
3 413 414 453
3 414 415 453
3 453 415 454
3 415 455 454
3 415 416 455
3 416 456 455
3 416 417 456
3 417 457 456
3 417 418 457
3 418 419 457
3 457 419 458
3 419 420 458
3 458 420 459
3 420 460 459
3 459 460 461
3 421 422 462
3 462 422 463
3 422 423 463
3 463 423 464
3 423 465 464
3 423 424 465
3 424 466 465
3 424 425 466
3 425 426 466
3 466 426 467
3 426 427 467
3 467 427 468
3 427 428 468
3 468 428 469
3 428 429 469
3 469 429 470
3 429 430 470
3 470 430 471
3 430 431 471
3 471 431 472
3 431 432 472
3 472 432 473
3 432 433 473
3 473 433 474
3 433 434 474
3 474 434 475
3 434 435 475
3 475 435 476
3 435 436 476
3 476 436 477
3 436 437 477
3 477 437 478
3 437 438 478
3 478 438 479
3 438 439 479
3 479 439 480
3 439 440 480
3 480 440 481
3 440 441 481
3 481 441 482
3 441 442 482
3 482 442 483
3 442 443 483
3 483 443 484
3 443 444 484
3 484 444 485
3 444 445 485
3 485 445 486
3 445 446 486
3 486 446 487
3 446 447 487
3 487 447 488
3 447 448 488
3 488 448 489
3 448 449 489
3 489 449 490
3 449 450 490
3 490 450 491
3 450 451 491
3 491 451 492
3 451 452 492
3 492 452 493
3 452 453 493
3 493 453 494
3 453 454 494
3 494 454 495
3 454 455 495
3 495 455 496
3 455 456 496
3 496 456 497
3 456 457 497
3 497 457 498
3 457 458 498
3 498 458 499
3 458 459 499
3 499 459 500
3 459 461 500
3 500 461 501
3 462 463 502
3 502 463 503
3 463 464 503
3 503 464 504
3 464 505 504
3 464 465 505
3 465 466 505
3 505 466 506
3 466 467 506
3 506 467 507
3 467 468 507
3 507 468 508
3 468 469 508
3 508 469 509
3 469 470 509
3 509 470 510
3 470 471 510
3 510 471 511
3 471 472 511
3 511 472 512
3 472 473 512
3 512 473 513
3 473 474 513
3 513 474 514
3 474 475 514
3 514 475 515
3 475 476 515
3 515 476 516
3 476 477 516
3 516 477 517
3 477 478 517
3 517 478 518
3 478 479 518
3 518 479 519
3 479 480 519
3 519 480 520
3 480 481 520
3 520 481 521
3 481 482 521
3 521 482 522
3 482 483 522
3 522 483 523
3 483 484 523
3 523 484 524
3 484 485 524
3 524 485 525
3 485 486 525
3 525 486 526
3 486 487 526
3 526 487 527
3 487 488 527
3 527 488 528
3 488 489 528
3 528 489 529
3 489 490 529
3 529 490 530
3 490 491 530
3 530 491 531
3 491 492 531
3 531 492 532
3 492 493 532
3 532 493 533
3 493 494 533
3 533 494 534
3 494 495 534
3 534 495 535
3 495 496 535
3 535 496 536
3 496 497 536
3 536 497 537
3 497 498 537
3 537 498 538
3 498 499 538
3 538 499 539
3 499 500 539
3 539 500 540
3 500 501 540
3 540 501 541
3 501 542 541
3 541 542 543
3 502 503 544
3 503 504 545
3 545 504 546
3 504 547 546
3 504 505 547
3 505 506 547
3 547 506 548
3 506 507 548
3 548 507 549
3 507 508 549
3 549 508 550
3 508 509 550
3 550 509 551
3 509 510 551
3 551 510 552
3 510 511 552
3 552 511 553
3 511 512 553
3 553 512 554
3 512 513 554
3 554 513 555
3 513 514 555
3 555 514 556
3 514 515 556
3 556 515 557
3 515 516 557
3 557 516 558
3 516 517 558
3 558 517 559
3 517 518 559
3 559 518 560
3 518 519 560
3 560 519 561
3 519 520 561
3 561 520 562
3 520 521 562
3 562 521 563
3 521 522 563
3 563 522 564
3 522 523 564
3 564 523 565
3 523 524 565
3 565 524 566
3 524 525 566
3 566 525 567
3 525 526 567
3 567 526 568
3 526 527 568
3 568 527 569
3 527 528 569
3 569 528 570
3 528 529 570
3 570 529 571
3 529 530 571
3 571 530 572
3 530 531 572
3 572 531 573
3 531 532 573
3 573 532 574
3 532 533 574
3 574 533 575
3 533 534 575
3 575 534 576
3 534 535 576
3 576 535 577
3 535 536 577
3 577 536 578
3 536 537 578
3 578 537 579
3 537 538 579
3 579 538 580
3 538 539 580
3 580 539 581
3 539 540 581
3 581 540 582
3 540 541 582
3 582 541 583
3 541 543 583
3 583 543 584
3 545 546 585
3 585 546 586
3 546 587 586
3 546 547 587
3 547 588 587
3 547 548 588
3 548 549 588
3 588 549 589
3 549 550 589
3 589 550 590
3 550 551 590
3 590 551 591
3 551 552 591
3 591 552 592
3 552 553 592
3 592 553 593
3 553 554 593
3 593 554 594
3 554 555 594
3 594 555 595
3 555 556 595
3 595 556 596
3 556 557 596
3 596 557 597
3 557 558 597
3 597 558 598
3 558 559 598
3 598 559 599
3 559 560 599
3 599 560 600
3 560 561 600
3 600 561 601
3 561 562 601
3 601 562 602
3 562 563 602
3 602 563 603
3 563 564 603
3 603 564 604
3 564 565 604
3 604 565 605
3 565 566 605
3 605 566 606
3 566 567 606
3 606 567 607
3 567 568 607
3 607 568 608
3 568 569 608
3 608 569 609
3 569 570 609
3 609 570 610
3 570 571 610
3 610 571 611
3 571 572 611
3 611 572 612
3 572 573 612
3 612 573 613
3 573 574 613
3 613 574 614
3 574 575 614
3 614 575 615
3 575 576 615
3 615 576 616
3 576 577 616
3 616 577 617
3 577 578 617
3 617 578 618
3 578 579 618
3 618 579 619
3 579 580 619
3 619 580 620
3 580 581 620
3 620 581 621
3 581 582 621
3 621 582 622
3 582 583 622
3 622 583 623
3 583 584 623
3 623 584 624
3 584 625 624
3 624 625 626
3 585 586 627
3 586 628 627
3 586 587 628
3 587 629 628
3 587 588 629
3 588 589 629
3 629 589 630
3 589 590 630
3 630 590 631
3 590 591 631
3 631 591 632
3 591 592 632
3 632 592 633
3 592 593 633
3 633 593 634
3 593 594 634
3 634 594 635
3 594 595 635
3 635 595 636
3 595 596 636
3 636 596 637
3 596 597 637
3 637 597 638
3 597 598 638
3 638 598 639
3 598 599 639
3 639 599 640
3 599 600 640
3 640 600 641
3 600 601 641
3 641 601 642
3 601 602 642
3 642 602 643
3 602 603 643
3 643 603 644
3 603 604 644
3 644 604 645
3 604 605 645
3 645 605 646
3 605 606 646
3 646 606 647
3 606 607 647
3 647 607 648
3 607 608 648
3 648 608 649
3 608 609 649
3 649 609 650
3 609 610 650
3 650 610 651
3 610 611 651
3 651 611 652
3 611 612 652
3 652 612 653
3 612 613 653
3 653 613 654
3 613 614 654
3 654 614 655
3 614 615 655
3 655 615 656
3 615 616 656
3 656 616 657
3 616 617 657
3 657 617 658
3 617 618 658
3 658 618 659
3 618 619 659
3 659 619 660
3 619 620 660
3 660 620 661
3 620 621 661
3 661 621 662
3 621 622 662
3 662 622 663
3 622 623 663
3 663 623 664
3 623 624 664
3 664 624 665
3 624 626 665
3 627 666 667
3 627 628 666
3 628 668 666
3 628 629 668
3 629 630 668
3 668 630 669
3 630 631 669
3 669 631 670
3 631 632 670
3 670 632 671
3 632 633 671
3 671 633 672
3 633 634 672
3 672 634 673
3 634 635 673
3 673 635 674
3 635 636 674
3 674 636 675
3 636 637 675
3 675 637 676
3 637 638 676
3 676 638 677
3 638 639 677
3 677 639 678
3 639 640 678
3 678 640 679
3 640 641 679
3 679 641 680
3 641 642 680
3 680 642 681
3 642 643 681
3 681 643 682
3 643 644 682
3 682 644 683
3 644 645 683
3 683 645 684
3 645 646 684
3 684 646 685
3 646 647 685
3 685 647 686
3 647 648 686
3 686 648 687
3 648 649 687
3 687 649 688
3 649 650 688
3 688 650 689
3 650 651 689
3 689 651 690
3 651 652 690
3 690 652 691
3 652 653 691
3 691 653 692
3 653 654 692
3 692 654 693
3 654 655 693
3 693 655 694
3 655 656 694
3 694 656 695
3 656 657 695
3 695 657 696
3 657 658 696
3 696 658 697
3 658 659 697
3 697 659 698
3 659 660 698
3 698 660 699
3 660 661 699
3 699 661 700
3 661 662 700
3 700 662 701
3 662 663 701
3 701 663 702
3 663 664 702
3 702 664 703
3 664 665 703
3 667 666 704
3 666 705 704
3 666 668 705
3 668 669 705
3 705 669 706
3 669 670 706
3 706 670 707
3 670 671 707
3 707 671 708
3 671 672 708
3 708 672 709
3 672 673 709
3 709 673 710
3 673 674 710
3 710 674 711
3 674 675 711
3 711 675 712
3 675 676 712
3 712 676 713
3 676 677 713
3 713 677 714
3 677 678 714
3 714 678 715
3 678 679 715
3 715 679 716
3 679 680 716
3 716 680 717
3 680 681 717
3 717 681 718
3 681 682 718
3 718 682 719
3 682 683 719
3 719 683 720
3 683 684 720
3 720 684 721
3 684 685 721
3 721 685 722
3 685 686 722
3 722 686 723
3 686 687 723
3 723 687 724
3 687 688 724
3 724 688 725
3 688 689 725
3 725 689 726
3 689 690 726
3 726 690 727
3 690 691 727
3 727 691 728
3 691 692 728
3 728 692 729
3 692 693 729
3 729 693 730
3 693 694 730
3 730 694 731
3 694 695 731
3 731 695 732
3 695 696 732
3 732 696 733
3 696 697 733
3 733 697 734
3 697 698 734
3 734 698 735
3 698 699 735
3 735 699 736
3 699 700 736
3 736 700 737
3 700 701 737
3 737 701 738
3 701 702 738
3 704 739 740
3 704 705 739
3 705 706 739
3 739 706 741
3 706 707 741
3 741 707 742
3 707 708 742
3 742 708 743
3 708 709 743
3 743 709 744
3 709 710 744
3 744 710 745
3 710 711 745
3 745 711 746
3 711 712 746
3 746 712 747
3 712 713 747
3 747 713 748
3 713 714 748
3 748 714 749
3 714 715 749
3 749 715 750
3 715 716 750
3 750 716 751
3 716 717 751
3 751 717 752
3 717 718 752
3 752 718 753
3 718 719 753
3 753 719 754
3 719 720 754
3 754 720 755
3 720 721 755
3 755 721 756
3 721 722 756
3 756 722 757
3 722 723 757
3 757 723 758
3 723 724 758
3 758 724 759
3 724 725 759
3 759 725 760
3 725 726 760
3 760 726 761
3 726 727 761
3 761 727 762
3 727 728 762
3 762 728 763
3 728 729 763
3 763 729 764
3 729 730 764
3 764 730 765
3 730 731 765
3 765 731 766
3 731 732 766
3 766 732 767
3 732 733 767
3 767 733 768
3 733 734 768
3 768 734 769
3 734 735 769
3 769 735 770
3 735 736 770
3 770 736 771
3 736 737 771
3 771 737 772
3 737 738 772
3 740 739 773
3 739 741 773
3 773 741 774
3 741 742 774
3 774 742 775
3 742 743 775
3 775 743 776
3 743 744 776
3 776 744 777
3 744 745 777
3 777 745 778
3 745 746 778
3 778 746 779
3 746 747 779
3 779 747 780
3 747 748 780
3 780 748 781
3 748 749 781
3 781 749 782
3 749 750 782
3 782 750 783
3 750 751 783
3 783 751 784
3 751 752 784
3 784 752 785
3 752 753 785
3 785 753 786
3 753 754 786
3 786 754 787
3 754 755 787
3 787 755 788
3 755 756 788
3 788 756 789
3 756 757 789
3 789 757 790
3 757 791 790
3 757 758 791
3 758 759 791
3 791 759 792
3 759 793 792
3 759 760 793
3 760 761 793
3 793 761 794
3 761 762 794
3 794 762 795
3 762 763 795
3 795 763 796
3 763 764 796
3 796 764 797
3 764 765 797
3 797 765 798
3 765 766 798
3 798 766 799
3 766 767 799
3 799 767 800
3 767 768 800
3 800 768 801
3 768 769 801
3 801 769 802
3 769 770 802
3 802 770 803
3 770 771 803
3 803 771 804
3 771 772 804
3 773 774 805
3 805 774 806
3 774 775 806
3 806 775 807
3 775 776 807
3 807 776 808
3 776 777 808
3 808 777 809
3 777 778 809
3 809 778 810
3 778 779 810
3 810 779 811
3 779 780 811
3 811 780 812
3 780 781 812
3 812 781 813
3 781 782 813
3 813 782 814
3 782 783 814
3 814 783 815
3 783 784 815
3 815 784 816
3 784 817 816
3 784 785 817
3 785 786 817
3 817 786 818
3 786 787 818
3 818 787 819
3 787 820 819
3 787 788 820
3 788 821 820
3 788 789 821
3 789 822 821
3 789 790 822
3 790 823 822
3 790 791 823
3 791 824 823
3 791 792 824
3 792 825 824
3 792 793 825
3 793 794 825
3 825 794 826
3 794 827 826
3 794 795 827
3 795 828 827
3 795 796 828
3 796 797 828
3 828 797 829
3 797 798 829
3 829 798 830
3 798 799 830
3 830 799 831
3 799 800 831
3 831 800 832
3 800 801 832
3 832 801 833
3 801 802 833
3 833 802 834
3 802 835 834
3 802 803 835
3 805 806 836
3 836 806 837
3 806 807 837
3 837 807 838
3 807 808 838
3 838 808 839
3 808 809 839
3 839 809 840
3 809 810 840
3 840 810 841
3 810 811 841
3 841 811 842
3 811 812 842
3 842 812 843
3 812 813 843
3 843 813 844
3 813 814 844
3 844 814 845
3 814 815 845
3 845 815 846
3 815 816 846
3 846 816 847
3 816 817 847
3 847 817 848
3 817 818 848
3 848 818 849
3 818 819 849
3 849 819 850
3 819 820 850
3 850 820 851
3 820 852 851
3 820 821 852
3 821 822 852
3 852 822 853
3 822 854 853
3 822 823 854
3 823 855 854
3 823 824 855
3 824 856 855
3 824 825 856
3 825 826 856
3 856 826 857
3 826 827 857
3 857 827 858
3 827 828 858
3 858 828 859
3 828 829 859
3 859 829 860
3 829 830 860
3 860 830 861
3 830 831 861
3 861 831 862
3 831 832 862
3 862 832 863
3 832 833 863
3 863 833 864
3 833 834 864
3 837 838 865
3 865 838 866
3 838 839 866
3 866 839 867
3 839 840 867
3 867 840 868
3 840 841 868
3 868 841 869
3 841 842 869
3 869 842 870
3 842 843 870
3 870 843 871
3 843 844 871
3 871 844 872
3 844 845 872
3 872 845 873
3 845 846 873
3 873 846 874
3 846 847 874
3 874 847 875
3 847 848 875
3 875 848 876
3 848 849 876
3 876 849 877
3 849 850 877
3 877 850 878
3 850 851 878
3 878 851 879
3 851 852 879
3 879 852 880
3 852 853 880
3 880 853 881
3 853 854 881
3 881 854 882
3 854 855 882
3 882 855 883
3 855 856 883
3 883 856 884
3 856 857 884
3 884 857 885
3 857 858 885
3 885 858 886
3 858 859 886
3 886 859 887
3 859 860 887
3 887 860 888
3 860 861 888
3 888 861 889
3 861 862 889
3 889 862 890
3 862 863 890
3 890 863 891
3 863 864 891
3 865 866 892
3 892 866 893
3 866 867 893
3 893 867 894
3 867 868 894
3 894 868 895
3 868 869 895
3 895 869 896
3 869 870 896
3 896 870 897
3 870 871 897
3 897 871 898
3 871 872 898
3 898 872 899
3 872 873 899
3 899 873 900
3 873 874 900
3 900 874 901
3 874 875 901
3 901 875 902
3 875 876 902
3 902 876 903
3 876 877 903
3 903 877 904
3 877 878 904
3 904 878 905
3 878 879 905
3 905 879 906
3 879 880 906
3 906 880 907
3 880 881 907
3 907 881 908
3 881 882 908
3 908 882 909
3 882 883 909
3 909 883 910
3 883 884 910
3 910 884 911
3 884 885 911
3 911 885 912
3 885 886 912
3 912 886 913
3 886 887 913
3 913 887 914
3 887 888 914
3 914 888 915
3 888 889 915
3 915 889 916
3 889 890 916
3 916 890 917
3 890 891 917
3 892 893 918
3 918 893 919
3 893 894 919
3 919 894 920
3 894 895 920
3 920 895 921
3 895 896 921
3 921 896 922
3 896 897 922
3 922 897 923
3 897 898 923
3 923 898 924
3 898 899 924
3 924 899 925
3 899 900 925
3 925 900 926
3 900 901 926
3 926 901 927
3 901 902 927
3 927 902 928
3 902 903 928
3 928 903 929
3 903 904 929
3 929 904 930
3 904 905 930
3 930 905 931
3 905 906 931
3 931 906 932
3 906 907 932
3 932 907 933
3 907 908 933
3 933 908 934
3 908 909 934
3 934 909 935
3 909 910 935
3 935 910 936
3 910 911 936
3 936 911 937
3 911 912 937
3 937 912 938
3 912 913 938
3 938 913 939
3 913 914 939
3 939 914 940
3 914 915 940
3 940 915 941
3 915 916 941
3 941 916 942
3 916 917 942
3 918 919 943
3 943 919 944
3 919 920 944
3 944 920 945
3 920 921 945
3 945 921 946
3 921 922 946
3 946 922 947
3 922 923 947
3 947 923 948
3 923 924 948
3 948 924 949
3 924 925 949
3 949 925 950
3 925 926 950
3 950 926 951
3 926 927 951
3 951 927 952
3 927 928 952
3 952 928 953
3 928 929 953
3 953 929 954
3 929 930 954
3 954 930 955
3 930 931 955
3 955 931 956
3 931 932 956
3 956 932 957
3 932 933 957
3 957 933 958
3 933 934 958
3 958 934 959
3 934 935 959
3 959 935 960
3 935 936 960
3 960 936 961
3 936 937 961
3 961 937 962
3 937 938 962
3 962 938 963
3 938 939 963
3 963 939 964
3 939 940 964
3 964 940 965
3 940 941 965
3 965 941 966
3 941 942 966
3 943 944 967
3 967 944 968
3 944 945 968
3 968 945 969
3 945 946 969
3 969 946 970
3 946 947 970
3 970 947 971
3 947 948 971
3 971 948 972
3 948 949 972
3 972 949 973
3 949 950 973
3 973 950 974
3 950 951 974
3 974 951 975
3 951 952 975
3 975 952 976
3 952 953 976
3 976 953 977
3 953 954 977
3 977 954 978
3 954 955 978
3 978 955 979
3 955 956 979
3 979 956 980
3 956 957 980
3 980 957 981
3 957 958 981
3 981 958 982
3 958 959 982
3 982 959 983
3 959 960 983
3 983 960 984
3 960 961 984
3 984 961 985
3 961 962 985
3 985 962 986
3 962 963 986
3 986 963 987
3 963 964 987
3 987 964 988
3 964 965 988
3 988 965 989
3 965 966 989
3 968 969 990
3 990 969 991
3 969 970 991
3 991 970 992
3 970 971 992
3 992 971 993
3 971 972 993
3 993 972 994
3 972 973 994
3 994 973 995
3 973 974 995
3 995 974 996
3 974 975 996
3 996 975 997
3 975 976 997
3 997 976 998
3 976 977 998
3 998 977 999
3 977 978 999
3 999 978 1000
3 978 979 1000
3 1000 979 1001
3 979 980 1001
3 1001 980 1002
3 980 981 1002
3 1002 981 1003
3 981 982 1003
3 1003 982 1004
3 982 983 1004
3 1004 983 1005
3 983 984 1005
3 1005 984 1006
3 984 985 1006
3 1006 985 1007
3 985 986 1007
3 1007 986 1008
3 986 987 1008
3 1008 987 1009
3 987 988 1009
3 1009 988 1010
3 988 989 1010
3 990 991 1011
3 1011 991 1012
3 991 992 1012
3 1012 992 1013
3 992 993 1013
3 1013 993 1014
3 993 994 1014
3 1014 994 1015
3 994 995 1015
3 1015 995 1016
3 995 996 1016
3 1016 996 1017
3 996 997 1017
3 1017 997 1018
3 997 998 1018
3 1018 998 1019
3 998 999 1019
3 1019 999 1020
3 999 1000 1020
3 1020 1000 1021
3 1000 1001 1021
3 1021 1001 1022
3 1001 1002 1022
3 1022 1002 1023
3 1002 1003 1023
3 1023 1003 1024
3 1003 1004 1024
3 1024 1004 1025
3 1004 1005 1025
3 1025 1005 1026
3 1005 1006 1026
3 1026 1006 1027
3 1006 1007 1027
3 1027 1007 1028
3 1007 1008 1028
3 1028 1008 1029
3 1008 1009 1029
3 1012 1013 1030
3 1030 1013 1031
3 1013 1014 1031
3 1031 1014 1032
3 1014 1015 1032
3 1032 1015 1033
3 1015 1016 1033
3 1033 1016 1034
3 1016 1017 1034
3 1034 1017 1035
3 1017 1018 1035
3 1035 1018 1036
3 1018 1019 1036
3 1036 1019 1037
3 1019 1020 1037
3 1037 1020 1038
3 1020 1021 1038
3 1038 1021 1039
3 1021 1022 1039
3 1039 1022 1040
3 1022 1023 1040
3 1040 1023 1041
3 1023 1024 1041
3 1041 1024 1042
3 1024 1025 1042
3 1042 1025 1043
3 1025 1026 1043
3 1043 1026 1044
3 1026 1027 1044
3 1044 1027 1045
3 1027 1028 1045
3 1045 1028 1046
3 1028 1029 1046
3 1030 1031 1047
3 1047 1031 1048
3 1031 1032 1048
3 1048 1032 1049
3 1032 1033 1049
3 1049 1033 1050
3 1033 1034 1050
3 1050 1034 1051
3 1034 1035 1051
3 1051 1035 1052
3 1035 1036 1052
3 1052 1036 1053
3 1036 1037 1053
3 1053 1037 1054
3 1037 1038 1054
3 1054 1038 1055
3 1038 1039 1055
3 1055 1039 1056
3 1039 1040 1056
3 1056 1040 1057
3 1040 1041 1057
3 1057 1041 1058
3 1041 1042 1058
3 1058 1042 1059
3 1042 1043 1059
3 1059 1043 1060
3 1043 1044 1060
3 1060 1044 1061
3 1044 1045 1061
3 1061 1045 1062
3 1045 1046 1062
3 1048 1049 1063
3 1063 1049 1064
3 1049 1050 1064
3 1064 1050 1065
3 1050 1051 1065
3 1065 1051 1066
3 1051 1052 1066
3 1066 1052 1067
3 1052 1053 1067
3 1067 1053 1068
3 1053 1054 1068
3 1068 1054 1069
3 1054 1055 1069
3 1069 1055 1070
3 1055 1056 1070
3 1070 1056 1071
3 1056 1057 1071
3 1071 1057 1072
3 1057 1058 1072
3 1072 1058 1073
3 1058 1059 1073
3 1073 1059 1074
3 1059 1060 1074
3 1074 1060 1075
3 1060 1061 1075
3 1075 1061 1076
3 1061 1062 1076
3 1063 1064 1077
3 1077 1064 1078
3 1064 1065 1078
3 1078 1065 1079
3 1065 1066 1079
3 1079 1066 1080
3 1066 1067 1080
3 1080 1067 1081
3 1067 1068 1081
3 1081 1068 1082
3 1068 1069 1082
3 1082 1069 1083
3 1069 1070 1083
3 1083 1070 1084
3 1070 1071 1084
3 1084 1071 1085
3 1071 1072 1085
3 1085 1072 1086
3 1072 1073 1086
3 1086 1073 1087
3 1073 1074 1087
3 1087 1074 1088
3 1074 1075 1088
3 1088 1075 1089
3 1077 1078 1090
3 1090 1078 1091
3 1078 1079 1091
3 1091 1079 1092
3 1079 1080 1092
3 1092 1080 1093
3 1080 1081 1093
3 1093 1081 1094
3 1081 1082 1094
3 1094 1082 1095
3 1082 1083 1095
3 1095 1083 1096
3 1083 1084 1096
3 1096 1084 1097
3 1084 1085 1097
3 1097 1085 1098
3 1085 1086 1098
3 1098 1086 1099
3 1086 1087 1099
3 1099 1087 1100
3 1087 1088 1100
3 1091 1092 1101
3 1101 1092 1102
3 1092 1093 1102
3 1102 1093 1103
3 1093 1094 1103
3 1103 1094 1104
3 1094 1095 1104
3 1104 1095 1105
3 1095 1096 1105
3 1105 1096 1106
3 1096 1097 1106
3 1106 1097 1107
3 1097 1098 1107
3 1107 1098 1108
3 1098 1099 1108
3 1108 1099 1109
3 1099 1100 1109
3 1101 1102 1110
3 1110 1102 1111
3 1102 1103 1111
3 1111 1103 1112
3 1103 1104 1112
3 1112 1104 1113
3 1104 1105 1113
3 1113 1105 1114
3 1105 1106 1114
3 1114 1106 1115
3 1106 1107 1115
3 1115 1107 1116
3 1107 1108 1116
3 1116 1108 1117
3 1108 1109 1117
3 1111 1112 1118
3 1118 1112 1119
3 1112 1113 1119
3 1119 1113 1120
3 1113 1114 1120
3 1120 1114 1121
3 1114 1115 1121
3 1121 1115 1122
3 1115 1116 1122
3 1122 1116 1123
3 1116 1117 1123
3 1124 1119 1125
3 1119 1120 1125
3 1125 1120 1126
3 1120 1121 1126
3 1126 1121 1127
3 1121 1122 1127
3 1127 1122 1128
3 1122 1123 1128
3 1125 1126 1129
3 1129 1126 1130
3 1126 1127 1130
3 1130 1127 1131
3 1127 1128 1131
3 1129 1130 1132
3 1132 1130 1133
3 1130 1131 1133
CELL_DATA 2127
SCALARS brightness_temperature float
LOOKUP_TABLE default
POINT_DATA 1134
CELL_DATA 2127
SCALARS emission_angle float
LOOKUP_TABLE default
POINT_DATA 1134
CELL_DATA 2127
SCALARS incidence_angle float
LOOKUP_TABLE default
POINT_DATA 1134
CELL_DATA 2127
SCALARS phase_angle float
LOOKUP_TABLE default
POINT_DATA 1134
CELL_DATA 2127
SCALARS local_solar_time float
LOOKUP_TABLE default
POINT_DATA 1134
CELL_DATA 2127
SCALARS local_solar_time_normal_vector float
LOOKUP_TABLE default
CELL_DATA 2127
SCALARS pixel_x float
LOOKUP_TABLE default
POINT_DATA 1134
CELL_DATA 2127
SCALARS pixel_y float
LOOKUP_TABLE default
POINT_DATA 1134
CELL_DATA 2127
SCALARS longitude float
LOOKUP_TABLE default
POINT_DATA 1134
CELL_DATA 2127
SCALARS latitude float
LOOKUP_TABLE default
