# vtk DataFile Version 3.0
SHAPE_sfm_50k_v20200323
ASCII
DATASET POLYDATA
POINTS 946 float
-0.40051 -0.09862 -0.15694
-0.39978 -0.09653 -0.15969
-0.39877 -0.09884 -0.1593
-0.40353 -0.09947 -0.15226
-0.40214 -0.09794 -0.15458
-0.40175 -0.10045 -0.15438
-0.40001 -0.10108 -0.15666
-0.39815 -0.10125 -0.15893
-0.40501 -0.10143 -0.15004
-0.40309 -0.10199 -0.15217
-0.40114 -0.1029 -0.15416
-0.39928 -0.10348 -0.15634
-0.39783 -0.10374 -0.15888
-0.39658 -0.1012 -0.16139
-0.39646 -0.1037 -0.16147
-0.40902 -0.10476 -0.13932
-0.40813 -0.10247 -0.14195
-0.40799 -0.10502 -0.14206
-0.40707 -0.1047 -0.14483
-0.4077 -0.1022 -0.14486
-0.40592 -0.1041 -0.14748
-0.40703 -0.10171 -0.14782
-0.40425 -0.10388 -0.14989
-0.40231 -0.1044 -0.152
-0.40039 -0.10531 -0.15402
-0.39864 -0.10592 -0.15628
-0.39753 -0.10625 -0.15896
-0.39639 -0.10624 -0.1617
-0.41146 -0.10728 -0.13431
-0.41036 -0.10457 -0.13672
-0.41012 -0.10714 -0.13691
-0.40875 -0.10731 -0.13949
-0.40755 -0.10754 -0.14216
-0.40616 -0.10709 -0.14469
-0.40487 -0.10641 -0.14722
-0.4034 -0.10626 -0.14974
-0.40151 -0.1068 -0.15188
-0.39971 -0.10774 -0.15399
-0.39798 -0.10835 -0.15627
-0.39656 -0.10861 -0.15882
-0.39543 -0.10861 -0.16153
-0.41434 -0.1091 -0.12956
-0.41308 -0.10712 -0.13186
-0.41286 -0.10971 -0.13201
-0.41134 -0.10987 -0.13451
-0.40994 -0.10971 -0.13707
-0.40846 -0.10986 -0.13959
-0.40677 -0.10997 -0.14197
-0.40529 -0.10947 -0.14444
-0.40408 -0.10881 -0.14701
-0.40255 -0.10863 -0.14949
-0.40091 -0.10925 -0.1518
-0.39915 -0.1102 -0.15393
-0.39758 -0.11085 -0.15632
-0.39602 -0.11107 -0.15878
-0.3944 -0.11089 -0.1612
-0.4213 -0.11448 -0.11071
-0.42096 -0.11224 -0.11383
-0.42031 -0.11474 -0.11344
-0.41939 -0.11445 -0.11618
-0.41991 -0.1119 -0.11653
-0.41847 -0.11377 -0.11887
-0.41905 -0.11122 -0.11924
-0.41762 -0.11303 -0.12156
-0.41852 -0.11061 -0.12206
-0.41672 -0.1123 -0.12425
-0.41742 -0.10981 -0.12467
-0.41564 -0.11177 -0.12693
-0.41595 -0.10918 -0.12712
-0.41427 -0.11171 -0.1295
-0.41291 -0.11232 -0.13203
-0.41144 -0.11247 -0.13455
-0.40978 -0.11229 -0.13696
-0.40806 -0.11238 -0.13932
-0.40627 -0.11245 -0.14164
-0.40475 -0.11193 -0.14407
-0.4034 -0.11122 -0.14655
-0.40202 -0.11108 -0.14913
-0.40041 -0.11171 -0.15147
-0.39885 -0.1127 -0.15374
-0.39713 -0.11331 -0.15601
-0.39548 -0.11349 -0.15841
-0.39396 -0.11335 -0.1609
-0.42449 -0.11607 -0.10601
-0.42273 -0.11396 -0.10823
-0.42271 -0.11661 -0.10823
-0.42124 -0.11712 -0.11069
-0.41989 -0.11733 -0.11326
-0.41889 -0.11703 -0.11597
-0.41783 -0.1163 -0.1186
-0.41693 -0.11554 -0.12128
-0.416 -0.1148 -0.12395
-0.41507 -0.11431 -0.12669
-0.41392 -0.11429 -0.12937
-0.4127 -0.11492 -0.13196
-0.41126 -0.11506 -0.13451
-0.40956 -0.11486 -0.13688
-0.40769 -0.11492 -0.13914
-0.4059 -0.11498 -0.14145
-0.4044 -0.11445 -0.1439
-0.403 -0.11372 -0.14636
-0.40163 -0.11357 -0.14894
-0.4001 -0.11421 -0.15133
-0.39848 -0.11519 -0.15356
-0.39669 -0.11579 -0.15578
-0.39503 -0.11596 -0.15819
-0.39365 -0.11584 -0.16076
-0.39257 -0.11533 -0.16343
-0.42607 -0.11822 -0.10428
-0.42398 -0.11869 -0.1063
-0.42237 -0.11921 -0.10864
-0.42086 -0.11971 -0.1111
-0.41936 -0.11991 -0.1136
-0.41794 -0.11949 -0.1161
-0.41701 -0.11879 -0.11878
-0.41604 -0.118 -0.12142
-0.41522 -0.1173 -0.12413
-0.41443 -0.11684 -0.12691
-0.41344 -0.11685 -0.12963
-0.41219 -0.11747 -0.13222
-0.41079 -0.11761 -0.1348
-0.40912 -0.11739 -0.13718
-0.40729 -0.11743 -0.13946
-0.40555 -0.11749 -0.14181
-0.40399 -0.11695 -0.14422
-0.40265 -0.11622 -0.14671
-0.40125 -0.11606 -0.14924
-0.39959 -0.11668 -0.15153
-0.39783 -0.11763 -0.15367
-0.39612 -0.11824 -0.15596
-0.39452 -0.11842 -0.15841
-0.39309 -0.11827 -0.16095
-0.39177 -0.1177 -0.16348
-0.43834 -0.12717 -0.08341
-0.43735 -0.12364 -0.0851
-0.43675 -0.12624 -0.08565
-0.43551 -0.12508 -0.08799
-0.42958 -0.12109 -0.09714
-0.42917 -0.11803 -0.09933
-0.42831 -0.12059 -0.0997
-0.42765 -0.11793 -0.10183
-0.42711 -0.12054 -0.10236
-0.42532 -0.12079 -0.10465
-0.42363 -0.12126 -0.10697
-0.42201 -0.12176 -0.10931
-0.42036 -0.12226 -0.11168
-0.41839 -0.12236 -0.11387
-0.41679 -0.12185 -0.11623
-0.41587 -0.12116 -0.1189
-0.41503 -0.12041 -0.1216
-0.41437 -0.11977 -0.12436
-0.4137 -0.11934 -0.12716
-0.41274 -0.11936 -0.12987
-0.41157 -0.11999 -0.1325
-0.41026 -0.12013 -0.13512
-0.40869 -0.11991 -0.13757
-0.40693 -0.11994 -0.13988
-0.40518 -0.11998 -0.14223
-0.40352 -0.11942 -0.14455
-0.40223 -0.1187 -0.14706
-0.40082 -0.11853 -0.14958
-0.39901 -0.11913 -0.15174
-0.39743 -0.1201 -0.15401
-0.39568 -0.12071 -0.15627
-0.39418 -0.12088 -0.15879
-0.39265 -0.12072 -0.16126
-0.39119 -0.12012 -0.1637
-0.43767 -0.12977 -0.08395
-0.43619 -0.12885 -0.08626
-0.43483 -0.12767 -0.08852
-0.43361 -0.12638 -0.09082
-0.4344 -0.12382 -0.09037
-0.43218 -0.12538 -0.09316
-0.4328 -0.12278 -0.09262
-0.43111 -0.12185 -0.0948
-0.43066 -0.12446 -0.09547
-0.42915 -0.12369 -0.09782
-0.42772 -0.12317 -0.10028
-0.42638 -0.12308 -0.10285
-0.4248 -0.12335 -0.10528
-0.42337 -0.12381 -0.1078
-0.42144 -0.12431 -0.10991
-0.4195 -0.12477 -0.11206
-0.41738 -0.12479 -0.11407
-0.41567 -0.12424 -0.11634
-0.41476 -0.12354 -0.11902
-0.41404 -0.12284 -0.12176
-0.41341 -0.12219 -0.12453
-0.41301 -0.12186 -0.1274
-0.41206 -0.12187 -0.13013
-0.41091 -0.12251 -0.13275
-0.40966 -0.12265 -0.1354
-0.40823 -0.12243 -0.13793
-0.40653 -0.12245 -0.14029
-0.40466 -0.12246 -0.14252
-0.40296 -0.12189 -0.14481
-0.40188 -0.12119 -0.14744
-0.40029 -0.12099 -0.14985
-0.39859 -0.12161 -0.15208
-0.39711 -0.12257 -0.1544
-0.39524 -0.12318 -0.15657
-0.39383 -0.12335 -0.15914
-0.39233 -0.12318 -0.16162
-0.39097 -0.12259 -0.1641
-0.43584 -0.13154 -0.08653
-0.43727 -0.13246 -0.08419
-0.43443 -0.13035 -0.08874
-0.43315 -0.12906 -0.091
-0.43188 -0.12807 -0.09342
-0.43044 -0.12716 -0.09579
-0.42904 -0.1264 -0.09824
-0.42729 -0.12584 -0.10049
-0.42597 -0.12575 -0.10307
-0.42499 -0.1261 -0.10589
-0.42302 -0.12654 -0.10809
-0.42089 -0.12696 -0.11006
-0.41857 -0.12726 -0.11182
-0.41648 -0.12726 -0.11381
-0.41503 -0.12679 -0.11625
-0.41394 -0.12602 -0.11883
-0.41308 -0.12526 -0.12151
-0.41249 -0.12463 -0.1243
-0.41204 -0.12428 -0.12717
-0.41127 -0.12436 -0.12997
-0.41003 -0.12495 -0.13254
-0.40891 -0.12514 -0.13522
-0.40764 -0.12495 -0.13784
-0.40617 -0.125 -0.14036
-0.40417 -0.12496 -0.14249
-0.40268 -0.12442 -0.14492
-0.40133 -0.12368 -0.14738
-0.39988 -0.12349 -0.14988
-0.39834 -0.12412 -0.15224
-0.39692 -0.12508 -0.15459
-0.39528 -0.1257 -0.1569
-0.39365 -0.12585 -0.15931
-0.39201 -0.12567 -0.1617
-0.39074 -0.12508 -0.16423
-0.4355 -0.13425 -0.08673
-0.43711 -0.1352 -0.0845
-0.4341 -0.13306 -0.08893
-0.43284 -0.13176 -0.0912
-0.43145 -0.13078 -0.09355
-0.43008 -0.12988 -0.09595
-0.42855 -0.12911 -0.09832
-0.42694 -0.12854 -0.10065
-0.42556 -0.12846 -0.10319
-0.42394 -0.12872 -0.10563
-0.42178 -0.12899 -0.10759
-0.41982 -0.12943 -0.10966
-0.41763 -0.12974 -0.11157
-0.4154 -0.12963 -0.11345
-0.41399 -0.12918 -0.11595
-0.41298 -0.12845 -0.11858
-0.41224 -0.12774 -0.12131
-0.41168 -0.12711 -0.1241
-0.41114 -0.12673 -0.12694
-0.41028 -0.12676 -0.1297
-0.40911 -0.12739 -0.1323
-0.40781 -0.12749 -0.1349
-0.40677 -0.12738 -0.13761
-0.40549 -0.12748 -0.14022
-0.40396 -0.12751 -0.1427
-0.40233 -0.12693 -0.14502
-0.40106 -0.1262 -0.14753
-0.39965 -0.12601 -0.15004
-0.39838 -0.12664 -0.15254
-0.39732 -0.12756 -0.1551
-0.39576 -0.12816 -0.15753
-0.39377 -0.12836 -0.15966
-0.39191 -0.12818 -0.16187
-0.39041 -0.12756 -0.16426
-0.43523 -0.13704 -0.08706
-0.43373 -0.13579 -0.08917
-0.43231 -0.13445 -0.09133
-0.43079 -0.13344 -0.09359
-0.42943 -0.13255 -0.096
-0.42792 -0.13177 -0.09838
-0.42629 -0.1312 -0.1007
-0.42469 -0.13105 -0.10313
-0.42257 -0.13103 -0.10514
-0.42043 -0.13125 -0.10707
-0.41833 -0.13157 -0.10902
-0.41624 -0.13193 -0.11101
-0.41426 -0.13197 -0.11313
-0.41282 -0.13151 -0.11561
-0.41194 -0.13084 -0.1183
-0.41143 -0.13022 -0.1211
-0.41072 -0.12953 -0.12384
-0.41009 -0.12912 -0.12666
-0.4093 -0.12917 -0.12944
-0.40823 -0.12983 -0.13207
-0.40695 -0.12994 -0.13468
-0.40601 -0.12984 -0.13743
-0.40484 -0.12996 -0.14008
-0.40351 -0.13003 -0.14267
-0.40192 -0.12945 -0.14503
-0.40055 -0.1287 -0.14747
-0.39938 -0.12853 -0.1501
-0.39831 -0.12918 -0.15268
-0.39719 -0.13017 -0.15522
-0.39561 -0.13081 -0.15768
-0.39345 -0.13089 -0.15968
-0.39176 -0.1307 -0.162
-0.3903 -0.13007 -0.1644
-0.38878 -0.12933 -0.16676
-0.43663 -0.13797 -0.08468
-0.43411 -0.13957 -0.08671
-0.43288 -0.13841 -0.08903
-0.43183 -0.13716 -0.09144
-0.43034 -0.13613 -0.09374
-0.42874 -0.13519 -0.09599
-0.42712 -0.13439 -0.09826
-0.42559 -0.13384 -0.10068
-0.42368 -0.13356 -0.10287
-0.42151 -0.13347 -0.1048
-0.41928 -0.13362 -0.10664
-0.41709 -0.13387 -0.1085
-0.41496 -0.1342 -0.11046
-0.41306 -0.13429 -0.11267
-0.41175 -0.13389 -0.11522
-0.41098 -0.13325 -0.11795
-0.41036 -0.13258 -0.12071
-0.40982 -0.13197 -0.1235
-0.40909 -0.1315 -0.12629
-0.40838 -0.13159 -0.12909
-0.40733 -0.13225 -0.13173
-0.40636 -0.13247 -0.13445
-0.40556 -0.13238 -0.13725
-0.40448 -0.13249 -0.13995
-0.40309 -0.13254 -0.14251
-0.40165 -0.13197 -0.14495
-0.40017 -0.1312 -0.14733
-0.39889 -0.13102 -0.14991
-0.39776 -0.13167 -0.15248
-0.39634 -0.13258 -0.15489
-0.39447 -0.13309 -0.15709
-0.39257 -0.13324 -0.1593
-0.39084 -0.13303 -0.16161
-0.38985 -0.13256 -0.16429
-0.38848 -0.13183 -0.16676
-0.43207 -0.14101 -0.0888
-0.43352 -0.14222 -0.08665
-0.43107 -0.13979 -0.09124
-0.4298 -0.13883 -0.0937
-0.42813 -0.13785 -0.09591
-0.42643 -0.13702 -0.09813
-0.42478 -0.13643 -0.10044
-0.42281 -0.1361 -0.10257
-0.42068 -0.13602 -0.10455
-0.4184 -0.13613 -0.10634
-0.41624 -0.13638 -0.10824
-0.41417 -0.13673 -0.11025
-0.41204 -0.13672 -0.11226
-0.41077 -0.13632 -0.11486
-0.41 -0.13567 -0.11759
-0.40939 -0.135 -0.12036
-0.40881 -0.13436 -0.12314
-0.40822 -0.13395 -0.12597
-0.40753 -0.13405 -0.12878
-0.40635 -0.13465 -0.13139
-0.40577 -0.13499 -0.13422
-0.40514 -0.13493 -0.13707
-0.40412 -0.13503 -0.1398
-0.40299 -0.1351 -0.14249
-0.40159 -0.13452 -0.14498
-0.4 -0.13374 -0.14729
-0.39844 -0.13351 -0.14973
-0.39709 -0.1341 -0.15221
-0.3956 -0.13497 -0.15458
-0.39353 -0.13539 -0.15663
-0.39147 -0.13543 -0.15868
-0.38976 -0.13522 -0.16103
-0.38884 -0.13483 -0.16375
-0.38801 -0.1343 -0.16651
-0.43144 -0.14365 -0.08891
-0.43293 -0.14488 -0.08678
-0.43023 -0.14238 -0.09121
-0.42886 -0.14141 -0.09359
-0.42739 -0.14049 -0.09594
-0.42565 -0.13963 -0.09812
-0.42385 -0.13898 -0.1003
-0.42179 -0.1386 -0.10233
-0.41957 -0.13845 -0.10419
-0.41738 -0.13859 -0.10607
-0.41536 -0.13888 -0.1081
-0.41332 -0.13922 -0.11015
-0.41142 -0.1393 -0.11235
-0.40996 -0.13883 -0.11482
-0.40904 -0.13811 -0.1175
-0.40833 -0.13739 -0.12023
-0.40769 -0.13673 -0.12299
-0.40722 -0.13637 -0.12584
-0.40652 -0.13645 -0.12864
-0.40535 -0.13707 -0.13126
-0.40499 -0.13746 -0.13415
-0.40449 -0.13743 -0.13702
-0.40345 -0.13752 -0.13974
-0.40248 -0.13762 -0.14249
-0.4012 -0.13705 -0.14507
-0.39963 -0.13625 -0.14739
-0.39805 -0.13601 -0.1498
-0.39649 -0.13655 -0.15216
-0.39479 -0.13735 -0.15441
-0.39277 -0.13778 -0.1565
-0.39058 -0.13778 -0.15844
-0.38875 -0.13752 -0.16071
-0.3878 -0.13708 -0.16344
-0.38697 -0.13656 -0.16617
-0.43087 -0.1463 -0.08924
-0.43232 -0.14754 -0.08707
-0.42943 -0.14497 -0.09138
-0.42783 -0.14393 -0.09356
-0.42625 -0.14299 -0.09582
-0.4247 -0.14219 -0.09816
-0.42288 -0.14151 -0.10033
-0.4208 -0.1411 -0.10234
-0.41846 -0.1409 -0.10406
-0.41637 -0.14106 -0.10606
-0.41427 -0.14131 -0.10803
-0.41228 -0.14165 -0.11011
-0.41046 -0.14175 -0.11238
-0.40919 -0.14134 -0.11496
-0.40818 -0.1406 -0.11758
-0.40741 -0.13986 -0.12029
-0.40678 -0.1392 -0.12307
-0.4063 -0.13882 -0.12591
-0.40557 -0.13888 -0.12871
-0.40472 -0.13961 -0.13141
-0.4043 -0.13996 -0.13427
-0.40374 -0.1399 -0.13714
-0.4026 -0.13994 -0.13982
-0.40159 -0.14003 -0.14255
-0.40046 -0.1395 -0.14519
-0.39896 -0.1387 -0.14756
-0.39745 -0.13846 -0.15002
-0.39579 -0.13897 -0.15232
-0.394 -0.13974 -0.1545
-0.39189 -0.14014 -0.15649
-0.38974 -0.14016 -0.15847
-0.38799 -0.13993 -0.16079
-0.38692 -0.13942 -0.16345
-0.38609 -0.1389 -0.16618
-0.43056 -0.14905 -0.08918
-0.42898 -0.14766 -0.0912
-0.42721 -0.14655 -0.09321
-0.42562 -0.14559 -0.09545
-0.42404 -0.14479 -0.09777
-0.42225 -0.14412 -0.09996
-0.42022 -0.14372 -0.10202
-0.41802 -0.14355 -0.10391
-0.41575 -0.14363 -0.10571
-0.41348 -0.14378 -0.10751
-0.4115 -0.14412 -0.10961
-0.40983 -0.14427 -0.11198
-0.40861 -0.14387 -0.11455
-0.40779 -0.14317 -0.11724
-0.40693 -0.14241 -0.11991
-0.40648 -0.14179 -0.12273
-0.40589 -0.14138 -0.12556
-0.40476 -0.14133 -0.12826
-0.40435 -0.14216 -0.13104
-0.40398 -0.14251 -0.1339
-0.40309 -0.14235 -0.13668
-0.40202 -0.14239 -0.13938
-0.40094 -0.14244 -0.14207
-0.39992 -0.14194 -0.14473
-0.39866 -0.1412 -0.14725
-0.39709 -0.14094 -0.14969
-0.39532 -0.14142 -0.15194
-0.39344 -0.14215 -0.15403
-0.39145 -0.14258 -0.1561
-0.38957 -0.14266 -0.1583
-0.38785 -0.14243 -0.16059
-0.38651 -0.14185 -0.16306
-0.38534 -0.1412 -0.16562
-0.38433 -0.1404 -0.16824
-0.43186 -0.15024 -0.08689
-0.4299 -0.15167 -0.08861
-0.42847 -0.15031 -0.09074
-0.42681 -0.14922 -0.09285
-0.42515 -0.14825 -0.09502
-0.42342 -0.14739 -0.09719
-0.42164 -0.14671 -0.09938
-0.41959 -0.14628 -0.10139
-0.41747 -0.14613 -0.10336
-0.41517 -0.14617 -0.10511
-0.41297 -0.14634 -0.10699
-0.41097 -0.14666 -0.10907
-0.40932 -0.1468 -0.11144
-0.40817 -0.14642 -0.11405
-0.40738 -0.14572 -0.11674
-0.40654 -0.14495 -0.11941
-0.40581 -0.14425 -0.12213
-0.40538 -0.14389 -0.125
-0.40439 -0.14387 -0.12773
-0.40391 -0.14467 -0.13049
-0.4036 -0.14503 -0.13336
-0.40277 -0.14486 -0.13615
-0.40168 -0.14487 -0.13885
-0.4005 -0.14488 -0.14149
-0.39943 -0.14436 -0.14412
-0.39817 -0.14362 -0.14662
-0.39674 -0.14339 -0.14914
-0.39503 -0.14388 -0.15143
-0.39318 -0.14461 -0.15354
-0.39125 -0.14505 -0.15565
-0.38957 -0.14515 -0.158
-0.38778 -0.14492 -0.16025
-0.38633 -0.14431 -0.16265
-0.38499 -0.14361 -0.1651
-0.38366 -0.14267 -0.16751
-0.42772 -0.15292 -0.09045
-0.42906 -0.15424 -0.08826
-0.42608 -0.15184 -0.09259
-0.42437 -0.15084 -0.09471
-0.42263 -0.14997 -0.09685
-0.42083 -0.14928 -0.099
-0.41892 -0.14888 -0.10113
-0.4167 -0.14868 -0.10298
-0.41452 -0.14876 -0.10487
-0.41243 -0.14894 -0.10683
-0.41043 -0.14926 -0.10892
-0.40893 -0.14942 -0.1114
-0.40758 -0.14898 -0.11391
-0.40675 -0.14826 -0.11658
-0.40587 -0.14748 -0.11922
-0.40504 -0.14675 -0.12191
-0.40439 -0.14631 -0.12471
-0.40394 -0.14644 -0.12755
-0.40333 -0.1472 -0.13028
-0.40303 -0.14756 -0.13316
-0.40218 -0.14737 -0.13594
-0.40112 -0.14737 -0.13863
-0.39999 -0.14737 -0.1413
-0.3988 -0.1468 -0.14386
-0.3975 -0.14605 -0.14634
-0.3961 -0.14582 -0.14885
-0.39463 -0.14637 -0.15126
-0.39274 -0.14709 -0.15335
-0.39113 -0.14758 -0.15571
-0.38935 -0.14766 -0.15801
-0.3875 -0.14741 -0.1602
-0.38591 -0.14678 -0.16251
-0.38454 -0.14605 -0.16494
-0.38311 -0.14507 -0.16724
-0.42693 -0.15553 -0.09037
-0.42822 -0.15684 -0.08816
-0.42539 -0.15448 -0.09259
-0.42356 -0.15344 -0.0946
-0.42173 -0.15253 -0.09663
-0.41995 -0.15184 -0.09879
-0.41813 -0.15148 -0.10101
-0.41601 -0.15128 -0.10295
-0.41388 -0.15135 -0.10488
-0.41184 -0.15153 -0.10688
-0.41002 -0.15187 -0.1091
-0.40869 -0.15203 -0.11167
-0.40715 -0.15158 -0.11406
-0.40615 -0.15081 -0.11665
-0.4052 -0.15002 -0.11926
-0.40445 -0.14931 -0.12197
-0.40384 -0.14888 -0.12476
-0.40335 -0.14898 -0.12757
-0.40272 -0.14974 -0.13031
-0.40234 -0.15007 -0.13317
-0.40153 -0.14987 -0.13595
-0.40043 -0.14984 -0.13862
-0.39932 -0.14983 -0.14129
-0.39813 -0.14925 -0.14385
-0.39684 -0.14849 -0.14632
-0.39547 -0.14827 -0.14882
-0.39394 -0.1488 -0.15118
-0.39219 -0.14955 -0.15336
-0.39076 -0.1501 -0.15585
-0.38896 -0.15018 -0.15814
-0.38709 -0.14989 -0.16032
-0.38557 -0.14927 -0.16267
-0.38405 -0.1485 -0.16498
-0.38255 -0.14748 -0.16722
-0.42587 -0.15806 -0.09019
-0.42735 -0.15945 -0.08816
-0.42454 -0.15711 -0.09257
-0.42287 -0.1561 -0.09473
-0.42094 -0.15514 -0.09666
-0.41907 -0.1544 -0.09871
-0.41705 -0.15395 -0.10072
-0.4152 -0.15384 -0.10291
-0.41323 -0.15395 -0.105
-0.41135 -0.15413 -0.10714
-0.40965 -0.15447 -0.10943
-0.40804 -0.1546 -0.11182
-0.4068 -0.15417 -0.11437
-0.40566 -0.15338 -0.11689
-0.40477 -0.1526 -0.11952
-0.404 -0.15188 -0.1222
-0.40339 -0.15145 -0.12498
-0.40274 -0.15152 -0.12775
-0.40213 -0.15227 -0.13049
-0.40163 -0.15256 -0.13333
-0.40085 -0.15236 -0.13611
-0.39972 -0.15231 -0.13876
-0.39862 -0.15228 -0.14143
-0.39757 -0.15173 -0.14405
-0.39645 -0.15099 -0.14661
-0.39492 -0.15073 -0.14902
-0.39333 -0.15124 -0.15133
-0.39172 -0.15202 -0.15362
-0.38977 -0.15245 -0.15572
-0.38805 -0.15254 -0.15805
-0.38641 -0.15233 -0.1604
-0.38488 -0.15169 -0.16274
-0.38346 -0.15092 -0.16511
-0.38207 -0.14991 -0.16741
-0.3807 -0.14879 -0.16969
-0.42457 -0.16046 -0.08995
-0.42326 -0.15952 -0.09234
-0.42174 -0.15859 -0.09462
-0.41991 -0.15767 -0.09665
-0.41814 -0.15695 -0.09879
-0.41625 -0.15653 -0.10091
-0.41423 -0.15636 -0.10294
-0.41244 -0.1565 -0.10516
-0.41065 -0.15669 -0.10737
-0.40904 -0.15704 -0.10973
-0.40745 -0.15715 -0.11212
-0.40618 -0.15671 -0.11467
-0.405 -0.15592 -0.11717
-0.40439 -0.15517 -0.11989
-0.40373 -0.15446 -0.1226
-0.40294 -0.15401 -0.12532
-0.40219 -0.15406 -0.12806
-0.4015 -0.15479 -0.13078
-0.40091 -0.15504 -0.13361
-0.40019 -0.15484 -0.13639
-0.39909 -0.15478 -0.13906
-0.39794 -0.15473 -0.1417
-0.39686 -0.15416 -0.1443
-0.39591 -0.15346 -0.14695
-0.39447 -0.1532 -0.14941
-0.39302 -0.15372 -0.15181
-0.39119 -0.15447 -0.15397
-0.38924 -0.15489 -0.15607
-0.38719 -0.1549 -0.15812
-0.38543 -0.15464 -0.16036
-0.3841 -0.15407 -0.16282
-0.38283 -0.15334 -0.16528
-0.38164 -0.15235 -0.16771
-0.38018 -0.15118 -0.16992
-0.42207 -0.16196 -0.09236
-0.42341 -0.16292 -0.09002
-0.42077 -0.16111 -0.09481
-0.41893 -0.16019 -0.09685
-0.41716 -0.15947 -0.09899
-0.41522 -0.15903 -0.10106
-0.41339 -0.1589 -0.10323
-0.41143 -0.15897 -0.10531
-0.4097 -0.15916 -0.10755
-0.408 -0.15948 -0.10985
-0.40668 -0.15965 -0.11241
-0.40574 -0.15927 -0.11509
-0.40474 -0.15849 -0.11766
-0.40395 -0.15772 -0.12031
-0.40329 -0.15701 -0.12302
-0.40246 -0.15655 -0.12572
-0.40166 -0.15659 -0.12842
-0.40093 -0.15731 -0.13114
-0.40034 -0.15756 -0.13398
-0.39942 -0.1573 -0.13669
-0.39836 -0.15723 -0.13936
-0.39705 -0.15712 -0.14194
-0.39595 -0.15654 -0.14452
-0.3951 -0.15589 -0.14719
-0.39384 -0.15566 -0.14973
-0.39229 -0.15617 -0.15206
-0.39054 -0.15692 -0.15425
-0.38877 -0.15736 -0.15657
-0.3864 -0.15729 -0.1583
-0.38458 -0.157 -0.16047
-0.38326 -0.15644 -0.16293
-0.38208 -0.15575 -0.16544
-0.38089 -0.15475 -0.16786
-0.37956 -0.15358 -0.17014
-0.42115 -0.16453 -0.09248
-0.42257 -0.1655 -0.0902
-0.41972 -0.16365 -0.09481
-0.41809 -0.16278 -0.09702
-0.41634 -0.16204 -0.09916
-0.41441 -0.16159 -0.10124
-0.4125 -0.16143 -0.10335
-0.41068 -0.16153 -0.10554
-0.40888 -0.16168 -0.10773
-0.40731 -0.16202 -0.11011
-0.40617 -0.16222 -0.11274
-0.40546 -0.16187 -0.1155
-0.40428 -0.16106 -0.118
-0.40334 -0.16025 -0.12058
-0.40273 -0.15956 -0.1233
-0.40197 -0.1591 -0.12602
-0.40111 -0.15913 -0.1287
-0.40042 -0.15987 -0.13143
-0.39939 -0.16 -0.13413
-0.39845 -0.1597 -0.13682
-0.39747 -0.15964 -0.13952
-0.39627 -0.15955 -0.14214
-0.39499 -0.15889 -0.14461
-0.39399 -0.15819 -0.1472
-0.39289 -0.15805 -0.14981
-0.39127 -0.15853 -0.15208
-0.38961 -0.15931 -0.15431
-0.38795 -0.15982 -0.1567
-0.38565 -0.15969 -0.15852
-0.38374 -0.15936 -0.16062
-0.38225 -0.15875 -0.16295
-0.38096 -0.158 -0.16537
-0.37972 -0.15698 -0.16773
-0.37855 -0.15586 -0.17009
-0.42023 -0.1671 -0.09241
-0.42184 -0.16815 -0.09027
-0.41851 -0.16609 -0.09447
-0.41714 -0.16534 -0.09687
-0.41567 -0.16468 -0.09924
-0.41409 -0.16426 -0.10161
-0.41197 -0.16405 -0.10355
-0.4102 -0.16414 -0.10577
-0.40844 -0.16429 -0.10799
-0.40699 -0.16463 -0.11042
-0.40581 -0.16482 -0.11302
-0.40475 -0.16441 -0.11562
-0.40383 -0.16364 -0.1182
-0.40284 -0.16282 -0.12076
-0.40226 -0.16213 -0.12349
-0.40139 -0.16165 -0.12618
-0.40058 -0.16169 -0.12889
-0.39947 -0.16232 -0.13148
-0.39836 -0.16239 -0.13412
-0.39751 -0.16211 -0.13684
-0.39647 -0.16202 -0.1395
-0.3955 -0.16204 -0.14223
-0.39417 -0.16132 -0.14469
-0.39301 -0.16054 -0.14717
-0.39176 -0.16033 -0.1497
-0.39011 -0.1608 -0.15194
-0.38839 -0.16154 -0.15412
-0.38679 -0.16213 -0.1565
-0.38483 -0.16211 -0.15865
-0.38295 -0.16176 -0.16079
-0.38113 -0.16099 -0.16283
-0.37993 -0.16026 -0.1653
-0.37879 -0.15926 -0.16771
-0.37765 -0.15815 -0.17008
-0.41941 -0.16966 -0.09197
-0.42097 -0.17071 -0.08981
-0.41785 -0.16871 -0.09417
-0.4164 -0.16793 -0.09651
-0.41487 -0.16726 -0.09883
-0.41348 -0.16693 -0.10132
-0.41177 -0.16677 -0.10362
-0.40983 -0.16679 -0.1057
-0.4082 -0.16693 -0.10801
-0.40673 -0.16726 -0.11043
-0.40553 -0.16744 -0.113
-0.40428 -0.167 -0.1155
-0.40342 -0.16623 -0.1181
-0.40253 -0.16543 -0.12069
-0.40167 -0.16468 -0.12331
-0.40088 -0.16422 -0.12603
-0.39985 -0.1642 -0.12869
-0.39855 -0.16474 -0.13119
-0.39744 -0.1648 -0.13382
-0.39652 -0.16449 -0.13651
-0.39531 -0.16428 -0.13909
-0.39398 -0.16407 -0.14161
-0.3931 -0.16362 -0.14429
-0.39196 -0.16284 -0.1468
-0.39055 -0.16253 -0.14925
-0.38907 -0.16308 -0.15159
-0.38738 -0.16384 -0.15379
-0.38545 -0.16422 -0.15591
-0.38374 -0.16435 -0.15821
-0.38196 -0.16405 -0.16042
-0.38051 -0.1634 -0.16275
-0.3793 -0.16266 -0.1652
-0.37812 -0.16163 -0.16759
-0.37701 -0.16051 -0.16995
-0.41879 -0.17229 -0.09157
-0.42023 -0.17329 -0.08932
-0.41736 -0.17138 -0.09387
-0.41581 -0.17056 -0.09614
-0.41421 -0.16986 -0.09839
-0.4126 -0.16943 -0.1007
-0.41108 -0.16934 -0.10311
-0.40958 -0.16945 -0.10553
-0.40809 -0.16959 -0.10795
-0.40657 -0.16991 -0.11034
-0.40521 -0.17006 -0.11282
-0.40402 -0.16963 -0.11534
-0.40287 -0.16879 -0.11779
-0.40195 -0.16797 -0.12036
-0.40112 -0.16723 -0.12299
-0.40019 -0.16673 -0.12566
-0.39906 -0.16666 -0.12828
-0.39775 -0.16719 -0.13076
-0.39658 -0.16722 -0.13336
-0.39549 -0.16681 -0.13598
-0.39431 -0.16659 -0.13857
-0.393 -0.16637 -0.14109
-0.39198 -0.16582 -0.14368
-0.39096 -0.16511 -0.14626
-0.38952 -0.16477 -0.14869
-0.38803 -0.16532 -0.15103
-0.38635 -0.16607 -0.15323
-0.38459 -0.16653 -0.15545
-0.38303 -0.16672 -0.15784
-0.38138 -0.16647 -0.16015
-0.38001 -0.16584 -0.16253
-0.37884 -0.16509 -0.16501
-0.37763 -0.16405 -0.16737
-0.37649 -0.16291 -0.1697
-0.41651 -0.17396 -0.09352
-0.41801 -0.17489 -0.09128
-0.41505 -0.17317 -0.09584
-0.41356 -0.17248 -0.09816
-0.412 -0.17206 -0.1005
-0.41056 -0.17197 -0.10295
-0.40917 -0.17212 -0.10543
-0.40771 -0.17226 -0.10786
-0.40629 -0.17258 -0.11031
-0.40472 -0.17269 -0.1127
-0.40327 -0.17216 -0.11506
-0.40224 -0.17134 -0.11757
-0.40135 -0.17052 -0.12014
-0.40048 -0.16976 -0.12276
-0.39938 -0.1692 -0.12534
-0.39822 -0.16912 -0.12794
-0.39674 -0.16957 -0.13035
-0.39555 -0.16957 -0.13293
-0.39444 -0.16912 -0.13553
-0.39316 -0.16883 -0.13806
-0.392 -0.16869 -0.14065
-0.39096 -0.16812 -0.14324
-0.3899 -0.16738 -0.14579
-0.38853 -0.16706 -0.14826
-0.38693 -0.16753 -0.15052
-0.38534 -0.16833 -0.15276
-0.38379 -0.16889 -0.1551
-0.38239 -0.16913 -0.15758
-0.41569 -0.17656 -0.09339
-0.41712 -0.17746 -0.09109
-0.41417 -0.17574 -0.09565
-0.41276 -0.17509 -0.09802
-0.41144 -0.17476 -0.10051
-0.40987 -0.17463 -0.10287
-0.40823 -0.17466 -0.10518
-0.40677 -0.17478 -0.1076
-0.40532 -0.1751 -0.11004
-0.40362 -0.1751 -0.11234
-0.40232 -0.17461 -0.1148
-0.40143 -0.17384 -0.11737
-0.40067 -0.17306 -0.12001
-0.39963 -0.17224 -0.12255
-0.39843 -0.17163 -0.12507
-0.39716 -0.17148 -0.12759
-0.39567 -0.17192 -0.13
-0.39457 -0.17196 -0.13263
-0.39325 -0.17138 -0.13511
-0.39196 -0.17106 -0.13763
-0.3907 -0.17083 -0.14016
-0.38969 -0.17027 -0.14275
-0.38875 -0.16959 -0.14535
-0.38757 -0.16938 -0.14793
-0.38598 -0.16985 -0.1502
-0.38445 -0.17066 -0.15247
-0.41472 -0.17912 -0.09338
-0.41618 -0.18002 -0.09111
-0.41309 -0.17825 -0.09554
-0.41158 -0.17755 -0.09784
-0.40997 -0.17706 -0.10013
-0.40841 -0.17691 -0.10249
-0.40679 -0.17691 -0.10482
-0.40545 -0.17709 -0.1073
-0.40385 -0.1773 -0.10964
-0.40231 -0.17737 -0.11204
-0.40131 -0.17705 -0.11466
-0.40037 -0.17624 -0.11722
-0.39953 -0.17544 -0.11981
-0.39854 -0.17463 -0.12237
-0.3973 -0.17398 -0.12485
-0.39606 -0.17385 -0.12738
-0.3946 -0.17429 -0.1298
-0.39335 -0.17424 -0.13236
-0.39223 -0.17374 -0.13493
-0.39092 -0.17338 -0.13743
-0.38965 -0.17314 -0.13996
-0.38852 -0.1725 -0.14248
-0.38762 -0.17185 -0.1451
-0.38643 -0.17162 -0.14765
-0.41351 -0.18156 -0.0933
-0.41507 -0.18251 -0.09113
-0.412 -0.18074 -0.09555
-0.41041 -0.17999 -0.09777
-0.40893 -0.17955 -0.10016
-0.40704 -0.1792 -0.10225
-0.40539 -0.17918 -0.10456
-0.40396 -0.17927 -0.10698
-0.40248 -0.17955 -0.1094
-0.40098 -0.17964 -0.11181
-0.40009 -0.17939 -0.11448
-0.39933 -0.17868 -0.11714
-0.39829 -0.17776 -0.11963
-0.39739 -0.177 -0.12222
-0.39627 -0.1764 -0.12476
-0.3949 -0.17618 -0.1272
-0.39358 -0.17669 -0.12969
-0.39235 -0.17663 -0.13226
-0.3912 -0.1761 -0.13481
-0.41251 -0.18408 -0.09347
-0.41411 -0.18504 -0.09134
-0.41095 -0.18322 -0.09568
-0.40935 -0.18248 -0.09789
-0.40775 -0.18199 -0.10019
-0.40582 -0.1816 -0.10222
-0.40406 -0.18149 -0.10441
-0.40263 -0.18156 -0.10683
-0.40104 -0.18175 -0.10918
-0.39971 -0.18195 -0.11168
-0.39868 -0.1816 -0.11428
-0.39783 -0.18083 -0.11687
-0.39695 -0.18 -0.11944
-0.39594 -0.17917 -0.12197
-0.39478 -0.17856 -0.12448
-0.39364 -0.17847 -0.12704
-0.41325 -0.18759 -0.09182
-0.41178 -0.18664 -0.09404
-0.41047 -0.18581 -0.09642
-0.40869 -0.18505 -0.09854
-0.40649 -0.18438 -0.10024
-0.40448 -0.18394 -0.10216
-0.4027 -0.18379 -0.10434
-0.40122 -0.18381 -0.10672
-0.41241 -0.19016 -0.09226
-0.41094 -0.18923 -0.09448
-0.40956 -0.18842 -0.09683
-0.40769 -0.1876 -0.09885
-0.40549 -0.18688 -0.1005
-0.40337 -0.18639 -0.1023
POLYGONS 1767 7068
3 0 1 2
3 3 4 5
3 4 0 5
3 5 0 6
3 0 2 6
3 6 2 7
3 8 3 9
3 3 5 9
3 9 5 10
3 5 6 10
3 10 6 11
3 6 7 11
3 11 7 12
3 7 13 12
3 12 13 14
3 15 16 17
3 16 18 17
3 16 19 18
3 19 20 18
3 19 21 20
3 21 8 20
3 20 8 22
3 8 9 22
3 22 9 23
3 9 10 23
3 23 10 24
3 10 11 24
3 24 11 25
3 11 12 25
3 25 12 26
3 12 14 26
3 26 14 27
3 28 29 30
3 29 15 30
3 30 15 31
3 15 17 31
3 31 17 32
3 17 33 32
3 17 18 33
3 18 34 33
3 18 20 34
3 20 22 34
3 34 22 35
3 22 23 35
3 35 23 36
3 23 24 36
3 36 24 37
3 24 25 37
3 37 25 38
3 25 26 38
3 38 26 39
3 26 27 39
3 39 27 40
3 41 42 43
3 42 28 43
3 43 28 44
3 28 30 44
3 44 30 45
3 30 31 45
3 45 31 46
3 31 32 46
3 46 32 47
3 32 48 47
3 32 33 48
3 33 49 48
3 33 34 49
3 34 35 49
3 49 35 50
3 35 36 50
3 50 36 51
3 36 37 51
3 51 37 52
3 37 38 52
3 52 38 53
3 38 39 53
3 53 39 54
3 39 40 54
3 54 40 55
3 56 57 58
3 57 59 58
3 57 60 59
3 60 61 59
3 60 62 61
3 62 63 61
3 62 64 63
3 64 65 63
3 64 66 65
3 66 67 65
3 66 68 67
3 68 41 67
3 67 41 69
3 41 43 69
3 69 43 70
3 43 44 70
3 70 44 71
3 44 72 71
3 44 45 72
3 45 46 72
3 72 46 73
3 46 47 73
3 73 47 74
3 47 75 74
3 47 48 75
3 48 76 75
3 48 49 76
3 49 77 76
3 49 50 77
3 50 51 77
3 77 51 78
3 51 52 78
3 78 52 79
3 52 53 79
3 79 53 80
3 53 54 80
3 80 54 81
3 54 82 81
3 54 55 82
3 83 84 85
3 84 56 85
3 85 56 86
3 56 58 86
3 86 58 87
3 58 88 87
3 58 59 88
3 59 89 88
3 59 61 89
3 61 90 89
3 61 63 90
3 63 91 90
3 63 65 91
3 65 92 91
3 65 67 92
3 67 69 92
3 92 69 93
3 69 70 93
3 93 70 94
3 70 71 94
3 94 71 95
3 71 72 95
3 95 72 96
3 72 73 96
3 96 73 97
3 73 74 97
3 97 74 98
3 74 99 98
3 74 75 99
3 75 100 99
3 75 76 100
3 76 101 100
3 76 77 101
3 77 78 101
3 101 78 102
3 78 79 102
3 102 79 103
3 79 80 103
3 103 80 104
3 80 81 104
3 104 81 105
3 81 106 105
3 81 82 106
3 82 107 106
3 108 83 109
3 83 85 109
3 109 85 110
3 85 86 110
3 110 86 111
3 86 87 111
3 111 87 112
3 87 88 112
3 112 88 113
3 88 114 113
3 88 89 114
3 89 115 114
3 89 90 115
3 90 116 115
3 90 91 116
3 91 117 116
3 91 92 117
3 92 93 117
3 117 93 118
3 93 94 118
3 118 94 119
3 94 95 119
3 119 95 120
3 95 96 120
3 120 96 121
3 96 97 121
3 121 97 122
3 97 98 122
3 122 98 123
3 98 99 123
3 123 99 124
3 99 125 124
3 99 100 125
3 100 101 125
3 125 101 126
3 101 102 126
3 126 102 127
3 102 103 127
3 127 103 128
3 103 104 128
3 128 104 129
3 104 105 129
3 129 105 130
3 105 106 130
3 130 106 131
3 106 132 131
3 106 107 132
3 133 134 135
3 134 136 135
3 137 138 139
3 138 140 139
3 139 140 141
3 140 108 141
3 141 108 142
3 108 109 142
3 142 109 143
3 109 110 143
3 143 110 144
3 110 111 144
3 144 111 145
3 111 112 145
3 145 112 146
3 112 113 146
3 146 113 147
3 113 148 147
3 113 114 148
3 114 149 148
3 114 115 149
3 115 150 149
3 115 116 150
3 116 117 150
3 150 117 151
3 117 118 151
3 151 118 152
3 118 119 152
3 152 119 153
3 119 120 153
3 153 120 154
3 120 121 154
3 154 121 155
3 121 122 155
3 155 122 156
3 122 123 156
3 156 123 157
3 123 124 157
3 157 124 158
3 124 159 158
3 124 125 159
3 125 126 159
3 159 126 160
3 126 127 160
3 160 127 161
3 127 128 161
3 161 128 162
3 128 129 162
3 162 129 163
3 129 130 163
3 163 130 164
3 130 131 164
3 164 131 165
3 131 132 165
3 165 132 166
3 133 135 167
3 167 135 168
3 135 169 168
3 135 136 169
3 136 170 169
3 136 171 170
3 171 172 170
3 171 173 172
3 173 174 172
3 172 174 175
3 174 137 175
3 175 137 176
3 137 139 176
3 176 139 177
3 139 141 177
3 177 141 178
3 141 142 178
3 178 142 179
3 142 143 179
3 179 143 180
3 143 144 180
3 180 144 181
3 144 145 181
3 181 145 182
3 145 146 182
3 182 146 183
3 146 147 183
3 183 147 184
3 147 185 184
3 147 148 185
3 148 186 185
3 148 149 186
3 149 187 186
3 149 150 187
3 150 151 187
3 187 151 188
3 151 152 188
3 188 152 189
3 152 153 189
3 189 153 190
3 153 154 190
3 190 154 191
3 154 155 191
3 191 155 192
3 155 156 192
3 192 156 193
3 156 157 193
3 193 157 194
3 157 158 194
3 194 158 195
3 158 196 195
3 158 159 196
3 159 160 196
3 196 160 197
3 160 161 197
3 197 161 198
3 161 162 198
3 198 162 199
3 162 163 199
3 199 163 200
3 163 164 200
3 200 164 201
3 164 165 201
3 201 165 202
3 165 166 202
3 202 166 203
3 167 204 205
3 167 168 204
3 168 206 204
3 168 169 206
3 169 207 206
3 169 170 207
3 170 208 207
3 170 172 208
3 172 209 208
3 172 175 209
3 175 210 209
3 175 176 210
3 176 177 210
3 210 177 211
3 177 178 211
3 211 178 212
3 178 179 212
3 212 179 213
3 179 180 213
3 213 180 214
3 180 181 214
3 214 181 215
3 181 182 215
3 215 182 216
3 182 183 216
3 216 183 217
3 183 218 217
3 183 184 218
3 184 219 218
3 184 185 219
3 185 220 219
3 185 186 220
3 186 221 220
3 186 187 221
3 187 222 221
3 187 188 222
3 188 189 222
3 222 189 223
3 189 190 223
3 223 190 224
3 190 191 224
3 224 191 225
3 191 192 225
3 225 192 226
3 192 193 226
3 226 193 227
3 193 194 227
3 227 194 228
3 194 229 228
3 194 195 229
3 195 230 229
3 195 196 230
3 196 197 230
3 230 197 231
3 197 198 231
3 231 198 232
3 198 199 232
3 232 199 233
3 199 200 233
3 233 200 234
3 200 201 234
3 234 201 235
3 201 202 235
3 235 202 236
3 202 237 236
3 202 203 237
3 205 238 239
3 205 204 238
3 204 240 238
3 204 206 240
3 206 241 240
3 206 207 241
3 207 242 241
3 207 208 242
3 208 243 242
3 208 209 243
3 209 244 243
3 209 210 244
3 210 245 244
3 210 211 245
3 211 212 245
3 245 212 246
3 212 213 246
3 246 213 247
3 213 214 247
3 247 214 248
3 214 215 248
3 248 215 249
3 215 216 249
3 249 216 250
3 216 217 250
3 250 217 251
3 217 252 251
3 217 218 252
3 218 253 252
3 218 219 253
3 219 254 253
3 219 220 254
3 220 255 254
3 220 221 255
3 221 256 255
3 221 222 256
3 222 223 256
3 256 223 257
3 223 224 257
3 257 224 258
3 224 225 258
3 258 225 259
3 225 260 259
3 225 226 260
3 226 227 260
3 260 227 261
3 227 228 261
3 261 228 262
3 228 263 262
3 228 229 263
3 229 264 263
3 229 230 264
3 230 231 264
3 264 231 265
3 231 232 265
3 265 232 266
3 232 233 266
3 266 233 267
3 233 234 267
3 267 234 268
3 234 235 268
3 268 235 269
3 235 236 269
3 269 236 270
3 236 271 270
3 236 237 271
3 239 238 272
3 238 273 272
3 238 240 273
3 240 274 273
3 240 241 274
3 241 275 274
3 241 242 275
3 242 276 275
3 242 243 276
3 243 277 276
3 243 244 277
3 244 278 277
3 244 245 278
3 245 246 278
3 278 246 279
3 246 247 279
3 279 247 280
3 247 248 280
3 280 248 281
3 248 249 281
3 281 249 282
3 249 250 282
3 282 250 283
3 250 251 283
3 283 251 284
3 251 285 284
3 251 252 285
3 252 286 285
3 252 253 286
3 253 287 286
3 253 254 287
3 254 288 287
3 254 255 288
3 255 289 288
3 255 256 289
3 256 257 289
3 289 257 290
3 257 258 290
3 290 258 291
3 258 259 291
3 291 259 292
3 259 293 292
3 259 260 293
3 260 261 293
3 293 261 294
3 261 262 294
3 294 262 295
3 262 296 295
3 262 263 296
3 263 297 296
3 263 264 297
3 264 265 297
3 297 265 298
3 265 266 298
3 298 266 299
3 266 267 299
3 299 267 300
3 267 268 300
3 300 268 301
3 268 269 301
3 301 269 302
3 269 270 302
3 302 270 303
3 270 304 303
3 270 271 304
3 271 305 304
3 306 272 307
3 272 308 307
3 272 273 308
3 273 309 308
3 273 274 309
3 274 310 309
3 274 275 310
3 275 311 310
3 275 276 311
3 276 312 311
3 276 277 312
3 277 313 312
3 277 278 313
3 278 279 313
3 313 279 314
3 279 280 314
3 314 280 315
3 280 281 315
3 315 281 316
3 281 282 316
3 316 282 317
3 282 283 317
3 317 283 318
3 283 284 318
3 318 284 319
3 284 320 319
3 284 285 320
3 285 321 320
3 285 286 321
3 286 322 321
3 286 287 322
3 287 323 322
3 287 288 323
3 288 324 323
3 288 289 324
3 289 325 324
3 289 290 325
3 290 291 325
3 325 291 326
3 291 292 326
3 326 292 327
3 292 328 327
3 292 293 328
3 293 294 328
3 328 294 329
3 294 295 329
3 329 295 330
3 295 331 330
3 295 296 331
3 296 332 331
3 296 297 332
3 297 333 332
3 297 298 333
3 298 299 333
3 333 299 334
3 299 300 334
3 334 300 335
3 300 301 335
3 335 301 336
3 301 302 336
3 336 302 337
3 302 303 337
3 337 303 338
3 303 339 338
3 303 304 339
3 304 340 339
3 307 341 342
3 307 308 341
3 308 343 341
3 308 309 343
3 309 344 343
3 309 310 344
3 310 345 344
3 310 311 345
3 311 346 345
3 311 312 346
3 312 347 346
3 312 313 347
3 313 314 347
3 347 314 348
3 314 315 348
3 348 315 349
3 315 316 349
3 349 316 350
3 316 317 350
3 350 317 351
3 317 318 351
3 351 318 352
3 318 319 352
3 352 319 353
3 319 354 353
3 319 320 354
3 320 355 354
3 320 321 355
3 321 356 355
3 321 322 356
3 322 357 356
3 322 323 357
3 323 358 357
3 323 324 358
3 324 359 358
3 324 325 359
3 325 326 359
3 359 326 360
3 326 327 360
3 360 327 361
3 327 362 361
3 327 328 362
3 328 329 362
3 362 329 363
3 329 330 363
3 363 330 364
3 330 365 364
3 330 331 365
3 331 366 365
3 331 332 366
3 332 367 366
3 332 333 367
3 333 334 367
3 367 334 368
3 334 335 368
3 368 335 369
3 335 336 369
3 369 336 370
3 336 337 370
3 370 337 371
3 337 372 371
3 337 338 372
3 338 373 372
3 338 339 373
3 339 374 373
3 339 340 374
3 342 375 376
3 342 341 375
3 341 377 375
3 341 343 377
3 343 378 377
3 343 344 378
3 344 379 378
3 344 345 379
3 345 380 379
3 345 346 380
3 346 381 380
3 346 347 381
3 347 348 381
3 381 348 382
3 348 349 382
3 382 349 383
3 349 350 383
3 383 350 384
3 350 351 384
3 384 351 385
3 351 352 385
3 385 352 386
3 352 353 386
3 386 353 387
3 353 354 387
3 387 354 388
3 354 389 388
3 354 355 389
3 355 390 389
3 355 356 390
3 356 391 390
3 356 357 391
3 357 392 391
3 357 358 392
3 358 359 392
3 392 359 393
3 359 360 393
3 393 360 394
3 360 361 394
3 394 361 395
3 361 362 395
3 395 362 396
3 362 363 396
3 396 363 397
3 363 364 397
3 397 364 398
3 364 399 398
3 364 365 399
3 365 400 399
3 365 366 400
3 366 367 400
3 400 367 401
3 367 368 401
3 401 368 402
3 368 369 402
3 402 369 403
3 369 370 403
3 403 370 404
3 370 371 404
3 404 371 405
3 371 372 405
3 405 372 406
3 372 407 406
3 372 373 407
3 373 408 407
3 373 374 408
3 376 409 410
3 376 375 409
3 375 411 409
3 375 377 411
3 377 412 411
3 377 378 412
3 378 413 412
3 378 379 413
3 379 414 413
3 379 380 414
3 380 415 414
3 380 381 415
3 381 382 415
3 415 382 416
3 382 383 416
3 416 383 417
3 383 384 417
3 417 384 418
3 384 385 418
3 418 385 419
3 385 386 419
3 419 386 420
3 386 387 420
3 420 387 421
3 387 388 421
3 421 388 422
3 388 423 422
3 388 389 423
3 389 424 423
3 389 390 424
3 390 425 424
3 390 391 425
3 391 426 425
3 391 392 426
3 392 393 426
3 426 393 427
3 393 394 427
3 427 394 428
3 394 395 428
3 428 395 429
3 395 396 429
3 429 396 430
3 396 397 430
3 430 397 431
3 397 398 431
3 431 398 432
3 398 433 432
3 398 399 433
3 399 434 433
3 399 400 434
3 400 401 434
3 434 401 435
3 401 402 435
3 435 402 436
3 402 403 436
3 436 403 437
3 403 404 437
3 437 404 438
3 404 405 438
3 438 405 439
3 405 406 439
3 439 406 440
3 406 441 440
3 406 407 441
3 407 442 441
3 407 408 442
3 410 409 443
3 409 444 443
3 409 411 444
3 411 445 444
3 411 412 445
3 412 446 445
3 412 413 446
3 413 447 446
3 413 414 447
3 414 448 447
3 414 415 448
3 415 449 448
3 415 416 449
3 416 417 449
3 449 417 450
3 417 418 450
3 450 418 451
3 418 419 451
3 451 419 452
3 419 420 452
3 452 420 453
3 420 421 453
3 453 421 454
3 421 455 454
3 421 422 455
3 422 456 455
3 422 423 456
3 423 457 456
3 423 424 457
3 424 458 457
3 424 425 458
3 425 459 458
3 425 426 459
3 426 460 459
3 426 427 460
3 427 428 460
3 460 428 461
3 428 462 461
3 428 429 462
3 429 463 462
3 429 430 463
3 430 464 463
3 430 431 464
3 431 465 464
3 431 432 465
3 432 466 465
3 432 433 466
3 433 467 466
3 433 434 467
3 434 468 467
3 434 435 468
3 435 436 468
3 468 436 469
3 436 437 469
3 469 437 470
3 437 438 470
3 470 438 471
3 438 439 471
3 471 439 472
3 439 473 472
3 439 440 473
3 440 474 473
3 440 441 474
3 441 475 474
3 441 442 475
3 442 476 475
3 477 443 478
3 443 479 478
3 443 444 479
3 444 480 479
3 444 445 480
3 445 481 480
3 445 446 481
3 446 482 481
3 446 447 482
3 447 483 482
3 447 448 483
3 448 484 483
3 448 449 484
3 449 485 484
3 449 450 485
3 450 451 485
3 485 451 486
3 451 452 486
3 486 452 487
3 452 453 487
3 487 453 488
3 453 454 488
3 488 454 489
3 454 490 489
3 454 455 490
3 455 491 490
3 455 456 491
3 456 492 491
3 456 457 492
3 457 493 492
3 457 458 493
3 458 494 493
3 458 459 494
3 459 495 494
3 459 460 495
3 460 461 495
3 495 461 496
3 461 497 496
3 461 462 497
3 462 498 497
3 462 463 498
3 463 499 498
3 463 464 499
3 464 500 499
3 464 465 500
3 465 501 500
3 465 466 501
3 466 502 501
3 466 467 502
3 467 503 502
3 467 468 503
3 468 469 503
3 503 469 504
3 469 470 504
3 504 470 505
3 470 471 505
3 505 471 506
3 471 507 506
3 471 472 507
3 472 508 507
3 472 473 508
3 473 509 508
3 473 474 509
3 474 510 509
3 474 475 510
3 475 511 510
3 475 476 511
3 478 512 513
3 478 479 512
3 479 514 512
3 479 480 514
3 480 515 514
3 480 481 515
3 481 516 515
3 481 482 516
3 482 517 516
3 482 483 517
3 483 518 517
3 483 484 518
3 484 485 518
3 518 485 519
3 485 486 519
3 519 486 520
3 486 487 520
3 520 487 521
3 487 488 521
3 521 488 522
3 488 489 522
3 522 489 523
3 489 524 523
3 489 490 524
3 490 525 524
3 490 491 525
3 491 526 525
3 491 492 526
3 492 527 526
3 492 493 527
3 493 528 527
3 493 494 528
3 494 529 528
3 494 495 529
3 495 496 529
3 529 496 530
3 496 497 530
3 530 497 531
3 497 532 531
3 497 498 532
3 498 499 532
3 532 499 533
3 499 500 533
3 533 500 534
3 500 535 534
3 500 501 535
3 501 536 535
3 501 502 536
3 502 537 536
3 502 503 537
3 503 504 537
3 537 504 538
3 504 505 538
3 538 505 539
3 505 506 539
3 539 506 540
3 506 507 540
3 540 507 541
3 507 508 541
3 541 508 542
3 508 543 542
3 508 509 543
3 509 544 543
3 509 510 544
3 510 545 544
3 510 511 545
3 513 546 547
3 513 512 546
3 512 548 546
3 512 514 548
3 514 549 548
3 514 515 549
3 515 550 549
3 515 516 550
3 516 551 550
3 516 517 551
3 517 518 551
3 551 518 552
3 518 519 552
3 552 519 553
3 519 520 553
3 553 520 554
3 520 521 554
3 554 521 555
3 521 522 555
3 555 522 556
3 522 523 556
3 556 523 557
3 523 524 557
3 557 524 558
3 524 559 558
3 524 525 559
3 525 560 559
3 525 526 560
3 526 561 560
3 526 527 561
3 527 562 561
3 527 528 562
3 528 529 562
3 562 529 563
3 529 530 563
3 563 530 564
3 530 531 564
3 564 531 565
3 531 532 565
3 565 532 566
3 532 533 566
3 566 533 567
3 533 534 567
3 567 534 568
3 534 569 568
3 534 535 569
3 535 570 569
3 535 536 570
3 536 537 570
3 570 537 571
3 537 538 571
3 571 538 572
3 538 539 572
3 572 539 573
3 539 540 573
3 573 540 574
3 540 541 574
3 574 541 575
3 541 542 575
3 575 542 576
3 542 577 576
3 542 543 577
3 543 578 577
3 543 544 578
3 544 579 578
3 544 545 579
3 547 580 581
3 547 546 580
3 546 582 580
3 546 548 582
3 548 583 582
3 548 549 583
3 549 584 583
3 549 550 584
3 550 585 584
3 550 551 585
3 551 552 585
3 585 552 586
3 552 553 586
3 586 553 587
3 553 554 587
3 587 554 588
3 554 555 588
3 588 555 589
3 555 556 589
3 589 556 590
3 556 557 590
3 590 557 591
3 557 558 591
3 591 558 592
3 558 593 592
3 558 559 593
3 559 594 593
3 559 560 594
3 560 595 594
3 560 561 595
3 561 596 595
3 561 562 596
3 562 563 596
3 596 563 597
3 563 564 597
3 597 564 598
3 564 565 598
3 598 565 599
3 565 566 599
3 599 566 600
3 566 567 600
3 600 567 601
3 567 568 601
3 601 568 602
3 568 603 602
3 568 569 603
3 569 604 603
3 569 570 604
3 570 571 604
3 604 571 605
3 571 572 605
3 605 572 606
3 572 573 606
3 606 573 607
3 573 574 607
3 607 574 608
3 574 575 608
3 608 575 609
3 575 576 609
3 609 576 610
3 576 611 610
3 576 577 611
3 577 612 611
3 577 578 612
3 578 613 612
3 578 579 613
3 579 614 613
3 581 580 615
3 580 616 615
3 580 582 616
3 582 617 616
3 582 583 617
3 583 618 617
3 583 584 618
3 584 619 618
3 584 585 619
3 585 586 619
3 619 586 620
3 586 587 620
3 620 587 621
3 587 588 621
3 621 588 622
3 588 589 622
3 622 589 623
3 589 590 623
3 623 590 624
3 590 591 624
3 624 591 625
3 591 592 625
3 625 592 626
3 592 627 626
3 592 593 627
3 593 628 627
3 593 594 628
3 594 629 628
3 594 595 629
3 595 596 629
3 629 596 630
3 596 597 630
3 630 597 631
3 597 598 631
3 631 598 632
3 598 599 632
3 632 599 633
3 599 600 633
3 633 600 634
3 600 601 634
3 634 601 635
3 601 602 635
3 635 602 636
3 602 603 636
3 636 603 637
3 603 638 637
3 603 604 638
3 604 605 638
3 638 605 639
3 605 606 639
3 639 606 640
3 606 607 640
3 640 607 641
3 607 608 641
3 641 608 642
3 608 609 642
3 642 609 643
3 609 610 643
3 643 610 644
3 610 645 644
3 610 611 645
3 611 646 645
3 611 612 646
3 612 647 646
3 612 613 647
3 613 648 647
3 613 614 648
3 615 649 650
3 615 616 649
3 616 651 649
3 616 617 651
3 617 652 651
3 617 618 652
3 618 619 652
3 652 619 653
3 619 620 653
3 653 620 654
3 620 621 654
3 654 621 655
3 621 622 655
3 655 622 656
3 622 623 656
3 656 623 657
3 623 624 657
3 657 624 658
3 624 625 658
3 658 625 659
3 625 626 659
3 659 626 660
3 626 661 660
3 626 627 661
3 627 662 661
3 627 628 662
3 628 663 662
3 628 629 663
3 629 630 663
3 663 630 664
3 630 631 664
3 664 631 665
3 631 632 665
3 665 632 666
3 632 633 666
3 666 633 667
3 633 634 667
3 667 634 668
3 634 635 668
3 668 635 669
3 635 636 669
3 669 636 670
3 636 637 670
3 670 637 671
3 637 672 671
3 637 638 672
3 638 639 672
3 672 639 673
3 639 640 673
3 673 640 674
3 640 641 674
3 674 641 675
3 641 642 675
3 675 642 676
3 642 643 676
3 676 643 677
3 643 644 677
3 677 644 678
3 644 645 678
3 678 645 679
3 645 680 679
3 645 646 680
3 646 681 680
3 646 647 681
3 647 682 681
3 647 648 682
3 650 683 684
3 650 649 683
3 649 685 683
3 649 651 685
3 651 686 685
3 651 652 686
3 652 653 686
3 686 653 687
3 653 654 687
3 687 654 688
3 654 655 688
3 688 655 689
3 655 656 689
3 689 656 690
3 656 657 690
3 690 657 691
3 657 658 691
3 691 658 692
3 658 659 692
3 692 659 693
3 659 660 693
3 693 660 694
3 660 695 694
3 660 661 695
3 661 696 695
3 661 662 696
3 662 697 696
3 662 663 697
3 663 664 697
3 697 664 698
3 664 665 698
3 698 665 699
3 665 666 699
3 699 666 700
3 666 667 700
3 700 667 701
3 667 668 701
3 701 668 702
3 668 669 702
3 702 669 703
3 669 670 703
3 703 670 704
3 670 705 704
3 670 671 705
3 671 706 705
3 671 672 706
3 672 673 706
3 706 673 707
3 673 674 707
3 707 674 708
3 674 675 708
3 708 675 709
3 675 676 709
3 709 676 710
3 676 677 710
3 710 677 711
3 677 678 711
3 711 678 712
3 678 679 712
3 712 679 713
3 679 714 713
3 679 680 714
3 680 715 714
3 680 681 715
3 681 716 715
3 681 682 716
3 684 717 718
3 684 683 717
3 683 719 717
3 683 685 719
3 685 720 719
3 685 686 720
3 686 721 720
3 686 687 721
3 687 688 721
3 721 688 722
3 688 689 722
3 722 689 723
3 689 690 723
3 723 690 724
3 690 691 724
3 724 691 725
3 691 692 725
3 725 692 726
3 692 693 726
3 726 693 727
3 693 694 727
3 727 694 728
3 694 729 728
3 694 695 729
3 695 730 729
3 695 696 730
3 696 731 730
3 696 697 731
3 697 732 731
3 697 698 732
3 698 699 732
3 732 699 733
3 699 700 733
3 733 700 734
3 700 701 734
3 734 701 735
3 701 702 735
3 735 702 736
3 702 703 736
3 736 703 737
3 703 704 737
3 737 704 738
3 704 739 738
3 704 705 739
3 705 740 739
3 705 706 740
3 706 707 740
3 740 707 741
3 707 708 741
3 741 708 742
3 708 709 742
3 742 709 743
3 709 710 743
3 743 710 744
3 710 711 744
3 744 711 745
3 711 712 745
3 745 712 746
3 712 713 746
3 746 713 747
3 713 748 747
3 713 714 748
3 714 749 748
3 714 715 749
3 715 750 749
3 715 716 750
3 718 751 752
3 718 717 751
3 717 753 751
3 717 719 753
3 719 754 753
3 719 720 754
3 720 755 754
3 720 721 755
3 721 756 755
3 721 722 756
3 722 723 756
3 756 723 757
3 723 724 757
3 757 724 758
3 724 725 758
3 758 725 759
3 725 726 759
3 759 726 760
3 726 727 760
3 760 727 761
3 727 762 761
3 727 728 762
3 728 763 762
3 728 729 763
3 729 764 763
3 729 730 764
3 730 765 764
3 730 731 765
3 731 766 765
3 731 732 766
3 732 733 766
3 766 733 767
3 733 734 767
3 767 734 768
3 734 735 768
3 768 735 769
3 735 770 769
3 735 736 770
3 736 771 770
3 736 737 771
3 737 772 771
3 737 738 772
3 738 773 772
3 738 739 773
3 739 774 773
3 739 740 774
3 740 775 774
3 740 741 775
3 741 742 775
3 775 742 776
3 742 743 776
3 776 743 777
3 743 744 777
3 777 744 778
3 744 745 778
3 778 745 779
3 745 746 779
3 779 746 780
3 746 781 780
3 746 747 781
3 747 782 781
3 747 748 782
3 748 783 782
3 748 749 783
3 749 784 783
3 749 750 784
3 752 785 786
3 752 751 785
3 751 787 785
3 751 753 787
3 753 788 787
3 753 754 788
3 754 789 788
3 754 755 789
3 755 790 789
3 755 756 790
3 756 791 790
3 756 757 791
3 757 758 791
3 791 758 792
3 758 759 792
3 792 759 793
3 759 760 793
3 793 760 794
3 760 761 794
3 794 761 795
3 761 796 795
3 761 762 796
3 762 797 796
3 762 763 797
3 763 798 797
3 763 764 798
3 764 799 798
3 764 765 799
3 765 800 799
3 765 766 800
3 766 801 800
3 766 767 801
3 767 768 801
3 801 768 802
3 768 803 802
3 768 769 803
3 769 804 803
3 769 770 804
3 770 805 804
3 770 771 805
3 771 806 805
3 771 772 806
3 772 807 806
3 772 773 807
3 773 808 807
3 773 774 808
3 774 809 808
3 774 775 809
3 775 776 809
3 809 776 810
3 776 777 810
3 810 777 811
3 777 778 811
3 811 778 812
3 778 779 812
3 812 779 813
3 779 814 813
3 779 780 814
3 780 815 814
3 780 781 815
3 781 816 815
3 781 782 816
3 782 817 816
3 782 783 817
3 783 818 817
3 783 784 818
3 785 819 820
3 785 787 819
3 787 821 819
3 787 788 821
3 788 822 821
3 788 789 822
3 789 823 822
3 789 790 823
3 790 791 823
3 823 791 824
3 791 792 824
3 824 792 825
3 792 793 825
3 825 793 826
3 793 794 826
3 826 794 827
3 794 795 827
3 827 795 828
3 795 829 828
3 795 796 829
3 796 830 829
3 796 797 830
3 797 831 830
3 797 798 831
3 798 832 831
3 798 799 832
3 799 833 832
3 799 800 833
3 800 834 833
3 800 801 834
3 801 802 834
3 834 802 835
3 802 803 835
3 835 803 836
3 803 837 836
3 803 804 837
3 804 838 837
3 804 805 838
3 805 839 838
3 805 806 839
3 806 840 839
3 806 807 840
3 807 841 840
3 807 808 841
3 808 842 841
3 808 809 842
3 809 810 842
3 842 810 843
3 810 811 843
3 843 811 844
3 811 812 844
3 844 812 845
3 812 813 845
3 845 813 846
3 813 814 846
3 820 847 848
3 820 819 847
3 819 849 847
3 819 821 849
3 821 850 849
3 821 822 850
3 822 823 850
3 850 823 851
3 823 824 851
3 851 824 852
3 824 825 852
3 852 825 853
3 825 826 853
3 853 826 854
3 826 827 854
3 854 827 855
3 827 828 855
3 855 828 856
3 828 857 856
3 828 829 857
3 829 858 857
3 829 830 858
3 830 859 858
3 830 831 859
3 831 860 859
3 831 832 860
3 832 861 860
3 832 833 861
3 833 834 861
3 861 834 862
3 834 835 862
3 862 835 863
3 835 836 863
3 863 836 864
3 836 865 864
3 836 837 865
3 837 866 865
3 837 838 866
3 838 867 866
3 838 839 867
3 839 868 867
3 839 840 868
3 840 869 868
3 840 841 869
3 841 870 869
3 841 842 870
3 842 843 870
3 870 843 871
3 843 844 871
3 871 844 872
3 844 845 872
3 848 873 874
3 848 847 873
3 847 875 873
3 847 849 875
3 849 876 875
3 849 850 876
3 850 877 876
3 850 851 877
3 851 852 877
3 877 852 878
3 852 853 878
3 878 853 879
3 853 854 879
3 879 854 880
3 854 855 880
3 880 855 881
3 855 856 881
3 881 856 882
3 856 883 882
3 856 857 883
3 857 884 883
3 857 858 884
3 858 885 884
3 858 859 885
3 859 886 885
3 859 860 886
3 860 887 886
3 860 861 887
3 861 862 887
3 887 862 888
3 862 863 888
3 888 863 889
3 863 864 889
3 889 864 890
3 864 891 890
3 864 865 891
3 865 866 891
3 891 866 892
3 866 867 892
3 892 867 893
3 867 894 893
3 867 868 894
3 868 895 894
3 868 869 895
3 869 870 895
3 895 870 896
3 870 871 896
3 874 897 898
3 874 873 897
3 873 899 897
3 873 875 899
3 875 900 899
3 875 876 900
3 876 877 900
3 900 877 901
3 877 878 901
3 901 878 902
3 878 879 902
3 902 879 903
3 879 880 903
3 903 880 904
3 880 881 904
3 904 881 905
3 881 882 905
3 905 882 906
3 882 907 906
3 882 883 907
3 883 908 907
3 883 884 908
3 884 909 908
3 884 885 909
3 885 910 909
3 885 886 910
3 886 911 910
3 886 887 911
3 887 888 911
3 911 888 912
3 888 889 912
3 912 889 913
3 889 890 913
3 913 890 914
3 890 915 914
3 890 891 915
3 891 892 915
3 898 916 917
3 898 897 916
3 897 918 916
3 897 899 918
3 899 900 918
3 918 900 919
3 900 901 919
3 919 901 920
3 901 902 920
3 920 902 921
3 902 903 921
3 921 903 922
3 903 904 922
3 922 904 923
3 904 905 923
3 923 905 924
3 905 906 924
3 924 906 925
3 906 907 925
3 925 907 926
3 907 927 926
3 907 908 927
3 908 928 927
3 908 909 928
3 909 929 928
3 909 910 929
3 910 930 929
3 910 911 930
3 911 912 930
3 930 912 931
3 912 913 931
3 917 916 932
3 932 916 933
3 916 918 933
3 933 918 934
3 918 919 934
3 934 919 935
3 919 920 935
3 935 920 936
3 920 921 936
3 936 921 937
3 921 922 937
3 937 922 938
3 922 923 938
3 938 923 939
3 923 924 939
3 932 933 940
3 940 933 941
3 933 934 941
3 941 934 942
3 934 935 942
3 942 935 943
3 935 936 943
3 943 936 944
3 936 937 944
3 944 937 945
3 937 938 945
CELL_DATA 1767
SCALARS brightness_temperature float
LOOKUP_TABLE default
POINT_DATA 946
CELL_DATA 1767
SCALARS emission_angle float
LOOKUP_TABLE default
POINT_DATA 946
CELL_DATA 1767
SCALARS incidence_angle float
LOOKUP_TABLE default
POINT_DATA 946
CELL_DATA 1767
SCALARS phase_angle float
LOOKUP_TABLE default
POINT_DATA 946
CELL_DATA 1767
SCALARS local_solar_time float
LOOKUP_TABLE default
POINT_DATA 946
CELL_DATA 1767
SCALARS local_solar_time_normal_vector float
LOOKUP_TABLE default
CELL_DATA 1767
SCALARS pixel_x float
LOOKUP_TABLE default
POINT_DATA 946
CELL_DATA 1767
SCALARS pixel_y float
LOOKUP_TABLE default
POINT_DATA 946
CELL_DATA 1767
SCALARS longitude float
LOOKUP_TABLE default
POINT_DATA 946
CELL_DATA 1767
SCALARS latitude float
LOOKUP_TABLE default
