# vtk DataFile Version 3.0
SHAPE_sfm_50k_v20200323
ASCII
DATASET POLYDATA
POINTS 1611 float
-0.31235 0.09361 -0.2517
-0.31147 0.09255 -0.25467
-0.31361 0.09232 -0.25275
-0.31029 0.0939 -0.25362
-0.30849 0.09356 -0.25579
-0.30949 0.09197 -0.25667
-0.3157 0.09203 -0.25079
-0.31492 0.0909 -0.25391
-0.3171 0.09063 -0.25191
-0.31264 0.09107 -0.25573
-0.31052 0.09045 -0.2576
-0.32022 0.08839 -0.24743
-0.31825 0.09025 -0.24924
-0.31898 0.08831 -0.25001
-0.31764 0.08843 -0.25259
-0.31565 0.08892 -0.25472
-0.31362 0.08942 -0.25671
-0.31181 0.08944 -0.25903
-0.30842 0.09029 -0.25955
-0.30954 0.08906 -0.26093
-0.32324 0.08656 -0.24293
-0.32158 0.0884 -0.24491
-0.32189 0.08637 -0.24546
-0.32039 0.08633 -0.2479
-0.3191 0.08615 -0.25046
-0.31762 0.08621 -0.25293
-0.31618 0.0869 -0.25536
-0.31465 0.08772 -0.25769
-0.31297 0.08781 -0.26026
-0.31045 0.08726 -0.26198
-0.32533 0.08475 -0.24106
-0.32368 0.08448 -0.24337
-0.32225 0.08427 -0.24583
-0.32068 0.08423 -0.24825
-0.31925 0.08405 -0.25073
-0.3178 0.08413 -0.25321
-0.31653 0.08479 -0.25569
-0.31545 0.08569 -0.25828
-0.31371 0.08571 -0.26085
-0.3112 0.08528 -0.26259
-0.32799 0.08302 -0.23943
-0.32595 0.08272 -0.24143
-0.32416 0.0824 -0.24362
-0.32265 0.08216 -0.24603
-0.32117 0.08217 -0.2485
-0.31964 0.08199 -0.25094
-0.31823 0.08208 -0.25343
-0.31687 0.08269 -0.25587
-0.31597 0.08357 -0.25854
-0.31427 0.08358 -0.26112
-0.31187 0.08322 -0.263
-0.30864 0.08472 -0.26392
-0.33112 0.08336 -0.23448
-0.33046 0.08099 -0.2372
-0.33151 0.08115 -0.23447
-0.33016 0.08326 -0.23734
-0.32881 0.08099 -0.23969
-0.32674 0.08073 -0.24173
-0.32481 0.08037 -0.2438
-0.32319 0.0801 -0.24613
-0.32175 0.08013 -0.24861
-0.32036 0.08003 -0.25116
-0.3187 0.08002 -0.25352
-0.31722 0.08059 -0.25591
-0.31641 0.08144 -0.25863
-0.31463 0.0814 -0.26113
-0.31228 0.08106 -0.26301
-0.30979 0.08061 -0.26444
-0.30929 0.08268 -0.26431
-0.33296 0.08154 -0.23204
-0.33246 0.07921 -0.23468
-0.33397 0.0796 -0.23227
-0.33099 0.07891 -0.23713
-0.3295 0.07892 -0.23967
-0.32758 0.07873 -0.24188
-0.32565 0.0784 -0.24399
-0.324 0.07814 -0.2463
-0.32247 0.07813 -0.24873
-0.32117 0.07806 -0.25134
-0.31941 0.07803 -0.25366
-0.31776 0.07855 -0.25594
-0.31661 0.0793 -0.2585
-0.31484 0.07928 -0.26095
-0.31252 0.07898 -0.26277
-0.31028 0.07858 -0.26456
-0.33651 0.07845 -0.23029
-0.33502 0.07772 -0.23267
-0.33326 0.07719 -0.23488
-0.33168 0.07687 -0.23727
-0.33012 0.07686 -0.23972
-0.32831 0.0767 -0.24201
-0.32646 0.07641 -0.24421
-0.32485 0.07619 -0.24658
-0.32324 0.07615 -0.24897
-0.32184 0.07604 -0.25151
-0.32009 0.07604 -0.25383
-0.31834 0.07655 -0.25608
-0.31672 0.07719 -0.25837
-0.31511 0.07722 -0.26085
-0.31304 0.07701 -0.26295
-0.3108 0.07658 -0.26474
-0.30812 0.07787 -0.26632
-0.30883 0.07597 -0.26676
-0.33779 0.07681 -0.23104
-0.33599 0.07578 -0.23311
-0.33416 0.07524 -0.23528
-0.33252 0.07492 -0.23762
-0.33084 0.07487 -0.23998
-0.3291 0.07476 -0.24232
-0.32726 0.07445 -0.24455
-0.32565 0.07423 -0.24692
-0.32408 0.07423 -0.24935
-0.32249 0.07405 -0.25177
-0.32086 0.07411 -0.25417
-0.31898 0.07457 -0.25635
-0.31719 0.07517 -0.25854
-0.31558 0.07521 -0.26099
-0.31362 0.075 -0.2632
-0.31136 0.07458 -0.26499
-0.3095 0.07401 -0.26713
-0.3405 0.07556 -0.2293
-0.33887 0.07487 -0.23168
-0.33706 0.07394 -0.23376
-0.33508 0.07332 -0.2358
-0.33342 0.07305 -0.23815
-0.3318 0.07308 -0.24056
-0.33005 0.07293 -0.24292
-0.32814 0.07255 -0.24507
-0.3265 0.07232 -0.24742
-0.32488 0.0723 -0.24981
-0.32332 0.07218 -0.25228
-0.32157 0.07215 -0.25459
-0.31974 0.07265 -0.25681
-0.31781 0.07321 -0.25891
-0.31606 0.07321 -0.26124
-0.31402 0.07296 -0.26335
-0.31193 0.07261 -0.26533
-0.3101 0.07205 -0.26751
-0.30763 0.07327 -0.26926
-0.30823 0.07128 -0.26962
-0.34368 0.0747 -0.22456
-0.34259 0.07318 -0.22721
-0.34428 0.07256 -0.22495
-0.3419 0.07528 -0.22676
-0.34132 0.07341 -0.22985
-0.33945 0.07267 -0.23201
-0.33782 0.07188 -0.23425
-0.33612 0.07155 -0.23657
-0.33468 0.07158 -0.23911
-0.33295 0.07152 -0.24153
-0.33086 0.071 -0.24353
-0.32897 0.07064 -0.24565
-0.32736 0.07044 -0.24803
-0.32573 0.07043 -0.25042
-0.32412 0.07027 -0.25286
-0.32221 0.07018 -0.25506
-0.32048 0.07073 -0.25735
-0.31852 0.0713 -0.25943
-0.31677 0.0713 -0.26177
-0.31463 0.071 -0.26379
-0.31258 0.0707 -0.26582
-0.3107 0.07011 -0.26797
-0.3088 0.06932 -0.27003
-0.35021 0.07003 -0.21873
-0.3479 0.07186 -0.22049
-0.34842 0.06973 -0.221
-0.34611 0.072 -0.22278
-0.3466 0.06986 -0.22326
-0.34478 0.07043 -0.22545
-0.34305 0.07102 -0.22769
-0.34131 0.07112 -0.22999
-0.33973 0.07046 -0.23233
-0.33813 0.06969 -0.23463
-0.33728 0.06979 -0.23743
-0.33629 0.07026 -0.24035
-0.33404 0.06974 -0.24248
-0.33164 0.06903 -0.24404
-0.32978 0.06873 -0.24619
-0.32814 0.06851 -0.24856
-0.32651 0.06848 -0.25096
-0.32484 0.06831 -0.25336
-0.32292 0.06824 -0.25556
-0.32106 0.06871 -0.25774
-0.31928 0.06939 -0.25996
-0.31729 0.06929 -0.26212
-0.31532 0.06909 -0.26427
-0.31334 0.06884 -0.2664
-0.31141 0.06822 -0.2685
-0.3095 0.06745 -0.27057
-0.30695 0.06863 -0.27213
-0.30762 0.06673 -0.27265
-0.35268 0.06857 -0.21684
-0.35096 0.06791 -0.21906
-0.34915 0.06762 -0.22132
-0.3473 0.06775 -0.22357
-0.3455 0.06835 -0.22578
-0.34367 0.06891 -0.22797
-0.34177 0.06896 -0.23014
-0.34021 0.06831 -0.2325
-0.33873 0.06757 -0.23489
-0.33806 0.06768 -0.23777
-0.33706 0.06787 -0.24071
-0.33468 0.0675 -0.2427
-0.33248 0.06706 -0.24452
-0.33076 0.06692 -0.24683
-0.32907 0.06668 -0.24921
-0.32716 0.06648 -0.2514
-0.32556 0.06637 -0.25382
-0.3237 0.06635 -0.25609
-0.32173 0.06677 -0.25819
-0.31998 0.06741 -0.26043
-0.318 0.06735 -0.2626
-0.31619 0.06729 -0.26491
-0.31407 0.06694 -0.26692
-0.31212 0.06633 -0.26901
-0.31029 0.06562 -0.27117
-0.30832 0.06485 -0.27317
-0.35534 0.06704 -0.21492
-0.35353 0.06647 -0.21713
-0.35191 0.0659 -0.21945
-0.35016 0.06566 -0.22177
-0.34826 0.06576 -0.22398
-0.34636 0.06632 -0.22613
-0.34438 0.0668 -0.22821
-0.3425 0.06687 -0.2304
-0.34085 0.0662 -0.23269
-0.3395 0.06552 -0.23517
-0.33837 0.06548 -0.23787
-0.33697 0.06555 -0.24052
-0.33495 0.06529 -0.24266
-0.33314 0.06499 -0.24489
-0.33172 0.06498 -0.24744
-0.32996 0.06475 -0.24982
-0.32798 0.06459 -0.25194
-0.32632 0.06446 -0.25433
-0.32458 0.06451 -0.2567
-0.32245 0.06484 -0.2587
-0.32036 0.06532 -0.26066
-0.31868 0.06536 -0.26304
-0.31694 0.06532 -0.26543
-0.31479 0.06502 -0.26742
-0.31288 0.06445 -0.26956
-0.31108 0.06379 -0.27177
-0.30905 0.06299 -0.27372
-0.35781 0.06502 -0.21303
-0.35604 0.06491 -0.21536
-0.35433 0.0644 -0.21766
-0.353 0.06405 -0.2202
-0.35136 0.06393 -0.2226
-0.34951 0.06412 -0.22486
-0.34736 0.06447 -0.22681
-0.3452 0.06481 -0.22873
-0.34317 0.06479 -0.23079
-0.34163 0.06419 -0.23319
-0.34033 0.06357 -0.23573
-0.33891 0.06342 -0.23831
-0.33687 0.06336 -0.24042
-0.33516 0.06314 -0.24276
-0.33359 0.06287 -0.24518
-0.33209 0.06278 -0.24769
-0.33048 0.06263 -0.25013
-0.32886 0.0627 -0.25256
-0.32726 0.06265 -0.25505
-0.32527 0.06254 -0.25722
-0.32316 0.06291 -0.25923
-0.32104 0.06338 -0.26116
-0.31917 0.06333 -0.26339
-0.31727 0.06321 -0.26561
-0.31539 0.06304 -0.26785
-0.31352 0.06251 -0.27003
-0.31185 0.06196 -0.27239
-0.30984 0.0612 -0.27438
-0.30704 0.06245 -0.27576
-0.30782 0.06065 -0.27643
-0.35978 0.06298 -0.2113
-0.3583 0.06293 -0.21384
-0.35645 0.06278 -0.2161
-0.35502 0.06244 -0.21861
-0.35379 0.06215 -0.2212
-0.35237 0.06221 -0.22373
-0.35082 0.06275 -0.22621
-0.34851 0.06305 -0.2281
-0.34601 0.06295 -0.22963
-0.34398 0.06295 -0.2317
-0.34262 0.06254 -0.23427
-0.34144 0.06202 -0.23696
-0.33925 0.0613 -0.23884
-0.3371 0.06124 -0.24078
-0.33539 0.06103 -0.2431
-0.33384 0.06076 -0.24555
-0.33229 0.06066 -0.24801
-0.3309 0.06055 -0.25057
-0.32953 0.06067 -0.25317
-0.32784 0.06059 -0.25562
-0.32578 0.06051 -0.25772
-0.32379 0.06098 -0.25983
-0.32165 0.06145 -0.26177
-0.31957 0.0613 -0.26381
-0.31767 0.06119 -0.26602
-0.31581 0.06103 -0.26827
-0.31405 0.06055 -0.27054
-0.31264 0.06016 -0.27311
-0.31075 0.05954 -0.27532
-0.30837 0.05868 -0.27687
-0.36307 0.0612 -0.20696
-0.36129 0.06299 -0.20879
-0.36168 0.06081 -0.2095
-0.36023 0.06083 -0.21204
-0.35877 0.0608 -0.21458
-0.35694 0.06067 -0.21686
-0.35544 0.0603 -0.21934
-0.35435 0.06007 -0.22201
-0.3529 0.06011 -0.22453
-0.35174 0.06077 -0.2272
-0.34967 0.06144 -0.22933
-0.34718 0.06154 -0.23093
-0.34526 0.06171 -0.23308
-0.34378 0.06112 -0.23558
-0.34213 0.06004 -0.23787
-0.33968 0.05918 -0.23929
-0.33749 0.05914 -0.24114
-0.33579 0.05894 -0.24347
-0.33427 0.05869 -0.24594
-0.33281 0.05863 -0.24847
-0.33127 0.05843 -0.25095
-0.32975 0.05847 -0.25346
-0.328 0.0584 -0.25581
-0.32629 0.05849 -0.25819
-0.32445 0.05906 -0.26042
-0.32235 0.05958 -0.26243
-0.32012 0.05933 -0.26431
-0.31813 0.05917 -0.26643
-0.31628 0.05903 -0.26868
-0.31468 0.05863 -0.27108
-0.31343 0.05827 -0.27378
-0.31134 0.05752 -0.27583
-0.30884 0.05669 -0.27721
-0.30602 0.05839 -0.27854
-0.3653 0.05968 -0.20509
-0.36352 0.05893 -0.20731
-0.36211 0.05855 -0.20985
-0.36065 0.05858 -0.21239
-0.35949 0.05863 -0.2151
-0.35766 0.05856 -0.21742
-0.35606 0.05816 -0.21983
-0.35474 0.05785 -0.22238
-0.35327 0.0579 -0.22491
-0.35173 0.05838 -0.22735
-0.35053 0.05927 -0.22998
-0.34844 0.05987 -0.232
-0.34658 0.06012 -0.23426
-0.34495 0.05933 -0.23672
-0.34276 0.05786 -0.23831
-0.34024 0.05707 -0.23957
-0.33804 0.05705 -0.24143
-0.33636 0.05688 -0.24378
-0.33488 0.05664 -0.24628
-0.33332 0.05654 -0.24878
-0.33154 0.05628 -0.2511
-0.32979 0.05631 -0.25344
-0.32816 0.05625 -0.25584
-0.3269 0.0564 -0.25848
-0.32531 0.05712 -0.26092
-0.32319 0.05766 -0.26298
-0.3208 0.05735 -0.26468
-0.3187 0.05716 -0.26669
-0.31688 0.05704 -0.26896
-0.31551 0.05674 -0.27155
-0.3138 0.05615 -0.27391
-0.31162 0.05541 -0.27578
-0.30924 0.05466 -0.27733
-0.30674 0.05436 -0.27881
-0.30633 0.05636 -0.27864
-0.3678 0.05863 -0.20327
-0.36603 0.05748 -0.20531
-0.36426 0.05673 -0.20753
-0.36267 0.0563 -0.20995
-0.36095 0.05629 -0.21233
-0.35964 0.0563 -0.21496
-0.35829 0.05636 -0.21757
-0.35682 0.05603 -0.22008
-0.35532 0.05566 -0.22254
-0.35386 0.05573 -0.22508
-0.35207 0.05616 -0.22735
-0.35057 0.05693 -0.22976
-0.34899 0.0576 -0.23215
-0.34737 0.05783 -0.23459
-0.34546 0.05693 -0.23673
-0.3432 0.05564 -0.23821
-0.34083 0.05496 -0.23974
-0.3387 0.05498 -0.2417
-0.33701 0.05481 -0.24405
-0.33537 0.05452 -0.24646
-0.3337 0.0544 -0.24888
-0.33199 0.05418 -0.25128
-0.33001 0.05417 -0.25344
-0.32824 0.05411 -0.25574
-0.32686 0.05421 -0.2583
-0.32569 0.0549 -0.26097
-0.32363 0.05551 -0.2631
-0.32132 0.05529 -0.26491
-0.31926 0.05514 -0.26698
-0.3175 0.05506 -0.26931
-0.31601 0.0547 -0.27184
-0.31408 0.05406 -0.274
-0.31191 0.05335 -0.27587
-0.30958 0.05263 -0.27751
-0.30722 0.0524 -0.27919
-0.3696 0.05714 -0.2007
-0.36835 0.05636 -0.20324
-0.36677 0.05527 -0.20545
-0.36501 0.05452 -0.20769
-0.36336 0.05408 -0.21006
-0.36145 0.05402 -0.2123
-0.35994 0.05401 -0.21484
-0.35885 0.05413 -0.21758
-0.35735 0.05381 -0.22009
-0.35595 0.05348 -0.22261
-0.35466 0.05359 -0.22527
-0.3528 0.05402 -0.22751
-0.35102 0.05474 -0.22973
-0.3493 0.05537 -0.23201
-0.34734 0.05554 -0.23416
-0.34549 0.05469 -0.23626
-0.34353 0.05346 -0.23805
-0.34138 0.05285 -0.23993
-0.3393 0.05291 -0.24199
-0.33742 0.05267 -0.24422
-0.33574 0.05236 -0.24659
-0.33414 0.05226 -0.24906
-0.33246 0.05202 -0.25153
-0.33008 0.05201 -0.25332
-0.3282 0.05197 -0.25554
-0.32661 0.05211 -0.25798
-0.32534 0.05279 -0.26055
-0.32363 0.05336 -0.2629
-0.32159 0.05318 -0.265
-0.31988 0.05314 -0.26737
-0.31804 0.05305 -0.26966
-0.31628 0.05262 -0.27198
-0.31427 0.05199 -0.27405
-0.31218 0.05131 -0.27601
-0.30995 0.05062 -0.27779
-0.30753 0.05038 -0.27941
-0.30524 0.05044 -0.28124
-0.37104 0.05728 -0.19816
-0.3699 0.05482 -0.20059
-0.37152 0.05498 -0.19816
-0.36849 0.05401 -0.20303
-0.36718 0.05296 -0.20544
-0.36566 0.05228 -0.20785
-0.36399 0.05185 -0.21023
-0.36216 0.05181 -0.21254
-0.36054 0.05178 -0.215
-0.35919 0.05186 -0.21761
-0.3577 0.05155 -0.22012
-0.35646 0.05126 -0.22275
-0.35473 0.0513 -0.22513
-0.35309 0.05177 -0.22752
-0.35158 0.05255 -0.22993
-0.34979 0.0532 -0.23218
-0.34782 0.05337 -0.23433
-0.34578 0.05249 -0.23626
-0.34398 0.05131 -0.23826
-0.34216 0.05088 -0.24052
-0.34003 0.05093 -0.24256
-0.33778 0.05053 -0.2444
-0.33582 0.05018 -0.24655
-0.33405 0.05005 -0.2489
-0.3321 0.04982 -0.25111
-0.33001 0.04985 -0.25317
-0.32803 0.04985 -0.25533
-0.32642 0.05 -0.25776
-0.32506 0.05071 -0.26027
-0.32353 0.05125 -0.26273
-0.32175 0.05107 -0.26506
-0.32008 0.05102 -0.26747
-0.31836 0.05098 -0.26986
-0.31657 0.05056 -0.27216
-0.31459 0.04995 -0.27427
-0.31257 0.04929 -0.27633
-0.31019 0.04856 -0.27792
-0.30775 0.04835 -0.27953
-0.30544 0.04842 -0.28134
-0.37305 0.05477 -0.19565
-0.37174 0.05264 -0.19821
-0.37011 0.05248 -0.20065
-0.36884 0.05169 -0.2032
-0.36782 0.05073 -0.2058
-0.36608 0.05 -0.20807
-0.36444 0.04958 -0.21049
-0.36278 0.04962 -0.21292
-0.36132 0.04965 -0.21549
-0.35954 0.04961 -0.21784
-0.35806 0.0493 -0.22036
-0.35654 0.04898 -0.22284
-0.35471 0.04903 -0.22514
-0.353 0.04951 -0.22748
-0.3516 0.05028 -0.22996
-0.35003 0.05097 -0.23236
-0.34815 0.05118 -0.2346
-0.34619 0.05033 -0.23663
-0.34469 0.04934 -0.23897
-0.34287 0.04888 -0.24128
-0.34042 0.04878 -0.24296
-0.33807 0.04839 -0.24469
-0.33584 0.04801 -0.24657
-0.33365 0.04794 -0.24854
-0.33173 0.04772 -0.25076
-0.32982 0.04772 -0.253
-0.32788 0.04772 -0.25522
-0.32619 0.04789 -0.25762
-0.32485 0.04861 -0.26016
-0.32344 0.04914 -0.26269
-0.32186 0.04896 -0.26516
-0.32033 0.04894 -0.26768
-0.31861 0.04891 -0.27008
-0.31687 0.0485 -0.27243
-0.31499 0.04792 -0.27468
-0.3127 0.0472 -0.27643
-0.31028 0.0465 -0.27795
-0.30784 0.0463 -0.27957
-0.30558 0.04639 -0.28147
-0.37204 0.0503 -0.1984
-0.37039 0.05014 -0.20085
-0.3692 0.04939 -0.20346
-0.36833 0.04847 -0.20616
-0.36639 0.0477 -0.2083
-0.36474 0.04729 -0.21072
-0.36337 0.04742 -0.21334
-0.36212 0.04751 -0.21609
-0.35981 0.04734 -0.21804
-0.35825 0.04704 -0.22053
-0.35662 0.04671 -0.22293
-0.35476 0.04678 -0.22523
-0.35306 0.04726 -0.22758
-0.35162 0.04803 -0.23004
-0.35031 0.04872 -0.2326
-0.34841 0.04897 -0.23484
-0.34683 0.04827 -0.23721
-0.34555 0.04735 -0.23984
-0.3431 0.04663 -0.24147
-0.34057 0.04657 -0.24301
-0.33823 0.04621 -0.24477
-0.33594 0.04585 -0.24661
-0.33354 0.04578 -0.24834
-0.3316 0.04557 -0.25058
-0.33014 0.04561 -0.25317
-0.32807 0.0456 -0.25529
-0.32612 0.04577 -0.25751
-0.32493 0.04648 -0.26014
-0.32353 0.04703 -0.26269
-0.32217 0.04688 -0.26531
-0.3206 0.04686 -0.26781
-0.31885 0.04682 -0.2702
-0.31706 0.04641 -0.27252
-0.31514 0.04581 -0.27472
-0.31283 0.04512 -0.27645
-0.31039 0.04444 -0.27797
-0.30797 0.04426 -0.27965
-0.30581 0.04437 -0.28166
-0.3038 0.04614 -0.28381
-0.30405 0.04414 -0.28403
-0.3709 0.04784 -0.20088
-0.36956 0.04708 -0.20341
-0.36851 0.04612 -0.206
-0.3669 0.04542 -0.20838
-0.36524 0.04501 -0.2108
-0.3638 0.04515 -0.21338
-0.36226 0.04516 -0.21591
-0.36025 0.04509 -0.2181
-0.35852 0.04477 -0.22048
-0.35686 0.04445 -0.22288
-0.35498 0.04453 -0.22516
-0.35315 0.04502 -0.22741
-0.35174 0.04579 -0.2299
-0.35023 0.04648 -0.23233
-0.34867 0.04673 -0.23479
-0.34736 0.04604 -0.23737
-0.34568 0.04495 -0.23967
-0.34313 0.0444 -0.24122
-0.3407 0.04439 -0.2429
-0.33843 0.04405 -0.24477
-0.33612 0.0437 -0.24659
-0.33379 0.04363 -0.24841
-0.33185 0.04342 -0.25064
-0.33039 0.04347 -0.25323
-0.32844 0.0435 -0.25547
-0.32626 0.04363 -0.25749
-0.32487 0.04436 -0.26003
-0.32373 0.04491 -0.2627
-0.32245 0.04477 -0.26537
-0.32092 0.04477 -0.26792
-0.31921 0.04477 -0.27035
-0.31732 0.04434 -0.2726
-0.31526 0.04373 -0.27466
-0.31307 0.04305 -0.27654
-0.31059 0.04239 -0.27803
-0.30824 0.04222 -0.27981
-0.30604 0.04235 -0.28181
-0.30418 0.0421 -0.28412
-0.37152 0.04557 -0.20096
-0.37015 0.04481 -0.20347
-0.36893 0.04382 -0.20597
-0.36755 0.04317 -0.20851
-0.36591 0.04278 -0.21093
-0.36421 0.04287 -0.21335
-0.36259 0.04288 -0.21583
-0.36082 0.04286 -0.2182
-0.35892 0.04251 -0.22044
-0.35711 0.04219 -0.22272
-0.35517 0.04228 -0.22495
-0.35322 0.04278 -0.22711
-0.35178 0.04356 -0.22958
-0.35027 0.04425 -0.23202
-0.34857 0.04451 -0.23439
-0.34694 0.04387 -0.23676
-0.34507 0.04287 -0.23885
-0.34292 0.04225 -0.24076
-0.34073 0.0422 -0.24275
-0.33861 0.04188 -0.24479
-0.33635 0.04154 -0.24667
-0.33412 0.0415 -0.24861
-0.33204 0.04126 -0.25072
-0.33046 0.04132 -0.25323
-0.32875 0.0414 -0.25565
-0.32658 0.04153 -0.25768
-0.32477 0.04223 -0.25996
-0.32383 0.04279 -0.26274
-0.32263 0.04266 -0.26544
-0.32114 0.04267 -0.26802
-0.31951 0.04268 -0.27051
-0.3176 0.04227 -0.27276
-0.31542 0.04166 -0.27469
-0.31322 0.04099 -0.27655
-0.31092 0.04037 -0.2783
-0.30863 0.04024 -0.28015
-0.30643 0.04036 -0.28214
-0.30455 0.04012 -0.28444
-0.37213 0.04333 -0.20127
-0.37067 0.04254 -0.20371
-0.36931 0.04152 -0.20613
-0.36789 0.04087 -0.20864
-0.36629 0.0405 -0.21109
-0.36468 0.04061 -0.21358
-0.36299 0.04062 -0.21601
-0.36109 0.04058 -0.21827
-0.35937 0.04028 -0.22065
-0.35755 0.03996 -0.22292
-0.3554 0.04003 -0.22494
-0.35324 0.04053 -0.22691
-0.3516 0.04134 -0.22925
-0.35005 0.04204 -0.23165
-0.34828 0.04234 -0.23397
-0.3465 0.04175 -0.23625
-0.34459 0.04078 -0.2383
-0.34255 0.04012 -0.24031
-0.34053 0.04005 -0.24246
-0.33852 0.03971 -0.2446
-0.33646 0.03938 -0.24669
-0.33436 0.03935 -0.24878
-0.33247 0.03915 -0.25106
-0.33089 0.03924 -0.25356
-0.32913 0.03934 -0.25595
-0.327 0.03946 -0.25799
-0.32504 0.04012 -0.26014
-0.32382 0.04068 -0.26279
-0.32265 0.04053 -0.26551
-0.32128 0.04056 -0.26814
-0.31954 0.04058 -0.27055
-0.31775 0.04019 -0.27288
-0.3157 0.03961 -0.27495
-0.31359 0.03899 -0.27693
-0.3113 0.03837 -0.27868
-0.30901 0.03826 -0.28055
-0.30695 0.03845 -0.28267
-0.30514 0.03825 -0.28501
-0.30344 0.03943 -0.28711
-0.30389 0.03749 -0.2876
-0.37079 0.04024 -0.20404
-0.36936 0.03921 -0.20642
-0.36792 0.03855 -0.2089
-0.36633 0.03818 -0.21136
-0.36477 0.03831 -0.21387
-0.36315 0.03835 -0.21635
-0.36141 0.03835 -0.21874
-0.35943 0.03801 -0.2209
-0.35754 0.03768 -0.2231
-0.35543 0.03778 -0.22515
-0.35341 0.03829 -0.22724
-0.35156 0.03909 -0.22938
-0.34973 0.03983 -0.23156
-0.34781 0.04016 -0.23376
-0.34598 0.0396 -0.23601
-0.34418 0.03861 -0.23815
-0.34218 0.03796 -0.24018
-0.34025 0.03788 -0.24241
-0.33833 0.03754 -0.24463
-0.33652 0.03723 -0.24695
-0.33477 0.03728 -0.24935
-0.33354 0.03751 -0.25205
-0.33189 0.0376 -0.25452
-0.32976 0.03741 -0.25659
-0.32756 0.03748 -0.25856
-0.32541 0.03806 -0.2605
-0.32384 0.03856 -0.26294
-0.32262 0.03843 -0.26563
-0.3213 0.03846 -0.26828
-0.31967 0.0385 -0.27075
-0.31792 0.03813 -0.27311
-0.31614 0.03763 -0.27545
-0.31389 0.03696 -0.27727
-0.31162 0.03637 -0.27905
-0.30948 0.03634 -0.28109
-0.3075 0.03658 -0.28327
-0.30578 0.03644 -0.28567
-0.30474 0.03581 -0.28837
-0.37065 0.03798 -0.2046
-0.36921 0.03695 -0.20697
-0.36767 0.03627 -0.2094
-0.3661 0.03591 -0.21186
-0.36465 0.03607 -0.21444
-0.36317 0.03613 -0.21702
-0.36107 0.03609 -0.21911
-0.35884 0.0358 -0.22102
-0.35698 0.03547 -0.22324
-0.35515 0.03556 -0.22555
-0.35301 0.03609 -0.22753
-0.35122 0.03689 -0.22973
-0.34924 0.03765 -0.23177
-0.34728 0.03799 -0.23392
-0.34529 0.03749 -0.23603
-0.34345 0.03652 -0.23816
-0.34157 0.03585 -0.2403
-0.33976 0.03576 -0.24263
-0.33788 0.03543 -0.24489
-0.33641 0.03513 -0.24745
-0.33551 0.03544 -0.25027
-0.33488 0.0361 -0.2532
-0.33307 0.03618 -0.25574
-0.33064 0.03567 -0.25756
-0.32798 0.03541 -0.25884
-0.32575 0.03597 -0.26069
-0.32411 0.03647 -0.26307
-0.32281 0.03633 -0.26571
-0.32148 0.03637 -0.26835
-0.31994 0.03644 -0.27087
-0.31837 0.03611 -0.27337
-0.31642 0.03555 -0.27555
-0.31437 0.03497 -0.27758
-0.31226 0.03448 -0.27958
-0.31008 0.03444 -0.28156
-0.30812 0.0347 -0.28374
-0.30649 0.03462 -0.28621
-0.30573 0.03417 -0.28903
-0.30467 0.03522 -0.29131
-0.30528 0.03328 -0.29182
-0.3705 0.03569 -0.20512
-0.3691 0.03467 -0.20751
-0.36764 0.034 -0.20999
-0.36619 0.03367 -0.21253
-0.36477 0.03386 -0.21513
-0.36297 0.03388 -0.21748
-0.3606 0.03385 -0.21927
-0.35826 0.03356 -0.22108
-0.35649 0.03325 -0.22341
-0.35474 0.03336 -0.22579
-0.35247 0.0339 -0.22762
-0.35063 0.03472 -0.22978
-0.34871 0.03548 -0.23188
-0.34669 0.03584 -0.23396
-0.34466 0.03535 -0.23604
-0.34277 0.03441 -0.23813
-0.34099 0.03373 -0.24036
-0.33926 0.03363 -0.24275
-0.33747 0.0333 -0.24509
-0.33622 0.03301 -0.2478
-0.33596 0.03334 -0.25075
-0.3362 0.03397 -0.25401
-0.3342 0.03416 -0.25684
-0.3312 0.03355 -0.25806
-0.32839 0.03333 -0.25902
-0.32607 0.03388 -0.26077
-0.32448 0.03439 -0.26319
-0.32317 0.03425 -0.26582
-0.32185 0.03431 -0.26847
-0.32035 0.03439 -0.27101
-0.3188 0.03407 -0.27352
-0.31693 0.03355 -0.27576
-0.31505 0.03305 -0.27798
-0.313 0.03262 -0.28005
-0.31088 0.03263 -0.2821
-0.30881 0.03284 -0.28419
-0.30726 0.03281 -0.28671
-0.30649 0.03235 -0.28953
-0.3056 0.03129 -0.29211
-0.36936 0.03236 -0.20777
-0.36802 0.03171 -0.21032
-0.3668 0.03147 -0.21299
-0.36529 0.03164 -0.21555
-0.36303 0.03158 -0.21749
-0.36066 0.03155 -0.21925
-0.35837 0.03124 -0.22113
-0.35659 0.03097 -0.22346
-0.35489 0.03112 -0.22589
-0.35252 0.03164 -0.22759
-0.35046 0.0325 -0.22954
-0.34855 0.03326 -0.23163
-0.34648 0.03364 -0.23365
-0.34444 0.03316 -0.23573
-0.34238 0.03226 -0.23767
-0.34064 0.03159 -0.23996
-0.33924 0.03146 -0.24257
-0.3375 0.03113 -0.24495
-0.33609 0.03086 -0.24757
-0.33545 0.03121 -0.25046
-0.33578 0.03144 -0.25366
-0.33427 0.03159 -0.25663
-0.33131 0.03134 -0.25792
-0.32875 0.03124 -0.25934
-0.32644 0.0318 -0.26105
-0.32477 0.0323 -0.26341
-0.32342 0.03216 -0.26602
-0.32219 0.03224 -0.2687
-0.32082 0.03238 -0.27132
-0.31925 0.03206 -0.27381
-0.31758 0.03163 -0.27622
-0.31571 0.03114 -0.27845
-0.31379 0.03082 -0.28067
-0.31169 0.03086 -0.28272
-0.30954 0.03101 -0.28474
-0.30803 0.03103 -0.28728
-0.30715 0.03052 -0.29006
-0.30608 0.02938 -0.29254
-0.30439 0.0302 -0.29461
-0.3697 0.03006 -0.20795
-0.36864 0.02947 -0.21063
-0.36748 0.02924 -0.21334
-0.36567 0.02935 -0.21571
-0.36333 0.02929 -0.21754
-0.36106 0.02928 -0.21943
-0.35888 0.029 -0.22141
-0.35711 0.02876 -0.22373
-0.35522 0.02889 -0.226
-0.35274 0.0294 -0.22754
-0.35051 0.03026 -0.22928
-0.34846 0.03106 -0.23122
-0.34639 0.03145 -0.23325
-0.34437 0.03097 -0.23534
-0.34238 0.03006 -0.23735
-0.34056 0.02941 -0.23957
-0.33899 0.02931 -0.24209
-0.33768 0.02897 -0.24472
-0.33618 0.0287 -0.24727
-0.33498 0.02913 -0.24996
-0.3346 0.02952 -0.25292
-0.33363 0.02948 -0.25588
-0.33114 0.02921 -0.25765
-0.32883 0.0291 -0.25946
-0.32663 0.02971 -0.26133
-0.32498 0.03021 -0.2637
-0.32371 0.03009 -0.26635
-0.32261 0.03022 -0.26909
-0.32127 0.03038 -0.27172
-0.31981 0.03011 -0.27428
-0.31824 0.02974 -0.27676
-0.31663 0.02945 -0.27924
-0.31453 0.02899 -0.28128
-0.31237 0.02899 -0.28326
-0.31033 0.02924 -0.28537
-0.30886 0.02929 -0.28792
-0.30774 0.02866 -0.29057
-0.30669 0.02753 -0.29306
-0.30492 0.02832 -0.29506
-0.30539 0.0264 -0.29549
-0.36893 0.02718 -0.21099
-0.36751 0.0269 -0.21356
-0.3657 0.02704 -0.21589
-0.36355 0.02702 -0.21791
-0.36141 0.02706 -0.21993
-0.35943 0.02687 -0.2221
-0.3576 0.02663 -0.22437
-0.35527 0.02663 -0.22616
-0.35274 0.02714 -0.22758
-0.35037 0.02801 -0.22912
-0.34823 0.02883 -0.23097
-0.34616 0.02923 -0.233
-0.34411 0.02877 -0.23507
-0.34215 0.02785 -0.23712
-0.34055 0.02719 -0.2395
-0.33904 0.0271 -0.24205
-0.33785 0.02679 -0.24474
-0.33644 0.02652 -0.24731
-0.33491 0.02693 -0.24981
-0.33374 0.02753 -0.25246
-0.33284 0.02759 -0.25533
-0.33084 0.02712 -0.25748
-0.32871 0.02698 -0.2595
-0.32679 0.02762 -0.26164
-0.32526 0.02815 -0.2641
-0.3241 0.02806 -0.2668
-0.3231 0.02824 -0.26957
-0.32185 0.02844 -0.27224
-0.32046 0.02821 -0.27483
-0.31906 0.02794 -0.27743
-0.31743 0.02762 -0.27991
-0.31521 0.02711 -0.28183
-0.31306 0.02715 -0.28382
-0.31111 0.02747 -0.286
-0.30958 0.02748 -0.28851
-0.30832 0.02679 -0.29108
-0.30726 0.02566 -0.29356
-0.30598 0.02455 -0.296
-0.36901 0.02485 -0.21121
-0.36756 0.02459 -0.21377
-0.36591 0.02475 -0.21622
-0.36386 0.02478 -0.21835
-0.36183 0.02488 -0.22048
-0.36008 0.02481 -0.22288
-0.35796 0.02443 -0.22488
-0.35549 0.0244 -0.22649
-0.35291 0.0249 -0.22782
-0.35046 0.02576 -0.22925
-0.34822 0.02657 -0.23097
-0.34613 0.02698 -0.23297
-0.34408 0.02652 -0.23504
-0.34223 0.0256 -0.23719
-0.34078 0.02498 -0.23968
-0.33937 0.02492 -0.24228
-0.33812 0.02464 -0.24494
-0.33679 0.02438 -0.24755
-0.33523 0.02475 -0.25002
-0.3337 0.02532 -0.25248
-0.33255 0.0255 -0.25522
-0.33076 0.025 -0.25752
-0.32885 0.02488 -0.25975
-0.32707 0.02554 -0.26201
-0.32575 0.02614 -0.26457
-0.32476 0.02612 -0.26734
-0.32402 0.02646 -0.2702
-0.32264 0.0266 -0.27282
-0.32128 0.02639 -0.27543
-0.31982 0.02608 -0.27801
-0.31792 0.02559 -0.28023
-0.31594 0.02527 -0.28239
-0.31379 0.02532 -0.28439
-0.31184 0.02565 -0.28656
-0.31021 0.02562 -0.28901
-0.30886 0.02489 -0.29152
-0.30772 0.02373 -0.29395
-0.30659 0.02269 -0.2965
-0.30466 0.02368 -0.29849
-0.30504 0.02174 -0.29884
-0.36599 0.02243 -0.21618
-0.36782 0.02227 -0.21386
-0.36404 0.02249 -0.21841
-0.36228 0.02265 -0.22078
-0.36057 0.02257 -0.22322
-0.35835 0.02219 -0.22515
-0.35574 0.02215 -0.22656
-0.35327 0.02269 -0.22807
-0.35074 0.02353 -0.22939
-0.3485 0.02434 -0.23112
-0.34628 0.02474 -0.23299
-0.34421 0.02429 -0.23507
-0.34262 0.02341 -0.23745
-0.34126 0.02285 -0.24
-0.33975 0.02278 -0.24254
-0.33847 0.02251 -0.2452
-0.33729 0.0223 -0.24791
-0.33554 0.02261 -0.25027
-0.33395 0.02317 -0.2527
-0.33255 0.02338 -0.25531
-0.33093 0.02289 -0.25773
-0.32914 0.0228 -0.26007
-0.32748 0.0235 -0.26242
-0.32614 0.02409 -0.26499
-0.32578 0.02432 -0.26793
-0.3251 0.02473 -0.27083
-0.3236 0.02483 -0.27344
-0.32212 0.02456 -0.27599
-0.32062 0.02424 -0.27855
-0.31865 0.02372 -0.28072
-0.31665 0.0234 -0.28288
-0.31452 0.02348 -0.28491
-0.31237 0.02371 -0.28693
-0.31074 0.02369 -0.28939
-0.3093 0.02295 -0.29186
-0.30811 0.02178 -0.29427
-0.30681 0.02068 -0.29672
-0.3053 0.01976 -0.2991
-0.36591 0.02012 -0.21594
-0.3679 0.01994 -0.21374
-0.3641 0.02019 -0.21829
-0.36244 0.02036 -0.22074
-0.36074 0.02027 -0.22318
-0.35863 0.01991 -0.22525
-0.35593 0.0199 -0.22655
-0.35351 0.02045 -0.22815
-0.3511 0.02132 -0.22965
-0.34881 0.02213 -0.23133
-0.34661 0.02254 -0.23323
-0.34455 0.02208 -0.23532
-0.3431 0.02127 -0.23781
-0.34165 0.0207 -0.24032
-0.34017 0.02066 -0.24289
-0.33883 0.02039 -0.24552
-0.3377 0.0202 -0.24826
-0.33597 0.02052 -0.25066
-0.3344 0.02109 -0.2531
-0.33285 0.02128 -0.25563
-0.33126 0.02082 -0.25808
-0.32962 0.02078 -0.26053
-0.3279 0.02147 -0.26285
-0.32657 0.02207 -0.26543
-0.32622 0.02227 -0.26837
-0.32583 0.02273 -0.27134
-0.32445 0.02298 -0.27402
-0.32309 0.02282 -0.27668
-0.32146 0.02243 -0.27918
-0.31947 0.02191 -0.28135
-0.31739 0.02153 -0.28343
-0.31509 0.02154 -0.28529
-0.31298 0.0218 -0.28734
-0.31118 0.02173 -0.28968
-0.30968 0.02098 -0.29212
-0.30831 0.01978 -0.29443
-0.30683 0.01867 -0.29678
-0.30532 0.01774 -0.29915
-0.30347 0.01874 -0.30124
-0.36603 0.01781 -0.21579
-0.36425 0.0179 -0.21817
-0.36264 0.01808 -0.22066
-0.36073 0.01799 -0.22292
-0.35855 0.01764 -0.22487
-0.3562 0.01765 -0.22665
-0.35384 0.01823 -0.22834
-0.35147 0.01911 -0.2299
-0.34922 0.01995 -0.23163
-0.34701 0.02036 -0.23352
-0.34509 0.01995 -0.23575
-0.34361 0.01916 -0.23822
-0.34216 0.0186 -0.24073
-0.34066 0.01857 -0.24329
-0.33923 0.01828 -0.24588
-0.33802 0.01808 -0.24859
-0.33653 0.01848 -0.25112
-0.33493 0.01904 -0.25356
-0.33325 0.01921 -0.256
-0.33181 0.01882 -0.25856
-0.33012 0.01877 -0.26099
-0.32834 0.01943 -0.26327
-0.32701 0.02004 -0.26585
-0.32642 0.02018 -0.26876
-0.32608 0.02061 -0.27171
-0.32508 0.02099 -0.27453
-0.32383 0.02089 -0.27729
-0.32214 0.02047 -0.27977
-0.32012 0.01995 -0.28195
-0.3177 0.01947 -0.28364
-0.3154 0.01952 -0.2855
-0.31327 0.01979 -0.28755
-0.31149 0.01973 -0.28992
-0.30983 0.01897 -0.29225
-0.30842 0.01776 -0.29453
-0.30687 0.01665 -0.29684
-0.30543 0.01574 -0.29927
-0.3037 0.01675 -0.30147
-0.30409 0.01481 -0.30179
-0.3642 0.01559 -0.2181
-0.36598 0.0155 -0.21572
-0.36261 0.01578 -0.2206
-0.36084 0.01571 -0.22297
-0.35857 0.01536 -0.22483
-0.35644 0.01541 -0.22687
-0.35418 0.01602 -0.22867
-0.35183 0.01692 -0.23024
-0.34961 0.01777 -0.23199
-0.34747 0.01821 -0.23395
-0.34561 0.01784 -0.23622
-0.34416 0.01707 -0.23872
-0.34279 0.01656 -0.24128
-0.3412 0.01651 -0.24378
-0.3398 0.01623 -0.24638
-0.33854 0.01603 -0.24906
-0.337 0.01641 -0.25156
-0.33539 0.01698 -0.25399
-0.33384 0.01721 -0.2565
-0.33238 0.01682 -0.25905
-0.33076 0.01682 -0.26153
-0.32883 0.01742 -0.26372
-0.32733 0.01798 -0.26621
-0.32646 0.01808 -0.26905
-0.32606 0.01849 -0.27197
-0.32535 0.01889 -0.27486
-0.32409 0.01876 -0.27762
-0.32228 0.0183 -0.28002
-0.31996 0.01781 -0.28186
-0.31763 0.0174 -0.28364
-0.31541 0.01747 -0.28559
-0.31328 0.01776 -0.28764
-0.31145 0.0177 -0.28997
-0.30983 0.01695 -0.29233
-0.30837 0.01574 -0.29459
-0.30701 0.01465 -0.29702
-0.30576 0.01378 -0.29957
-0.30467 0.01293 -0.30222
-0.36425 0.01329 -0.21819
-0.36262 0.01349 -0.22065
-0.36086 0.01342 -0.22302
-0.35884 0.01311 -0.22512
-0.3567 0.01318 -0.22714
-0.35454 0.01383 -0.22902
-0.3523 0.01477 -0.2307
-0.35004 0.0156 -0.23239
-0.34794 0.01607 -0.23439
-0.34614 0.01573 -0.2367
-0.34472 0.01498 -0.23919
-0.3434 0.01451 -0.24179
-0.34178 0.01445 -0.24427
-0.34042 0.01421 -0.24688
-0.33916 0.01402 -0.24956
-0.33757 0.01438 -0.25201
-0.33604 0.01498 -0.25447
-0.33453 0.01524 -0.25701
-0.3333 0.01502 -0.2597
-0.33155 0.01493 -0.26208
-0.32945 0.01543 -0.26412
-0.32779 0.01593 -0.26651
-0.32654 0.01597 -0.2692
-0.32595 0.01638 -0.27207
-0.3254 0.01676 -0.27499
-0.324 0.01661 -0.27767
-0.32185 0.01622 -0.27975
-0.31955 0.01578 -0.28155
-0.31746 0.01535 -0.28359
-0.31528 0.01542 -0.28558
-0.31335 0.01573 -0.2878
-0.31134 0.01567 -0.28998
-0.3098 0.01493 -0.2924
-0.30859 0.01374 -0.29479
-0.30733 0.01268 -0.29728
-0.30609 0.01182 -0.29983
-0.3051 0.01098 -0.30252
-0.366 0.01318 -0.2158
-0.36453 0.011 -0.21817
-0.36265 0.0112 -0.22045
-0.36101 0.01115 -0.22291
-0.35944 0.01093 -0.22538
-0.35744 0.01107 -0.22752
-0.35518 0.01167 -0.22928
-0.35307 0.01269 -0.2311
-0.35076 0.0135 -0.23274
-0.34861 0.01396 -0.23467
-0.34681 0.01363 -0.23698
-0.34546 0.01292 -0.23952
-0.34414 0.01246 -0.24211
-0.34257 0.01244 -0.24462
-0.3412 0.01221 -0.24722
-0.33991 0.01201 -0.24988
-0.3384 0.01241 -0.25237
-0.33686 0.01302 -0.25481
-0.33564 0.01341 -0.25749
-0.33438 0.01314 -0.26021
-0.33237 0.01295 -0.26242
-0.3302 0.01346 -0.26439
-0.32832 0.01388 -0.26662
-0.32698 0.01389 -0.26925
-0.32599 0.01427 -0.272
-0.32521 0.01466 -0.27483
-0.3237 0.01454 -0.2774
-0.32153 0.01418 -0.27941
-0.31929 0.01373 -0.28128
-0.31727 0.0133 -0.28338
-0.31525 0.01338 -0.28553
-0.31332 0.01369 -0.28774
-0.31142 0.01365 -0.29001
-0.30997 0.01291 -0.29249
-0.30908 0.0118 -0.29506
-0.30798 0.01079 -0.29764
-0.30633 0.00984 -0.29991
-0.3047 0.00903 -0.30227
-0.36282 0.00892 -0.22029
-0.36469 0.0087 -0.21801
-0.36125 0.00888 -0.2228
-0.35974 0.00867 -0.2253
-0.35846 0.00909 -0.22794
-0.35627 0.00976 -0.2298
-0.35392 0.01063 -0.23138
-0.35163 0.01146 -0.23303
-0.34938 0.01187 -0.23486
-0.3476 0.01155 -0.23719
-0.34628 0.01087 -0.23976
-0.34496 0.01043 -0.24235
-0.34348 0.01048 -0.24491
-0.34205 0.01023 -0.24748
-0.34069 0.01001 -0.2501
-0.33931 0.01047 -0.25265
-0.33784 0.01111 -0.25516
-0.33605 0.01125 -0.25752
-0.33452 0.01092 -0.26004
-0.33267 0.0108 -0.26234
-0.33081 0.01143 -0.26457
-0.32893 0.01186 -0.26681
-0.32746 0.01183 -0.26937
-0.32624 0.01218 -0.27203
-0.325 0.01257 -0.27467
-0.32362 0.01246 -0.2773
-0.32129 0.01212 -0.27914
-0.31909 0.01166 -0.28106
-0.31713 0.01124 -0.28323
-0.31526 0.01133 -0.28551
-0.31332 0.01165 -0.28772
-0.31154 0.01162 -0.29009
-0.31055 0.01098 -0.29282
-0.3097 0.00989 -0.29542
-0.30834 0.00878 -0.29786
-0.30621 0.00786 -0.29975
-0.30415 0.00717 -0.3018
-0.36268 0.00664 -0.22023
-0.36118 0.00661 -0.22278
-0.35999 0.00644 -0.22546
-0.35937 0.00697 -0.22839
-0.35738 0.00788 -0.23051
-0.35479 0.00862 -0.23185
-0.35247 0.00942 -0.23345
-0.35021 0.00983 -0.23526
-0.34844 0.00952 -0.23759
-0.34719 0.00889 -0.2402
-0.34586 0.00847 -0.24279
-0.34421 0.00844 -0.24524
-0.34272 0.00818 -0.24777
-0.34135 0.00797 -0.25038
-0.33999 0.00843 -0.25296
-0.33846 0.00904 -0.25544
-0.33633 0.00912 -0.25754
-0.33452 0.00878 -0.25984
-0.33287 0.00869 -0.26228
-0.33121 0.00934 -0.26464
-0.32962 0.00987 -0.26707
-0.32815 0.00984 -0.26963
-0.3268 0.01016 -0.27223
-0.32531 0.0105 -0.27476
-0.32351 0.01038 -0.2771
-0.32122 0.01004 -0.27896
-0.31913 0.00958 -0.281
-0.3173 0.00918 -0.28329
-0.31535 0.00928 -0.28548
-0.31348 0.00962 -0.28775
-0.31167 0.0096 -0.29012
-0.31107 0.00899 -0.29303
-0.30978 0.00784 -0.29543
-0.30795 0.00678 -0.29755
-0.30579 0.00593 -0.29939
-0.36255 0.00435 -0.22021
-0.36098 0.00434 -0.22272
-0.35982 0.0042 -0.22541
-0.35931 0.0046 -0.22833
-0.35816 0.00569 -0.23096
-0.35557 0.00657 -0.23237
-0.35316 0.00733 -0.23386
-0.35097 0.00778 -0.23573
-0.34939 0.00759 -0.23821
-0.3481 0.00695 -0.24079
-0.34655 0.00642 -0.24324
-0.34475 0.00636 -0.24558
-0.34324 0.0061 -0.2481
-0.34184 0.00588 -0.25069
-0.34042 0.00633 -0.25323
-0.33888 0.00692 -0.25571
-0.33683 0.00705 -0.25786
-0.33476 0.00666 -0.25992
-0.3331 0.00657 -0.26235
-0.33154 0.00725 -0.26478
-0.33006 0.0078 -0.26727
-0.32915 0.00798 -0.2701
-0.32767 0.00826 -0.27267
-0.32566 0.00843 -0.27486
-0.32342 0.00831 -0.27679
-0.32133 0.00795 -0.27885
-0.31923 0.00751 -0.28089
-0.31756 0.00713 -0.2833
-0.31553 0.00724 -0.28543
-0.31357 0.00758 -0.28763
-0.31188 0.00759 -0.29008
-0.31069 0.00697 -0.29272
-0.3093 0.00589 -0.29507
-0.30741 0.00488 -0.29713
-0.36077 0.00208 -0.22248
-0.36238 0.00207 -0.22
-0.3594 0.002 -0.22509
-0.35884 0.00238 -0.22797
-0.35826 0.00334 -0.23077
-0.35613 0.00441 -0.23269
-0.35378 0.00521 -0.23426
-0.35168 0.00572 -0.23621
-0.34992 0.00545 -0.23855
-0.34854 0.00478 -0.24108
-0.3469 0.00426 -0.24347
-0.34516 0.00423 -0.24585
-0.34362 0.00398 -0.24836
-0.34217 0.00375 -0.25092
-0.34068 0.00418 -0.25341
-0.33926 0.00479 -0.25597
-0.33723 0.00495 -0.25815
-0.33508 0.00456 -0.26015
-0.33343 0.00449 -0.26259
-0.33187 0.00516 -0.26501
-0.33025 0.0057 -0.26742
-0.32935 0.00582 -0.27025
-0.32805 0.00613 -0.27293
-0.3259 0.00634 -0.27502
-0.3235 0.00622 -0.27676
-0.32134 0.00587 -0.27875
-0.31919 0.00544 -0.28075
-0.31738 0.00508 -0.28305
-0.31565 0.0052 -0.28542
-0.31369 0.00555 -0.28761
-0.31206 0.00558 -0.29009
-0.31039 0.00499 -0.29244
-0.30875 0.00398 -0.29464
-0.36065 -0.00019 -0.22222
-0.35911 -0.00024 -0.22471
-0.35812 0.00027 -0.22746
-0.35803 0.00107 -0.23037
-0.35652 0.00217 -0.23278
-0.35421 0.00302 -0.23445
-0.35216 0.00354 -0.23645
-0.35047 0.00331 -0.23883
-0.34902 0.00263 -0.24132
-0.34737 0.00212 -0.24369
-0.34563 0.00211 -0.24607
-0.34401 0.00184 -0.24851
-0.34246 0.00161 -0.25101
-0.34088 0.00203 -0.25345
-0.33916 0.0026 -0.25578
-0.33739 0.00279 -0.25813
-0.33568 0.00254 -0.26051
-0.33398 0.00245 -0.26291
-0.33191 0.00303 -0.26496
-0.3303 0.0036 -0.26738
-0.3291 0.00371 -0.27008
-0.32783 0.00399 -0.27274
-0.32576 0.00424 -0.27486
-0.32352 0.00413 -0.27676
-0.32127 0.00379 -0.27864
-0.31911 0.00336 -0.28063
-0.31734 0.00302 -0.28297
-0.31567 0.00315 -0.28539
-0.31385 0.00353 -0.28768
-0.31207 0.00357 -0.29002
-0.31034 0.00297 -0.29233
-0.35912 -0.00252 -0.22452
-0.36081 -0.00248 -0.22215
-0.3575 -0.00187 -0.22695
-0.35724 -0.00101 -0.22981
-0.35653 -0.00012 -0.23261
-0.35454 0.0008 -0.23466
-0.35256 0.00136 -0.23671
-0.35077 0.00111 -0.23902
-0.34932 0.00043 -0.2415
-0.34775 -4e-05 -0.24394
-0.34597 -5e-05 -0.24628
-0.3443 -0.00032 -0.24868
-0.34262 -0.00055 -0.25109
-0.34109 -0.00012 -0.25356
-0.33925 0.00045 -0.25579
-0.33754 0.00065 -0.25819
-0.33632 0.00049 -0.26091
-0.33435 0.00033 -0.26313
-0.332 0.00091 -0.26489
-0.33023 0.00149 -0.26718
-0.32869 0.00166 -0.2697
-0.32742 0.00195 -0.27233
-0.32561 0.00216 -0.27465
-0.32347 0.00204 -0.27667
-0.32122 0.0017 -0.27855
-0.31924 0.00128 -0.2807
-0.31739 0.00096 -0.28296
-0.31561 0.00111 -0.28529
-0.31378 0.0015 -0.28756
-0.31198 0.00155 -0.28989
-0.35902 -0.00478 -0.22427
-0.35742 -0.00417 -0.22668
-0.35653 -0.00312 -0.2293
-0.35614 -0.00232 -0.23218
-0.35462 -0.00148 -0.2346
-0.35276 -0.00088 -0.23676
-0.35109 -0.0011 -0.23916
-0.34926 -0.00179 -0.24137
-0.34792 -0.00227 -0.24396
-0.34597 -0.00225 -0.24619
-0.34416 -0.00249 -0.2485
-0.34257 -0.00271 -0.25096
-0.3411 -0.00229 -0.25347
-0.33963 -0.00168 -0.25595
-0.33773 -0.00149 -0.25821
-0.33635 -0.00171 -0.26085
-0.33417 -0.0018 -0.26286
-0.33197 -0.0012 -0.26477
-0.33014 -0.00063 -0.26701
-0.32852 -0.00044 -0.26947
-0.32695 -8e-05 -0.27192
-0.32526 0.00012 -0.27431
-0.32318 -0.0 -0.27638
-0.32112 -0.00037 -0.27845
-0.31938 -0.0008 -0.2808
-0.31731 -0.0011 -0.28287
-0.31548 -0.00092 -0.28517
-0.31369 -0.00054 -0.28747
-0.31187 -0.00048 -0.28978
-0.35771 -0.00643 -0.22658
-0.35923 -0.00705 -0.22416
-0.3564 -0.00536 -0.22898
-0.35545 -0.00441 -0.23161
-0.35424 -0.00367 -0.23419
-0.35266 -0.00311 -0.23656
-0.35102 -0.00333 -0.23899
-0.34914 -0.00399 -0.24116
-0.34749 -0.00442 -0.24354
-0.3459 -0.00443 -0.24602
-0.34406 -0.00466 -0.24832
-0.34244 -0.00486 -0.25076
-0.34094 -0.00443 -0.25324
-0.3397 -0.00387 -0.25586
-0.33795 -0.00364 -0.25825
-0.33581 -0.00376 -0.26029
-0.33382 -0.00387 -0.26244
-0.33198 -0.00332 -0.26469
-0.33016 -0.00275 -0.26693
-0.3284 -0.00255 -0.26929
-0.32672 -0.00216 -0.27167
-0.32494 -0.00193 -0.27399
-0.32287 -0.00205 -0.27608
-0.32087 -0.00242 -0.27821
-0.31911 -0.00285 -0.28054
-0.31722 -0.00315 -0.28277
-0.31539 -0.00297 -0.28506
-0.35787 -0.00868 -0.22639
-0.35642 -0.0076 -0.22869
-0.35518 -0.0066 -0.23118
-0.35394 -0.00585 -0.23374
-0.35248 -0.00531 -0.2362
-0.35085 -0.00553 -0.23863
-0.34895 -0.00617 -0.2408
-0.34728 -0.00658 -0.24318
-0.34572 -0.00658 -0.24569
-0.34403 -0.00682 -0.24809
-0.34234 -0.00701 -0.2505
-0.3407 -0.00655 -0.25288
-0.33927 -0.00595 -0.25539
-0.33762 -0.00574 -0.25783
-0.3356 -0.00587 -0.25998
-0.33365 -0.00598 -0.26218
-0.33195 -0.00544 -0.26455
-0.33003 -0.00485 -0.26671
-0.32826 -0.00465 -0.26907
-0.32655 -0.00425 -0.27142
-0.32481 -0.00402 -0.27378
-0.32276 -0.00415 -0.27589
-0.3207 -0.0045 -0.27798
-0.31891 -0.00491 -0.2803
-0.35933 -0.00931 -0.22392
-0.35793 -0.01093 -0.22611
-0.35651 -0.00983 -0.22843
-0.35512 -0.00882 -0.23083
-0.35379 -0.00805 -0.23335
-0.35242 -0.00752 -0.23588
-0.35067 -0.00771 -0.23824
-0.34895 -0.00837 -0.24055
-0.34723 -0.00876 -0.2429
-0.34552 -0.00873 -0.24532
-0.34399 -0.00898 -0.24783
-0.34223 -0.00915 -0.2502
-0.34056 -0.00869 -0.25257
-0.3389 -0.00803 -0.25493
-0.33714 -0.00778 -0.25729
-0.33541 -0.00798 -0.25968
-0.33368 -0.00812 -0.26206
-0.33191 -0.00756 -0.26437
-0.32996 -0.00697 -0.26651
-0.32813 -0.00676 -0.26883
-0.3265 -0.00636 -0.27126
-0.32486 -0.00612 -0.2737
-0.32276 -0.00623 -0.27577
-0.32058 -0.00658 -0.27777
-0.35688 -0.01206 -0.2285
-0.35797 -0.01319 -0.22596
-0.3551 -0.01106 -0.23067
-0.3538 -0.01028 -0.2332
-0.35234 -0.00974 -0.23569
-0.35048 -0.00992 -0.23798
-0.34876 -0.01057 -0.24031
-0.3472 -0.01096 -0.24277
-0.34544 -0.01091 -0.24515
-0.34375 -0.01112 -0.24757
-0.34202 -0.0113 -0.24996
-0.34041 -0.01084 -0.25239
-0.33868 -0.01016 -0.25469
-0.33701 -0.00994 -0.25712
-0.33541 -0.01013 -0.25961
-0.33399 -0.01023 -0.26219
-0.3322 -0.00967 -0.26449
-0.33011 -0.0091 -0.2665
-0.32813 -0.00888 -0.26871
-0.32643 -0.00846 -0.27108
-0.3247 -0.0082 -0.27347
-0.3225 -0.00828 -0.27546
-0.35694 -0.01432 -0.22851
-0.35539 -0.0133 -0.23082
-0.35368 -0.01252 -0.2331
-0.35226 -0.01196 -0.2356
-0.35046 -0.01214 -0.23795
-0.34888 -0.01278 -0.24038
-0.34736 -0.01315 -0.24288
-0.34544 -0.0131 -0.24515
-0.34367 -0.01329 -0.24751
-0.34188 -0.01345 -0.24986
-0.34024 -0.01299 -0.25226
-0.33871 -0.01232 -0.2547
-0.3371 -0.01209 -0.25718
-0.33568 -0.01226 -0.25977
-0.33437 -0.01232 -0.26242
-0.33262 -0.01174 -0.26477
-0.33038 -0.01121 -0.26666
-0.32827 -0.011 -0.26873
-0.32634 -0.01056 -0.27092
-0.3243 -0.01023 -0.27304
-0.35537 -0.01554 -0.23083
-0.35671 -0.01658 -0.2284
-0.35379 -0.01475 -0.2332
-0.35226 -0.01418 -0.23564
-0.35064 -0.01436 -0.23809
-0.34918 -0.01496 -0.24062
-0.34747 -0.01534 -0.24299
-0.3456 -0.01527 -0.2453
-0.34375 -0.01546 -0.2476
-0.3418 -0.01561 -0.24982
-0.34023 -0.01515 -0.25227
-0.33884 -0.01449 -0.25479
-0.33713 -0.01424 -0.25721
-0.33561 -0.01439 -0.25975
-0.33454 -0.01446 -0.26253
-0.33284 -0.01386 -0.26494
-0.33061 -0.01331 -0.26685
-0.32837 -0.01311 -0.26878
-0.35575 -0.01773 -0.23097
-0.35695 -0.01884 -0.22848
-0.35412 -0.01696 -0.23332
-0.35252 -0.01639 -0.23571
-0.35084 -0.01657 -0.23812
-0.34933 -0.0172 -0.24061
-0.34748 -0.01754 -0.24288
-0.34596 -0.01744 -0.24544
-0.34395 -0.01763 -0.24764
-0.34195 -0.01777 -0.2498
-0.34024 -0.0173 -0.25214
-0.3386 -0.01664 -0.25449
-0.33693 -0.01637 -0.25694
-0.33543 -0.0165 -0.25949
-0.33449 -0.01663 -0.26233
-0.33266 -0.01598 -0.26465
-0.35672 -0.01969 -0.23135
-0.35478 -0.01908 -0.23355
-0.35303 -0.01855 -0.23585
-0.35109 -0.01879 -0.23806
-0.34925 -0.0194 -0.2403
-0.34771 -0.01973 -0.24279
-0.34612 -0.01963 -0.24531
-0.34404 -0.01979 -0.24744
-0.34222 -0.01993 -0.24977
-0.34023 -0.01945 -0.25189
-0.33844 -0.01875 -0.25413
-0.33668 -0.01846 -0.2565
-0.3352 -0.01858 -0.25907
-0.35581 -0.02098 -0.23426
-0.3579 -0.02156 -0.23205
-0.35343 -0.02075 -0.23604
-0.35117 -0.02101 -0.23791
-0.3493 -0.0216 -0.24012
-0.34784 -0.02193 -0.24267
-0.34618 -0.02181 -0.24515
-0.34417 -0.02196 -0.24733
-0.34232 -0.02209 -0.24964
-0.34034 -0.0216 -0.25177
-0.33844 -0.0209 -0.25392
-0.33658 -0.02058 -0.25621
-0.35656 -0.02323 -0.23493
-0.35368 -0.02299 -0.23614
-0.35124 -0.02323 -0.23778
-0.34948 -0.02381 -0.24008
-0.34796 -0.02412 -0.24259
-0.34629 -0.02399 -0.24506
-0.3443 -0.02412 -0.24726
-0.34241 -0.02426 -0.24954
-0.35359 -0.02523 -0.23587
-0.35611 -0.02559 -0.23424
-0.35132 -0.02546 -0.23773
-0.34962 -0.02602 -0.24007
-0.34805 -0.02633 -0.24256
-0.34627 -0.02619 -0.24494
-0.35341 -0.02744 -0.23559
-0.35521 -0.02746 -0.23323
-0.35136 -0.02769 -0.23768
-0.34967 -0.02825 -0.24005
-0.35327 -0.02967 -0.23538
-0.35118 -0.02991 -0.23747
-0.35294 -0.03186 -0.2351
-0.30338 0.00873 -0.30478
-0.30409 0.01067 -0.30524
-0.3039 0.01282 -0.30502
POLYGONS 3041 12164
3 0 1 2
3 0 3 1
3 3 4 1
3 1 4 5
3 6 7 8
3 6 2 7
3 2 9 7
3 2 1 9
3 1 5 9
3 9 5 10
3 11 12 13
3 12 8 13
3 13 8 14
3 8 15 14
3 8 7 15
3 7 16 15
3 7 9 16
3 9 10 16
3 16 10 17
3 17 18 19
3 20 21 22
3 21 11 22
3 22 11 23
3 11 13 23
3 23 13 24
3 13 14 24
3 24 14 25
3 14 26 25
3 14 15 26
3 15 27 26
3 15 16 27
3 16 17 27
3 27 17 28
3 17 19 28
3 28 19 29
3 30 20 31
3 20 22 31
3 31 22 32
3 22 23 32
3 32 23 33
3 23 24 33
3 33 24 34
3 24 25 34
3 34 25 35
3 25 36 35
3 25 26 36
3 26 37 36
3 26 27 37
3 27 38 37
3 27 28 38
3 28 29 38
3 38 29 39
3 40 30 41
3 30 31 41
3 41 31 42
3 31 32 42
3 42 32 43
3 32 44 43
3 32 33 44
3 33 34 44
3 44 34 45
3 34 46 45
3 34 35 46
3 35 47 46
3 35 36 47
3 36 48 47
3 36 37 48
3 37 49 48
3 37 38 49
3 38 39 49
3 49 39 50
3 39 51 50
3 52 53 54
3 52 55 53
3 55 56 53
3 55 40 56
3 40 57 56
3 40 41 57
3 41 58 57
3 41 42 58
3 42 59 58
3 42 43 59
3 43 60 59
3 43 44 60
3 44 61 60
3 44 45 61
3 45 62 61
3 45 46 62
3 46 63 62
3 46 47 63
3 47 64 63
3 47 48 64
3 48 65 64
3 48 49 65
3 49 66 65
3 49 50 66
3 50 67 66
3 50 68 67
3 69 70 71
3 69 54 70
3 54 72 70
3 54 53 72
3 53 73 72
3 53 56 73
3 56 74 73
3 56 57 74
3 57 75 74
3 57 58 75
3 58 76 75
3 58 59 76
3 59 77 76
3 59 60 77
3 60 78 77
3 60 61 78
3 61 79 78
3 61 62 79
3 62 80 79
3 62 63 80
3 63 81 80
3 63 64 81
3 64 82 81
3 64 65 82
3 65 83 82
3 65 66 83
3 66 84 83
3 66 67 84
3 85 71 86
3 71 70 86
3 86 70 87
3 70 88 87
3 70 72 88
3 72 89 88
3 72 73 89
3 73 90 89
3 73 74 90
3 74 91 90
3 74 75 91
3 75 92 91
3 75 76 92
3 76 93 92
3 76 77 93
3 77 94 93
3 77 78 94
3 78 95 94
3 78 79 95
3 79 96 95
3 79 80 96
3 80 97 96
3 80 81 97
3 81 98 97
3 81 82 98
3 82 99 98
3 82 83 99
3 83 84 99
3 99 84 100
3 84 101 100
3 100 101 102
3 85 86 103
3 103 86 104
3 86 87 104
3 104 87 105
3 87 88 105
3 105 88 106
3 88 107 106
3 88 89 107
3 89 108 107
3 89 90 108
3 90 109 108
3 90 91 109
3 91 110 109
3 91 92 110
3 92 111 110
3 92 93 111
3 93 112 111
3 93 94 112
3 94 113 112
3 94 95 113
3 95 114 113
3 95 96 114
3 96 115 114
3 96 97 115
3 97 116 115
3 97 98 116
3 98 117 116
3 98 99 117
3 99 100 117
3 117 100 118
3 100 102 118
3 118 102 119
3 120 103 121
3 103 104 121
3 121 104 122
3 104 105 122
3 122 105 123
3 105 106 123
3 123 106 124
3 106 125 124
3 106 107 125
3 107 126 125
3 107 108 126
3 108 109 126
3 126 109 127
3 109 110 127
3 127 110 128
3 110 129 128
3 110 111 129
3 111 112 129
3 129 112 130
3 112 131 130
3 112 113 131
3 113 132 131
3 113 114 132
3 114 133 132
3 114 115 133
3 115 134 133
3 115 116 134
3 116 117 134
3 134 117 135
3 117 118 135
3 135 118 136
3 118 119 136
3 136 119 137
3 119 138 137
3 137 138 139
3 140 141 142
3 140 143 141
3 143 144 141
3 143 120 144
3 120 121 144
3 144 121 145
3 121 122 145
3 145 122 146
3 122 123 146
3 146 123 147
3 123 124 147
3 147 124 148
3 124 125 148
3 148 125 149
3 125 126 149
3 149 126 150
3 126 127 150
3 150 127 151
3 127 128 151
3 151 128 152
3 128 153 152
3 128 129 153
3 129 130 153
3 153 130 154
3 130 131 154
3 154 131 155
3 131 156 155
3 131 132 156
3 132 157 156
3 132 133 157
3 133 158 157
3 133 134 158
3 134 135 158
3 158 135 159
3 135 136 159
3 159 136 160
3 136 137 160
3 160 137 161
3 137 139 161
3 161 139 162
3 163 164 165
3 164 166 165
3 165 166 167
3 166 168 167
3 166 142 168
3 142 169 168
3 142 141 169
3 141 144 169
3 169 144 170
3 144 145 170
3 170 145 171
3 145 146 171
3 171 146 172
3 146 147 172
3 172 147 173
3 147 174 173
3 147 148 174
3 148 149 174
3 174 149 175
3 149 150 175
3 175 150 176
3 150 151 176
3 176 151 177
3 151 152 177
3 177 152 178
3 152 179 178
3 152 153 179
3 153 154 179
3 179 154 180
3 154 181 180
3 154 155 181
3 155 182 181
3 155 156 182
3 156 183 182
3 156 157 183
3 157 184 183
3 157 158 184
3 158 159 184
3 184 159 185
3 159 160 185
3 185 160 186
3 160 161 186
3 186 161 187
3 161 162 187
3 187 162 188
3 162 189 188
3 188 189 190
3 191 163 192
3 163 165 192
3 192 165 193
3 165 194 193
3 165 167 194
3 167 195 194
3 167 168 195
3 168 196 195
3 168 169 196
3 169 197 196
3 169 170 197
3 170 171 197
3 197 171 198
3 171 172 198
3 198 172 199
3 172 200 199
3 172 173 200
3 173 201 200
3 173 174 201
3 174 175 201
3 201 175 202
3 175 176 202
3 202 176 203
3 176 177 203
3 203 177 204
3 177 178 204
3 204 178 205
3 178 179 205
3 205 179 206
3 179 180 206
3 206 180 207
3 180 208 207
3 180 181 208
3 181 209 208
3 181 182 209
3 182 210 209
3 182 183 210
3 183 211 210
3 183 184 211
3 184 185 211
3 211 185 212
3 185 186 212
3 212 186 213
3 186 187 213
3 213 187 214
3 187 188 214
3 214 188 215
3 188 190 215
3 215 190 216
3 217 191 218
3 191 192 218
3 218 192 219
3 192 220 219
3 192 193 220
3 193 221 220
3 193 194 221
3 194 222 221
3 194 195 222
3 195 223 222
3 195 196 223
3 196 224 223
3 196 197 224
3 197 198 224
3 224 198 225
3 198 199 225
3 225 199 226
3 199 227 226
3 199 200 227
3 200 228 227
3 200 201 228
3 201 202 228
3 228 202 229
3 202 203 229
3 229 203 230
3 203 231 230
3 203 204 231
3 204 205 231
3 231 205 232
3 205 206 232
3 232 206 233
3 206 207 233
3 233 207 234
3 207 235 234
3 207 208 235
3 208 236 235
3 208 209 236
3 209 237 236
3 209 210 237
3 210 238 237
3 210 211 238
3 211 239 238
3 211 212 239
3 212 213 239
3 239 213 240
3 213 214 240
3 240 214 241
3 214 215 241
3 241 215 242
3 215 216 242
3 242 216 243
3 244 217 245
3 217 218 245
3 245 218 246
3 218 219 246
3 246 219 247
3 219 220 247
3 247 220 248
3 220 249 248
3 220 221 249
3 221 250 249
3 221 222 250
3 222 251 250
3 222 223 251
3 223 252 251
3 223 224 252
3 224 225 252
3 252 225 253
3 225 226 253
3 253 226 254
3 226 227 254
3 254 227 255
3 227 256 255
3 227 228 256
3 228 229 256
3 256 229 257
3 229 230 257
3 257 230 258
3 230 231 258
3 258 231 259
3 231 232 259
3 259 232 260
3 232 261 260
3 232 233 261
3 233 234 261
3 261 234 262
3 234 263 262
3 234 235 263
3 235 264 263
3 235 236 264
3 236 265 264
3 236 237 265
3 237 266 265
3 237 238 266
3 238 239 266
3 266 239 267
3 239 240 267
3 267 240 268
3 240 241 268
3 268 241 269
3 241 242 269
3 269 242 270
3 242 243 270
3 270 243 271
3 243 272 271
3 271 272 273
3 274 244 275
3 244 245 275
3 275 245 276
3 245 246 276
3 276 246 277
3 246 247 277
3 277 247 278
3 247 248 278
3 278 248 279
3 248 249 279
3 279 249 280
3 249 250 280
3 280 250 281
3 250 251 281
3 281 251 282
3 251 252 282
3 282 252 283
3 252 253 283
3 283 253 284
3 253 254 284
3 284 254 285
3 254 255 285
3 285 255 286
3 255 256 286
3 286 256 287
3 256 257 287
3 287 257 288
3 257 258 288
3 288 258 289
3 258 259 289
3 289 259 290
3 259 260 290
3 290 260 291
3 260 261 291
3 291 261 292
3 261 262 292
3 292 262 293
3 262 263 293
3 293 263 294
3 263 295 294
3 263 264 295
3 264 296 295
3 264 265 296
3 265 266 296
3 296 266 297
3 266 267 297
3 297 267 298
3 267 268 298
3 298 268 299
3 268 269 299
3 299 269 300
3 269 270 300
3 300 270 301
3 270 271 301
3 301 271 302
3 271 273 302
3 302 273 303
3 304 305 306
3 305 274 306
3 306 274 307
3 274 275 307
3 307 275 308
3 275 276 308
3 308 276 309
3 276 277 309
3 309 277 310
3 277 278 310
3 310 278 311
3 278 279 311
3 311 279 312
3 279 313 312
3 279 280 313
3 280 314 313
3 280 281 314
3 281 282 314
3 314 282 315
3 282 283 315
3 315 283 316
3 283 284 316
3 316 284 317
3 284 285 317
3 317 285 318
3 285 286 318
3 318 286 319
3 286 287 319
3 319 287 320
3 287 288 320
3 320 288 321
3 288 289 321
3 321 289 322
3 289 290 322
3 322 290 323
3 290 291 323
3 323 291 324
3 291 292 324
3 324 292 325
3 292 293 325
3 325 293 326
3 293 294 326
3 326 294 327
3 294 328 327
3 294 295 328
3 295 329 328
3 295 296 329
3 296 297 329
3 329 297 330
3 297 298 330
3 330 298 331
3 298 299 331
3 331 299 332
3 299 300 332
3 332 300 333
3 300 301 333
3 333 301 334
3 301 302 334
3 334 302 335
3 302 303 335
3 335 303 336
3 303 337 336
3 338 304 339
3 304 306 339
3 339 306 340
3 306 307 340
3 340 307 341
3 307 308 341
3 341 308 342
3 308 309 342
3 342 309 343
3 309 310 343
3 343 310 344
3 310 311 344
3 344 311 345
3 311 312 345
3 345 312 346
3 312 347 346
3 312 313 347
3 313 348 347
3 313 314 348
3 314 349 348
3 314 315 349
3 315 316 349
3 349 316 350
3 316 317 350
3 350 317 351
3 317 318 351
3 351 318 352
3 318 319 352
3 352 319 353
3 319 354 353
3 319 320 354
3 320 321 354
3 354 321 355
3 321 322 355
3 355 322 356
3 322 323 356
3 356 323 357
3 323 324 357
3 357 324 358
3 324 359 358
3 324 325 359
3 325 326 359
3 359 326 360
3 326 361 360
3 326 327 361
3 327 362 361
3 327 328 362
3 328 363 362
3 328 329 363
3 329 330 363
3 363 330 364
3 330 365 364
3 330 331 365
3 331 366 365
3 331 332 366
3 332 333 366
3 366 333 367
3 333 334 367
3 367 334 368
3 334 335 368
3 368 335 369
3 335 336 369
3 369 336 370
3 336 371 370
3 336 372 371
3 373 338 374
3 338 339 374
3 374 339 375
3 339 340 375
3 375 340 376
3 340 377 376
3 340 341 377
3 341 378 377
3 341 342 378
3 342 379 378
3 342 343 379
3 343 344 379
3 379 344 380
3 344 345 380
3 380 345 381
3 345 382 381
3 345 346 382
3 346 383 382
3 346 347 383
3 347 384 383
3 347 348 384
3 348 385 384
3 348 349 385
3 349 386 385
3 349 350 386
3 350 351 386
3 386 351 387
3 351 352 387
3 387 352 388
3 352 353 388
3 388 353 389
3 353 390 389
3 353 354 390
3 354 391 390
3 354 355 391
3 355 356 391
3 391 356 392
3 356 393 392
3 356 357 393
3 357 358 393
3 393 358 394
3 358 395 394
3 358 359 395
3 359 396 395
3 359 360 396
3 360 397 396
3 360 361 397
3 361 398 397
3 361 362 398
3 362 399 398
3 362 363 399
3 363 400 399
3 363 364 400
3 364 401 400
3 364 365 401
3 365 402 401
3 365 366 402
3 366 367 402
3 402 367 403
3 367 368 403
3 403 368 404
3 368 369 404
3 404 369 405
3 369 370 405
3 405 370 406
3 370 371 406
3 406 371 407
3 408 373 409
3 373 374 409
3 409 374 410
3 374 375 410
3 410 375 411
3 375 376 411
3 411 376 412
3 376 413 412
3 376 377 413
3 377 414 413
3 377 378 414
3 378 415 414
3 378 379 415
3 379 416 415
3 379 380 416
3 380 381 416
3 416 381 417
3 381 418 417
3 381 382 418
3 382 419 418
3 382 383 419
3 383 420 419
3 383 384 420
3 384 421 420
3 384 385 421
3 385 422 421
3 385 386 422
3 386 387 422
3 422 387 423
3 387 388 423
3 423 388 424
3 388 389 424
3 424 389 425
3 389 426 425
3 389 390 426
3 390 391 426
3 426 391 427
3 391 392 427
3 427 392 428
3 392 429 428
3 392 393 429
3 393 394 429
3 429 394 430
3 394 431 430
3 394 395 431
3 395 432 431
3 395 396 432
3 396 433 432
3 396 397 433
3 397 434 433
3 397 398 434
3 398 435 434
3 398 399 435
3 399 436 435
3 399 400 436
3 400 437 436
3 400 401 437
3 401 438 437
3 401 402 438
3 402 403 438
3 438 403 439
3 403 404 439
3 439 404 440
3 404 405 440
3 440 405 441
3 405 406 441
3 441 406 442
3 406 407 442
3 442 407 443
3 407 444 443
3 445 446 447
3 445 408 446
3 408 409 446
3 446 409 448
3 409 410 448
3 448 410 449
3 410 411 449
3 449 411 450
3 411 412 450
3 450 412 451
3 412 452 451
3 412 413 452
3 413 453 452
3 413 414 453
3 414 454 453
3 414 415 454
3 415 416 454
3 454 416 455
3 416 417 455
3 455 417 456
3 417 457 456
3 417 418 457
3 418 458 457
3 418 419 458
3 419 459 458
3 419 420 459
3 420 460 459
3 420 421 460
3 421 461 460
3 421 422 461
3 422 423 461
3 461 423 462
3 423 424 462
3 462 424 463
3 424 425 463
3 463 425 464
3 425 465 464
3 425 426 465
3 426 427 465
3 465 427 466
3 427 428 466
3 466 428 467
3 428 429 467
3 467 429 468
3 429 430 468
3 468 430 469
3 430 470 469
3 430 431 470
3 431 471 470
3 431 432 471
3 432 472 471
3 432 433 472
3 433 473 472
3 433 434 473
3 434 474 473
3 434 435 474
3 435 436 474
3 474 436 475
3 436 476 475
3 436 437 476
3 437 438 476
3 476 438 477
3 438 439 477
3 477 439 478
3 439 440 478
3 478 440 479
3 440 441 479
3 479 441 480
3 441 442 480
3 480 442 481
3 442 443 481
3 481 443 482
3 443 483 482
3 443 444 483
3 484 447 485
3 447 446 485
3 485 446 486
3 446 448 486
3 486 448 487
3 448 449 487
3 487 449 488
3 449 450 488
3 488 450 489
3 450 451 489
3 489 451 490
3 451 491 490
3 451 452 491
3 452 453 491
3 491 453 492
3 453 493 492
3 453 454 493
3 454 455 493
3 493 455 494
3 455 456 494
3 494 456 495
3 456 496 495
3 456 457 496
3 457 497 496
3 457 458 497
3 458 498 497
3 458 459 498
3 459 499 498
3 459 460 499
3 460 500 499
3 460 461 500
3 461 462 500
3 500 462 501
3 462 463 501
3 501 463 502
3 463 464 502
3 502 464 503
3 464 465 503
3 503 465 504
3 465 466 504
3 504 466 505
3 466 467 505
3 505 467 506
3 467 468 506
3 506 468 507
3 468 469 507
3 507 469 508
3 469 509 508
3 469 470 509
3 470 510 509
3 470 471 510
3 471 511 510
3 471 472 511
3 472 512 511
3 472 473 512
3 473 513 512
3 473 474 513
3 474 475 513
3 513 475 514
3 475 476 514
3 514 476 515
3 476 477 515
3 515 477 516
3 477 478 516
3 516 478 517
3 478 479 517
3 517 479 518
3 479 480 518
3 518 480 519
3 480 481 519
3 519 481 520
3 481 482 520
3 520 482 521
3 482 522 521
3 482 483 522
3 485 486 523
3 523 486 524
3 486 487 524
3 524 487 525
3 487 488 525
3 525 488 526
3 488 489 526
3 526 489 527
3 489 490 527
3 527 490 528
3 490 529 528
3 490 491 529
3 491 492 529
3 529 492 530
3 492 493 530
3 530 493 531
3 493 494 531
3 531 494 532
3 494 495 532
3 532 495 533
3 495 534 533
3 495 496 534
3 496 535 534
3 496 497 535
3 497 536 535
3 497 498 536
3 498 537 536
3 498 499 537
3 499 538 537
3 499 500 538
3 500 501 538
3 538 501 539
3 501 502 539
3 539 502 540
3 502 503 540
3 540 503 541
3 503 542 541
3 503 504 542
3 504 505 542
3 542 505 543
3 505 506 543
3 543 506 544
3 506 545 544
3 506 507 545
3 507 508 545
3 545 508 546
3 508 547 546
3 508 509 547
3 509 548 547
3 509 510 548
3 510 549 548
3 510 511 549
3 511 550 549
3 511 512 550
3 512 551 550
3 512 513 551
3 513 514 551
3 551 514 552
3 514 553 552
3 514 515 553
3 515 554 553
3 515 516 554
3 516 517 554
3 554 517 555
3 517 518 555
3 555 518 556
3 518 519 556
3 556 519 557
3 519 520 557
3 557 520 558
3 520 521 558
3 558 521 559
3 521 560 559
3 521 522 560
3 522 561 560
3 560 561 562
3 523 524 563
3 524 525 563
3 563 525 564
3 525 526 564
3 564 526 565
3 526 527 565
3 565 527 566
3 527 528 566
3 566 528 567
3 528 568 567
3 528 529 568
3 529 569 568
3 529 530 569
3 530 570 569
3 530 531 570
3 531 532 570
3 570 532 571
3 532 533 571
3 571 533 572
3 533 573 572
3 533 534 573
3 534 574 573
3 534 535 574
3 535 575 574
3 535 536 575
3 536 576 575
3 536 537 576
3 537 577 576
3 537 538 577
3 538 539 577
3 577 539 578
3 539 540 578
3 578 540 579
3 540 541 579
3 579 541 580
3 541 581 580
3 541 542 581
3 542 543 581
3 581 543 582
3 543 544 582
3 582 544 583
3 544 584 583
3 544 545 584
3 545 546 584
3 584 546 585
3 546 586 585
3 546 547 586
3 547 587 586
3 547 548 587
3 548 588 587
3 548 549 588
3 549 589 588
3 549 550 589
3 550 590 589
3 550 551 590
3 551 552 590
3 590 552 591
3 552 592 591
3 552 553 592
3 553 593 592
3 553 554 593
3 554 555 593
3 593 555 594
3 555 556 594
3 594 556 595
3 556 557 595
3 595 557 596
3 557 558 596
3 596 558 597
3 558 559 597
3 597 559 598
3 559 599 598
3 559 560 599
3 560 562 599
3 599 562 600
3 563 564 601
3 601 564 602
3 564 565 602
3 602 565 603
3 565 566 603
3 603 566 604
3 566 567 604
3 604 567 605
3 567 606 605
3 567 568 606
3 568 607 606
3 568 569 607
3 569 608 607
3 569 570 608
3 570 571 608
3 608 571 609
3 571 610 609
3 571 572 610
3 572 611 610
3 572 573 611
3 573 612 611
3 573 574 612
3 574 613 612
3 574 575 613
3 575 614 613
3 575 576 614
3 576 615 614
3 576 577 615
3 577 578 615
3 615 578 616
3 578 579 616
3 616 579 617
3 579 580 617
3 617 580 618
3 580 619 618
3 580 581 619
3 581 582 619
3 619 582 620
3 582 583 620
3 620 583 621
3 583 622 621
3 583 584 622
3 584 585 622
3 622 585 623
3 585 624 623
3 585 586 624
3 586 625 624
3 586 587 625
3 587 626 625
3 587 588 626
3 588 627 626
3 588 589 627
3 589 628 627
3 589 590 628
3 590 591 628
3 628 591 629
3 591 630 629
3 591 592 630
3 592 631 630
3 592 593 631
3 593 594 631
3 631 594 632
3 594 595 632
3 632 595 633
3 595 596 633
3 633 596 634
3 596 597 634
3 634 597 635
3 597 598 635
3 635 598 636
3 598 637 636
3 598 599 637
3 599 600 637
3 637 600 638
3 601 602 639
3 639 602 640
3 602 603 640
3 640 603 641
3 603 604 641
3 641 604 642
3 604 605 642
3 642 605 643
3 605 644 643
3 605 606 644
3 606 645 644
3 606 607 645
3 607 646 645
3 607 608 646
3 608 609 646
3 646 609 647
3 609 610 647
3 647 610 648
3 610 649 648
3 610 611 649
3 611 650 649
3 611 612 650
3 612 651 650
3 612 613 651
3 613 652 651
3 613 614 652
3 614 653 652
3 614 615 653
3 615 616 653
3 653 616 654
3 616 617 654
3 654 617 655
3 617 618 655
3 655 618 656
3 618 657 656
3 618 619 657
3 619 620 657
3 657 620 658
3 620 621 658
3 658 621 659
3 621 660 659
3 621 622 660
3 622 623 660
3 660 623 661
3 623 662 661
3 623 624 662
3 624 663 662
3 624 625 663
3 625 664 663
3 625 626 664
3 626 665 664
3 626 627 665
3 627 666 665
3 627 628 666
3 628 629 666
3 666 629 667
3 629 630 667
3 667 630 668
3 630 631 668
3 668 631 669
3 631 632 669
3 669 632 670
3 632 633 670
3 670 633 671
3 633 634 671
3 671 634 672
3 634 635 672
3 672 635 673
3 635 636 673
3 673 636 674
3 636 675 674
3 636 637 675
3 637 638 675
3 675 638 676
3 638 677 676
3 676 677 678
3 640 641 679
3 679 641 680
3 641 642 680
3 680 642 681
3 642 643 681
3 681 643 682
3 643 644 682
3 682 644 683
3 644 645 683
3 683 645 684
3 645 646 684
3 684 646 685
3 646 647 685
3 685 647 686
3 647 648 686
3 686 648 687
3 648 649 687
3 687 649 688
3 649 689 688
3 649 650 689
3 650 690 689
3 650 651 690
3 651 691 690
3 651 652 691
3 652 692 691
3 652 653 692
3 653 654 692
3 692 654 693
3 654 655 693
3 693 655 694
3 655 656 694
3 694 656 695
3 656 657 695
3 695 657 696
3 657 658 696
3 696 658 697
3 658 659 697
3 697 659 698
3 659 660 698
3 698 660 699
3 660 661 699
3 699 661 700
3 661 662 700
3 700 662 701
3 662 663 701
3 701 663 702
3 663 664 702
3 702 664 703
3 664 704 703
3 664 665 704
3 665 705 704
3 665 666 705
3 666 667 705
3 705 667 706
3 667 668 706
3 706 668 707
3 668 669 707
3 707 669 708
3 669 670 708
3 708 670 709
3 670 671 709
3 709 671 710
3 671 672 710
3 710 672 711
3 672 673 711
3 711 673 712
3 673 674 712
3 712 674 713
3 674 714 713
3 674 675 714
3 675 676 714
3 714 676 715
3 676 678 715
3 715 678 716
3 679 680 717
3 717 680 718
3 680 681 718
3 718 681 719
3 681 682 719
3 719 682 720
3 682 683 720
3 720 683 721
3 683 684 721
3 721 684 722
3 684 685 722
3 722 685 723
3 685 686 723
3 723 686 724
3 686 687 724
3 724 687 725
3 687 688 725
3 725 688 726
3 688 689 726
3 726 689 727
3 689 728 727
3 689 690 728
3 690 729 728
3 690 691 729
3 691 692 729
3 729 692 730
3 692 693 730
3 730 693 731
3 693 694 731
3 731 694 732
3 694 695 732
3 732 695 733
3 695 696 733
3 733 696 734
3 696 697 734
3 734 697 735
3 697 698 735
3 735 698 736
3 698 699 736
3 736 699 737
3 699 738 737
3 699 700 738
3 700 701 738
3 738 701 739
3 701 702 739
3 739 702 740
3 702 703 740
3 740 703 741
3 703 742 741
3 703 704 742
3 704 743 742
3 704 705 743
3 705 706 743
3 743 706 744
3 706 745 744
3 706 707 745
3 707 746 745
3 707 708 746
3 708 709 746
3 746 709 747
3 709 710 747
3 747 710 748
3 710 711 748
3 748 711 749
3 711 712 749
3 749 712 750
3 712 751 750
3 712 713 751
3 713 752 751
3 713 714 752
3 714 715 752
3 752 715 753
3 715 716 753
3 753 716 754
3 716 755 754
3 754 755 756
3 717 718 757
3 718 719 758
3 758 719 759
3 719 720 759
3 759 720 760
3 720 721 760
3 760 721 761
3 721 722 761
3 761 722 762
3 722 723 762
3 762 723 763
3 723 724 763
3 763 724 764
3 724 725 764
3 764 725 765
3 725 726 765
3 765 726 766
3 726 767 766
3 726 727 767
3 727 768 767
3 727 728 768
3 728 769 768
3 728 729 769
3 729 730 769
3 769 730 770
3 730 731 770
3 770 731 771
3 731 732 771
3 771 732 772
3 732 733 772
3 772 733 773
3 733 734 773
3 773 734 774
3 734 735 774
3 774 735 775
3 735 736 775
3 775 736 776
3 736 737 776
3 776 737 777
3 737 778 777
3 737 738 778
3 738 779 778
3 738 739 779
3 739 740 779
3 779 740 780
3 740 741 780
3 780 741 781
3 741 782 781
3 741 742 782
3 742 783 782
3 742 743 783
3 743 784 783
3 743 744 784
3 744 785 784
3 744 745 785
3 745 786 785
3 745 746 786
3 746 747 786
3 786 747 787
3 747 748 787
3 787 748 788
3 748 749 788
3 788 749 789
3 749 750 789
3 789 750 790
3 750 791 790
3 750 751 791
3 751 792 791
3 751 752 792
3 752 793 792
3 752 753 793
3 753 754 793
3 793 754 794
3 754 756 794
3 794 756 795
3 758 759 796
3 796 759 797
3 759 760 797
3 797 760 798
3 760 799 798
3 760 761 799
3 761 762 799
3 799 762 800
3 762 801 800
3 762 763 801
3 763 764 801
3 801 764 802
3 764 765 802
3 802 765 803
3 765 804 803
3 765 766 804
3 766 805 804
3 766 767 805
3 767 806 805
3 767 768 806
3 768 807 806
3 768 769 807
3 769 808 807
3 769 770 808
3 770 771 808
3 808 771 809
3 771 772 809
3 809 772 810
3 772 773 810
3 810 773 811
3 773 812 811
3 773 774 812
3 774 775 812
3 812 775 813
3 775 776 813
3 813 776 814
3 776 815 814
3 776 777 815
3 777 816 815
3 777 778 816
3 778 817 816
3 778 779 817
3 779 780 817
3 817 780 818
3 780 819 818
3 780 781 819
3 781 820 819
3 781 782 820
3 782 821 820
3 782 783 821
3 783 784 821
3 821 784 822
3 784 823 822
3 784 785 823
3 785 824 823
3 785 786 824
3 786 787 824
3 824 787 825
3 787 788 825
3 825 788 826
3 788 789 826
3 826 789 827
3 789 790 827
3 827 790 828
3 790 829 828
3 790 791 829
3 791 830 829
3 791 792 830
3 792 831 830
3 792 793 831
3 793 794 831
3 831 794 832
3 794 795 832
3 832 795 833
3 795 834 833
3 796 797 835
3 835 797 836
3 797 798 836
3 836 798 837
3 798 838 837
3 798 799 838
3 799 839 838
3 799 800 839
3 800 840 839
3 800 801 840
3 801 802 840
3 840 802 841
3 802 803 841
3 841 803 842
3 803 843 842
3 803 804 843
3 804 844 843
3 804 805 844
3 805 845 844
3 805 806 845
3 806 846 845
3 806 807 846
3 807 847 846
3 807 808 847
3 808 809 847
3 847 809 848
3 809 810 848
3 848 810 849
3 810 811 849
3 849 811 850
3 811 851 850
3 811 812 851
3 812 852 851
3 812 813 852
3 813 853 852
3 813 814 853
3 814 854 853
3 814 815 854
3 815 855 854
3 815 816 855
3 816 856 855
3 816 817 856
3 817 857 856
3 817 818 857
3 818 858 857
3 818 819 858
3 819 859 858
3 819 820 859
3 820 860 859
3 820 821 860
3 821 822 860
3 860 822 861
3 822 823 861
3 861 823 862
3 823 863 862
3 823 824 863
3 824 825 863
3 863 825 864
3 825 826 864
3 864 826 865
3 826 827 865
3 865 827 866
3 827 828 866
3 866 828 867
3 828 868 867
3 828 829 868
3 829 869 868
3 829 830 869
3 830 870 869
3 830 831 870
3 831 832 870
3 870 832 871
3 832 833 871
3 871 833 872
3 833 873 872
3 872 873 874
3 836 837 875
3 875 837 876
3 837 838 876
3 876 838 877
3 838 839 877
3 877 839 878
3 839 840 878
3 878 840 879
3 840 841 879
3 879 841 880
3 841 842 880
3 880 842 881
3 842 843 881
3 881 843 882
3 843 883 882
3 843 844 883
3 844 884 883
3 844 845 884
3 845 885 884
3 845 846 885
3 846 886 885
3 846 847 886
3 847 848 886
3 886 848 887
3 848 849 887
3 887 849 888
3 849 850 888
3 888 850 889
3 850 851 889
3 889 851 890
3 851 852 890
3 890 852 891
3 852 853 891
3 891 853 892
3 853 893 892
3 853 854 893
3 854 894 893
3 854 855 894
3 855 856 894
3 894 856 895
3 856 857 895
3 895 857 896
3 857 858 896
3 896 858 897
3 858 898 897
3 858 859 898
3 859 899 898
3 859 860 899
3 860 861 899
3 899 861 900
3 861 862 900
3 900 862 901
3 862 902 901
3 862 863 902
3 863 864 902
3 902 864 903
3 864 865 903
3 903 865 904
3 865 866 904
3 904 866 905
3 866 867 905
3 905 867 906
3 867 907 906
3 867 868 907
3 868 908 907
3 868 869 908
3 869 909 908
3 869 870 909
3 870 871 909
3 909 871 910
3 871 872 910
3 910 872 911
3 872 874 911
3 911 874 912
3 875 876 913
3 913 876 914
3 876 877 914
3 914 877 915
3 877 878 915
3 915 878 916
3 878 879 916
3 916 879 917
3 879 880 917
3 917 880 918
3 880 881 918
3 918 881 919
3 881 882 919
3 919 882 920
3 882 921 920
3 882 883 921
3 883 922 921
3 883 884 922
3 884 923 922
3 884 885 923
3 885 924 923
3 885 886 924
3 886 887 924
3 924 887 925
3 887 888 925
3 925 888 926
3 888 889 926
3 926 889 927
3 889 890 927
3 927 890 928
3 890 891 928
3 928 891 929
3 891 892 929
3 929 892 930
3 892 931 930
3 892 893 931
3 893 932 931
3 893 894 932
3 894 895 932
3 932 895 933
3 895 896 933
3 933 896 934
3 896 897 934
3 934 897 935
3 897 936 935
3 897 898 936
3 898 937 936
3 898 899 937
3 899 900 937
3 937 900 938
3 900 939 938
3 900 901 939
3 901 940 939
3 901 902 940
3 902 903 940
3 940 903 941
3 903 904 941
3 941 904 942
3 904 905 942
3 942 905 943
3 905 906 943
3 943 906 944
3 906 945 944
3 906 907 945
3 907 946 945
3 907 908 946
3 908 947 946
3 908 909 947
3 909 910 947
3 947 910 948
3 910 911 948
3 948 911 949
3 911 912 949
3 949 912 950
3 912 951 950
3 950 951 952
3 914 953 954
3 914 915 953
3 915 955 953
3 915 916 955
3 916 956 955
3 916 917 956
3 917 918 956
3 956 918 957
3 918 919 957
3 957 919 958
3 919 959 958
3 919 920 959
3 920 960 959
3 920 921 960
3 921 961 960
3 921 922 961
3 922 962 961
3 922 923 962
3 923 963 962
3 923 924 963
3 924 925 963
3 963 925 964
3 925 926 964
3 964 926 965
3 926 927 965
3 965 927 966
3 927 928 966
3 966 928 967
3 928 929 967
3 967 929 968
3 929 930 968
3 968 930 969
3 930 970 969
3 930 931 970
3 931 971 970
3 931 932 971
3 932 972 971
3 932 933 972
3 933 934 972
3 972 934 973
3 934 935 973
3 973 935 974
3 935 975 974
3 935 936 975
3 936 976 975
3 936 937 976
3 937 977 976
3 937 938 977
3 938 978 977
3 938 939 978
3 939 979 978
3 939 940 979
3 940 941 979
3 979 941 980
3 941 942 980
3 980 942 981
3 942 943 981
3 981 943 982
3 943 944 982
3 982 944 983
3 944 984 983
3 944 945 984
3 945 985 984
3 945 946 985
3 946 986 985
3 946 947 986
3 947 948 986
3 986 948 987
3 948 949 987
3 987 949 988
3 949 950 988
3 988 950 989
3 950 952 989
3 989 952 990
3 954 991 992
3 954 953 991
3 953 993 991
3 953 955 993
3 955 994 993
3 955 956 994
3 956 995 994
3 956 957 995
3 957 958 995
3 995 958 996
3 958 997 996
3 958 959 997
3 959 998 997
3 959 960 998
3 960 999 998
3 960 961 999
3 961 1000 999
3 961 962 1000
3 962 1001 1000
3 962 963 1001
3 963 964 1001
3 1001 964 1002
3 964 965 1002
3 1002 965 1003
3 965 966 1003
3 1003 966 1004
3 966 967 1004
3 1004 967 1005
3 967 968 1005
3 1005 968 1006
3 968 969 1006
3 1006 969 1007
3 969 1008 1007
3 969 970 1008
3 970 1009 1008
3 970 971 1009
3 971 1010 1009
3 971 972 1010
3 972 973 1010
3 1010 973 1011
3 973 974 1011
3 1011 974 1012
3 974 1013 1012
3 974 975 1013
3 975 1014 1013
3 975 976 1014
3 976 1015 1014
3 976 977 1015
3 977 1016 1015
3 977 978 1016
3 978 1017 1016
3 978 979 1017
3 979 980 1017
3 1017 980 1018
3 980 981 1018
3 1018 981 1019
3 981 982 1019
3 1019 982 1020
3 982 983 1020
3 1020 983 1021
3 983 1022 1021
3 983 984 1022
3 984 1023 1022
3 984 985 1023
3 985 1024 1023
3 985 986 1024
3 986 987 1024
3 1024 987 1025
3 987 988 1025
3 1025 988 1026
3 988 989 1026
3 1026 989 1027
3 989 990 1027
3 1027 990 1028
3 990 1029 1028
3 992 991 1030
3 991 1031 1030
3 991 993 1031
3 993 1032 1031
3 993 994 1032
3 994 1033 1032
3 994 995 1033
3 995 996 1033
3 1033 996 1034
3 996 1035 1034
3 996 997 1035
3 997 1036 1035
3 997 998 1036
3 998 1037 1036
3 998 999 1037
3 999 1038 1037
3 999 1000 1038
3 1000 1039 1038
3 1000 1001 1039
3 1001 1002 1039
3 1039 1002 1040
3 1002 1003 1040
3 1040 1003 1041
3 1003 1004 1041
3 1041 1004 1042
3 1004 1005 1042
3 1042 1005 1043
3 1005 1006 1043
3 1043 1006 1044
3 1006 1007 1044
3 1044 1007 1045
3 1007 1046 1045
3 1007 1008 1046
3 1008 1047 1046
3 1008 1009 1047
3 1009 1048 1047
3 1009 1010 1048
3 1010 1011 1048
3 1048 1011 1049
3 1011 1012 1049
3 1049 1012 1050
3 1012 1051 1050
3 1012 1013 1051
3 1013 1052 1051
3 1013 1014 1052
3 1014 1015 1052
3 1052 1015 1053
3 1015 1054 1053
3 1015 1016 1054
3 1016 1055 1054
3 1016 1017 1055
3 1017 1018 1055
3 1055 1018 1056
3 1018 1019 1056
3 1056 1019 1057
3 1019 1020 1057
3 1057 1020 1058
3 1020 1021 1058
3 1058 1021 1059
3 1021 1060 1059
3 1021 1022 1060
3 1022 1061 1060
3 1022 1023 1061
3 1023 1024 1061
3 1061 1024 1062
3 1024 1025 1062
3 1062 1025 1063
3 1025 1026 1063
3 1063 1026 1064
3 1026 1027 1064
3 1064 1027 1065
3 1027 1028 1065
3 1065 1028 1066
3 1028 1067 1066
3 1066 1067 1068
3 1030 1069 1070
3 1030 1031 1069
3 1031 1071 1069
3 1031 1032 1071
3 1032 1033 1071
3 1071 1033 1072
3 1033 1034 1072
3 1072 1034 1073
3 1034 1074 1073
3 1034 1035 1074
3 1035 1075 1074
3 1035 1036 1075
3 1036 1076 1075
3 1036 1037 1076
3 1037 1077 1076
3 1037 1038 1077
3 1038 1078 1077
3 1038 1039 1078
3 1039 1040 1078
3 1078 1040 1079
3 1040 1041 1079
3 1079 1041 1080
3 1041 1042 1080
3 1080 1042 1081
3 1042 1043 1081
3 1081 1043 1082
3 1043 1044 1082
3 1082 1044 1083
3 1044 1045 1083
3 1083 1045 1084
3 1045 1085 1084
3 1045 1046 1085
3 1046 1086 1085
3 1046 1047 1086
3 1047 1087 1086
3 1047 1048 1087
3 1048 1049 1087
3 1087 1049 1088
3 1049 1050 1088
3 1088 1050 1089
3 1050 1090 1089
3 1050 1051 1090
3 1051 1091 1090
3 1051 1052 1091
3 1052 1053 1091
3 1091 1053 1092
3 1053 1093 1092
3 1053 1054 1093
3 1054 1094 1093
3 1054 1055 1094
3 1055 1056 1094
3 1094 1056 1095
3 1056 1057 1095
3 1095 1057 1096
3 1057 1058 1096
3 1096 1058 1097
3 1058 1059 1097
3 1097 1059 1098
3 1059 1060 1098
3 1098 1060 1099
3 1060 1100 1099
3 1060 1061 1100
3 1061 1062 1100
3 1100 1062 1101
3 1062 1063 1101
3 1101 1063 1102
3 1063 1064 1102
3 1102 1064 1103
3 1064 1065 1103
3 1103 1065 1104
3 1065 1066 1104
3 1104 1066 1105
3 1066 1068 1105
3 1105 1068 1106
3 1070 1069 1107
3 1069 1108 1107
3 1069 1071 1108
3 1071 1072 1108
3 1108 1072 1109
3 1072 1073 1109
3 1109 1073 1110
3 1073 1074 1110
3 1110 1074 1111
3 1074 1112 1111
3 1074 1075 1112
3 1075 1113 1112
3 1075 1076 1113
3 1076 1114 1113
3 1076 1077 1114
3 1077 1115 1114
3 1077 1078 1115
3 1078 1079 1115
3 1115 1079 1116
3 1079 1080 1116
3 1116 1080 1117
3 1080 1081 1117
3 1117 1081 1118
3 1081 1082 1118
3 1118 1082 1119
3 1082 1083 1119
3 1119 1083 1120
3 1083 1084 1120
3 1120 1084 1121
3 1084 1122 1121
3 1084 1085 1122
3 1085 1123 1122
3 1085 1086 1123
3 1086 1124 1123
3 1086 1087 1124
3 1087 1088 1124
3 1124 1088 1125
3 1088 1126 1125
3 1088 1089 1126
3 1089 1127 1126
3 1089 1090 1127
3 1090 1128 1127
3 1090 1091 1128
3 1091 1129 1128
3 1091 1092 1129
3 1092 1130 1129
3 1092 1093 1130
3 1093 1131 1130
3 1093 1094 1131
3 1094 1095 1131
3 1131 1095 1132
3 1095 1096 1132
3 1132 1096 1133
3 1096 1097 1133
3 1133 1097 1134
3 1097 1098 1134
3 1134 1098 1135
3 1098 1099 1135
3 1135 1099 1136
3 1099 1137 1136
3 1099 1100 1137
3 1100 1101 1137
3 1137 1101 1138
3 1101 1102 1138
3 1138 1102 1139
3 1102 1103 1139
3 1139 1103 1140
3 1103 1104 1140
3 1140 1104 1141
3 1104 1105 1141
3 1141 1105 1142
3 1105 1106 1142
3 1142 1106 1143
3 1144 1107 1145
3 1107 1146 1145
3 1107 1108 1146
3 1108 1147 1146
3 1108 1109 1147
3 1109 1110 1147
3 1147 1110 1148
3 1110 1149 1148
3 1110 1111 1149
3 1111 1150 1149
3 1111 1112 1150
3 1112 1151 1150
3 1112 1113 1151
3 1113 1152 1151
3 1113 1114 1152
3 1114 1153 1152
3 1114 1115 1153
3 1115 1116 1153
3 1153 1116 1154
3 1116 1117 1154
3 1154 1117 1155
3 1117 1118 1155
3 1155 1118 1156
3 1118 1157 1156
3 1118 1119 1157
3 1119 1158 1157
3 1119 1120 1158
3 1120 1159 1158
3 1120 1121 1159
3 1121 1160 1159
3 1121 1122 1160
3 1122 1161 1160
3 1122 1123 1161
3 1123 1162 1161
3 1123 1124 1162
3 1124 1163 1162
3 1124 1125 1163
3 1125 1164 1163
3 1125 1126 1164
3 1126 1165 1164
3 1126 1127 1165
3 1127 1166 1165
3 1127 1128 1166
3 1128 1167 1166
3 1128 1129 1167
3 1129 1168 1167
3 1129 1130 1168
3 1130 1169 1168
3 1130 1131 1169
3 1131 1132 1169
3 1169 1132 1170
3 1132 1133 1170
3 1170 1133 1171
3 1133 1134 1171
3 1171 1134 1172
3 1134 1135 1172
3 1172 1135 1173
3 1135 1174 1173
3 1135 1136 1174
3 1136 1175 1174
3 1136 1137 1175
3 1137 1138 1175
3 1175 1138 1176
3 1138 1139 1176
3 1176 1139 1177
3 1139 1140 1177
3 1177 1140 1178
3 1140 1141 1178
3 1178 1141 1179
3 1141 1142 1179
3 1179 1142 1180
3 1142 1143 1180
3 1180 1143 1181
3 1145 1182 1183
3 1145 1146 1182
3 1146 1184 1182
3 1146 1147 1184
3 1147 1185 1184
3 1147 1148 1185
3 1148 1186 1185
3 1148 1149 1186
3 1149 1187 1186
3 1149 1150 1187
3 1150 1188 1187
3 1150 1151 1188
3 1151 1189 1188
3 1151 1152 1189
3 1152 1190 1189
3 1152 1153 1190
3 1153 1191 1190
3 1153 1154 1191
3 1154 1155 1191
3 1191 1155 1192
3 1155 1156 1192
3 1192 1156 1193
3 1156 1194 1193
3 1156 1157 1194
3 1157 1195 1194
3 1157 1158 1195
3 1158 1196 1195
3 1158 1159 1196
3 1159 1197 1196
3 1159 1160 1197
3 1160 1198 1197
3 1160 1161 1198
3 1161 1199 1198
3 1161 1162 1199
3 1162 1163 1199
3 1199 1163 1200
3 1163 1201 1200
3 1163 1164 1201
3 1164 1202 1201
3 1164 1165 1202
3 1165 1203 1202
3 1165 1166 1203
3 1166 1204 1203
3 1166 1167 1204
3 1167 1205 1204
3 1167 1168 1205
3 1168 1206 1205
3 1168 1169 1206
3 1169 1170 1206
3 1206 1170 1207
3 1170 1171 1207
3 1207 1171 1208
3 1171 1172 1208
3 1208 1172 1209
3 1172 1173 1209
3 1209 1173 1210
3 1173 1211 1210
3 1173 1174 1211
3 1174 1212 1211
3 1174 1175 1212
3 1175 1176 1212
3 1212 1176 1213
3 1176 1177 1213
3 1213 1177 1214
3 1177 1178 1214
3 1214 1178 1215
3 1178 1179 1215
3 1215 1179 1216
3 1179 1180 1216
3 1216 1180 1217
3 1180 1181 1217
3 1217 1181 1218
3 1183 1182 1219
3 1182 1184 1219
3 1219 1184 1220
3 1184 1185 1220
3 1220 1185 1221
3 1185 1222 1221
3 1185 1186 1222
3 1186 1223 1222
3 1186 1187 1223
3 1187 1224 1223
3 1187 1188 1224
3 1188 1225 1224
3 1188 1189 1225
3 1189 1226 1225
3 1189 1190 1226
3 1190 1191 1226
3 1226 1191 1227
3 1191 1192 1227
3 1227 1192 1228
3 1192 1193 1228
3 1228 1193 1229
3 1193 1230 1229
3 1193 1194 1230
3 1194 1195 1230
3 1230 1195 1231
3 1195 1232 1231
3 1195 1196 1232
3 1196 1233 1232
3 1196 1197 1233
3 1197 1234 1233
3 1197 1198 1234
3 1198 1235 1234
3 1198 1199 1235
3 1199 1200 1235
3 1235 1200 1236
3 1200 1237 1236
3 1200 1201 1237
3 1201 1238 1237
3 1201 1202 1238
3 1202 1239 1238
3 1202 1203 1239
3 1203 1240 1239
3 1203 1204 1240
3 1204 1241 1240
3 1204 1205 1241
3 1205 1242 1241
3 1205 1206 1242
3 1206 1243 1242
3 1206 1207 1243
3 1207 1208 1243
3 1243 1208 1244
3 1208 1209 1244
3 1244 1209 1245
3 1209 1210 1245
3 1245 1210 1246
3 1210 1247 1246
3 1210 1211 1247
3 1211 1248 1247
3 1211 1212 1248
3 1212 1249 1248
3 1212 1213 1249
3 1213 1214 1249
3 1249 1214 1250
3 1214 1215 1250
3 1250 1215 1251
3 1215 1216 1251
3 1251 1216 1252
3 1216 1217 1252
3 1252 1217 1253
3 1217 1218 1253
3 1219 1220 1254
3 1254 1220 1255
3 1220 1221 1255
3 1255 1221 1256
3 1221 1257 1256
3 1221 1222 1257
3 1222 1258 1257
3 1222 1223 1258
3 1223 1259 1258
3 1223 1224 1259
3 1224 1260 1259
3 1224 1225 1260
3 1225 1261 1260
3 1225 1226 1261
3 1226 1227 1261
3 1261 1227 1262
3 1227 1228 1262
3 1262 1228 1263
3 1228 1229 1263
3 1263 1229 1264
3 1229 1265 1264
3 1229 1230 1265
3 1230 1231 1265
3 1265 1231 1266
3 1231 1232 1266
3 1266 1232 1267
3 1232 1268 1267
3 1232 1233 1268
3 1233 1269 1268
3 1233 1234 1269
3 1234 1270 1269
3 1234 1235 1270
3 1235 1236 1270
3 1270 1236 1271
3 1236 1272 1271
3 1236 1237 1272
3 1237 1273 1272
3 1237 1238 1273
3 1238 1274 1273
3 1238 1239 1274
3 1239 1275 1274
3 1239 1240 1275
3 1240 1276 1275
3 1240 1241 1276
3 1241 1277 1276
3 1241 1242 1277
3 1242 1278 1277
3 1242 1243 1278
3 1243 1244 1278
3 1278 1244 1279
3 1244 1245 1279
3 1279 1245 1280
3 1245 1246 1280
3 1280 1246 1281
3 1246 1282 1281
3 1246 1247 1282
3 1247 1283 1282
3 1247 1248 1283
3 1248 1284 1283
3 1248 1249 1284
3 1249 1250 1284
3 1284 1250 1285
3 1250 1251 1285
3 1285 1251 1286
3 1251 1252 1286
3 1286 1252 1287
3 1252 1253 1287
3 1254 1288 1289
3 1254 1255 1288
3 1255 1256 1288
3 1288 1256 1290
3 1256 1291 1290
3 1256 1257 1291
3 1257 1292 1291
3 1257 1258 1292
3 1258 1293 1292
3 1258 1259 1293
3 1259 1294 1293
3 1259 1260 1294
3 1260 1295 1294
3 1260 1261 1295
3 1261 1262 1295
3 1295 1262 1296
3 1262 1263 1296
3 1296 1263 1297
3 1263 1264 1297
3 1297 1264 1298
3 1264 1265 1298
3 1298 1265 1299
3 1265 1266 1299
3 1299 1266 1300
3 1266 1267 1300
3 1300 1267 1301
3 1267 1302 1301
3 1267 1268 1302
3 1268 1303 1302
3 1268 1269 1303
3 1269 1304 1303
3 1269 1270 1304
3 1270 1271 1304
3 1304 1271 1305
3 1271 1272 1305
3 1305 1272 1306
3 1272 1307 1306
3 1272 1273 1307
3 1273 1308 1307
3 1273 1274 1308
3 1274 1309 1308
3 1274 1275 1309
3 1275 1310 1309
3 1275 1276 1310
3 1276 1311 1310
3 1276 1277 1311
3 1277 1278 1311
3 1311 1278 1312
3 1278 1279 1312
3 1312 1279 1313
3 1279 1280 1313
3 1313 1280 1314
3 1280 1281 1314
3 1314 1281 1315
3 1281 1316 1315
3 1281 1282 1316
3 1282 1317 1316
3 1282 1283 1317
3 1283 1318 1317
3 1283 1284 1318
3 1284 1285 1318
3 1318 1285 1319
3 1285 1286 1319
3 1319 1286 1320
3 1286 1287 1320
3 1289 1288 1321
3 1288 1322 1321
3 1288 1290 1322
3 1290 1323 1322
3 1290 1291 1323
3 1291 1324 1323
3 1291 1292 1324
3 1292 1325 1324
3 1292 1293 1325
3 1293 1326 1325
3 1293 1294 1326
3 1294 1327 1326
3 1294 1295 1327
3 1295 1296 1327
3 1327 1296 1328
3 1296 1297 1328
3 1328 1297 1329
3 1297 1298 1329
3 1329 1298 1330
3 1298 1331 1330
3 1298 1299 1331
3 1299 1300 1331
3 1331 1300 1332
3 1300 1301 1332
3 1332 1301 1333
3 1301 1334 1333
3 1301 1302 1334
3 1302 1335 1334
3 1302 1303 1335
3 1303 1336 1335
3 1303 1304 1336
3 1304 1305 1336
3 1336 1305 1337
3 1305 1338 1337
3 1305 1306 1338
3 1306 1339 1338
3 1306 1307 1339
3 1307 1340 1339
3 1307 1308 1340
3 1308 1341 1340
3 1308 1309 1341
3 1309 1342 1341
3 1309 1310 1342
3 1310 1343 1342
3 1310 1311 1343
3 1311 1312 1343
3 1343 1312 1344
3 1312 1313 1344
3 1344 1313 1345
3 1313 1314 1345
3 1345 1314 1346
3 1314 1315 1346
3 1346 1315 1347
3 1315 1348 1347
3 1315 1316 1348
3 1316 1349 1348
3 1316 1317 1349
3 1317 1350 1349
3 1317 1318 1350
3 1318 1319 1350
3 1350 1319 1351
3 1319 1320 1351
3 1321 1352 1353
3 1321 1322 1352
3 1322 1354 1352
3 1322 1323 1354
3 1323 1355 1354
3 1323 1324 1355
3 1324 1356 1355
3 1324 1325 1356
3 1325 1357 1356
3 1325 1326 1357
3 1326 1358 1357
3 1326 1327 1358
3 1327 1328 1358
3 1358 1328 1359
3 1328 1329 1359
3 1359 1329 1360
3 1329 1330 1360
3 1360 1330 1361
3 1330 1362 1361
3 1330 1331 1362
3 1331 1332 1362
3 1362 1332 1363
3 1332 1333 1363
3 1363 1333 1364
3 1333 1365 1364
3 1333 1334 1365
3 1334 1366 1365
3 1334 1335 1366
3 1335 1367 1366
3 1335 1336 1367
3 1336 1337 1367
3 1367 1337 1368
3 1337 1338 1368
3 1368 1338 1369
3 1338 1370 1369
3 1338 1339 1370
3 1339 1371 1370
3 1339 1340 1371
3 1340 1372 1371
3 1340 1341 1372
3 1341 1373 1372
3 1341 1342 1373
3 1342 1374 1373
3 1342 1343 1374
3 1343 1344 1374
3 1374 1344 1375
3 1344 1345 1375
3 1375 1345 1376
3 1345 1346 1376
3 1376 1346 1377
3 1346 1347 1377
3 1377 1347 1378
3 1347 1379 1378
3 1347 1348 1379
3 1348 1380 1379
3 1348 1349 1380
3 1349 1381 1380
3 1349 1350 1381
3 1350 1351 1381
3 1353 1352 1382
3 1352 1383 1382
3 1352 1354 1383
3 1354 1384 1383
3 1354 1355 1384
3 1355 1385 1384
3 1355 1356 1385
3 1356 1386 1385
3 1356 1357 1386
3 1357 1387 1386
3 1357 1358 1387
3 1358 1359 1387
3 1387 1359 1388
3 1359 1360 1388
3 1388 1360 1389
3 1360 1361 1389
3 1389 1361 1390
3 1361 1391 1390
3 1361 1362 1391
3 1362 1363 1391
3 1391 1363 1392
3 1363 1364 1392
3 1392 1364 1393
3 1364 1394 1393
3 1364 1365 1394
3 1365 1395 1394
3 1365 1366 1395
3 1366 1396 1395
3 1366 1367 1396
3 1367 1368 1396
3 1396 1368 1397
3 1368 1369 1397
3 1397 1369 1398
3 1369 1399 1398
3 1369 1370 1399
3 1370 1400 1399
3 1370 1371 1400
3 1371 1401 1400
3 1371 1372 1401
3 1372 1402 1401
3 1372 1373 1402
3 1373 1403 1402
3 1373 1374 1403
3 1374 1375 1403
3 1403 1375 1404
3 1375 1376 1404
3 1404 1376 1405
3 1376 1377 1405
3 1405 1377 1406
3 1377 1378 1406
3 1406 1378 1407
3 1378 1408 1407
3 1378 1379 1408
3 1379 1409 1408
3 1379 1380 1409
3 1380 1410 1409
3 1380 1381 1410
3 1382 1411 1412
3 1382 1383 1411
3 1383 1413 1411
3 1383 1384 1413
3 1384 1414 1413
3 1384 1385 1414
3 1385 1415 1414
3 1385 1386 1415
3 1386 1416 1415
3 1386 1387 1416
3 1387 1388 1416
3 1416 1388 1417
3 1388 1389 1417
3 1417 1389 1418
3 1389 1390 1418
3 1418 1390 1419
3 1390 1420 1419
3 1390 1391 1420
3 1391 1392 1420
3 1420 1392 1421
3 1392 1393 1421
3 1421 1393 1422
3 1393 1423 1422
3 1393 1394 1423
3 1394 1424 1423
3 1394 1395 1424
3 1395 1425 1424
3 1395 1396 1425
3 1396 1397 1425
3 1425 1397 1426
3 1397 1427 1426
3 1397 1398 1427
3 1398 1428 1427
3 1398 1399 1428
3 1399 1429 1428
3 1399 1400 1429
3 1400 1430 1429
3 1400 1401 1430
3 1401 1431 1430
3 1401 1402 1431
3 1402 1432 1431
3 1402 1403 1432
3 1403 1404 1432
3 1432 1404 1433
3 1404 1405 1433
3 1433 1405 1434
3 1405 1406 1434
3 1434 1406 1435
3 1406 1407 1435
3 1435 1407 1436
3 1407 1437 1436
3 1407 1408 1437
3 1412 1411 1438
3 1411 1439 1438
3 1411 1413 1439
3 1413 1440 1439
3 1413 1414 1440
3 1414 1441 1440
3 1414 1415 1441
3 1415 1442 1441
3 1415 1416 1442
3 1416 1443 1442
3 1416 1417 1443
3 1417 1418 1443
3 1443 1418 1444
3 1418 1419 1444
3 1444 1419 1445
3 1419 1446 1445
3 1419 1420 1446
3 1420 1421 1446
3 1446 1421 1447
3 1421 1448 1447
3 1421 1422 1448
3 1422 1449 1448
3 1422 1423 1449
3 1423 1450 1449
3 1423 1424 1450
3 1424 1451 1450
3 1424 1425 1451
3 1425 1452 1451
3 1425 1426 1452
3 1426 1453 1452
3 1426 1427 1453
3 1427 1454 1453
3 1427 1428 1454
3 1428 1455 1454
3 1428 1429 1455
3 1429 1456 1455
3 1429 1430 1456
3 1430 1457 1456
3 1430 1431 1457
3 1431 1458 1457
3 1431 1432 1458
3 1432 1433 1458
3 1458 1433 1459
3 1433 1434 1459
3 1459 1434 1460
3 1434 1435 1460
3 1460 1435 1461
3 1435 1436 1461
3 1462 1438 1463
3 1438 1464 1463
3 1438 1439 1464
3 1439 1465 1464
3 1439 1440 1465
3 1440 1466 1465
3 1440 1441 1466
3 1441 1467 1466
3 1441 1442 1467
3 1442 1468 1467
3 1442 1443 1468
3 1443 1444 1468
3 1468 1444 1469
3 1444 1445 1469
3 1469 1445 1470
3 1445 1471 1470
3 1445 1446 1471
3 1446 1472 1471
3 1446 1447 1472
3 1447 1473 1472
3 1447 1448 1473
3 1448 1474 1473
3 1448 1449 1474
3 1449 1475 1474
3 1449 1450 1475
3 1450 1476 1475
3 1450 1451 1476
3 1451 1477 1476
3 1451 1452 1477
3 1452 1478 1477
3 1452 1453 1478
3 1453 1479 1478
3 1453 1454 1479
3 1454 1480 1479
3 1454 1455 1480
3 1455 1481 1480
3 1455 1456 1481
3 1456 1482 1481
3 1456 1457 1482
3 1457 1483 1482
3 1457 1458 1483
3 1458 1484 1483
3 1458 1459 1484
3 1459 1460 1484
3 1484 1460 1485
3 1460 1461 1485
3 1463 1486 1487
3 1463 1464 1486
3 1464 1488 1486
3 1464 1465 1488
3 1465 1489 1488
3 1465 1466 1489
3 1466 1490 1489
3 1466 1467 1490
3 1467 1468 1490
3 1490 1468 1491
3 1468 1469 1491
3 1491 1469 1492
3 1469 1470 1492
3 1492 1470 1493
3 1470 1494 1493
3 1470 1471 1494
3 1471 1472 1494
3 1494 1472 1495
3 1472 1473 1495
3 1495 1473 1496
3 1473 1497 1496
3 1473 1474 1497
3 1474 1498 1497
3 1474 1475 1498
3 1475 1499 1498
3 1475 1476 1499
3 1476 1477 1499
3 1499 1477 1500
3 1477 1478 1500
3 1500 1478 1501
3 1478 1502 1501
3 1478 1479 1502
3 1479 1503 1502
3 1479 1480 1503
3 1480 1504 1503
3 1480 1481 1504
3 1481 1505 1504
3 1481 1482 1505
3 1482 1506 1505
3 1482 1483 1506
3 1483 1484 1506
3 1506 1484 1507
3 1484 1485 1507
3 1487 1486 1508
3 1486 1509 1508
3 1486 1488 1509
3 1488 1510 1509
3 1488 1489 1510
3 1489 1511 1510
3 1489 1490 1511
3 1490 1491 1511
3 1511 1491 1512
3 1491 1492 1512
3 1512 1492 1513
3 1492 1493 1513
3 1513 1493 1514
3 1493 1515 1514
3 1493 1494 1515
3 1494 1495 1515
3 1515 1495 1516
3 1495 1496 1516
3 1516 1496 1517
3 1496 1518 1517
3 1496 1497 1518
3 1497 1519 1518
3 1497 1498 1519
3 1498 1520 1519
3 1498 1499 1520
3 1499 1500 1520
3 1520 1500 1521
3 1500 1501 1521
3 1521 1501 1522
3 1501 1523 1522
3 1501 1502 1523
3 1502 1524 1523
3 1502 1503 1524
3 1503 1525 1524
3 1503 1504 1525
3 1504 1526 1525
3 1504 1505 1526
3 1505 1527 1526
3 1505 1506 1527
3 1508 1528 1529
3 1508 1509 1528
3 1509 1530 1528
3 1509 1510 1530
3 1510 1531 1530
3 1510 1511 1531
3 1511 1512 1531
3 1531 1512 1532
3 1512 1513 1532
3 1532 1513 1533
3 1513 1514 1533
3 1533 1514 1534
3 1514 1535 1534
3 1514 1515 1535
3 1515 1516 1535
3 1535 1516 1536
3 1516 1517 1536
3 1536 1517 1537
3 1517 1538 1537
3 1517 1518 1538
3 1518 1539 1538
3 1518 1519 1539
3 1519 1540 1539
3 1519 1520 1540
3 1520 1521 1540
3 1540 1521 1541
3 1521 1522 1541
3 1541 1522 1542
3 1522 1543 1542
3 1522 1523 1543
3 1523 1544 1543
3 1523 1524 1544
3 1524 1545 1544
3 1524 1525 1545
3 1529 1546 1547
3 1529 1528 1546
3 1528 1548 1546
3 1528 1530 1548
3 1530 1549 1548
3 1530 1531 1549
3 1531 1532 1549
3 1549 1532 1550
3 1532 1533 1550
3 1550 1533 1551
3 1533 1534 1551
3 1551 1534 1552
3 1534 1553 1552
3 1534 1535 1553
3 1535 1536 1553
3 1553 1536 1554
3 1536 1537 1554
3 1554 1537 1555
3 1537 1556 1555
3 1537 1538 1556
3 1538 1557 1556
3 1538 1539 1557
3 1539 1558 1557
3 1539 1540 1558
3 1540 1559 1558
3 1540 1541 1559
3 1541 1560 1559
3 1541 1542 1560
3 1542 1561 1560
3 1542 1543 1561
3 1547 1546 1562
3 1546 1563 1562
3 1546 1548 1563
3 1548 1564 1563
3 1548 1549 1564
3 1549 1565 1564
3 1549 1550 1565
3 1550 1551 1565
3 1565 1551 1566
3 1551 1552 1566
3 1566 1552 1567
3 1552 1568 1567
3 1552 1553 1568
3 1553 1569 1568
3 1553 1554 1569
3 1554 1570 1569
3 1554 1555 1570
3 1555 1571 1570
3 1555 1556 1571
3 1556 1572 1571
3 1556 1557 1572
3 1557 1573 1572
3 1557 1558 1573
3 1558 1574 1573
3 1558 1559 1574
3 1562 1575 1576
3 1562 1563 1575
3 1563 1577 1575
3 1563 1564 1577
3 1564 1565 1577
3 1577 1565 1578
3 1565 1566 1578
3 1578 1566 1579
3 1566 1567 1579
3 1579 1567 1580
3 1567 1581 1580
3 1567 1568 1581
3 1568 1582 1581
3 1568 1569 1582
3 1569 1583 1582
3 1569 1570 1583
3 1570 1584 1583
3 1570 1571 1584
3 1571 1585 1584
3 1571 1572 1585
3 1572 1586 1585
3 1572 1573 1586
3 1576 1575 1587
3 1575 1588 1587
3 1575 1577 1588
3 1577 1578 1588
3 1588 1578 1589
3 1578 1579 1589
3 1589 1579 1590
3 1579 1580 1590
3 1590 1580 1591
3 1580 1592 1591
3 1580 1581 1592
3 1581 1593 1592
3 1581 1582 1593
3 1582 1594 1593
3 1582 1583 1594
3 1587 1595 1596
3 1587 1588 1595
3 1588 1589 1595
3 1595 1589 1597
3 1589 1590 1597
3 1597 1590 1598
3 1590 1591 1598
3 1598 1591 1599
3 1591 1600 1599
3 1591 1592 1600
3 1592 1593 1600
3 1596 1601 1602
3 1596 1595 1601
3 1595 1597 1601
3 1601 1597 1603
3 1597 1598 1603
3 1603 1598 1604
3 1598 1599 1604
3 1602 1601 1605
3 1601 1603 1605
3 1605 1603 1606
3 1603 1604 1606
3 1605 1606 1607
3 1218 1181 1608
3 1181 1609 1608
3 1181 1143 1609
3 1143 1610 1609
3 1143 1106 1610
CELL_DATA 3041
SCALARS brightness_temperature float
LOOKUP_TABLE default
POINT_DATA 1611
CELL_DATA 3041
SCALARS emission_angle float
LOOKUP_TABLE default
POINT_DATA 1611
CELL_DATA 3041
SCALARS incidence_angle float
LOOKUP_TABLE default
POINT_DATA 1611
CELL_DATA 3041
SCALARS phase_angle float
LOOKUP_TABLE default
POINT_DATA 1611
CELL_DATA 3041
SCALARS local_solar_time float
LOOKUP_TABLE default
POINT_DATA 1611
CELL_DATA 3041
SCALARS local_solar_time_normal_vector float
LOOKUP_TABLE default
CELL_DATA 3041
SCALARS pixel_x float
LOOKUP_TABLE default
POINT_DATA 1611
CELL_DATA 3041
SCALARS pixel_y float
LOOKUP_TABLE default
POINT_DATA 1611
CELL_DATA 3041
SCALARS longitude float
LOOKUP_TABLE default
POINT_DATA 1611
CELL_DATA 3041
SCALARS latitude float
LOOKUP_TABLE default
