# vtk DataFile Version 3.0
SHAPE_sfm_50k_v20200323
ASCII
DATASET POLYDATA
POINTS 515 float
0.08311 0.32943 0.24352
0.08115 0.33015 0.24093
0.08084 0.32909 0.24373
0.08342 0.33062 0.24078
0.08128 0.33131 0.23814
0.07888 0.32973 0.24129
0.07861 0.32854 0.24403
0.07898 0.33092 0.23851
0.07917 0.33242 0.23589
0.0815 0.33277 0.23549
0.07919 0.33444 0.23364
0.08151 0.33476 0.23319
0.08083 0.33698 0.23127
0.07852 0.33657 0.23163
0.07803 0.33863 0.2295
0.08035 0.33922 0.22932
0.07813 0.34081 0.22743
0.08049 0.34141 0.22723
0.07854 0.34294 0.22532
0.08088 0.34293 0.22463
0.07874 0.34436 0.22266
0.07659 0.32939 0.24157
0.07633 0.32818 0.24432
0.07667 0.33077 0.23888
0.07685 0.33244 0.23636
0.0769 0.33459 0.23423
0.07616 0.33631 0.23187
0.07569 0.3381 0.22949
0.07577 0.34029 0.22742
0.07613 0.34257 0.22548
0.07634 0.34446 0.22313
0.07655 0.34557 0.22033
0.07896 0.34562 0.21993
0.07728 0.34702 0.21778
0.07971 0.34707 0.2174
0.0783 0.34864 0.21548
0.07426 0.32944 0.24167
0.074 0.32815 0.24439
0.07434 0.33091 0.23901
0.07455 0.33276 0.23662
0.07454 0.33487 0.23445
0.07379 0.33622 0.23183
0.07328 0.33801 0.22944
0.07336 0.34019 0.22734
0.07371 0.34242 0.22534
0.07386 0.34444 0.22307
0.07412 0.3454 0.22016
0.07482 0.34691 0.21763
0.07583 0.34867 0.21541
0.07839 0.35044 0.21307
0.07592 0.3504 0.21294
0.07833 0.35224 0.21065
0.07584 0.35229 0.21059
0.0763 0.3545 0.20857
0.07404 0.32695 0.24718
0.07167 0.32828 0.24452
0.07173 0.32726 0.24738
0.07193 0.32953 0.24177
0.07201 0.3309 0.23905
0.07221 0.33263 0.23655
0.07218 0.33452 0.2342
0.0714 0.33618 0.2318
0.07088 0.3381 0.22952
0.07094 0.34018 0.22733
0.07132 0.3421 0.22502
0.07149 0.34393 0.22263
0.07164 0.34551 0.22007
0.07234 0.34694 0.21749
0.07337 0.34854 0.21516
0.07345 0.35033 0.21272
0.07336 0.35236 0.21048
0.07381 0.35455 0.20845
0.07461 0.35707 0.20696
0.07713 0.35687 0.20691
0.07737 0.35925 0.20505
0.07483 0.35942 0.20503
0.07744 0.36102 0.20259
0.07491 0.36122 0.20259
0.06947 0.32779 0.24751
0.06937 0.32869 0.24461
0.0696 0.3298 0.24178
0.06965 0.33107 0.23901
0.06985 0.33272 0.23646
0.06981 0.33462 0.23409
0.06901 0.33638 0.23176
0.06849 0.33831 0.2295
0.06854 0.34016 0.22711
0.06892 0.34189 0.22466
0.06907 0.34377 0.22229
0.06918 0.34584 0.22007
0.06989 0.34737 0.21754
0.07089 0.34864 0.21499
0.07097 0.35042 0.21252
0.07089 0.35239 0.21021
0.07134 0.35454 0.20812
0.07212 0.35703 0.20656
0.07234 0.35927 0.20453
0.07246 0.36089 0.20193
0.06728 0.32854 0.24762
0.06716 0.32946 0.24472
0.06735 0.3305 0.24187
0.06736 0.3317 0.23907
0.06752 0.33323 0.23644
0.06746 0.33498 0.23396
0.06667 0.33686 0.23173
0.06611 0.33866 0.22937
0.06614 0.34033 0.22684
0.0665 0.34206 0.22438
0.06665 0.34382 0.22192
0.06681 0.34549 0.21939
0.06745 0.34742 0.21714
0.06847 0.34919 0.21495
0.06851 0.35063 0.21226
0.06842 0.35249 0.20985
0.06886 0.35457 0.20767
0.06968 0.35691 0.2059
0.06988 0.35932 0.20405
0.06995 0.361 0.20147
0.06515 0.3294 0.24779
0.06505 0.33041 0.24493
0.0652 0.33139 0.24205
0.0652 0.33262 0.23926
0.06532 0.33407 0.23659
0.06518 0.33568 0.23402
0.06435 0.33748 0.23173
0.06378 0.33922 0.22933
0.06376 0.34073 0.2267
0.0641 0.34216 0.22405
0.06428 0.34352 0.22132
0.06438 0.34544 0.21893
0.065 0.3477 0.21698
0.06602 0.34969 0.21491
0.06606 0.35089 0.21207
0.06593 0.35275 0.20964
0.06636 0.35488 0.20752
0.06718 0.35707 0.20558
0.0674 0.35934 0.20358
0.063 0.33021 0.248
0.06294 0.33132 0.24518
0.06311 0.33239 0.24233
0.06311 0.33364 0.23956
0.06317 0.33501 0.23684
0.063 0.33661 0.23427
0.0621 0.33826 0.23191
0.06146 0.33984 0.22941
0.06137 0.3411 0.22666
0.06167 0.34227 0.22387
0.06182 0.34349 0.22105
0.06193 0.34542 0.21865
0.06255 0.34766 0.21667
0.06358 0.34933 0.21438
0.06359 0.35113 0.21192
0.06346 0.35312 0.20963
0.06388 0.35528 0.20754
0.06469 0.35743 0.20555
0.06491 0.35968 0.20353
0.06087 0.33102 0.24832
0.06082 0.33218 0.24552
0.061 0.33326 0.24268
0.06104 0.33464 0.23996
0.06121 0.33622 0.23736
0.06086 0.33753 0.23465
0.05989 0.33908 0.23224
0.05913 0.34037 0.22961
0.05899 0.34156 0.22682
0.05924 0.34256 0.22396
0.05935 0.34367 0.22109
0.05944 0.34543 0.21854
0.06008 0.34757 0.21646
0.06108 0.34935 0.21423
0.06111 0.35143 0.21202
0.061 0.35349 0.2098
0.06139 0.35558 0.20764
0.0622 0.35777 0.20568
0.06247 0.36021 0.20388
0.05869 0.33292 0.24604
0.05875 0.33176 0.24884
0.05885 0.33398 0.24319
0.0589 0.33537 0.24047
0.05921 0.33729 0.23808
0.05866 0.33816 0.23518
0.05759 0.33947 0.23266
0.05683 0.34087 0.23007
0.0567 0.34216 0.22734
0.05689 0.34308 0.22445
0.05693 0.34405 0.22154
0.05699 0.34571 0.21893
0.0576 0.34769 0.21667
0.05866 0.34976 0.21473
0.05874 0.35195 0.21262
0.05854 0.35378 0.2102
0.05892 0.35587 0.20802
0.05973 0.35808 0.20609
0.06001 0.36053 0.20431
0.05848 0.33012 0.25138
0.05652 0.33218 0.24925
0.05653 0.33357 0.24654
0.05667 0.33457 0.24367
0.05672 0.33599 0.24098
0.05689 0.33772 0.23847
0.05639 0.33857 0.23557
0.05528 0.33991 0.23308
0.05455 0.3414 0.23053
0.0544 0.3427 0.22779
0.05466 0.34388 0.22501
0.0547 0.34498 0.22217
0.05462 0.34634 0.21942
0.0552 0.34824 0.21706
0.05625 0.35026 0.21505
0.05636 0.35251 0.21303
0.05616 0.35443 0.21068
0.05655 0.35652 0.20851
0.0573 0.35863 0.20645
0.05755 0.36103 0.20461
0.05621 0.33032 0.25164
0.05421 0.33212 0.24934
0.05395 0.33056 0.25193
0.05422 0.3336 0.2467
0.0544 0.33493 0.24398
0.05443 0.33626 0.24125
0.05452 0.3377 0.23857
0.05413 0.33915 0.23595
0.05301 0.34049 0.23347
0.0522 0.34171 0.23081
0.05206 0.34313 0.22812
0.05251 0.3449 0.22565
0.05282 0.34642 0.22301
0.05248 0.3474 0.2201
0.05289 0.34905 0.21753
0.05402 0.35118 0.21566
0.05409 0.35337 0.21354
0.05387 0.3553 0.2112
0.05422 0.35734 0.20898
0.05491 0.35933 0.20679
0.0519 0.33221 0.24948
0.05166 0.33058 0.25203
0.0519 0.33352 0.24674
0.05208 0.33502 0.24411
0.05212 0.33653 0.24147
0.05219 0.3379 0.23876
0.05178 0.3394 0.23615
0.05069 0.34089 0.23375
0.04982 0.34201 0.23106
0.04967 0.34341 0.22834
0.05009 0.34518 0.22585
0.05044 0.34703 0.22345
0.05035 0.34842 0.22073
0.05071 0.35003 0.21818
0.05167 0.35189 0.21599
0.05181 0.35421 0.21403
0.05179 0.35646 0.21199
0.05194 0.35822 0.20952
0.05251 0.36002 0.20713
0.04962 0.3324 0.24982
0.04937 0.33069 0.2523
0.04959 0.3337 0.24707
0.04977 0.3352 0.24443
0.04983 0.33684 0.24187
0.04988 0.33817 0.23914
0.04945 0.33963 0.23652
0.04835 0.34116 0.23414
0.04752 0.34254 0.23157
0.04732 0.34389 0.22884
0.04766 0.34538 0.22618
0.04798 0.34719 0.22374
0.04804 0.34903 0.22132
0.0485 0.35082 0.21891
0.04933 0.35248 0.21652
0.04952 0.35492 0.2147
0.04958 0.35736 0.21285
0.04967 0.35898 0.21024
0.05018 0.36075 0.20782
0.04735 0.33259 0.25016
0.04711 0.33093 0.25268
0.04735 0.33413 0.24756
0.04753 0.33564 0.24493
0.04754 0.33709 0.24226
0.04759 0.33849 0.23957
0.04716 0.34003 0.237
0.04606 0.3416 0.23465
0.04531 0.34326 0.23222
0.04512 0.34469 0.22955
0.04538 0.34606 0.22682
0.04565 0.34775 0.22429
0.04575 0.34969 0.22195
0.04619 0.35146 0.21953
0.04697 0.35304 0.21706
0.04706 0.35528 0.215
0.04699 0.35743 0.21284
0.04741 0.35978 0.21098
0.04796 0.36162 0.20864
0.04508 0.33286 0.2505
0.04486 0.33127 0.25308
0.04512 0.33456 0.24799
0.04531 0.33617 0.24542
0.04527 0.33754 0.24272
0.04528 0.33885 0.23998
0.04485 0.34038 0.23739
0.04376 0.34209 0.23511
0.04315 0.34407 0.23288
0.04304 0.34569 0.23032
0.04321 0.34697 0.22757
0.0434 0.34854 0.22495
0.04347 0.3504 0.22254
0.0439 0.35218 0.22011
0.04471 0.35384 0.21771
0.04467 0.35586 0.21543
0.04462 0.35814 0.21338
0.04512 0.36056 0.21161
0.04576 0.36255 0.20943
0.04283 0.33325 0.25088
0.0426 0.33165 0.25346
0.04285 0.33492 0.24832
0.04311 0.33676 0.24592
0.04315 0.33834 0.24333
0.04312 0.33962 0.24058
0.0426 0.34099 0.23791
0.04149 0.3427 0.23562
0.04095 0.34483 0.23347
0.04124 0.34701 0.23132
0.04146 0.34837 0.22859
0.04141 0.34968 0.22584
0.04123 0.35119 0.2232
0.04159 0.35285 0.22067
0.04245 0.35462 0.21834
0.04257 0.3569 0.21632
0.04254 0.3592 0.21434
0.04285 0.36138 0.21226
0.04352 0.36346 0.21015
0.04064 0.33375 0.25145
0.04054 0.33242 0.25419
0.04065 0.33539 0.24886
0.04095 0.33732 0.24652
0.04111 0.33918 0.24413
0.04103 0.34042 0.24136
0.04047 0.34175 0.23869
0.03938 0.34352 0.23644
0.03878 0.34556 0.23422
0.03905 0.34773 0.23207
0.03953 0.3495 0.22961
0.03937 0.35066 0.22677
0.03901 0.35188 0.22399
0.03935 0.35353 0.22145
0.04015 0.35521 0.21904
0.0403 0.35754 0.21708
0.0402 0.35973 0.21496
0.04054 0.36199 0.21297
0.04141 0.36432 0.21121
0.03848 0.33429 0.25195
0.03844 0.33314 0.25479
0.03843 0.33582 0.2493
0.03873 0.3378 0.24698
0.03914 0.34019 0.24504
0.03918 0.34157 0.24227
0.03849 0.34274 0.23954
0.03745 0.3446 0.23737
0.03672 0.34644 0.23506
0.03679 0.34834 0.23267
0.0372 0.35001 0.23017
0.0371 0.35132 0.22743
0.03681 0.35271 0.22473
0.03709 0.35429 0.22213
0.03792 0.35602 0.21976
0.03797 0.3582 0.21764
0.03789 0.36043 0.21557
0.03818 0.36261 0.21347
0.03912 0.36508 0.21192
0.03614 0.33326 0.25475
0.03624 0.33469 0.25206
0.03619 0.33628 0.24944
0.03647 0.33828 0.24714
0.03678 0.34054 0.2451
0.03699 0.34236 0.24265
0.03643 0.34376 0.24001
0.03532 0.34556 0.23783
0.0346 0.34743 0.23555
0.03465 0.34933 0.23317
0.03501 0.35096 0.23061
0.03497 0.35241 0.22794
0.03465 0.35379 0.22522
0.03497 0.35545 0.22267
0.0357 0.35705 0.22019
0.03579 0.35929 0.21811
0.03562 0.3614 0.21592
0.03587 0.36352 0.21374
0.03676 0.36602 0.21219
0.0357 0.33157 0.25724
0.03386 0.33317 0.2545
0.03346 0.33124 0.25684
0.03395 0.33493 0.25201
0.03391 0.33665 0.24948
0.03418 0.33863 0.24715
0.03445 0.3408 0.24501
0.03467 0.34282 0.24272
0.03416 0.34439 0.24015
0.03299 0.34602 0.23785
0.03229 0.34801 0.23566
0.03238 0.35013 0.23346
0.03275 0.35182 0.23093
0.03272 0.35331 0.22827
0.03256 0.355 0.22572
0.03303 0.35684 0.22332
0.03364 0.35832 0.22073
0.03359 0.36038 0.21847
0.03334 0.36235 0.21616
0.03353 0.36436 0.21388
0.03428 0.36639 0.21173
0.03157 0.33304 0.25432
0.03117 0.33106 0.25664
0.03166 0.33522 0.25217
0.03163 0.33695 0.24965
0.03186 0.33876 0.24717
0.03212 0.3409 0.24498
0.03232 0.34285 0.24265
0.0318 0.34456 0.24017
0.03061 0.34612 0.23782
0.0299 0.34813 0.23562
0.02996 0.35032 0.23349
0.03045 0.35254 0.2314
0.03047 0.35412 0.22876
0.03056 0.35621 0.22653
0.03127 0.3583 0.22438
0.03173 0.35964 0.22164
0.03148 0.36148 0.2192
0.03102 0.36311 0.21665
0.03105 0.3647 0.21405
0.03177 0.36641 0.21162
0.02928 0.33296 0.25429
0.02888 0.33107 0.25668
0.02935 0.33524 0.25221
0.02933 0.33704 0.24973
0.02956 0.33894 0.24733
0.02978 0.34088 0.24497
0.02997 0.34273 0.24254
0.02944 0.34445 0.24007
0.02823 0.34611 0.23778
0.0275 0.34827 0.23572
0.02756 0.35048 0.23359
0.028 0.35259 0.23141
0.02806 0.35441 0.22893
0.02818 0.35672 0.2269
0.02892 0.35911 0.22505
0.02966 0.36076 0.22254
0.02918 0.36217 0.21983
0.02867 0.3637 0.21722
0.02865 0.36521 0.21457
0.02699 0.33294 0.25419
0.0266 0.3311 0.25661
0.02708 0.33496 0.25188
0.02706 0.33686 0.24946
0.02725 0.33889 0.24717
0.02747 0.34076 0.24475
0.02763 0.34271 0.24239
0.02708 0.3445 0.23995
0.02587 0.3465 0.23796
0.02513 0.34847 0.23574
0.02516 0.35059 0.23352
0.02558 0.35262 0.23125
0.02565 0.35471 0.229
0.0258 0.35727 0.22725
0.02639 0.35908 0.22482
0.02718 0.36123 0.22276
0.02678 0.36276 0.2201
0.02627 0.36427 0.21748
0.02623 0.36579 0.21483
0.02469 0.33305 0.2542
0.02431 0.33104 0.25647
0.02478 0.33482 0.25168
0.02474 0.33669 0.24925
0.02495 0.33865 0.24688
0.02515 0.34063 0.24454
0.0253 0.34254 0.24215
0.02472 0.34457 0.23991
0.0235 0.34647 0.23784
0.02274 0.34851 0.23568
0.02276 0.35054 0.23338
0.02318 0.35246 0.231
0.02324 0.35479 0.22897
0.0233 0.35742 0.22729
0.02392 0.35929 0.22491
0.02468 0.36109 0.22255
0.0243 0.36279 0.22002
0.02379 0.36442 0.21747
0.02379 0.3663 0.21506
0.02241 0.33291 0.25419
0.02202 0.3309 0.25647
0.02247 0.33481 0.25179
0.02243 0.33666 0.24934
0.02262 0.3385 0.24689
0.02281 0.3405 0.24457
0.02295 0.34239 0.24216
0.02236 0.34433 0.23985
0.02113 0.34623 0.23779
0.02036 0.34826 0.23564
0.02038 0.35018 0.23326
0.02079 0.3521 0.23086
0.02084 0.35438 0.22877
0.02094 0.35672 0.22681
0.02149 0.3589 0.22475
0.02223 0.36075 0.22244
0.02185 0.36241 0.21989
0.02132 0.36423 0.21747
0.0213 0.36658 0.21546
0.02032 0.33832 0.2471
0.02049 0.34029 0.24476
0.02061 0.34221 0.24239
0.01999 0.34405 0.24002
0.01838 0.35168 0.23097
0.01845 0.35381 0.22874
0.01856 0.35603 0.22665
0.01912 0.35815 0.22456
0.01984 0.36009 0.22234
0.01942 0.36176 0.21979
0.01885 0.36379 0.21754
0.01882 0.36597 0.21544
POLYGONS 936 3744
3 0 1 2
3 0 3 1
3 3 4 1
3 2 5 6
3 2 1 5
3 1 7 5
3 1 4 7
3 4 8 7
3 4 9 8
3 9 10 8
3 9 11 10
3 11 12 10
3 10 12 13
3 12 14 13
3 12 15 14
3 15 16 14
3 15 17 16
3 17 18 16
3 17 19 18
3 19 20 18
3 6 21 22
3 6 5 21
3 5 23 21
3 5 7 23
3 7 24 23
3 7 8 24
3 8 25 24
3 8 10 25
3 10 13 25
3 25 13 26
3 13 14 26
3 26 14 27
3 14 28 27
3 14 16 28
3 16 29 28
3 16 18 29
3 18 30 29
3 18 20 30
3 20 31 30
3 20 32 31
3 32 33 31
3 32 34 33
3 34 35 33
3 22 36 37
3 22 21 36
3 21 38 36
3 21 23 38
3 23 39 38
3 23 24 39
3 24 25 39
3 39 25 40
3 25 26 40
3 40 26 41
3 26 27 41
3 41 27 42
3 27 28 42
3 42 28 43
3 28 44 43
3 28 29 44
3 29 45 44
3 29 30 45
3 30 46 45
3 30 31 46
3 31 47 46
3 31 33 47
3 33 48 47
3 33 35 48
3 35 49 48
3 48 49 50
3 49 51 50
3 50 51 52
3 51 53 52
3 54 55 56
3 54 37 55
3 37 57 55
3 37 36 57
3 36 58 57
3 36 38 58
3 38 59 58
3 38 39 59
3 39 40 59
3 59 40 60
3 40 41 60
3 60 41 61
3 41 42 61
3 61 42 62
3 42 43 62
3 62 43 63
3 43 64 63
3 43 44 64
3 44 45 64
3 64 45 65
3 45 66 65
3 45 46 66
3 46 67 66
3 46 47 67
3 47 68 67
3 47 48 68
3 48 50 68
3 68 50 69
3 50 52 69
3 69 52 70
3 52 71 70
3 52 53 71
3 53 72 71
3 53 73 72
3 73 74 72
3 72 74 75
3 74 76 75
3 75 76 77
3 56 55 78
3 78 55 79
3 55 80 79
3 55 57 80
3 57 58 80
3 80 58 81
3 58 82 81
3 58 59 82
3 59 60 82
3 82 60 83
3 60 61 83
3 83 61 84
3 61 62 84
3 84 62 85
3 62 63 85
3 85 63 86
3 63 87 86
3 63 64 87
3 64 65 87
3 87 65 88
3 65 66 88
3 88 66 89
3 66 90 89
3 66 67 90
3 67 91 90
3 67 68 91
3 68 69 91
3 91 69 92
3 69 70 92
3 92 70 93
3 70 71 93
3 93 71 94
3 71 95 94
3 71 72 95
3 72 75 95
3 95 75 96
3 75 77 96
3 96 77 97
3 78 79 98
3 98 79 99
3 79 80 99
3 99 80 100
3 80 81 100
3 100 81 101
3 81 82 101
3 101 82 102
3 82 83 102
3 102 83 103
3 83 84 103
3 103 84 104
3 84 85 104
3 104 85 105
3 85 86 105
3 105 86 106
3 86 87 106
3 106 87 107
3 87 88 107
3 107 88 108
3 88 89 108
3 108 89 109
3 89 110 109
3 89 90 110
3 90 111 110
3 90 91 111
3 91 92 111
3 111 92 112
3 92 93 112
3 112 93 113
3 93 94 113
3 113 94 114
3 94 115 114
3 94 95 115
3 95 96 115
3 115 96 116
3 96 97 116
3 116 97 117
3 98 99 118
3 118 99 119
3 99 100 119
3 119 100 120
3 100 101 120
3 120 101 121
3 101 102 121
3 121 102 122
3 102 103 122
3 122 103 123
3 103 104 123
3 123 104 124
3 104 105 124
3 124 105 125
3 105 106 125
3 125 106 126
3 106 107 126
3 126 107 127
3 107 108 127
3 127 108 128
3 108 109 128
3 128 109 129
3 109 130 129
3 109 110 130
3 110 131 130
3 110 111 131
3 111 112 131
3 131 112 132
3 112 113 132
3 132 113 133
3 113 114 133
3 133 114 134
3 114 135 134
3 114 115 135
3 115 116 135
3 135 116 136
3 116 117 136
3 118 119 137
3 137 119 138
3 119 120 138
3 138 120 139
3 120 121 139
3 139 121 140
3 121 122 140
3 140 122 141
3 122 123 141
3 141 123 142
3 123 124 142
3 142 124 143
3 124 125 143
3 143 125 144
3 125 126 144
3 144 126 145
3 126 146 145
3 126 127 146
3 127 128 146
3 146 128 147
3 128 129 147
3 147 129 148
3 129 149 148
3 129 130 149
3 130 150 149
3 130 131 150
3 131 132 150
3 150 132 151
3 132 133 151
3 151 133 152
3 133 153 152
3 133 134 153
3 134 154 153
3 134 135 154
3 135 136 154
3 154 136 155
3 137 138 156
3 156 138 157
3 138 139 157
3 157 139 158
3 139 140 158
3 158 140 159
3 140 141 159
3 159 141 160
3 141 142 160
3 160 142 161
3 142 143 161
3 161 143 162
3 143 144 162
3 162 144 163
3 144 145 163
3 163 145 164
3 145 165 164
3 145 146 165
3 146 166 165
3 146 147 166
3 147 148 166
3 166 148 167
3 148 168 167
3 148 149 168
3 149 169 168
3 149 150 169
3 150 151 169
3 169 151 170
3 151 152 170
3 170 152 171
3 152 172 171
3 152 153 172
3 153 173 172
3 153 154 173
3 154 174 173
3 154 155 174
3 156 175 176
3 156 157 175
3 157 177 175
3 157 158 177
3 158 178 177
3 158 159 178
3 159 179 178
3 159 160 179
3 160 161 179
3 179 161 180
3 161 162 180
3 180 162 181
3 162 163 181
3 181 163 182
3 163 183 182
3 163 164 183
3 164 184 183
3 164 165 184
3 165 185 184
3 165 166 185
3 166 186 185
3 166 167 186
3 167 187 186
3 167 168 187
3 168 188 187
3 168 169 188
3 169 189 188
3 169 170 189
3 170 190 189
3 170 171 190
3 171 191 190
3 171 172 191
3 172 192 191
3 172 173 192
3 173 193 192
3 173 174 193
3 194 176 195
3 176 196 195
3 176 175 196
3 175 197 196
3 175 177 197
3 177 198 197
3 177 178 198
3 178 199 198
3 178 179 199
3 179 180 199
3 199 180 200
3 180 181 200
3 200 181 201
3 181 182 201
3 201 182 202
3 182 203 202
3 182 183 203
3 183 204 203
3 183 184 204
3 184 205 204
3 184 185 205
3 185 206 205
3 185 186 206
3 186 207 206
3 186 187 207
3 187 208 207
3 187 188 208
3 188 209 208
3 188 189 209
3 189 190 209
3 209 190 210
3 190 211 210
3 190 191 211
3 191 212 211
3 191 192 212
3 192 213 212
3 192 193 213
3 214 215 216
3 214 195 215
3 195 217 215
3 195 196 217
3 196 218 217
3 196 197 218
3 197 219 218
3 197 198 219
3 198 220 219
3 198 199 220
3 199 200 220
3 220 200 221
3 200 201 221
3 221 201 222
3 201 202 222
3 222 202 223
3 202 203 223
3 223 203 224
3 203 225 224
3 203 204 225
3 204 226 225
3 204 205 226
3 205 206 226
3 226 206 227
3 206 228 227
3 206 207 228
3 207 229 228
3 207 208 229
3 208 209 229
3 229 209 230
3 209 210 230
3 230 210 231
3 210 232 231
3 210 211 232
3 211 233 232
3 211 212 233
3 212 213 233
3 216 234 235
3 216 215 234
3 215 236 234
3 215 217 236
3 217 237 236
3 217 218 237
3 218 238 237
3 218 219 238
3 219 239 238
3 219 220 239
3 220 221 239
3 239 221 240
3 221 222 240
3 240 222 241
3 222 223 241
3 241 223 242
3 223 224 242
3 242 224 243
3 224 244 243
3 224 225 244
3 225 245 244
3 225 226 245
3 226 227 245
3 245 227 246
3 227 247 246
3 227 228 247
3 228 248 247
3 228 229 248
3 229 230 248
3 248 230 249
3 230 231 249
3 249 231 250
3 231 251 250
3 231 232 251
3 232 252 251
3 232 233 252
3 235 253 254
3 235 234 253
3 234 255 253
3 234 236 255
3 236 256 255
3 236 237 256
3 237 257 256
3 237 238 257
3 238 258 257
3 238 239 258
3 239 240 258
3 258 240 259
3 240 241 259
3 259 241 260
3 241 242 260
3 260 242 261
3 242 262 261
3 242 243 262
3 243 263 262
3 243 244 263
3 244 264 263
3 244 245 264
3 245 265 264
3 245 246 265
3 246 266 265
3 246 247 266
3 247 267 266
3 247 248 267
3 248 268 267
3 248 249 268
3 249 269 268
3 249 250 269
3 250 270 269
3 250 251 270
3 251 271 270
3 251 252 271
3 254 272 273
3 254 253 272
3 253 274 272
3 253 255 274
3 255 275 274
3 255 256 275
3 256 276 275
3 256 257 276
3 257 277 276
3 257 258 277
3 258 259 277
3 277 259 278
3 259 260 278
3 278 260 279
3 260 261 279
3 279 261 280
3 261 281 280
3 261 262 281
3 262 282 281
3 262 263 282
3 263 283 282
3 263 264 283
3 264 284 283
3 264 265 284
3 265 285 284
3 265 266 285
3 266 286 285
3 266 267 286
3 267 287 286
3 267 268 287
3 268 269 287
3 287 269 288
3 269 289 288
3 269 270 289
3 270 290 289
3 270 271 290
3 273 291 292
3 273 272 291
3 272 293 291
3 272 274 293
3 274 294 293
3 274 275 294
3 275 295 294
3 275 276 295
3 276 296 295
3 276 277 296
3 277 278 296
3 296 278 297
3 278 279 297
3 297 279 298
3 279 280 298
3 298 280 299
3 280 281 299
3 299 281 300
3 281 301 300
3 281 282 301
3 282 302 301
3 282 283 302
3 283 303 302
3 283 284 303
3 284 304 303
3 284 285 304
3 285 305 304
3 285 286 305
3 286 306 305
3 286 287 306
3 287 288 306
3 306 288 307
3 288 308 307
3 288 289 308
3 289 309 308
3 289 290 309
3 292 310 311
3 292 291 310
3 291 312 310
3 291 293 312
3 293 313 312
3 293 294 313
3 294 314 313
3 294 295 314
3 295 315 314
3 295 296 315
3 296 297 315
3 315 297 316
3 297 298 316
3 316 298 317
3 298 299 317
3 317 299 318
3 299 319 318
3 299 300 319
3 300 320 319
3 300 301 320
3 301 321 320
3 301 302 321
3 302 322 321
3 302 303 322
3 303 323 322
3 303 304 323
3 304 324 323
3 304 305 324
3 305 325 324
3 305 306 325
3 306 326 325
3 306 307 326
3 307 327 326
3 307 308 327
3 308 328 327
3 308 309 328
3 311 329 330
3 311 310 329
3 310 331 329
3 310 312 331
3 312 332 331
3 312 313 332
3 313 333 332
3 313 314 333
3 314 334 333
3 314 315 334
3 315 316 334
3 334 316 335
3 316 317 335
3 335 317 336
3 317 318 336
3 336 318 337
3 318 338 337
3 318 319 338
3 319 339 338
3 319 320 339
3 320 340 339
3 320 321 340
3 321 341 340
3 321 322 341
3 322 342 341
3 322 323 342
3 323 343 342
3 323 324 343
3 324 344 343
3 324 325 344
3 325 345 344
3 325 326 345
3 326 346 345
3 326 327 346
3 327 347 346
3 327 328 347
3 330 348 349
3 330 329 348
3 329 350 348
3 329 331 350
3 331 351 350
3 331 332 351
3 332 352 351
3 332 333 352
3 333 353 352
3 333 334 353
3 334 335 353
3 353 335 354
3 335 336 354
3 354 336 355
3 336 337 355
3 355 337 356
3 337 357 356
3 337 338 357
3 338 358 357
3 338 339 358
3 339 359 358
3 339 340 359
3 340 341 359
3 359 341 360
3 341 361 360
3 341 342 361
3 342 362 361
3 342 343 362
3 343 363 362
3 343 344 363
3 344 364 363
3 344 345 364
3 345 365 364
3 345 346 365
3 346 366 365
3 346 347 366
3 349 348 367
3 367 348 368
3 348 350 368
3 368 350 369
3 350 370 369
3 350 351 370
3 351 371 370
3 351 352 371
3 352 353 371
3 371 353 372
3 353 354 372
3 372 354 373
3 354 355 373
3 373 355 374
3 355 356 374
3 374 356 375
3 356 357 375
3 375 357 376
3 357 377 376
3 357 358 377
3 358 359 377
3 377 359 378
3 359 360 378
3 378 360 379
3 360 380 379
3 360 361 380
3 361 381 380
3 361 362 381
3 362 363 381
3 381 363 382
3 363 364 382
3 382 364 383
3 364 365 383
3 383 365 384
3 365 385 384
3 365 366 385
3 386 387 388
3 386 367 387
3 367 368 387
3 387 368 389
3 368 369 389
3 389 369 390
3 369 391 390
3 369 370 391
3 370 371 391
3 391 371 392
3 371 372 392
3 392 372 393
3 372 373 393
3 393 373 394
3 373 374 394
3 394 374 395
3 374 375 395
3 395 375 396
3 375 376 396
3 396 376 397
3 376 398 397
3 376 377 398
3 377 378 398
3 398 378 399
3 378 379 399
3 399 379 400
3 379 401 400
3 379 380 401
3 380 402 401
3 380 381 402
3 381 382 402
3 402 382 403
3 382 383 403
3 403 383 404
3 383 384 404
3 404 384 405
3 384 406 405
3 384 385 406
3 388 407 408
3 388 387 407
3 387 389 407
3 407 389 409
3 389 390 409
3 409 390 410
3 390 411 410
3 390 391 411
3 391 412 411
3 391 392 412
3 392 413 412
3 392 393 413
3 393 394 413
3 413 394 414
3 394 395 414
3 414 395 415
3 395 396 415
3 415 396 416
3 396 397 416
3 416 397 417
3 397 418 417
3 397 398 418
3 398 399 418
3 418 399 419
3 399 400 419
3 419 400 420
3 400 421 420
3 400 401 421
3 401 422 421
3 401 402 422
3 402 403 422
3 422 403 423
3 403 404 423
3 423 404 424
3 404 425 424
3 404 405 425
3 405 426 425
3 405 406 426
3 408 427 428
3 408 407 427
3 407 429 427
3 407 409 429
3 409 410 429
3 429 410 430
3 410 431 430
3 410 411 431
3 411 432 431
3 411 412 432
3 412 433 432
3 412 413 433
3 413 414 433
3 433 414 434
3 414 415 434
3 434 415 435
3 415 416 435
3 435 416 436
3 416 437 436
3 416 417 437
3 417 438 437
3 417 418 438
3 418 439 438
3 418 419 439
3 419 440 439
3 419 420 440
3 420 441 440
3 420 421 441
3 421 442 441
3 421 422 442
3 422 423 442
3 442 423 443
3 423 424 443
3 443 424 444
3 424 445 444
3 424 425 445
3 428 446 447
3 428 427 446
3 427 429 446
3 446 429 448
3 429 430 448
3 448 430 449
3 430 450 449
3 430 431 450
3 431 451 450
3 431 432 451
3 432 452 451
3 432 433 452
3 433 434 452
3 452 434 453
3 434 435 453
3 453 435 454
3 435 436 454
3 454 436 455
3 436 437 455
3 455 437 456
3 437 457 456
3 437 438 457
3 438 439 457
3 457 439 458
3 439 459 458
3 439 440 459
3 440 460 459
3 440 441 460
3 441 461 460
3 441 442 461
3 442 443 461
3 461 443 462
3 443 444 462
3 462 444 463
3 444 445 463
3 463 445 464
3 447 465 466
3 447 446 465
3 446 448 465
3 465 448 467
3 448 449 467
3 467 449 468
3 449 469 468
3 449 450 469
3 450 470 469
3 450 451 470
3 451 471 470
3 451 452 471
3 452 453 471
3 471 453 472
3 453 454 472
3 472 454 473
3 454 455 473
3 473 455 474
3 455 456 474
3 474 456 475
3 456 476 475
3 456 457 476
3 457 458 476
3 476 458 477
3 458 459 477
3 477 459 478
3 459 479 478
3 459 460 479
3 460 480 479
3 460 461 480
3 461 462 480
3 480 462 481
3 462 463 481
3 481 463 482
3 463 464 482
3 482 464 483
3 466 484 485
3 466 465 484
3 465 486 484
3 465 467 486
3 467 487 486
3 467 468 487
3 468 488 487
3 468 469 488
3 469 489 488
3 469 470 489
3 470 490 489
3 470 471 490
3 471 472 490
3 490 472 491
3 472 473 491
3 491 473 492
3 473 474 492
3 492 474 493
3 474 494 493
3 474 475 494
3 475 495 494
3 475 476 495
3 476 496 495
3 476 477 496
3 477 497 496
3 477 478 497
3 478 498 497
3 478 479 498
3 479 499 498
3 479 480 499
3 480 481 499
3 499 481 500
3 481 482 500
3 500 482 501
3 482 502 501
3 482 483 502
3 487 488 503
3 488 504 503
3 488 489 504
3 489 505 504
3 489 490 505
3 490 491 505
3 505 491 506
3 491 492 506
3 494 495 507
3 495 508 507
3 495 496 508
3 496 509 508
3 496 497 509
3 497 510 509
3 497 498 510
3 498 511 510
3 498 499 511
3 499 500 511
3 511 500 512
3 500 501 512
3 512 501 513
3 501 514 513
3 501 502 514
CELL_DATA 936
SCALARS brightness_temperature float
LOOKUP_TABLE default
POINT_DATA 515
CELL_DATA 936
SCALARS emission_angle float
LOOKUP_TABLE default
POINT_DATA 515
CELL_DATA 936
SCALARS incidence_angle float
LOOKUP_TABLE default
POINT_DATA 515
CELL_DATA 936
SCALARS phase_angle float
LOOKUP_TABLE default
POINT_DATA 515
CELL_DATA 936
SCALARS local_solar_time float
LOOKUP_TABLE default
POINT_DATA 515
CELL_DATA 936
SCALARS local_solar_time_normal_vector float
LOOKUP_TABLE default
CELL_DATA 936
SCALARS pixel_x float
LOOKUP_TABLE default
POINT_DATA 515
CELL_DATA 936
SCALARS pixel_y float
LOOKUP_TABLE default
POINT_DATA 515
CELL_DATA 936
SCALARS longitude float
LOOKUP_TABLE default
POINT_DATA 515
CELL_DATA 936
SCALARS latitude float
LOOKUP_TABLE default
