# vtk DataFile Version 3.0
SHAPE_sfm_50k_v20200323
ASCII
DATASET POLYDATA
POINTS 1205 float
0.11293 -0.48393 0.02752
0.10965 -0.48559 0.02489
0.11295 -0.48489 0.02461
0.10997 -0.4865 0.02197
0.11331 -0.48593 0.02176
0.11051 -0.48759 0.01915
0.11384 -0.48688 0.01889
0.11085 -0.48844 0.01621
0.1142 -0.48781 0.01599
0.11124 -0.48942 0.01332
0.1146 -0.48889 0.01314
0.11624 -0.48316 0.02719
0.11632 -0.4844 0.0244
0.11671 -0.48558 0.02161
0.11725 -0.4867 0.01882
0.11761 -0.48755 0.0159
0.11797 -0.4884 0.01298
0.11513 -0.48999 0.01033
0.11842 -0.48912 0.01004
0.11554 -0.49052 0.00735
0.11885 -0.48968 0.00706
0.1159 -0.49117 0.00437
0.11921 -0.49027 0.00407
0.11586 -0.49199 0.00141
0.11916 -0.491 0.00106
0.11637 -0.49284 -0.0015
0.11976 -0.49219 -0.00173
0.11734 -0.49388 -0.00423
0.12077 -0.49383 -0.00421
0.11787 -0.49372 -0.00722
0.12136 -0.49417 -0.00725
0.12105 -0.49332 -0.0102
0.1176 -0.4934 -0.01022
0.12005 -0.49253 -0.013
0.11972 -0.48426 0.02462
0.11959 -0.48272 0.02728
0.1201 -0.48554 0.02186
0.12065 -0.48682 0.01913
0.121 -0.48732 0.01612
0.12135 -0.48793 0.01314
0.12178 -0.48845 0.01015
0.12221 -0.48898 0.00716
0.12256 -0.48948 0.00414
0.12254 -0.49029 0.00113
0.12319 -0.49198 -0.00141
0.12418 -0.49332 -0.00402
0.12473 -0.49339 -0.00706
0.12446 -0.49288 -0.01006
0.1234 -0.49197 -0.0128
0.12226 -0.49158 -0.01562
0.11895 -0.49235 -0.01586
0.12114 -0.49117 -0.01845
0.11779 -0.49183 -0.01865
0.12034 -0.49049 -0.02133
0.12292 -0.48317 0.02465
0.12281 -0.48165 0.02736
0.12341 -0.48495 0.02216
0.12406 -0.48685 0.01972
0.12437 -0.48717 0.01659
0.12471 -0.48748 0.01355
0.12515 -0.48804 0.01057
0.12558 -0.48852 0.00757
0.12593 -0.48887 0.00452
0.12591 -0.48975 0.00153
0.12654 -0.49134 -0.00106
0.12758 -0.49274 -0.00368
0.12804 -0.49249 -0.00678
0.12748 -0.49125 -0.00957
0.12662 -0.49089 -0.0125
0.12547 -0.49043 -0.01531
0.12439 -0.49013 -0.01817
0.12367 -0.48971 -0.02111
0.12342 -0.48868 -0.02397
0.12011 -0.48953 -0.02421
0.12336 -0.48798 -0.02696
0.11999 -0.4885 -0.0271
0.12313 -0.48687 -0.02978
0.1198 -0.48758 -0.03001
0.12267 -0.48574 -0.03259
0.11937 -0.48659 -0.03287
0.12242 -0.48445 -0.03534
0.1191 -0.48525 -0.03561
0.11902 -0.48389 -0.03835
0.12232 -0.4831 -0.03808
0.12217 -0.4818 -0.04085
0.11888 -0.48257 -0.04111
0.12181 -0.48051 -0.0436
0.11854 -0.4813 -0.04388
0.12113 -0.47927 -0.04629
0.11793 -0.48024 -0.04666
0.11996 -0.47814 -0.04888
0.11678 -0.47915 -0.04928
0.1187 -0.47714 -0.05149
0.11551 -0.47811 -0.05186
0.11753 -0.4763 -0.05418
0.11597 -0.47147 -0.0616
0.11313 -0.47038 -0.06425
0.11633 -0.46964 -0.06402
0.11379 -0.46831 -0.06644
0.117 -0.46764 -0.06626
0.12616 -0.48215 0.02496
0.12614 -0.48112 0.02788
0.12657 -0.48366 0.02227
0.12726 -0.48556 0.01992
0.12771 -0.48676 0.01712
0.12805 -0.48712 0.01407
0.12849 -0.48752 0.01106
0.12894 -0.48814 0.00808
0.12931 -0.48866 0.00508
0.12928 -0.48939 0.0021
0.1299 -0.49069 -0.00064
0.13086 -0.49155 -0.0035
0.13131 -0.49132 -0.00665
0.13073 -0.49013 -0.0095
0.12986 -0.48975 -0.01242
0.1288 -0.48961 -0.01529
0.12774 -0.4894 -0.01816
0.12699 -0.48894 -0.02109
0.1268 -0.48818 -0.02403
0.1267 -0.48734 -0.02698
0.12651 -0.48642 -0.02988
0.12607 -0.48538 -0.0327
0.12582 -0.48421 -0.0355
0.1257 -0.48275 -0.03817
0.12546 -0.48106 -0.04073
0.12509 -0.47969 -0.04346
0.12442 -0.47853 -0.0462
0.12323 -0.47733 -0.04875
0.12193 -0.47619 -0.05127
0.12067 -0.47513 -0.05384
0.11962 -0.47405 -0.05648
0.11653 -0.47531 -0.0569
0.11911 -0.47255 -0.05909
0.11592 -0.47347 -0.05928
0.11919 -0.47069 -0.0615
0.11946 -0.46864 -0.06375
0.12015 -0.46684 -0.06614
0.12951 -0.48166 0.02547
0.1299 -0.48292 0.02268
0.13054 -0.48472 0.02024
0.13098 -0.48584 0.01742
0.13143 -0.48696 0.01459
0.13187 -0.48752 0.0116
0.13231 -0.48787 0.00858
0.13265 -0.48809 0.00555
0.13257 -0.48857 0.00251
0.13297 -0.48911 -0.00048
0.13361 -0.48938 -0.00345
0.1341 -0.48926 -0.00646
0.13393 -0.48887 -0.00949
0.13314 -0.48876 -0.01243
0.1321 -0.48867 -0.01531
0.13101 -0.4884 -0.01817
0.13027 -0.48796 -0.02111
0.13012 -0.48739 -0.0241
0.13004 -0.48675 -0.02708
0.1299 -0.4862 -0.0301
0.12954 -0.4858 -0.03319
0.1292 -0.48396 -0.0357
0.12904 -0.48218 -0.03819
0.12878 -0.48047 -0.04073
0.12848 -0.4795 -0.04365
0.12774 -0.47797 -0.04619
0.12656 -0.47685 -0.04879
0.12528 -0.47583 -0.05137
0.12403 -0.47484 -0.05395
0.1229 -0.47339 -0.0564
0.12236 -0.47184 -0.05898
0.12242 -0.47 -0.06139
0.1226 -0.46775 -0.06346
0.12322 -0.46575 -0.06575
0.12939 -0.48023 0.02818
0.13279 -0.48104 0.02605
0.13322 -0.48263 0.02346
0.1338 -0.48391 0.02073
0.13422 -0.48492 0.01786
0.13476 -0.48629 0.01515
0.13522 -0.48702 0.01218
0.13565 -0.48738 0.00915
0.13596 -0.48748 0.0061
0.13582 -0.48766 0.00305
0.13611 -0.48784 0.0
0.13664 -0.48782 -0.00301
0.1372 -0.48787 -0.00602
0.13707 -0.48756 -0.00905
0.13627 -0.48743 -0.01199
0.13529 -0.48751 -0.01489
0.13427 -0.48744 -0.01778
0.13354 -0.48706 -0.02074
0.13358 -0.48714 -0.02384
0.13342 -0.48622 -0.02679
0.13307 -0.48515 -0.02966
0.13289 -0.4848 -0.03277
0.13242 -0.48299 -0.03528
0.1323 -0.48135 -0.03786
0.13208 -0.47985 -0.04052
0.13182 -0.47891 -0.04345
0.13104 -0.47737 -0.04598
0.12978 -0.47602 -0.04843
0.12856 -0.47526 -0.05114
0.12739 -0.47452 -0.05386
0.12627 -0.47322 -0.05641
0.12567 -0.47147 -0.05887
0.12572 -0.46958 -0.06129
0.12578 -0.46695 -0.06299
0.12641 -0.46503 -0.06537
0.13639 -0.48147 0.02394
0.13597 -0.48001 0.02658
0.13695 -0.48269 0.02119
0.13736 -0.48368 0.01834
0.13776 -0.48461 0.01545
0.13829 -0.48552 0.01258
0.13884 -0.48625 0.00966
0.13926 -0.48666 0.00664
0.13902 -0.48655 0.00358
0.13918 -0.48639 0.00052
0.13977 -0.48648 -0.00249
0.14037 -0.48669 -0.00547
0.14033 -0.48662 -0.00851
0.13947 -0.48634 -0.01143
0.13841 -0.48625 -0.0143
0.13746 -0.48633 -0.01721
0.13667 -0.48587 -0.02014
0.13635 -0.48517 -0.02308
0.13622 -0.48441 -0.02602
0.13601 -0.48363 -0.02897
0.13558 -0.48281 -0.03188
0.13541 -0.48152 -0.03465
0.13545 -0.4802 -0.0374
0.13528 -0.47885 -0.04013
0.13486 -0.47752 -0.04285
0.13419 -0.47626 -0.04553
0.13292 -0.47497 -0.04801
0.13166 -0.47409 -0.05064
0.13041 -0.47313 -0.05323
0.1293 -0.47188 -0.05577
0.12878 -0.47039 -0.05838
0.1288 -0.46843 -0.0607
0.12905 -0.4663 -0.06287
0.12968 -0.46461 -0.06537
0.13957 -0.48054 0.02465
0.13913 -0.47898 0.02725
0.14009 -0.48154 0.0218
0.1405 -0.4825 0.01894
0.14092 -0.48346 0.01607
0.14142 -0.48427 0.01317
0.14196 -0.485 0.01026
0.14232 -0.48522 0.00725
0.14215 -0.48531 0.0042
0.14234 -0.48521 0.00115
0.14295 -0.48536 -0.00185
0.14352 -0.48549 -0.00484
0.14344 -0.48532 -0.00785
0.14275 -0.48543 -0.01083
0.14152 -0.485 -0.01361
0.14048 -0.4849 -0.01649
0.13971 -0.48448 -0.01942
0.13929 -0.48362 -0.02231
0.13902 -0.48266 -0.02519
0.13873 -0.48179 -0.0281
0.13832 -0.48099 -0.03102
0.13825 -0.47985 -0.03385
0.13829 -0.47852 -0.0366
0.13822 -0.47734 -0.0394
0.1379 -0.47621 -0.04222
0.13727 -0.47504 -0.04495
0.13612 -0.47403 -0.04759
0.13481 -0.47305 -0.05015
0.13352 -0.47201 -0.05269
0.13247 -0.47095 -0.05535
0.13199 -0.46959 -0.05803
0.1321 -0.46798 -0.06061
0.13241 -0.46634 -0.06318
0.13287 -0.46395 -0.06508
0.14271 -0.47938 0.02522
0.14228 -0.47788 0.02785
0.14325 -0.48047 0.02242
0.14371 -0.48163 0.01964
0.14416 -0.48266 0.0168
0.14471 -0.48361 0.01394
0.14517 -0.48398 0.01092
0.14548 -0.48406 0.00788
0.14527 -0.48405 0.00483
0.1455 -0.48404 0.00179
0.14598 -0.4839 -0.00123
0.14646 -0.48383 -0.00422
0.14626 -0.48349 -0.0072
0.14546 -0.48337 -0.01011
0.14455 -0.48351 -0.01303
0.14347 -0.48335 -0.01588
0.1427 -0.48294 -0.0188
0.14225 -0.48204 -0.02166
0.14192 -0.48101 -0.02451
0.14153 -0.48001 -0.02736
0.141 -0.47907 -0.03022
0.14091 -0.47792 -0.03304
0.14088 -0.47651 -0.03575
0.1409 -0.47545 -0.03861
0.14086 -0.47473 -0.04158
0.14038 -0.47387 -0.04446
0.13923 -0.47287 -0.04711
0.13797 -0.47203 -0.04974
0.13674 -0.47116 -0.05236
0.13569 -0.47016 -0.05504
0.13526 -0.46899 -0.05783
0.1354 -0.46748 -0.0605
0.13547 -0.46521 -0.06256
0.13591 -0.4629 -0.06451
0.14592 -0.47833 0.02531
0.1455 -0.4769 0.02797
0.14655 -0.47977 0.0227
0.14701 -0.48091 0.01991
0.14736 -0.48156 0.01696
0.14779 -0.48214 0.014
0.14817 -0.48236 0.01099
0.14849 -0.48247 0.00798
0.14831 -0.48252 0.00495
0.1485 -0.48245 0.00192
0.14893 -0.48221 -0.00109
0.14935 -0.48202 -0.00408
0.1492 -0.48173 -0.00708
0.14835 -0.48152 -0.00996
0.14734 -0.48157 -0.01285
0.14633 -0.48151 -0.01572
0.14564 -0.48124 -0.01866
0.14519 -0.48034 -0.02151
0.14473 -0.47913 -0.02426
0.1443 -0.47809 -0.02709
0.14358 -0.47693 -0.02981
0.14341 -0.47569 -0.03259
0.14348 -0.47439 -0.03536
0.14367 -0.47355 -0.03829
0.14372 -0.473 -0.04129
0.14346 -0.47255 -0.04431
0.14228 -0.47152 -0.04695
0.14107 -0.47079 -0.04964
0.13988 -0.47008 -0.05233
0.13884 -0.46911 -0.05501
0.13827 -0.46763 -0.0576
0.13821 -0.46572 -0.05995
0.13844 -0.4638 -0.06227
0.13901 -0.46184 -0.06452
0.14882 -0.47621 0.02765
0.14925 -0.47773 0.02505
0.14984 -0.479 0.02236
0.15025 -0.47995 0.01952
0.15058 -0.48053 0.01656
0.15078 -0.48054 0.01353
0.15106 -0.48058 0.01051
0.15149 -0.4809 0.00752
0.15138 -0.48109 0.00451
0.1515 -0.48087 0.0015
0.15185 -0.48048 -0.00149
0.15222 -0.4802 -0.00448
0.15255 -0.48069 -0.00757
0.15164 -0.4804 -0.01053
0.14998 -0.47941 -0.01302
0.14898 -0.47938 -0.01593
0.1483 -0.47909 -0.01886
0.14792 -0.47831 -0.02172
0.14744 -0.47708 -0.02444
0.14681 -0.47577 -0.0271
0.14618 -0.47472 -0.02989
0.14603 -0.4735 -0.03268
0.14622 -0.47239 -0.03551
0.14637 -0.4715 -0.03844
0.14661 -0.47129 -0.04148
0.1463 -0.47074 -0.04445
0.14533 -0.47016 -0.04727
0.14414 -0.4695 -0.04997
0.14297 -0.46885 -0.05267
0.14188 -0.4678 -0.05529
0.14127 -0.46621 -0.0578
0.14127 -0.46447 -0.06027
0.14149 -0.46255 -0.06259
0.15258 -0.47709 0.02497
0.1522 -0.47582 0.0277
0.15312 -0.47814 0.02218
0.15348 -0.47892 0.01928
0.15381 -0.47946 0.01631
0.15399 -0.47937 0.01328
0.15423 -0.47931 0.01026
0.15459 -0.47946 0.00725
0.15445 -0.47959 0.00423
0.15457 -0.47937 0.00122
0.15496 -0.47902 -0.00177
0.15502 -0.47827 -0.00472
0.15497 -0.47816 -0.00775
0.15421 -0.47805 -0.01069
0.15272 -0.47739 -0.01328
0.15155 -0.47711 -0.01609
0.15097 -0.47697 -0.01905
0.15083 -0.47653 -0.02204
0.15024 -0.47515 -0.02467
0.14962 -0.47385 -0.02735
0.14904 -0.47286 -0.03017
0.1489 -0.47167 -0.03296
0.14917 -0.47073 -0.03584
0.14944 -0.47007 -0.0388
0.1496 -0.46975 -0.04181
0.14929 -0.46923 -0.04476
0.14832 -0.46864 -0.04756
0.14722 -0.46824 -0.05034
0.14605 -0.46763 -0.05305
0.1449 -0.46641 -0.05556
0.14433 -0.46493 -0.05814
0.14433 -0.46323 -0.06063
0.14457 -0.46148 -0.06305
0.15556 -0.47543 0.02771
0.15591 -0.47644 0.02488
0.15636 -0.47715 0.02197
0.15664 -0.47769 0.019
0.15687 -0.478 0.016
0.1571 -0.47804 0.01298
0.15737 -0.47797 0.00997
0.15744 -0.47759 0.00697
0.15717 -0.47753 0.00396
0.15731 -0.47734 0.00095
0.15751 -0.47674 -0.00201
0.1577 -0.47616 -0.00497
0.15729 -0.4756 -0.0079
0.15642 -0.4754 -0.01076
0.15522 -0.47504 -0.01353
0.15413 -0.47486 -0.01638
0.15362 -0.47482 -0.01936
0.15336 -0.47423 -0.02227
0.15304 -0.47325 -0.02508
0.15252 -0.47211 -0.02783
0.15195 -0.47116 -0.03066
0.15186 -0.47007 -0.0335
0.15217 -0.46923 -0.03641
0.15256 -0.46889 -0.0394
0.15265 -0.46844 -0.04239
0.15234 -0.46788 -0.04534
0.15145 -0.46748 -0.04818
0.1503 -0.46705 -0.05093
0.14906 -0.46626 -0.05356
0.14793 -0.46514 -0.05612
0.14738 -0.46379 -0.05877
0.14736 -0.46209 -0.06125
0.14754 -0.46015 -0.06354
0.15888 -0.47495 0.02732
0.15916 -0.47562 0.02439
0.15951 -0.47603 0.02141
0.15969 -0.47633 0.0184
0.15983 -0.47644 0.01539
0.16006 -0.47646 0.01238
0.16016 -0.47609 0.00939
0.16018 -0.47562 0.00642
0.15994 -0.47561 0.00339
0.1599 -0.47517 0.00041
0.16004 -0.47447 -0.00254
0.16032 -0.47401 -0.00551
0.16013 -0.47372 -0.00851
0.15911 -0.47329 -0.01132
0.1579 -0.47291 -0.01408
0.15681 -0.47277 -0.01694
0.1563 -0.47277 -0.01991
0.15613 -0.47233 -0.02288
0.15578 -0.47132 -0.0257
0.15537 -0.47038 -0.02854
0.15489 -0.46962 -0.03143
0.15484 -0.46862 -0.03431
0.15525 -0.46808 -0.03729
0.15562 -0.46772 -0.04027
0.15576 -0.46728 -0.04328
0.15556 -0.46713 -0.0463
0.15467 -0.46698 -0.04915
0.15346 -0.46622 -0.05177
0.15213 -0.46507 -0.05421
0.15095 -0.46385 -0.05671
0.15032 -0.4623 -0.05923
0.15032 -0.46069 -0.06177
0.16196 -0.47332 0.02925
0.16202 -0.47412 0.02634
0.16223 -0.47459 0.02337
0.16257 -0.47497 0.02039
0.16262 -0.47496 0.01737
0.16266 -0.47484 0.01435
0.16279 -0.47468 0.01135
0.1629 -0.47432 0.00839
0.1629 -0.47381 0.00541
0.1625 -0.47354 0.00242
0.1624 -0.47299 -0.00054
0.16271 -0.47251 -0.00352
0.16302 -0.47209 -0.0065
0.16273 -0.47163 -0.00948
0.16202 -0.47181 -0.01242
0.16074 -0.47124 -0.01512
0.15965 -0.47108 -0.01796
0.15899 -0.47086 -0.02089
0.15872 -0.47029 -0.02381
0.15843 -0.4694 -0.02668
0.15819 -0.46882 -0.02964
0.15773 -0.46811 -0.03256
0.15786 -0.46763 -0.03556
0.1583 -0.46723 -0.03855
0.15874 -0.46702 -0.04156
0.15896 -0.46725 -0.0446
0.15873 -0.4675 -0.0476
0.15779 -0.46727 -0.05042
0.15663 -0.46601 -0.05289
0.15532 -0.46438 -0.05504
0.15407 -0.46282 -0.05732
0.15344 -0.4613 -0.05988
0.15346 -0.45994 -0.06259
0.16499 -0.47216 0.02825
0.16512 -0.47311 0.02541
0.16546 -0.47392 0.02252
0.16561 -0.47377 0.01949
0.16562 -0.47362 0.01647
0.16565 -0.47347 0.01345
0.16575 -0.47325 0.01045
0.16575 -0.47264 0.00751
0.16565 -0.47195 0.00455
0.1653 -0.47176 0.00154
0.16534 -0.47139 -0.00145
0.16572 -0.47106 -0.00444
0.16611 -0.47086 -0.00744
0.16579 -0.47025 -0.0104
0.16487 -0.47006 -0.01325
0.16372 -0.46981 -0.01604
0.16255 -0.46947 -0.01882
0.16184 -0.46915 -0.02173
0.16151 -0.4685 -0.02465
0.16133 -0.46784 -0.02759
0.16106 -0.46722 -0.03056
0.16074 -0.46685 -0.03357
0.16093 -0.46647 -0.03661
0.16153 -0.46664 -0.03963
0.16203 -0.46723 -0.0426
0.16216 -0.46801 -0.04555
0.16178 -0.4687 -0.04847
0.16093 -0.46807 -0.05131
0.15984 -0.46656 -0.0537
0.15862 -0.46455 -0.05558
0.1574 -0.46238 -0.05737
0.15672 -0.46071 -0.05988
0.15673 -0.45955 -0.06272
0.16802 -0.47024 0.02993
0.16814 -0.4715 0.02719
0.16832 -0.4726 0.02438
0.16844 -0.47279 0.02136
0.1686 -0.47263 0.01834
0.16861 -0.47247 0.01533
0.16861 -0.47222 0.01233
0.16856 -0.47163 0.00937
0.16852 -0.4709 0.00645
0.16855 -0.47049 0.00342
0.16829 -0.47048 0.00039
0.16842 -0.47035 -0.00261
0.16884 -0.4702 -0.00561
0.16916 -0.46982 -0.00859
0.16891 -0.46939 -0.01158
0.16783 -0.46872 -0.01433
0.16657 -0.46822 -0.01705
0.16545 -0.46796 -0.01986
0.16467 -0.46751 -0.02274
0.16425 -0.46667 -0.02562
0.16414 -0.46614 -0.02862
0.16403 -0.46584 -0.03168
0.16386 -0.46581 -0.03477
0.16423 -0.46613 -0.03784
0.16483 -0.46704 -0.04073
0.16519 -0.46821 -0.04351
0.16516 -0.46941 -0.04632
0.16477 -0.47006 -0.04936
0.1641 -0.46881 -0.05215
0.1631 -0.46695 -0.05436
0.1619 -0.46486 -0.05616
0.16073 -0.46244 -0.05763
0.16004 -0.46064 -0.06002
0.15993 -0.45877 -0.06243
0.17126 -0.46839 0.03141
0.17114 -0.46977 0.02872
0.17119 -0.47083 0.0259
0.17121 -0.47152 0.02297
0.17135 -0.47174 0.01996
0.17147 -0.4715 0.01695
0.1716 -0.47161 0.01391
0.1714 -0.47084 0.01097
0.17134 -0.4702 0.008
0.1714 -0.46968 0.00501
0.17155 -0.46963 0.00196
0.17128 -0.46958 -0.00106
0.17143 -0.46955 -0.00407
0.17192 -0.4697 -0.00709
0.17207 -0.46865 -0.00995
0.17169 -0.46783 -0.01283
0.17057 -0.46708 -0.01554
0.16934 -0.46662 -0.01829
0.16815 -0.46622 -0.02106
0.16741 -0.46583 -0.02397
0.16713 -0.46527 -0.02695
0.16715 -0.46505 -0.03002
0.16718 -0.46517 -0.03313
0.16713 -0.46588 -0.03618
0.16742 -0.46716 -0.03896
0.16781 -0.46856 -0.04162
0.16808 -0.46983 -0.04434
0.16813 -0.47094 -0.04729
0.16797 -0.47092 -0.05053
0.16731 -0.46918 -0.05318
0.16636 -0.467 -0.05515
0.16518 -0.46471 -0.05675
0.16401 -0.46224 -0.05807
0.16324 -0.45969 -0.0597
0.16316 -0.45803 -0.06235
0.17447 -0.46774 0.03063
0.17434 -0.46903 0.02791
0.17432 -0.46989 0.02502
0.1743 -0.47046 0.02206
0.17438 -0.47054 0.01905
0.17453 -0.47036 0.01604
0.17444 -0.46993 0.01305
0.17426 -0.4692 0.0101
0.17432 -0.46879 0.00708
0.17458 -0.46883 0.00403
0.17478 -0.46897 0.00102
0.17456 -0.46907 -0.00199
0.17476 -0.46932 -0.00502
0.17502 -0.46846 -0.00794
0.17502 -0.46705 -0.01062
0.17456 -0.46605 -0.01344
0.1735 -0.46545 -0.01622
0.17237 -0.4652 -0.01903
0.17126 -0.46497 -0.02185
0.17055 -0.46467 -0.02477
0.17036 -0.46432 -0.02781
0.17053 -0.46481 -0.03087
0.17059 -0.46574 -0.0338
0.1704 -0.46705 -0.03656
0.17053 -0.46866 -0.03915
0.17095 -0.46998 -0.04186
0.17141 -0.47098 -0.04479
0.17163 -0.471 -0.04794
0.17144 -0.47044 -0.05105
0.17068 -0.46917 -0.05391
0.16966 -0.46691 -0.05588
0.16848 -0.46435 -0.05709
0.1673 -0.46178 -0.0582
0.16656 -0.45929 -0.05988
0.16644 -0.45755 -0.06243
0.17758 -0.46812 0.02764
0.17775 -0.46701 0.03042
0.17755 -0.46893 0.02475
0.17745 -0.46925 0.02177
0.17746 -0.46911 0.01878
0.17756 -0.46881 0.0158
0.17745 -0.46832 0.01283
0.1774 -0.46787 0.00983
0.17752 -0.46759 0.00678
0.17784 -0.46782 0.00373
0.17824 -0.46889 0.00084
0.17794 -0.46863 -0.00218
0.17799 -0.46816 -0.00517
0.17818 -0.46712 -0.008
0.17832 -0.46607 -0.01083
0.17774 -0.4647 -0.01349
0.17667 -0.46407 -0.01625
0.17553 -0.46385 -0.01908
0.17449 -0.46382 -0.02193
0.17382 -0.46361 -0.02487
0.17377 -0.46384 -0.02793
0.17396 -0.46524 -0.03067
0.17391 -0.46663 -0.03336
0.17374 -0.4679 -0.0361
0.17398 -0.46902 -0.03891
0.17454 -0.47002 -0.04181
0.17487 -0.47005 -0.04493
0.17496 -0.46986 -0.04799
0.17483 -0.4696 -0.05113
0.17404 -0.46831 -0.05397
0.17299 -0.46623 -0.05611
0.17174 -0.46366 -0.05726
0.17053 -0.46107 -0.05829
0.16978 -0.45863 -0.06005
0.16964 -0.45677 -0.06251
0.18063 -0.46688 0.02833
0.18085 -0.46594 0.03117
0.18064 -0.46777 0.02549
0.18059 -0.46823 0.02254
0.18069 -0.46838 0.01958
0.18077 -0.46801 0.01662
0.18067 -0.4675 0.01366
0.18062 -0.46699 0.01069
0.18074 -0.46668 0.00766
0.18103 -0.4669 0.00461
0.18136 -0.46771 0.00169
0.18124 -0.46808 -0.00135
0.18107 -0.467 -0.0042
0.18126 -0.46598 -0.00702
0.18149 -0.46515 -0.00991
0.18102 -0.46407 -0.01264
0.17997 -0.46356 -0.0154
0.17877 -0.46314 -0.01814
0.1777 -0.46307 -0.02098
0.17706 -0.463 -0.02391
0.17693 -0.46312 -0.02694
0.17716 -0.46467 -0.02956
0.17717 -0.46605 -0.03226
0.17695 -0.46696 -0.03514
0.17704 -0.46758 -0.03809
0.17736 -0.46801 -0.04107
0.17764 -0.46812 -0.0441
0.17772 -0.468 -0.04712
0.1778 -0.46801 -0.05019
0.17732 -0.46749 -0.0533
0.17634 -0.46568 -0.05578
0.17504 -0.46315 -0.05708
0.17382 -0.46061 -0.05817
0.17308 -0.45825 -0.05996
0.18365 -0.46579 0.02936
0.18384 -0.46479 0.03215
0.18363 -0.46658 0.02649
0.18368 -0.46737 0.02362
0.18388 -0.46803 0.0207
0.18395 -0.46757 0.01773
0.18387 -0.46718 0.01478
0.18384 -0.4667 0.01182
0.18396 -0.46642 0.00884
0.18419 -0.46632 0.00584
0.18434 -0.46646 0.00286
0.1841 -0.46658 -0.00011
0.1841 -0.46597 -0.003
0.18439 -0.46523 -0.00588
0.1846 -0.46432 -0.00872
0.18427 -0.46371 -0.01162
0.18321 -0.46317 -0.01435
0.18203 -0.46294 -0.01709
0.18091 -0.46271 -0.01985
0.18018 -0.46232 -0.02271
0.17993 -0.46206 -0.0257
0.1799 -0.46276 -0.02865
0.17995 -0.46421 -0.0313
0.17974 -0.46522 -0.03413
0.17974 -0.46577 -0.03707
0.17982 -0.4659 -0.04007
0.18005 -0.46599 -0.04306
0.18023 -0.46601 -0.04604
0.18029 -0.46599 -0.04903
0.18012 -0.46591 -0.05208
0.17952 -0.46484 -0.05498
0.17833 -0.46265 -0.05686
0.1771 -0.46019 -0.0581
0.17635 -0.45782 -0.05983
0.18678 -0.46457 0.02954
0.1869 -0.46346 0.03229
0.18684 -0.46557 0.02675
0.18694 -0.46653 0.02395
0.18709 -0.46697 0.02104
0.18727 -0.467 0.0181
0.18721 -0.46669 0.01515
0.1872 -0.46635 0.01219
0.18734 -0.46621 0.00923
0.18758 -0.46607 0.00627
0.18769 -0.46583 0.00332
0.18739 -0.46564 0.00038
0.18744 -0.46529 -0.00255
0.1877 -0.46452 -0.0054
0.18793 -0.46364 -0.00823
0.18759 -0.463 -0.01111
0.18655 -0.46264 -0.01387
0.18538 -0.46247 -0.0166
0.18432 -0.46267 -0.01941
0.18353 -0.4619 -0.02217
0.18321 -0.46127 -0.02507
0.183 -0.46138 -0.02807
0.18265 -0.46214 -0.03096
0.18254 -0.46336 -0.0337
0.18255 -0.46395 -0.03663
0.18269 -0.46419 -0.0396
0.18284 -0.46418 -0.04257
0.18296 -0.46414 -0.04554
0.18303 -0.46414 -0.04851
0.18299 -0.46432 -0.05153
0.18261 -0.46358 -0.05457
0.18151 -0.46154 -0.05669
0.18026 -0.4592 -0.05814
0.17954 -0.45705 -0.0601
0.18999 -0.46352 0.02944
0.19005 -0.46225 0.03211
0.19008 -0.46458 0.02668
0.19024 -0.46576 0.02399
0.19043 -0.46629 0.02111
0.19064 -0.4666 0.01821
0.19059 -0.46629 0.01527
0.1906 -0.46615 0.0123
0.19075 -0.46605 0.00935
0.191 -0.46598 0.00641
0.19113 -0.46587 0.00346
0.19083 -0.46558 0.00054
0.19086 -0.46514 -0.00238
0.19113 -0.46467 -0.00531
0.19137 -0.46362 -0.00807
0.19103 -0.46264 -0.01086
0.18997 -0.46224 -0.0136
0.18877 -0.46203 -0.0163
0.18764 -0.46183 -0.01902
0.18686 -0.46114 -0.02179
0.18663 -0.46108 -0.02474
0.18639 -0.46098 -0.02768
0.18577 -0.46076 -0.0306
0.18537 -0.46148 -0.03347
0.18536 -0.46205 -0.03638
0.1855 -0.46232 -0.03933
0.18565 -0.46233 -0.04229
0.18581 -0.46238 -0.04524
0.18599 -0.46257 -0.04819
0.18609 -0.4629 -0.05129
0.18564 -0.46187 -0.05431
0.18429 -0.45967 -0.05614
0.18313 -0.45754 -0.05791
0.18261 -0.45587 -0.06034
0.19326 -0.46269 0.02916
0.19332 -0.46148 0.03184
0.19342 -0.46399 0.02651
0.19356 -0.46512 0.0238
0.19379 -0.46594 0.02099
0.19403 -0.46632 0.01808
0.19397 -0.46597 0.01513
0.19401 -0.46598 0.01218
0.19417 -0.46607 0.00923
0.19443 -0.46601 0.00631
0.19455 -0.46608 0.00335
0.19426 -0.46559 0.00046
0.19429 -0.46511 -0.00245
0.19456 -0.46441 -0.0053
0.19479 -0.46378 -0.00817
0.19446 -0.46305 -0.011
0.19341 -0.4626 -0.01371
0.19219 -0.46168 -0.01627
0.19102 -0.46128 -0.01895
0.19024 -0.46056 -0.02171
0.18996 -0.46037 -0.02464
0.18972 -0.46029 -0.02757
0.18909 -0.46 -0.03044
0.18841 -0.45996 -0.03332
0.18817 -0.46016 -0.03626
0.18828 -0.46039 -0.0392
0.18846 -0.46047 -0.04214
0.18873 -0.4607 -0.04508
0.18888 -0.46082 -0.04805
0.18866 -0.46058 -0.05113
0.18765 -0.45909 -0.05362
0.18645 -0.45715 -0.0556
0.18593 -0.45576 -0.05817
0.18544 -0.45419 -0.06063
0.19652 -0.46179 0.02912
0.1966 -0.46072 0.03186
0.19662 -0.46288 0.02639
0.19676 -0.46402 0.02369
0.1971 -0.46521 0.02102
0.19736 -0.46562 0.01811
0.19735 -0.46559 0.01516
0.19741 -0.46585 0.01223
0.19758 -0.46616 0.00931
0.19783 -0.4664 0.00638
0.19797 -0.4662 0.00344
0.19768 -0.46565 0.00057
0.19771 -0.46517 -0.00234
0.19798 -0.46462 -0.00522
0.19821 -0.46397 -0.00808
0.19789 -0.46307 -0.01085
0.19683 -0.46237 -0.01349
0.19562 -0.46181 -0.01611
0.19444 -0.4611 -0.01871
0.19362 -0.46003 -0.02136
0.1933 -0.45968 -0.02428
0.19296 -0.45929 -0.02716
0.19234 -0.45906 -0.03003
0.19163 -0.45893 -0.03289
0.19128 -0.45886 -0.03582
0.1912 -0.45874 -0.03877
0.19142 -0.45893 -0.04171
0.19157 -0.45895 -0.04465
0.19161 -0.45887 -0.04766
0.19085 -0.4581 -0.0505
0.18948 -0.4564 -0.05261
0.18893 -0.45491 -0.05514
0.18873 -0.45397 -0.05795
0.18834 -0.45261 -0.06053
0.19974 -0.46097 0.02974
0.19978 -0.45978 0.03242
0.19989 -0.46224 0.02711
0.20002 -0.46326 0.02437
0.20018 -0.46386 0.02151
0.20051 -0.46448 0.01867
0.20064 -0.46508 0.0158
0.20075 -0.46581 0.01295
0.20091 -0.46602 0.01002
0.20117 -0.46632 0.00711
0.20132 -0.46666 0.00415
0.20101 -0.46599 0.00128
0.20103 -0.46562 -0.00164
0.2013 -0.46512 -0.00453
0.20154 -0.46447 -0.00738
0.2012 -0.46346 -0.01009
0.20015 -0.46259 -0.01266
0.19894 -0.46186 -0.01524
0.19775 -0.46132 -0.01788
0.19697 -0.46042 -0.02054
0.19663 -0.45972 -0.02336
0.19625 -0.45909 -0.02619
0.19558 -0.45866 -0.02903
0.19486 -0.45857 -0.03189
0.19442 -0.45815 -0.03476
0.19427 -0.45781 -0.03768
0.19435 -0.45769 -0.04063
0.19426 -0.45728 -0.04353
0.19402 -0.45687 -0.04642
0.19321 -0.45613 -0.04916
0.19237 -0.45492 -0.05171
0.1919 -0.4536 -0.05428
0.19149 -0.45242 -0.05693
0.1912 -0.45123 -0.05959
0.20288 -0.45988 0.03023
0.20277 -0.45826 0.03268
0.20321 -0.46187 0.02799
0.20324 -0.46246 0.02504
0.20332 -0.46268 0.02211
0.20364 -0.46328 0.01925
0.20386 -0.46424 0.01648
0.20402 -0.46522 0.01372
0.20422 -0.46582 0.01085
0.20449 -0.46612 0.00794
0.20465 -0.46624 0.00501
0.20435 -0.46617 0.0021
0.20433 -0.46632 -0.00086
0.20461 -0.46559 -0.00374
0.20485 -0.46453 -0.00647
0.20452 -0.4637 -0.00924
0.20346 -0.46301 -0.01187
0.20224 -0.46215 -0.01439
0.20105 -0.46144 -0.01698
0.20026 -0.46089 -0.01972
0.19991 -0.46012 -0.02249
0.19953 -0.45931 -0.02527
0.19882 -0.45851 -0.02801
0.19807 -0.45823 -0.03085
0.19763 -0.45785 -0.03371
0.19744 -0.45735 -0.0366
0.19741 -0.45689 -0.03949
0.19718 -0.45612 -0.04231
0.19665 -0.45529 -0.04506
0.19599 -0.45478 -0.04788
0.19537 -0.4539 -0.05061
0.1949 -0.45261 -0.05319
0.1944 -0.45131 -0.05576
0.19397 -0.44988 -0.05829
0.20279 -0.4569 0.03529
0.20588 -0.45696 0.03249
0.20589 -0.45559 0.0351
0.20595 -0.45851 0.03
0.20633 -0.46043 0.02777
0.20648 -0.46144 0.02502
0.20661 -0.46186 0.02212
0.20698 -0.4626 0.01931
0.2072 -0.4636 0.01657
0.20734 -0.46441 0.01377
0.2076 -0.46529 0.01098
0.20786 -0.46549 0.00806
0.20799 -0.4654 0.00513
0.20774 -0.4656 0.00224
0.20779 -0.46598 -0.00068
0.20804 -0.4655 -0.00358
0.20827 -0.46494 -0.00645
0.20794 -0.46396 -0.00918
0.20688 -0.46294 -0.0117
0.20566 -0.46222 -0.01426
0.20446 -0.4616 -0.01685
0.20366 -0.46149 -0.01969
0.20331 -0.46041 -0.02238
0.20291 -0.45916 -0.025
0.20221 -0.45849 -0.02777
0.20142 -0.45781 -0.0305
0.20097 -0.45742 -0.03337
0.20076 -0.45684 -0.03623
0.20059 -0.4559 -0.039
0.20025 -0.4549 -0.04172
0.19968 -0.45395 -0.04442
0.19895 -0.45338 -0.0472
0.19845 -0.45274 -0.05001
0.19804 -0.45159 -0.05268
0.1974 -0.45002 -0.05509
0.19705 -0.44877 -0.05772
0.20905 -0.45579 0.03235
0.20908 -0.45454 0.03501
0.20917 -0.45741 0.0299
0.20932 -0.45881 0.02738
0.20963 -0.46019 0.02483
0.20988 -0.46098 0.02203
0.21033 -0.46203 0.01934
0.2105 -0.4628 0.01653
0.21065 -0.46362 0.01374
0.2109 -0.4644 0.01093
0.21113 -0.46445 0.00803
0.2113 -0.46453 0.00512
0.21105 -0.46472 0.00222
0.21112 -0.46505 -0.00068
0.21147 -0.46515 -0.00358
0.21172 -0.46477 -0.00648
0.21139 -0.46412 -0.00932
0.21031 -0.46301 -0.0118
0.20908 -0.46223 -0.01434
0.20788 -0.46162 -0.01692
0.20709 -0.46106 -0.01966
0.20668 -0.45988 -0.02229
0.20629 -0.45883 -0.02498
0.20558 -0.45806 -0.02771
0.2048 -0.45751 -0.03047
0.20432 -0.45688 -0.03328
0.20404 -0.45602 -0.03606
0.20386 -0.45506 -0.03881
0.20349 -0.45399 -0.0415
0.20292 -0.45306 -0.04419
0.20211 -0.45228 -0.04689
0.2015 -0.45143 -0.04962
0.20107 -0.45025 -0.05226
0.20046 -0.44877 -0.0547
0.20008 -0.44748 -0.05729
0.21229 -0.45487 0.03214
0.21232 -0.45368 0.03486
0.21253 -0.45689 0.02999
0.21271 -0.4583 0.02747
0.21277 -0.45892 0.02461
0.21306 -0.45973 0.02178
0.21362 -0.46117 0.01928
0.21385 -0.46217 0.01657
0.21393 -0.46272 0.01371
0.21418 -0.46346 0.0109
0.21454 -0.46403 0.00806
0.2147 -0.46409 0.00514
0.21441 -0.46403 0.00223
0.21446 -0.4643 -0.00067
0.21485 -0.46454 -0.00357
0.21509 -0.46402 -0.00644
0.21477 -0.46338 -0.00926
0.21371 -0.46269 -0.01188
0.2125 -0.46206 -0.01446
0.21127 -0.46114 -0.01693
0.21039 -0.46011 -0.0195
0.21003 -0.45923 -0.02224
0.20968 -0.45847 -0.02502
0.20898 -0.45784 -0.02779
0.2082 -0.45726 -0.03054
0.20767 -0.45633 -0.03326
0.20735 -0.45531 -0.03597
0.20711 -0.45418 -0.03865
0.20677 -0.45321 -0.04138
0.20619 -0.45225 -0.04407
0.2053 -0.45124 -0.04666
0.20462 -0.45023 -0.04931
0.2042 -0.44906 -0.05198
0.20352 -0.44747 -0.05434
0.20287 -0.4458 -0.05665
0.21553 -0.454 0.03212
0.21542 -0.45247 0.03463
0.21587 -0.45632 0.03024
0.21607 -0.45775 0.02763
0.21602 -0.45794 0.02463
0.21646 -0.45934 0.02207
0.21705 -0.46108 0.01974
0.21727 -0.46196 0.01688
0.21724 -0.46192 0.01391
0.21739 -0.46232 0.01103
0.21772 -0.46273 0.00817
0.21796 -0.46303 0.0053
0.21777 -0.46341 0.00242
0.21781 -0.4636 -0.00049
0.21809 -0.46338 -0.00338
0.21827 -0.46274 -0.00621
0.21808 -0.46248 -0.00909
0.21707 -0.46205 -0.01176
0.21591 -0.46168 -0.01441
0.21464 -0.46061 -0.01681
0.21378 -0.45961 -0.01939
0.21343 -0.45881 -0.02214
0.21304 -0.45798 -0.02489
0.21237 -0.45747 -0.02769
0.21152 -0.45655 -0.03033
0.21096 -0.45555 -0.03301
0.21064 -0.45453 -0.03572
0.21043 -0.45353 -0.03845
0.21002 -0.45232 -0.04108
0.20936 -0.45114 -0.04365
0.20838 -0.45 -0.04615
0.20758 -0.44877 -0.04867
0.20704 -0.44743 -0.0512
0.2064 -0.44596 -0.05363
0.20581 -0.44439 -0.05601
0.21871 -0.45293 0.03239
0.21849 -0.45112 0.03469
0.21885 -0.45466 0.03009
0.21906 -0.45607 0.0276
0.21919 -0.45682 0.02479
0.21966 -0.45824 0.02227
0.22027 -0.45977 0.01984
0.22044 -0.46058 0.017
0.22047 -0.46088 0.01409
0.2206 -0.46119 0.0112
0.22094 -0.46162 0.00835
0.22121 -0.462 0.00549
0.22101 -0.46233 0.00262
0.22101 -0.4624 -0.00028
0.22116 -0.46187 -0.00314
0.22142 -0.4614 -0.00599
0.2213 -0.46131 -0.00888
0.22044 -0.4613 -0.01166
0.2193 -0.46096 -0.01435
0.21804 -0.46002 -0.01682
0.21703 -0.45863 -0.01918
0.21667 -0.45776 -0.02191
0.21627 -0.45697 -0.02468
0.21558 -0.45637 -0.02744
0.21473 -0.45547 -0.03007
0.21412 -0.45434 -0.03268
0.2138 -0.45337 -0.0354
0.21361 -0.45239 -0.03814
0.2131 -0.451 -0.04066
0.21237 -0.44973 -0.04316
0.2114 -0.44862 -0.04567
0.21057 -0.44738 -0.04816
0.21006 -0.44611 -0.05074
0.20941 -0.44465 -0.05316
0.20884 -0.44311 -0.05556
0.2221 -0.4546 0.02783
0.22227 -0.45546 0.02507
0.22244 -0.45624 0.02225
0.22289 -0.4575 0.01965
0.22334 -0.45879 0.0171
0.22363 -0.45964 0.01434
0.22385 -0.46015 0.01148
0.22411 -0.46038 0.0086
0.22434 -0.46065 0.00572
0.22403 -0.46075 0.00284
0.22396 -0.46067 -5e-05
0.22421 -0.46032 -0.00291
0.22443 -0.45981 -0.00573
0.22418 -0.45948 -0.00858
0.22325 -0.45933 -0.0113
0.2222 -0.45908 -0.014
0.22101 -0.4583 -0.01653
0.22013 -0.45724 -0.01907
0.21971 -0.45624 -0.02174
0.21923 -0.45531 -0.02445
0.21849 -0.45461 -0.02716
0.21779 -0.45401 -0.02992
0.2172 -0.45295 -0.03255
0.21678 -0.45179 -0.03517
0.21649 -0.45061 -0.03781
0.21608 -0.44945 -0.04044
0.21529 -0.44808 -0.04287
0.21428 -0.44692 -0.04533
0.21344 -0.44567 -0.04782
0.213 -0.44454 -0.05047
0.21234 -0.44308 -0.05289
0.21184 -0.4417 -0.05539
0.22583 -0.45714 -0.01075
0.22476 -0.45684 -0.01341
0.22374 -0.45628 -0.01606
0.22307 -0.45553 -0.01876
0.22273 -0.45467 -0.02148
0.22222 -0.45371 -0.02415
0.22143 -0.45295 -0.02683
0.22073 -0.45234 -0.02958
0.22017 -0.45134 -0.03223
0.21966 -0.45006 -0.03479
0.21939 -0.44894 -0.03744
0.219 -0.4478 -0.04007
0.21825 -0.44653 -0.04256
0.21715 -0.44523 -0.04491
0.2164 -0.44415 -0.0475
0.21589 -0.44292 -0.05008
0.21527 -0.44154 -0.05254
0.21483 -0.44029 -0.05512
0.22604 -0.45386 -0.01842
0.2257 -0.45304 -0.02114
0.22519 -0.4521 -0.0238
0.22431 -0.45121 -0.02641
0.22358 -0.45055 -0.02914
0.22303 -0.44958 -0.0318
0.22257 -0.44837 -0.03439
0.22229 -0.44726 -0.03704
0.22187 -0.4461 -0.03965
0.22116 -0.44488 -0.04216
0.22013 -0.44372 -0.04461
0.21931 -0.44253 -0.04711
0.21883 -0.44137 -0.04972
0.21826 -0.4401 -0.05225
0.21775 -0.43875 -0.05475
0.22599 -0.44796 -0.03148
0.22553 -0.44676 -0.03406
0.22511 -0.44544 -0.03659
0.22471 -0.44433 -0.03922
0.22411 -0.4433 -0.04185
0.22307 -0.44215 -0.04428
0.22214 -0.44079 -0.04666
0.2217 -0.43972 -0.04932
0.22122 -0.43861 -0.05194
0.22072 -0.4373 -0.05446
0.22508 -0.43921 -0.04636
0.22463 -0.43814 -0.049
0.22407 -0.43693 -0.05155
0.22373 -0.43592 -0.05423
POLYGONS 2267 9068
3 0 1 2
3 1 3 2
3 2 3 4
3 3 5 4
3 4 5 6
3 5 7 6
3 6 7 8
3 7 9 8
3 8 9 10
3 0 2 11
3 11 2 12
3 2 4 12
3 12 4 13
3 4 6 13
3 13 6 14
3 6 8 14
3 14 8 15
3 8 10 15
3 15 10 16
3 10 17 16
3 16 17 18
3 17 19 18
3 18 19 20
3 19 21 20
3 20 21 22
3 21 23 22
3 22 23 24
3 23 25 24
3 24 25 26
3 25 27 26
3 26 27 28
3 27 29 28
3 28 29 30
3 29 31 30
3 29 32 31
3 32 33 31
3 11 34 35
3 11 12 34
3 12 36 34
3 12 13 36
3 13 14 36
3 36 14 37
3 14 38 37
3 14 15 38
3 15 16 38
3 38 16 39
3 16 18 39
3 39 18 40
3 18 20 40
3 40 20 41
3 20 22 41
3 41 22 42
3 22 43 42
3 22 24 43
3 24 26 43
3 43 26 44
3 26 28 44
3 44 28 45
3 28 30 45
3 45 30 46
3 30 47 46
3 30 31 47
3 31 48 47
3 31 33 48
3 33 49 48
3 33 50 49
3 50 51 49
3 50 52 51
3 52 53 51
3 35 54 55
3 35 34 54
3 34 56 54
3 34 36 56
3 36 57 56
3 36 37 57
3 37 58 57
3 37 38 58
3 38 59 58
3 38 39 59
3 39 60 59
3 39 40 60
3 40 61 60
3 40 41 61
3 41 62 61
3 41 42 62
3 42 63 62
3 42 43 63
3 43 64 63
3 43 44 64
3 44 45 64
3 64 45 65
3 45 46 65
3 65 46 66
3 46 67 66
3 46 47 67
3 47 68 67
3 47 48 68
3 48 69 68
3 48 49 69
3 49 70 69
3 49 51 70
3 51 71 70
3 51 53 71
3 53 72 71
3 53 73 72
3 73 74 72
3 73 75 74
3 75 76 74
3 75 77 76
3 77 78 76
3 77 79 78
3 79 80 78
3 79 81 80
3 81 82 80
3 80 82 83
3 82 84 83
3 82 85 84
3 85 86 84
3 85 87 86
3 87 88 86
3 87 89 88
3 89 90 88
3 89 91 90
3 91 92 90
3 91 93 92
3 93 94 92
3 95 96 97
3 96 98 97
3 97 98 99
3 55 100 101
3 55 54 100
3 54 102 100
3 54 56 102
3 56 57 102
3 102 57 103
3 57 104 103
3 57 58 104
3 58 105 104
3 58 59 105
3 59 106 105
3 59 60 106
3 60 107 106
3 60 61 107
3 61 108 107
3 61 62 108
3 62 109 108
3 62 63 109
3 63 110 109
3 63 64 110
3 64 65 110
3 110 65 111
3 65 66 111
3 111 66 112
3 66 113 112
3 66 67 113
3 67 114 113
3 67 68 114
3 68 115 114
3 68 69 115
3 69 116 115
3 69 70 116
3 70 117 116
3 70 71 117
3 71 72 117
3 117 72 118
3 72 74 118
3 118 74 119
3 74 76 119
3 119 76 120
3 76 121 120
3 76 78 121
3 78 80 121
3 121 80 122
3 80 83 122
3 122 83 123
3 83 84 123
3 123 84 124
3 84 125 124
3 84 86 125
3 86 126 125
3 86 88 126
3 88 127 126
3 88 90 127
3 90 128 127
3 90 92 128
3 92 129 128
3 92 94 129
3 94 130 129
3 94 131 130
3 131 132 130
3 131 133 132
3 133 95 132
3 132 95 134
3 95 97 134
3 134 97 135
3 97 99 135
3 135 99 136
3 101 100 137
3 100 138 137
3 100 102 138
3 102 139 138
3 102 103 139
3 103 140 139
3 103 104 140
3 104 141 140
3 104 105 141
3 105 142 141
3 105 106 142
3 106 143 142
3 106 107 143
3 107 144 143
3 107 108 144
3 108 145 144
3 108 109 145
3 109 110 145
3 145 110 146
3 110 111 146
3 146 111 147
3 111 112 147
3 147 112 148
3 112 149 148
3 112 113 149
3 113 150 149
3 113 114 150
3 114 151 150
3 114 115 151
3 115 152 151
3 115 116 152
3 116 153 152
3 116 117 153
3 117 118 153
3 153 118 154
3 118 119 154
3 154 119 155
3 119 120 155
3 155 120 156
3 120 121 156
3 156 121 157
3 121 122 157
3 157 122 158
3 122 123 158
3 158 123 159
3 123 124 159
3 159 124 160
3 124 125 160
3 160 125 161
3 125 162 161
3 125 126 162
3 126 163 162
3 126 127 163
3 127 164 163
3 127 128 164
3 128 165 164
3 128 129 165
3 129 166 165
3 129 130 166
3 130 167 166
3 130 132 167
3 132 134 167
3 167 134 168
3 134 135 168
3 168 135 169
3 135 136 169
3 169 136 170
3 171 137 172
3 137 173 172
3 137 138 173
3 138 174 173
3 138 139 174
3 139 175 174
3 139 140 175
3 140 176 175
3 140 141 176
3 141 177 176
3 141 142 177
3 142 178 177
3 142 143 178
3 143 179 178
3 143 144 179
3 144 180 179
3 144 145 180
3 145 181 180
3 145 146 181
3 146 147 181
3 181 147 182
3 147 148 182
3 182 148 183
3 148 184 183
3 148 149 184
3 149 185 184
3 149 150 185
3 150 186 185
3 150 151 186
3 151 187 186
3 151 152 187
3 152 188 187
3 152 153 188
3 153 189 188
3 153 154 189
3 154 190 189
3 154 155 190
3 155 191 190
3 155 156 191
3 156 192 191
3 156 157 192
3 157 193 192
3 157 158 193
3 158 159 193
3 193 159 194
3 159 195 194
3 159 160 195
3 160 196 195
3 160 161 196
3 161 197 196
3 161 162 197
3 162 198 197
3 162 163 198
3 163 199 198
3 163 164 199
3 164 200 199
3 164 165 200
3 165 201 200
3 165 166 201
3 166 202 201
3 166 167 202
3 167 168 202
3 202 168 203
3 168 169 203
3 203 169 204
3 169 170 204
3 204 170 205
3 172 206 207
3 172 173 206
3 173 208 206
3 173 174 208
3 174 209 208
3 174 175 209
3 175 210 209
3 175 176 210
3 176 211 210
3 176 177 211
3 177 212 211
3 177 178 212
3 178 213 212
3 178 179 213
3 179 214 213
3 179 180 214
3 180 215 214
3 180 181 215
3 181 182 215
3 215 182 216
3 182 183 216
3 216 183 217
3 183 218 217
3 183 184 218
3 184 219 218
3 184 185 219
3 185 220 219
3 185 186 220
3 186 221 220
3 186 187 221
3 187 222 221
3 187 188 222
3 188 223 222
3 188 189 223
3 189 224 223
3 189 190 224
3 190 225 224
3 190 191 225
3 191 226 225
3 191 192 226
3 192 227 226
3 192 193 227
3 193 228 227
3 193 194 228
3 194 229 228
3 194 195 229
3 195 230 229
3 195 196 230
3 196 231 230
3 196 197 231
3 197 232 231
3 197 198 232
3 198 233 232
3 198 199 233
3 199 234 233
3 199 200 234
3 200 235 234
3 200 201 235
3 201 236 235
3 201 202 236
3 202 203 236
3 236 203 237
3 203 204 237
3 237 204 238
3 204 205 238
3 238 205 239
3 207 240 241
3 207 206 240
3 206 242 240
3 206 208 242
3 208 243 242
3 208 209 243
3 209 244 243
3 209 210 244
3 210 245 244
3 210 211 245
3 211 246 245
3 211 212 246
3 212 247 246
3 212 213 247
3 213 248 247
3 213 214 248
3 214 249 248
3 214 215 249
3 215 250 249
3 215 216 250
3 216 251 250
3 216 217 251
3 217 252 251
3 217 218 252
3 218 253 252
3 218 219 253
3 219 254 253
3 219 220 254
3 220 255 254
3 220 221 255
3 221 256 255
3 221 222 256
3 222 257 256
3 222 223 257
3 223 258 257
3 223 224 258
3 224 259 258
3 224 225 259
3 225 260 259
3 225 226 260
3 226 261 260
3 226 227 261
3 227 262 261
3 227 228 262
3 228 263 262
3 228 229 263
3 229 264 263
3 229 230 264
3 230 265 264
3 230 231 265
3 231 266 265
3 231 232 266
3 232 267 266
3 232 233 267
3 233 268 267
3 233 234 268
3 234 269 268
3 234 235 269
3 235 270 269
3 235 236 270
3 236 237 270
3 270 237 271
3 237 238 271
3 271 238 272
3 238 239 272
3 272 239 273
3 241 274 275
3 241 240 274
3 240 276 274
3 240 242 276
3 242 277 276
3 242 243 277
3 243 278 277
3 243 244 278
3 244 279 278
3 244 245 279
3 245 280 279
3 245 246 280
3 246 281 280
3 246 247 281
3 247 282 281
3 247 248 282
3 248 283 282
3 248 249 283
3 249 284 283
3 249 250 284
3 250 285 284
3 250 251 285
3 251 286 285
3 251 252 286
3 252 287 286
3 252 253 287
3 253 288 287
3 253 254 288
3 254 289 288
3 254 255 289
3 255 290 289
3 255 256 290
3 256 291 290
3 256 257 291
3 257 292 291
3 257 258 292
3 258 293 292
3 258 259 293
3 259 294 293
3 259 260 294
3 260 295 294
3 260 261 295
3 261 296 295
3 261 262 296
3 262 297 296
3 262 263 297
3 263 298 297
3 263 264 298
3 264 299 298
3 264 265 299
3 265 300 299
3 265 266 300
3 266 301 300
3 266 267 301
3 267 302 301
3 267 268 302
3 268 303 302
3 268 269 303
3 269 304 303
3 269 270 304
3 270 271 304
3 304 271 305
3 271 272 305
3 305 272 306
3 272 273 306
3 306 273 307
3 275 308 309
3 275 274 308
3 274 276 308
3 308 276 310
3 276 311 310
3 276 277 311
3 277 312 311
3 277 278 312
3 278 279 312
3 312 279 313
3 279 280 313
3 313 280 314
3 280 281 314
3 314 281 315
3 281 316 315
3 281 282 316
3 282 283 316
3 316 283 317
3 283 284 317
3 317 284 318
3 284 285 318
3 318 285 319
3 285 320 319
3 285 286 320
3 286 321 320
3 286 287 321
3 287 322 321
3 287 288 322
3 288 323 322
3 288 289 323
3 289 324 323
3 289 290 324
3 290 325 324
3 290 291 325
3 291 326 325
3 291 292 326
3 292 327 326
3 292 293 327
3 293 328 327
3 293 294 328
3 294 329 328
3 294 295 329
3 295 296 329
3 329 296 330
3 296 297 330
3 330 297 331
3 297 332 331
3 297 298 332
3 298 333 332
3 298 299 333
3 299 334 333
3 299 300 334
3 300 335 334
3 300 301 335
3 301 336 335
3 301 302 336
3 302 337 336
3 302 303 337
3 303 338 337
3 303 304 338
3 304 305 338
3 338 305 339
3 305 306 339
3 339 306 340
3 306 307 340
3 340 307 341
3 309 308 342
3 342 308 343
3 308 310 343
3 343 310 344
3 310 311 344
3 344 311 345
3 311 312 345
3 345 312 346
3 312 313 346
3 346 313 347
3 313 314 347
3 347 314 348
3 314 315 348
3 348 315 349
3 315 316 349
3 349 316 350
3 316 317 350
3 350 317 351
3 317 318 351
3 351 318 352
3 318 319 352
3 352 319 353
3 319 320 353
3 353 320 354
3 320 355 354
3 320 321 355
3 321 356 355
3 321 322 356
3 322 357 356
3 322 323 357
3 323 358 357
3 323 324 358
3 324 325 358
3 358 325 359
3 325 326 359
3 359 326 360
3 326 361 360
3 326 327 361
3 327 362 361
3 327 328 362
3 328 329 362
3 362 329 363
3 329 330 363
3 363 330 364
3 330 331 364
3 364 331 365
3 331 332 365
3 365 332 366
3 332 333 366
3 366 333 367
3 333 368 367
3 333 334 368
3 334 369 368
3 334 335 369
3 335 370 369
3 335 336 370
3 336 371 370
3 336 337 371
3 337 338 371
3 371 338 372
3 338 339 372
3 372 339 373
3 339 340 373
3 373 340 374
3 340 341 374
3 342 375 376
3 342 343 375
3 343 344 375
3 375 344 377
3 344 345 377
3 377 345 378
3 345 346 378
3 378 346 379
3 346 347 379
3 379 347 380
3 347 348 380
3 380 348 381
3 348 349 381
3 381 349 382
3 349 350 382
3 382 350 383
3 350 351 383
3 383 351 384
3 351 352 384
3 384 352 385
3 352 353 385
3 385 353 386
3 353 354 386
3 386 354 387
3 354 388 387
3 354 355 388
3 355 389 388
3 355 356 389
3 356 390 389
3 356 357 390
3 357 391 390
3 357 358 391
3 358 359 391
3 391 359 392
3 359 360 392
3 392 360 393
3 360 361 393
3 393 361 394
3 361 362 394
3 394 362 395
3 362 363 395
3 395 363 396
3 363 364 396
3 396 364 397
3 364 365 397
3 397 365 398
3 365 366 398
3 398 366 399
3 366 367 399
3 399 367 400
3 367 401 400
3 367 368 401
3 368 402 401
3 368 369 402
3 369 403 402
3 369 370 403
3 370 404 403
3 370 371 404
3 371 372 404
3 404 372 405
3 372 373 405
3 405 373 406
3 373 374 406
3 406 374 407
3 376 375 408
3 408 375 409
3 375 377 409
3 409 377 410
3 377 378 410
3 410 378 411
3 378 379 411
3 411 379 412
3 379 380 412
3 412 380 413
3 380 381 413
3 413 381 414
3 381 382 414
3 414 382 415
3 382 383 415
3 415 383 416
3 383 384 416
3 416 384 417
3 384 385 417
3 417 385 418
3 385 386 418
3 418 386 419
3 386 387 419
3 419 387 420
3 387 421 420
3 387 388 421
3 388 422 421
3 388 389 422
3 389 423 422
3 389 390 423
3 390 424 423
3 390 391 424
3 391 392 424
3 424 392 425
3 392 393 425
3 425 393 426
3 393 394 426
3 426 394 427
3 394 395 427
3 427 395 428
3 395 396 428
3 428 396 429
3 396 397 429
3 429 397 430
3 397 398 430
3 430 398 431
3 398 399 431
3 431 399 432
3 399 400 432
3 432 400 433
3 400 434 433
3 400 401 434
3 401 435 434
3 401 402 435
3 402 436 435
3 402 403 436
3 403 437 436
3 403 404 437
3 404 405 437
3 437 405 438
3 405 406 438
3 438 406 439
3 406 407 439
3 439 407 440
3 408 409 441
3 441 409 442
3 409 410 442
3 442 410 443
3 410 411 443
3 443 411 444
3 411 412 444
3 444 412 445
3 412 413 445
3 445 413 446
3 413 414 446
3 446 414 447
3 414 415 447
3 447 415 448
3 415 416 448
3 448 416 449
3 416 417 449
3 449 417 450
3 417 418 450
3 450 418 451
3 418 419 451
3 451 419 452
3 419 420 452
3 452 420 453
3 420 454 453
3 420 421 454
3 421 455 454
3 421 422 455
3 422 456 455
3 422 423 456
3 423 424 456
3 456 424 457
3 424 425 457
3 457 425 458
3 425 426 458
3 458 426 459
3 426 427 459
3 459 427 460
3 427 428 460
3 460 428 461
3 428 429 461
3 461 429 462
3 429 430 462
3 462 430 463
3 430 431 463
3 463 431 464
3 431 432 464
3 464 432 465
3 432 433 465
3 465 433 466
3 433 434 466
3 466 434 467
3 434 468 467
3 434 435 468
3 435 469 468
3 435 436 469
3 436 470 469
3 436 437 470
3 437 438 470
3 470 438 471
3 438 439 471
3 471 439 472
3 439 440 472
3 473 441 474
3 441 442 474
3 474 442 475
3 442 443 475
3 475 443 476
3 443 444 476
3 476 444 477
3 444 445 477
3 477 445 478
3 445 446 478
3 478 446 479
3 446 447 479
3 479 447 480
3 447 448 480
3 480 448 481
3 448 449 481
3 481 449 482
3 449 450 482
3 482 450 483
3 450 451 483
3 483 451 484
3 451 452 484
3 484 452 485
3 452 453 485
3 485 453 486
3 453 454 486
3 486 454 487
3 454 488 487
3 454 455 488
3 455 489 488
3 455 456 489
3 456 457 489
3 489 457 490
3 457 458 490
3 490 458 491
3 458 459 491
3 491 459 492
3 459 460 492
3 492 460 493
3 460 461 493
3 493 461 494
3 461 462 494
3 494 462 495
3 462 463 495
3 495 463 496
3 463 464 496
3 496 464 497
3 464 465 497
3 497 465 498
3 465 466 498
3 498 466 499
3 466 467 499
3 499 467 500
3 467 468 500
3 500 468 501
3 468 502 501
3 468 469 502
3 469 503 502
3 469 470 503
3 470 471 503
3 503 471 504
3 471 472 504
3 504 472 505
3 473 474 506
3 506 474 507
3 474 475 507
3 507 475 508
3 475 476 508
3 508 476 509
3 476 477 509
3 509 477 510
3 477 478 510
3 510 478 511
3 478 479 511
3 511 479 512
3 479 480 512
3 512 480 513
3 480 481 513
3 513 481 514
3 481 482 514
3 514 482 515
3 482 483 515
3 515 483 516
3 483 484 516
3 516 484 517
3 484 485 517
3 517 485 518
3 485 486 518
3 518 486 519
3 486 487 519
3 519 487 520
3 487 521 520
3 487 488 521
3 488 522 521
3 488 489 522
3 489 490 522
3 522 490 523
3 490 491 523
3 523 491 524
3 491 492 524
3 524 492 525
3 492 493 525
3 525 493 526
3 493 494 526
3 526 494 527
3 494 495 527
3 527 495 528
3 495 496 528
3 528 496 529
3 496 497 529
3 529 497 530
3 497 498 530
3 530 498 531
3 498 499 531
3 531 499 532
3 499 500 532
3 532 500 533
3 500 501 533
3 533 501 534
3 501 535 534
3 501 502 535
3 502 536 535
3 502 503 536
3 503 537 536
3 503 504 537
3 504 505 537
3 537 505 538
3 539 506 540
3 506 507 540
3 540 507 541
3 507 508 541
3 541 508 542
3 508 509 542
3 542 509 543
3 509 510 543
3 543 510 544
3 510 511 544
3 544 511 545
3 511 512 545
3 545 512 546
3 512 513 546
3 546 513 547
3 513 514 547
3 547 514 548
3 514 515 548
3 548 515 549
3 515 516 549
3 549 516 550
3 516 517 550
3 550 517 551
3 517 518 551
3 551 518 552
3 518 519 552
3 552 519 553
3 519 520 553
3 553 520 554
3 520 555 554
3 520 521 555
3 521 556 555
3 521 522 556
3 522 523 556
3 556 523 557
3 523 524 557
3 557 524 558
3 524 525 558
3 558 525 559
3 525 526 559
3 559 526 560
3 526 527 560
3 560 527 561
3 527 528 561
3 561 528 562
3 528 529 562
3 562 529 563
3 529 530 563
3 563 530 564
3 530 531 564
3 564 531 565
3 531 532 565
3 565 532 566
3 532 533 566
3 566 533 567
3 533 534 567
3 567 534 568
3 534 569 568
3 534 535 569
3 535 570 569
3 535 536 570
3 536 571 570
3 536 537 571
3 537 538 571
3 571 538 572
3 573 539 574
3 539 540 574
3 574 540 575
3 540 541 575
3 575 541 576
3 541 542 576
3 576 542 577
3 542 543 577
3 577 543 578
3 543 544 578
3 578 544 579
3 544 545 579
3 579 545 580
3 545 546 580
3 580 546 581
3 546 547 581
3 581 547 582
3 547 548 582
3 582 548 583
3 548 549 583
3 583 549 584
3 549 550 584
3 584 550 585
3 550 551 585
3 585 551 586
3 551 552 586
3 586 552 587
3 552 553 587
3 587 553 588
3 553 554 588
3 588 554 589
3 554 555 589
3 589 555 590
3 555 556 590
3 590 556 591
3 556 557 591
3 591 557 592
3 557 558 592
3 592 558 593
3 558 559 593
3 593 559 594
3 559 560 594
3 594 560 595
3 560 561 595
3 595 561 596
3 561 562 596
3 596 562 597
3 562 563 597
3 597 563 598
3 563 564 598
3 598 564 599
3 564 565 599
3 599 565 600
3 565 566 600
3 600 566 601
3 566 567 601
3 601 567 602
3 567 568 602
3 602 568 603
3 568 604 603
3 568 569 604
3 569 605 604
3 569 570 605
3 570 571 605
3 605 571 606
3 571 572 606
3 606 572 607
3 573 574 608
3 608 574 609
3 574 575 609
3 609 575 610
3 575 576 610
3 610 576 611
3 576 577 611
3 611 577 612
3 577 578 612
3 612 578 613
3 578 579 613
3 613 579 614
3 579 580 614
3 614 580 615
3 580 581 615
3 615 581 616
3 581 582 616
3 616 582 617
3 582 583 617
3 617 583 618
3 583 584 618
3 618 584 619
3 584 585 619
3 619 585 620
3 585 586 620
3 620 586 621
3 586 587 621
3 621 587 622
3 587 588 622
3 622 588 623
3 588 624 623
3 588 589 624
3 589 625 624
3 589 590 625
3 590 626 625
3 590 591 626
3 591 592 626
3 626 592 627
3 592 593 627
3 627 593 628
3 593 594 628
3 628 594 629
3 594 595 629
3 629 595 630
3 595 631 630
3 595 596 631
3 596 632 631
3 596 597 632
3 597 633 632
3 597 598 633
3 598 599 633
3 633 599 634
3 599 600 634
3 634 600 635
3 600 601 635
3 635 601 636
3 601 602 636
3 636 602 637
3 602 603 637
3 637 603 638
3 603 639 638
3 603 604 639
3 604 640 639
3 604 605 640
3 605 606 640
3 640 606 641
3 606 607 641
3 641 607 642
3 608 643 644
3 608 609 643
3 609 645 643
3 609 610 645
3 610 611 645
3 645 611 646
3 611 612 646
3 646 612 647
3 612 613 647
3 647 613 648
3 613 614 648
3 648 614 649
3 614 615 649
3 649 615 650
3 615 616 650
3 650 616 651
3 616 617 651
3 651 617 652
3 617 618 652
3 652 618 653
3 618 654 653
3 618 619 654
3 619 620 654
3 654 620 655
3 620 621 655
3 655 621 656
3 621 622 656
3 656 622 657
3 622 623 657
3 657 623 658
3 623 659 658
3 623 624 659
3 624 660 659
3 624 625 660
3 625 661 660
3 625 626 661
3 626 662 661
3 626 627 662
3 627 663 662
3 627 628 663
3 628 664 663
3 628 629 664
3 629 665 664
3 629 630 665
3 630 666 665
3 630 631 666
3 631 667 666
3 631 632 667
3 632 668 667
3 632 633 668
3 633 634 668
3 668 634 669
3 634 635 669
3 669 635 670
3 635 636 670
3 670 636 671
3 636 672 671
3 636 637 672
3 637 673 672
3 637 638 673
3 638 674 673
3 638 639 674
3 639 675 674
3 639 640 675
3 640 641 675
3 675 641 676
3 641 642 676
3 676 642 677
3 644 678 679
3 644 643 678
3 643 680 678
3 643 645 680
3 645 681 680
3 645 646 681
3 646 682 681
3 646 647 682
3 647 683 682
3 647 648 683
3 648 684 683
3 648 649 684
3 649 685 684
3 649 650 685
3 650 686 685
3 650 651 686
3 651 687 686
3 651 652 687
3 652 688 687
3 652 653 688
3 653 689 688
3 653 654 689
3 654 690 689
3 654 655 690
3 655 691 690
3 655 656 691
3 656 692 691
3 656 657 692
3 657 693 692
3 657 658 693
3 658 694 693
3 658 659 694
3 659 695 694
3 659 660 695
3 660 696 695
3 660 661 696
3 661 697 696
3 661 662 697
3 662 698 697
3 662 663 698
3 663 699 698
3 663 664 699
3 664 700 699
3 664 665 700
3 665 701 700
3 665 666 701
3 666 702 701
3 666 667 702
3 667 703 702
3 667 668 703
3 668 704 703
3 668 669 704
3 669 705 704
3 669 670 705
3 670 706 705
3 670 671 706
3 671 707 706
3 671 672 707
3 672 708 707
3 672 673 708
3 673 709 708
3 673 674 709
3 674 710 709
3 674 675 710
3 675 676 710
3 710 676 711
3 676 677 711
3 679 712 713
3 679 678 712
3 678 714 712
3 678 680 714
3 680 715 714
3 680 681 715
3 681 716 715
3 681 682 716
3 682 717 716
3 682 683 717
3 683 718 717
3 683 684 718
3 684 719 718
3 684 685 719
3 685 720 719
3 685 686 720
3 686 721 720
3 686 687 721
3 687 722 721
3 687 688 722
3 688 723 722
3 688 689 723
3 689 724 723
3 689 690 724
3 690 725 724
3 690 691 725
3 691 726 725
3 691 692 726
3 692 727 726
3 692 693 727
3 693 728 727
3 693 694 728
3 694 729 728
3 694 695 729
3 695 730 729
3 695 696 730
3 696 731 730
3 696 697 731
3 697 732 731
3 697 698 732
3 698 733 732
3 698 699 733
3 699 734 733
3 699 700 734
3 700 735 734
3 700 701 735
3 701 736 735
3 701 702 736
3 702 737 736
3 702 703 737
3 703 738 737
3 703 704 738
3 704 739 738
3 704 705 739
3 705 740 739
3 705 706 740
3 706 741 740
3 706 707 741
3 707 742 741
3 707 708 742
3 708 743 742
3 708 709 743
3 709 744 743
3 709 710 744
3 710 711 744
3 744 711 745
3 713 746 747
3 713 712 746
3 712 748 746
3 712 714 748
3 714 749 748
3 714 715 749
3 715 750 749
3 715 716 750
3 716 751 750
3 716 717 751
3 717 752 751
3 717 718 752
3 718 753 752
3 718 719 753
3 719 754 753
3 719 720 754
3 720 755 754
3 720 721 755
3 721 756 755
3 721 722 756
3 722 757 756
3 722 723 757
3 723 758 757
3 723 724 758
3 724 725 758
3 758 725 759
3 725 726 759
3 759 726 760
3 726 761 760
3 726 727 761
3 727 762 761
3 727 728 762
3 728 763 762
3 728 729 763
3 729 764 763
3 729 730 764
3 730 765 764
3 730 731 765
3 731 766 765
3 731 732 766
3 732 767 766
3 732 733 767
3 733 768 767
3 733 734 768
3 734 769 768
3 734 735 769
3 735 770 769
3 735 736 770
3 736 771 770
3 736 737 771
3 737 772 771
3 737 738 772
3 738 773 772
3 738 739 773
3 739 774 773
3 739 740 774
3 740 775 774
3 740 741 775
3 741 776 775
3 741 742 776
3 742 777 776
3 742 743 777
3 743 778 777
3 743 744 778
3 744 745 778
3 778 745 779
3 747 780 781
3 747 746 780
3 746 782 780
3 746 748 782
3 748 783 782
3 748 749 783
3 749 784 783
3 749 750 784
3 750 751 784
3 784 751 785
3 751 786 785
3 751 752 786
3 752 753 786
3 786 753 787
3 753 754 787
3 787 754 788
3 754 755 788
3 788 755 789
3 755 756 789
3 789 756 790
3 756 791 790
3 756 757 791
3 757 758 791
3 791 758 792
3 758 759 792
3 792 759 793
3 759 760 793
3 793 760 794
3 760 795 794
3 760 761 795
3 761 796 795
3 761 762 796
3 762 797 796
3 762 763 797
3 763 798 797
3 763 764 798
3 764 799 798
3 764 765 799
3 765 800 799
3 765 766 800
3 766 801 800
3 766 767 801
3 767 802 801
3 767 768 802
3 768 803 802
3 768 769 803
3 769 804 803
3 769 770 804
3 770 805 804
3 770 771 805
3 771 806 805
3 771 772 806
3 772 807 806
3 772 773 807
3 773 808 807
3 773 774 808
3 774 809 808
3 774 775 809
3 775 810 809
3 775 776 810
3 776 811 810
3 776 777 811
3 777 812 811
3 777 778 812
3 778 779 812
3 812 779 813
3 781 814 815
3 781 780 814
3 780 816 814
3 780 782 816
3 782 817 816
3 782 783 817
3 783 784 817
3 817 784 818
3 784 785 818
3 818 785 819
3 785 786 819
3 819 786 820
3 786 787 820
3 820 787 821
3 787 788 821
3 821 788 822
3 788 789 822
3 822 789 823
3 789 790 823
3 823 790 824
3 790 825 824
3 790 791 825
3 791 792 825
3 825 792 826
3 792 793 826
3 826 793 827
3 793 794 827
3 827 794 828
3 794 795 828
3 828 795 829
3 795 830 829
3 795 796 830
3 796 831 830
3 796 797 831
3 797 832 831
3 797 798 832
3 798 833 832
3 798 799 833
3 799 834 833
3 799 800 834
3 800 835 834
3 800 801 835
3 801 836 835
3 801 802 836
3 802 837 836
3 802 803 837
3 803 838 837
3 803 804 838
3 804 839 838
3 804 805 839
3 805 806 839
3 839 806 840
3 806 807 840
3 840 807 841
3 807 808 841
3 841 808 842
3 808 843 842
3 808 809 843
3 809 844 843
3 809 810 844
3 810 845 844
3 810 811 845
3 811 846 845
3 811 812 846
3 812 813 846
3 846 813 847
3 815 848 849
3 815 814 848
3 814 850 848
3 814 816 850
3 816 851 850
3 816 817 851
3 817 852 851
3 817 818 852
3 818 819 852
3 852 819 853
3 819 820 853
3 853 820 854
3 820 855 854
3 820 821 855
3 821 822 855
3 855 822 856
3 822 823 856
3 856 823 857
3 823 824 857
3 857 824 858
3 824 859 858
3 824 825 859
3 825 826 859
3 859 826 860
3 826 827 860
3 860 827 861
3 827 828 861
3 861 828 862
3 828 863 862
3 828 829 863
3 829 864 863
3 829 830 864
3 830 865 864
3 830 831 865
3 831 866 865
3 831 832 866
3 832 867 866
3 832 833 867
3 833 868 867
3 833 834 868
3 834 869 868
3 834 835 869
3 835 870 869
3 835 836 870
3 836 871 870
3 836 837 871
3 837 872 871
3 837 838 872
3 838 873 872
3 838 839 873
3 839 874 873
3 839 840 874
3 840 875 874
3 840 841 875
3 841 876 875
3 841 842 876
3 842 877 876
3 842 843 877
3 843 878 877
3 843 844 878
3 844 879 878
3 844 845 879
3 845 880 879
3 845 846 880
3 846 847 880
3 880 847 881
3 849 882 883
3 849 848 882
3 848 884 882
3 848 850 884
3 850 885 884
3 850 851 885
3 851 886 885
3 851 852 886
3 852 887 886
3 852 853 887
3 853 888 887
3 853 854 888
3 854 889 888
3 854 855 889
3 855 890 889
3 855 856 890
3 856 891 890
3 856 857 891
3 857 892 891
3 857 858 892
3 858 893 892
3 858 859 893
3 859 894 893
3 859 860 894
3 860 895 894
3 860 861 895
3 861 896 895
3 861 862 896
3 862 897 896
3 862 863 897
3 863 898 897
3 863 864 898
3 864 899 898
3 864 865 899
3 865 900 899
3 865 866 900
3 866 901 900
3 866 867 901
3 867 902 901
3 867 868 902
3 868 903 902
3 868 869 903
3 869 904 903
3 869 870 904
3 870 905 904
3 870 871 905
3 871 906 905
3 871 872 906
3 872 907 906
3 872 873 907
3 873 908 907
3 873 874 908
3 874 909 908
3 874 875 909
3 875 910 909
3 875 876 910
3 876 911 910
3 876 877 911
3 877 912 911
3 877 878 912
3 878 913 912
3 878 879 913
3 879 914 913
3 879 880 914
3 880 915 914
3 880 881 915
3 883 916 917
3 883 882 916
3 882 918 916
3 882 884 918
3 884 919 918
3 884 885 919
3 885 920 919
3 885 886 920
3 886 921 920
3 886 887 921
3 887 922 921
3 887 888 922
3 888 923 922
3 888 889 923
3 889 924 923
3 889 890 924
3 890 925 924
3 890 891 925
3 891 926 925
3 891 892 926
3 892 927 926
3 892 893 927
3 893 928 927
3 893 894 928
3 894 929 928
3 894 895 929
3 895 930 929
3 895 896 930
3 896 931 930
3 896 897 931
3 897 932 931
3 897 898 932
3 898 933 932
3 898 899 933
3 899 934 933
3 899 900 934
3 900 935 934
3 900 901 935
3 901 936 935
3 901 902 936
3 902 937 936
3 902 903 937
3 903 938 937
3 903 904 938
3 904 939 938
3 904 905 939
3 905 940 939
3 905 906 940
3 906 941 940
3 906 907 941
3 907 942 941
3 907 908 942
3 908 943 942
3 908 909 943
3 909 944 943
3 909 910 944
3 910 945 944
3 910 911 945
3 911 946 945
3 911 912 946
3 912 947 946
3 912 913 947
3 913 948 947
3 913 914 948
3 914 949 948
3 914 915 949
3 950 951 952
3 950 917 951
3 917 953 951
3 917 916 953
3 916 954 953
3 916 918 954
3 918 955 954
3 918 919 955
3 919 956 955
3 919 920 956
3 920 921 956
3 956 921 957
3 921 958 957
3 921 922 958
3 922 959 958
3 922 923 959
3 923 960 959
3 923 924 960
3 924 925 960
3 960 925 961
3 925 926 961
3 961 926 962
3 926 963 962
3 926 927 963
3 927 964 963
3 927 928 964
3 928 929 964
3 964 929 965
3 929 930 965
3 965 930 966
3 930 967 966
3 930 931 967
3 931 968 967
3 931 932 968
3 932 969 968
3 932 933 969
3 933 970 969
3 933 934 970
3 934 971 970
3 934 935 971
3 935 972 971
3 935 936 972
3 936 973 972
3 936 937 973
3 937 974 973
3 937 938 974
3 938 975 974
3 938 939 975
3 939 976 975
3 939 940 976
3 940 977 976
3 940 941 977
3 941 978 977
3 941 942 978
3 942 979 978
3 942 943 979
3 943 980 979
3 943 944 980
3 944 981 980
3 944 945 981
3 945 982 981
3 945 946 982
3 946 983 982
3 946 947 983
3 947 984 983
3 947 948 984
3 948 985 984
3 948 949 985
3 952 986 987
3 952 951 986
3 951 988 986
3 951 953 988
3 953 989 988
3 953 954 989
3 954 990 989
3 954 955 990
3 955 956 990
3 990 956 991
3 956 957 991
3 991 957 992
3 957 993 992
3 957 958 993
3 958 994 993
3 958 959 994
3 959 995 994
3 959 960 995
3 960 961 995
3 995 961 996
3 961 962 996
3 996 962 997
3 962 998 997
3 962 963 998
3 963 999 998
3 963 964 999
3 964 965 999
3 999 965 1000
3 965 966 1000
3 1000 966 1001
3 966 967 1001
3 1001 967 1002
3 967 1003 1002
3 967 968 1003
3 968 1004 1003
3 968 969 1004
3 969 1005 1004
3 969 970 1005
3 970 1006 1005
3 970 971 1006
3 971 972 1006
3 1006 972 1007
3 972 973 1007
3 1007 973 1008
3 973 1009 1008
3 973 974 1009
3 974 1010 1009
3 974 975 1010
3 975 1011 1010
3 975 976 1011
3 976 1012 1011
3 976 977 1012
3 977 978 1012
3 1012 978 1013
3 978 1014 1013
3 978 979 1014
3 979 1015 1014
3 979 980 1015
3 980 1016 1015
3 980 981 1016
3 981 1017 1016
3 981 982 1017
3 982 1018 1017
3 982 983 1018
3 983 1019 1018
3 983 984 1019
3 984 1020 1019
3 984 985 1020
3 987 1021 1022
3 987 986 1021
3 986 1023 1021
3 986 988 1023
3 988 1024 1023
3 988 989 1024
3 989 1025 1024
3 989 990 1025
3 990 991 1025
3 1025 991 1026
3 991 992 1026
3 1026 992 1027
3 992 1028 1027
3 992 993 1028
3 993 1029 1028
3 993 994 1029
3 994 1030 1029
3 994 995 1030
3 995 996 1030
3 1030 996 1031
3 996 997 1031
3 1031 997 1032
3 997 1033 1032
3 997 998 1033
3 998 1034 1033
3 998 999 1034
3 999 1000 1034
3 1034 1000 1035
3 1000 1001 1035
3 1035 1001 1036
3 1001 1037 1036
3 1001 1002 1037
3 1002 1038 1037
3 1002 1003 1038
3 1003 1039 1038
3 1003 1004 1039
3 1004 1040 1039
3 1004 1005 1040
3 1005 1041 1040
3 1005 1006 1041
3 1006 1042 1041
3 1006 1007 1042
3 1007 1043 1042
3 1007 1008 1043
3 1008 1044 1043
3 1008 1009 1044
3 1009 1045 1044
3 1009 1010 1045
3 1010 1046 1045
3 1010 1011 1046
3 1011 1012 1046
3 1046 1012 1047
3 1012 1013 1047
3 1047 1013 1048
3 1013 1049 1048
3 1013 1014 1049
3 1014 1050 1049
3 1014 1015 1050
3 1015 1051 1050
3 1015 1016 1051
3 1016 1052 1051
3 1016 1017 1052
3 1017 1053 1052
3 1017 1018 1053
3 1018 1054 1053
3 1018 1019 1054
3 1019 1055 1054
3 1019 1020 1055
3 1022 1056 1057
3 1022 1021 1056
3 1021 1058 1056
3 1021 1023 1058
3 1023 1059 1058
3 1023 1024 1059
3 1024 1060 1059
3 1024 1025 1060
3 1025 1061 1060
3 1025 1026 1061
3 1026 1062 1061
3 1026 1027 1062
3 1027 1063 1062
3 1027 1028 1063
3 1028 1064 1063
3 1028 1029 1064
3 1029 1065 1064
3 1029 1030 1065
3 1030 1031 1065
3 1065 1031 1066
3 1031 1067 1066
3 1031 1032 1067
3 1032 1068 1067
3 1032 1033 1068
3 1033 1069 1068
3 1033 1034 1069
3 1034 1035 1069
3 1069 1035 1070
3 1035 1036 1070
3 1070 1036 1071
3 1036 1072 1071
3 1036 1037 1072
3 1037 1073 1072
3 1037 1038 1073
3 1038 1074 1073
3 1038 1039 1074
3 1039 1075 1074
3 1039 1040 1075
3 1040 1076 1075
3 1040 1041 1076
3 1041 1077 1076
3 1041 1042 1077
3 1042 1078 1077
3 1042 1043 1078
3 1043 1079 1078
3 1043 1044 1079
3 1044 1080 1079
3 1044 1045 1080
3 1045 1081 1080
3 1045 1046 1081
3 1046 1082 1081
3 1046 1047 1082
3 1047 1048 1082
3 1082 1048 1083
3 1048 1084 1083
3 1048 1049 1084
3 1049 1085 1084
3 1049 1050 1085
3 1050 1086 1085
3 1050 1051 1086
3 1051 1087 1086
3 1051 1052 1087
3 1052 1088 1087
3 1052 1053 1088
3 1053 1089 1088
3 1053 1054 1089
3 1054 1090 1089
3 1054 1055 1090
3 1057 1091 1092
3 1057 1056 1091
3 1056 1093 1091
3 1056 1058 1093
3 1058 1094 1093
3 1058 1059 1094
3 1059 1095 1094
3 1059 1060 1095
3 1060 1096 1095
3 1060 1061 1096
3 1061 1097 1096
3 1061 1062 1097
3 1062 1098 1097
3 1062 1063 1098
3 1063 1099 1098
3 1063 1064 1099
3 1064 1100 1099
3 1064 1065 1100
3 1065 1101 1100
3 1065 1066 1101
3 1066 1102 1101
3 1066 1067 1102
3 1067 1103 1102
3 1067 1068 1103
3 1068 1104 1103
3 1068 1069 1104
3 1069 1070 1104
3 1104 1070 1105
3 1070 1071 1105
3 1105 1071 1106
3 1071 1107 1106
3 1071 1072 1107
3 1072 1108 1107
3 1072 1073 1108
3 1073 1109 1108
3 1073 1074 1109
3 1074 1110 1109
3 1074 1075 1110
3 1075 1111 1110
3 1075 1076 1111
3 1076 1112 1111
3 1076 1077 1112
3 1077 1113 1112
3 1077 1078 1113
3 1078 1114 1113
3 1078 1079 1114
3 1079 1115 1114
3 1079 1080 1115
3 1080 1116 1115
3 1080 1081 1116
3 1081 1117 1116
3 1081 1082 1117
3 1082 1118 1117
3 1082 1083 1118
3 1083 1119 1118
3 1083 1084 1119
3 1084 1120 1119
3 1084 1085 1120
3 1085 1121 1120
3 1085 1086 1121
3 1086 1122 1121
3 1086 1087 1122
3 1087 1123 1122
3 1087 1088 1123
3 1088 1124 1123
3 1088 1089 1124
3 1089 1125 1124
3 1089 1090 1125
3 1093 1094 1126
3 1094 1095 1127
3 1095 1128 1127
3 1095 1096 1128
3 1096 1129 1128
3 1096 1097 1129
3 1097 1130 1129
3 1097 1098 1130
3 1098 1131 1130
3 1098 1099 1131
3 1099 1132 1131
3 1099 1100 1132
3 1100 1133 1132
3 1100 1101 1133
3 1101 1134 1133
3 1101 1102 1134
3 1102 1135 1134
3 1102 1103 1135
3 1103 1136 1135
3 1103 1104 1136
3 1104 1105 1136
3 1136 1105 1137
3 1105 1106 1137
3 1137 1106 1138
3 1106 1139 1138
3 1106 1107 1139
3 1107 1140 1139
3 1107 1108 1140
3 1108 1141 1140
3 1108 1109 1141
3 1109 1142 1141
3 1109 1110 1142
3 1110 1143 1142
3 1110 1111 1143
3 1111 1144 1143
3 1111 1112 1144
3 1112 1145 1144
3 1112 1113 1145
3 1113 1146 1145
3 1113 1114 1146
3 1114 1147 1146
3 1114 1115 1147
3 1115 1148 1147
3 1115 1116 1148
3 1116 1149 1148
3 1116 1117 1149
3 1117 1118 1149
3 1149 1118 1150
3 1118 1151 1150
3 1118 1119 1151
3 1119 1152 1151
3 1119 1120 1152
3 1120 1153 1152
3 1120 1121 1153
3 1121 1154 1153
3 1121 1122 1154
3 1122 1155 1154
3 1122 1123 1155
3 1123 1156 1155
3 1123 1124 1156
3 1124 1157 1156
3 1124 1125 1157
3 1139 1140 1158
3 1140 1159 1158
3 1140 1141 1159
3 1141 1160 1159
3 1141 1142 1160
3 1142 1161 1160
3 1142 1143 1161
3 1143 1162 1161
3 1143 1144 1162
3 1144 1163 1162
3 1144 1145 1163
3 1145 1164 1163
3 1145 1146 1164
3 1146 1165 1164
3 1146 1147 1165
3 1147 1166 1165
3 1147 1148 1166
3 1148 1167 1166
3 1148 1149 1167
3 1149 1168 1167
3 1149 1150 1168
3 1150 1169 1168
3 1150 1151 1169
3 1151 1170 1169
3 1151 1152 1170
3 1152 1171 1170
3 1152 1153 1171
3 1153 1172 1171
3 1153 1154 1172
3 1154 1173 1172
3 1154 1155 1173
3 1155 1174 1173
3 1155 1156 1174
3 1156 1175 1174
3 1156 1157 1175
3 1160 1161 1176
3 1161 1177 1176
3 1161 1162 1177
3 1162 1178 1177
3 1162 1163 1178
3 1163 1179 1178
3 1163 1164 1179
3 1164 1180 1179
3 1164 1165 1180
3 1165 1181 1180
3 1165 1166 1181
3 1166 1182 1181
3 1166 1167 1182
3 1167 1183 1182
3 1167 1168 1183
3 1168 1184 1183
3 1168 1169 1184
3 1169 1185 1184
3 1169 1170 1185
3 1170 1186 1185
3 1170 1171 1186
3 1171 1187 1186
3 1171 1172 1187
3 1172 1188 1187
3 1172 1173 1188
3 1173 1189 1188
3 1173 1174 1189
3 1174 1190 1189
3 1174 1175 1190
3 1180 1181 1191
3 1181 1192 1191
3 1181 1182 1192
3 1182 1193 1192
3 1182 1183 1193
3 1183 1194 1193
3 1183 1184 1194
3 1184 1195 1194
3 1184 1185 1195
3 1185 1196 1195
3 1185 1186 1196
3 1186 1197 1196
3 1186 1187 1197
3 1187 1198 1197
3 1187 1188 1198
3 1188 1199 1198
3 1188 1189 1199
3 1189 1200 1199
3 1189 1190 1200
3 1196 1197 1201
3 1197 1202 1201
3 1197 1198 1202
3 1198 1203 1202
3 1198 1199 1203
3 1199 1204 1203
3 1199 1200 1204
CELL_DATA 2267
SCALARS brightness_temperature float
LOOKUP_TABLE default
POINT_DATA 1205
CELL_DATA 2267
SCALARS emission_angle float
LOOKUP_TABLE default
POINT_DATA 1205
CELL_DATA 2267
SCALARS incidence_angle float
LOOKUP_TABLE default
POINT_DATA 1205
CELL_DATA 2267
SCALARS phase_angle float
LOOKUP_TABLE default
POINT_DATA 1205
CELL_DATA 2267
SCALARS local_solar_time float
LOOKUP_TABLE default
POINT_DATA 1205
CELL_DATA 2267
SCALARS local_solar_time_normal_vector float
LOOKUP_TABLE default
CELL_DATA 2267
SCALARS pixel_x float
LOOKUP_TABLE default
POINT_DATA 1205
CELL_DATA 2267
SCALARS pixel_y float
LOOKUP_TABLE default
POINT_DATA 1205
CELL_DATA 2267
SCALARS longitude float
LOOKUP_TABLE default
POINT_DATA 1205
CELL_DATA 2267
SCALARS latitude float
LOOKUP_TABLE default
