# vtk DataFile Version 3.0
SHAPE_sfm_50k_v20200323
ASCII
DATASET POLYDATA
POINTS 277 float
0.35186 -0.37425 0.02463
0.3551 -0.37291 0.02251
0.35467 -0.37239 0.02499
0.35246 -0.37502 0.02224
0.35547 -0.37356 0.02005
0.3529 -0.37575 0.01981
0.3557 -0.37401 0.01753
0.35333 -0.37645 0.01736
0.35579 -0.37436 0.01499
0.35355 -0.37691 0.01483
0.35607 -0.37477 0.01246
0.35361 -0.37713 0.01226
0.35619 -0.37494 0.00989
0.35371 -0.37726 0.00968
0.35686 -0.37543 0.00741
0.35432 -0.37776 0.00719
0.35416 -0.3773 0.00464
0.34984 -0.36616 0.04672
0.35352 -0.36547 0.04464
0.35281 -0.36479 0.04702
0.35058 -0.36699 0.0444
0.35396 -0.36596 0.04217
0.35111 -0.36763 0.04197
0.3543 -0.36651 0.03969
0.35144 -0.36817 0.03948
0.35475 -0.36711 0.03723
0.35191 -0.36883 0.03703
0.3553 -0.36785 0.03484
0.35245 -0.36957 0.03463
0.35585 -0.36858 0.03245
0.35307 -0.37045 0.03229
0.35647 -0.36936 0.03008
0.3538 -0.37146 0.03
0.35708 -0.37004 0.02766
0.35419 -0.37184 0.02746
0.35737 -0.37032 0.02511
0.35774 -0.37075 0.02262
0.3579 -0.37119 0.02009
0.35807 -0.37159 0.01757
0.35815 -0.3719 0.01503
0.35825 -0.37215 0.01248
0.35843 -0.37237 0.00993
0.35866 -0.37247 0.00739
0.35675 -0.3751 0.00482
0.35875 -0.37232 0.00484
0.3552 -0.36259 0.04658
0.35601 -0.36332 0.04427
0.3565 -0.36386 0.04182
0.3569 -0.36449 0.03938
0.35742 -0.36517 0.03696
0.35805 -0.36597 0.03462
0.35857 -0.36663 0.0322
0.35907 -0.36722 0.02976
0.35936 -0.36754 0.02723
0.35948 -0.36769 0.02468
0.3597 -0.368 0.02216
0.36009 -0.36862 0.01971
0.36051 -0.36925 0.01726
0.36055 -0.36952 0.01472
0.36063 -0.36974 0.01217
0.36082 -0.36994 0.00964
0.36096 -0.36996 0.0071
0.36097 -0.36972 0.00456
0.35745 -0.36024 0.04617
0.35817 -0.36088 0.04382
0.35876 -0.3615 0.04143
0.35924 -0.36219 0.03902
0.35986 -0.36296 0.03667
0.36029 -0.36354 0.03424
0.36052 -0.36393 0.03174
0.36083 -0.36436 0.02925
0.36116 -0.3647 0.02674
0.36166 -0.36513 0.02428
0.36209 -0.36562 0.02181
0.36247 -0.36624 0.01937
0.36274 -0.36672 0.01688
0.36296 -0.36715 0.01438
0.36327 -0.36758 0.01189
0.36334 -0.36767 0.00933
0.36339 -0.36757 0.00679
0.36346 -0.36738 0.00427
0.3597 -0.35793 0.0455
0.36043 -0.35856 0.04317
0.36095 -0.35912 0.04075
0.36146 -0.35983 0.03837
0.36211 -0.3606 0.03605
0.36242 -0.36105 0.03359
0.36265 -0.3614 0.0311
0.36293 -0.36177 0.0286
0.36343 -0.36224 0.02614
0.36411 -0.36285 0.02377
0.36472 -0.36351 0.02139
0.3648 -0.36382 0.01887
0.36506 -0.36429 0.01639
0.36536 -0.36479 0.01393
0.36548 -0.36503 0.0114
0.3657 -0.36525 0.00889
0.36592 -0.36531 0.00637
0.36597 -0.3651 0.00385
0.36193 -0.35564 0.04469
0.36251 -0.35613 0.04228
0.36308 -0.35672 0.03989
0.36363 -0.35746 0.03753
0.36432 -0.35824 0.03524
0.3648 -0.35882 0.03285
0.36514 -0.35923 0.03039
0.36555 -0.3597 0.02794
0.36602 -0.36013 0.02549
0.36654 -0.36059 0.02306
0.36693 -0.36103 0.02063
0.36712 -0.36143 0.01815
0.36746 -0.36197 0.0157
0.36776 -0.36247 0.01325
0.36793 -0.36275 0.01075
0.36798 -0.36279 0.00822
0.36811 -0.36276 0.00571
0.36825 -0.36263 0.00321
0.36425 -0.35342 0.04387
0.36487 -0.35394 0.04149
0.36543 -0.3545 0.03909
0.36602 -0.35527 0.03677
0.36666 -0.35601 0.03446
0.36717 -0.3566 0.03208
0.36762 -0.3571 0.02965
0.36824 -0.35779 0.02731
0.36886 -0.35835 0.02494
0.36907 -0.35843 0.02242
0.3695 -0.3589 0.01999
0.36975 -0.35937 0.01753
0.37011 -0.35994 0.0151
0.3704 -0.36041 0.01264
0.37037 -0.36046 0.01013
0.37044 -0.36051 0.00761
0.37048 -0.36038 0.0051
0.37056 -0.36018 0.0026
0.36674 -0.35136 0.04318
0.36733 -0.35183 0.04078
0.36797 -0.35245 0.03843
0.36853 -0.35318 0.0361
0.36907 -0.35381 0.03374
0.36956 -0.35437 0.03135
0.37013 -0.35499 0.02899
0.37058 -0.3555 0.02659
0.37112 -0.35595 0.0242
0.37159 -0.35629 0.02176
0.37203 -0.35675 0.01933
0.37241 -0.35736 0.01693
0.37277 -0.3579 0.0145
0.3728 -0.35809 0.012
0.37271 -0.35806 0.00949
0.37272 -0.35805 0.00698
0.3728 -0.35794 0.00448
0.3729 -0.35775 0.00199
0.36913 -0.34911 0.04296
0.36981 -0.34964 0.04062
0.3705 -0.35031 0.03832
0.37103 -0.35101 0.03599
0.37159 -0.35163 0.03364
0.37207 -0.35217 0.03125
0.37258 -0.3527 0.02887
0.37308 -0.35323 0.02649
0.37351 -0.35356 0.02405
0.37402 -0.35393 0.02164
0.37442 -0.35436 0.01922
0.37464 -0.35481 0.01678
0.37492 -0.35527 0.01434
0.37522 -0.3557 0.01191
0.37521 -0.35575 0.00942
0.37515 -0.35566 0.00693
0.37527 -0.35558 0.00443
0.37539 -0.35539 0.00194
0.37156 -0.34686 0.04283
0.3724 -0.34758 0.04061
0.37303 -0.34817 0.03828
0.37353 -0.34882 0.03594
0.37409 -0.34944 0.03359
0.37456 -0.34995 0.03121
0.37499 -0.35037 0.02879
0.37564 -0.35104 0.02647
0.37606 -0.35134 0.02405
0.37653 -0.35166 0.02164
0.3768 -0.35194 0.01919
0.37699 -0.35235 0.01674
0.3772 -0.35274 0.01429
0.37745 -0.35314 0.01185
0.37762 -0.35335 0.0094
0.37763 -0.3533 0.00691
0.37773 -0.35319 0.00442
0.37794 -0.3531 0.00193
0.37551 -0.35535 -0.00056
0.37824 -0.35327 -0.00054
0.37424 -0.34493 0.04255
0.37491 -0.34544 0.04021
0.37557 -0.34608 0.03791
0.37604 -0.34669 0.03555
0.37661 -0.34731 0.0332
0.37705 -0.34777 0.03081
0.37746 -0.34816 0.02838
0.37803 -0.34873 0.02602
0.37862 -0.34918 0.02366
0.37905 -0.34945 0.02123
0.37936 -0.34975 0.01879
0.3795 -0.3501 0.01634
0.3797 -0.35047 0.01389
0.3799 -0.35082 0.01143
0.37996 -0.35092 0.00895
0.38009 -0.35098 0.00647
0.3804 -0.35109 0.00399
0.38064 -0.35099 0.0015
0.381 -0.35122 -0.00099
0.37704 -0.3434 0.04174
0.37769 -0.34387 0.03938
0.37823 -0.34434 0.037
0.37869 -0.34492 0.03461
0.37928 -0.34556 0.03228
0.37968 -0.34594 0.02986
0.38008 -0.34628 0.02742
0.38057 -0.34675 0.02501
0.38111 -0.34714 0.02263
0.38159 -0.34746 0.02021
0.38193 -0.34779 0.01777
0.38208 -0.34815 0.01532
0.38221 -0.34843 0.01285
0.38236 -0.34872 0.01038
0.38253 -0.34892 0.0079
0.38285 -0.34921 0.00545
0.3831 -0.34922 0.00296
0.38351 -0.3493 0.00046
0.37944 -0.34174 0.0415
0.38009 -0.3422 0.03911
0.38063 -0.34265 0.03672
0.38106 -0.34318 0.0343
0.3816 -0.34374 0.03192
0.38202 -0.34413 0.02949
0.3825 -0.34456 0.02706
0.38298 -0.345 0.02465
0.38356 -0.34544 0.02225
0.38385 -0.34554 0.01977
0.3841 -0.34576 0.01728
0.38432 -0.34618 0.01482
0.38452 -0.34652 0.01235
0.38481 -0.34696 0.0099
0.385 -0.34718 0.0074
0.38542 -0.3476 0.00496
0.38589 -0.34793 0.00252
0.38647 -0.34834 6e-05
0.38413 -0.34993 -0.00197
0.3817 -0.33991 0.04133
0.38231 -0.34029 0.03889
0.38283 -0.34071 0.03646
0.38329 -0.34126 0.03405
0.38381 -0.34178 0.03164
0.38431 -0.34225 0.02921
0.38486 -0.34274 0.0268
0.38528 -0.34312 0.02434
0.38571 -0.34338 0.02187
0.38602 -0.3435 0.01937
0.3863 -0.34375 0.01688
0.38661 -0.34423 0.01442
0.38705 -0.34485 0.01201
0.38725 -0.34518 0.00951
0.38765 -0.34566 0.00708
0.38836 -0.34654 0.00481
0.3843 -0.33814 0.03904
0.38483 -0.33855 0.0366
0.3852 -0.33901 0.03414
0.38565 -0.33945 0.03168
0.38601 -0.3398 0.0292
0.38647 -0.34021 0.02673
0.38706 -0.34071 0.02432
0.38767 -0.34111 0.0219
0.38812 -0.34134 0.01941
0.38842 -0.34161 0.01692
0.38612 -0.33584 0.03893
0.38666 -0.33624 0.03648
0.38705 -0.3367 0.03403
0.38744 -0.33708 0.03155
POLYGONS 486 1944
3 0 1 2
3 0 3 1
3 3 4 1
3 3 5 4
3 5 6 4
3 5 7 6
3 7 8 6
3 7 9 8
3 9 10 8
3 9 11 10
3 11 12 10
3 11 13 12
3 13 14 12
3 13 15 14
3 15 16 14
3 17 18 19
3 17 20 18
3 20 21 18
3 20 22 21
3 22 23 21
3 22 24 23
3 24 25 23
3 24 26 25
3 26 27 25
3 26 28 27
3 28 29 27
3 28 30 29
3 30 31 29
3 30 32 31
3 32 33 31
3 32 34 33
3 34 35 33
3 34 2 35
3 2 36 35
3 2 1 36
3 1 37 36
3 1 4 37
3 4 38 37
3 4 6 38
3 6 39 38
3 6 8 39
3 8 40 39
3 8 10 40
3 10 41 40
3 10 12 41
3 12 14 41
3 41 14 42
3 14 43 42
3 42 43 44
3 19 18 45
3 45 18 46
3 18 21 46
3 46 21 47
3 21 23 47
3 47 23 48
3 23 25 48
3 48 25 49
3 25 27 49
3 49 27 50
3 27 29 50
3 50 29 51
3 29 31 51
3 51 31 52
3 31 33 52
3 52 33 53
3 33 35 53
3 53 35 54
3 35 36 54
3 54 36 55
3 36 37 55
3 55 37 56
3 37 38 56
3 56 38 57
3 38 39 57
3 57 39 58
3 39 40 58
3 58 40 59
3 40 41 59
3 59 41 60
3 41 42 60
3 60 42 61
3 42 44 61
3 61 44 62
3 45 46 63
3 63 46 64
3 46 47 64
3 64 47 65
3 47 48 65
3 65 48 66
3 48 49 66
3 66 49 67
3 49 50 67
3 67 50 68
3 50 51 68
3 68 51 69
3 51 52 69
3 69 52 70
3 52 53 70
3 70 53 71
3 53 54 71
3 71 54 72
3 54 55 72
3 72 55 73
3 55 56 73
3 73 56 74
3 56 57 74
3 74 57 75
3 57 58 75
3 75 58 76
3 58 59 76
3 76 59 77
3 59 60 77
3 77 60 78
3 60 61 78
3 78 61 79
3 61 62 79
3 79 62 80
3 63 64 81
3 81 64 82
3 64 65 82
3 82 65 83
3 65 66 83
3 83 66 84
3 66 67 84
3 84 67 85
3 67 68 85
3 85 68 86
3 68 69 86
3 86 69 87
3 69 70 87
3 87 70 88
3 70 71 88
3 88 71 89
3 71 72 89
3 89 72 90
3 72 73 90
3 90 73 91
3 73 74 91
3 91 74 92
3 74 75 92
3 92 75 93
3 75 76 93
3 93 76 94
3 76 77 94
3 94 77 95
3 77 78 95
3 95 78 96
3 78 79 96
3 96 79 97
3 79 80 97
3 97 80 98
3 81 82 99
3 99 82 100
3 82 83 100
3 100 83 101
3 83 84 101
3 101 84 102
3 84 85 102
3 102 85 103
3 85 86 103
3 103 86 104
3 86 87 104
3 104 87 105
3 87 88 105
3 105 88 106
3 88 89 106
3 106 89 107
3 89 90 107
3 107 90 108
3 90 91 108
3 108 91 109
3 91 92 109
3 109 92 110
3 92 93 110
3 110 93 111
3 93 94 111
3 111 94 112
3 94 95 112
3 112 95 113
3 95 96 113
3 113 96 114
3 96 97 114
3 114 97 115
3 97 98 115
3 115 98 116
3 99 100 117
3 117 100 118
3 100 101 118
3 118 101 119
3 101 102 119
3 119 102 120
3 102 103 120
3 120 103 121
3 103 104 121
3 121 104 122
3 104 105 122
3 122 105 123
3 105 106 123
3 123 106 124
3 106 107 124
3 124 107 125
3 107 108 125
3 125 108 126
3 108 109 126
3 126 109 127
3 109 110 127
3 127 110 128
3 110 111 128
3 128 111 129
3 111 112 129
3 129 112 130
3 112 113 130
3 130 113 131
3 113 114 131
3 131 114 132
3 114 115 132
3 132 115 133
3 115 116 133
3 133 116 134
3 117 118 135
3 135 118 136
3 118 119 136
3 136 119 137
3 119 120 137
3 137 120 138
3 120 121 138
3 138 121 139
3 121 122 139
3 139 122 140
3 122 123 140
3 140 123 141
3 123 124 141
3 141 124 142
3 124 125 142
3 142 125 143
3 125 126 143
3 143 126 144
3 126 127 144
3 144 127 145
3 127 128 145
3 145 128 146
3 128 129 146
3 146 129 147
3 129 130 147
3 147 130 148
3 130 131 148
3 148 131 149
3 131 132 149
3 149 132 150
3 132 133 150
3 150 133 151
3 133 134 151
3 151 134 152
3 135 136 153
3 153 136 154
3 136 137 154
3 154 137 155
3 137 156 155
3 137 138 156
3 138 139 156
3 156 139 157
3 139 140 157
3 157 140 158
3 140 141 158
3 158 141 159
3 141 142 159
3 159 142 160
3 142 143 160
3 160 143 161
3 143 144 161
3 161 144 162
3 144 145 162
3 162 145 163
3 145 164 163
3 145 146 164
3 146 165 164
3 146 147 165
3 147 166 165
3 147 148 166
3 148 149 166
3 166 149 167
3 149 150 167
3 167 150 168
3 150 151 168
3 168 151 169
3 151 152 169
3 169 152 170
3 153 154 171
3 171 154 172
3 154 155 172
3 172 155 173
3 155 174 173
3 155 156 174
3 156 175 174
3 156 157 175
3 157 176 175
3 157 158 176
3 158 159 176
3 176 159 177
3 159 160 177
3 177 160 178
3 160 161 178
3 178 161 179
3 161 162 179
3 179 162 180
3 162 181 180
3 162 163 181
3 163 182 181
3 163 164 182
3 164 183 182
3 164 165 183
3 165 184 183
3 165 166 184
3 166 185 184
3 166 167 185
3 167 168 185
3 185 168 186
3 168 169 186
3 186 169 187
3 169 170 187
3 187 170 188
3 170 189 188
3 188 189 190
3 171 172 191
3 191 172 192
3 172 173 192
3 192 173 193
3 173 174 193
3 193 174 194
3 174 175 194
3 194 175 195
3 175 176 195
3 195 176 196
3 176 177 196
3 196 177 197
3 177 178 197
3 197 178 198
3 178 179 198
3 198 179 199
3 179 180 199
3 199 180 200
3 180 181 200
3 200 181 201
3 181 182 201
3 201 182 202
3 182 183 202
3 202 183 203
3 183 184 203
3 203 184 204
3 184 185 204
3 204 185 205
3 185 186 205
3 205 186 206
3 186 187 206
3 206 187 207
3 187 188 207
3 207 188 208
3 188 190 208
3 208 190 209
3 191 192 210
3 210 192 211
3 192 193 211
3 211 193 212
3 193 194 212
3 212 194 213
3 194 195 213
3 213 195 214
3 195 196 214
3 214 196 215
3 196 197 215
3 215 197 216
3 197 198 216
3 216 198 217
3 198 199 217
3 217 199 218
3 199 200 218
3 218 200 219
3 200 201 219
3 219 201 220
3 201 202 220
3 220 202 221
3 202 203 221
3 221 203 222
3 203 204 222
3 222 204 223
3 204 205 223
3 223 205 224
3 205 206 224
3 224 206 225
3 206 207 225
3 225 207 226
3 207 208 226
3 226 208 227
3 208 209 227
3 210 211 228
3 228 211 229
3 211 212 229
3 229 212 230
3 212 213 230
3 230 213 231
3 213 214 231
3 231 214 232
3 214 215 232
3 232 215 233
3 215 216 233
3 233 216 234
3 216 217 234
3 234 217 235
3 217 218 235
3 235 218 236
3 218 219 236
3 236 219 237
3 219 220 237
3 237 220 238
3 220 221 238
3 238 221 239
3 221 222 239
3 239 222 240
3 222 223 240
3 240 223 241
3 223 224 241
3 241 224 242
3 224 225 242
3 242 225 243
3 225 226 243
3 243 226 244
3 226 227 244
3 244 227 245
3 227 246 245
3 228 229 247
3 247 229 248
3 229 230 248
3 248 230 249
3 230 231 249
3 249 231 250
3 231 232 250
3 250 232 251
3 232 233 251
3 251 233 252
3 233 234 252
3 252 234 253
3 234 235 253
3 253 235 254
3 235 236 254
3 254 236 255
3 236 237 255
3 255 237 256
3 237 238 256
3 256 238 257
3 238 239 257
3 257 239 258
3 239 240 258
3 258 240 259
3 240 241 259
3 259 241 260
3 241 242 260
3 260 242 261
3 242 243 261
3 261 243 262
3 243 244 262
3 247 248 263
3 248 264 263
3 248 249 264
3 249 265 264
3 249 250 265
3 250 266 265
3 250 251 266
3 251 267 266
3 251 252 267
3 252 253 267
3 267 253 268
3 253 254 268
3 268 254 269
3 254 255 269
3 269 255 270
3 255 256 270
3 270 256 271
3 256 272 271
3 256 257 272
3 263 264 273
3 273 264 274
3 264 275 274
3 264 265 275
3 265 266 275
3 275 266 276
3 266 267 276
CELL_DATA 486
SCALARS brightness_temperature float
LOOKUP_TABLE default
POINT_DATA 277
CELL_DATA 486
SCALARS emission_angle float
LOOKUP_TABLE default
POINT_DATA 277
CELL_DATA 486
SCALARS incidence_angle float
LOOKUP_TABLE default
POINT_DATA 277
CELL_DATA 486
SCALARS phase_angle float
LOOKUP_TABLE default
POINT_DATA 277
CELL_DATA 486
SCALARS local_solar_time float
LOOKUP_TABLE default
POINT_DATA 277
CELL_DATA 486
SCALARS local_solar_time_normal_vector float
LOOKUP_TABLE default
CELL_DATA 486
SCALARS pixel_x float
LOOKUP_TABLE default
POINT_DATA 277
CELL_DATA 486
SCALARS pixel_y float
LOOKUP_TABLE default
POINT_DATA 277
CELL_DATA 486
SCALARS longitude float
LOOKUP_TABLE default
POINT_DATA 277
CELL_DATA 486
SCALARS latitude float
LOOKUP_TABLE default
