# vtk DataFile Version 3.0
SHAPE_sfm_50k_v20200323
ASCII
DATASET POLYDATA
POINTS 987 float
0.36996 0.10361 0.16147
0.37124 0.10309 0.15891
0.37036 0.10544 0.15854
0.37114 0.10436 0.15599
0.36898 0.10587 0.16103
0.36875 0.10722 0.15779
0.36765 0.10789 0.16034
0.37036 0.10672 0.15547
0.37086 0.10592 0.15275
0.37158 0.10362 0.15327
0.37234 0.10356 0.15049
0.37143 0.1058 0.14994
0.37346 0.10359 0.14784
0.37251 0.10583 0.14728
0.37492 0.10366 0.14538
0.37384 0.10585 0.14475
0.36704 0.10879 0.15691
0.36587 0.10938 0.15943
0.36854 0.10823 0.15456
0.36985 0.10807 0.15206
0.37044 0.10795 0.14927
0.37142 0.10798 0.14658
0.37276 0.10802 0.14406
0.37524 0.10596 0.14227
0.37417 0.10815 0.1416
0.37666 0.10628 0.13983
0.37546 0.10838 0.13907
0.37819 0.10615 0.13742
0.37709 0.10835 0.13672
0.37899 0.10826 0.13459
0.36543 0.11052 0.15611
0.36427 0.11111 0.15864
0.36677 0.10974 0.15371
0.36807 0.10958 0.15119
0.36901 0.10983 0.14852
0.37014 0.11002 0.1459
0.37166 0.11022 0.14349
0.37294 0.11026 0.14095
0.3741 0.1104 0.13833
0.37584 0.11046 0.13603
0.37797 0.11055 0.13411
0.38006 0.11073 0.1322
0.3809 0.1083 0.13252
0.38221 0.1085 0.13001
0.3813 0.11088 0.12964
0.38266 0.11063 0.12715
0.36347 0.11182 0.15524
0.36274 0.11291 0.15785
0.36495 0.11123 0.15285
0.36628 0.11109 0.15033
0.36725 0.1114 0.14765
0.36861 0.11187 0.14516
0.37035 0.1123 0.14293
0.37173 0.11243 0.14044
0.3729 0.1126 0.13783
0.37466 0.11269 0.13555
0.37671 0.11273 0.13355
0.3788 0.11291 0.13164
0.38 0.11304 0.12907
0.38134 0.11279 0.12656
0.38289 0.11223 0.12424
0.38401 0.10992 0.12475
0.38425 0.11179 0.1218
0.35987 0.11412 0.15942
0.36087 0.11416 0.15674
0.36189 0.11344 0.15416
0.36343 0.11292 0.15179
0.36478 0.11282 0.1493
0.36582 0.11324 0.14665
0.3673 0.11384 0.14424
0.36914 0.11438 0.14213
0.37069 0.11464 0.13977
0.37189 0.11485 0.13716
0.37386 0.11507 0.13507
0.37593 0.11515 0.1331
0.37765 0.11509 0.13086
0.37878 0.11517 0.12823
0.38035 0.11508 0.12585
0.38192 0.11454 0.12355
0.38331 0.11415 0.12112
0.38534 0.112 0.11918
0.38426 0.11429 0.11845
0.38622 0.11242 0.11649
0.38506 0.11468 0.11573
0.38769 0.11254 0.11404
0.38646 0.11475 0.11321
0.38831 0.11461 0.11103
0.38937 0.1123 0.11176
0.39074 0.11235 0.10929
0.3899 0.11481 0.10871
0.39106 0.11565 0.10629
0.39252 0.11436 0.10437
0.39173 0.11688 0.10384
0.35817 0.11548 0.15819
0.35932 0.11572 0.15559
0.36061 0.11532 0.15309
0.3621 0.11476 0.15073
0.36346 0.1147 0.14823
0.36472 0.11536 0.14572
0.36635 0.11608 0.14346
0.36822 0.11661 0.14139
0.36985 0.11693 0.1391
0.3711 0.11719 0.13654
0.37289 0.11729 0.13429
0.37506 0.11747 0.13241
0.37668 0.11735 0.13009
0.37778 0.11743 0.12747
0.37918 0.11722 0.12499
0.38073 0.11667 0.12266
0.38239 0.11649 0.12036
0.38324 0.11659 0.11766
0.38411 0.11704 0.11496
0.38556 0.11716 0.11249
0.38737 0.11699 0.11029
0.38908 0.11726 0.10805
0.39012 0.11804 0.10556
0.39104 0.11941 0.10327
0.35688 0.11749 0.15745
0.35805 0.11773 0.15485
0.35941 0.11741 0.15239
0.36092 0.11688 0.15004
0.36243 0.11694 0.14762
0.36393 0.11775 0.14533
0.36563 0.1185 0.14316
0.3675 0.11902 0.14108
0.36899 0.11928 0.13869
0.37039 0.11963 0.13625
0.37173 0.11949 0.13373
0.37355 0.11937 0.13152
0.37546 0.11953 0.12943
0.37663 0.11966 0.12685
0.37785 0.11935 0.12429
0.37938 0.11878 0.12194
0.38099 0.11857 0.11962
0.3821 0.11886 0.11703
0.38302 0.11936 0.11438
0.38449 0.11952 0.11194
0.38624 0.11933 0.10971
0.38791 0.11957 0.10743
0.38933 0.12059 0.10521
0.35576 0.11964 0.15697
0.35685 0.11984 0.15436
0.35836 0.11963 0.15197
0.3599 0.11912 0.14964
0.36169 0.11934 0.14746
0.36346 0.12023 0.14543
0.36524 0.12101 0.14335
0.36682 0.12145 0.14102
0.36811 0.12163 0.1385
0.36937 0.12193 0.13598
0.37051 0.12169 0.1334
0.372 0.12134 0.13099
0.37363 0.1212 0.12867
0.37505 0.1216 0.12624
0.37678 0.12173 0.124
0.37812 0.12107 0.1216
0.37925 0.12049 0.11904
0.38052 0.12091 0.11651
0.38171 0.12163 0.11402
0.38326 0.12185 0.11166
0.385 0.12167 0.10944
0.38666 0.12191 0.10717
0.388 0.12288 0.10489
0.35404 0.12098 0.15929
0.35465 0.12182 0.15665
0.35568 0.122 0.15402
0.35706 0.12172 0.15158
0.35881 0.12135 0.14937
0.3607 0.12162 0.14729
0.36271 0.12266 0.14557
0.36471 0.12353 0.14367
0.36621 0.12398 0.14118
0.36682 0.12379 0.13834
0.36796 0.12402 0.13576
0.36911 0.12381 0.13318
0.37034 0.12327 0.13067
0.37187 0.12307 0.12829
0.37319 0.12337 0.12577
0.37511 0.1237 0.12369
0.37667 0.12322 0.12139
0.37783 0.12273 0.11885
0.37905 0.12314 0.1163
0.38039 0.12396 0.11391
0.38205 0.12423 0.11165
0.3837 0.124 0.10938
0.38526 0.12418 0.10704
0.38656 0.12513 0.10473
0.35269 0.123 0.15891
0.35339 0.12392 0.15633
0.35457 0.12421 0.15378
0.35587 0.12389 0.15129
0.35752 0.12345 0.14903
0.35944 0.12374 0.14695
0.36137 0.12479 0.14517
0.36343 0.1259 0.14338
0.36472 0.1261 0.14072
0.36543 0.12586 0.13796
0.36632 0.12591 0.13528
0.36745 0.12567 0.1327
0.3687 0.12517 0.13019
0.37038 0.12515 0.12791
0.37171 0.12547 0.12543
0.37349 0.12568 0.12325
0.37512 0.12528 0.12098
0.37658 0.12504 0.11858
0.37815 0.12565 0.1163
0.37971 0.12654 0.11412
0.38117 0.12675 0.11172
0.3826 0.12643 0.10932
0.38406 0.12657 0.10692
0.38525 0.12746 0.10454
0.3515 0.1251 0.15846
0.35217 0.12602 0.15587
0.35331 0.12629 0.1533
0.35479 0.12609 0.15091
0.35657 0.12575 0.14876
0.35815 0.12581 0.14644
0.35972 0.12646 0.14418
0.36143 0.1271 0.14204
0.36277 0.12745 0.13961
0.36402 0.12779 0.13711
0.36508 0.12799 0.13451
0.36593 0.12753 0.13184
0.36723 0.1271 0.12935
0.36896 0.12714 0.12711
0.37031 0.12748 0.12466
0.37204 0.12768 0.12245
0.37382 0.12743 0.12027
0.37565 0.12746 0.11813
0.37763 0.12826 0.11627
0.37943 0.12921 0.11429
0.38109 0.12951 0.11193
0.38188 0.129 0.10921
0.38317 0.12909 0.10673
0.3841 0.12984 0.1042
0.35039 0.12718 0.15777
0.35106 0.12811 0.15518
0.35224 0.12844 0.15265
0.35375 0.12826 0.15028
0.35544 0.12786 0.14807
0.35694 0.12786 0.1457
0.35836 0.12839 0.14331
0.3599 0.12881 0.14099
0.36138 0.12934 0.13866
0.36265 0.1297 0.13619
0.36339 0.12964 0.13348
0.36451 0.12943 0.13089
0.36594 0.12914 0.12847
0.36741 0.12893 0.12609
0.36866 0.12914 0.12356
0.37031 0.12925 0.12126
0.3723 0.12927 0.11923
0.37457 0.12979 0.11761
0.37675 0.13081 0.11611
0.37857 0.13184 0.11408
0.37989 0.13198 0.11147
0.38074 0.13135 0.10882
0.38219 0.13157 0.10641
0.38289 0.13218 0.10375
0.34944 0.12927 0.15692
0.35032 0.13036 0.15446
0.35159 0.13074 0.15199
0.35307 0.13056 0.1496
0.35463 0.1301 0.14732
0.35594 0.12999 0.14484
0.35729 0.13048 0.14242
0.35867 0.13078 0.13999
0.36002 0.13115 0.13756
0.36136 0.1316 0.13513
0.36229 0.13172 0.13249
0.36336 0.13149 0.1299
0.36458 0.13103 0.12741
0.36588 0.13067 0.12493
0.36714 0.13092 0.1224
0.3689 0.13118 0.1202
0.37091 0.13124 0.1182
0.37323 0.13188 0.11673
0.37534 0.13292 0.11516
0.37705 0.13393 0.11304
0.37803 0.13363 0.11033
0.37925 0.1333 0.1078
0.38077 0.13365 0.10545
0.3817 0.13442 0.10292
0.34804 0.13053 0.15867
0.34871 0.13147 0.1561
0.34966 0.13262 0.15372
0.35127 0.13316 0.15149
0.35282 0.13299 0.14914
0.35388 0.13237 0.14661
0.35504 0.13219 0.14408
0.35613 0.1325 0.14151
0.35752 0.13284 0.13909
0.35879 0.13315 0.13662
0.3601 0.13362 0.13416
0.36088 0.13355 0.13144
0.36205 0.13343 0.12889
0.36311 0.13284 0.12634
0.36451 0.13261 0.12391
0.36586 0.13298 0.12145
0.36753 0.13314 0.11918
0.36955 0.13323 0.1172
0.37175 0.1337 0.11553
0.37375 0.13453 0.11375
0.37529 0.13528 0.11152
0.37654 0.13537 0.109
0.37814 0.13546 0.10671
0.37957 0.13574 0.10432
0.34718 0.13271 0.15799
0.34802 0.13375 0.15552
0.34895 0.13491 0.15317
0.35064 0.13552 0.15103
0.35279 0.1356 0.14899
0.35323 0.13474 0.14619
0.35389 0.13433 0.14352
0.35474 0.13447 0.14085
0.35593 0.13463 0.13832
0.3571 0.13485 0.1358
0.35814 0.13497 0.13321
0.35898 0.135 0.13054
0.3603 0.13509 0.12807
0.36155 0.13471 0.12559
0.36301 0.13458 0.1232
0.36426 0.13488 0.1207
0.36598 0.13511 0.11848
0.36794 0.13517 0.11646
0.37005 0.13551 0.11466
0.37193 0.13616 0.11272
0.37348 0.13696 0.11056
0.37496 0.13737 0.10822
0.37668 0.13758 0.10604
0.37816 0.13793 0.10372
0.34638 0.13495 0.15743
0.34728 0.13602 0.15499
0.34825 0.13722 0.15266
0.3497 0.13772 0.15033
0.3518 0.13793 0.14824
0.35221 0.13691 0.1455
0.35258 0.13632 0.14279
0.3533 0.13638 0.14007
0.35427 0.13632 0.13745
0.35534 0.1364 0.13486
0.35646 0.13663 0.13232
0.3574 0.1368 0.1297
0.35859 0.13676 0.12717
0.35994 0.1365 0.12472
0.36148 0.1365 0.12239
0.36283 0.13693 0.11997
0.36452 0.13715 0.11773
0.3666 0.13735 0.11584
0.36877 0.13776 0.11414
0.37067 0.13844 0.11222
0.37224 0.13925 0.11008
0.37361 0.1396 0.10766
0.37541 0.13987 0.10555
0.37699 0.1403 0.1033
0.34561 0.13724 0.15713
0.34676 0.13841 0.15486
0.34803 0.13968 0.15271
0.34888 0.14004 0.15003
0.3501 0.13968 0.14755
0.35068 0.13881 0.14496
0.35125 0.13836 0.14225
0.35188 0.13837 0.13951
0.35278 0.13827 0.13687
0.35373 0.13825 0.13423
0.35477 0.13838 0.13164
0.35575 0.13861 0.12903
0.35697 0.13861 0.12651
0.35837 0.13844 0.12408
0.35999 0.13852 0.12181
0.36154 0.13915 0.11957
0.36325 0.1394 0.11735
0.36532 0.1396 0.11547
0.36752 0.14005 0.11381
0.36949 0.14078 0.11198
0.37096 0.14153 0.10973
0.37241 0.14196 0.10738
0.37403 0.14209 0.10512
0.37567 0.14258 0.10292
0.3447 0.13949 0.15691
0.34602 0.14076 0.15479
0.34758 0.14212 0.15285
0.34894 0.14254 0.15032
0.34916 0.14195 0.14751
0.34955 0.14105 0.14489
0.35006 0.14057 0.14218
0.35072 0.14061 0.13946
0.35134 0.14034 0.13675
0.35207 0.14015 0.13404
0.35287 0.14004 0.13135
0.35375 0.14015 0.12868
0.35504 0.14026 0.12618
0.35647 0.14013 0.12376
0.35805 0.14018 0.12143
0.3595 0.14074 0.11908
0.36138 0.1412 0.117
0.3636 0.14158 0.11528
0.36595 0.14216 0.11385
0.36817 0.14303 0.11234
0.36986 0.14388 0.11024
0.37115 0.14427 0.10775
0.37269 0.14437 0.10544
0.37408 0.1447 0.10304
0.34261 0.14095 0.15873
0.34395 0.14176 0.15642
0.34548 0.14313 0.15448
0.3472 0.14464 0.15264
0.34896 0.14521 0.15015
0.34926 0.14449 0.14714
0.34861 0.14331 0.14453
0.34878 0.14265 0.14182
0.34931 0.14263 0.13906
0.34996 0.14237 0.13633
0.35058 0.14212 0.13362
0.35128 0.14196 0.13092
0.35211 0.14205 0.12823
0.35337 0.14212 0.12572
0.35477 0.14199 0.12328
0.35634 0.14205 0.12094
0.35793 0.14277 0.11869
0.35997 0.14339 0.11682
0.36229 0.14385 0.1153
0.36462 0.14441 0.11383
0.36693 0.14531 0.11253
0.36907 0.14627 0.11095
0.37071 0.14678 0.10865
0.37169 0.14676 0.10599
0.37291 0.14702 0.10349
0.34229 0.14298 0.15743
0.34402 0.14408 0.15556
0.3455 0.14549 0.15356
0.34686 0.14699 0.15135
0.34822 0.14745 0.14854
0.34854 0.14653 0.14556
0.34776 0.14511 0.14308
0.34774 0.1444 0.14039
0.34811 0.14427 0.1376
0.34872 0.14399 0.13485
0.34971 0.14403 0.13224
0.35039 0.14391 0.12955
0.35126 0.14404 0.1269
0.35245 0.14407 0.12436
0.35384 0.14397 0.12192
0.35561 0.14424 0.11974
0.35741 0.14512 0.11771
0.35961 0.14588 0.11612
0.3621 0.14645 0.115
0.36465 0.14707 0.11399
0.36705 0.14801 0.11279
0.36903 0.14904 0.11085
0.37002 0.14934 0.1081
0.37102 0.14928 0.10549
0.37257 0.14967 0.10316
0.34088 0.14406 0.15847
0.34209 0.14507 0.15619
0.34375 0.14617 0.15424
0.34484 0.14727 0.15185
0.34574 0.1482 0.14928
0.34665 0.14826 0.14652
0.34676 0.14733 0.1438
0.3467 0.14634 0.14118
0.34711 0.1459 0.13849
0.34749 0.14581 0.13572
0.34816 0.1456 0.13299
0.34909 0.1456 0.13036
0.35004 0.14567 0.12777
0.35083 0.14577 0.12509
0.35207 0.14585 0.12257
0.35355 0.14585 0.12017
0.35544 0.14622 0.11808
0.35746 0.14734 0.11637
0.35985 0.14832 0.11527
0.36251 0.14904 0.11469
0.36509 0.1497 0.11364
0.36716 0.15059 0.11177
0.36827 0.15111 0.10914
0.36903 0.15123 0.10642
0.37043 0.15141 0.10401
0.34 0.14604 0.15738
0.34119 0.14701 0.15505
0.34261 0.14786 0.15283
0.34359 0.14881 0.1504
0.34441 0.14962 0.14783
0.34505 0.14943 0.14509
0.34521 0.14868 0.1424
0.34576 0.14811 0.13973
0.3463 0.14774 0.13704
0.34671 0.1477 0.13429
0.34752 0.1476 0.13162
0.34834 0.14754 0.12896
0.34951 0.14774 0.12644
0.35016 0.14778 0.12371
0.35145 0.14793 0.12122
0.35304 0.14803 0.11888
0.35498 0.14845 0.11684
0.35709 0.1497 0.11537
0.35954 0.15079 0.11457
0.36217 0.15155 0.11392
0.36465 0.15221 0.11265
0.36625 0.15271 0.11032
0.3672 0.15309 0.10772
0.36817 0.15337 0.10511
0.36997 0.15383 0.10299
0.33904 0.14815 0.15666
0.33997 0.14896 0.15416
0.34143 0.14979 0.15194
0.34244 0.15078 0.14956
0.34332 0.15164 0.14705
0.34417 0.15159 0.14438
0.34437 0.15092 0.14168
0.34467 0.15024 0.139
0.34519 0.14986 0.13631
0.34582 0.14994 0.1336
0.3465 0.1498 0.13091
0.34727 0.14974 0.12823
0.34818 0.14977 0.12561
0.34913 0.15001 0.12299
0.35054 0.15024 0.12056
0.35213 0.15037 0.11825
0.35405 0.15082 0.11622
0.35612 0.15201 0.1147
0.35852 0.153 0.11368
0.3611 0.15375 0.11293
0.36357 0.15447 0.1117
0.3653 0.15505 0.10949
0.36629 0.15544 0.1069
0.36743 0.15583 0.1044
0.36891 0.15611 0.10209
0.33824 0.15041 0.15624
0.33968 0.15142 0.15408
0.34067 0.15207 0.15158
0.34146 0.15297 0.14909
0.34231 0.15384 0.1466
0.34341 0.15392 0.14403
0.3438 0.15332 0.14132
0.34384 0.15257 0.13864
0.34437 0.15221 0.13594
0.34508 0.15233 0.13327
0.34577 0.15221 0.13059
0.3465 0.15215 0.12792
0.34727 0.15216 0.12524
0.34841 0.15248 0.1227
0.34987 0.15273 0.12034
0.35128 0.15281 0.11792
0.35315 0.15324 0.11587
0.35507 0.15432 0.11414
0.35731 0.15509 0.1127
0.35983 0.15568 0.11167
0.36223 0.15642 0.11045
0.36403 0.15715 0.10841
0.3651 0.15757 0.10585
0.36619 0.15792 0.10332
0.33656 0.15172 0.15813
0.338 0.15283 0.15603
0.33974 0.15387 0.15406
0.34042 0.15451 0.15138
0.34055 0.15521 0.14869
0.34114 0.15596 0.14609
0.3425 0.15619 0.14366
0.3433 0.15573 0.14101
0.34337 0.15501 0.13832
0.34411 0.1547 0.13568
0.34488 0.15483 0.13303
0.34528 0.15469 0.13031
0.34588 0.15461 0.12759
0.3468 0.15466 0.12496
0.34802 0.155 0.12248
0.34942 0.15524 0.1201
0.35086 0.15537 0.11773
0.35254 0.15575 0.11554
0.35426 0.15674 0.11359
0.35631 0.15735 0.11183
0.35864 0.15762 0.11036
0.36093 0.15813 0.10891
0.36266 0.15886 0.1069
0.36393 0.15955 0.10455
0.36539 0.16025 0.10232
0.33619 0.15408 0.15773
0.33793 0.15529 0.1559
0.33952 0.15643 0.15375
0.33987 0.15691 0.15091
0.33961 0.15741 0.14816
0.34027 0.15822 0.14558
0.34181 0.15852 0.14326
0.3426 0.15808 0.14062
0.3431 0.15747 0.13798
0.34385 0.15715 0.13535
0.34508 0.15739 0.13286
0.3454 0.15722 0.13008
0.34564 0.15712 0.12731
0.34636 0.15714 0.12461
0.34772 0.15751 0.12219
0.34923 0.15778 0.11989
0.35063 0.15793 0.11752
0.35221 0.15831 0.11528
0.35386 0.1593 0.11329
0.35565 0.15982 0.11125
0.35774 0.15991 0.10944
0.35989 0.16024 0.10776
0.36164 0.16098 0.10577
0.36305 0.16183 0.10357
0.33583 0.15649 0.1575
0.33716 0.15762 0.15533
0.33816 0.15844 0.15281
0.33832 0.15871 0.15003
0.33867 0.15958 0.1474
0.33984 0.16061 0.14507
0.34115 0.16083 0.14265
0.34213 0.16047 0.1401
0.34296 0.15992 0.13753
0.34323 0.15951 0.13481
0.3441 0.15967 0.13218
0.34497 0.15964 0.12956
0.34572 0.15963 0.12692
0.34629 0.15965 0.1242
0.34763 0.16002 0.12179
0.34921 0.16031 0.11955
0.35061 0.16048 0.11718
0.35208 0.16086 0.11488
0.35367 0.16185 0.11284
0.35553 0.1624 0.11087
0.35734 0.16243 0.10881
0.35928 0.16262 0.10687
0.36096 0.16332 0.10481
0.36245 0.16424 0.10269
0.3646 0.16261 0.10143
0.33486 0.15854 0.15659
0.33581 0.15932 0.15411
0.33664 0.15998 0.15157
0.33733 0.16073 0.14902
0.33844 0.16197 0.14678
0.34005 0.16309 0.14477
0.3412 0.16327 0.14222
0.34169 0.16285 0.13951
0.34244 0.16229 0.13692
0.34271 0.16187 0.13421
0.34343 0.162 0.13154
0.34436 0.162 0.12894
0.34516 0.16202 0.1263
0.34619 0.16213 0.12374
0.34747 0.16251 0.12132
0.34905 0.16281 0.11907
0.3504 0.16298 0.11667
0.35201 0.16341 0.11448
0.35369 0.16443 0.11252
0.35539 0.16496 0.11043
0.35722 0.16501 0.10836
0.35879 0.16508 0.10611
0.3604 0.16576 0.10399
0.36166 0.16656 0.10168
0.33312 0.16002 0.15827
0.33396 0.1606 0.15572
0.33479 0.16132 0.15319
0.33566 0.16203 0.15066
0.33672 0.163 0.1483
0.33831 0.16444 0.14651
0.34001 0.1657 0.14457
0.34114 0.16585 0.14191
0.3414 0.16527 0.13911
0.34169 0.16461 0.13646
0.34214 0.16425 0.13376
0.34286 0.1644 0.1311
0.34363 0.16437 0.12844
0.34473 0.16448 0.12591
0.34601 0.16464 0.12347
0.3474 0.16504 0.12113
0.34879 0.16533 0.11876
0.35008 0.16549 0.11633
0.35185 0.16598 0.11427
0.35351 0.16705 0.11233
0.35496 0.16751 0.11001
0.35669 0.16755 0.10785
0.35809 0.16754 0.10548
0.3596 0.16817 0.10328
0.33245 0.16231 0.15805
0.33327 0.16291 0.1555
0.33405 0.16363 0.15296
0.33485 0.16433 0.15042
0.33592 0.1653 0.14807
0.33731 0.16667 0.14611
0.33835 0.16759 0.14373
0.3394 0.16771 0.14121
0.3404 0.16749 0.13869
0.34083 0.1669 0.13606
0.3413 0.16657 0.13336
0.34211 0.16677 0.13072
0.34311 0.16682 0.12815
0.34429 0.16695 0.12567
0.3456 0.16712 0.12325
0.34687 0.16751 0.12085
0.34804 0.16774 0.11837
0.34953 0.16797 0.11607
0.35121 0.16847 0.11396
0.35245 0.16937 0.11168
0.35397 0.16986 0.10944
0.35552 0.16982 0.10717
0.35709 0.16991 0.10492
0.35865 0.17056 0.10276
0.33192 0.16466 0.15813
0.33283 0.16529 0.15562
0.33346 0.16599 0.15305
0.33424 0.16669 0.15052
0.33508 0.1676 0.14807
0.33634 0.16892 0.14598
0.3369 0.16956 0.14335
0.33786 0.16962 0.14079
0.33896 0.1695 0.13833
0.33963 0.16907 0.13573
0.34057 0.16896 0.13315
0.34147 0.1692 0.13056
0.34271 0.16932 0.12811
0.34389 0.16945 0.12565
0.34494 0.16956 0.12312
0.3462 0.16995 0.12072
0.34721 0.17014 0.11817
0.3486 0.17035 0.11582
0.35007 0.17076 0.11355
0.35129 0.17165 0.11127
0.35273 0.17211 0.10899
0.35445 0.17218 0.10686
0.35621 0.17238 0.10478
0.3577 0.17301 0.10258
0.33131 0.16699 0.15812
0.3323 0.16764 0.15568
0.33309 0.16839 0.15318
0.33396 0.16911 0.15069
0.33444 0.16995 0.14814
0.33505 0.17101 0.14571
0.33553 0.17159 0.14308
0.33658 0.17175 0.14056
0.33786 0.17175 0.13819
0.33867 0.1714 0.13562
0.33995 0.17139 0.13318
0.34092 0.17166 0.13065
0.34226 0.17179 0.12826
0.34346 0.17194 0.12582
0.34423 0.17197 0.1232
0.34525 0.17231 0.12069
0.34636 0.17254 0.1182
0.34766 0.17274 0.11581
0.34923 0.1732 0.11364
0.35046 0.17411 0.11138
0.35179 0.17453 0.10903
0.3534 0.17457 0.10684
0.35514 0.17479 0.10475
0.3565 0.17537 0.10247
0.33099 0.16937 0.15806
0.33221 0.17008 0.15573
0.33276 0.17078 0.15314
0.33344 0.1715 0.15059
0.3335 0.17219 0.14796
0.33353 0.17292 0.14533
0.33405 0.17355 0.1427
0.33549 0.17398 0.14041
0.33697 0.17408 0.13816
0.3379 0.17376 0.13562
0.33932 0.17379 0.13328
0.34083 0.17421 0.13102
0.34159 0.1742 0.12838
0.34283 0.17443 0.12594
0.34323 0.17428 0.12321
0.34404 0.17453 0.12062
0.34527 0.17485 0.1182
0.34657 0.17506 0.11582
0.34811 0.17553 0.11364
0.34942 0.17648 0.11145
0.35091 0.17697 0.10923
0.35236 0.17697 0.10692
0.35393 0.17712 0.10473
0.35536 0.17774 0.10252
0.33033 0.17167 0.15777
0.33186 0.17258 0.15563
0.33255 0.17332 0.15299
0.33244 0.17374 0.15024
0.33208 0.17413 0.14755
0.33215 0.17491 0.14493
0.33287 0.17569 0.14241
0.33422 0.17606 0.14007
0.33593 0.17632 0.13798
0.33704 0.17607 0.13552
0.33822 0.17599 0.13308
0.33957 0.17641 0.13075
0.34032 0.17635 0.12815
0.34109 0.17635 0.12554
0.34199 0.17649 0.12299
0.3429 0.17681 0.12044
0.34416 0.17715 0.11804
0.34566 0.17746 0.11579
0.34711 0.17791 0.11356
0.34838 0.17885 0.11134
0.3498 0.17933 0.10909
0.3512 0.17931 0.10677
0.35277 0.17947 0.10458
0.35426 0.18014 0.10241
0.32907 0.17364 0.15721
0.33022 0.17438 0.15487
0.33076 0.175 0.15227
0.33077 0.17545 0.14961
0.33073 0.17608 0.14697
0.33089 0.17694 0.14439
0.33146 0.17762 0.1418
0.33282 0.17799 0.13945
0.33462 0.17837 0.13745
0.33589 0.17821 0.13508
0.33717 0.17823 0.13271
0.33818 0.17848 0.13023
0.3392 0.17859 0.12774
0.34019 0.17872 0.12523
0.34125 0.17891 0.12274
0.34201 0.17918 0.12015
0.34338 0.17957 0.11782
0.34496 0.17993 0.11565
0.34633 0.18036 0.11336
0.34755 0.1813 0.11112
0.34901 0.1818 0.10892
0.35044 0.18181 0.10662
0.3519 0.18194 0.10435
0.35346 0.18265 0.10225
0.32763 0.17545 0.15654
0.32851 0.17589 0.15402
0.32909 0.17659 0.15149
0.32958 0.17749 0.14899
0.32949 0.17809 0.14634
0.32955 0.17891 0.14374
0.33023 0.17972 0.14122
0.33152 0.18005 0.13884
0.33321 0.18032 0.13674
0.33474 0.18039 0.13453
0.33619 0.18054 0.1323
0.33718 0.18084 0.12986
0.33843 0.18101 0.12748
0.3393 0.18107 0.12494
0.34037 0.18126 0.12246
0.3413 0.18161 0.11995
0.34238 0.18188 0.11748
0.34393 0.18226 0.11528
0.34553 0.18281 0.11319
0.34681 0.18379 0.11101
0.3481 0.18423 0.10869
0.34972 0.18432 0.10653
0.35136 0.18452 0.10442
0.35302 0.18525 0.10244
0.32557 0.17748 0.15856
0.32634 0.17741 0.15599
0.32711 0.17778 0.15343
0.32761 0.17843 0.15086
0.32822 0.17942 0.14843
0.32819 0.1801 0.14581
0.32847 0.1811 0.14329
0.32922 0.18198 0.14084
0.33048 0.18232 0.13847
0.33209 0.18252 0.1363
0.33387 0.18273 0.13426
0.33585 0.18305 0.13247
0.33727 0.18343 0.13023
0.33828 0.18356 0.12773
0.33856 0.18349 0.12502
0.33936 0.18359 0.12244
0.34027 0.18393 0.11993
0.34122 0.18416 0.11739
0.34288 0.1846 0.11527
0.34451 0.18519 0.11323
0.3456 0.18608 0.11093
0.34697 0.18657 0.10866
0.3488 0.18677 0.10669
0.35067 0.18706 0.10478
0.35219 0.18777 0.10271
0.32488 0.17932 0.1557
0.32428 0.17948 0.15833
0.32562 0.17969 0.15314
0.32637 0.18053 0.1507
0.3269 0.18146 0.14826
0.32709 0.1823 0.14572
0.32746 0.18336 0.14327
0.32826 0.18427 0.14087
0.32954 0.18464 0.13853
0.33107 0.18482 0.13633
0.33287 0.18501 0.13433
0.33507 0.18545 0.1328
0.33704 0.18606 0.13087
0.3382 0.18629 0.1282
0.33786 0.1859 0.12539
0.33857 0.18597 0.12284
0.33972 0.18644 0.12044
0.34022 0.18648 0.11776
0.34145 0.18673 0.11538
0.34294 0.18726 0.11323
0.34431 0.18832 0.11118
0.34581 0.18888 0.10903
0.34752 0.18904 0.10698
0.34924 0.18931 0.10496
0.35051 0.18984 0.10266
0.32383 0.1815 0.15583
0.32281 0.18138 0.15828
0.32465 0.18192 0.15334
0.32525 0.18268 0.15086
0.32568 0.18356 0.14839
0.32599 0.18447 0.1459
0.32639 0.18556 0.1435
0.32725 0.1865 0.14115
0.32854 0.18689 0.13885
0.33009 0.18708 0.1367
0.33145 0.18705 0.13439
0.33334 0.1873 0.13251
0.33502 0.18784 0.13049
0.33597 0.188 0.12799
0.3363 0.1879 0.12533
0.33708 0.18801 0.12278
0.33816 0.18853 0.12039
0.33892 0.18866 0.11783
0.34013 0.18893 0.11546
0.34157 0.18944 0.11329
0.34294 0.19053 0.11127
0.34442 0.19108 0.10913
0.34606 0.19122 0.10703
0.34758 0.19136 0.10486
0.34885 0.19189 0.1026
0.32286 0.1837 0.15582
0.32149 0.18338 0.15807
0.32391 0.18424 0.15343
0.32401 0.18476 0.1508
0.32443 0.18565 0.14832
0.32494 0.18668 0.14593
0.32553 0.18786 0.14363
0.32633 0.18879 0.14129
0.32751 0.18914 0.13895
0.32892 0.18927 0.13671
0.33028 0.18926 0.13444
0.33153 0.18904 0.1321
0.33302 0.18934 0.12993
0.33421 0.18978 0.12763
0.33474 0.18986 0.12504
0.33537 0.18986 0.12245
0.33631 0.19027 0.11999
0.3373 0.19062 0.11753
0.3388 0.19112 0.11538
0.34025 0.19167 0.11324
0.34143 0.19263 0.11107
0.34295 0.19323 0.10898
0.34465 0.19342 0.10694
0.346 0.19345 0.10467
0.3472 0.19394 0.10236
0.32179 0.18586 0.15571
0.32031 0.18544 0.15787
0.3226 0.18628 0.15322
0.32284 0.18687 0.15064
0.32342 0.18787 0.14825
0.32399 0.18893 0.14591
0.32472 0.19018 0.1437
0.32542 0.19108 0.14134
0.32658 0.19144 0.139
0.32794 0.19157 0.13675
0.3292 0.19152 0.13445
0.33029 0.19126 0.13206
0.33159 0.19143 0.12976
0.33275 0.19182 0.12744
0.33321 0.19186 0.12483
0.33385 0.19188 0.12226
0.33483 0.19234 0.11983
0.33589 0.19275 0.11743
0.33734 0.19323 0.11526
0.3388 0.1938 0.11316
0.34001 0.1948 0.11104
0.34151 0.19539 0.10895
0.34303 0.19548 0.10679
0.34442 0.19555 0.10456
0.34561 0.19605 0.10227
0.32023 0.18766 0.1553
0.32104 0.1881 0.15284
0.32166 0.18898 0.15043
0.3226 0.19017 0.14826
0.32924 0.19353 0.13215
0.33019 0.19352 0.12971
0.33097 0.19362 0.12722
0.33159 0.19378 0.12468
0.33234 0.1939 0.12216
0.33321 0.19428 0.11969
0.33434 0.19476 0.11734
0.33585 0.19532 0.11524
0.33755 0.19605 0.11339
0.33892 0.19714 0.11141
0.34019 0.19761 0.10916
0.34181 0.19777 0.10709
0.34311 0.19782 0.10482
0.34418 0.19828 0.10247
0.34204 0.20019 0.10515
0.3432 0.20071 0.10288
POLYGONS 1840 7360
3 0 1 2
3 1 3 2
3 4 5 6
3 4 2 5
3 2 7 5
3 2 3 7
3 3 8 7
3 3 9 8
3 9 10 8
3 8 10 11
3 10 12 11
3 11 12 13
3 12 14 13
3 13 14 15
3 6 16 17
3 6 5 16
3 5 18 16
3 5 7 18
3 7 19 18
3 7 8 19
3 8 11 19
3 19 11 20
3 11 13 20
3 20 13 21
3 13 15 21
3 21 15 22
3 15 23 22
3 22 23 24
3 23 25 24
3 24 25 26
3 25 27 26
3 26 27 28
3 27 29 28
3 17 30 31
3 17 16 30
3 16 32 30
3 16 18 32
3 18 33 32
3 18 19 33
3 19 20 33
3 33 20 34
3 20 21 34
3 34 21 35
3 21 22 35
3 35 22 36
3 22 24 36
3 36 24 37
3 24 26 37
3 37 26 38
3 26 28 38
3 38 28 39
3 28 40 39
3 28 29 40
3 29 41 40
3 29 42 41
3 42 43 41
3 41 43 44
3 43 45 44
3 31 46 47
3 31 30 46
3 30 48 46
3 30 32 48
3 32 49 48
3 32 33 49
3 33 34 49
3 49 34 50
3 34 35 50
3 50 35 51
3 35 36 51
3 51 36 52
3 36 37 52
3 52 37 53
3 37 38 53
3 53 38 54
3 38 55 54
3 38 39 55
3 39 56 55
3 39 40 56
3 40 57 56
3 40 41 57
3 41 44 57
3 57 44 58
3 44 59 58
3 44 45 59
3 45 60 59
3 45 61 60
3 61 62 60
3 63 47 64
3 47 65 64
3 47 46 65
3 46 66 65
3 46 48 66
3 48 49 66
3 66 49 67
3 49 50 67
3 67 50 68
3 50 51 68
3 68 51 69
3 51 52 69
3 69 52 70
3 52 53 70
3 70 53 71
3 53 54 71
3 71 54 72
3 54 55 72
3 72 55 73
3 55 74 73
3 55 56 74
3 56 57 74
3 74 57 75
3 57 58 75
3 75 58 76
3 58 59 76
3 76 59 77
3 59 78 77
3 59 60 78
3 60 79 78
3 60 62 79
3 62 80 79
3 79 80 81
3 80 82 81
3 81 82 83
3 82 84 83
3 83 84 85
3 84 86 85
3 84 87 86
3 87 88 86
3 86 88 89
3 90 91 92
3 63 64 93
3 93 64 94
3 64 65 94
3 94 65 95
3 65 96 95
3 65 66 96
3 66 67 96
3 96 67 97
3 67 68 97
3 97 68 98
3 68 69 98
3 98 69 99
3 69 70 99
3 99 70 100
3 70 71 100
3 100 71 101
3 71 72 101
3 101 72 102
3 72 73 102
3 102 73 103
3 73 74 103
3 103 74 104
3 74 75 104
3 104 75 105
3 75 76 105
3 105 76 106
3 76 77 106
3 106 77 107
3 77 108 107
3 77 78 108
3 78 79 108
3 108 79 109
3 79 81 109
3 109 81 110
3 81 83 110
3 110 83 111
3 83 85 111
3 111 85 112
3 85 113 112
3 85 86 113
3 86 89 113
3 113 89 114
3 89 90 114
3 114 90 115
3 90 92 115
3 115 92 116
3 93 94 117
3 117 94 118
3 94 119 118
3 94 95 119
3 95 120 119
3 95 96 120
3 96 97 120
3 120 97 121
3 97 98 121
3 121 98 122
3 98 99 122
3 122 99 123
3 99 100 123
3 123 100 124
3 100 101 124
3 124 101 125
3 101 102 125
3 125 102 126
3 102 127 126
3 102 103 127
3 103 128 127
3 103 104 128
3 104 105 128
3 128 105 129
3 105 106 129
3 129 106 130
3 106 131 130
3 106 107 131
3 107 132 131
3 107 108 132
3 108 133 132
3 108 109 133
3 109 110 133
3 133 110 134
3 110 111 134
3 134 111 135
3 111 112 135
3 135 112 136
3 112 137 136
3 112 113 137
3 113 114 137
3 137 114 138
3 114 115 138
3 138 115 139
3 115 116 139
3 117 118 140
3 140 118 141
3 118 142 141
3 118 119 142
3 119 143 142
3 119 120 143
3 120 144 143
3 120 121 144
3 121 122 144
3 144 122 145
3 122 123 145
3 145 123 146
3 123 147 146
3 123 124 147
3 124 148 147
3 124 125 148
3 125 126 148
3 148 126 149
3 126 150 149
3 126 127 150
3 127 151 150
3 127 128 151
3 128 152 151
3 128 129 152
3 129 130 152
3 152 130 153
3 130 154 153
3 130 131 154
3 131 155 154
3 131 132 155
3 132 156 155
3 132 133 156
3 133 134 156
3 156 134 157
3 134 135 157
3 157 135 158
3 135 159 158
3 135 136 159
3 136 160 159
3 136 137 160
3 137 161 160
3 137 138 161
3 138 139 161
3 161 139 162
3 163 140 164
3 140 141 164
3 164 141 165
3 141 166 165
3 141 142 166
3 142 167 166
3 142 143 167
3 143 168 167
3 143 144 168
3 144 145 168
3 168 145 169
3 145 146 169
3 169 146 170
3 146 171 170
3 146 147 171
3 147 172 171
3 147 148 172
3 148 173 172
3 148 149 173
3 149 174 173
3 149 150 174
3 150 175 174
3 150 151 175
3 151 176 175
3 151 152 176
3 152 177 176
3 152 153 177
3 153 178 177
3 153 154 178
3 154 179 178
3 154 155 179
3 155 180 179
3 155 156 180
3 156 157 180
3 180 157 181
3 157 158 181
3 181 158 182
3 158 183 182
3 158 159 183
3 159 184 183
3 159 160 184
3 160 185 184
3 160 161 185
3 161 162 185
3 185 162 186
3 187 164 188
3 164 189 188
3 164 165 189
3 165 190 189
3 165 166 190
3 166 191 190
3 166 167 191
3 167 192 191
3 167 168 192
3 168 169 192
3 192 169 193
3 169 170 193
3 193 170 194
3 170 171 194
3 194 171 195
3 171 196 195
3 171 172 196
3 172 197 196
3 172 173 197
3 173 198 197
3 173 174 198
3 174 199 198
3 174 175 199
3 175 200 199
3 175 176 200
3 176 177 200
3 200 177 201
3 177 202 201
3 177 178 202
3 178 203 202
3 178 179 203
3 179 204 203
3 179 180 204
3 180 181 204
3 204 181 205
3 181 182 205
3 205 182 206
3 182 207 206
3 182 183 207
3 183 208 207
3 183 184 208
3 184 209 208
3 184 185 209
3 185 186 209
3 209 186 210
3 187 188 211
3 211 188 212
3 188 189 212
3 212 189 213
3 189 214 213
3 189 190 214
3 190 215 214
3 190 191 215
3 191 216 215
3 191 192 216
3 192 193 216
3 216 193 217
3 193 194 217
3 217 194 218
3 194 195 218
3 218 195 219
3 195 196 219
3 219 196 220
3 196 197 220
3 220 197 221
3 197 198 221
3 221 198 222
3 198 223 222
3 198 199 223
3 199 200 223
3 223 200 224
3 200 201 224
3 224 201 225
3 201 202 225
3 225 202 226
3 202 227 226
3 202 203 227
3 203 228 227
3 203 204 228
3 204 205 228
3 228 205 229
3 205 206 229
3 229 206 230
3 206 231 230
3 206 207 231
3 207 232 231
3 207 208 232
3 208 233 232
3 208 209 233
3 209 210 233
3 233 210 234
3 211 212 235
3 235 212 236
3 212 213 236
3 236 213 237
3 213 238 237
3 213 214 238
3 214 239 238
3 214 215 239
3 215 216 239
3 239 216 240
3 216 217 240
3 240 217 241
3 217 218 241
3 241 218 242
3 218 219 242
3 242 219 243
3 219 220 243
3 243 220 244
3 220 221 244
3 244 221 245
3 221 222 245
3 245 222 246
3 222 247 246
3 222 223 247
3 223 224 247
3 247 224 248
3 224 225 248
3 248 225 249
3 225 226 249
3 249 226 250
3 226 227 250
3 250 227 251
3 227 228 251
3 251 228 252
3 228 229 252
3 252 229 253
3 229 230 253
3 253 230 254
3 230 231 254
3 254 231 255
3 231 256 255
3 231 232 256
3 232 257 256
3 232 233 257
3 233 234 257
3 257 234 258
3 235 236 259
3 259 236 260
3 236 237 260
3 260 237 261
3 237 238 261
3 261 238 262
3 238 263 262
3 238 239 263
3 239 240 263
3 263 240 264
3 240 241 264
3 264 241 265
3 241 242 265
3 265 242 266
3 242 243 266
3 266 243 267
3 243 244 267
3 267 244 268
3 244 245 268
3 268 245 269
3 245 246 269
3 269 246 270
3 246 247 270
3 270 247 271
3 247 248 271
3 271 248 272
3 248 249 272
3 272 249 273
3 249 250 273
3 273 250 274
3 250 251 274
3 274 251 275
3 251 252 275
3 275 252 276
3 252 253 276
3 276 253 277
3 253 254 277
3 277 254 278
3 254 255 278
3 278 255 279
3 255 256 279
3 279 256 280
3 256 257 280
3 280 257 281
3 257 258 281
3 281 258 282
3 283 259 284
3 259 260 284
3 284 260 285
3 260 261 285
3 285 261 286
3 261 262 286
3 286 262 287
3 262 288 287
3 262 263 288
3 263 264 288
3 288 264 289
3 264 265 289
3 289 265 290
3 265 266 290
3 290 266 291
3 266 267 291
3 291 267 292
3 267 268 292
3 292 268 293
3 268 269 293
3 293 269 294
3 269 270 294
3 294 270 295
3 270 271 295
3 295 271 296
3 271 272 296
3 296 272 297
3 272 273 297
3 297 273 298
3 273 274 298
3 298 274 299
3 274 275 299
3 299 275 300
3 275 276 300
3 300 276 301
3 276 277 301
3 301 277 302
3 277 278 302
3 302 278 303
3 278 279 303
3 303 279 304
3 279 280 304
3 304 280 305
3 280 281 305
3 305 281 306
3 281 282 306
3 283 284 307
3 307 284 308
3 284 285 308
3 308 285 309
3 285 286 309
3 309 286 310
3 286 311 310
3 286 287 311
3 287 312 311
3 287 288 312
3 288 313 312
3 288 289 313
3 289 290 313
3 313 290 314
3 290 291 314
3 314 291 315
3 291 292 315
3 315 292 316
3 292 293 316
3 316 293 317
3 293 294 317
3 317 294 318
3 294 295 318
3 318 295 319
3 295 320 319
3 295 296 320
3 296 321 320
3 296 297 321
3 297 298 321
3 321 298 322
3 298 299 322
3 322 299 323
3 299 324 323
3 299 300 324
3 300 301 324
3 324 301 325
3 301 302 325
3 325 302 326
3 302 303 326
3 326 303 327
3 303 304 327
3 327 304 328
3 304 305 328
3 328 305 329
3 305 306 329
3 329 306 330
3 307 308 331
3 331 308 332
3 308 309 332
3 332 309 333
3 309 310 333
3 333 310 334
3 310 311 334
3 334 311 335
3 311 336 335
3 311 312 336
3 312 337 336
3 312 313 337
3 313 314 337
3 337 314 338
3 314 315 338
3 338 315 339
3 315 316 339
3 339 316 340
3 316 317 340
3 340 317 341
3 317 318 341
3 341 318 342
3 318 319 342
3 342 319 343
3 319 344 343
3 319 320 344
3 320 321 344
3 344 321 345
3 321 322 345
3 345 322 346
3 322 323 346
3 346 323 347
3 323 348 347
3 323 324 348
3 324 349 348
3 324 325 349
3 325 326 349
3 349 326 350
3 326 327 350
3 350 327 351
3 327 328 351
3 351 328 352
3 328 353 352
3 328 329 353
3 329 330 353
3 353 330 354
3 331 332 355
3 355 332 356
3 332 333 356
3 356 333 357
3 333 334 357
3 357 334 358
3 334 359 358
3 334 335 359
3 335 360 359
3 335 336 360
3 336 361 360
3 336 337 361
3 337 338 361
3 361 338 362
3 338 363 362
3 338 339 363
3 339 340 363
3 363 340 364
3 340 341 364
3 364 341 365
3 341 342 365
3 365 342 366
3 342 367 366
3 342 343 367
3 343 368 367
3 343 344 368
3 344 369 368
3 344 345 369
3 345 346 369
3 369 346 370
3 346 371 370
3 346 347 371
3 347 372 371
3 347 348 372
3 348 373 372
3 348 349 373
3 349 350 373
3 373 350 374
3 350 351 374
3 374 351 375
3 351 352 375
3 375 352 376
3 352 377 376
3 352 353 377
3 353 354 377
3 377 354 378
3 355 356 379
3 379 356 380
3 356 357 380
3 380 357 381
3 357 358 381
3 381 358 382
3 358 383 382
3 358 359 383
3 359 384 383
3 359 360 384
3 360 385 384
3 360 361 385
3 361 386 385
3 361 362 386
3 362 387 386
3 362 363 387
3 363 388 387
3 363 364 388
3 364 389 388
3 364 365 389
3 365 390 389
3 365 366 390
3 366 391 390
3 366 367 391
3 367 392 391
3 367 368 392
3 368 393 392
3 368 369 393
3 369 370 393
3 393 370 394
3 370 395 394
3 370 371 395
3 371 396 395
3 371 372 396
3 372 397 396
3 372 373 397
3 373 398 397
3 373 374 398
3 374 399 398
3 374 375 399
3 375 400 399
3 375 376 400
3 376 401 400
3 376 377 401
3 377 402 401
3 377 378 402
3 403 379 404
3 379 380 404
3 404 380 405
3 380 381 405
3 405 381 406
3 381 382 406
3 406 382 407
3 382 383 407
3 407 383 408
3 383 409 408
3 383 384 409
3 384 410 409
3 384 385 410
3 385 386 410
3 410 386 411
3 386 412 411
3 386 387 412
3 387 413 412
3 387 388 413
3 388 414 413
3 388 389 414
3 389 415 414
3 389 390 415
3 390 416 415
3 390 391 416
3 391 417 416
3 391 392 417
3 392 418 417
3 392 393 418
3 393 394 418
3 418 394 419
3 394 420 419
3 394 395 420
3 395 421 420
3 395 396 421
3 396 422 421
3 396 397 422
3 397 423 422
3 397 398 423
3 398 424 423
3 398 399 424
3 399 425 424
3 399 400 425
3 400 426 425
3 400 401 426
3 401 427 426
3 401 402 427
3 403 404 428
3 428 404 429
3 404 405 429
3 429 405 430
3 405 406 430
3 430 406 431
3 406 407 431
3 431 407 432
3 407 408 432
3 432 408 433
3 408 409 433
3 433 409 434
3 409 410 434
3 434 410 435
3 410 411 435
3 435 411 436
3 411 412 436
3 436 412 437
3 412 413 437
3 437 413 438
3 413 414 438
3 438 414 439
3 414 415 439
3 439 415 440
3 415 416 440
3 440 416 441
3 416 417 441
3 441 417 442
3 417 418 442
3 442 418 443
3 418 419 443
3 443 419 444
3 419 420 444
3 444 420 445
3 420 421 445
3 445 421 446
3 421 447 446
3 421 422 447
3 422 423 447
3 447 423 448
3 423 424 448
3 448 424 449
3 424 425 449
3 449 425 450
3 425 426 450
3 450 426 451
3 426 427 451
3 451 427 452
3 453 428 454
3 428 429 454
3 454 429 455
3 429 430 455
3 455 430 456
3 430 431 456
3 456 431 457
3 431 432 457
3 457 432 458
3 432 433 458
3 458 433 459
3 433 434 459
3 459 434 460
3 434 435 460
3 460 435 461
3 435 436 461
3 461 436 462
3 436 437 462
3 462 437 463
3 437 438 463
3 463 438 464
3 438 439 464
3 464 439 465
3 439 440 465
3 465 440 466
3 440 441 466
3 466 441 467
3 441 442 467
3 467 442 468
3 442 443 468
3 468 443 469
3 443 444 469
3 469 444 470
3 444 445 470
3 470 445 471
3 445 446 471
3 471 446 472
3 446 447 472
3 472 447 473
3 447 448 473
3 473 448 474
3 448 449 474
3 474 449 475
3 449 450 475
3 475 450 476
3 450 451 476
3 476 451 477
3 451 452 477
3 453 454 478
3 478 454 479
3 454 455 479
3 479 455 480
3 455 456 480
3 480 456 481
3 456 457 481
3 481 457 482
3 457 458 482
3 482 458 483
3 458 459 483
3 483 459 484
3 459 460 484
3 484 460 485
3 460 461 485
3 485 461 486
3 461 462 486
3 486 462 487
3 462 463 487
3 487 463 488
3 463 464 488
3 488 464 489
3 464 465 489
3 489 465 490
3 465 466 490
3 490 466 491
3 466 467 491
3 491 467 492
3 467 468 492
3 492 468 493
3 468 469 493
3 493 469 494
3 469 470 494
3 494 470 495
3 470 471 495
3 495 471 496
3 471 472 496
3 496 472 497
3 472 473 497
3 497 473 498
3 473 474 498
3 498 474 499
3 474 475 499
3 499 475 500
3 475 476 500
3 500 476 501
3 476 477 501
3 501 477 502
3 478 479 503
3 503 479 504
3 479 480 504
3 504 480 505
3 480 481 505
3 505 481 506
3 481 482 506
3 506 482 507
3 482 483 507
3 507 483 508
3 483 484 508
3 508 484 509
3 484 510 509
3 484 485 510
3 485 486 510
3 510 486 511
3 486 487 511
3 511 487 512
3 487 488 512
3 512 488 513
3 488 489 513
3 513 489 514
3 489 490 514
3 514 490 515
3 490 491 515
3 515 491 516
3 491 492 516
3 516 492 517
3 492 493 517
3 517 493 518
3 493 494 518
3 518 494 519
3 494 495 519
3 519 495 520
3 495 496 520
3 520 496 521
3 496 497 521
3 521 497 522
3 497 498 522
3 522 498 523
3 498 499 523
3 523 499 524
3 499 500 524
3 524 500 525
3 500 501 525
3 525 501 526
3 501 502 526
3 526 502 527
3 503 504 528
3 528 504 529
3 504 505 529
3 529 505 530
3 505 506 530
3 530 506 531
3 506 507 531
3 531 507 532
3 507 508 532
3 532 508 533
3 508 534 533
3 508 509 534
3 509 535 534
3 509 510 535
3 510 536 535
3 510 511 536
3 511 512 536
3 536 512 537
3 512 513 537
3 537 513 538
3 513 514 538
3 538 514 539
3 514 515 539
3 539 515 540
3 515 516 540
3 540 516 541
3 516 517 541
3 541 517 542
3 517 543 542
3 517 518 543
3 518 519 543
3 543 519 544
3 519 520 544
3 544 520 545
3 520 521 545
3 545 521 546
3 521 522 546
3 546 522 547
3 522 523 547
3 547 523 548
3 523 524 548
3 548 524 549
3 524 525 549
3 549 525 550
3 525 526 550
3 550 526 551
3 526 527 551
3 552 528 553
3 528 529 553
3 553 529 554
3 529 530 554
3 554 530 555
3 530 531 555
3 555 531 556
3 531 532 556
3 556 532 557
3 532 533 557
3 557 533 558
3 533 559 558
3 533 534 559
3 534 560 559
3 534 535 560
3 535 561 560
3 535 536 561
3 536 537 561
3 561 537 562
3 537 538 562
3 562 538 563
3 538 539 563
3 563 539 564
3 539 540 564
3 564 540 565
3 540 541 565
3 565 541 566
3 541 542 566
3 566 542 567
3 542 568 567
3 542 543 568
3 543 544 568
3 568 544 569
3 544 545 569
3 569 545 570
3 545 546 570
3 570 546 571
3 546 547 571
3 571 547 572
3 547 548 572
3 572 548 573
3 548 549 573
3 573 549 574
3 549 550 574
3 574 550 575
3 550 551 575
3 575 551 576
3 552 553 577
3 577 553 578
3 553 554 578
3 578 554 579
3 554 555 579
3 579 555 580
3 555 556 580
3 580 556 581
3 556 557 581
3 581 557 582
3 557 558 582
3 582 558 583
3 558 584 583
3 558 559 584
3 559 585 584
3 559 560 585
3 560 561 585
3 585 561 586
3 561 562 586
3 586 562 587
3 562 563 587
3 587 563 588
3 563 564 588
3 588 564 589
3 564 565 589
3 589 565 590
3 565 566 590
3 590 566 591
3 566 567 591
3 591 567 592
3 567 568 592
3 592 568 593
3 568 569 593
3 593 569 594
3 569 570 594
3 594 570 595
3 570 571 595
3 595 571 596
3 571 597 596
3 571 572 597
3 572 573 597
3 597 573 598
3 573 574 598
3 598 574 599
3 574 575 599
3 599 575 600
3 575 576 600
3 577 578 601
3 601 578 602
3 578 579 602
3 602 579 603
3 579 580 603
3 603 580 604
3 580 581 604
3 604 581 605
3 581 582 605
3 605 582 606
3 582 583 606
3 606 583 607
3 583 584 607
3 607 584 608
3 584 609 608
3 584 585 609
3 585 586 609
3 609 586 610
3 586 587 610
3 610 587 611
3 587 588 611
3 611 588 612
3 588 589 612
3 612 589 613
3 589 590 613
3 613 590 614
3 590 591 614
3 614 591 615
3 591 592 615
3 615 592 616
3 592 593 616
3 616 593 617
3 593 594 617
3 617 594 618
3 594 595 618
3 618 595 619
3 595 596 619
3 619 596 620
3 596 621 620
3 596 597 621
3 597 598 621
3 621 598 622
3 598 599 622
3 622 599 623
3 599 600 623
3 623 600 624
3 600 625 624
3 601 602 626
3 626 602 627
3 602 603 627
3 627 603 628
3 603 604 628
3 628 604 629
3 604 605 629
3 629 605 630
3 605 606 630
3 630 606 631
3 606 607 631
3 631 607 632
3 607 608 632
3 632 608 633
3 608 634 633
3 608 609 634
3 609 610 634
3 634 610 635
3 610 611 635
3 635 611 636
3 611 612 636
3 636 612 637
3 612 613 637
3 637 613 638
3 613 614 638
3 638 614 639
3 614 615 639
3 639 615 640
3 615 616 640
3 640 616 641
3 616 617 641
3 641 617 642
3 617 618 642
3 642 618 643
3 618 619 643
3 643 619 644
3 619 620 644
3 644 620 645
3 620 646 645
3 620 621 646
3 621 622 646
3 646 622 647
3 622 623 647
3 647 623 648
3 623 624 648
3 648 624 649
3 650 626 651
3 626 627 651
3 651 627 652
3 627 628 652
3 652 628 653
3 628 629 653
3 653 629 654
3 629 630 654
3 654 630 655
3 630 631 655
3 655 631 656
3 631 632 656
3 656 632 657
3 632 633 657
3 657 633 658
3 633 659 658
3 633 634 659
3 634 635 659
3 659 635 660
3 635 636 660
3 660 636 661
3 636 637 661
3 661 637 662
3 637 638 662
3 662 638 663
3 638 639 663
3 663 639 664
3 639 640 664
3 664 640 665
3 640 641 665
3 665 641 666
3 641 642 666
3 666 642 667
3 642 643 667
3 667 643 668
3 643 644 668
3 668 644 669
3 644 645 669
3 669 645 670
3 645 671 670
3 645 646 671
3 646 647 671
3 671 647 672
3 647 648 672
3 672 648 673
3 648 649 673
3 650 651 674
3 674 651 675
3 651 652 675
3 675 652 676
3 652 653 676
3 676 653 677
3 653 654 677
3 677 654 678
3 654 655 678
3 678 655 679
3 655 656 679
3 679 656 680
3 656 657 680
3 680 657 681
3 657 682 681
3 657 658 682
3 658 683 682
3 658 659 683
3 659 684 683
3 659 660 684
3 660 661 684
3 684 661 685
3 661 662 685
3 685 662 686
3 662 663 686
3 686 663 687
3 663 664 687
3 687 664 688
3 664 665 688
3 688 665 689
3 665 666 689
3 689 666 690
3 666 667 690
3 690 667 691
3 667 668 691
3 691 668 692
3 668 669 692
3 692 669 693
3 669 670 693
3 693 670 694
3 670 695 694
3 670 671 695
3 671 672 695
3 695 672 696
3 672 673 696
3 696 673 697
3 674 675 698
3 698 675 699
3 675 676 699
3 699 676 700
3 676 677 700
3 700 677 701
3 677 678 701
3 701 678 702
3 678 679 702
3 702 679 703
3 679 680 703
3 703 680 704
3 680 705 704
3 680 681 705
3 681 706 705
3 681 682 706
3 682 707 706
3 682 683 707
3 683 708 707
3 683 684 708
3 684 685 708
3 708 685 709
3 685 710 709
3 685 686 710
3 686 711 710
3 686 687 711
3 687 712 711
3 687 688 712
3 688 689 712
3 712 689 713
3 689 690 713
3 713 690 714
3 690 715 714
3 690 691 715
3 691 692 715
3 715 692 716
3 692 693 716
3 716 693 717
3 693 694 717
3 717 694 718
3 694 719 718
3 694 695 719
3 695 720 719
3 695 696 720
3 696 697 720
3 720 697 721
3 698 699 722
3 722 699 723
3 699 700 723
3 723 700 724
3 700 701 724
3 724 701 725
3 701 702 725
3 725 702 726
3 702 703 726
3 726 703 727
3 703 704 727
3 727 704 728
3 704 729 728
3 704 705 729
3 705 730 729
3 705 706 730
3 706 731 730
3 706 707 731
3 707 732 731
3 707 708 732
3 708 733 732
3 708 709 733
3 709 734 733
3 709 710 734
3 710 735 734
3 710 711 735
3 711 736 735
3 711 712 736
3 712 737 736
3 712 713 737
3 713 738 737
3 713 714 738
3 714 739 738
3 714 715 739
3 715 740 739
3 715 716 740
3 716 717 740
3 740 717 741
3 717 742 741
3 717 718 742
3 718 743 742
3 718 719 743
3 719 744 743
3 719 720 744
3 720 745 744
3 720 721 745
3 722 723 746
3 746 723 747
3 723 724 747
3 747 724 748
3 724 725 748
3 748 725 749
3 725 726 749
3 749 726 750
3 726 727 750
3 750 727 751
3 727 728 751
3 751 728 752
3 728 753 752
3 728 729 753
3 729 754 753
3 729 730 754
3 730 755 754
3 730 731 755
3 731 756 755
3 731 732 756
3 732 757 756
3 732 733 757
3 733 758 757
3 733 734 758
3 734 759 758
3 734 735 759
3 735 760 759
3 735 736 760
3 736 761 760
3 736 737 761
3 737 762 761
3 737 738 762
3 738 763 762
3 738 739 763
3 739 764 763
3 739 740 764
3 740 741 764
3 764 741 765
3 741 766 765
3 741 742 766
3 742 767 766
3 742 743 767
3 743 768 767
3 743 744 768
3 744 769 768
3 744 745 769
3 746 747 770
3 770 747 771
3 747 748 771
3 771 748 772
3 748 749 772
3 772 749 773
3 749 750 773
3 773 750 774
3 750 751 774
3 774 751 775
3 751 752 775
3 775 752 776
3 752 777 776
3 752 753 777
3 753 778 777
3 753 754 778
3 754 779 778
3 754 755 779
3 755 780 779
3 755 756 780
3 756 781 780
3 756 757 781
3 757 782 781
3 757 758 782
3 758 783 782
3 758 759 783
3 759 784 783
3 759 760 784
3 760 761 784
3 784 761 785
3 761 786 785
3 761 762 786
3 762 787 786
3 762 763 787
3 763 788 787
3 763 764 788
3 764 765 788
3 788 765 789
3 765 790 789
3 765 766 790
3 766 791 790
3 766 767 791
3 767 792 791
3 767 768 792
3 768 769 792
3 792 769 793
3 770 771 794
3 794 771 795
3 771 772 795
3 795 772 796
3 772 773 796
3 796 773 797
3 773 774 797
3 797 774 798
3 774 775 798
3 798 775 799
3 775 776 799
3 799 776 800
3 776 777 800
3 800 777 801
3 777 802 801
3 777 778 802
3 778 803 802
3 778 779 803
3 779 804 803
3 779 780 804
3 780 781 804
3 804 781 805
3 781 782 805
3 805 782 806
3 782 783 806
3 806 783 807
3 783 784 807
3 807 784 808
3 784 785 808
3 808 785 809
3 785 786 809
3 809 786 810
3 786 811 810
3 786 787 811
3 787 788 811
3 811 788 812
3 788 789 812
3 812 789 813
3 789 790 813
3 813 790 814
3 790 815 814
3 790 791 815
3 791 816 815
3 791 792 816
3 792 793 816
3 816 793 817
3 794 795 818
3 818 795 819
3 795 796 819
3 819 796 820
3 796 797 820
3 820 797 821
3 797 798 821
3 821 798 822
3 798 799 822
3 822 799 823
3 799 800 823
3 823 800 824
3 800 801 824
3 824 801 825
3 801 802 825
3 825 802 826
3 802 827 826
3 802 803 827
3 803 828 827
3 803 804 828
3 804 805 828
3 828 805 829
3 805 806 829
3 829 806 830
3 806 807 830
3 830 807 831
3 807 808 831
3 831 808 832
3 808 809 832
3 832 809 833
3 809 810 833
3 833 810 834
3 810 835 834
3 810 811 835
3 811 812 835
3 835 812 836
3 812 813 836
3 836 813 837
3 813 814 837
3 837 814 838
3 814 839 838
3 814 815 839
3 815 840 839
3 815 816 840
3 816 841 840
3 816 817 841
3 842 818 843
3 818 819 843
3 843 819 844
3 819 820 844
3 844 820 845
3 820 821 845
3 845 821 846
3 821 822 846
3 846 822 847
3 822 823 847
3 847 823 848
3 823 824 848
3 848 824 849
3 824 825 849
3 849 825 850
3 825 851 850
3 825 826 851
3 826 852 851
3 826 827 852
3 827 853 852
3 827 828 853
3 828 854 853
3 828 829 854
3 829 855 854
3 829 830 855
3 830 856 855
3 830 831 856
3 831 857 856
3 831 832 857
3 832 858 857
3 832 833 858
3 833 859 858
3 833 834 859
3 834 860 859
3 834 835 860
3 835 861 860
3 835 836 861
3 836 837 861
3 861 837 862
3 837 863 862
3 837 838 863
3 838 864 863
3 838 839 864
3 839 865 864
3 839 840 865
3 840 866 865
3 840 841 866
3 842 867 868
3 842 843 867
3 843 844 867
3 867 844 869
3 844 845 869
3 869 845 870
3 845 846 870
3 870 846 871
3 846 847 871
3 871 847 872
3 847 848 872
3 872 848 873
3 848 849 873
3 873 849 874
3 849 875 874
3 849 850 875
3 850 876 875
3 850 851 876
3 851 877 876
3 851 852 877
3 852 878 877
3 852 853 878
3 853 879 878
3 853 854 879
3 854 880 879
3 854 855 880
3 855 881 880
3 855 856 881
3 856 882 881
3 856 857 882
3 857 883 882
3 857 858 883
3 858 884 883
3 858 859 884
3 859 885 884
3 859 860 885
3 860 886 885
3 860 861 886
3 861 862 886
3 886 862 887
3 862 888 887
3 862 863 888
3 863 889 888
3 863 864 889
3 864 890 889
3 864 865 890
3 865 891 890
3 865 866 891
3 868 892 893
3 868 867 892
3 867 894 892
3 867 869 894
3 869 870 894
3 894 870 895
3 870 871 895
3 895 871 896
3 871 872 896
3 896 872 897
3 872 873 897
3 897 873 898
3 873 874 898
3 898 874 899
3 874 900 899
3 874 875 900
3 875 901 900
3 875 876 901
3 876 902 901
3 876 877 902
3 877 903 902
3 877 878 903
3 878 904 903
3 878 879 904
3 879 905 904
3 879 880 905
3 880 906 905
3 880 881 906
3 881 907 906
3 881 882 907
3 882 908 907
3 882 883 908
3 883 909 908
3 883 884 909
3 884 910 909
3 884 885 910
3 885 911 910
3 885 886 911
3 886 887 911
3 911 887 912
3 887 913 912
3 887 888 913
3 888 914 913
3 888 889 914
3 889 915 914
3 889 890 915
3 890 916 915
3 890 891 916
3 893 917 918
3 893 892 917
3 892 894 917
3 917 894 919
3 894 895 919
3 919 895 920
3 895 896 920
3 920 896 921
3 896 897 921
3 921 897 922
3 897 898 922
3 922 898 923
3 898 899 923
3 923 899 924
3 899 925 924
3 899 900 925
3 900 926 925
3 900 901 926
3 901 927 926
3 901 902 927
3 902 928 927
3 902 903 928
3 903 929 928
3 903 904 929
3 904 930 929
3 904 905 930
3 905 931 930
3 905 906 931
3 906 932 931
3 906 907 932
3 907 908 932
3 932 908 933
3 908 934 933
3 908 909 934
3 909 935 934
3 909 910 935
3 910 936 935
3 910 911 936
3 911 912 936
3 936 912 937
3 912 938 937
3 912 913 938
3 913 939 938
3 913 914 939
3 914 940 939
3 914 915 940
3 915 941 940
3 915 916 941
3 918 942 943
3 918 917 942
3 917 919 942
3 942 919 944
3 919 920 944
3 944 920 945
3 920 921 945
3 945 921 946
3 921 922 946
3 946 922 947
3 922 923 947
3 947 923 948
3 923 924 948
3 948 924 949
3 924 950 949
3 924 925 950
3 925 951 950
3 925 926 951
3 926 952 951
3 926 927 952
3 927 953 952
3 927 928 953
3 928 954 953
3 928 929 954
3 929 955 954
3 929 930 955
3 930 956 955
3 930 931 956
3 931 957 956
3 931 932 957
3 932 958 957
3 932 933 958
3 933 959 958
3 933 934 959
3 934 960 959
3 934 935 960
3 935 961 960
3 935 936 961
3 936 937 961
3 961 937 962
3 937 963 962
3 937 938 963
3 938 964 963
3 938 939 964
3 939 965 964
3 939 940 965
3 940 966 965
3 940 941 966
3 943 942 967
3 942 944 967
3 967 944 968
3 944 945 968
3 968 945 969
3 945 946 969
3 969 946 970
3 946 947 970
3 952 953 971
3 953 972 971
3 953 954 972
3 954 973 972
3 954 955 973
3 955 974 973
3 955 956 974
3 956 975 974
3 956 957 975
3 957 976 975
3 957 958 976
3 958 977 976
3 958 959 977
3 959 978 977
3 959 960 978
3 960 979 978
3 960 961 979
3 961 962 979
3 979 962 980
3 962 981 980
3 962 963 981
3 963 982 981
3 963 964 982
3 964 983 982
3 964 965 983
3 965 984 983
3 965 966 984
3 982 983 985
3 983 986 985
3 983 984 986
CELL_DATA 1840
SCALARS brightness_temperature float
LOOKUP_TABLE default
POINT_DATA 987
CELL_DATA 1840
SCALARS emission_angle float
LOOKUP_TABLE default
POINT_DATA 987
CELL_DATA 1840
SCALARS incidence_angle float
LOOKUP_TABLE default
POINT_DATA 987
CELL_DATA 1840
SCALARS phase_angle float
LOOKUP_TABLE default
POINT_DATA 987
CELL_DATA 1840
SCALARS local_solar_time float
LOOKUP_TABLE default
POINT_DATA 987
CELL_DATA 1840
SCALARS local_solar_time_normal_vector float
LOOKUP_TABLE default
CELL_DATA 1840
SCALARS pixel_x float
LOOKUP_TABLE default
POINT_DATA 987
CELL_DATA 1840
SCALARS pixel_y float
LOOKUP_TABLE default
POINT_DATA 987
CELL_DATA 1840
SCALARS longitude float
LOOKUP_TABLE default
POINT_DATA 987
CELL_DATA 1840
SCALARS latitude float
LOOKUP_TABLE default
