# vtk DataFile Version 3.0
SHAPE_sfm_50k_v20200323
ASCII
DATASET POLYDATA
POINTS 449 float
-0.35914 -0.32932 0.07917
-0.35798 -0.3324 0.07779
-0.3569 -0.33144 0.07983
-0.36009 -0.33016 0.07703
-0.35911 -0.33343 0.0758
-0.36103 -0.33102 0.07487
-0.35974 -0.33441 0.07358
-0.36201 -0.33227 0.07294
-0.36059 -0.33547 0.07149
-0.36305 -0.33348 0.07101
-0.36156 -0.33666 0.06951
-0.36401 -0.33463 0.06901
-0.3626 -0.33788 0.0675
-0.36481 -0.33552 0.06681
-0.36296 -0.33838 0.06503
-0.36544 -0.33635 0.06454
-0.36364 -0.33912 0.06274
-0.36605 -0.33701 0.06221
-0.36436 -0.33988 0.06046
-0.36674 -0.33767 0.05991
-0.36482 -0.34022 0.05801
-0.3674 -0.3383 0.05758
-0.36791 -0.33934 0.05538
-0.36527 -0.3412 0.05577
-0.36867 -0.34059 0.05334
-0.36581 -0.34215 0.05352
-0.36928 -0.34148 0.05108
-0.36648 -0.34315 0.05133
-0.37017 -0.34266 0.04907
-0.36725 -0.34414 0.04917
-0.37108 -0.34405 0.0472
-0.36803 -0.34529 0.04709
-0.34894 -0.32361 0.09637
-0.34789 -0.32672 0.09517
-0.34691 -0.32578 0.09727
-0.35018 -0.32472 0.09451
-0.34883 -0.32759 0.09302
-0.35131 -0.32573 0.09251
-0.34967 -0.32864 0.0909
-0.35208 -0.3267 0.09034
-0.35059 -0.32963 0.08878
-0.35304 -0.32771 0.08827
-0.35153 -0.33059 0.08667
-0.35404 -0.32871 0.0862
-0.35258 -0.33155 0.0846
-0.35501 -0.32959 0.08407
-0.35363 -0.33261 0.08259
-0.356 -0.3306 0.08201
-0.35458 -0.3335 0.08045
-0.35546 -0.33428 0.07824
-0.35628 -0.33498 0.07598
-0.35699 -0.33601 0.07381
-0.35777 -0.33699 0.07163
-0.35872 -0.33817 0.06963
-0.35958 -0.33919 0.06748
-0.36014 -0.33999 0.06517
-0.36086 -0.34078 0.06289
-0.36143 -0.34132 0.06051
-0.36214 -0.34203 0.05823
-0.36262 -0.34306 0.05599
-0.36316 -0.34401 0.05374
-0.36366 -0.34478 0.0514
-0.36433 -0.3456 0.04913
-0.36499 -0.3465 0.04689
-0.34587 -0.32896 0.09604
-0.34676 -0.32981 0.09384
-0.34743 -0.33073 0.09159
-0.34824 -0.33165 0.08939
-0.34919 -0.33263 0.08727
-0.35021 -0.33358 0.08518
-0.35121 -0.3346 0.08312
-0.35215 -0.33548 0.08097
-0.3531 -0.33633 0.07883
-0.35397 -0.33709 0.07661
-0.35441 -0.33782 0.07425
-0.35498 -0.3385 0.07189
-0.35571 -0.33929 0.06962
-0.35654 -0.34026 0.06745
-0.35717 -0.34124 0.06522
-0.35797 -0.34223 0.06305
-0.35874 -0.34309 0.06082
-0.35946 -0.34383 0.05853
-0.36001 -0.34497 0.05634
-0.36055 -0.34596 0.05407
-0.36088 -0.34648 0.05162
-0.36134 -0.34695 0.04919
-0.36192 -0.34767 0.04685
-0.3443 -0.33169 0.09431
-0.34331 -0.33072 0.09642
-0.34517 -0.33281 0.09223
-0.34605 -0.33381 0.09009
-0.3471 -0.33487 0.08805
-0.34841 -0.33601 0.08621
-0.34948 -0.33705 0.08417
-0.35034 -0.33791 0.08196
-0.35111 -0.33866 0.07968
-0.35164 -0.33914 0.07727
-0.35203 -0.33984 0.07488
-0.35236 -0.34026 0.07241
-0.35296 -0.34089 0.07004
-0.35372 -0.34176 0.0678
-0.35428 -0.34262 0.0655
-0.35502 -0.34353 0.06327
-0.35585 -0.34454 0.06112
-0.35688 -0.34581 0.05916
-0.35734 -0.34681 0.05685
-0.35767 -0.34745 0.05438
-0.35803 -0.34802 0.05194
-0.35841 -0.34836 0.04947
-0.35881 -0.34876 0.04701
-0.34179 -0.33355 0.09446
-0.34077 -0.33252 0.09653
-0.34288 -0.33492 0.09264
-0.34419 -0.3363 0.09092
-0.34523 -0.33736 0.08886
-0.3464 -0.33845 0.08694
-0.3478 -0.33975 0.08525
-0.34896 -0.34076 0.08314
-0.34949 -0.34134 0.08061
-0.34976 -0.34165 0.07805
-0.34962 -0.34181 0.0755
-0.34986 -0.34214 0.07301
-0.35033 -0.34263 0.07058
-0.35087 -0.34318 0.06817
-0.35144 -0.34408 0.06588
-0.35213 -0.3449 0.06359
-0.35288 -0.3458 0.06135
-0.3537 -0.34671 0.05914
-0.35424 -0.3479 0.05697
-0.35484 -0.34903 0.05478
-0.35532 -0.34978 0.0524
-0.35569 -0.35013 0.04991
-0.35594 -0.35036 0.0474
-0.3565 -0.35084 0.04495
-0.3393 -0.33537 0.09502
-0.34034 -0.33673 0.09316
-0.34148 -0.338 0.09127
-0.34252 -0.3391 0.0892
-0.34345 -0.33983 0.08697
-0.34469 -0.34102 0.08515
-0.34597 -0.34238 0.08334
-0.34671 -0.34314 0.0809
-0.34715 -0.34359 0.07838
-0.34712 -0.34377 0.07582
-0.34742 -0.34419 0.07334
-0.34783 -0.34462 0.07088
-0.34838 -0.3452 0.06849
-0.3488 -0.3459 0.06609
-0.34938 -0.34657 0.06372
-0.35005 -0.34735 0.06141
-0.35083 -0.3482 0.05915
-0.35133 -0.34933 0.05694
-0.35195 -0.35053 0.0548
-0.35258 -0.35155 0.05255
-0.35309 -0.35211 0.05011
-0.35351 -0.35257 0.04766
-0.35406 -0.35307 0.04523
-0.33747 -0.33807 0.0932
-0.33666 -0.337 0.09535
-0.33852 -0.33915 0.09115
-0.33953 -0.34021 0.08907
-0.34044 -0.34084 0.08678
-0.34159 -0.34172 0.08471
-0.34278 -0.34287 0.08278
-0.3435 -0.34362 0.08044
-0.34403 -0.34445 0.07809
-0.34431 -0.34529 0.07571
-0.34479 -0.34605 0.07333
-0.34525 -0.34656 0.07089
-0.34576 -0.34709 0.06847
-0.34621 -0.34784 0.06609
-0.34676 -0.34846 0.06369
-0.34736 -0.34915 0.06132
-0.34803 -0.34984 0.05897
-0.34853 -0.35095 0.05674
-0.34914 -0.35215 0.05458
-0.34981 -0.35327 0.05239
-0.35047 -0.35408 0.05007
-0.35104 -0.35476 0.04768
-0.3516 -0.35528 0.04526
-0.33488 -0.33979 0.09358
-0.33415 -0.3388 0.09581
-0.33569 -0.34052 0.09128
-0.33663 -0.3414 0.08909
-0.33756 -0.34211 0.08683
-0.33869 -0.34292 0.08472
-0.33985 -0.34394 0.08271
-0.34066 -0.34498 0.0805
-0.34112 -0.34566 0.07807
-0.34125 -0.3462 0.07558
-0.34169 -0.34694 0.07318
-0.34224 -0.34771 0.07082
-0.34284 -0.34845 0.06846
-0.34334 -0.3493 0.06612
-0.34407 -0.35024 0.06388
-0.34487 -0.35122 0.06165
-0.34548 -0.35185 0.05925
-0.34579 -0.35268 0.05687
-0.34631 -0.35374 0.05462
-0.34697 -0.35487 0.05243
-0.34753 -0.35555 0.05004
-0.34812 -0.35629 0.04768
-0.34876 -0.35696 0.04531
-0.33231 -0.3415 0.09411
-0.33299 -0.34209 0.09172
-0.33386 -0.34285 0.08945
-0.33482 -0.3436 0.08721
-0.33589 -0.34431 0.08502
-0.33704 -0.3453 0.08299
-0.3379 -0.34643 0.08083
-0.33823 -0.34692 0.07831
-0.33829 -0.34736 0.07579
-0.3387 -0.34806 0.07336
-0.33932 -0.349 0.07106
-0.33997 -0.34986 0.06875
-0.34041 -0.35064 0.06636
-0.34117 -0.35164 0.06414
-0.34196 -0.35263 0.06192
-0.34272 -0.35349 0.05964
-0.34309 -0.35442 0.05729
-0.3436 -0.3555 0.05504
-0.34423 -0.3566 0.05283
-0.34486 -0.35743 0.05051
-0.34539 -0.35811 0.04813
-0.34591 -0.35862 0.04569
-0.33056 -0.34403 0.09224
-0.32997 -0.3435 0.09468
-0.33133 -0.34467 0.08989
-0.33225 -0.34539 0.08761
-0.3333 -0.34607 0.08539
-0.33441 -0.34702 0.0833
-0.33526 -0.34811 0.08111
-0.33565 -0.34871 0.07861
-0.33572 -0.34922 0.07609
-0.33608 -0.34988 0.07365
-0.33664 -0.35073 0.07129
-0.33717 -0.35142 0.06889
-0.33766 -0.3523 0.06653
-0.33843 -0.35332 0.06431
-0.33934 -0.35449 0.06222
-0.34021 -0.35549 0.06
-0.34057 -0.35644 0.05765
-0.34116 -0.35761 0.05547
-0.34207 -0.35896 0.0535
-0.34314 -0.36012 0.05144
-0.34362 -0.36078 0.04894
-0.34358 -0.3609 0.04634
-0.34391 -0.36131 0.04383
-0.32837 -0.34627 0.09249
-0.32777 -0.34572 0.09493
-0.3291 -0.3469 0.09011
-0.32998 -0.34756 0.08779
-0.33102 -0.34824 0.08554
-0.33199 -0.34903 0.08331
-0.33278 -0.35005 0.08108
-0.33336 -0.35088 0.07869
-0.33352 -0.35151 0.07619
-0.33377 -0.35208 0.07369
-0.33415 -0.35274 0.07124
-0.33466 -0.35342 0.06881
-0.33527 -0.35444 0.06653
-0.33614 -0.3556 0.06441
-0.33697 -0.3567 0.06223
-0.33782 -0.35768 0.05999
-0.33818 -0.35862 0.05761
-0.33875 -0.3598 0.0554
-0.33979 -0.36131 0.0536
-0.34094 -0.36255 0.05165
-0.34214 -0.36363 0.04954
-0.34189 -0.36372 0.04689
-0.34162 -0.36371 0.04433
-0.32643 -0.34874 0.09277
-0.32581 -0.34815 0.09522
-0.32708 -0.3493 0.09033
-0.32789 -0.34992 0.08797
-0.32883 -0.35051 0.08564
-0.32968 -0.35117 0.0833
-0.33037 -0.35209 0.081
-0.33122 -0.35322 0.0788
-0.33159 -0.35405 0.07634
-0.33185 -0.35464 0.07383
-0.33213 -0.35523 0.07133
-0.3326 -0.3559 0.06889
-0.33311 -0.35684 0.06655
-0.33374 -0.35774 0.06422
-0.33445 -0.35872 0.06194
-0.33538 -0.35982 0.05978
-0.33587 -0.36091 0.0575
-0.33652 -0.36217 0.05535
-0.33773 -0.36381 0.05377
-0.3393 -0.36535 0.05232
-0.34081 -0.36663 0.05036
-0.34136 -0.36706 0.04755
-0.34014 -0.36663 0.04501
-0.32443 -0.35116 0.09309
-0.32364 -0.35042 0.09546
-0.32511 -0.35174 0.09065
-0.32576 -0.35224 0.08819
-0.32667 -0.3528 0.08583
-0.32747 -0.35343 0.08345
-0.32808 -0.35427 0.08108
-0.32893 -0.35542 0.07887
-0.32917 -0.35614 0.07636
-0.32953 -0.35685 0.07389
-0.32994 -0.35758 0.07143
-0.33038 -0.35823 0.06897
-0.33084 -0.35913 0.06659
-0.33138 -0.35995 0.06419
-0.33197 -0.36078 0.06181
-0.33283 -0.36182 0.05961
-0.33342 -0.36304 0.05741
-0.33429 -0.36454 0.05553
-0.33554 -0.36626 0.05408
-0.33716 -0.36791 0.05274
-0.33861 -0.36924 0.05078
-0.33997 -0.37035 0.04833
-0.33945 -0.37012 0.04528
-0.32222 -0.35339 0.09344
-0.32303 -0.3541 0.09106
-0.3237 -0.3546 0.08859
-0.32455 -0.35512 0.08619
-0.32535 -0.35575 0.08381
-0.32577 -0.35643 0.08134
-0.3263 -0.35725 0.07892
-0.32678 -0.35823 0.07655
-0.32704 -0.35885 0.07403
-0.32743 -0.35958 0.07157
-0.32793 -0.36032 0.06912
-0.32835 -0.36118 0.06671
-0.32893 -0.36206 0.06433
-0.32943 -0.36278 0.06189
-0.33022 -0.36373 0.05961
-0.33079 -0.36496 0.0574
-0.33165 -0.36647 0.05548
-0.33287 -0.36823 0.05404
-0.33445 -0.36998 0.05275
-0.33597 -0.37152 0.05097
-0.337 -0.37253 0.04846
-0.33706 -0.37292 0.04554
-0.32072 -0.35619 0.09163
-0.31978 -0.35534 0.09392
-0.32145 -0.35674 0.08918
-0.32229 -0.35725 0.08677
-0.32334 -0.35814 0.08452
-0.3236 -0.35866 0.08194
-0.32386 -0.35922 0.07939
-0.32436 -0.36022 0.07704
-0.32483 -0.36107 0.07461
-0.3252 -0.36181 0.07213
-0.32552 -0.36237 0.0696
-0.32584 -0.36313 0.06714
-0.32624 -0.3638 0.06465
-0.32678 -0.3646 0.06223
-0.32752 -0.3655 0.0599
-0.32806 -0.3667 0.05767
-0.32875 -0.36797 0.05551
-0.3299 -0.36965 0.05389
-0.33136 -0.37137 0.05247
-0.33274 -0.37278 0.05056
-0.33358 -0.37351 0.04799
-0.33356 -0.37378 0.04524
-0.3364 -0.37218 0.04277
-0.33323 -0.37359 0.04257
-0.31817 -0.3579 0.09238
-0.31714 -0.35694 0.09459
-0.31897 -0.35854 0.08996
-0.31982 -0.35906 0.08755
-0.3206 -0.35967 0.08515
-0.32112 -0.36047 0.08272
-0.32153 -0.3612 0.08024
-0.32201 -0.3622 0.07787
-0.32247 -0.36306 0.07544
-0.32267 -0.36363 0.07289
-0.32311 -0.36435 0.07041
-0.32343 -0.36511 0.06794
-0.3238 -0.36576 0.06544
-0.3243 -0.36652 0.06299
-0.32482 -0.36717 0.06051
-0.32522 -0.36819 0.05814
-0.32576 -0.36923 0.0558
-0.32674 -0.37046 0.05371
-0.32811 -0.37183 0.05195
-0.32941 -0.37306 0.04999
-0.33027 -0.37388 0.04757
-0.33027 -0.37426 0.04491
-0.32993 -0.37419 0.04229
-0.31546 -0.35952 0.09263
-0.31631 -0.36022 0.09026
-0.31736 -0.36099 0.08799
-0.31821 -0.36169 0.08563
-0.31883 -0.36258 0.08325
-0.31915 -0.36323 0.08072
-0.31952 -0.36413 0.07829
-0.31994 -0.36497 0.07584
-0.32008 -0.36547 0.07326
-0.32042 -0.3661 0.07074
-0.32076 -0.36691 0.06827
-0.32125 -0.3677 0.06582
-0.32173 -0.36845 0.06336
-0.32247 -0.36937 0.06101
-0.32275 -0.37025 0.05856
-0.32311 -0.37111 0.0561
-0.32373 -0.37177 0.05363
-0.32495 -0.37256 0.05144
-0.32622 -0.37348 0.04936
-0.32704 -0.37428 0.047
-0.32707 -0.37492 0.04446
-0.32686 -0.37535 0.04189
-0.31393 -0.36238 0.09035
-0.31304 -0.36159 0.09268
-0.31502 -0.36314 0.08809
-0.31602 -0.36396 0.08582
-0.31648 -0.36471 0.08336
-0.31692 -0.36548 0.08089
-0.31713 -0.36623 0.07838
-0.31737 -0.36687 0.07585
-0.31761 -0.36752 0.07331
-0.31792 -0.36811 0.07077
-0.31823 -0.3689 0.06828
-0.31871 -0.3697 0.06581
-0.31908 -0.37031 0.06328
-0.31977 -0.37119 0.06089
-0.32034 -0.37247 0.05866
-0.32095 -0.37363 0.05634
-0.32131 -0.37397 0.0537
-0.32225 -0.37442 0.0513
-0.32335 -0.37503 0.049
-0.32413 -0.37578 0.04661
-0.32423 -0.37656 0.04411
-0.3127 -0.36531 0.09102
-0.31155 -0.36437 0.09324
-0.31328 -0.36577 0.08845
-0.31403 -0.3664 0.08601
-0.31438 -0.36708 0.08349
-0.31476 -0.3678 0.08098
-0.3152 -0.36878 0.07854
-0.31515 -0.36916 0.0759
-0.31533 -0.36978 0.07334
-0.31563 -0.37038 0.07079
-0.31585 -0.37107 0.06824
-0.31627 -0.37181 0.06574
-0.31673 -0.37254 0.06324
-0.31089 -0.36791 0.0917
-0.31158 -0.36841 0.08911
-0.3119 -0.36869 0.08647
-0.31216 -0.36929 0.0839
-0.31255 -0.37004 0.08138
-0.37196 -0.34013 0.05114
-0.37288 -0.34132 0.04913
POLYGONS 811 3244
3 0 1 2
3 3 4 1
3 5 6 4
3 5 7 6
3 7 8 6
3 7 9 8
3 9 10 8
3 9 11 10
3 11 12 10
3 11 13 12
3 13 14 12
3 13 15 14
3 15 16 14
3 15 17 16
3 17 18 16
3 17 19 18
3 19 20 18
3 19 21 20
3 21 22 20
3 20 22 23
3 22 24 23
3 23 24 25
3 24 26 25
3 25 26 27
3 26 28 27
3 27 28 29
3 28 30 29
3 29 30 31
3 32 33 34
3 32 35 33
3 35 36 33
3 35 37 36
3 37 38 36
3 37 39 38
3 39 40 38
3 39 41 40
3 41 42 40
3 41 43 42
3 43 44 42
3 43 45 44
3 45 46 44
3 45 47 46
3 47 48 46
3 47 2 48
3 2 49 48
3 2 1 49
3 1 50 49
3 1 4 50
3 4 6 50
3 50 6 51
3 6 52 51
3 6 8 52
3 8 10 52
3 52 10 53
3 10 12 53
3 53 12 54
3 12 55 54
3 12 14 55
3 14 56 55
3 14 16 56
3 16 57 56
3 16 18 57
3 18 58 57
3 18 20 58
3 20 23 58
3 58 23 59
3 23 25 59
3 59 25 60
3 25 27 60
3 60 27 61
3 27 29 61
3 61 29 62
3 29 31 62
3 62 31 63
3 34 33 64
3 33 65 64
3 33 36 65
3 36 66 65
3 36 38 66
3 38 67 66
3 38 40 67
3 40 68 67
3 40 42 68
3 42 69 68
3 42 44 69
3 44 70 69
3 44 46 70
3 46 71 70
3 46 48 71
3 48 72 71
3 48 49 72
3 49 73 72
3 49 50 73
3 50 74 73
3 50 51 74
3 51 75 74
3 51 52 75
3 52 76 75
3 52 53 76
3 53 77 76
3 53 54 77
3 54 55 77
3 77 55 78
3 55 79 78
3 55 56 79
3 56 80 79
3 56 57 80
3 57 81 80
3 57 58 81
3 58 59 81
3 81 59 82
3 59 60 82
3 82 60 83
3 60 84 83
3 60 61 84
3 61 85 84
3 61 62 85
3 62 63 85
3 85 63 86
3 64 87 88
3 64 65 87
3 65 89 87
3 65 66 89
3 66 90 89
3 66 67 90
3 67 91 90
3 67 68 91
3 68 92 91
3 68 69 92
3 69 93 92
3 69 70 93
3 70 94 93
3 70 71 94
3 71 95 94
3 71 72 95
3 72 96 95
3 72 73 96
3 73 97 96
3 73 74 97
3 74 98 97
3 74 75 98
3 75 99 98
3 75 76 99
3 76 100 99
3 76 77 100
3 77 101 100
3 77 78 101
3 78 102 101
3 78 79 102
3 79 103 102
3 79 80 103
3 80 104 103
3 80 81 104
3 81 105 104
3 81 82 105
3 82 106 105
3 82 83 106
3 83 107 106
3 83 84 107
3 84 108 107
3 84 85 108
3 85 109 108
3 85 86 109
3 88 110 111
3 88 87 110
3 87 112 110
3 87 89 112
3 89 113 112
3 89 90 113
3 90 114 113
3 90 91 114
3 91 115 114
3 91 92 115
3 92 116 115
3 92 93 116
3 93 117 116
3 93 94 117
3 94 118 117
3 94 95 118
3 95 119 118
3 95 96 119
3 96 120 119
3 96 97 120
3 97 121 120
3 97 98 121
3 98 122 121
3 98 99 122
3 99 123 122
3 99 100 123
3 100 124 123
3 100 101 124
3 101 125 124
3 101 102 125
3 102 126 125
3 102 103 126
3 103 127 126
3 103 104 127
3 104 105 127
3 127 105 128
3 105 129 128
3 105 106 129
3 106 130 129
3 106 107 130
3 107 131 130
3 107 108 131
3 108 132 131
3 108 109 132
3 109 133 132
3 111 110 134
3 110 135 134
3 110 112 135
3 112 136 135
3 112 113 136
3 113 137 136
3 113 114 137
3 114 138 137
3 114 115 138
3 115 139 138
3 115 116 139
3 116 140 139
3 116 117 140
3 117 141 140
3 117 118 141
3 118 142 141
3 118 119 142
3 119 143 142
3 119 120 143
3 120 144 143
3 120 121 144
3 121 145 144
3 121 122 145
3 122 146 145
3 122 123 146
3 123 147 146
3 123 124 147
3 124 148 147
3 124 125 148
3 125 149 148
3 125 126 149
3 126 150 149
3 126 127 150
3 127 128 150
3 150 128 151
3 128 129 151
3 151 129 152
3 129 130 152
3 152 130 153
3 130 154 153
3 130 131 154
3 131 155 154
3 131 132 155
3 132 156 155
3 132 133 156
3 134 157 158
3 134 135 157
3 135 159 157
3 135 136 159
3 136 160 159
3 136 137 160
3 137 161 160
3 137 138 161
3 138 162 161
3 138 139 162
3 139 140 162
3 162 140 163
3 140 141 163
3 163 141 164
3 141 142 164
3 164 142 165
3 142 143 165
3 165 143 166
3 143 144 166
3 166 144 167
3 144 168 167
3 144 145 168
3 145 169 168
3 145 146 169
3 146 147 169
3 169 147 170
3 147 148 170
3 170 148 171
3 148 149 171
3 171 149 172
3 149 150 172
3 172 150 173
3 150 151 173
3 173 151 174
3 151 152 174
3 174 152 175
3 152 153 175
3 175 153 176
3 153 154 176
3 176 154 177
3 154 155 177
3 177 155 178
3 155 179 178
3 155 156 179
3 158 180 181
3 158 157 180
3 157 182 180
3 157 159 182
3 159 183 182
3 159 160 183
3 160 184 183
3 160 161 184
3 161 185 184
3 161 162 185
3 162 186 185
3 162 163 186
3 163 187 186
3 163 164 187
3 164 165 187
3 187 165 188
3 165 166 188
3 188 166 189
3 166 167 189
3 189 167 190
3 167 168 190
3 190 168 191
3 168 192 191
3 168 169 192
3 169 170 192
3 192 170 193
3 170 194 193
3 170 171 194
3 171 195 194
3 171 172 195
3 172 196 195
3 172 173 196
3 173 174 196
3 196 174 197
3 174 175 197
3 197 175 198
3 175 176 198
3 198 176 199
3 176 177 199
3 199 177 200
3 177 178 200
3 200 178 201
3 178 202 201
3 178 179 202
3 181 180 203
3 180 204 203
3 180 182 204
3 182 205 204
3 182 183 205
3 183 206 205
3 183 184 206
3 184 207 206
3 184 185 207
3 185 208 207
3 185 186 208
3 186 209 208
3 186 187 209
3 187 210 209
3 187 188 210
3 188 211 210
3 188 189 211
3 189 212 211
3 189 190 212
3 190 213 212
3 190 191 213
3 191 214 213
3 191 192 214
3 192 215 214
3 192 193 215
3 193 216 215
3 193 194 216
3 194 217 216
3 194 195 217
3 195 218 217
3 195 196 218
3 196 219 218
3 196 197 219
3 197 198 219
3 219 198 220
3 198 221 220
3 198 199 221
3 199 222 221
3 199 200 222
3 200 223 222
3 200 201 223
3 201 224 223
3 201 202 224
3 203 225 226
3 203 204 225
3 204 227 225
3 204 205 227
3 205 228 227
3 205 206 228
3 206 229 228
3 206 207 229
3 207 230 229
3 207 208 230
3 208 231 230
3 208 209 231
3 209 232 231
3 209 210 232
3 210 233 232
3 210 211 233
3 211 234 233
3 211 212 234
3 212 235 234
3 212 213 235
3 213 236 235
3 213 214 236
3 214 215 236
3 236 215 237
3 215 238 237
3 215 216 238
3 216 239 238
3 216 217 239
3 217 240 239
3 217 218 240
3 218 219 240
3 240 219 241
3 219 220 241
3 241 220 242
3 220 243 242
3 220 221 243
3 221 244 243
3 221 222 244
3 222 245 244
3 222 223 245
3 223 246 245
3 223 224 246
3 224 247 246
3 226 248 249
3 226 225 248
3 225 250 248
3 225 227 250
3 227 251 250
3 227 228 251
3 228 252 251
3 228 229 252
3 229 253 252
3 229 230 253
3 230 231 253
3 253 231 254
3 231 232 254
3 254 232 255
3 232 233 255
3 255 233 256
3 233 234 256
3 256 234 257
3 234 235 257
3 257 235 258
3 235 236 258
3 258 236 259
3 236 237 259
3 259 237 260
3 237 238 260
3 260 238 261
3 238 239 261
3 261 239 262
3 239 240 262
3 262 240 263
3 240 241 263
3 263 241 264
3 241 242 264
3 264 242 265
3 242 243 265
3 265 243 266
3 243 267 266
3 243 244 267
3 244 268 267
3 244 245 268
3 245 269 268
3 245 246 269
3 246 270 269
3 246 247 270
3 249 271 272
3 249 248 271
3 248 273 271
3 248 250 273
3 250 274 273
3 250 251 274
3 251 275 274
3 251 252 275
3 252 276 275
3 252 253 276
3 253 254 276
3 276 254 277
3 254 255 277
3 277 255 278
3 255 256 278
3 278 256 279
3 256 257 279
3 279 257 280
3 257 258 280
3 280 258 281
3 258 259 281
3 281 259 282
3 259 260 282
3 282 260 283
3 260 261 283
3 283 261 284
3 261 262 284
3 284 262 285
3 262 263 285
3 285 263 286
3 263 264 286
3 286 264 287
3 264 265 287
3 287 265 288
3 265 266 288
3 288 266 289
3 266 290 289
3 266 267 290
3 267 291 290
3 267 268 291
3 268 292 291
3 268 269 292
3 269 293 292
3 269 270 293
3 272 294 295
3 272 271 294
3 271 296 294
3 271 273 296
3 273 297 296
3 273 274 297
3 274 298 297
3 274 275 298
3 275 299 298
3 275 276 299
3 276 277 299
3 299 277 300
3 277 278 300
3 300 278 301
3 278 279 301
3 301 279 302
3 279 280 302
3 302 280 303
3 280 281 303
3 303 281 304
3 281 282 304
3 304 282 305
3 282 283 305
3 305 283 306
3 283 284 306
3 306 284 307
3 284 285 307
3 307 285 308
3 285 286 308
3 308 286 309
3 286 287 309
3 309 287 310
3 287 288 310
3 310 288 311
3 288 289 311
3 311 289 312
3 289 313 312
3 289 290 313
3 290 314 313
3 290 291 314
3 291 315 314
3 291 292 315
3 292 293 315
3 315 293 316
3 295 294 317
3 294 318 317
3 294 296 318
3 296 319 318
3 296 297 319
3 297 320 319
3 297 298 320
3 298 321 320
3 298 299 321
3 299 322 321
3 299 300 322
3 300 301 322
3 322 301 323
3 301 302 323
3 323 302 324
3 302 303 324
3 324 303 325
3 303 304 325
3 325 304 326
3 304 327 326
3 304 305 327
3 305 306 327
3 327 306 328
3 306 307 328
3 328 307 329
3 307 308 329
3 329 308 330
3 308 309 330
3 330 309 331
3 309 310 331
3 331 310 332
3 310 311 332
3 332 311 333
3 311 312 333
3 333 312 334
3 312 335 334
3 312 313 335
3 313 336 335
3 313 314 336
3 314 337 336
3 314 315 337
3 315 316 337
3 337 316 338
3 317 339 340
3 317 318 339
3 318 341 339
3 318 319 341
3 319 342 341
3 319 320 342
3 320 343 342
3 320 321 343
3 321 344 343
3 321 322 344
3 322 345 344
3 322 323 345
3 323 346 345
3 323 324 346
3 324 347 346
3 324 325 347
3 325 348 347
3 325 326 348
3 326 349 348
3 326 327 349
3 327 350 349
3 327 328 350
3 328 351 350
3 328 329 351
3 329 352 351
3 329 330 352
3 330 353 352
3 330 331 353
3 331 332 353
3 353 332 354
3 332 333 354
3 354 333 355
3 333 334 355
3 355 334 356
3 334 335 356
3 356 335 357
3 335 336 357
3 357 336 358
3 336 337 358
3 358 337 359
3 337 338 359
3 359 338 360
3 338 361 360
3 360 361 362
3 340 363 364
3 340 339 363
3 339 365 363
3 339 341 365
3 341 366 365
3 341 342 366
3 342 367 366
3 342 343 367
3 343 368 367
3 343 344 368
3 344 369 368
3 344 345 369
3 345 370 369
3 345 346 370
3 346 371 370
3 346 347 371
3 347 372 371
3 347 348 372
3 348 373 372
3 348 349 373
3 349 374 373
3 349 350 374
3 350 375 374
3 350 351 375
3 351 376 375
3 351 352 376
3 352 377 376
3 352 353 377
3 353 378 377
3 353 354 378
3 354 379 378
3 354 355 379
3 355 356 379
3 379 356 380
3 356 357 380
3 380 357 381
3 357 358 381
3 381 358 382
3 358 359 382
3 382 359 383
3 359 360 383
3 383 360 384
3 360 362 384
3 384 362 385
3 364 363 386
3 363 387 386
3 363 365 387
3 365 388 387
3 365 366 388
3 366 389 388
3 366 367 389
3 367 390 389
3 367 368 390
3 368 391 390
3 368 369 391
3 369 392 391
3 369 370 392
3 370 393 392
3 370 371 393
3 371 394 393
3 371 372 394
3 372 395 394
3 372 373 395
3 373 396 395
3 373 374 396
3 374 397 396
3 374 375 397
3 375 398 397
3 375 376 398
3 376 399 398
3 376 377 399
3 377 378 399
3 399 378 400
3 378 401 400
3 378 379 401
3 379 402 401
3 379 380 402
3 380 403 402
3 380 381 403
3 381 382 403
3 403 382 404
3 382 383 404
3 404 383 405
3 383 384 405
3 405 384 406
3 384 385 406
3 406 385 407
3 386 408 409
3 386 387 408
3 387 410 408
3 387 388 410
3 388 411 410
3 388 389 411
3 389 390 411
3 411 390 412
3 390 391 412
3 412 391 413
3 391 392 413
3 413 392 414
3 392 393 414
3 414 393 415
3 393 394 415
3 415 394 416
3 394 395 416
3 416 395 417
3 395 396 417
3 417 396 418
3 396 397 418
3 418 397 419
3 397 398 419
3 419 398 420
3 398 399 420
3 420 399 421
3 399 400 421
3 421 400 422
3 400 401 422
3 422 401 423
3 401 424 423
3 401 402 424
3 402 425 424
3 402 403 425
3 403 426 425
3 403 404 426
3 404 405 426
3 426 405 427
3 405 406 427
3 427 406 428
3 406 407 428
3 409 429 430
3 409 408 429
3 408 431 429
3 408 410 431
3 410 432 431
3 410 411 432
3 411 412 432
3 432 412 433
3 412 413 433
3 433 413 434
3 413 414 434
3 434 414 435
3 414 415 435
3 435 415 436
3 415 416 436
3 436 416 437
3 416 417 437
3 437 417 438
3 417 418 438
3 438 418 439
3 418 419 439
3 439 419 440
3 419 420 440
3 420 421 441
3 430 429 442
3 429 443 442
3 429 431 443
3 431 444 443
3 431 432 444
3 432 445 444
3 432 433 445
3 433 446 445
3 433 434 446
3 434 435 446
3 24 447 26
3 447 448 26
3 26 448 28
CELL_DATA 811
SCALARS brightness_temperature float
LOOKUP_TABLE default
POINT_DATA 449
CELL_DATA 811
SCALARS emission_angle float
LOOKUP_TABLE default
POINT_DATA 449
CELL_DATA 811
SCALARS incidence_angle float
LOOKUP_TABLE default
POINT_DATA 449
CELL_DATA 811
SCALARS phase_angle float
LOOKUP_TABLE default
POINT_DATA 449
CELL_DATA 811
SCALARS local_solar_time float
LOOKUP_TABLE default
POINT_DATA 449
CELL_DATA 811
SCALARS local_solar_time_normal_vector float
LOOKUP_TABLE default
CELL_DATA 811
SCALARS pixel_x float
LOOKUP_TABLE default
POINT_DATA 449
CELL_DATA 811
SCALARS pixel_y float
LOOKUP_TABLE default
POINT_DATA 449
CELL_DATA 811
SCALARS longitude float
LOOKUP_TABLE default
POINT_DATA 449
CELL_DATA 811
SCALARS latitude float
LOOKUP_TABLE default
