# vtk DataFile Version 3.0
SHAPE_sfm_50k_v20200323
ASCII
DATASET POLYDATA
POINTS 1487 float
0.07351 -0.43208 -0.13965
0.07598 -0.4301 -0.14247
0.07645 -0.43177 -0.13989
0.07303 -0.43049 -0.14227
0.07529 -0.42756 -0.14413
0.07239 -0.42804 -0.14405
0.07444 -0.42507 -0.14582
0.08067 -0.4436 -0.12282
0.07819 -0.44231 -0.12505
0.08115 -0.44155 -0.12503
0.07868 -0.44025 -0.12727
0.08166 -0.43952 -0.12728
0.07859 -0.43823 -0.1296
0.08156 -0.43747 -0.12958
0.08102 -0.43552 -0.13192
0.07808 -0.43635 -0.13201
0.08042 -0.43391 -0.13451
0.07752 -0.43472 -0.13458
0.07986 -0.43247 -0.13717
0.07697 -0.43319 -0.13721
0.07927 -0.4309 -0.13973
0.07883 -0.4292 -0.14229
0.0781 -0.42666 -0.14393
0.07731 -0.42437 -0.14587
0.08285 -0.44805 -0.11511
0.08016 -0.44696 -0.1177
0.08318 -0.44634 -0.11764
0.08053 -0.4454 -0.12033
0.08345 -0.44446 -0.12006
0.08359 -0.44268 -0.12256
0.08411 -0.4408 -0.12489
0.08465 -0.43892 -0.12725
0.08456 -0.43692 -0.12959
0.08404 -0.43514 -0.13203
0.08337 -0.43329 -0.13441
0.08271 -0.43164 -0.13691
0.08207 -0.42995 -0.13939
0.08144 -0.42788 -0.14156
0.0809 -0.42574 -0.14369
0.0802 -0.42373 -0.14591
0.08585 -0.46312 -0.09226
0.08838 -0.46057 -0.09409
0.08891 -0.46232 -0.09163
0.08529 -0.46109 -0.09455
0.08799 -0.45901 -0.09671
0.08484 -0.45912 -0.09689
0.08787 -0.4575 -0.09939
0.08474 -0.45767 -0.0996
0.08485 -0.45613 -0.10226
0.08797 -0.45589 -0.10201
0.08774 -0.45448 -0.10473
0.08462 -0.45455 -0.10488
0.08708 -0.45284 -0.10723
0.08397 -0.45295 -0.10742
0.0864 -0.45103 -0.10962
0.08329 -0.45125 -0.1099
0.08603 -0.44941 -0.11221
0.08295 -0.44969 -0.11252
0.08591 -0.44775 -0.1148
0.08622 -0.44597 -0.11727
0.08646 -0.44399 -0.11962
0.08659 -0.44224 -0.12214
0.08712 -0.44042 -0.12453
0.08764 -0.43852 -0.12688
0.08756 -0.43665 -0.12931
0.08708 -0.43503 -0.13186
0.08629 -0.4328 -0.13389
0.08555 -0.43096 -0.13624
0.08486 -0.4292 -0.13867
0.08431 -0.4273 -0.14102
0.08382 -0.42534 -0.14333
0.08314 -0.4235 -0.14568
0.08938 -0.47304 -0.07302
0.0926 -0.47095 -0.07507
0.09256 -0.47263 -0.0725
0.08943 -0.47136 -0.07558
0.09227 -0.46907 -0.07751
0.08915 -0.46964 -0.07812
0.09218 -0.46769 -0.08027
0.08905 -0.46816 -0.08083
0.09208 -0.46618 -0.08295
0.08897 -0.46669 -0.08353
0.09203 -0.46467 -0.08562
0.089 -0.46538 -0.08631
0.09208 -0.46313 -0.08829
0.08906 -0.46387 -0.08898
0.09193 -0.46155 -0.09092
0.09149 -0.46023 -0.09365
0.09112 -0.45891 -0.09641
0.091 -0.45743 -0.09911
0.0911 -0.45635 -0.10199
0.09084 -0.45509 -0.10482
0.0902 -0.45317 -0.10717
0.08947 -0.45095 -0.1092
0.08908 -0.44923 -0.11174
0.08895 -0.44754 -0.1143
0.08923 -0.44564 -0.1167
0.08949 -0.44377 -0.11913
0.08961 -0.44199 -0.12163
0.09011 -0.44007 -0.12395
0.09058 -0.43804 -0.1262
0.09044 -0.43606 -0.12854
0.08993 -0.43435 -0.13102
0.08929 -0.43269 -0.13354
0.08854 -0.43081 -0.13585
0.0877 -0.42866 -0.1379
0.08716 -0.42683 -0.14033
0.08672 -0.42509 -0.14281
0.08604 -0.4233 -0.14522
0.09368 -0.47648 -0.06434
0.09108 -0.4757 -0.06743
0.09436 -0.47538 -0.06716
0.09205 -0.47417 -0.0699
0.0952 -0.47346 -0.06942
0.09567 -0.47183 -0.07198
0.09571 -0.47018 -0.07457
0.09546 -0.46865 -0.07723
0.09532 -0.46716 -0.07991
0.09516 -0.46546 -0.08247
0.09504 -0.46375 -0.08504
0.09515 -0.4624 -0.08783
0.09506 -0.46109 -0.09061
0.09459 -0.45973 -0.09332
0.09424 -0.45854 -0.09614
0.09417 -0.45756 -0.09907
0.09436 -0.4565 -0.10201
0.09409 -0.45485 -0.10468
0.09341 -0.45301 -0.10714
0.09261 -0.45082 -0.10918
0.09212 -0.44874 -0.11139
0.09193 -0.44687 -0.11382
0.0922 -0.44498 -0.11622
0.09251 -0.4433 -0.11878
0.09263 -0.44155 -0.12131
0.09307 -0.43947 -0.12352
0.09352 -0.43741 -0.12575
0.09338 -0.43542 -0.12808
0.09281 -0.43362 -0.1305
0.0922 -0.43208 -0.13309
0.09149 -0.43035 -0.13555
0.09063 -0.42816 -0.13757
0.09008 -0.42635 -0.14
0.0896 -0.42452 -0.14242
0.08895 -0.42289 -0.14494
0.09382 -0.47945 -0.05897
0.09659 -0.47753 -0.06083
0.09703 -0.479 -0.05814
0.0934 -0.478 -0.06166
0.09684 -0.47606 -0.06353
0.09735 -0.47443 -0.06607
0.09826 -0.47277 -0.0685
0.09876 -0.47126 -0.07114
0.09885 -0.46989 -0.07389
0.09863 -0.46859 -0.07667
0.09839 -0.46673 -0.07911
0.09823 -0.46504 -0.08168
0.09814 -0.46342 -0.08432
0.09824 -0.46206 -0.0871
0.09814 -0.4608 -0.0899
0.09766 -0.45942 -0.0926
0.09729 -0.45824 -0.09541
0.09707 -0.45675 -0.09808
0.09695 -0.45502 -0.10062
0.09662 -0.45345 -0.10325
0.09612 -0.45187 -0.10585
0.09551 -0.45005 -0.10825
0.09506 -0.44813 -0.11062
0.09481 -0.44613 -0.11295
0.09505 -0.4442 -0.11534
0.09542 -0.44268 -0.118
0.09556 -0.44099 -0.12058
0.09596 -0.43885 -0.12273
0.09639 -0.43678 -0.12495
0.09624 -0.43479 -0.12728
0.09565 -0.43298 -0.12966
0.09503 -0.43145 -0.13227
0.09433 -0.42979 -0.13477
0.09361 -0.42809 -0.13723
0.093 -0.42616 -0.13955
0.09249 -0.42424 -0.1419
0.09183 -0.42261 -0.14442
0.09979 -0.47722 -0.06005
0.10024 -0.47867 -0.05736
0.09999 -0.47558 -0.06264
0.10045 -0.47384 -0.06514
0.1014 -0.47231 -0.06765
0.10188 -0.4709 -0.07034
0.10189 -0.46936 -0.073
0.10166 -0.46804 -0.07576
0.1014 -0.46618 -0.07819
0.10125 -0.46454 -0.08081
0.10124 -0.46317 -0.08359
0.1013 -0.46173 -0.08632
0.10119 -0.46045 -0.08911
0.10078 -0.45948 -0.092
0.10048 -0.45842 -0.09494
0.10006 -0.45629 -0.0972
0.09969 -0.45413 -0.09938
0.09928 -0.45245 -0.10194
0.09881 -0.45097 -0.1046
0.09817 -0.44906 -0.10695
0.0979 -0.44743 -0.10956
0.09774 -0.44565 -0.11207
0.09802 -0.44386 -0.11455
0.09835 -0.44225 -0.11715
0.09848 -0.44055 -0.11972
0.09889 -0.43847 -0.12194
0.09922 -0.43618 -0.12397
0.09909 -0.43426 -0.12636
0.09851 -0.4325 -0.12878
0.09783 -0.43087 -0.13131
0.09715 -0.42931 -0.13388
0.09637 -0.4275 -0.13624
0.09583 -0.42578 -0.13874
0.09538 -0.42409 -0.14127
0.0947 -0.42243 -0.14376
0.09427 -0.42073 -0.14629
0.10299 -0.4764 -0.05981
0.10346 -0.4779 -0.05716
0.10316 -0.47466 -0.06234
0.10363 -0.47298 -0.06486
0.10455 -0.47152 -0.06742
0.10501 -0.47009 -0.0701
0.10494 -0.46842 -0.07267
0.1047 -0.46706 -0.07541
0.10441 -0.46518 -0.07784
0.10429 -0.46359 -0.08049
0.10421 -0.4621 -0.08319
0.1043 -0.46077 -0.08596
0.10418 -0.45951 -0.08877
0.10377 -0.45849 -0.09164
0.10327 -0.45697 -0.09426
0.10267 -0.45475 -0.09633
0.10238 -0.45271 -0.09864
0.10214 -0.45131 -0.1014
0.10165 -0.4498 -0.10404
0.10114 -0.44815 -0.10658
0.10076 -0.44638 -0.10906
0.10062 -0.44467 -0.11161
0.10095 -0.443 -0.11415
0.10127 -0.4414 -0.11676
0.1014 -0.43973 -0.11936
0.10173 -0.43746 -0.12141
0.10219 -0.43552 -0.12373
0.10206 -0.43364 -0.12617
0.10146 -0.43181 -0.12855
0.10072 -0.43008 -0.13098
0.09995 -0.42835 -0.13341
0.09919 -0.42662 -0.13583
0.09866 -0.425 -0.1384
0.09821 -0.42334 -0.14094
0.09755 -0.42172 -0.14346
0.09709 -0.41999 -0.14595
0.10618 -0.47544 -0.05975
0.10669 -0.47702 -0.05717
0.10635 -0.47377 -0.06232
0.10681 -0.47216 -0.06487
0.10758 -0.47032 -0.06722
0.10797 -0.46877 -0.06983
0.10792 -0.46719 -0.07245
0.10756 -0.46561 -0.07505
0.10744 -0.46411 -0.07773
0.10731 -0.46255 -0.08037
0.10715 -0.46089 -0.08296
0.1072 -0.45948 -0.08569
0.10706 -0.45822 -0.08848
0.10648 -0.45694 -0.0912
0.10573 -0.4551 -0.09353
0.10541 -0.45324 -0.09596
0.10513 -0.45126 -0.09828
0.10456 -0.44941 -0.10067
0.10401 -0.44785 -0.10328
0.10377 -0.44655 -0.10606
0.10356 -0.44507 -0.10874
0.10339 -0.44333 -0.11126
0.10374 -0.44173 -0.11384
0.10413 -0.44027 -0.11652
0.10424 -0.43858 -0.11909
0.10466 -0.4366 -0.12136
0.10515 -0.43482 -0.1238
0.10506 -0.43307 -0.12633
0.1044 -0.4311 -0.1286
0.10367 -0.42946 -0.13109
0.10286 -0.42762 -0.13342
0.10207 -0.42582 -0.13578
0.10152 -0.42418 -0.13832
0.10109 -0.42265 -0.14094
0.1004 -0.42097 -0.14341
0.09991 -0.41915 -0.14583
0.10949 -0.475 -0.05981
0.10999 -0.47647 -0.05718
0.10955 -0.47298 -0.06211
0.10991 -0.47109 -0.06448
0.11065 -0.46923 -0.06683
0.11097 -0.46757 -0.06939
0.1109 -0.46599 -0.07201
0.11056 -0.46446 -0.07465
0.11041 -0.46296 -0.07732
0.11035 -0.46159 -0.08007
0.11021 -0.46 -0.08269
0.11022 -0.45852 -0.08537
0.1099 -0.45692 -0.08796
0.10905 -0.45527 -0.0904
0.10855 -0.45375 -0.09303
0.10818 -0.45186 -0.09541
0.10793 -0.44994 -0.09779
0.1073 -0.44799 -0.10008
0.10668 -0.44633 -0.10261
0.10646 -0.44511 -0.10544
0.10627 -0.44368 -0.10814
0.1062 -0.44213 -0.11078
0.10655 -0.44054 -0.11337
0.10689 -0.43901 -0.11601
0.10712 -0.43764 -0.11875
0.10764 -0.43594 -0.12122
0.10812 -0.43413 -0.12364
0.10797 -0.43222 -0.12604
0.10733 -0.43038 -0.12839
0.1066 -0.4288 -0.13093
0.10582 -0.42715 -0.13339
0.10502 -0.42531 -0.13571
0.10443 -0.42356 -0.13816
0.10395 -0.42188 -0.14068
0.10328 -0.42033 -0.14323
0.10281 -0.41862 -0.14573
0.11271 -0.47424 -0.05954
0.11329 -0.47605 -0.05714
0.11279 -0.47234 -0.06193
0.11313 -0.47038 -0.06425
0.11379 -0.46831 -0.06644
0.11409 -0.46665 -0.06902
0.114 -0.46508 -0.07165
0.11363 -0.46352 -0.07427
0.11344 -0.46195 -0.0769
0.11331 -0.46049 -0.0796
0.11321 -0.45901 -0.08227
0.11307 -0.45722 -0.08475
0.11262 -0.45546 -0.08719
0.11173 -0.45376 -0.08959
0.11121 -0.45226 -0.09223
0.11089 -0.45045 -0.09469
0.11069 -0.44861 -0.09712
0.11014 -0.4468 -0.09954
0.10962 -0.44533 -0.10219
0.10929 -0.44396 -0.10491
0.10908 -0.44249 -0.10759
0.10904 -0.44101 -0.11028
0.1094 -0.43947 -0.11289
0.10985 -0.43825 -0.11568
0.11014 -0.43713 -0.11854
0.11064 -0.43539 -0.12101
0.11111 -0.43352 -0.1234
0.11092 -0.43153 -0.12574
0.1103 -0.4298 -0.12818
0.10959 -0.42841 -0.13083
0.1088 -0.42684 -0.13334
0.10798 -0.42497 -0.13564
0.10739 -0.42329 -0.13814
0.10688 -0.42151 -0.14057
0.1062 -0.41989 -0.14308
0.10571 -0.41811 -0.14553
0.11592 -0.47347 -0.05928
0.11597 -0.47147 -0.0616
0.11633 -0.46964 -0.06402
0.117 -0.46764 -0.06626
0.11727 -0.46596 -0.06882
0.11713 -0.46427 -0.07138
0.11673 -0.46268 -0.07397
0.1165 -0.46102 -0.07655
0.11632 -0.45945 -0.07917
0.11613 -0.45783 -0.08176
0.116 -0.45607 -0.08425
0.11554 -0.45429 -0.0867
0.11463 -0.45257 -0.08906
0.11388 -0.45078 -0.09144
0.11343 -0.44882 -0.09377
0.11335 -0.44713 -0.09634
0.11302 -0.44569 -0.09902
0.11247 -0.44419 -0.10164
0.11212 -0.4428 -0.10436
0.11191 -0.44135 -0.10705
0.11193 -0.44004 -0.10982
0.11238 -0.43871 -0.11253
0.1129 -0.43773 -0.11539
0.11314 -0.43649 -0.11823
0.11357 -0.43455 -0.12059
0.11398 -0.43259 -0.1229
0.11388 -0.43088 -0.12544
0.11331 -0.42942 -0.12805
0.11262 -0.42822 -0.13081
0.1118 -0.42656 -0.13329
0.11094 -0.42463 -0.13552
0.11031 -0.42281 -0.13791
0.10983 -0.42113 -0.14042
0.10906 -0.41924 -0.14271
0.10857 -0.41746 -0.14516
0.11911 -0.47255 -0.05909
0.11919 -0.47069 -0.0615
0.11946 -0.46864 -0.06375
0.12015 -0.46684 -0.06614
0.12037 -0.46501 -0.0686
0.12019 -0.46328 -0.07112
0.11973 -0.46157 -0.07364
0.11961 -0.46021 -0.0764
0.11934 -0.45844 -0.07889
0.11906 -0.45662 -0.08132
0.11887 -0.45477 -0.08376
0.11841 -0.45302 -0.08623
0.11748 -0.4513 -0.08858
0.1166 -0.44933 -0.09076
0.11618 -0.44742 -0.09314
0.11605 -0.44568 -0.09568
0.11578 -0.44435 -0.09843
0.11536 -0.44313 -0.10121
0.11501 -0.44173 -0.10392
0.11481 -0.44033 -0.10664
0.11477 -0.4389 -0.10935
0.11511 -0.43733 -0.11197
0.11571 -0.43654 -0.11491
0.11594 -0.43526 -0.11769
0.1164 -0.43348 -0.12011
0.11682 -0.43158 -0.12247
0.11669 -0.42982 -0.12498
0.11621 -0.42856 -0.12772
0.1155 -0.42729 -0.13044
0.11466 -0.42566 -0.13291
0.11381 -0.42387 -0.13526
0.11317 -0.42205 -0.13765
0.11259 -0.42011 -0.13994
0.11178 -0.41821 -0.14221
0.1113 -0.41646 -0.14468
0.12236 -0.47184 -0.05898
0.12242 -0.47 -0.06139
0.1226 -0.46775 -0.06346
0.12322 -0.46575 -0.06575
0.12348 -0.46409 -0.06833
0.12332 -0.46245 -0.07091
0.12283 -0.46066 -0.07335
0.12258 -0.45905 -0.07596
0.12239 -0.45749 -0.07859
0.12206 -0.45558 -0.08095
0.12184 -0.45367 -0.08333
0.12126 -0.45173 -0.08562
0.12028 -0.44996 -0.08791
0.11943 -0.44804 -0.09015
0.11895 -0.44605 -0.09247
0.1188 -0.4443 -0.09502
0.11858 -0.44309 -0.09785
0.11828 -0.44212 -0.10075
0.11798 -0.44088 -0.10354
0.11775 -0.43944 -0.10624
0.11764 -0.43786 -0.10887
0.11801 -0.43636 -0.11154
0.11875 -0.43604 -0.11462
0.1189 -0.43454 -0.11737
0.11926 -0.43251 -0.11965
0.11952 -0.43031 -0.12177
0.11941 -0.42861 -0.12433
0.11895 -0.42743 -0.12711
0.11814 -0.42599 -0.1297
0.11731 -0.42443 -0.13221
0.11659 -0.42292 -0.13478
0.11594 -0.4211 -0.13716
0.11531 -0.41909 -0.13938
0.11453 -0.41724 -0.1417
0.11397 -0.41535 -0.14406
0.11129 -0.4147 -0.14719
0.12567 -0.47147 -0.05887
0.12572 -0.46958 -0.06129
0.12578 -0.46695 -0.06299
0.12641 -0.46503 -0.06537
0.12664 -0.46342 -0.06798
0.12648 -0.46186 -0.07061
0.12601 -0.46013 -0.07309
0.12571 -0.45836 -0.07556
0.12542 -0.4566 -0.07806
0.12511 -0.45474 -0.08046
0.12487 -0.45282 -0.08282
0.12427 -0.45083 -0.08506
0.12328 -0.44906 -0.08734
0.12237 -0.44706 -0.08949
0.1219 -0.44509 -0.09182
0.12168 -0.44323 -0.09429
0.12136 -0.44188 -0.09706
0.12103 -0.44089 -0.09996
0.12084 -0.43986 -0.10285
0.12063 -0.43848 -0.10558
0.12058 -0.43707 -0.1083
0.12098 -0.43571 -0.111
0.12152 -0.43482 -0.11388
0.12191 -0.43401 -0.11689
0.12225 -0.43195 -0.11922
0.12241 -0.42953 -0.12114
0.12223 -0.42773 -0.1236
0.12174 -0.42653 -0.12636
0.12092 -0.42512 -0.12897
0.12006 -0.42353 -0.13144
0.11933 -0.42202 -0.13401
0.11872 -0.4203 -0.13647
0.11814 -0.41844 -0.13883
0.11734 -0.41655 -0.14109
0.11679 -0.4147 -0.14348
0.11662 -0.41268 -0.14579
0.11402 -0.41375 -0.14669
0.12878 -0.47039 -0.05838
0.1288 -0.46843 -0.0607
0.12905 -0.4663 -0.06287
0.12968 -0.46461 -0.06537
0.12978 -0.46263 -0.06771
0.12961 -0.46109 -0.07036
0.12914 -0.45946 -0.0729
0.12883 -0.45766 -0.07535
0.12852 -0.45584 -0.07778
0.12819 -0.45393 -0.08014
0.12795 -0.452 -0.08249
0.12735 -0.45004 -0.08475
0.12631 -0.4482 -0.08695
0.12541 -0.44624 -0.08911
0.12492 -0.44426 -0.09142
0.12475 -0.44254 -0.09397
0.12428 -0.44085 -0.0965
0.12383 -0.43965 -0.09931
0.12363 -0.43866 -0.1022
0.12352 -0.43751 -0.10503
0.12347 -0.43613 -0.10776
0.12376 -0.43451 -0.11034
0.12414 -0.43333 -0.11316
0.1248 -0.43297 -0.11626
0.12512 -0.43097 -0.11866
0.12522 -0.42853 -0.12056
0.12504 -0.42669 -0.123
0.12449 -0.42543 -0.12572
0.12377 -0.42427 -0.12847
0.12289 -0.42268 -0.13095
0.12207 -0.42103 -0.1334
0.12147 -0.41935 -0.13588
0.12097 -0.41768 -0.13838
0.12019 -0.41588 -0.14072
0.11958 -0.41388 -0.14295
0.11942 -0.4119 -0.14528
0.13199 -0.46959 -0.05803
0.1321 -0.46798 -0.06061
0.13241 -0.46634 -0.06318
0.13287 -0.46395 -0.06508
0.1328 -0.46161 -0.06709
0.13263 -0.46009 -0.06978
0.13218 -0.45855 -0.07238
0.13191 -0.45689 -0.07492
0.13163 -0.45516 -0.07742
0.13129 -0.45327 -0.0798
0.13107 -0.45143 -0.08222
0.13048 -0.44953 -0.08453
0.12945 -0.44773 -0.08675
0.12849 -0.44563 -0.08876
0.12793 -0.4435 -0.09092
0.12771 -0.4417 -0.09341
0.12735 -0.44031 -0.09613
0.12678 -0.43877 -0.09872
0.12659 -0.43785 -0.10165
0.12663 -0.43724 -0.1047
0.12642 -0.43538 -0.10719
0.12665 -0.43365 -0.10971
0.12692 -0.43222 -0.11241
0.12735 -0.43147 -0.11539
0.12771 -0.42955 -0.11775
0.12801 -0.42745 -0.11994
0.12794 -0.42589 -0.12257
0.1273 -0.42445 -0.12516
0.12649 -0.42313 -0.1278
0.12573 -0.42185 -0.13046
0.12492 -0.42027 -0.13295
0.12428 -0.41853 -0.13538
0.12375 -0.41683 -0.13785
0.12304 -0.4152 -0.14032
0.12245 -0.41327 -0.14262
0.12228 -0.41131 -0.14496
0.13526 -0.46899 -0.05783
0.1354 -0.46748 -0.0605
0.13547 -0.46521 -0.06256
0.13591 -0.4629 -0.06451
0.13599 -0.4609 -0.06684
0.13571 -0.45916 -0.06935
0.13528 -0.45771 -0.07201
0.13498 -0.45603 -0.07453
0.13467 -0.45427 -0.07699
0.13432 -0.45239 -0.07937
0.1341 -0.45056 -0.0818
0.13356 -0.44881 -0.08422
0.13253 -0.44706 -0.08647
0.13154 -0.44488 -0.08839
0.131 -0.44286 -0.09063
0.13068 -0.44081 -0.0929
0.13022 -0.43923 -0.09552
0.12988 -0.43837 -0.09846
0.12954 -0.43704 -0.10119
0.12963 -0.43637 -0.10424
0.12931 -0.43445 -0.10667
0.12946 -0.43259 -0.10909
0.12979 -0.43128 -0.11184
0.12994 -0.43003 -0.11461
0.13037 -0.42823 -0.117
0.13089 -0.42652 -0.11946
0.13088 -0.42517 -0.1222
0.13024 -0.42377 -0.12482
0.12938 -0.42236 -0.12739
0.12863 -0.42119 -0.13011
0.1278 -0.41959 -0.13258
0.12712 -0.41781 -0.13496
0.12657 -0.41607 -0.1374
0.12585 -0.41443 -0.13986
0.12531 -0.41267 -0.14229
0.12513 -0.41069 -0.1446
0.13827 -0.46763 -0.0576
0.13821 -0.46572 -0.05995
0.13844 -0.4638 -0.06227
0.13901 -0.46184 -0.06452
0.13908 -0.45992 -0.06689
0.13878 -0.45815 -0.06935
0.13833 -0.4567 -0.072
0.13801 -0.45501 -0.0745
0.13763 -0.4531 -0.07684
0.13731 -0.45132 -0.07928
0.13708 -0.44947 -0.08169
0.13655 -0.44778 -0.08416
0.1355 -0.44601 -0.08639
0.1346 -0.44414 -0.0886
0.13402 -0.44199 -0.09068
0.13367 -0.43985 -0.09284
0.13314 -0.43812 -0.09534
0.13261 -0.43689 -0.09812
0.13237 -0.43584 -0.10097
0.1321 -0.43446 -0.10365
0.13195 -0.4329 -0.10624
0.1322 -0.43121 -0.10877
0.13254 -0.42995 -0.11154
0.13271 -0.42876 -0.11433
0.13326 -0.42722 -0.11684
0.13382 -0.42567 -0.11939
0.13374 -0.42416 -0.12205
0.13313 -0.42292 -0.12476
0.13226 -0.4215 -0.12731
0.13144 -0.42019 -0.12993
0.13068 -0.41886 -0.13258
0.12993 -0.41688 -0.13478
0.12934 -0.41507 -0.13715
0.1286 -0.41341 -0.13959
0.12808 -0.41172 -0.14206
0.12791 -0.40979 -0.1444
0.14127 -0.46621 -0.0578
0.14127 -0.46447 -0.06027
0.14149 -0.46255 -0.06259
0.14206 -0.46069 -0.0649
0.14208 -0.45871 -0.06722
0.14182 -0.45717 -0.06983
0.14133 -0.45559 -0.07236
0.14091 -0.45362 -0.07461
0.14057 -0.45182 -0.07705
0.14025 -0.45009 -0.07952
0.14 -0.44821 -0.08188
0.13944 -0.44649 -0.08432
0.13839 -0.44476 -0.08658
0.13749 -0.44291 -0.0888
0.13699 -0.44105 -0.09113
0.13665 -0.43895 -0.09331
0.1361 -0.43715 -0.09571
0.13545 -0.4356 -0.09826
0.1351 -0.43436 -0.10102
0.13471 -0.43277 -0.10357
0.13463 -0.43132 -0.10624
0.13503 -0.42997 -0.10893
0.13538 -0.42877 -0.1117
0.13554 -0.42755 -0.11448
0.13617 -0.42629 -0.11711
0.13673 -0.42474 -0.11964
0.13666 -0.42333 -0.12235
0.13604 -0.42214 -0.12508
0.13515 -0.42073 -0.12761
0.13428 -0.41927 -0.13013
0.13348 -0.41787 -0.13271
0.13277 -0.41604 -0.13504
0.13209 -0.41397 -0.13716
0.13134 -0.41231 -0.13958
0.13082 -0.41065 -0.14207
0.13068 -0.40882 -0.14448
0.14433 -0.46493 -0.05814
0.14433 -0.46323 -0.06063
0.14457 -0.46148 -0.06305
0.14511 -0.45957 -0.06534
0.14512 -0.45764 -0.06768
0.14483 -0.45606 -0.07025
0.14426 -0.4543 -0.07264
0.1439 -0.45247 -0.07502
0.14353 -0.45065 -0.07741
0.14313 -0.44874 -0.07971
0.14285 -0.44679 -0.08202
0.14231 -0.44515 -0.08452
0.14127 -0.44347 -0.08681
0.14031 -0.44146 -0.08889
0.13988 -0.43984 -0.09144
0.13958 -0.43795 -0.09377
0.13896 -0.43593 -0.09597
0.13832 -0.4344 -0.09853
0.13781 -0.43279 -0.10107
0.13757 -0.43153 -0.10381
0.13747 -0.43004 -0.10645
0.13787 -0.42876 -0.10917
0.13823 -0.42762 -0.11197
0.13848 -0.42676 -0.11486
0.13912 -0.42558 -0.11753
0.13968 -0.42413 -0.12011
0.13963 -0.42283 -0.12287
0.13898 -0.42156 -0.12555
0.13809 -0.42031 -0.12816
0.13718 -0.41865 -0.13053
0.13631 -0.417 -0.13292
0.13556 -0.41502 -0.13509
0.13492 -0.41312 -0.13735
0.13412 -0.41133 -0.13964
0.13358 -0.40961 -0.14207
0.13338 -0.40767 -0.14439
0.14738 -0.46379 -0.05877
0.14736 -0.46209 -0.06125
0.14754 -0.46015 -0.06354
0.14809 -0.45833 -0.0659
0.14811 -0.45652 -0.06831
0.14772 -0.45468 -0.07067
0.14716 -0.45294 -0.0731
0.14685 -0.45139 -0.07568
0.14645 -0.44946 -0.07796
0.14598 -0.44733 -0.08006
0.14571 -0.44541 -0.08239
0.14512 -0.44367 -0.08481
0.14414 -0.4422 -0.08728
0.14323 -0.44042 -0.08955
0.14273 -0.43864 -0.09193
0.14238 -0.4366 -0.09413
0.14173 -0.4345 -0.09625
0.14108 -0.43296 -0.09884
0.14064 -0.43151 -0.10148
0.1404 -0.4303 -0.10425
0.14034 -0.42896 -0.10695
0.14075 -0.42767 -0.10967
0.14117 -0.42687 -0.11259
0.14139 -0.426 -0.11547
0.14202 -0.4248 -0.11812
0.1426 -0.42341 -0.12075
0.14258 -0.42234 -0.12361
0.14187 -0.42154 -0.12647
0.14096 -0.42017 -0.12901
0.14007 -0.41834 -0.13126
0.13918 -0.41635 -0.13336
0.13838 -0.41413 -0.13527
0.13768 -0.41205 -0.13733
0.13686 -0.41022 -0.13959
0.13626 -0.40839 -0.14191
0.13608 -0.40655 -0.1443
0.15032 -0.4623 -0.05923
0.15032 -0.46069 -0.06177
0.15056 -0.459 -0.06425
0.1511 -0.45727 -0.06666
0.15111 -0.45552 -0.06911
0.15069 -0.45353 -0.07136
0.15013 -0.45189 -0.07385
0.14977 -0.45023 -0.07634
0.1493 -0.44806 -0.0784
0.14885 -0.44599 -0.08058
0.1486 -0.44423 -0.08303
0.14803 -0.44255 -0.08549
0.14697 -0.44089 -0.08779
0.14609 -0.43925 -0.09017
0.14553 -0.4373 -0.0924
0.14518 -0.43527 -0.09462
0.14461 -0.43344 -0.09698
0.14394 -0.43186 -0.0995
0.1435 -0.43042 -0.10215
0.14326 -0.42927 -0.10494
0.14324 -0.42809 -0.10773
0.14367 -0.42708 -0.11056
0.14408 -0.42655 -0.11353
0.1443 -0.42561 -0.11639
0.14491 -0.42412 -0.11893
0.14551 -0.42313 -0.12177
0.14534 -0.42295 -0.12484
0.14451 -0.42237 -0.12779
0.14373 -0.4205 -0.13017
0.14295 -0.41823 -0.13208
0.14209 -0.41583 -0.13374
0.14128 -0.41351 -0.13549
0.14056 -0.41132 -0.13743
0.13958 -0.40912 -0.13924
0.139 -0.40735 -0.14162
0.13887 -0.40564 -0.14411
0.15407 -0.46282 -0.05732
0.15344 -0.4613 -0.05988
0.15346 -0.45994 -0.06259
0.15368 -0.45827 -0.06508
0.15416 -0.4564 -0.0674
0.15415 -0.45466 -0.06987
0.15375 -0.45285 -0.07226
0.15314 -0.45097 -0.07455
0.15267 -0.44883 -0.07664
0.15227 -0.44701 -0.07903
0.15181 -0.44492 -0.08118
0.15152 -0.44306 -0.08356
0.15093 -0.44137 -0.086
0.14985 -0.43965 -0.08822
0.14893 -0.43791 -0.09051
0.14838 -0.436 -0.09279
0.14806 -0.43413 -0.09515
0.14748 -0.43232 -0.09753
0.14684 -0.43091 -0.10017
0.14643 -0.42958 -0.10286
0.14618 -0.42844 -0.10567
0.14618 -0.42757 -0.10858
0.14661 -0.42674 -0.11145
0.147 -0.42616 -0.1144
0.1472 -0.425 -0.11719
0.14781 -0.42408 -0.11996
0.14828 -0.42386 -0.12293
0.14799 -0.42412 -0.12608
0.14739 -0.42271 -0.12888
0.14662 -0.42066 -0.13112
0.14585 -0.41821 -0.13287
0.14504 -0.41551 -0.13406
0.1442 -0.41294 -0.13539
0.14337 -0.41051 -0.13696
0.14241 -0.40838 -0.13884
0.14179 -0.40656 -0.14117
0.14162 -0.40476 -0.1436
0.14137 -0.4031 -0.14612
0.15672 -0.46071 -0.05988
0.1574 -0.46238 -0.05737
0.15673 -0.45955 -0.06272
0.15692 -0.45779 -0.06517
0.15738 -0.45583 -0.06743
0.15735 -0.45414 -0.06995
0.15695 -0.45254 -0.0725
0.15633 -0.45054 -0.07469
0.15589 -0.44859 -0.07693
0.15542 -0.44654 -0.07912
0.1549 -0.44421 -0.08103
0.15462 -0.44235 -0.08345
0.15402 -0.44067 -0.08589
0.15296 -0.43905 -0.08818
0.15202 -0.43733 -0.09049
0.1515 -0.43566 -0.09298
0.15114 -0.43361 -0.0952
0.15055 -0.4317 -0.09751
0.1499 -0.43032 -0.10018
0.14951 -0.42927 -0.10301
0.14926 -0.42817 -0.10583
0.14923 -0.42721 -0.10871
0.14963 -0.42633 -0.11158
0.15002 -0.42557 -0.11449
0.15024 -0.42481 -0.1174
0.15083 -0.42412 -0.12028
0.15123 -0.42464 -0.12331
0.15105 -0.42465 -0.1265
0.15041 -0.4231 -0.12925
0.14959 -0.42118 -0.13167
0.14883 -0.41851 -0.13326
0.14802 -0.41564 -0.13414
0.14711 -0.41286 -0.1349
0.14615 -0.41023 -0.136
0.14516 -0.40806 -0.13785
0.14454 -0.40623 -0.14021
0.14441 -0.40456 -0.14274
0.14407 -0.40273 -0.14512
0.16004 -0.46064 -0.06002
0.15993 -0.45877 -0.06243
0.1602 -0.45744 -0.06517
0.16062 -0.45545 -0.06741
0.16057 -0.45372 -0.0699
0.16017 -0.45221 -0.07251
0.15955 -0.45047 -0.07492
0.15912 -0.44877 -0.07745
0.1586 -0.4462 -0.07909
0.15808 -0.44377 -0.0809
0.15779 -0.44189 -0.08331
0.15719 -0.44024 -0.08579
0.15612 -0.43878 -0.0882
0.15514 -0.43686 -0.09032
0.15456 -0.43498 -0.09263
0.15422 -0.43302 -0.09495
0.15368 -0.43151 -0.09756
0.15301 -0.43005 -0.10015
0.1526 -0.42892 -0.10295
0.15233 -0.42781 -0.10576
0.15228 -0.42676 -0.10861
0.15267 -0.42583 -0.11148
0.1531 -0.42556 -0.1145
0.1533 -0.42477 -0.11742
0.15387 -0.42421 -0.12031
0.15431 -0.42478 -0.12332
0.15412 -0.4245 -0.12645
0.15345 -0.42337 -0.12937
0.15267 -0.42143 -0.13184
0.1519 -0.41866 -0.13339
0.15101 -0.41571 -0.13401
0.15004 -0.41287 -0.13448
0.14902 -0.41014 -0.13526
0.14794 -0.40782 -0.13689
0.14731 -0.40599 -0.13925
0.14715 -0.40424 -0.14173
0.14673 -0.40227 -0.14399
0.16073 -0.46244 -0.05763
0.16401 -0.46224 -0.05807
0.16324 -0.45969 -0.0597
0.16316 -0.45803 -0.06235
0.16333 -0.45641 -0.0649
0.1638 -0.45469 -0.06734
0.16373 -0.45301 -0.06984
0.16325 -0.45124 -0.07226
0.16263 -0.44954 -0.07469
0.16216 -0.44762 -0.07697
0.16172 -0.44546 -0.07903
0.16125 -0.4432 -0.08105
0.16097 -0.44132 -0.08349
0.16036 -0.44002 -0.08618
0.15926 -0.43851 -0.08856
0.15826 -0.43639 -0.09049
0.15765 -0.43433 -0.09267
0.15736 -0.43285 -0.09533
0.15678 -0.4312 -0.09781
0.1561 -0.42977 -0.1004
0.15565 -0.42836 -0.10306
0.15538 -0.42729 -0.1059
0.15532 -0.42621 -0.10874
0.15572 -0.42543 -0.11165
0.15612 -0.425 -0.11463
0.15627 -0.42409 -0.11755
0.15692 -0.4241 -0.12052
0.15737 -0.42478 -0.1235
0.15722 -0.42472 -0.12673
0.15668 -0.42356 -0.12983
0.15594 -0.42107 -0.13205
0.15501 -0.41811 -0.13307
0.15403 -0.41524 -0.13374
0.15299 -0.41242 -0.13419
0.1519 -0.40967 -0.13479
0.15078 -0.4073 -0.13629
0.15013 -0.40544 -0.1386
0.14987 -0.4035 -0.14092
0.14937 -0.40141 -0.14306
0.14838 -0.39979 -0.14541
0.16656 -0.45929 -0.05988
0.16644 -0.45755 -0.06243
0.16659 -0.45584 -0.06492
0.16702 -0.45406 -0.06731
0.1669 -0.45227 -0.06972
0.16633 -0.4503 -0.07196
0.16571 -0.44865 -0.07444
0.1653 -0.4469 -0.07687
0.16491 -0.44493 -0.07913
0.16446 -0.44298 -0.08143
0.16416 -0.4415 -0.08411
0.16345 -0.44041 -0.08689
0.16241 -0.43835 -0.08885
0.16141 -0.43617 -0.09069
0.16078 -0.43404 -0.09278
0.16046 -0.43246 -0.09537
0.15986 -0.43077 -0.09781
0.15915 -0.42918 -0.10031
0.15871 -0.42786 -0.10302
0.15843 -0.42677 -0.10584
0.1584 -0.42594 -0.10876
0.15876 -0.425 -0.11161
0.15905 -0.4241 -0.11449
0.15928 -0.42361 -0.1175
0.16003 -0.42422 -0.1204
0.16065 -0.4249 -0.12346
0.16083 -0.42491 -0.12701
0.15999 -0.42246 -0.12976
0.15862 -0.41953 -0.1308
0.15758 -0.41682 -0.13173
0.15665 -0.41405 -0.13254
0.15566 -0.41128 -0.13328
0.15459 -0.40862 -0.13416
0.15344 -0.40624 -0.13566
0.15282 -0.40438 -0.138
0.15248 -0.40234 -0.1402
0.15207 -0.40044 -0.14252
0.15111 -0.39889 -0.14493
0.16978 -0.45863 -0.06005
0.16964 -0.45677 -0.06251
0.16982 -0.45526 -0.06514
0.17031 -0.45397 -0.0679
0.17004 -0.45149 -0.06974
0.16941 -0.44932 -0.07178
0.1688 -0.44775 -0.07433
0.16845 -0.44632 -0.07698
0.16809 -0.44499 -0.07967
0.16759 -0.44326 -0.08211
0.16715 -0.44241 -0.08503
0.16651 -0.44108 -0.0878
0.16552 -0.43864 -0.08951
0.16455 -0.43609 -0.09086
0.16389 -0.43374 -0.09266
0.16356 -0.43204 -0.09517
0.16296 -0.43045 -0.09767
0.16224 -0.42883 -0.10013
0.16179 -0.42749 -0.10281
0.16149 -0.4263 -0.10559
0.16143 -0.42541 -0.10848
0.16181 -0.4246 -0.11137
0.16197 -0.42326 -0.1141
0.16218 -0.42278 -0.11709
0.16299 -0.42321 -0.12002
0.16368 -0.42332 -0.12318
0.1636 -0.42238 -0.12651
0.1623 -0.42002 -0.12876
0.16059 -0.41739 -0.12963
0.15912 -0.41475 -0.13007
0.15798 -0.41201 -0.13066
0.15716 -0.4092 -0.13155
0.15661 -0.40662 -0.13315
0.15598 -0.40474 -0.13549
0.15533 -0.40286 -0.13776
0.155 -0.40086 -0.13999
0.15463 -0.39905 -0.14238
0.15374 -0.39765 -0.1449
0.17308 -0.45825 -0.05996
0.17292 -0.45635 -0.06235
0.17306 -0.45481 -0.06494
0.17346 -0.4531 -0.06737
0.17323 -0.45095 -0.06944
0.1726 -0.44879 -0.07147
0.17194 -0.44709 -0.07392
0.17159 -0.44583 -0.07665
0.17125 -0.44464 -0.07939
0.17076 -0.44359 -0.08217
0.17043 -0.4432 -0.08532
0.16987 -0.4413 -0.0879
0.16876 -0.43878 -0.08949
0.16769 -0.43614 -0.09056
0.16696 -0.43358 -0.09203
0.16659 -0.43174 -0.09444
0.16599 -0.43019 -0.09697
0.16531 -0.42889 -0.09959
0.16483 -0.42745 -0.10218
0.16451 -0.42624 -0.10493
0.16442 -0.42519 -0.10774
0.16469 -0.42397 -0.11047
0.16479 -0.42257 -0.11312
0.16475 -0.4216 -0.11597
0.16519 -0.42129 -0.11895
0.16541 -0.42077 -0.12202
0.16482 -0.41958 -0.12491
0.16331 -0.41754 -0.12682
0.16171 -0.41515 -0.12783
0.16035 -0.4125 -0.12844
0.1596 -0.4097 -0.12945
0.15938 -0.40715 -0.13113
0.15905 -0.40484 -0.13308
0.15845 -0.40312 -0.13551
0.15785 -0.40134 -0.13784
0.15758 -0.39946 -0.14016
0.15718 -0.39762 -0.14249
0.15615 -0.39602 -0.14481
0.17635 -0.45782 -0.05983
0.17619 -0.45595 -0.06221
0.17627 -0.4542 -0.06463
0.17666 -0.45254 -0.06707
0.17641 -0.45038 -0.06912
0.17579 -0.44835 -0.07124
0.17511 -0.44664 -0.07363
0.17469 -0.44515 -0.07622
0.17432 -0.44393 -0.07894
0.17388 -0.44313 -0.0818
0.17366 -0.44232 -0.08481
0.17299 -0.44034 -0.08717
0.17174 -0.43792 -0.08863
0.17062 -0.43533 -0.08977
0.17 -0.43306 -0.09172
0.16968 -0.43146 -0.09427
0.16908 -0.42997 -0.09679
0.16836 -0.42861 -0.09935
0.16785 -0.42704 -0.10184
0.16751 -0.42577 -0.10453
0.16742 -0.42475 -0.10734
0.16761 -0.42326 -0.10993
0.16757 -0.42157 -0.11239
0.16727 -0.42018 -0.11502
0.16701 -0.41912 -0.1178
0.16629 -0.41816 -0.12052
0.16521 -0.41703 -0.12304
0.16392 -0.41515 -0.12493
0.16277 -0.41275 -0.12623
0.16207 -0.41012 -0.12756
0.16193 -0.4077 -0.1294
0.16188 -0.4055 -0.13143
0.16172 -0.40361 -0.13374
0.16094 -0.40157 -0.1358
0.1603 -0.39973 -0.13807
0.16006 -0.39792 -0.14042
0.1596 -0.39599 -0.14263
0.15858 -0.39445 -0.14499
0.17954 -0.45705 -0.0601
0.17942 -0.45536 -0.06255
0.1795 -0.45363 -0.06496
0.17974 -0.45144 -0.06697
0.17958 -0.44972 -0.06938
0.17897 -0.44783 -0.07158
0.17825 -0.44596 -0.0738
0.17783 -0.44451 -0.07638
0.17745 -0.44325 -0.07905
0.17686 -0.44198 -0.08167
0.17623 -0.44035 -0.08405
0.17539 -0.43828 -0.08597
0.17443 -0.43633 -0.08795
0.17356 -0.43417 -0.08982
0.17303 -0.43229 -0.09208
0.17269 -0.43066 -0.09455
0.17209 -0.42927 -0.09709
0.17143 -0.4281 -0.09976
0.17085 -0.4263 -0.10208
0.17049 -0.42496 -0.1047
0.17031 -0.42367 -0.10736
0.17042 -0.42201 -0.10982
0.17035 -0.42028 -0.11223
0.16995 -0.41872 -0.11473
0.16928 -0.41716 -0.11715
0.16803 -0.41583 -0.11948
0.16664 -0.41461 -0.12174
0.16565 -0.41283 -0.12386
0.16479 -0.41051 -0.12548
0.1645 -0.40822 -0.12741
0.16451 -0.40615 -0.12956
0.16452 -0.40416 -0.13176
0.16431 -0.40217 -0.13394
0.16359 -0.40025 -0.1361
0.16296 -0.39845 -0.13837
0.16266 -0.39656 -0.14062
0.16219 -0.39465 -0.14283
0.16108 -0.39295 -0.14501
0.18261 -0.45587 -0.06034
0.18252 -0.45427 -0.06282
0.18249 -0.45219 -0.06494
0.18289 -0.45057 -0.0674
0.18273 -0.44913 -0.07001
0.18204 -0.44687 -0.07185
0.18132 -0.44509 -0.07414
0.18095 -0.44384 -0.07681
0.1806 -0.44282 -0.0796
0.17989 -0.44099 -0.08185
0.17921 -0.43915 -0.08407
0.1785 -0.4374 -0.08633
0.17745 -0.4353 -0.08809
0.17654 -0.43307 -0.08985
0.17598 -0.43118 -0.09211
0.17566 -0.42967 -0.09466
0.17501 -0.42816 -0.09712
0.17425 -0.42672 -0.0996
0.17378 -0.42528 -0.10214
0.1734 -0.4239 -0.10472
0.17315 -0.42244 -0.10728
0.17322 -0.42074 -0.10968
0.17312 -0.41896 -0.11204
0.17266 -0.4173 -0.11445
0.17197 -0.4157 -0.11683
0.17071 -0.41433 -0.11912
0.16922 -0.41295 -0.12123
0.16819 -0.41118 -0.12333
0.16748 -0.40905 -0.12526
0.16726 -0.40699 -0.12738
0.16729 -0.40507 -0.12963
0.16731 -0.40315 -0.13188
0.16715 -0.40131 -0.13419
0.16647 -0.39972 -0.13659
0.16584 -0.39788 -0.1388
0.1655 -0.39583 -0.14089
0.16492 -0.39361 -0.14276
0.16374 -0.39178 -0.14476
0.18544 -0.45419 -0.06063
0.18533 -0.45253 -0.06307
0.18552 -0.45102 -0.06561
0.18607 -0.45035 -0.06865
0.18578 -0.4481 -0.07074
0.185 -0.44567 -0.0723
0.18428 -0.44391 -0.07455
0.18402 -0.44295 -0.07735
0.18363 -0.4417 -0.08004
0.18285 -0.43987 -0.08227
0.18228 -0.43855 -0.08486
0.18155 -0.43692 -0.08728
0.18046 -0.43453 -0.08874
0.17953 -0.43212 -0.09024
0.17897 -0.43026 -0.09251
0.1786 -0.42858 -0.0949
0.17791 -0.42698 -0.09729
0.17714 -0.42555 -0.09977
0.17668 -0.42418 -0.10234
0.17623 -0.42264 -0.1048
0.17593 -0.42108 -0.10728
0.17601 -0.41944 -0.10972
0.17592 -0.41768 -0.11208
0.17549 -0.41611 -0.11455
0.17477 -0.41448 -0.11689
0.17343 -0.41294 -0.11902
0.17194 -0.41156 -0.12113
0.17091 -0.40984 -0.12328
0.17032 -0.40799 -0.1255
0.17 -0.40579 -0.12743
0.16998 -0.4038 -0.1296
0.17022 -0.4025 -0.13223
0.17012 -0.40131 -0.13496
0.16938 -0.39956 -0.13728
0.16874 -0.39757 -0.1394
0.1684 -0.39533 -0.14133
0.16772 -0.39276 -0.14267
0.16646 -0.39078 -0.14445
0.18873 -0.45397 -0.05795
0.18834 -0.45261 -0.06053
0.18841 -0.45134 -0.06319
0.18883 -0.45053 -0.06604
0.18929 -0.44913 -0.06878
0.18879 -0.44665 -0.07057
0.18785 -0.44421 -0.07203
0.18717 -0.44252 -0.07436
0.18672 -0.44121 -0.07696
0.18632 -0.43994 -0.07958
0.18583 -0.43874 -0.08223
0.18534 -0.43751 -0.08488
0.18465 -0.43587 -0.08732
0.18349 -0.43361 -0.08893
0.18254 -0.43127 -0.09051
0.182 -0.42947 -0.09282
0.18163 -0.42784 -0.09523
0.18089 -0.42607 -0.09746
0.18008 -0.42454 -0.09986
0.17959 -0.4231 -0.10238
0.17919 -0.42168 -0.10492
0.1788 -0.41993 -0.10725
0.17883 -0.41818 -0.1096
0.17875 -0.41646 -0.112
0.17829 -0.41481 -0.11438
0.17762 -0.41329 -0.11683
0.17617 -0.41163 -0.11882
0.17472 -0.41032 -0.12099
0.17369 -0.40863 -0.12315
0.1731 -0.40682 -0.1254
0.17267 -0.40447 -0.12715
0.17264 -0.40248 -0.12932
0.17278 -0.40096 -0.13186
0.17283 -0.39995 -0.13464
0.17233 -0.39873 -0.13736
0.17168 -0.39673 -0.13955
0.17106 -0.39407 -0.14083
0.17035 -0.39157 -0.14222
0.16912 -0.38967 -0.1441
0.1912 -0.45123 -0.05959
0.19125 -0.44996 -0.06224
0.19154 -0.44889 -0.06496
0.19212 -0.44753 -0.06766
0.19141 -0.44506 -0.06934
0.19073 -0.44295 -0.07127
0.19009 -0.44135 -0.07365
0.18956 -0.43993 -0.07617
0.18907 -0.43855 -0.07871
0.18859 -0.43737 -0.08135
0.18803 -0.43603 -0.08391
0.18725 -0.43431 -0.08616
0.18634 -0.43242 -0.08822
0.18565 -0.43072 -0.0905
0.18519 -0.42932 -0.09304
0.18483 -0.42762 -0.09545
0.18396 -0.42551 -0.09736
0.18309 -0.4238 -0.09957
0.18261 -0.42235 -0.10207
0.18208 -0.42066 -0.10441
0.18172 -0.41902 -0.10681
0.18165 -0.41709 -0.10902
0.18135 -0.41505 -0.1111
0.18083 -0.41336 -0.11344
0.18015 -0.41183 -0.11584
0.179 -0.41061 -0.11825
0.17747 -0.40922 -0.12031
0.17644 -0.40756 -0.12247
0.17582 -0.40572 -0.12467
0.17542 -0.40347 -0.12652
0.17533 -0.40139 -0.12862
0.17532 -0.39968 -0.13101
0.17492 -0.39812 -0.13346
0.17463 -0.3971 -0.13624
0.17397 -0.39513 -0.13832
0.17346 -0.39264 -0.13983
0.17304 -0.3905 -0.14179
0.17183 -0.38865 -0.1437
0.19403 -0.44863 -0.06095
0.19397 -0.44988 -0.05829
0.19423 -0.44752 -0.06364
0.19422 -0.44562 -0.06583
0.19406 -0.4437 -0.06803
0.19369 -0.44199 -0.07038
0.19305 -0.44043 -0.07277
0.19244 -0.4389 -0.07518
0.19186 -0.4374 -0.07763
0.19121 -0.436 -0.08012
0.19059 -0.43462 -0.08262
0.18988 -0.433 -0.08494
0.18922 -0.43145 -0.08733
0.18856 -0.42983 -0.08968
0.18807 -0.42831 -0.09215
0.18754 -0.42638 -0.09429
0.18686 -0.42466 -0.09656
0.18605 -0.42308 -0.09889
0.18539 -0.42131 -0.10112
0.18485 -0.41963 -0.10346
0.18452 -0.41807 -0.10591
0.18442 -0.41611 -0.10808
0.18411 -0.41408 -0.11016
0.18354 -0.41234 -0.11243
0.18284 -0.41081 -0.11481
0.18172 -0.40964 -0.11725
0.18029 -0.40839 -0.11947
0.17925 -0.40676 -0.12165
0.17862 -0.40494 -0.12386
0.17823 -0.40275 -0.12578
0.17815 -0.40072 -0.12789
0.17812 -0.39898 -0.13024
0.17742 -0.39698 -0.13228
0.17665 -0.39549 -0.13469
0.17623 -0.39371 -0.13695
0.17617 -0.39172 -0.13907
0.17579 -0.38972 -0.14114
0.17463 -0.38803 -0.14318
0.19705 -0.44877 -0.05772
0.19738 -0.44808 -0.06061
0.19731 -0.44642 -0.0631
0.1971 -0.44424 -0.06508
0.19696 -0.4424 -0.06734
0.19657 -0.44071 -0.06968
0.196 -0.43929 -0.07217
0.19555 -0.43807 -0.07481
0.19484 -0.43636 -0.07709
0.19409 -0.4348 -0.07944
0.19341 -0.43334 -0.08188
0.19277 -0.43182 -0.08429
0.19209 -0.43029 -0.08668
0.19143 -0.42871 -0.08904
0.19083 -0.42704 -0.09137
0.19037 -0.42523 -0.09361
0.18972 -0.42357 -0.09593
0.18893 -0.42206 -0.0983
0.1883 -0.42037 -0.10059
0.18769 -0.41859 -0.10282
0.18727 -0.41688 -0.10515
0.18722 -0.41503 -0.1074
0.18701 -0.41315 -0.10963
0.18626 -0.41117 -0.11165
0.18548 -0.40956 -0.11394
0.18431 -0.40834 -0.11631
0.18294 -0.40718 -0.1186
0.18186 -0.40551 -0.12074
0.18111 -0.40357 -0.12279
0.18095 -0.40175 -0.12507
0.18111 -0.40018 -0.12757
0.18093 -0.39814 -0.12969
0.18009 -0.39595 -0.13149
0.17925 -0.3943 -0.1338
0.17901 -0.39282 -0.13632
0.17909 -0.39126 -0.13878
0.17862 -0.38913 -0.1407
0.1774 -0.38735 -0.14263
0.17612 -0.38573 -0.14468
0.20008 -0.44748 -0.05729
0.19993 -0.44603 -0.05981
0.19986 -0.44444 -0.06225
0.19995 -0.4427 -0.06458
0.19984 -0.44095 -0.06691
0.19938 -0.43919 -0.06919
0.19879 -0.43776 -0.07166
0.19831 -0.43646 -0.07423
0.19764 -0.43488 -0.0766
0.197 -0.43353 -0.0791
0.19637 -0.43217 -0.08161
0.19569 -0.43061 -0.08399
0.19501 -0.42911 -0.0864
0.1943 -0.42745 -0.08869
0.19371 -0.42582 -0.09104
0.19328 -0.4241 -0.09335
0.19263 -0.42246 -0.09568
0.19183 -0.42096 -0.09805
0.19121 -0.4193 -0.10036
0.19063 -0.41761 -0.10267
0.19006 -0.41563 -0.10474
0.1899 -0.41361 -0.10683
0.18955 -0.41157 -0.10887
0.18891 -0.40975 -0.11106
0.18806 -0.40806 -0.11326
0.18684 -0.40679 -0.11558
0.18558 -0.40578 -0.118
0.18449 -0.40412 -0.12014
0.18378 -0.40228 -0.12228
0.1837 -0.4006 -0.12466
0.18361 -0.39867 -0.12685
0.18336 -0.39659 -0.12889
0.1827 -0.39465 -0.13098
0.18196 -0.39318 -0.1334
0.18184 -0.39197 -0.13607
0.18197 -0.39053 -0.13865
0.18146 -0.38837 -0.1406
0.18011 -0.38639 -0.14226
0.17874 -0.38462 -0.14412
0.20273 -0.44437 -0.05919
0.20287 -0.4458 -0.05665
0.20268 -0.44283 -0.06166
0.20281 -0.44119 -0.06408
0.20261 -0.43935 -0.06632
0.20215 -0.43761 -0.06861
0.20147 -0.43608 -0.071
0.20091 -0.4347 -0.07351
0.20042 -0.43338 -0.07606
0.19995 -0.43227 -0.07873
0.19914 -0.43067 -0.08107
0.19857 -0.42931 -0.08359
0.19791 -0.42786 -0.08603
0.19724 -0.42631 -0.08841
0.1966 -0.42463 -0.09071
0.19622 -0.42303 -0.09311
0.19559 -0.42145 -0.09548
0.19485 -0.42019 -0.09801
0.19433 -0.41878 -0.10056
0.19373 -0.41683 -0.10277
0.19292 -0.41444 -0.1043
0.19237 -0.41204 -0.10585
0.19208 -0.41008 -0.10798
0.19153 -0.40836 -0.11025
0.1908 -0.40684 -0.11263
0.18943 -0.40541 -0.11477
0.18807 -0.40428 -0.11706
0.18711 -0.40282 -0.11938
0.18653 -0.40118 -0.12171
0.18632 -0.39934 -0.12396
0.18617 -0.39735 -0.12609
0.18595 -0.39534 -0.12818
0.1854 -0.39356 -0.13042
0.18457 -0.39196 -0.13273
0.18433 -0.3906 -0.13531
0.18451 -0.38917 -0.13788
0.18409 -0.38716 -0.13999
0.18278 -0.3853 -0.14182
0.18136 -0.3835 -0.14361
0.20564 -0.44294 -0.05853
0.20558 -0.44143 -0.06101
0.20194 -0.42929 -0.08038
0.20138 -0.42794 -0.0829
0.20065 -0.42642 -0.08529
0.20002 -0.42496 -0.08772
0.19944 -0.42341 -0.09012
0.19911 -0.42192 -0.09259
0.19859 -0.42058 -0.09513
0.19791 -0.41936 -0.09771
0.19735 -0.41767 -0.10014
0.19634 -0.4153 -0.10172
0.19537 -0.41292 -0.10311
0.19508 -0.41081 -0.10507
0.19473 -0.40879 -0.10713
0.19413 -0.40703 -0.10935
0.19348 -0.40561 -0.11179
0.19225 -0.40438 -0.11413
0.19083 -0.4032 -0.11636
0.1898 -0.40168 -0.11859
0.18925 -0.4001 -0.12098
0.18903 -0.39827 -0.12324
0.18877 -0.39616 -0.12525
0.18859 -0.39423 -0.1274
0.18808 -0.39254 -0.1297
0.1873 -0.39103 -0.13207
0.18681 -0.38932 -0.13437
0.18665 -0.38751 -0.13664
0.18622 -0.38554 -0.13869
0.18534 -0.38413 -0.14107
0.184 -0.38246 -0.14303
0.19341 -0.40176 -0.11561
0.19242 -0.40032 -0.11792
0.19181 -0.39868 -0.12024
0.19152 -0.39679 -0.12242
0.19125 -0.39472 -0.12444
0.19114 -0.39289 -0.12669
0.19065 -0.39124 -0.12903
0.18992 -0.38982 -0.13146
0.18937 -0.38804 -0.13368
0.18914 -0.38615 -0.13587
0.18877 -0.38425 -0.13801
0.18774 -0.3827 -0.14022
0.18652 -0.3812 -0.14237
POLYGONS 2809 11236
3 0 1 2
3 3 4 1
3 3 5 4
3 5 6 4
3 7 8 9
3 8 10 9
3 9 10 11
3 10 12 11
3 11 12 13
3 12 14 13
3 12 15 14
3 15 16 14
3 15 17 16
3 17 18 16
3 17 19 18
3 19 20 18
3 19 2 20
3 2 21 20
3 2 1 21
3 1 22 21
3 1 4 22
3 4 23 22
3 24 25 26
3 25 27 26
3 26 27 28
3 27 7 28
3 28 7 29
3 7 9 29
3 29 9 30
3 9 11 30
3 30 11 31
3 11 13 31
3 31 13 32
3 13 33 32
3 13 14 33
3 14 34 33
3 14 16 34
3 16 35 34
3 16 18 35
3 18 36 35
3 18 20 36
3 20 37 36
3 20 21 37
3 21 38 37
3 21 22 38
3 22 39 38
3 22 23 39
3 40 41 42
3 43 44 41
3 43 45 44
3 45 46 44
3 45 47 46
3 47 48 46
3 46 48 49
3 48 50 49
3 48 51 50
3 51 52 50
3 51 53 52
3 53 54 52
3 53 55 54
3 55 56 54
3 55 57 56
3 57 58 56
3 57 24 58
3 24 26 58
3 58 26 59
3 26 28 59
3 59 28 60
3 28 29 60
3 60 29 61
3 29 30 61
3 61 30 62
3 30 31 62
3 62 31 63
3 31 64 63
3 31 32 64
3 32 65 64
3 32 33 65
3 33 66 65
3 33 34 66
3 34 67 66
3 34 35 67
3 35 68 67
3 35 36 68
3 36 69 68
3 36 37 69
3 37 70 69
3 37 38 70
3 38 71 70
3 38 39 71
3 72 73 74
3 75 76 73
3 75 77 76
3 77 78 76
3 77 79 78
3 79 80 78
3 79 81 80
3 81 82 80
3 81 83 82
3 83 84 82
3 83 85 84
3 85 86 84
3 85 42 86
3 42 87 86
3 42 41 87
3 41 88 87
3 41 44 88
3 44 89 88
3 44 46 89
3 46 49 89
3 89 49 90
3 49 91 90
3 49 50 91
3 50 92 91
3 50 52 92
3 52 93 92
3 52 54 93
3 54 94 93
3 54 56 94
3 56 95 94
3 56 58 95
3 58 59 95
3 95 59 96
3 59 60 96
3 96 60 97
3 60 98 97
3 60 61 98
3 61 62 98
3 98 62 99
3 62 63 99
3 99 63 100
3 63 101 100
3 63 64 101
3 64 102 101
3 64 65 102
3 65 103 102
3 65 66 103
3 66 104 103
3 66 67 104
3 67 105 104
3 67 68 105
3 68 106 105
3 68 69 106
3 69 107 106
3 69 70 107
3 70 108 107
3 70 71 108
3 109 110 111
3 110 112 111
3 111 112 113
3 112 74 113
3 113 74 114
3 74 115 114
3 74 73 115
3 73 116 115
3 73 76 116
3 76 117 116
3 76 78 117
3 78 118 117
3 78 80 118
3 80 119 118
3 80 82 119
3 82 120 119
3 82 84 120
3 84 121 120
3 84 86 121
3 86 122 121
3 86 87 122
3 87 123 122
3 87 88 123
3 88 124 123
3 88 89 124
3 89 90 124
3 124 90 125
3 90 126 125
3 90 91 126
3 91 127 126
3 91 92 127
3 92 128 127
3 92 93 128
3 93 129 128
3 93 94 129
3 94 130 129
3 94 95 130
3 95 96 130
3 130 96 131
3 96 97 131
3 131 97 132
3 97 98 132
3 132 98 133
3 98 99 133
3 133 99 134
3 99 100 134
3 134 100 135
3 100 136 135
3 100 101 136
3 101 137 136
3 101 102 137
3 102 138 137
3 102 103 138
3 103 139 138
3 103 104 139
3 104 140 139
3 104 105 140
3 105 141 140
3 105 106 141
3 106 142 141
3 106 107 142
3 107 143 142
3 107 108 143
3 144 145 146
3 144 147 145
3 147 148 145
3 147 109 148
3 109 111 148
3 148 111 149
3 111 113 149
3 149 113 150
3 113 114 150
3 150 114 151
3 114 152 151
3 114 115 152
3 115 153 152
3 115 116 153
3 116 154 153
3 116 117 154
3 117 155 154
3 117 118 155
3 118 156 155
3 118 119 156
3 119 157 156
3 119 120 157
3 120 158 157
3 120 121 158
3 121 159 158
3 121 122 159
3 122 160 159
3 122 123 160
3 123 161 160
3 123 124 161
3 124 162 161
3 124 125 162
3 125 163 162
3 125 126 163
3 126 164 163
3 126 127 164
3 127 165 164
3 127 128 165
3 128 166 165
3 128 129 166
3 129 167 166
3 129 130 167
3 130 168 167
3 130 131 168
3 131 169 168
3 131 132 169
3 132 170 169
3 132 133 170
3 133 134 170
3 170 134 171
3 134 135 171
3 171 135 172
3 135 173 172
3 135 136 173
3 136 174 173
3 136 137 174
3 137 175 174
3 137 138 175
3 138 176 175
3 138 139 176
3 139 177 176
3 139 140 177
3 140 178 177
3 140 141 178
3 141 179 178
3 141 142 179
3 142 180 179
3 142 143 180
3 146 181 182
3 146 145 181
3 145 183 181
3 145 148 183
3 148 149 183
3 183 149 184
3 149 150 184
3 184 150 185
3 150 151 185
3 185 151 186
3 151 187 186
3 151 152 187
3 152 188 187
3 152 153 188
3 153 189 188
3 153 154 189
3 154 190 189
3 154 155 190
3 155 191 190
3 155 156 191
3 156 192 191
3 156 157 192
3 157 193 192
3 157 158 193
3 158 194 193
3 158 159 194
3 159 195 194
3 159 160 195
3 160 196 195
3 160 161 196
3 161 197 196
3 161 162 197
3 162 198 197
3 162 163 198
3 163 199 198
3 163 164 199
3 164 200 199
3 164 165 200
3 165 201 200
3 165 166 201
3 166 202 201
3 166 167 202
3 167 203 202
3 167 168 203
3 168 204 203
3 168 169 204
3 169 205 204
3 169 170 205
3 170 171 205
3 205 171 206
3 171 172 206
3 206 172 207
3 172 208 207
3 172 173 208
3 173 209 208
3 173 174 209
3 174 210 209
3 174 175 210
3 175 211 210
3 175 176 211
3 176 212 211
3 176 177 212
3 177 213 212
3 177 178 213
3 178 214 213
3 178 179 214
3 179 215 214
3 179 180 215
3 180 216 215
3 182 217 218
3 182 181 217
3 181 183 217
3 217 183 219
3 183 184 219
3 219 184 220
3 184 185 220
3 220 185 221
3 185 186 221
3 221 186 222
3 186 187 222
3 222 187 223
3 187 224 223
3 187 188 224
3 188 225 224
3 188 189 225
3 189 226 225
3 189 190 226
3 190 227 226
3 190 191 227
3 191 192 227
3 227 192 228
3 192 229 228
3 192 193 229
3 193 230 229
3 193 194 230
3 194 231 230
3 194 195 231
3 195 232 231
3 195 196 232
3 196 233 232
3 196 197 233
3 197 234 233
3 197 198 234
3 198 235 234
3 198 199 235
3 199 236 235
3 199 200 236
3 200 237 236
3 200 201 237
3 201 238 237
3 201 202 238
3 202 203 238
3 238 203 239
3 203 204 239
3 239 204 240
3 204 205 240
3 240 205 241
3 205 206 241
3 241 206 242
3 206 207 242
3 242 207 243
3 207 208 243
3 243 208 244
3 208 245 244
3 208 209 245
3 209 246 245
3 209 210 246
3 210 247 246
3 210 211 247
3 211 248 247
3 211 212 248
3 212 249 248
3 212 213 249
3 213 250 249
3 213 214 250
3 214 251 250
3 214 215 251
3 215 252 251
3 215 216 252
3 218 253 254
3 218 217 253
3 217 219 253
3 253 219 255
3 219 220 255
3 255 220 256
3 220 221 256
3 256 221 257
3 221 222 257
3 257 222 258
3 222 223 258
3 258 223 259
3 223 260 259
3 223 224 260
3 224 225 260
3 260 225 261
3 225 226 261
3 261 226 262
3 226 227 262
3 262 227 263
3 227 228 263
3 263 228 264
3 228 229 264
3 264 229 265
3 229 266 265
3 229 230 266
3 230 267 266
3 230 231 267
3 231 268 267
3 231 232 268
3 232 233 268
3 268 233 269
3 233 270 269
3 233 234 270
3 234 271 270
3 234 235 271
3 235 272 271
3 235 236 272
3 236 273 272
3 236 237 273
3 237 238 273
3 273 238 274
3 238 239 274
3 274 239 275
3 239 240 275
3 275 240 276
3 240 241 276
3 276 241 277
3 241 242 277
3 277 242 278
3 242 243 278
3 278 243 279
3 243 244 279
3 279 244 280
3 244 281 280
3 244 245 281
3 245 282 281
3 245 246 282
3 246 283 282
3 246 247 283
3 247 284 283
3 247 248 284
3 248 285 284
3 248 249 285
3 249 286 285
3 249 250 286
3 250 287 286
3 250 251 287
3 251 288 287
3 251 252 288
3 254 289 290
3 254 253 289
3 253 255 289
3 289 255 291
3 255 256 291
3 291 256 292
3 256 257 292
3 292 257 293
3 257 258 293
3 293 258 294
3 258 295 294
3 258 259 295
3 259 296 295
3 259 260 296
3 260 297 296
3 260 261 297
3 261 298 297
3 261 262 298
3 262 263 298
3 298 263 299
3 263 264 299
3 299 264 300
3 264 301 300
3 264 265 301
3 265 302 301
3 265 266 302
3 266 303 302
3 266 267 303
3 267 304 303
3 267 268 304
3 268 305 304
3 268 269 305
3 269 306 305
3 269 270 306
3 270 307 306
3 270 271 307
3 271 308 307
3 271 272 308
3 272 309 308
3 272 273 309
3 273 310 309
3 273 274 310
3 274 275 310
3 310 275 311
3 275 276 311
3 311 276 312
3 276 277 312
3 312 277 313
3 277 278 313
3 313 278 314
3 278 279 314
3 314 279 315
3 279 280 315
3 315 280 316
3 280 317 316
3 280 281 317
3 281 318 317
3 281 282 318
3 282 319 318
3 282 283 319
3 283 320 319
3 283 284 320
3 284 321 320
3 284 285 321
3 285 322 321
3 285 286 322
3 286 323 322
3 286 287 323
3 287 324 323
3 287 288 324
3 290 325 326
3 290 289 325
3 289 291 325
3 325 291 327
3 291 292 327
3 327 292 328
3 292 293 328
3 328 293 329
3 293 294 329
3 329 294 330
3 294 331 330
3 294 295 331
3 295 332 331
3 295 296 332
3 296 333 332
3 296 297 333
3 297 334 333
3 297 298 334
3 298 335 334
3 298 299 335
3 299 336 335
3 299 300 336
3 300 337 336
3 300 301 337
3 301 338 337
3 301 302 338
3 302 339 338
3 302 303 339
3 303 340 339
3 303 304 340
3 304 341 340
3 304 305 341
3 305 342 341
3 305 306 342
3 306 343 342
3 306 307 343
3 307 344 343
3 307 308 344
3 308 345 344
3 308 309 345
3 309 346 345
3 309 310 346
3 310 311 346
3 346 311 347
3 311 312 347
3 347 312 348
3 312 313 348
3 348 313 349
3 313 314 349
3 349 314 350
3 314 315 350
3 350 315 351
3 315 316 351
3 351 316 352
3 316 353 352
3 316 317 353
3 317 354 353
3 317 318 354
3 318 355 354
3 318 319 355
3 319 356 355
3 319 320 356
3 320 357 356
3 320 321 357
3 321 358 357
3 321 322 358
3 322 359 358
3 322 323 359
3 323 360 359
3 323 324 360
3 326 325 361
3 325 327 361
3 361 327 362
3 327 328 362
3 362 328 363
3 328 329 363
3 363 329 364
3 329 330 364
3 364 330 365
3 330 331 365
3 365 331 366
3 331 367 366
3 331 332 367
3 332 368 367
3 332 333 368
3 333 369 368
3 333 334 369
3 334 370 369
3 334 335 370
3 335 371 370
3 335 336 371
3 336 372 371
3 336 337 372
3 337 373 372
3 337 338 373
3 338 374 373
3 338 339 374
3 339 375 374
3 339 340 375
3 340 376 375
3 340 341 376
3 341 377 376
3 341 342 377
3 342 378 377
3 342 343 378
3 343 379 378
3 343 344 379
3 344 380 379
3 344 345 380
3 345 381 380
3 345 346 381
3 346 347 381
3 381 347 382
3 347 348 382
3 382 348 383
3 348 349 383
3 383 349 384
3 349 350 384
3 384 350 385
3 350 351 385
3 385 351 386
3 351 387 386
3 351 352 387
3 352 388 387
3 352 353 388
3 353 389 388
3 353 354 389
3 354 390 389
3 354 355 390
3 355 391 390
3 355 356 391
3 356 392 391
3 356 357 392
3 357 393 392
3 357 358 393
3 358 394 393
3 358 359 394
3 359 395 394
3 359 360 395
3 361 362 396
3 396 362 397
3 362 363 397
3 397 363 398
3 363 364 398
3 398 364 399
3 364 365 399
3 399 365 400
3 365 366 400
3 400 366 401
3 366 402 401
3 366 367 402
3 367 368 402
3 402 368 403
3 368 369 403
3 403 369 404
3 369 405 404
3 369 370 405
3 370 406 405
3 370 371 406
3 371 407 406
3 371 372 407
3 372 408 407
3 372 373 408
3 373 409 408
3 373 374 409
3 374 410 409
3 374 375 410
3 375 411 410
3 375 376 411
3 376 412 411
3 376 377 412
3 377 413 412
3 377 378 413
3 378 414 413
3 378 379 414
3 379 415 414
3 379 380 415
3 380 416 415
3 380 381 416
3 381 382 416
3 416 382 417
3 382 383 417
3 417 383 418
3 383 384 418
3 418 384 419
3 384 385 419
3 419 385 420
3 385 386 420
3 420 386 421
3 386 422 421
3 386 387 422
3 387 423 422
3 387 388 423
3 388 424 423
3 388 389 424
3 389 425 424
3 389 390 425
3 390 426 425
3 390 391 426
3 391 427 426
3 391 392 427
3 392 428 427
3 392 393 428
3 393 429 428
3 393 394 429
3 394 430 429
3 394 395 430
3 396 397 431
3 431 397 432
3 397 398 432
3 432 398 433
3 398 399 433
3 433 399 434
3 399 400 434
3 434 400 435
3 400 401 435
3 435 401 436
3 401 437 436
3 401 402 437
3 402 438 437
3 402 403 438
3 403 439 438
3 403 404 439
3 404 440 439
3 404 405 440
3 405 441 440
3 405 406 441
3 406 442 441
3 406 407 442
3 407 443 442
3 407 408 443
3 408 444 443
3 408 409 444
3 409 445 444
3 409 410 445
3 410 446 445
3 410 411 446
3 411 447 446
3 411 412 447
3 412 448 447
3 412 413 448
3 413 449 448
3 413 414 449
3 414 450 449
3 414 415 450
3 415 451 450
3 415 416 451
3 416 417 451
3 451 417 452
3 417 418 452
3 452 418 453
3 418 419 453
3 453 419 454
3 419 420 454
3 454 420 455
3 420 421 455
3 455 421 456
3 421 457 456
3 421 422 457
3 422 458 457
3 422 423 458
3 423 459 458
3 423 424 459
3 424 460 459
3 424 425 460
3 425 461 460
3 425 426 461
3 426 462 461
3 426 427 462
3 427 463 462
3 427 428 463
3 428 464 463
3 428 429 464
3 429 465 464
3 429 430 465
3 430 466 465
3 431 432 467
3 467 432 468
3 432 433 468
3 468 433 469
3 433 434 469
3 469 434 470
3 434 435 470
3 470 435 471
3 435 472 471
3 435 436 472
3 436 473 472
3 436 437 473
3 437 474 473
3 437 438 474
3 438 475 474
3 438 439 475
3 439 476 475
3 439 440 476
3 440 477 476
3 440 441 477
3 441 478 477
3 441 442 478
3 442 479 478
3 442 443 479
3 443 480 479
3 443 444 480
3 444 481 480
3 444 445 481
3 445 482 481
3 445 446 482
3 446 483 482
3 446 447 483
3 447 484 483
3 447 448 484
3 448 485 484
3 448 449 485
3 449 486 485
3 449 450 486
3 450 487 486
3 450 451 487
3 451 452 487
3 487 452 488
3 452 453 488
3 488 453 489
3 453 490 489
3 453 454 490
3 454 455 490
3 490 455 491
3 455 456 491
3 491 456 492
3 456 493 492
3 456 457 493
3 457 494 493
3 457 458 494
3 458 495 494
3 458 459 495
3 459 496 495
3 459 460 496
3 460 497 496
3 460 461 497
3 461 498 497
3 461 462 498
3 462 499 498
3 462 463 499
3 463 500 499
3 463 464 500
3 464 501 500
3 464 465 501
3 465 502 501
3 465 503 502
3 467 468 504
3 504 468 505
3 468 469 505
3 505 469 506
3 469 470 506
3 506 470 507
3 470 471 507
3 507 471 508
3 471 472 508
3 508 472 509
3 472 510 509
3 472 473 510
3 473 511 510
3 473 474 511
3 474 512 511
3 474 475 512
3 475 513 512
3 475 476 513
3 476 477 513
3 513 477 514
3 477 515 514
3 477 478 515
3 478 516 515
3 478 479 516
3 479 517 516
3 479 480 517
3 480 518 517
3 480 481 518
3 481 519 518
3 481 482 519
3 482 520 519
3 482 483 520
3 483 521 520
3 483 484 521
3 484 522 521
3 484 485 522
3 485 523 522
3 485 486 523
3 486 524 523
3 486 487 524
3 487 488 524
3 524 488 525
3 488 489 525
3 525 489 526
3 489 490 526
3 526 490 527
3 490 491 527
3 527 491 528
3 491 492 528
3 528 492 529
3 492 530 529
3 492 493 530
3 493 531 530
3 493 494 531
3 494 532 531
3 494 495 532
3 495 533 532
3 495 496 533
3 496 534 533
3 496 497 534
3 497 535 534
3 497 498 535
3 498 536 535
3 498 499 536
3 499 537 536
3 499 500 537
3 500 538 537
3 500 501 538
3 501 539 538
3 501 502 539
3 504 505 540
3 540 505 541
3 505 506 541
3 541 506 542
3 506 507 542
3 542 507 543
3 507 508 543
3 543 508 544
3 508 545 544
3 508 509 545
3 509 546 545
3 509 510 546
3 510 547 546
3 510 511 547
3 511 548 547
3 511 512 548
3 512 549 548
3 512 513 549
3 513 514 549
3 549 514 550
3 514 551 550
3 514 515 551
3 515 552 551
3 515 516 552
3 516 553 552
3 516 517 553
3 517 554 553
3 517 518 554
3 518 555 554
3 518 519 555
3 519 556 555
3 519 520 556
3 520 557 556
3 520 521 557
3 521 558 557
3 521 522 558
3 522 559 558
3 522 523 559
3 523 560 559
3 523 524 560
3 524 525 560
3 560 525 561
3 525 526 561
3 561 526 562
3 526 563 562
3 526 527 563
3 527 528 563
3 563 528 564
3 528 529 564
3 564 529 565
3 529 566 565
3 529 530 566
3 530 567 566
3 530 531 567
3 531 568 567
3 531 532 568
3 532 569 568
3 532 533 569
3 533 570 569
3 533 534 570
3 534 571 570
3 534 535 571
3 535 572 571
3 535 536 572
3 536 573 572
3 536 537 573
3 537 574 573
3 537 538 574
3 538 539 574
3 574 539 575
3 540 541 576
3 576 541 577
3 541 542 577
3 577 542 578
3 542 543 578
3 578 543 579
3 543 544 579
3 579 544 580
3 544 581 580
3 544 545 581
3 545 582 581
3 545 546 582
3 546 583 582
3 546 547 583
3 547 584 583
3 547 548 584
3 548 585 584
3 548 549 585
3 549 586 585
3 549 550 586
3 550 587 586
3 550 551 587
3 551 588 587
3 551 552 588
3 552 589 588
3 552 553 589
3 553 590 589
3 553 554 590
3 554 591 590
3 554 555 591
3 555 592 591
3 555 556 592
3 556 593 592
3 556 557 593
3 557 594 593
3 557 558 594
3 558 595 594
3 558 559 595
3 559 596 595
3 559 560 596
3 560 561 596
3 596 561 597
3 561 562 597
3 597 562 598
3 562 599 598
3 562 563 599
3 563 564 599
3 599 564 600
3 564 565 600
3 600 565 601
3 565 602 601
3 565 566 602
3 566 603 602
3 566 567 603
3 567 604 603
3 567 568 604
3 568 605 604
3 568 569 605
3 569 606 605
3 569 570 606
3 570 607 606
3 570 571 607
3 571 608 607
3 571 572 608
3 572 609 608
3 572 573 609
3 573 610 609
3 573 574 610
3 574 575 610
3 610 575 611
3 576 577 612
3 612 577 613
3 577 578 613
3 613 578 614
3 578 579 614
3 614 579 615
3 579 580 615
3 615 580 616
3 580 581 616
3 616 581 617
3 581 582 617
3 617 582 618
3 582 583 618
3 618 583 619
3 583 584 619
3 619 584 620
3 584 585 620
3 620 585 621
3 585 586 621
3 621 586 622
3 586 623 622
3 586 587 623
3 587 624 623
3 587 588 624
3 588 625 624
3 588 589 625
3 589 590 625
3 625 590 626
3 590 591 626
3 626 591 627
3 591 628 627
3 591 592 628
3 592 629 628
3 592 593 629
3 593 630 629
3 593 594 630
3 594 631 630
3 594 595 631
3 595 632 631
3 595 596 632
3 596 597 632
3 632 597 633
3 597 598 633
3 633 598 634
3 598 599 634
3 634 599 635
3 599 600 635
3 635 600 636
3 600 601 636
3 636 601 637
3 601 602 637
3 637 602 638
3 602 639 638
3 602 603 639
3 603 640 639
3 603 604 640
3 604 641 640
3 604 605 641
3 605 642 641
3 605 606 642
3 606 643 642
3 606 607 643
3 607 644 643
3 607 608 644
3 608 645 644
3 608 609 645
3 609 646 645
3 609 610 646
3 610 611 646
3 646 611 647
3 612 613 648
3 648 613 649
3 613 614 649
3 649 614 650
3 614 615 650
3 650 615 651
3 615 616 651
3 651 616 652
3 616 617 652
3 652 617 653
3 617 618 653
3 653 618 654
3 618 619 654
3 654 619 655
3 619 620 655
3 655 620 656
3 620 621 656
3 656 621 657
3 621 622 657
3 657 622 658
3 622 623 658
3 658 623 659
3 623 660 659
3 623 624 660
3 624 661 660
3 624 625 661
3 625 626 661
3 661 626 662
3 626 627 662
3 662 627 663
3 627 628 663
3 663 628 664
3 628 629 664
3 664 629 665
3 629 630 665
3 665 630 666
3 630 631 666
3 666 631 667
3 631 632 667
3 667 632 668
3 632 633 668
3 668 633 669
3 633 634 669
3 669 634 670
3 634 635 670
3 670 635 671
3 635 636 671
3 671 636 672
3 636 637 672
3 672 637 673
3 637 638 673
3 673 638 674
3 638 639 674
3 674 639 675
3 639 676 675
3 639 640 676
3 640 677 676
3 640 641 677
3 641 678 677
3 641 642 678
3 642 643 678
3 678 643 679
3 643 644 679
3 679 644 680
3 644 681 680
3 644 645 681
3 645 646 681
3 681 646 682
3 646 647 682
3 682 647 683
3 648 649 684
3 684 649 685
3 649 650 685
3 685 650 686
3 650 651 686
3 686 651 687
3 651 652 687
3 687 652 688
3 652 653 688
3 688 653 689
3 653 654 689
3 689 654 690
3 654 655 690
3 690 655 691
3 655 656 691
3 691 656 692
3 656 657 692
3 692 657 693
3 657 658 693
3 693 658 694
3 658 659 694
3 694 659 695
3 659 696 695
3 659 660 696
3 660 697 696
3 660 661 697
3 661 662 697
3 697 662 698
3 662 663 698
3 698 663 699
3 663 664 699
3 699 664 700
3 664 665 700
3 700 665 701
3 665 666 701
3 701 666 702
3 666 667 702
3 702 667 703
3 667 668 703
3 703 668 704
3 668 669 704
3 704 669 705
3 669 670 705
3 705 670 706
3 670 671 706
3 706 671 707
3 671 672 707
3 707 672 708
3 672 673 708
3 708 673 709
3 673 674 709
3 709 674 710
3 674 675 710
3 710 675 711
3 675 712 711
3 675 676 712
3 676 713 712
3 676 677 713
3 677 714 713
3 677 678 714
3 678 679 714
3 714 679 715
3 679 680 715
3 715 680 716
3 680 717 716
3 680 681 717
3 681 682 717
3 717 682 718
3 682 683 718
3 718 683 719
3 684 685 720
3 720 685 721
3 685 686 721
3 721 686 722
3 686 687 722
3 722 687 723
3 687 688 723
3 723 688 724
3 688 689 724
3 724 689 725
3 689 690 725
3 725 690 726
3 690 691 726
3 726 691 727
3 691 692 727
3 727 692 728
3 692 693 728
3 728 693 729
3 693 694 729
3 729 694 730
3 694 695 730
3 730 695 731
3 695 732 731
3 695 696 732
3 696 697 732
3 732 697 733
3 697 698 733
3 733 698 734
3 698 699 734
3 734 699 735
3 699 700 735
3 735 700 736
3 700 701 736
3 736 701 737
3 701 702 737
3 737 702 738
3 702 703 738
3 738 703 739
3 703 704 739
3 739 704 740
3 704 705 740
3 740 705 741
3 705 706 741
3 741 706 742
3 706 707 742
3 742 707 743
3 707 708 743
3 743 708 744
3 708 709 744
3 744 709 745
3 709 710 745
3 745 710 746
3 710 711 746
3 746 711 747
3 711 712 747
3 747 712 748
3 712 713 748
3 748 713 749
3 713 714 749
3 749 714 750
3 714 715 750
3 750 715 751
3 715 716 751
3 751 716 752
3 716 753 752
3 716 717 753
3 717 754 753
3 717 718 754
3 718 719 754
3 754 719 755
3 720 721 756
3 756 721 757
3 721 722 757
3 757 722 758
3 722 723 758
3 758 723 759
3 723 724 759
3 759 724 760
3 724 725 760
3 760 725 761
3 725 726 761
3 761 726 762
3 726 727 762
3 762 727 763
3 727 728 763
3 763 728 764
3 728 729 764
3 764 729 765
3 729 730 765
3 765 730 766
3 730 731 766
3 766 731 767
3 731 732 767
3 767 732 768
3 732 733 768
3 768 733 769
3 733 734 769
3 769 734 770
3 734 735 770
3 770 735 771
3 735 736 771
3 771 736 772
3 736 737 772
3 772 737 773
3 737 738 773
3 773 738 774
3 738 739 774
3 774 739 775
3 739 740 775
3 775 740 776
3 740 741 776
3 776 741 777
3 741 742 777
3 777 742 778
3 742 743 778
3 778 743 779
3 743 744 779
3 779 744 780
3 744 745 780
3 780 745 781
3 745 746 781
3 781 746 782
3 746 747 782
3 782 747 783
3 747 748 783
3 783 748 784
3 748 749 784
3 784 749 785
3 749 750 785
3 785 750 786
3 750 751 786
3 786 751 787
3 751 752 787
3 787 752 788
3 752 789 788
3 752 753 789
3 753 790 789
3 753 754 790
3 754 755 790
3 790 755 791
3 792 756 793
3 756 757 793
3 793 757 794
3 757 758 794
3 794 758 795
3 758 759 795
3 795 759 796
3 759 760 796
3 796 760 797
3 760 761 797
3 797 761 798
3 761 762 798
3 798 762 799
3 762 763 799
3 799 763 800
3 763 764 800
3 800 764 801
3 764 765 801
3 801 765 802
3 765 766 802
3 802 766 803
3 766 767 803
3 803 767 804
3 767 805 804
3 767 768 805
3 768 769 805
3 805 769 806
3 769 770 806
3 806 770 807
3 770 771 807
3 807 771 808
3 771 772 808
3 808 772 809
3 772 773 809
3 809 773 810
3 773 774 810
3 810 774 811
3 774 775 811
3 811 775 812
3 775 776 812
3 812 776 813
3 776 777 813
3 813 777 814
3 777 778 814
3 814 778 815
3 778 779 815
3 815 779 816
3 779 780 816
3 816 780 817
3 780 781 817
3 817 781 818
3 781 782 818
3 818 782 819
3 782 783 819
3 819 783 820
3 783 784 820
3 820 784 821
3 784 785 821
3 821 785 822
3 785 786 822
3 822 786 823
3 786 824 823
3 786 787 824
3 787 825 824
3 787 788 825
3 788 826 825
3 788 789 826
3 789 827 826
3 789 790 827
3 790 828 827
3 790 791 828
3 791 829 828
3 792 830 831
3 792 793 830
3 793 794 830
3 830 794 832
3 794 795 832
3 832 795 833
3 795 796 833
3 833 796 834
3 796 797 834
3 834 797 835
3 797 798 835
3 835 798 836
3 798 799 836
3 836 799 837
3 799 800 837
3 837 800 838
3 800 801 838
3 838 801 839
3 801 802 839
3 839 802 840
3 802 803 840
3 840 803 841
3 803 842 841
3 803 804 842
3 804 843 842
3 804 805 843
3 805 844 843
3 805 806 844
3 806 807 844
3 844 807 845
3 807 808 845
3 845 808 846
3 808 847 846
3 808 809 847
3 809 848 847
3 809 810 848
3 810 849 848
3 810 811 849
3 811 812 849
3 849 812 850
3 812 813 850
3 850 813 851
3 813 814 851
3 851 814 852
3 814 815 852
3 852 815 853
3 815 816 853
3 853 816 854
3 816 817 854
3 854 817 855
3 817 818 855
3 855 818 856
3 818 857 856
3 818 819 857
3 819 858 857
3 819 820 858
3 820 859 858
3 820 821 859
3 821 822 859
3 859 822 860
3 822 823 860
3 860 823 861
3 823 862 861
3 823 824 862
3 824 863 862
3 824 825 863
3 825 864 863
3 825 826 864
3 826 865 864
3 826 827 865
3 827 866 865
3 827 828 866
3 828 867 866
3 828 829 867
3 831 830 868
3 830 832 868
3 868 832 869
3 832 833 869
3 869 833 870
3 833 834 870
3 870 834 871
3 834 835 871
3 871 835 872
3 835 836 872
3 872 836 873
3 836 837 873
3 873 837 874
3 837 838 874
3 874 838 875
3 838 839 875
3 875 839 876
3 839 840 876
3 876 840 877
3 840 841 877
3 877 841 878
3 841 879 878
3 841 842 879
3 842 880 879
3 842 843 880
3 843 881 880
3 843 844 881
3 844 882 881
3 844 845 882
3 845 846 882
3 882 846 883
3 846 884 883
3 846 847 884
3 847 885 884
3 847 848 885
3 848 886 885
3 848 849 886
3 849 887 886
3 849 850 887
3 850 851 887
3 887 851 888
3 851 852 888
3 888 852 889
3 852 853 889
3 889 853 890
3 853 854 890
3 890 854 891
3 854 855 891
3 891 855 892
3 855 893 892
3 855 856 893
3 856 894 893
3 856 857 894
3 857 895 894
3 857 858 895
3 858 896 895
3 858 859 896
3 859 860 896
3 896 860 897
3 860 898 897
3 860 861 898
3 861 899 898
3 861 862 899
3 862 900 899
3 862 863 900
3 863 901 900
3 863 864 901
3 864 902 901
3 864 865 902
3 865 903 902
3 865 866 903
3 866 904 903
3 866 867 904
3 905 868 906
3 906 868 907
3 868 869 907
3 907 869 908
3 869 870 908
3 908 870 909
3 870 871 909
3 909 871 910
3 871 872 910
3 910 872 911
3 872 912 911
3 872 873 912
3 873 913 912
3 873 874 913
3 874 914 913
3 874 875 914
3 875 876 914
3 914 876 915
3 876 877 915
3 915 877 916
3 877 878 916
3 916 878 917
3 878 879 917
3 917 879 918
3 879 919 918
3 879 880 919
3 880 920 919
3 880 881 920
3 881 882 920
3 920 882 921
3 882 883 921
3 921 883 922
3 883 884 922
3 922 884 923
3 884 924 923
3 884 885 924
3 885 886 924
3 924 886 925
3 886 887 925
3 925 887 926
3 887 888 926
3 926 888 927
3 888 889 927
3 927 889 928
3 889 890 928
3 928 890 929
3 890 891 929
3 929 891 930
3 891 892 930
3 930 892 931
3 892 893 931
3 931 893 932
3 893 933 932
3 893 894 933
3 894 934 933
3 894 895 934
3 895 896 934
3 934 896 935
3 896 897 935
3 935 897 936
3 897 937 936
3 897 898 937
3 898 938 937
3 898 899 938
3 899 939 938
3 899 900 939
3 900 940 939
3 900 901 940
3 901 941 940
3 901 902 941
3 902 942 941
3 902 903 942
3 903 943 942
3 903 904 943
3 904 944 943
3 907 908 945
3 945 908 946
3 908 909 946
3 946 909 947
3 909 910 947
3 947 910 948
3 910 911 948
3 948 911 949
3 911 950 949
3 911 912 950
3 912 951 950
3 912 913 951
3 913 914 951
3 951 914 952
3 914 915 952
3 952 915 953
3 915 916 953
3 953 916 954
3 916 917 954
3 954 917 955
3 917 918 955
3 955 918 956
3 918 957 956
3 918 919 957
3 919 958 957
3 919 920 958
3 920 921 958
3 958 921 959
3 921 922 959
3 959 922 960
3 922 961 960
3 922 923 961
3 923 962 961
3 923 924 962
3 924 963 962
3 924 925 963
3 925 964 963
3 925 926 964
3 926 927 964
3 964 927 965
3 927 928 965
3 965 928 966
3 928 929 966
3 966 929 967
3 929 930 967
3 967 930 968
3 930 931 968
3 968 931 969
3 931 970 969
3 931 932 970
3 932 971 970
3 932 933 971
3 933 972 971
3 933 934 972
3 934 973 972
3 934 935 973
3 935 974 973
3 935 936 974
3 936 975 974
3 936 937 975
3 937 976 975
3 937 938 976
3 938 977 976
3 938 939 977
3 939 978 977
3 939 940 978
3 940 979 978
3 940 941 979
3 941 980 979
3 941 942 980
3 942 981 980
3 942 943 981
3 943 982 981
3 943 944 982
3 945 946 983
3 983 946 984
3 946 947 984
3 984 947 985
3 947 948 985
3 985 948 986
3 948 949 986
3 986 949 987
3 949 950 987
3 987 950 988
3 950 989 988
3 950 951 989
3 951 952 989
3 989 952 990
3 952 953 990
3 990 953 991
3 953 954 991
3 991 954 992
3 954 955 992
3 992 955 993
3 955 956 993
3 993 956 994
3 956 957 994
3 994 957 995
3 957 958 995
3 995 958 996
3 958 959 996
3 996 959 997
3 959 998 997
3 959 960 998
3 960 999 998
3 960 961 999
3 961 1000 999
3 961 962 1000
3 962 1001 1000
3 962 963 1001
3 963 1002 1001
3 963 964 1002
3 964 1003 1002
3 964 965 1003
3 965 966 1003
3 1003 966 1004
3 966 967 1004
3 1004 967 1005
3 967 1006 1005
3 967 968 1006
3 968 969 1006
3 1006 969 1007
3 969 970 1007
3 1007 970 1008
3 970 971 1008
3 1008 971 1009
3 971 1010 1009
3 971 972 1010
3 972 1011 1010
3 972 973 1011
3 973 1012 1011
3 973 974 1012
3 974 1013 1012
3 974 975 1013
3 975 1014 1013
3 975 976 1014
3 976 1015 1014
3 976 977 1015
3 977 1016 1015
3 977 978 1016
3 978 979 1016
3 1016 979 1017
3 979 980 1017
3 1017 980 1018
3 980 981 1018
3 1018 981 1019
3 981 1020 1019
3 981 982 1020
3 983 984 1021
3 1021 984 1022
3 984 985 1022
3 1022 985 1023
3 985 986 1023
3 1023 986 1024
3 986 987 1024
3 1024 987 1025
3 987 1026 1025
3 987 988 1026
3 988 1027 1026
3 988 989 1027
3 989 1028 1027
3 989 990 1028
3 990 1029 1028
3 990 991 1029
3 991 1030 1029
3 991 992 1030
3 992 1031 1030
3 992 993 1031
3 993 1032 1031
3 993 994 1032
3 994 1033 1032
3 994 995 1033
3 995 1034 1033
3 995 996 1034
3 996 1035 1034
3 996 997 1035
3 997 1036 1035
3 997 998 1036
3 998 1037 1036
3 998 999 1037
3 999 1038 1037
3 999 1000 1038
3 1000 1039 1038
3 1000 1001 1039
3 1001 1040 1039
3 1001 1002 1040
3 1002 1041 1040
3 1002 1003 1041
3 1003 1042 1041
3 1003 1004 1042
3 1004 1043 1042
3 1004 1005 1043
3 1005 1044 1043
3 1005 1006 1044
3 1006 1045 1044
3 1006 1007 1045
3 1007 1046 1045
3 1007 1008 1046
3 1008 1047 1046
3 1008 1009 1047
3 1009 1048 1047
3 1009 1010 1048
3 1010 1049 1048
3 1010 1011 1049
3 1011 1050 1049
3 1011 1012 1050
3 1012 1051 1050
3 1012 1013 1051
3 1013 1014 1051
3 1051 1014 1052
3 1014 1015 1052
3 1052 1015 1053
3 1015 1016 1053
3 1053 1016 1054
3 1016 1017 1054
3 1054 1017 1055
3 1017 1018 1055
3 1055 1018 1056
3 1018 1019 1056
3 1056 1019 1057
3 1019 1058 1057
3 1019 1020 1058
3 1021 1022 1059
3 1059 1022 1060
3 1022 1023 1060
3 1060 1023 1061
3 1023 1024 1061
3 1061 1024 1062
3 1024 1025 1062
3 1062 1025 1063
3 1025 1064 1063
3 1025 1026 1064
3 1026 1065 1064
3 1026 1027 1065
3 1027 1066 1065
3 1027 1028 1066
3 1028 1067 1066
3 1028 1029 1067
3 1029 1068 1067
3 1029 1030 1068
3 1030 1069 1068
3 1030 1031 1069
3 1031 1070 1069
3 1031 1032 1070
3 1032 1071 1070
3 1032 1033 1071
3 1033 1072 1071
3 1033 1034 1072
3 1034 1073 1072
3 1034 1035 1073
3 1035 1074 1073
3 1035 1036 1074
3 1036 1075 1074
3 1036 1037 1075
3 1037 1076 1075
3 1037 1038 1076
3 1038 1077 1076
3 1038 1039 1077
3 1039 1078 1077
3 1039 1040 1078
3 1040 1079 1078
3 1040 1041 1079
3 1041 1042 1079
3 1079 1042 1080
3 1042 1081 1080
3 1042 1043 1081
3 1043 1082 1081
3 1043 1044 1082
3 1044 1083 1082
3 1044 1045 1083
3 1045 1084 1083
3 1045 1046 1084
3 1046 1085 1084
3 1046 1047 1085
3 1047 1086 1085
3 1047 1048 1086
3 1048 1087 1086
3 1048 1049 1087
3 1049 1088 1087
3 1049 1050 1088
3 1050 1051 1088
3 1088 1051 1089
3 1051 1052 1089
3 1089 1052 1090
3 1052 1053 1090
3 1090 1053 1091
3 1053 1054 1091
3 1091 1054 1092
3 1054 1055 1092
3 1092 1055 1093
3 1055 1056 1093
3 1093 1056 1094
3 1056 1057 1094
3 1094 1057 1095
3 1057 1096 1095
3 1057 1058 1096
3 1059 1060 1097
3 1097 1060 1098
3 1060 1061 1098
3 1098 1061 1099
3 1061 1062 1099
3 1099 1062 1100
3 1062 1063 1100
3 1100 1063 1101
3 1063 1064 1101
3 1101 1064 1102
3 1064 1065 1102
3 1102 1065 1103
3 1065 1066 1103
3 1103 1066 1104
3 1066 1067 1104
3 1104 1067 1105
3 1067 1106 1105
3 1067 1068 1106
3 1068 1107 1106
3 1068 1069 1107
3 1069 1108 1107
3 1069 1070 1108
3 1070 1109 1108
3 1070 1071 1109
3 1071 1110 1109
3 1071 1072 1110
3 1072 1073 1110
3 1110 1073 1111
3 1073 1074 1111
3 1111 1074 1112
3 1074 1075 1112
3 1112 1075 1113
3 1075 1076 1113
3 1113 1076 1114
3 1076 1077 1114
3 1114 1077 1115
3 1077 1078 1115
3 1115 1078 1116
3 1078 1079 1116
3 1116 1079 1117
3 1079 1080 1117
3 1117 1080 1118
3 1080 1081 1118
3 1118 1081 1119
3 1081 1082 1119
3 1119 1082 1120
3 1082 1121 1120
3 1082 1083 1121
3 1083 1122 1121
3 1083 1084 1122
3 1084 1123 1122
3 1084 1085 1123
3 1085 1124 1123
3 1085 1086 1124
3 1086 1125 1124
3 1086 1087 1125
3 1087 1088 1125
3 1125 1088 1126
3 1088 1089 1126
3 1126 1089 1127
3 1089 1090 1127
3 1127 1090 1128
3 1090 1091 1128
3 1128 1091 1129
3 1091 1092 1129
3 1129 1092 1130
3 1092 1093 1130
3 1130 1093 1131
3 1093 1094 1131
3 1131 1094 1132
3 1094 1095 1132
3 1132 1095 1133
3 1095 1134 1133
3 1095 1096 1134
3 1097 1098 1135
3 1135 1098 1136
3 1098 1099 1136
3 1136 1099 1137
3 1099 1100 1137
3 1137 1100 1138
3 1100 1101 1138
3 1138 1101 1139
3 1101 1102 1139
3 1139 1102 1140
3 1102 1103 1140
3 1140 1103 1141
3 1103 1104 1141
3 1141 1104 1142
3 1104 1105 1142
3 1142 1105 1143
3 1105 1106 1143
3 1143 1106 1144
3 1106 1107 1144
3 1144 1107 1145
3 1107 1108 1145
3 1145 1108 1146
3 1108 1147 1146
3 1108 1109 1147
3 1109 1110 1147
3 1147 1110 1148
3 1110 1111 1148
3 1148 1111 1149
3 1111 1112 1149
3 1149 1112 1150
3 1112 1113 1150
3 1150 1113 1151
3 1113 1152 1151
3 1113 1114 1152
3 1114 1115 1152
3 1152 1115 1153
3 1115 1116 1153
3 1153 1116 1154
3 1116 1117 1154
3 1154 1117 1155
3 1117 1118 1155
3 1155 1118 1156
3 1118 1119 1156
3 1156 1119 1157
3 1119 1120 1157
3 1157 1120 1158
3 1120 1159 1158
3 1120 1121 1159
3 1121 1160 1159
3 1121 1122 1160
3 1122 1161 1160
3 1122 1123 1161
3 1123 1162 1161
3 1123 1124 1162
3 1124 1163 1162
3 1124 1125 1163
3 1125 1126 1163
3 1163 1126 1164
3 1126 1127 1164
3 1164 1127 1165
3 1127 1128 1165
3 1165 1128 1166
3 1128 1129 1166
3 1166 1129 1167
3 1129 1130 1167
3 1167 1130 1168
3 1130 1131 1168
3 1168 1131 1169
3 1131 1132 1169
3 1169 1132 1170
3 1132 1133 1170
3 1170 1133 1171
3 1133 1172 1171
3 1133 1134 1172
3 1135 1136 1173
3 1173 1136 1174
3 1136 1137 1174
3 1174 1137 1175
3 1137 1138 1175
3 1175 1138 1176
3 1138 1139 1176
3 1176 1139 1177
3 1139 1140 1177
3 1177 1140 1178
3 1140 1141 1178
3 1178 1141 1179
3 1141 1142 1179
3 1179 1142 1180
3 1142 1143 1180
3 1180 1143 1181
3 1143 1144 1181
3 1181 1144 1182
3 1144 1145 1182
3 1182 1145 1183
3 1145 1146 1183
3 1183 1146 1184
3 1146 1147 1184
3 1184 1147 1185
3 1147 1148 1185
3 1185 1148 1186
3 1148 1149 1186
3 1186 1149 1187
3 1149 1150 1187
3 1187 1150 1188
3 1150 1151 1188
3 1188 1151 1189
3 1151 1190 1189
3 1151 1152 1190
3 1152 1153 1190
3 1190 1153 1191
3 1153 1154 1191
3 1191 1154 1192
3 1154 1155 1192
3 1192 1155 1193
3 1155 1156 1193
3 1193 1156 1194
3 1156 1157 1194
3 1194 1157 1195
3 1157 1158 1195
3 1195 1158 1196
3 1158 1159 1196
3 1196 1159 1197
3 1159 1198 1197
3 1159 1160 1198
3 1160 1199 1198
3 1160 1161 1199
3 1161 1200 1199
3 1161 1162 1200
3 1162 1163 1200
3 1200 1163 1201
3 1163 1164 1201
3 1201 1164 1202
3 1164 1165 1202
3 1202 1165 1203
3 1165 1166 1203
3 1203 1166 1204
3 1166 1167 1204
3 1204 1167 1205
3 1167 1168 1205
3 1205 1168 1206
3 1168 1169 1206
3 1206 1169 1207
3 1169 1170 1207
3 1207 1170 1208
3 1170 1171 1208
3 1208 1171 1209
3 1171 1210 1209
3 1171 1172 1210
3 1211 1173 1212
3 1173 1174 1212
3 1212 1174 1213
3 1174 1175 1213
3 1213 1175 1214
3 1175 1176 1214
3 1214 1176 1215
3 1176 1177 1215
3 1215 1177 1216
3 1177 1178 1216
3 1216 1178 1217
3 1178 1218 1217
3 1178 1179 1218
3 1179 1219 1218
3 1179 1180 1219
3 1180 1220 1219
3 1180 1181 1220
3 1181 1221 1220
3 1181 1182 1221
3 1182 1222 1221
3 1182 1183 1222
3 1183 1223 1222
3 1183 1184 1223
3 1184 1224 1223
3 1184 1185 1224
3 1185 1186 1224
3 1224 1186 1225
3 1186 1187 1225
3 1225 1187 1226
3 1187 1188 1226
3 1226 1188 1227
3 1188 1189 1227
3 1227 1189 1228
3 1189 1229 1228
3 1189 1190 1229
3 1190 1191 1229
3 1229 1191 1230
3 1191 1192 1230
3 1230 1192 1231
3 1192 1193 1231
3 1231 1193 1232
3 1193 1194 1232
3 1232 1194 1233
3 1194 1195 1233
3 1233 1195 1234
3 1195 1196 1234
3 1234 1196 1235
3 1196 1236 1235
3 1196 1197 1236
3 1197 1237 1236
3 1197 1198 1237
3 1198 1238 1237
3 1198 1199 1238
3 1199 1239 1238
3 1199 1200 1239
3 1200 1201 1239
3 1239 1201 1240
3 1201 1202 1240
3 1240 1202 1241
3 1202 1203 1241
3 1241 1203 1242
3 1203 1204 1242
3 1242 1204 1243
3 1204 1205 1243
3 1243 1205 1244
3 1205 1245 1244
3 1205 1206 1245
3 1206 1207 1245
3 1245 1207 1246
3 1207 1208 1246
3 1246 1208 1247
3 1208 1209 1247
3 1247 1209 1248
3 1209 1249 1248
3 1209 1210 1249
3 1211 1212 1250
3 1212 1251 1250
3 1212 1213 1251
3 1213 1252 1251
3 1213 1214 1252
3 1214 1215 1252
3 1252 1215 1253
3 1215 1254 1253
3 1215 1216 1254
3 1216 1255 1254
3 1216 1217 1255
3 1217 1256 1255
3 1217 1218 1256
3 1218 1257 1256
3 1218 1219 1257
3 1219 1258 1257
3 1219 1220 1258
3 1220 1259 1258
3 1220 1221 1259
3 1221 1260 1259
3 1221 1222 1260
3 1222 1261 1260
3 1222 1223 1261
3 1223 1262 1261
3 1223 1224 1262
3 1224 1263 1262
3 1224 1225 1263
3 1225 1226 1263
3 1263 1226 1264
3 1226 1227 1264
3 1264 1227 1265
3 1227 1266 1265
3 1227 1228 1266
3 1228 1267 1266
3 1228 1229 1267
3 1229 1268 1267
3 1229 1230 1268
3 1230 1269 1268
3 1230 1231 1269
3 1231 1270 1269
3 1231 1232 1270
3 1232 1233 1270
3 1270 1233 1271
3 1233 1272 1271
3 1233 1234 1272
3 1234 1273 1272
3 1234 1235 1273
3 1235 1274 1273
3 1235 1236 1274
3 1236 1275 1274
3 1236 1237 1275
3 1237 1276 1275
3 1237 1238 1276
3 1238 1277 1276
3 1238 1239 1277
3 1239 1278 1277
3 1239 1240 1278
3 1240 1279 1278
3 1240 1241 1279
3 1241 1242 1279
3 1279 1242 1280
3 1242 1281 1280
3 1242 1243 1281
3 1243 1282 1281
3 1243 1244 1282
3 1244 1283 1282
3 1244 1245 1283
3 1245 1284 1283
3 1245 1246 1284
3 1246 1285 1284
3 1246 1247 1285
3 1247 1286 1285
3 1247 1248 1286
3 1248 1287 1286
3 1248 1249 1287
3 1250 1288 1289
3 1250 1251 1288
3 1251 1290 1288
3 1251 1252 1290
3 1252 1291 1290
3 1252 1253 1291
3 1253 1292 1291
3 1253 1254 1292
3 1254 1293 1292
3 1254 1255 1293
3 1255 1294 1293
3 1255 1256 1294
3 1256 1295 1294
3 1256 1257 1295
3 1257 1296 1295
3 1257 1258 1296
3 1258 1297 1296
3 1258 1259 1297
3 1259 1298 1297
3 1259 1260 1298
3 1260 1299 1298
3 1260 1261 1299
3 1261 1300 1299
3 1261 1262 1300
3 1262 1301 1300
3 1262 1263 1301
3 1263 1302 1301
3 1263 1264 1302
3 1264 1303 1302
3 1264 1265 1303
3 1265 1304 1303
3 1265 1266 1304
3 1266 1305 1304
3 1266 1267 1305
3 1267 1306 1305
3 1267 1268 1306
3 1268 1307 1306
3 1268 1269 1307
3 1269 1308 1307
3 1269 1270 1308
3 1270 1309 1308
3 1270 1271 1309
3 1271 1310 1309
3 1271 1272 1310
3 1272 1311 1310
3 1272 1273 1311
3 1273 1312 1311
3 1273 1274 1312
3 1274 1313 1312
3 1274 1275 1313
3 1275 1314 1313
3 1275 1276 1314
3 1276 1315 1314
3 1276 1277 1315
3 1277 1316 1315
3 1277 1278 1316
3 1278 1317 1316
3 1278 1279 1317
3 1279 1318 1317
3 1279 1280 1318
3 1280 1319 1318
3 1280 1281 1319
3 1281 1320 1319
3 1281 1282 1320
3 1282 1321 1320
3 1282 1283 1321
3 1283 1322 1321
3 1283 1284 1322
3 1284 1323 1322
3 1284 1285 1323
3 1285 1324 1323
3 1285 1286 1324
3 1286 1325 1324
3 1286 1287 1325
3 1289 1288 1326
3 1326 1288 1327
3 1288 1290 1327
3 1327 1290 1328
3 1290 1291 1328
3 1328 1291 1329
3 1291 1292 1329
3 1329 1292 1330
3 1292 1331 1330
3 1292 1293 1331
3 1293 1332 1331
3 1293 1294 1332
3 1294 1333 1332
3 1294 1295 1333
3 1295 1334 1333
3 1295 1296 1334
3 1296 1335 1334
3 1296 1297 1335
3 1297 1336 1335
3 1297 1298 1336
3 1298 1337 1336
3 1298 1299 1337
3 1299 1338 1337
3 1299 1300 1338
3 1300 1339 1338
3 1300 1301 1339
3 1301 1340 1339
3 1301 1302 1340
3 1302 1341 1340
3 1302 1303 1341
3 1303 1342 1341
3 1303 1304 1342
3 1304 1343 1342
3 1304 1305 1343
3 1305 1344 1343
3 1305 1306 1344
3 1306 1345 1344
3 1306 1307 1345
3 1307 1346 1345
3 1307 1308 1346
3 1308 1309 1346
3 1346 1309 1347
3 1309 1310 1347
3 1347 1310 1348
3 1310 1349 1348
3 1310 1311 1349
3 1311 1350 1349
3 1311 1312 1350
3 1312 1351 1350
3 1312 1313 1351
3 1313 1352 1351
3 1313 1314 1352
3 1314 1353 1352
3 1314 1315 1353
3 1315 1354 1353
3 1315 1316 1354
3 1316 1355 1354
3 1316 1317 1355
3 1317 1318 1355
3 1355 1318 1356
3 1318 1319 1356
3 1356 1319 1357
3 1319 1358 1357
3 1319 1320 1358
3 1320 1359 1358
3 1320 1321 1359
3 1321 1360 1359
3 1321 1322 1360
3 1322 1323 1360
3 1360 1323 1361
3 1323 1362 1361
3 1323 1324 1362
3 1324 1363 1362
3 1324 1325 1363
3 1325 1364 1363
3 1326 1327 1365
3 1365 1327 1366
3 1327 1367 1366
3 1327 1328 1367
3 1328 1329 1367
3 1367 1329 1368
3 1329 1330 1368
3 1368 1330 1369
3 1330 1370 1369
3 1330 1331 1370
3 1331 1371 1370
3 1331 1332 1371
3 1332 1372 1371
3 1332 1333 1372
3 1333 1373 1372
3 1333 1334 1373
3 1334 1374 1373
3 1334 1335 1374
3 1335 1375 1374
3 1335 1336 1375
3 1336 1376 1375
3 1336 1337 1376
3 1337 1377 1376
3 1337 1338 1377
3 1338 1378 1377
3 1338 1339 1378
3 1339 1379 1378
3 1339 1340 1379
3 1340 1341 1379
3 1379 1341 1380
3 1341 1381 1380
3 1341 1342 1381
3 1342 1382 1381
3 1342 1343 1382
3 1343 1383 1382
3 1343 1344 1383
3 1344 1384 1383
3 1344 1345 1384
3 1345 1346 1384
3 1384 1346 1385
3 1346 1347 1385
3 1385 1347 1386
3 1347 1348 1386
3 1386 1348 1387
3 1348 1388 1387
3 1348 1349 1388
3 1349 1389 1388
3 1349 1350 1389
3 1350 1390 1389
3 1350 1351 1390
3 1351 1391 1390
3 1351 1352 1391
3 1352 1392 1391
3 1352 1353 1392
3 1353 1393 1392
3 1353 1354 1393
3 1354 1355 1393
3 1393 1355 1394
3 1355 1356 1394
3 1394 1356 1395
3 1356 1357 1395
3 1395 1357 1396
3 1357 1397 1396
3 1357 1358 1397
3 1358 1398 1397
3 1358 1359 1398
3 1359 1360 1398
3 1398 1360 1399
3 1360 1361 1399
3 1399 1361 1400
3 1361 1362 1400
3 1400 1362 1401
3 1362 1402 1401
3 1362 1363 1402
3 1363 1403 1402
3 1363 1364 1403
3 1365 1404 1405
3 1365 1366 1404
3 1366 1367 1404
3 1404 1367 1406
3 1367 1368 1406
3 1406 1368 1407
3 1368 1369 1407
3 1407 1369 1408
3 1369 1409 1408
3 1369 1370 1409
3 1370 1410 1409
3 1370 1371 1410
3 1371 1411 1410
3 1371 1372 1411
3 1372 1412 1411
3 1372 1373 1412
3 1373 1413 1412
3 1373 1374 1413
3 1374 1414 1413
3 1374 1375 1414
3 1375 1415 1414
3 1375 1376 1415
3 1376 1416 1415
3 1376 1377 1416
3 1377 1417 1416
3 1377 1378 1417
3 1378 1418 1417
3 1378 1379 1418
3 1379 1380 1418
3 1418 1380 1419
3 1380 1420 1419
3 1380 1381 1420
3 1381 1421 1420
3 1381 1382 1421
3 1382 1383 1421
3 1421 1383 1422
3 1383 1384 1422
3 1422 1384 1423
3 1384 1385 1423
3 1423 1385 1424
3 1385 1386 1424
3 1424 1386 1425
3 1386 1426 1425
3 1386 1387 1426
3 1387 1427 1426
3 1387 1388 1427
3 1388 1428 1427
3 1388 1389 1428
3 1389 1429 1428
3 1389 1390 1429
3 1390 1430 1429
3 1390 1391 1430
3 1391 1431 1430
3 1391 1392 1431
3 1392 1432 1431
3 1392 1393 1432
3 1393 1394 1432
3 1432 1394 1433
3 1394 1395 1433
3 1433 1395 1434
3 1395 1396 1434
3 1434 1396 1435
3 1396 1436 1435
3 1396 1397 1436
3 1397 1437 1436
3 1397 1398 1437
3 1398 1438 1437
3 1398 1399 1438
3 1399 1400 1438
3 1438 1400 1439
3 1400 1440 1439
3 1400 1401 1440
3 1401 1441 1440
3 1401 1402 1441
3 1402 1442 1441
3 1402 1403 1442
3 1405 1404 1443
3 1404 1406 1443
3 1443 1406 1444
3 1406 1407 1444
3 1413 1414 1445
3 1414 1446 1445
3 1414 1415 1446
3 1415 1447 1446
3 1415 1416 1447
3 1416 1448 1447
3 1416 1417 1448
3 1417 1449 1448
3 1417 1418 1449
3 1418 1450 1449
3 1418 1419 1450
3 1419 1451 1450
3 1419 1420 1451
3 1420 1452 1451
3 1420 1421 1452
3 1421 1453 1452
3 1421 1422 1453
3 1422 1454 1453
3 1422 1423 1454
3 1423 1455 1454
3 1423 1424 1455
3 1424 1456 1455
3 1424 1425 1456
3 1425 1457 1456
3 1425 1426 1457
3 1426 1458 1457
3 1426 1427 1458
3 1427 1459 1458
3 1427 1428 1459
3 1428 1460 1459
3 1428 1429 1460
3 1429 1461 1460
3 1429 1430 1461
3 1430 1462 1461
3 1430 1431 1462
3 1431 1463 1462
3 1431 1432 1463
3 1432 1464 1463
3 1432 1433 1464
3 1433 1434 1464
3 1464 1434 1465
3 1434 1466 1465
3 1434 1435 1466
3 1435 1467 1466
3 1435 1436 1467
3 1436 1468 1467
3 1436 1437 1468
3 1437 1469 1468
3 1437 1438 1469
3 1438 1470 1469
3 1438 1439 1470
3 1439 1471 1470
3 1439 1440 1471
3 1440 1472 1471
3 1440 1441 1472
3 1441 1473 1472
3 1441 1442 1473
3 1460 1461 1474
3 1461 1475 1474
3 1461 1462 1475
3 1462 1476 1475
3 1462 1463 1476
3 1463 1477 1476
3 1463 1464 1477
3 1464 1465 1477
3 1477 1465 1478
3 1465 1466 1478
3 1478 1466 1479
3 1466 1467 1480
3 1467 1481 1480
3 1467 1468 1481
3 1468 1482 1481
3 1468 1469 1482
3 1469 1470 1482
3 1482 1470 1483
3 1470 1471 1484
3 1471 1472 1485
3 1472 1486 1485
3 1472 1473 1486
CELL_DATA 2809
SCALARS brightness_temperature float
LOOKUP_TABLE default
POINT_DATA 1487
CELL_DATA 2809
SCALARS emission_angle float
LOOKUP_TABLE default
POINT_DATA 1487
CELL_DATA 2809
SCALARS incidence_angle float
LOOKUP_TABLE default
POINT_DATA 1487
CELL_DATA 2809
SCALARS phase_angle float
LOOKUP_TABLE default
POINT_DATA 1487
CELL_DATA 2809
SCALARS local_solar_time float
LOOKUP_TABLE default
POINT_DATA 1487
CELL_DATA 2809
SCALARS local_solar_time_normal_vector float
LOOKUP_TABLE default
CELL_DATA 2809
SCALARS pixel_x float
LOOKUP_TABLE default
POINT_DATA 1487
CELL_DATA 2809
SCALARS pixel_y float
LOOKUP_TABLE default
POINT_DATA 1487
CELL_DATA 2809
SCALARS longitude float
LOOKUP_TABLE default
POINT_DATA 1487
CELL_DATA 2809
SCALARS latitude float
LOOKUP_TABLE default
