# vtk DataFile Version 3.0
SHAPE_sfm_50k_v20200323
ASCII
DATASET POLYDATA
POINTS 1518 float
0.12155 0.29467 0.27752
0.12317 0.29545 0.27496
0.12111 0.296 0.27496
0.12299 0.29674 0.27235
0.12096 0.29744 0.27244
0.1233 0.29813 0.26981
0.12117 0.29862 0.26979
0.12144 0.2998 0.26717
0.12354 0.29918 0.26714
0.12322 0.29943 0.26429
0.12121 0.30037 0.26437
0.12271 0.2996 0.26134
0.12058 0.30033 0.26144
0.12266 0.3007 0.25852
0.12053 0.30144 0.2586
0.12262 0.30216 0.25595
0.12047 0.30291 0.25602
0.12239 0.30376 0.25348
0.12028 0.30464 0.25363
0.12239 0.30557 0.25116
0.1203 0.30647 0.25134
0.12287 0.30724 0.24882
0.1208 0.30817 0.24901
0.12154 0.30982 0.24672
0.12359 0.30883 0.24648
0.12229 0.31155 0.24447
0.12434 0.31055 0.24422
0.12318 0.3133 0.24232
0.12188 0.29315 0.27998
0.11977 0.29359 0.28009
0.11943 0.29501 0.27758
0.11902 0.2964 0.27504
0.11886 0.29788 0.27254
0.1191 0.29923 0.26997
0.11937 0.30043 0.26736
0.11922 0.30123 0.2646
0.1186 0.30133 0.26171
0.11842 0.30224 0.25883
0.11842 0.30383 0.2563
0.11827 0.30563 0.25399
0.11826 0.30742 0.25167
0.11874 0.3091 0.24932
0.11951 0.31081 0.24707
0.12023 0.3125 0.2448
0.12112 0.31427 0.24265
0.12166 0.31618 0.24051
0.12372 0.31518 0.24015
0.12402 0.31722 0.23808
0.12195 0.31822 0.23844
0.12456 0.3193 0.23609
0.12244 0.32023 0.23638
0.12492 0.32152 0.23423
0.12277 0.32241 0.23447
0.12516 0.32365 0.23226
0.12302 0.32459 0.23255
0.12542 0.32567 0.23018
0.12328 0.32663 0.23048
0.12566 0.3275 0.2279
0.12349 0.32844 0.22818
0.12631 0.32973 0.22607
0.12406 0.33056 0.22623
0.12494 0.33273 0.22448
0.12727 0.33212 0.22467
0.12811 0.33424 0.22284
0.12575 0.33473 0.22253
0.11766 0.29404 0.28038
0.11729 0.29536 0.2778
0.11688 0.29674 0.27525
0.11673 0.29822 0.27273
0.11697 0.29958 0.27017
0.11723 0.30079 0.26757
0.11707 0.30158 0.26481
0.1166 0.3022 0.26199
0.11645 0.30328 0.25921
0.11639 0.30476 0.25663
0.1163 0.30666 0.25439
0.11622 0.30838 0.25202
0.11669 0.31004 0.24965
0.11744 0.31173 0.24737
0.11822 0.31353 0.24519
0.11911 0.31532 0.24307
0.11969 0.31729 0.241
0.11996 0.31931 0.23891
0.12038 0.32126 0.23677
0.12062 0.32334 0.23473
0.121 0.32571 0.23303
0.12108 0.32747 0.23068
0.1213 0.32933 0.22842
0.12195 0.33165 0.22672
0.12267 0.33353 0.22459
0.12346 0.33557 0.22266
0.12625 0.33675 0.22048
0.1239 0.33748 0.22044
0.12661 0.33834 0.21805
0.12418 0.33852 0.21769
0.12515 0.33991 0.21529
0.12748 0.34034 0.21609
0.12645 0.34159 0.2133
0.1267 0.34286 0.21065
0.12861 0.34237 0.20834
0.12631 0.34307 0.20772
0.12843 0.34268 0.20542
0.12625 0.34374 0.20489
0.12888 0.34363 0.20267
0.12665 0.34467 0.20214
0.11561 0.29462 0.28073
0.11518 0.29581 0.27809
0.11474 0.29712 0.27549
0.11458 0.29857 0.27294
0.11482 0.29994 0.27038
0.11511 0.30126 0.26782
0.11492 0.30201 0.26502
0.11459 0.30305 0.26228
0.11457 0.30439 0.25965
0.1144 0.30575 0.25702
0.1143 0.30765 0.25476
0.11429 0.30948 0.25248
0.11468 0.31106 0.25004
0.11539 0.3127 0.2477
0.11621 0.31455 0.24557
0.11712 0.31638 0.24348
0.11768 0.31834 0.24139
0.11791 0.32035 0.23927
0.11843 0.32244 0.23729
0.1187 0.32456 0.23531
0.11883 0.3266 0.23322
0.11882 0.32819 0.23074
0.11909 0.33016 0.22857
0.11965 0.33238 0.22673
0.1204 0.33435 0.2247
0.12113 0.33627 0.22259
0.12146 0.33762 0.22
0.12176 0.33895 0.21742
0.12269 0.34008 0.21488
0.12407 0.34127 0.21261
0.12429 0.3427 0.21008
0.12394 0.34373 0.20738
0.12378 0.34403 0.20446
0.12415 0.34474 0.20164
0.12671 0.34468 0.19917
0.12432 0.34531 0.19875
0.12692 0.34548 0.19629
0.12457 0.34637 0.19601
0.11355 0.29516 0.28103
0.11309 0.29635 0.2784
0.11263 0.29762 0.27578
0.11247 0.29909 0.27323
0.11271 0.30044 0.27067
0.11295 0.30162 0.26803
0.11279 0.30256 0.26527
0.11252 0.30375 0.26257
0.11253 0.30518 0.25999
0.11251 0.30683 0.25754
0.1123 0.30861 0.2552
0.11234 0.31053 0.25299
0.11274 0.31214 0.25057
0.11343 0.31376 0.24822
0.11419 0.31555 0.24601
0.11508 0.31736 0.24388
0.11571 0.31943 0.2419
0.11601 0.32155 0.2399
0.11664 0.32373 0.23805
0.1167 0.32564 0.23585
0.11651 0.32719 0.23336
0.1166 0.329 0.23105
0.11678 0.33081 0.22873
0.11728 0.33281 0.22663
0.11804 0.33487 0.22469
0.11874 0.33671 0.22251
0.11909 0.33826 0.22005
0.11941 0.33968 0.21751
0.12029 0.34072 0.21491
0.12159 0.3416 0.21246
0.12184 0.34314 0.20998
0.12161 0.34461 0.20746
0.12141 0.34498 0.20457
0.12153 0.34491 0.20157
0.12183 0.34587 0.19873
0.1221 0.34698 0.19603
0.11147 0.29566 0.28126
0.11102 0.29692 0.27868
0.11053 0.29817 0.27605
0.11038 0.29966 0.27352
0.11059 0.30095 0.27091
0.11081 0.30211 0.26825
0.1107 0.30325 0.26556
0.11045 0.30449 0.26289
0.11049 0.30599 0.26033
0.11047 0.30767 0.2579
0.11032 0.30958 0.25566
0.11033 0.31148 0.25343
0.11082 0.31322 0.25112
0.11148 0.31483 0.24876
0.11219 0.31657 0.2465
0.11305 0.31836 0.24433
0.1137 0.32047 0.24238
0.11426 0.32284 0.24073
0.11484 0.325 0.23882
0.11474 0.32675 0.23646
0.11454 0.32835 0.23401
0.11456 0.33008 0.23165
0.11461 0.33173 0.22921
0.11502 0.33361 0.22698
0.11572 0.33551 0.22486
0.11636 0.33721 0.22257
0.11672 0.33885 0.22016
0.117 0.3402 0.21758
0.11787 0.34121 0.21496
0.11924 0.34239 0.21268
0.11951 0.34396 0.21022
0.11927 0.34541 0.20768
0.11936 0.34649 0.20493
0.11926 0.34612 0.20192
0.11942 0.34668 0.19898
0.11968 0.34773 0.19624
0.1094 0.29621 0.28161
0.10897 0.29758 0.27909
0.10844 0.29879 0.27646
0.10824 0.30016 0.27385
0.10849 0.30154 0.27127
0.10874 0.30279 0.26865
0.10866 0.30401 0.26599
0.1084 0.30527 0.26333
0.10842 0.30677 0.26077
0.10842 0.30849 0.25836
0.10832 0.31049 0.2562
0.10832 0.3124 0.25396
0.10885 0.31421 0.25171
0.10957 0.3159 0.24942
0.1103 0.31768 0.24721
0.11107 0.31938 0.24493
0.11171 0.32146 0.24294
0.11223 0.32381 0.24125
0.11277 0.32596 0.23933
0.11277 0.32784 0.23708
0.11261 0.32953 0.23468
0.11251 0.33112 0.23221
0.11265 0.33293 0.22991
0.11289 0.33459 0.2275
0.11345 0.33627 0.22516
0.11398 0.33772 0.22267
0.11434 0.33941 0.22029
0.11465 0.34089 0.21778
0.11548 0.34187 0.21513
0.11691 0.34318 0.21294
0.1172 0.34482 0.21052
0.11693 0.34623 0.20796
0.11702 0.34737 0.20524
0.11714 0.34748 0.20228
0.11704 0.34754 0.19928
0.11729 0.34857 0.19648
0.10734 0.29684 0.282
0.10699 0.29846 0.27962
0.10645 0.29969 0.27704
0.10622 0.30094 0.27438
0.10649 0.30234 0.27178
0.10671 0.30353 0.26912
0.10663 0.30476 0.26646
0.10645 0.30621 0.26389
0.10647 0.30773 0.26135
0.10648 0.30949 0.25897
0.10636 0.31148 0.25679
0.10643 0.31348 0.25464
0.10699 0.31532 0.25242
0.10769 0.31698 0.25011
0.10852 0.31887 0.24801
0.10926 0.32055 0.24572
0.10975 0.32249 0.24357
0.11011 0.32464 0.2416
0.11062 0.32679 0.23967
0.11064 0.32873 0.23748
0.11053 0.33051 0.23514
0.11059 0.33236 0.23287
0.11065 0.33408 0.23049
0.11075 0.33555 0.22795
0.11118 0.33702 0.22544
0.11165 0.33838 0.22288
0.11201 0.34012 0.22053
0.11236 0.34172 0.2181
0.11318 0.34272 0.21544
0.11455 0.34391 0.21316
0.11483 0.34554 0.21074
0.11456 0.34697 0.20819
0.11459 0.34801 0.20544
0.1149 0.3486 0.20258
0.11473 0.34852 0.19955
0.11496 0.34959 0.19675
0.10554 0.29787 0.28272
0.10552 0.29985 0.28055
0.1049 0.30101 0.27793
0.10431 0.30176 0.27509
0.10453 0.30309 0.27243
0.10476 0.30433 0.26978
0.10469 0.30559 0.26711
0.10454 0.30708 0.26457
0.10458 0.30865 0.26206
0.10457 0.31041 0.25968
0.10452 0.31251 0.2576
0.10459 0.31453 0.25546
0.10512 0.31633 0.2532
0.10579 0.31796 0.25086
0.10652 0.31976 0.24865
0.10728 0.32148 0.24639
0.10764 0.32322 0.24405
0.10795 0.32534 0.24202
0.10845 0.3275 0.24009
0.10851 0.32954 0.23798
0.1085 0.3315 0.2358
0.10866 0.33351 0.23364
0.10856 0.33503 0.23111
0.10857 0.33636 0.22849
0.10885 0.33754 0.22581
0.10931 0.33891 0.22323
0.10965 0.34065 0.22088
0.11007 0.34247 0.2186
0.11094 0.34361 0.21602
0.1122 0.34456 0.21357
0.11239 0.34596 0.21101
0.11212 0.34742 0.20848
0.11214 0.34848 0.20574
0.11243 0.34903 0.20286
0.1125 0.34959 0.19994
0.11276 0.35079 0.19724
0.10371 0.29882 0.28336
0.10397 0.30118 0.28146
0.10333 0.30233 0.27872
0.10254 0.30273 0.27581
0.10264 0.30394 0.27307
0.10294 0.30533 0.27048
0.10277 0.30644 0.26774
0.10261 0.30793 0.26519
0.10264 0.30952 0.26268
0.10266 0.31137 0.26036
0.10262 0.31349 0.2583
0.10274 0.31556 0.25621
0.10315 0.31724 0.25384
0.10382 0.31888 0.25149
0.10441 0.32049 0.2491
0.10506 0.32198 0.24664
0.10542 0.32368 0.24425
0.10573 0.32587 0.24228
0.10619 0.32799 0.24029
0.10631 0.33024 0.23839
0.10648 0.33253 0.23652
0.10658 0.33449 0.23428
0.10642 0.33593 0.23168
0.10638 0.3372 0.22902
0.10653 0.33808 0.2262
0.10695 0.3394 0.22357
0.10732 0.34127 0.22131
0.10776 0.34317 0.21909
0.10862 0.34434 0.2165
0.10981 0.3451 0.21394
0.10994 0.34625 0.21124
0.10965 0.34771 0.20869
0.10966 0.3488 0.20596
0.10994 0.34937 0.20306
0.11017 0.35048 0.20031
0.11058 0.35192 0.19776
0.1019 0.30186 0.2819
0.10129 0.30296 0.27917
0.10067 0.30355 0.2763
0.10075 0.30478 0.27359
0.1009 0.30593 0.27087
0.10079 0.30721 0.2682
0.10061 0.30872 0.26564
0.10064 0.31035 0.26315
0.10075 0.31235 0.26094
0.10067 0.31444 0.25886
0.10063 0.31629 0.25656
0.1011 0.31807 0.25426
0.10169 0.31958 0.25181
0.1022 0.32099 0.24927
0.10281 0.32239 0.24674
0.10315 0.3241 0.24433
0.10342 0.32614 0.24218
0.10388 0.32824 0.24014
0.10401 0.33064 0.23839
0.10416 0.33304 0.23667
0.10428 0.33518 0.23457
0.10414 0.33662 0.23196
0.10403 0.33768 0.22919
0.10423 0.33876 0.22645
0.10464 0.34011 0.22384
0.10501 0.34202 0.2216
0.10539 0.34385 0.21929
0.10621 0.34488 0.21662
0.10738 0.34557 0.21402
0.1075 0.34669 0.21129
0.10717 0.34792 0.20863
0.10715 0.34888 0.20583
0.10753 0.35011 0.20317
0.10789 0.35153 0.20059
0.10835 0.35306 0.19808
0.09977 0.30225 0.28229
0.09917 0.30321 0.27953
0.09864 0.30397 0.27669
0.09868 0.30518 0.27397
0.09882 0.30641 0.27127
0.09877 0.30788 0.26869
0.0986 0.30945 0.26618
0.09862 0.31108 0.26367
0.0987 0.31304 0.26143
0.09861 0.31516 0.25937
0.09854 0.31699 0.25704
0.09897 0.31872 0.25469
0.09952 0.32013 0.25217
0.09994 0.32133 0.2495
0.10054 0.32272 0.24693
0.10088 0.3245 0.24456
0.10113 0.3265 0.24237
0.10156 0.32851 0.24021
0.10168 0.33084 0.23837
0.10181 0.33313 0.23651
0.10188 0.33531 0.23448
0.10175 0.33671 0.23186
0.10165 0.33798 0.22919
0.10191 0.33939 0.22659
0.10233 0.34081 0.22403
0.10263 0.34265 0.22172
0.10294 0.34425 0.21923
0.10381 0.34547 0.21665
0.10496 0.3461 0.21401
0.10503 0.34694 0.21118
0.10467 0.34798 0.20841
0.10469 0.34943 0.20582
0.10516 0.35095 0.20331
0.10555 0.35244 0.20077
0.10613 0.35417 0.19843
0.09705 0.30309 0.27985
0.09761 0.30203 0.28256
0.09652 0.30396 0.27704
0.09655 0.30534 0.27438
0.09676 0.30689 0.27185
0.09672 0.3084 0.26931
0.09654 0.30994 0.26677
0.09654 0.31158 0.26428
0.09655 0.31344 0.26194
0.0965 0.31568 0.25996
0.09648 0.31761 0.25772
0.09682 0.31918 0.25523
0.09735 0.32061 0.25272
0.09773 0.32175 0.25
0.09831 0.32313 0.24742
0.09868 0.32497 0.2451
0.09888 0.32685 0.24281
0.09928 0.32885 0.24064
0.09939 0.33115 0.23876
0.09946 0.33324 0.23668
0.09951 0.33512 0.2344
0.09936 0.33665 0.23187
0.09928 0.33828 0.22939
0.09952 0.33966 0.22678
0.09993 0.34105 0.22419
0.10017 0.34257 0.22166
0.10047 0.34422 0.21921
0.10134 0.34576 0.21679
0.10252 0.34643 0.21416
0.10254 0.34714 0.21127
0.10219 0.34842 0.20858
0.10224 0.34999 0.20605
0.10275 0.35163 0.20362
0.10321 0.35324 0.20117
0.10377 0.35495 0.19882
0.09551 0.30153 0.2824
0.09491 0.30278 0.27978
0.09434 0.30413 0.27718
0.09441 0.30576 0.27468
0.09468 0.30744 0.27225
0.09469 0.30909 0.26979
0.09446 0.31057 0.26721
0.09448 0.31229 0.26477
0.0945 0.31419 0.26248
0.09429 0.31605 0.26018
0.09424 0.31793 0.25789
0.09463 0.3197 0.25554
0.0952 0.32124 0.2531
0.0956 0.32247 0.25043
0.09616 0.32382 0.24783
0.0965 0.32559 0.24546
0.09665 0.32739 0.24309
0.09702 0.32935 0.24087
0.09711 0.33162 0.23895
0.09717 0.33376 0.23691
0.09725 0.33576 0.23469
0.09699 0.33694 0.23195
0.09692 0.33861 0.22949
0.09711 0.33978 0.22676
0.0975 0.34104 0.2241
0.09773 0.34249 0.22152
0.09803 0.34401 0.21898
0.09887 0.34549 0.21655
0.10005 0.34657 0.21408
0.10016 0.34785 0.2114
0.09996 0.34955 0.20897
0.09989 0.35089 0.20631
0.10042 0.35255 0.20389
0.10088 0.35419 0.20145
0.10136 0.35567 0.19893
0.09344 0.30105 0.28188
0.09274 0.30263 0.27943
0.09222 0.30462 0.27725
0.09238 0.30652 0.27498
0.09266 0.30825 0.27257
0.09267 0.30988 0.27009
0.09243 0.31137 0.26751
0.09245 0.3131 0.26507
0.09244 0.31499 0.26277
0.09213 0.31662 0.2603
0.09204 0.31846 0.25794
0.09248 0.3204 0.25572
0.09307 0.32202 0.25332
0.09346 0.32325 0.25064
0.09401 0.32458 0.24803
0.09426 0.32614 0.24549
0.09443 0.32801 0.24315
0.09483 0.33012 0.24108
0.09488 0.3323 0.23905
0.09496 0.33454 0.23708
0.09506 0.33663 0.23488
0.0947 0.33761 0.23204
0.09454 0.33892 0.22937
0.09475 0.34037 0.22676
0.09508 0.34101 0.22383
0.09531 0.34242 0.2212
0.09562 0.34385 0.2186
0.09646 0.34524 0.21611
0.0976 0.34666 0.21377
0.09777 0.34849 0.21141
0.0977 0.35059 0.20928
0.09779 0.35221 0.20679
0.09814 0.35359 0.20418
0.09853 0.35509 0.20163
0.09894 0.35643 0.19902
0.09124 0.30104 0.28156
0.09055 0.30297 0.27935
0.09008 0.30501 0.27723
0.09033 0.30723 0.27522
0.09056 0.30879 0.27268
0.09055 0.31045 0.27021
0.09034 0.31203 0.26768
0.09034 0.31375 0.26523
0.09023 0.31532 0.2627
0.0899 0.317 0.26023
0.08986 0.31906 0.25802
0.09031 0.32103 0.25583
0.09093 0.32277 0.25351
0.09134 0.32409 0.25087
0.09181 0.32526 0.24816
0.09201 0.32671 0.24553
0.09219 0.32861 0.2432
0.09259 0.33069 0.24107
0.09264 0.33296 0.23913
0.09268 0.33514 0.23709
0.09279 0.33739 0.235
0.09247 0.33847 0.23216
0.09217 0.33928 0.22931
0.09234 0.34053 0.22659
0.09267 0.34112 0.22365
0.0929 0.34211 0.22082
0.09321 0.3435 0.21818
0.09404 0.34483 0.21561
0.09514 0.34667 0.2135
0.0953 0.34867 0.21127
0.09519 0.35083 0.20921
0.09536 0.35281 0.20701
0.09583 0.35449 0.20461
0.09627 0.3561 0.20213
0.08906 0.30142 0.28154
0.0884 0.3034 0.27939
0.08794 0.30547 0.27728
0.08814 0.30738 0.275
0.08842 0.30923 0.27267
0.08843 0.31104 0.27029
0.08828 0.31283 0.26791
0.08818 0.31431 0.26531
0.08804 0.31584 0.26274
0.08771 0.31758 0.26028
0.08765 0.31954 0.258
0.08811 0.3216 0.25586
0.08877 0.32348 0.25364
0.08927 0.32502 0.25113
0.0897 0.32615 0.2484
0.08989 0.32759 0.24577
0.08998 0.32924 0.24326
0.09032 0.33112 0.24093
0.09035 0.33321 0.23878
0.09034 0.3356 0.23697
0.09034 0.33799 0.23493
0.09009 0.33881 0.23194
0.08981 0.3396 0.22907
0.08995 0.34063 0.22626
0.09024 0.34116 0.22331
0.09044 0.34233 0.22053
0.09072 0.34361 0.2178
0.09154 0.34516 0.21533
0.09268 0.34699 0.21323
0.09286 0.34916 0.21113
0.09279 0.35149 0.20925
0.09306 0.35376 0.20734
0.09365 0.35566 0.2051
0.09427 0.35751 0.20282
0.08693 0.30191 0.28171
0.08631 0.30399 0.27965
0.08582 0.30599 0.27749
0.08598 0.30781 0.27512
0.08626 0.30964 0.27275
0.0863 0.31153 0.27043
0.08621 0.31354 0.2682
0.08606 0.31494 0.26555
0.08587 0.31639 0.26292
0.08553 0.31813 0.26047
0.08544 0.32002 0.25812
0.08588 0.32201 0.25589
0.08656 0.32402 0.25379
0.08714 0.32583 0.25146
0.08758 0.32694 0.2487
0.08767 0.32812 0.24594
0.08771 0.3296 0.24332
0.08802 0.33122 0.24081
0.08807 0.33301 0.23838
0.08811 0.33516 0.23627
0.08811 0.33721 0.23407
0.08774 0.3387 0.23149
0.08746 0.33996 0.22878
0.08759 0.34101 0.22597
0.08784 0.34161 0.223
0.08808 0.343 0.22032
0.08839 0.34452 0.21774
0.08917 0.34599 0.21522
0.0903 0.34769 0.213
0.0905 0.34996 0.21102
0.0905 0.35249 0.20938
0.09093 0.35499 0.20779
0.09174 0.35717 0.20583
0.09205 0.35865 0.20319
0.08485 0.30238 0.2821
0.08426 0.30456 0.28013
0.08374 0.30653 0.27795
0.08387 0.30828 0.27552
0.08412 0.31004 0.27309
0.08415 0.31191 0.27073
0.08408 0.31401 0.26859
0.08397 0.31555 0.26603
0.0837 0.31679 0.26329
0.08335 0.3185 0.26082
0.08321 0.32029 0.25838
0.08364 0.32229 0.25615
0.0843 0.3242 0.25396
0.08485 0.32598 0.25162
0.08534 0.32728 0.24897
0.0854 0.32833 0.24615
0.08541 0.3296 0.24342
0.08571 0.33099 0.24077
0.08582 0.33245 0.23814
0.08599 0.33428 0.23574
0.08601 0.33625 0.23348
0.08544 0.33811 0.23119
0.08506 0.33989 0.2288
0.08521 0.34138 0.22618
0.08547 0.34217 0.22326
0.0857 0.34352 0.22055
0.08609 0.34531 0.21815
0.08685 0.34673 0.21561
0.08788 0.34823 0.21322
0.08808 0.35047 0.21118
0.08812 0.35312 0.20973
0.08866 0.35582 0.2085
0.08954 0.35816 0.20669
0.08982 0.35962 0.20396
0.08277 0.30278 0.28254
0.08223 0.30507 0.28068
0.08173 0.3071 0.27857
0.08174 0.30862 0.27597
0.082 0.31041 0.27354
0.08205 0.31233 0.27123
0.08192 0.31425 0.26894
0.08188 0.31613 0.26658
0.08153 0.31706 0.26369
0.08114 0.31868 0.26116
0.08098 0.32047 0.2587
0.08141 0.32251 0.25652
0.08206 0.32439 0.25429
0.08257 0.32589 0.25175
0.08305 0.32725 0.24912
0.08312 0.32836 0.24633
0.08311 0.32943 0.24352
0.08342 0.33062 0.24078
0.08357 0.33183 0.23801
0.08379 0.33343 0.23544
0.08381 0.33543 0.23317
0.08316 0.33745 0.23104
0.08269 0.33959 0.22897
0.08284 0.34145 0.2266
0.08316 0.34264 0.22384
0.08335 0.34391 0.22111
0.08367 0.34551 0.21856
0.08447 0.34709 0.21613
0.08552 0.34868 0.21381
0.08566 0.35073 0.2116
0.08568 0.35331 0.21002
0.08616 0.35607 0.2089
0.08706 0.35875 0.20747
0.08736 0.36 0.20456
0.0874 0.3603 0.20151
0.08072 0.30321 0.28307
0.08023 0.30561 0.28133
0.07978 0.30778 0.27933
0.07971 0.30922 0.27672
0.0799 0.31074 0.27411
0.07995 0.31264 0.27177
0.07976 0.31435 0.26932
0.07967 0.31614 0.26691
0.07936 0.31726 0.26413
0.07891 0.3187 0.2615
0.07876 0.32053 0.25907
0.07918 0.32258 0.25689
0.07984 0.32462 0.25479
0.0803 0.32573 0.25203
0.0808 0.32686 0.2493
0.08084 0.32811 0.24657
0.08084 0.32909 0.24373
0.08115 0.33015 0.24093
0.08128 0.33131 0.23814
0.0815 0.33277 0.23549
0.08151 0.33476 0.23319
0.08083 0.33698 0.23127
0.08035 0.33922 0.22932
0.08049 0.34141 0.22723
0.08088 0.34293 0.22463
0.08106 0.34422 0.22191
0.08132 0.34562 0.21926
0.08209 0.3471 0.21675
0.08312 0.34863 0.21438
0.08325 0.35062 0.21212
0.08324 0.35297 0.21022
0.08368 0.35562 0.20884
0.08443 0.35836 0.20759
0.08483 0.35985 0.20488
0.08495 0.36062 0.20196
0.07863 0.30366 0.28353
0.07824 0.30623 0.282
0.07819 0.30883 0.28045
0.07815 0.31041 0.27787
0.07789 0.31108 0.27486
0.07785 0.31268 0.27228
0.07764 0.3145 0.26989
0.07747 0.31586 0.26722
0.07716 0.31721 0.26456
0.07671 0.31873 0.26198
0.07653 0.32043 0.25947
0.07696 0.32256 0.25734
0.07761 0.32463 0.25528
0.07809 0.32604 0.25265
0.07857 0.32641 0.24967
0.07863 0.3275 0.24685
0.07861 0.32854 0.24403
0.07888 0.32973 0.24129
0.07898 0.33092 0.23851
0.07917 0.33242 0.23589
0.07919 0.33444 0.23364
0.07852 0.33657 0.23163
0.07803 0.33863 0.2295
0.07813 0.34081 0.22743
0.07854 0.34294 0.22532
0.07874 0.34436 0.22266
0.07896 0.34562 0.21993
0.07971 0.34707 0.2174
0.08073 0.34856 0.21501
0.08084 0.35042 0.21265
0.0808 0.35248 0.21045
0.08129 0.35486 0.20866
0.08211 0.35724 0.20706
0.08234 0.35941 0.20498
0.08247 0.36085 0.20235
0.07666 0.3044 0.28423
0.07651 0.30714 0.28297
0.07655 0.30998 0.28158
0.07633 0.31163 0.27882
0.07589 0.31129 0.27558
0.07576 0.31241 0.27271
0.07551 0.31418 0.27024
0.07532 0.31586 0.26776
0.07499 0.31726 0.26512
0.0745 0.31875 0.26254
0.0743 0.3204 0.26
0.07472 0.32237 0.25772
0.07537 0.32436 0.25558
0.07583 0.32601 0.25307
0.0763 0.32623 0.25005
0.07637 0.32703 0.24712
0.07633 0.32818 0.24432
0.07659 0.32939 0.24157
0.07667 0.33077 0.23888
0.07685 0.33244 0.23636
0.0769 0.33459 0.23423
0.07616 0.33631 0.23187
0.07569 0.3381 0.22949
0.07577 0.34029 0.22742
0.07613 0.34257 0.22548
0.07634 0.34446 0.22313
0.07655 0.34557 0.22033
0.07728 0.34702 0.21778
0.0783 0.34864 0.21548
0.07839 0.35044 0.21307
0.07833 0.35224 0.21065
0.07881 0.35444 0.20864
0.07965 0.3567 0.20686
0.07987 0.35891 0.20484
0.07995 0.36079 0.20251
0.07509 0.30544 0.28536
0.0748 0.30813 0.28396
0.07425 0.31036 0.28182
0.07397 0.31133 0.27887
0.07376 0.31149 0.27581
0.0736 0.31219 0.27283
0.07333 0.3138 0.27023
0.07312 0.31553 0.26776
0.07279 0.31728 0.26532
0.07235 0.31923 0.26306
0.0721 0.32078 0.26048
0.07245 0.32247 0.25799
0.07309 0.32426 0.25567
0.07356 0.32574 0.25309
0.07399 0.32621 0.25013
0.07404 0.32695 0.24718
0.074 0.32815 0.24439
0.07426 0.32944 0.24167
0.07434 0.33091 0.23901
0.07455 0.33276 0.23662
0.07454 0.33487 0.23445
0.07379 0.33622 0.23183
0.07328 0.33801 0.22944
0.07336 0.34019 0.22734
0.07371 0.34242 0.22534
0.07386 0.34444 0.22307
0.07412 0.3454 0.22016
0.07482 0.34691 0.21763
0.07583 0.34867 0.21541
0.07592 0.3504 0.21294
0.07584 0.35229 0.21059
0.0763 0.3545 0.20857
0.07713 0.35687 0.20691
0.07737 0.35925 0.20505
0.07744 0.36102 0.20259
0.07261 0.30855 0.28434
0.07205 0.30982 0.28158
0.07184 0.31068 0.27867
0.0716 0.31125 0.27572
0.07142 0.31195 0.27273
0.07111 0.31362 0.27017
0.07089 0.31533 0.26767
0.07056 0.31724 0.26534
0.0701 0.31926 0.26314
0.06991 0.32115 0.2608
0.07023 0.32287 0.25834
0.07081 0.32443 0.25585
0.07128 0.32578 0.2532
0.07171 0.32657 0.25033
0.07173 0.32726 0.24738
0.07167 0.32828 0.24452
0.07193 0.32953 0.24177
0.07201 0.3309 0.23905
0.07221 0.33263 0.23655
0.07218 0.33452 0.2342
0.0714 0.33618 0.2318
0.07088 0.3381 0.22952
0.07094 0.34018 0.22733
0.07132 0.3421 0.22502
0.07149 0.34393 0.22263
0.07164 0.34551 0.22007
0.07234 0.34694 0.21749
0.07337 0.34854 0.21516
0.07345 0.35033 0.21272
0.07336 0.35236 0.21048
0.07381 0.35455 0.20845
0.07461 0.35707 0.20696
0.07483 0.35942 0.20503
0.07491 0.36122 0.20259
0.07045 0.30816 0.28396
0.07003 0.30913 0.28111
0.06985 0.30992 0.2782
0.06955 0.31054 0.27522
0.0692 0.31201 0.27254
0.06889 0.31378 0.27008
0.06865 0.31548 0.26757
0.06831 0.31742 0.26527
0.06785 0.31939 0.26301
0.06767 0.32141 0.26076
0.06801 0.32328 0.25842
0.06859 0.32491 0.25598
0.06906 0.32631 0.25334
0.06946 0.32706 0.25045
0.06947 0.32779 0.24751
0.06937 0.32869 0.24461
0.0696 0.3298 0.24178
0.06965 0.33107 0.23901
0.06985 0.33272 0.23646
0.06981 0.33462 0.23409
0.06901 0.33638 0.23176
0.06849 0.33831 0.2295
0.06854 0.34016 0.22711
0.06892 0.34189 0.22466
0.06907 0.34377 0.22229
0.06918 0.34584 0.22007
0.06989 0.34737 0.21754
0.07089 0.34864 0.21499
0.07097 0.35042 0.21252
0.07089 0.35239 0.21021
0.07134 0.35454 0.20812
0.07212 0.35703 0.20656
0.07234 0.35927 0.20453
0.07246 0.36089 0.20193
0.06842 0.30761 0.28343
0.06807 0.3084 0.28052
0.06789 0.3091 0.27755
0.06735 0.31042 0.27482
0.067 0.31229 0.27242
0.0667 0.31408 0.26999
0.06643 0.31582 0.26751
0.06607 0.31775 0.2652
0.0656 0.31967 0.2629
0.06542 0.32165 0.26061
0.06578 0.32365 0.25836
0.06638 0.32543 0.25601
0.06685 0.32688 0.25341
0.06726 0.3277 0.25053
0.06728 0.32854 0.24762
0.06716 0.32946 0.24472
0.06735 0.3305 0.24187
0.06736 0.3317 0.23907
0.06752 0.33323 0.23644
0.06746 0.33498 0.23396
0.06667 0.33686 0.23173
0.06611 0.33866 0.22937
0.06614 0.34033 0.22684
0.0665 0.34206 0.22438
0.06665 0.34382 0.22192
0.06681 0.34549 0.21939
0.06745 0.34742 0.21714
0.06847 0.34919 0.21495
0.06851 0.35063 0.21226
0.06842 0.35249 0.20985
0.06886 0.35457 0.20767
0.06968 0.35691 0.2059
0.06988 0.35932 0.20405
0.06995 0.361 0.20147
0.06684 0.30589 0.28568
0.06643 0.30696 0.28287
0.06615 0.30752 0.27986
0.06568 0.30901 0.2772
0.06515 0.3107 0.27472
0.06481 0.31247 0.27227
0.0645 0.31436 0.26991
0.06423 0.31618 0.26748
0.06387 0.31822 0.26526
0.06338 0.32014 0.26297
0.06317 0.32201 0.26058
0.06352 0.32393 0.25826
0.06414 0.32583 0.25599
0.06463 0.32743 0.25348
0.06511 0.32851 0.25069
0.06515 0.3294 0.24779
0.06505 0.33041 0.24493
0.0652 0.33139 0.24205
0.0652 0.33262 0.23926
0.06532 0.33407 0.23659
0.06518 0.33568 0.23402
0.06435 0.33748 0.23173
0.06378 0.33922 0.22933
0.06376 0.34073 0.2267
0.0641 0.34216 0.22405
0.06428 0.34352 0.22132
0.06438 0.34544 0.21893
0.065 0.3477 0.21698
0.06602 0.34969 0.21491
0.06606 0.35089 0.21207
0.06593 0.35275 0.20964
0.06636 0.35488 0.20752
0.06718 0.35707 0.20558
0.0674 0.35934 0.20358
0.06742 0.36124 0.20119
0.06479 0.30545 0.28519
0.0645 0.30614 0.28222
0.06399 0.30717 0.27935
0.06349 0.30903 0.27693
0.06297 0.31095 0.27464
0.06262 0.31275 0.27221
0.06231 0.31467 0.26988
0.06203 0.31654 0.26749
0.06169 0.31871 0.26538
0.0612 0.32069 0.26314
0.06094 0.32241 0.26065
0.06127 0.32425 0.25824
0.06189 0.32614 0.25596
0.0624 0.3279 0.25355
0.06292 0.32917 0.25086
0.063 0.33021 0.248
0.06294 0.33132 0.24518
0.06311 0.33239 0.24233
0.06311 0.33364 0.23956
0.06317 0.33501 0.23684
0.063 0.33661 0.23427
0.0621 0.33826 0.23191
0.06146 0.33984 0.22941
0.06137 0.3411 0.22666
0.06167 0.34227 0.22387
0.06182 0.34349 0.22105
0.06193 0.34542 0.21865
0.06255 0.34766 0.21667
0.06358 0.34933 0.21438
0.06359 0.35113 0.21192
0.06346 0.35312 0.20963
0.06388 0.35528 0.20754
0.06469 0.35743 0.20555
0.06491 0.35968 0.20353
0.06491 0.36178 0.20132
0.06279 0.30477 0.28469
0.06237 0.30564 0.28178
0.06176 0.30731 0.27925
0.0613 0.30923 0.27691
0.06079 0.31122 0.27468
0.06043 0.31302 0.27226
0.0601 0.31495 0.26993
0.05983 0.31689 0.2676
0.05946 0.31888 0.26534
0.05895 0.32085 0.26309
0.0587 0.32277 0.26075
0.05901 0.32455 0.25831
0.05961 0.32633 0.25593
0.06013 0.32818 0.25359
0.06072 0.32974 0.25107
0.06087 0.33102 0.24832
0.06082 0.33218 0.24552
0.061 0.33326 0.24268
0.06104 0.33464 0.23996
0.06121 0.33622 0.23736
0.06086 0.33753 0.23465
0.05989 0.33908 0.23224
0.05913 0.34037 0.22961
0.05899 0.34156 0.22682
0.05924 0.34256 0.22396
0.05935 0.34367 0.22109
0.05944 0.34543 0.21854
0.06008 0.34757 0.21646
0.06108 0.34935 0.21423
0.06111 0.35143 0.21202
0.061 0.35349 0.2098
0.06139 0.35558 0.20764
0.0622 0.35777 0.20568
0.06247 0.36021 0.20388
0.06256 0.36256 0.20198
0.06069 0.30419 0.2844
0.06014 0.30572 0.28181
0.05958 0.30754 0.27942
0.05913 0.3095 0.27713
0.05862 0.31147 0.27489
0.05827 0.31336 0.27254
0.05795 0.31535 0.27026
0.05764 0.3172 0.26787
0.05722 0.31909 0.26553
0.0567 0.32106 0.26327
0.05649 0.32316 0.26109
0.05678 0.32494 0.25865
0.05735 0.32662 0.2562
0.05786 0.3284 0.25379
0.05848 0.33012 0.25138
0.05875 0.33176 0.24884
0.05869 0.33292 0.24604
0.05885 0.33398 0.24319
0.0589 0.33537 0.24047
0.05921 0.33729 0.23808
0.05866 0.33816 0.23518
0.05759 0.33947 0.23266
0.05683 0.34087 0.23007
0.0567 0.34216 0.22734
0.05689 0.34308 0.22445
0.05693 0.34405 0.22154
0.05699 0.34571 0.21893
0.0576 0.34769 0.21667
0.05866 0.34976 0.21473
0.05874 0.35195 0.21262
0.05854 0.35378 0.2102
0.05892 0.35587 0.20802
0.05973 0.35808 0.20609
0.06001 0.36053 0.20431
0.06008 0.36285 0.20236
0.05849 0.30406 0.28438
0.05798 0.30592 0.28201
0.05746 0.30788 0.27974
0.05702 0.3099 0.27753
0.05646 0.3117 0.27515
0.05612 0.31367 0.27285
0.05578 0.31562 0.27055
0.05545 0.31745 0.26816
0.05502 0.31939 0.26586
0.05448 0.32133 0.26358
0.05427 0.32348 0.26143
0.0546 0.32541 0.25911
0.05513 0.32697 0.25657
0.05563 0.32877 0.25418
0.05621 0.33032 0.25164
0.05652 0.33218 0.24925
0.05653 0.33357 0.24654
0.05667 0.33457 0.24367
0.05672 0.33599 0.24098
0.05689 0.33772 0.23847
0.05639 0.33857 0.23557
0.05528 0.33991 0.23308
0.05455 0.3414 0.23053
0.0544 0.3427 0.22779
0.05466 0.34388 0.22501
0.0547 0.34498 0.22217
0.05462 0.34634 0.21942
0.0552 0.34824 0.21706
0.05625 0.35026 0.21505
0.05636 0.35251 0.21303
0.05616 0.35443 0.21068
0.05655 0.35652 0.20851
0.0573 0.35863 0.20645
0.05755 0.36103 0.20461
0.05759 0.36325 0.20255
0.05631 0.3042 0.28456
0.05584 0.30612 0.28225
0.05533 0.3081 0.28
0.05488 0.31012 0.27779
0.0543 0.31189 0.27538
0.05396 0.31394 0.27317
0.05359 0.31573 0.27075
0.05324 0.31757 0.26835
0.0528 0.31954 0.26608
0.05228 0.32164 0.26394
0.05202 0.32358 0.26163
0.05234 0.32545 0.25926
0.05289 0.32717 0.25683
0.05338 0.32903 0.25449
0.05395 0.33056 0.25193
0.05421 0.33212 0.24934
0.05422 0.3336 0.2467
0.0544 0.33493 0.24398
0.05443 0.33626 0.24125
0.05452 0.3377 0.23857
0.05413 0.33915 0.23595
0.05301 0.34049 0.23347
0.0522 0.34171 0.23081
0.05206 0.34313 0.22812
0.05251 0.3449 0.22565
0.05282 0.34642 0.22301
0.05248 0.3474 0.2201
0.05289 0.34905 0.21753
0.05402 0.35118 0.21566
0.05409 0.35337 0.21354
0.05387 0.3553 0.2112
0.05422 0.35734 0.20898
0.05491 0.35933 0.20679
0.05511 0.3616 0.20478
0.05512 0.36375 0.20265
0.05417 0.30441 0.28479
0.05369 0.30622 0.2824
0.05317 0.3081 0.28007
0.0527 0.30998 0.27772
0.05214 0.31212 0.27562
0.05178 0.31417 0.27342
0.05139 0.31595 0.271
0.05102 0.31775 0.26857
0.05057 0.31973 0.26629
0.05005 0.32189 0.26421
0.04977 0.32374 0.26184
0.05005 0.32542 0.25932
0.05062 0.32727 0.25699
0.05109 0.32904 0.25457
0.05166 0.33058 0.25203
0.0519 0.33221 0.24948
0.0519 0.33352 0.24674
0.05208 0.33502 0.24411
0.05212 0.33653 0.24147
0.05219 0.3379 0.23876
0.05178 0.3394 0.23615
0.05069 0.34089 0.23375
0.04982 0.34201 0.23106
0.04967 0.34341 0.22834
0.05009 0.34518 0.22585
0.05044 0.34703 0.22345
0.05035 0.34842 0.22073
0.05071 0.35003 0.21818
0.05167 0.35189 0.21599
0.05181 0.35421 0.21403
0.05179 0.35646 0.21199
0.05194 0.35822 0.20952
0.05251 0.36002 0.20713
0.05267 0.36222 0.20503
0.05266 0.36431 0.20285
0.05203 0.30448 0.285
0.05153 0.30629 0.28261
0.051 0.30808 0.28021
0.05052 0.31005 0.27792
0.04998 0.3123 0.27593
0.04965 0.31445 0.27382
0.04923 0.31623 0.2714
0.04883 0.31798 0.26895
0.04835 0.3199 0.26662
0.04782 0.32201 0.26451
0.04753 0.32392 0.26217
0.0478 0.3256 0.25966
0.04836 0.32739 0.25728
0.04881 0.32912 0.25483
0.04937 0.33069 0.2523
0.04962 0.3324 0.24982
0.04959 0.3337 0.24707
0.04977 0.3352 0.24443
0.04983 0.33684 0.24187
0.04988 0.33817 0.23914
0.04945 0.33963 0.23652
0.04835 0.34116 0.23414
0.04752 0.34254 0.23157
0.04732 0.34389 0.22884
0.04766 0.34538 0.22618
0.04798 0.34719 0.22374
0.04804 0.34903 0.22132
0.0485 0.35082 0.21891
0.04933 0.35248 0.21652
0.04952 0.35492 0.2147
0.04958 0.35736 0.21285
0.04967 0.35898 0.21024
0.05018 0.36075 0.20782
0.05029 0.36284 0.20562
0.05027 0.36492 0.20342
0.04988 0.30456 0.28522
0.04938 0.30635 0.28283
0.04883 0.30817 0.28045
0.04835 0.31013 0.27816
0.04781 0.31233 0.27613
0.04746 0.31442 0.27395
0.0471 0.3166 0.27187
0.04668 0.31838 0.26945
0.04615 0.32012 0.26701
0.04559 0.32211 0.26478
0.0453 0.3241 0.26251
0.04557 0.32587 0.26006
0.04611 0.32762 0.25766
0.04656 0.32933 0.2552
0.04711 0.33093 0.25268
0.04735 0.33259 0.25016
0.04735 0.33413 0.24756
0.04753 0.33564 0.24493
0.04754 0.33709 0.24226
0.04759 0.33849 0.23957
0.04716 0.34003 0.237
0.04606 0.3416 0.23465
0.04531 0.34326 0.23222
0.04512 0.34469 0.22955
0.04538 0.34606 0.22682
0.04565 0.34775 0.22429
0.04575 0.34969 0.22195
0.04619 0.35146 0.21953
0.04697 0.35304 0.21706
0.04706 0.35528 0.215
0.04699 0.35743 0.21284
0.04741 0.35978 0.21098
0.04796 0.36162 0.20864
0.04802 0.36367 0.20641
0.04797 0.36573 0.20418
0.04724 0.3065 0.28303
0.04668 0.3083 0.28064
0.04619 0.31028 0.27837
0.04563 0.31235 0.27622
0.04527 0.3143 0.27389
0.04491 0.3168 0.27215
0.04455 0.31883 0.26991
0.04398 0.32047 0.26741
0.04335 0.32221 0.26499
0.04304 0.32419 0.2627
0.04335 0.3262 0.26044
0.0439 0.32803 0.25811
0.04433 0.32972 0.25563
0.04486 0.33127 0.25308
0.04508 0.33286 0.2505
0.04512 0.33456 0.24799
0.04531 0.33617 0.24542
0.04527 0.33754 0.24272
0.04528 0.33885 0.23998
0.04485 0.34038 0.23739
0.04376 0.34209 0.23511
0.04315 0.34407 0.23288
0.04304 0.34569 0.23032
0.04321 0.34697 0.22757
0.0434 0.34854 0.22495
0.04347 0.3504 0.22254
0.0439 0.35218 0.22011
0.04471 0.35384 0.21771
0.04467 0.35586 0.21543
0.04462 0.35814 0.21338
0.04512 0.36056 0.21161
0.04576 0.36255 0.20943
0.04587 0.3647 0.20727
0.04627 0.36715 0.20548
0.04509 0.30652 0.28304
0.04453 0.30835 0.28066
0.04403 0.31047 0.27853
0.04345 0.31236 0.27623
0.04308 0.31429 0.27387
0.0427 0.31671 0.27203
0.04233 0.31905 0.2701
0.04176 0.32059 0.26751
0.0411 0.32235 0.2651
0.04079 0.32447 0.26291
0.04118 0.32675 0.26092
0.04172 0.32857 0.25857
0.04215 0.33028 0.25613
0.0426 0.33165 0.25346
0.04283 0.33325 0.25088
0.04285 0.33492 0.24832
0.04311 0.33676 0.24592
0.04315 0.33834 0.24333
0.04312 0.33962 0.24058
0.0426 0.34099 0.23791
0.04149 0.3427 0.23562
0.04095 0.34483 0.23347
0.04124 0.34701 0.23132
0.04146 0.34837 0.22859
0.04141 0.34968 0.22584
0.04123 0.35119 0.2232
0.04159 0.35285 0.22067
0.04245 0.35462 0.21834
0.04257 0.3569 0.21632
0.04254 0.3592 0.21434
0.04285 0.36138 0.21226
0.04352 0.36346 0.21015
0.04396 0.36592 0.2084
0.04453 0.36854 0.20682
0.04418 0.37076 0.20462
0.04294 0.30642 0.28295
0.04237 0.30835 0.28065
0.04186 0.31042 0.27849
0.04126 0.31221 0.2761
0.04087 0.31429 0.27388
0.04049 0.31663 0.27196
0.0401 0.31884 0.26992
0.03952 0.32062 0.26753
0.03886 0.32263 0.26532
0.0386 0.32491 0.2633
0.03907 0.32734 0.26152
0.03974 0.32939 0.25938
0.04007 0.33095 0.25679
0.04054 0.33242 0.25419
0.04064 0.33375 0.25145
0.04065 0.33539 0.24886
0.04095 0.33732 0.24652
0.04111 0.33918 0.24413
0.04103 0.34042 0.24136
0.04047 0.34175 0.23869
0.03938 0.34352 0.23644
0.03878 0.34556 0.23422
0.03905 0.34773 0.23207
0.03953 0.3495 0.22961
0.03937 0.35066 0.22677
0.03901 0.35188 0.22399
0.03935 0.35353 0.22145
0.04015 0.35521 0.21904
0.0403 0.35754 0.21708
0.0402 0.35973 0.21496
0.04054 0.36199 0.21297
0.04141 0.36432 0.21121
0.04207 0.367 0.2098
0.04217 0.36928 0.20769
0.04162 0.37113 0.20526
0.04078 0.30624 0.28278
0.04019 0.30824 0.28055
0.03968 0.31029 0.27836
0.03906 0.31229 0.27615
0.03866 0.31443 0.27401
0.03826 0.31662 0.27193
0.03786 0.31876 0.26982
0.03725 0.32071 0.26758
0.03663 0.32287 0.26551
0.03639 0.32521 0.26356
0.03684 0.32765 0.26179
0.03756 0.32993 0.2599
0.03797 0.33164 0.2574
0.03844 0.33314 0.25479
0.03848 0.33429 0.25195
0.03843 0.33582 0.2493
0.03873 0.3378 0.24698
0.03914 0.34019 0.24504
0.03918 0.34157 0.24227
0.03849 0.34274 0.23954
0.03745 0.3446 0.23737
0.03672 0.34644 0.23506
0.03679 0.34834 0.23267
0.0372 0.35001 0.23017
0.0371 0.35132 0.22743
0.03681 0.35271 0.22473
0.03709 0.35429 0.22213
0.03792 0.35602 0.21976
0.03797 0.3582 0.21764
0.03789 0.36043 0.21557
0.03818 0.36261 0.21347
0.03912 0.36508 0.21192
0.03966 0.36778 0.21048
0.03962 0.36973 0.20802
0.03903 0.37098 0.20527
0.0386 0.30626 0.28275
0.03802 0.30834 0.28058
0.03749 0.31039 0.27838
0.03688 0.31257 0.27634
0.03649 0.31476 0.27425
0.03608 0.31697 0.2722
0.03568 0.3192 0.27016
0.03506 0.32109 0.26786
0.03439 0.32307 0.26562
0.03415 0.32536 0.26362
0.03457 0.32783 0.26186
0.03526 0.32989 0.25974
0.0357 0.33157 0.25724
0.03614 0.33326 0.25475
0.03624 0.33469 0.25206
0.03619 0.33628 0.24944
0.03647 0.33828 0.24714
0.03678 0.34054 0.2451
0.03699 0.34236 0.24265
0.03643 0.34376 0.24001
0.03532 0.34556 0.23783
0.0346 0.34743 0.23555
0.03465 0.34933 0.23317
0.03501 0.35096 0.23061
0.03497 0.35241 0.22794
0.03465 0.35379 0.22522
0.03497 0.35545 0.22267
0.0357 0.35705 0.22019
0.03579 0.35929 0.21811
0.03562 0.3614 0.21592
0.03587 0.36352 0.21374
0.03676 0.36602 0.21219
0.03713 0.36844 0.21025
0.03712 0.36986 0.20747
0.03655 0.371 0.20468
0.03644 0.30643 0.28286
0.03584 0.3084 0.28059
0.03531 0.31052 0.27845
0.03472 0.31284 0.27655
0.03435 0.31514 0.27457
0.0339 0.31722 0.27238
0.03347 0.31947 0.27035
0.03284 0.3213 0.26798
0.03215 0.32317 0.26566
0.03189 0.32532 0.26349
0.03232 0.3277 0.26161
0.033 0.32976 0.25949
0.03346 0.33124 0.25684
0.03386 0.33317 0.2545
0.03395 0.33493 0.25201
0.03391 0.33665 0.24948
0.03418 0.33863 0.24715
0.03445 0.3408 0.24501
0.03467 0.34282 0.24272
0.03416 0.34439 0.24015
0.03299 0.34602 0.23785
0.03229 0.34801 0.23566
0.03238 0.35013 0.23346
0.03275 0.35182 0.23093
0.03272 0.35331 0.22827
0.03256 0.355 0.22572
0.03303 0.35684 0.22332
0.03364 0.35832 0.22073
0.03359 0.36038 0.21847
0.03334 0.36235 0.21616
0.03428 0.36639 0.21173
0.03427 0.30626 0.28278
0.03366 0.30842 0.28066
0.03315 0.31071 0.27868
0.03256 0.31304 0.27679
0.03217 0.31531 0.27478
0.03169 0.31726 0.27248
0.03123 0.31922 0.27018
0.03059 0.32119 0.26793
0.02989 0.32312 0.26565
0.02961 0.32529 0.26351
0.03006 0.32748 0.26141
0.03076 0.32939 0.25918
0.03117 0.33106 0.25664
0.03157 0.33304 0.25432
0.03166 0.33522 0.25217
0.03163 0.33695 0.24965
0.03186 0.33876 0.24717
0.03212 0.3409 0.24498
0.03232 0.34285 0.24265
0.0318 0.34456 0.24017
0.03209 0.30631 0.28294
0.0315 0.30855 0.28089
0.03098 0.31085 0.27892
0.03039 0.31315 0.277
0.02998 0.31535 0.27491
0.02948 0.31722 0.27253
0.029 0.31924 0.27029
0.02834 0.32115 0.26798
0.02763 0.32328 0.26588
0.02733 0.32536 0.26366
0.02778 0.32744 0.26145
0.02849 0.32921 0.25908
0.02888 0.33107 0.25668
0.02928 0.33296 0.25429
0.02935 0.33524 0.25221
0.02956 0.33894 0.24733
0.02993 0.30651 0.28305
0.02936 0.30879 0.28104
0.02883 0.31105 0.27903
0.02822 0.31335 0.2771
0.02777 0.31533 0.2748
0.02728 0.31748 0.27266
0.02678 0.31944 0.27036
0.0278 0.30687 0.2832
0.02721 0.30902 0.28107
0.02667 0.31124 0.27901
0.02605 0.31364 0.2772
0.02561 0.31575 0.27501
0.02566 0.30713 0.28337
0.02504 0.30908 0.28107
0.0245 0.31121 0.2789
POLYGONS 2873 11492
3 0 1 2
3 1 3 2
3 2 3 4
3 3 5 4
3 4 5 6
3 5 7 6
3 5 8 7
3 8 9 7
3 7 9 10
3 9 11 10
3 10 11 12
3 11 13 12
3 12 13 14
3 13 15 14
3 14 15 16
3 15 17 16
3 16 17 18
3 17 19 18
3 18 19 20
3 19 21 20
3 20 21 22
3 21 23 22
3 21 24 23
3 24 25 23
3 24 26 25
3 26 27 25
3 28 0 29
3 29 0 30
3 0 2 30
3 30 2 31
3 2 4 31
3 31 4 32
3 4 33 32
3 4 6 33
3 6 34 33
3 6 7 34
3 7 10 34
3 34 10 35
3 10 12 35
3 35 12 36
3 12 14 36
3 36 14 37
3 14 16 37
3 37 16 38
3 16 18 38
3 38 18 39
3 18 20 39
3 39 20 40
3 20 41 40
3 20 22 41
3 22 42 41
3 22 23 42
3 23 43 42
3 23 25 43
3 25 44 43
3 25 27 44
3 27 45 44
3 27 46 45
3 46 47 45
3 45 47 48
3 47 49 48
3 48 49 50
3 49 51 50
3 50 51 52
3 51 53 52
3 52 53 54
3 53 55 54
3 54 55 56
3 55 57 56
3 56 57 58
3 57 59 58
3 58 59 60
3 59 61 60
3 59 62 61
3 62 63 61
3 61 63 64
3 29 30 65
3 65 30 66
3 30 31 66
3 66 31 67
3 31 32 67
3 67 32 68
3 32 69 68
3 32 33 69
3 33 70 69
3 33 34 70
3 34 71 70
3 34 35 71
3 35 36 71
3 71 36 72
3 36 37 72
3 72 37 73
3 37 38 73
3 73 38 74
3 38 39 74
3 74 39 75
3 39 40 75
3 75 40 76
3 40 77 76
3 40 41 77
3 41 78 77
3 41 42 78
3 42 79 78
3 42 43 79
3 43 80 79
3 43 44 80
3 44 81 80
3 44 45 81
3 45 48 81
3 81 48 82
3 48 50 82
3 82 50 83
3 50 52 83
3 83 52 84
3 52 54 84
3 84 54 85
3 54 56 85
3 85 56 86
3 56 58 86
3 86 58 87
3 58 88 87
3 58 60 88
3 60 89 88
3 60 61 89
3 61 90 89
3 61 64 90
3 64 91 90
3 90 91 92
3 91 93 92
3 92 93 94
3 93 95 94
3 93 96 95
3 96 97 95
3 98 99 100
3 99 101 100
3 100 101 102
3 101 103 102
3 102 103 104
3 65 66 105
3 105 66 106
3 66 67 106
3 106 67 107
3 67 68 107
3 107 68 108
3 68 109 108
3 68 69 109
3 69 110 109
3 69 70 110
3 70 111 110
3 70 71 111
3 71 72 111
3 111 72 112
3 72 73 112
3 112 73 113
3 73 74 113
3 113 74 114
3 74 75 114
3 114 75 115
3 75 76 115
3 115 76 116
3 76 117 116
3 76 77 117
3 77 118 117
3 77 78 118
3 78 119 118
3 78 79 119
3 79 120 119
3 79 80 120
3 80 121 120
3 80 81 121
3 81 82 121
3 121 82 122
3 82 83 122
3 122 83 123
3 83 84 123
3 123 84 124
3 84 85 124
3 124 85 125
3 85 86 125
3 125 86 126
3 86 87 126
3 126 87 127
3 87 88 127
3 127 88 128
3 88 129 128
3 88 89 129
3 89 130 129
3 89 90 130
3 90 92 130
3 130 92 131
3 92 94 131
3 131 94 132
3 94 133 132
3 94 95 133
3 95 134 133
3 95 97 134
3 97 98 134
3 134 98 135
3 98 100 135
3 135 100 136
3 100 102 136
3 136 102 137
3 102 104 137
3 137 104 138
3 104 139 138
3 138 139 140
3 139 141 140
3 140 141 142
3 105 106 143
3 143 106 144
3 106 107 144
3 144 107 145
3 107 108 145
3 145 108 146
3 108 147 146
3 108 109 147
3 109 148 147
3 109 110 148
3 110 149 148
3 110 111 149
3 111 112 149
3 149 112 150
3 112 113 150
3 150 113 151
3 113 114 151
3 151 114 152
3 114 115 152
3 152 115 153
3 115 116 153
3 153 116 154
3 116 155 154
3 116 117 155
3 117 156 155
3 117 118 156
3 118 157 156
3 118 119 157
3 119 158 157
3 119 120 158
3 120 159 158
3 120 121 159
3 121 122 159
3 159 122 160
3 122 161 160
3 122 123 161
3 123 124 161
3 161 124 162
3 124 125 162
3 162 125 163
3 125 126 163
3 163 126 164
3 126 127 164
3 164 127 165
3 127 166 165
3 127 128 166
3 128 167 166
3 128 129 167
3 129 168 167
3 129 130 168
3 130 169 168
3 130 131 169
3 131 132 169
3 169 132 170
3 132 171 170
3 132 133 171
3 133 172 171
3 133 134 172
3 134 135 172
3 172 135 173
3 135 136 173
3 173 136 174
3 136 137 174
3 174 137 175
3 137 176 175
3 137 138 176
3 138 177 176
3 138 140 177
3 140 178 177
3 140 142 178
3 143 144 179
3 179 144 180
3 144 145 180
3 180 145 181
3 145 146 181
3 181 146 182
3 146 183 182
3 146 147 183
3 147 184 183
3 147 148 184
3 148 149 184
3 184 149 185
3 149 150 185
3 185 150 186
3 150 151 186
3 186 151 187
3 151 152 187
3 187 152 188
3 152 153 188
3 188 153 189
3 153 154 189
3 189 154 190
3 154 191 190
3 154 155 191
3 155 192 191
3 155 156 192
3 156 193 192
3 156 157 193
3 157 194 193
3 157 158 194
3 158 195 194
3 158 159 195
3 159 160 195
3 195 160 196
3 160 197 196
3 160 161 197
3 161 162 197
3 197 162 198
3 162 163 198
3 198 163 199
3 163 164 199
3 199 164 200
3 164 165 200
3 200 165 201
3 165 202 201
3 165 166 202
3 166 203 202
3 166 167 203
3 167 204 203
3 167 168 204
3 168 205 204
3 168 169 205
3 169 206 205
3 169 170 206
3 170 207 206
3 170 171 207
3 171 208 207
3 171 172 208
3 172 173 208
3 208 173 209
3 173 174 209
3 209 174 210
3 174 175 210
3 210 175 211
3 175 212 211
3 175 176 212
3 176 213 212
3 176 177 213
3 177 214 213
3 177 178 214
3 179 180 215
3 215 180 216
3 180 181 216
3 216 181 217
3 181 182 217
3 217 182 218
3 182 219 218
3 182 183 219
3 183 220 219
3 183 184 220
3 184 185 220
3 220 185 221
3 185 186 221
3 221 186 222
3 186 187 222
3 222 187 223
3 187 188 223
3 223 188 224
3 188 189 224
3 224 189 225
3 189 190 225
3 225 190 226
3 190 227 226
3 190 191 227
3 191 228 227
3 191 192 228
3 192 229 228
3 192 193 229
3 193 230 229
3 193 194 230
3 194 231 230
3 194 195 231
3 195 232 231
3 195 196 232
3 196 233 232
3 196 197 233
3 197 198 233
3 233 198 234
3 198 199 234
3 234 199 235
3 199 200 235
3 235 200 236
3 200 201 236
3 236 201 237
3 201 238 237
3 201 202 238
3 202 239 238
3 202 203 239
3 203 240 239
3 203 204 240
3 204 241 240
3 204 205 241
3 205 242 241
3 205 206 242
3 206 243 242
3 206 207 243
3 207 244 243
3 207 208 244
3 208 245 244
3 208 209 245
3 209 210 245
3 245 210 246
3 210 211 246
3 246 211 247
3 211 248 247
3 211 212 248
3 212 249 248
3 212 213 249
3 213 250 249
3 213 214 250
3 215 216 251
3 251 216 252
3 216 217 252
3 252 217 253
3 217 218 253
3 253 218 254
3 218 255 254
3 218 219 255
3 219 256 255
3 219 220 256
3 220 221 256
3 256 221 257
3 221 222 257
3 257 222 258
3 222 223 258
3 258 223 259
3 223 224 259
3 259 224 260
3 224 225 260
3 260 225 261
3 225 226 261
3 261 226 262
3 226 263 262
3 226 227 263
3 227 264 263
3 227 228 264
3 228 265 264
3 228 229 265
3 229 266 265
3 229 230 266
3 230 267 266
3 230 231 267
3 231 268 267
3 231 232 268
3 232 269 268
3 232 233 269
3 233 234 269
3 269 234 270
3 234 235 270
3 270 235 271
3 235 236 271
3 271 236 272
3 236 237 272
3 272 237 273
3 237 238 273
3 273 238 274
3 238 275 274
3 238 239 275
3 239 276 275
3 239 240 276
3 240 277 276
3 240 241 277
3 241 278 277
3 241 242 278
3 242 279 278
3 242 243 279
3 243 280 279
3 243 244 280
3 244 281 280
3 244 245 281
3 245 246 281
3 281 246 282
3 246 247 282
3 282 247 283
3 247 284 283
3 247 248 284
3 248 249 284
3 284 249 285
3 249 286 285
3 249 250 286
3 251 252 287
3 287 252 288
3 252 253 288
3 288 253 289
3 253 254 289
3 289 254 290
3 254 291 290
3 254 255 291
3 255 292 291
3 255 256 292
3 256 293 292
3 256 257 293
3 257 258 293
3 293 258 294
3 258 295 294
3 258 259 295
3 259 260 295
3 295 260 296
3 260 261 296
3 296 261 297
3 261 262 297
3 297 262 298
3 262 299 298
3 262 263 299
3 263 300 299
3 263 264 300
3 264 301 300
3 264 265 301
3 265 302 301
3 265 266 302
3 266 303 302
3 266 267 303
3 267 304 303
3 267 268 304
3 268 305 304
3 268 269 305
3 269 270 305
3 305 270 306
3 270 271 306
3 306 271 307
3 271 272 307
3 307 272 308
3 272 273 308
3 308 273 309
3 273 310 309
3 273 274 310
3 274 311 310
3 274 275 311
3 275 312 311
3 275 276 312
3 276 313 312
3 276 277 313
3 277 314 313
3 277 278 314
3 278 315 314
3 278 279 315
3 279 316 315
3 279 280 316
3 280 317 316
3 280 281 317
3 281 282 317
3 317 282 318
3 282 319 318
3 282 283 319
3 283 320 319
3 283 284 320
3 284 321 320
3 284 285 321
3 285 322 321
3 285 286 322
3 323 288 324
3 288 289 324
3 324 289 325
3 289 290 325
3 325 290 326
3 290 327 326
3 290 291 327
3 291 328 327
3 291 292 328
3 292 293 328
3 328 293 329
3 293 294 329
3 329 294 330
3 294 331 330
3 294 295 331
3 295 296 331
3 331 296 332
3 296 297 332
3 332 297 333
3 297 298 333
3 333 298 334
3 298 335 334
3 298 299 335
3 299 336 335
3 299 300 336
3 300 337 336
3 300 301 337
3 301 338 337
3 301 302 338
3 302 339 338
3 302 303 339
3 303 340 339
3 303 304 340
3 304 341 340
3 304 305 341
3 305 306 341
3 341 306 342
3 306 307 342
3 342 307 343
3 307 344 343
3 307 308 344
3 308 309 344
3 344 309 345
3 309 346 345
3 309 310 346
3 310 347 346
3 310 311 347
3 311 348 347
3 311 312 348
3 312 349 348
3 312 313 349
3 313 350 349
3 313 314 350
3 314 351 350
3 314 315 351
3 315 352 351
3 315 316 352
3 316 353 352
3 316 317 353
3 317 318 353
3 353 318 354
3 318 355 354
3 318 319 355
3 319 356 355
3 319 320 356
3 320 357 356
3 320 321 357
3 321 358 357
3 321 322 358
3 324 325 359
3 359 325 360
3 325 326 360
3 360 326 361
3 326 362 361
3 326 327 362
3 327 363 362
3 327 328 363
3 328 329 363
3 363 329 364
3 329 330 364
3 364 330 365
3 330 331 365
3 365 331 366
3 331 332 366
3 366 332 367
3 332 333 367
3 367 333 368
3 333 334 368
3 368 334 369
3 334 370 369
3 334 335 370
3 335 371 370
3 335 336 371
3 336 372 371
3 336 337 372
3 337 373 372
3 337 338 373
3 338 374 373
3 338 339 374
3 339 340 374
3 374 340 375
3 340 341 375
3 375 341 376
3 341 342 376
3 376 342 377
3 342 343 377
3 377 343 378
3 343 344 378
3 378 344 379
3 344 345 379
3 379 345 380
3 345 346 380
3 380 346 381
3 346 382 381
3 346 347 382
3 347 383 382
3 347 348 383
3 348 384 383
3 348 349 384
3 349 385 384
3 349 350 385
3 350 386 385
3 350 351 386
3 351 387 386
3 351 352 387
3 352 388 387
3 352 353 388
3 353 354 388
3 388 354 389
3 354 355 389
3 389 355 390
3 355 391 390
3 355 356 391
3 356 392 391
3 356 357 392
3 357 393 392
3 357 358 393
3 359 360 394
3 394 360 395
3 360 361 395
3 395 361 396
3 361 397 396
3 361 362 397
3 362 398 397
3 362 363 398
3 363 399 398
3 363 364 399
3 364 365 399
3 399 365 400
3 365 401 400
3 365 366 401
3 366 367 401
3 401 367 402
3 367 368 402
3 402 368 403
3 368 369 403
3 403 369 404
3 369 405 404
3 369 370 405
3 370 406 405
3 370 371 406
3 371 407 406
3 371 372 407
3 372 408 407
3 372 373 408
3 373 409 408
3 373 374 409
3 374 410 409
3 374 375 410
3 375 411 410
3 375 376 411
3 376 377 411
3 411 377 412
3 377 378 412
3 412 378 413
3 378 379 413
3 413 379 414
3 379 380 414
3 414 380 415
3 380 381 415
3 415 381 416
3 381 417 416
3 381 382 417
3 382 418 417
3 382 383 418
3 383 384 418
3 418 384 419
3 384 385 419
3 419 385 420
3 385 421 420
3 385 386 421
3 386 422 421
3 386 387 422
3 387 388 422
3 422 388 423
3 388 389 423
3 423 389 424
3 389 390 424
3 424 390 425
3 390 426 425
3 390 391 426
3 391 427 426
3 391 392 427
3 392 428 427
3 392 393 428
3 394 429 430
3 394 395 429
3 395 431 429
3 395 396 431
3 396 432 431
3 396 397 432
3 397 433 432
3 397 398 433
3 398 434 433
3 398 399 434
3 399 435 434
3 399 400 435
3 400 436 435
3 400 401 436
3 401 437 436
3 401 402 437
3 402 438 437
3 402 403 438
3 403 439 438
3 403 404 439
3 404 440 439
3 404 405 440
3 405 441 440
3 405 406 441
3 406 442 441
3 406 407 442
3 407 443 442
3 407 408 443
3 408 444 443
3 408 409 444
3 409 445 444
3 409 410 445
3 410 446 445
3 410 411 446
3 411 447 446
3 411 412 447
3 412 448 447
3 412 413 448
3 413 449 448
3 413 414 449
3 414 415 449
3 449 415 450
3 415 416 450
3 450 416 451
3 416 452 451
3 416 417 452
3 417 453 452
3 417 418 453
3 418 454 453
3 418 419 454
3 419 455 454
3 419 420 455
3 420 456 455
3 420 421 456
3 421 457 456
3 421 422 457
3 422 458 457
3 422 423 458
3 423 424 458
3 458 424 459
3 424 425 459
3 459 425 460
3 425 461 460
3 425 426 461
3 426 462 461
3 426 427 462
3 427 463 462
3 427 428 463
3 430 429 464
3 464 429 465
3 429 431 465
3 465 431 466
3 431 467 466
3 431 432 467
3 432 468 467
3 432 433 468
3 433 434 468
3 468 434 469
3 434 435 469
3 469 435 470
3 435 436 470
3 470 436 471
3 436 437 471
3 471 437 472
3 437 438 472
3 472 438 473
3 438 439 473
3 473 439 474
3 439 475 474
3 439 440 475
3 440 476 475
3 440 441 476
3 441 477 476
3 441 442 477
3 442 478 477
3 442 443 478
3 443 479 478
3 443 444 479
3 444 480 479
3 444 445 480
3 445 481 480
3 445 446 481
3 446 447 481
3 481 447 482
3 447 448 482
3 482 448 483
3 448 449 483
3 483 449 484
3 449 450 484
3 484 450 485
3 450 451 485
3 485 451 486
3 451 487 486
3 451 452 487
3 452 488 487
3 452 453 488
3 453 489 488
3 453 454 489
3 454 490 489
3 454 455 490
3 455 491 490
3 455 456 491
3 456 492 491
3 456 457 492
3 457 458 492
3 492 458 493
3 458 459 493
3 493 459 494
3 459 460 494
3 494 460 495
3 460 496 495
3 460 461 496
3 461 497 496
3 461 462 497
3 462 498 497
3 462 463 498
3 464 465 499
3 499 465 500
3 465 466 500
3 500 466 501
3 466 467 501
3 501 467 502
3 467 468 502
3 502 468 503
3 468 469 503
3 503 469 504
3 469 470 504
3 504 470 505
3 470 471 505
3 505 471 506
3 471 472 506
3 506 472 507
3 472 473 507
3 507 473 508
3 473 474 508
3 508 474 509
3 474 510 509
3 474 475 510
3 475 511 510
3 475 476 511
3 476 512 511
3 476 477 512
3 477 513 512
3 477 478 513
3 478 479 513
3 513 479 514
3 479 480 514
3 514 480 515
3 480 481 515
3 515 481 516
3 481 482 516
3 516 482 517
3 482 483 517
3 517 483 518
3 483 484 518
3 518 484 519
3 484 485 519
3 519 485 520
3 485 486 520
3 520 486 521
3 486 487 521
3 521 487 522
3 487 523 522
3 487 488 523
3 488 489 523
3 523 489 524
3 489 525 524
3 489 490 525
3 490 526 525
3 490 491 526
3 491 527 526
3 491 492 527
3 492 493 527
3 527 493 528
3 493 494 528
3 528 494 529
3 494 495 529
3 529 495 530
3 495 531 530
3 495 496 531
3 496 532 531
3 496 497 532
3 497 533 532
3 497 498 533
3 499 500 534
3 534 500 535
3 500 501 535
3 535 501 536
3 501 502 536
3 536 502 537
3 502 503 537
3 537 503 538
3 503 504 538
3 538 504 539
3 504 505 539
3 539 505 540
3 505 506 540
3 540 506 541
3 506 507 541
3 541 507 542
3 507 508 542
3 542 508 543
3 508 509 543
3 543 509 544
3 509 510 544
3 544 510 545
3 510 546 545
3 510 511 546
3 511 547 546
3 511 512 547
3 512 548 547
3 512 513 548
3 513 514 548
3 548 514 549
3 514 515 549
3 549 515 550
3 515 516 550
3 550 516 551
3 516 517 551
3 551 517 552
3 517 518 552
3 552 518 553
3 518 519 553
3 553 519 554
3 519 520 554
3 554 520 555
3 520 521 555
3 555 521 556
3 521 522 556
3 556 522 557
3 522 558 557
3 522 523 558
3 523 559 558
3 523 524 559
3 524 560 559
3 524 525 560
3 525 561 560
3 525 526 561
3 526 562 561
3 526 527 562
3 527 528 562
3 562 528 563
3 528 529 563
3 563 529 564
3 529 530 564
3 564 530 565
3 530 566 565
3 530 531 566
3 531 567 566
3 531 532 567
3 534 535 568
3 568 535 569
3 535 536 569
3 569 536 570
3 536 537 570
3 570 537 571
3 537 538 571
3 571 538 572
3 538 539 572
3 572 539 573
3 539 540 573
3 573 540 574
3 540 541 574
3 574 541 575
3 541 542 575
3 575 542 576
3 542 543 576
3 576 543 577
3 543 544 577
3 577 544 578
3 544 545 578
3 578 545 579
3 545 580 579
3 545 546 580
3 546 581 580
3 546 547 581
3 547 582 581
3 547 548 582
3 548 549 582
3 582 549 583
3 549 550 583
3 583 550 584
3 550 551 584
3 584 551 585
3 551 552 585
3 585 552 586
3 552 553 586
3 586 553 587
3 553 554 587
3 587 554 588
3 554 555 588
3 588 555 589
3 555 556 589
3 589 556 590
3 556 557 590
3 590 557 591
3 557 592 591
3 557 558 592
3 558 559 592
3 592 559 593
3 559 560 593
3 593 560 594
3 560 595 594
3 560 561 595
3 561 596 595
3 561 562 596
3 562 563 596
3 596 563 597
3 563 564 597
3 597 564 598
3 564 565 598
3 598 565 599
3 565 600 599
3 565 566 600
3 566 601 600
3 566 567 601
3 568 569 602
3 602 569 603
3 569 570 603
3 603 570 604
3 570 571 604
3 604 571 605
3 571 606 605
3 571 572 606
3 572 573 606
3 606 573 607
3 573 574 607
3 607 574 608
3 574 575 608
3 608 575 609
3 575 576 609
3 609 576 610
3 576 577 610
3 610 577 611
3 577 578 611
3 611 578 612
3 578 613 612
3 578 579 613
3 579 614 613
3 579 580 614
3 580 615 614
3 580 581 615
3 581 616 615
3 581 582 616
3 582 583 616
3 616 583 617
3 583 584 617
3 617 584 618
3 584 619 618
3 584 585 619
3 585 586 619
3 619 586 620
3 586 587 620
3 620 587 621
3 587 588 621
3 621 588 622
3 588 589 622
3 622 589 623
3 589 590 623
3 623 590 624
3 590 591 624
3 624 591 625
3 591 592 625
3 625 592 626
3 592 593 626
3 626 593 627
3 593 594 627
3 627 594 628
3 594 629 628
3 594 595 629
3 595 630 629
3 595 596 630
3 596 597 630
3 630 597 631
3 597 598 631
3 631 598 632
3 598 599 632
3 632 599 633
3 599 634 633
3 599 600 634
3 600 635 634
3 600 601 635
3 602 603 636
3 636 603 637
3 603 604 637
3 637 604 638
3 604 639 638
3 604 605 639
3 605 640 639
3 605 606 640
3 606 641 640
3 606 607 641
3 607 608 641
3 641 608 642
3 608 609 642
3 642 609 643
3 609 610 643
3 643 610 644
3 610 611 644
3 644 611 645
3 611 612 645
3 645 612 646
3 612 647 646
3 612 613 647
3 613 648 647
3 613 614 648
3 614 649 648
3 614 615 649
3 615 650 649
3 615 616 650
3 616 651 650
3 616 617 651
3 617 652 651
3 617 618 652
3 618 653 652
3 618 619 653
3 619 654 653
3 619 620 654
3 620 655 654
3 620 621 655
3 621 656 655
3 621 622 656
3 622 623 656
3 656 623 657
3 623 624 657
3 657 624 658
3 624 659 658
3 624 625 659
3 625 660 659
3 625 626 660
3 626 661 660
3 626 627 661
3 627 662 661
3 627 628 662
3 628 663 662
3 628 629 663
3 629 664 663
3 629 630 664
3 630 631 664
3 664 631 665
3 631 632 665
3 665 632 666
3 632 667 666
3 632 633 667
3 633 668 667
3 633 634 668
3 634 669 668
3 634 635 669
3 636 637 670
3 670 637 671
3 637 638 671
3 671 638 672
3 638 673 672
3 638 639 673
3 639 674 673
3 639 640 674
3 640 675 674
3 640 641 675
3 641 676 675
3 641 642 676
3 642 677 676
3 642 643 677
3 643 678 677
3 643 644 678
3 644 645 678
3 678 645 679
3 645 680 679
3 645 646 680
3 646 681 680
3 646 647 681
3 647 682 681
3 647 648 682
3 648 683 682
3 648 649 683
3 649 684 683
3 649 650 684
3 650 685 684
3 650 651 685
3 651 686 685
3 651 652 686
3 652 687 686
3 652 653 687
3 653 688 687
3 653 654 688
3 654 689 688
3 654 655 689
3 655 690 689
3 655 656 690
3 656 657 690
3 690 657 691
3 657 658 691
3 691 658 692
3 658 693 692
3 658 659 693
3 659 694 693
3 659 660 694
3 660 695 694
3 660 661 695
3 661 696 695
3 661 662 696
3 662 697 696
3 662 663 697
3 663 698 697
3 663 664 698
3 664 699 698
3 664 665 699
3 665 666 699
3 699 666 700
3 666 701 700
3 666 667 701
3 667 702 701
3 667 668 702
3 668 703 702
3 668 669 703
3 669 704 703
3 670 671 705
3 705 671 706
3 671 672 706
3 706 672 707
3 672 708 707
3 672 673 708
3 673 709 708
3 673 674 709
3 674 710 709
3 674 675 710
3 675 711 710
3 675 676 711
3 676 712 711
3 676 677 712
3 677 713 712
3 677 678 713
3 678 679 713
3 713 679 714
3 679 715 714
3 679 680 715
3 680 716 715
3 680 681 716
3 681 717 716
3 681 682 717
3 682 718 717
3 682 683 718
3 683 719 718
3 683 684 719
3 684 720 719
3 684 685 720
3 685 721 720
3 685 686 721
3 686 722 721
3 686 687 722
3 687 723 722
3 687 688 723
3 688 724 723
3 688 689 724
3 689 725 724
3 689 690 725
3 690 691 725
3 725 691 726
3 691 727 726
3 691 692 727
3 692 728 727
3 692 693 728
3 693 729 728
3 693 694 729
3 694 730 729
3 694 695 730
3 695 731 730
3 695 696 731
3 696 732 731
3 696 697 732
3 697 733 732
3 697 698 733
3 698 734 733
3 698 699 734
3 699 735 734
3 699 700 735
3 700 736 735
3 700 701 736
3 701 737 736
3 701 702 737
3 702 738 737
3 702 703 738
3 703 739 738
3 703 704 739
3 705 706 740
3 740 706 741
3 706 707 741
3 741 707 742
3 707 743 742
3 707 708 743
3 708 744 743
3 708 709 744
3 709 745 744
3 709 710 745
3 710 746 745
3 710 711 746
3 711 747 746
3 711 712 747
3 712 748 747
3 712 713 748
3 713 749 748
3 713 714 749
3 714 750 749
3 714 715 750
3 715 751 750
3 715 716 751
3 716 752 751
3 716 717 752
3 717 753 752
3 717 718 753
3 718 754 753
3 718 719 754
3 719 755 754
3 719 720 755
3 720 756 755
3 720 721 756
3 721 757 756
3 721 722 757
3 722 758 757
3 722 723 758
3 723 759 758
3 723 724 759
3 724 760 759
3 724 725 760
3 725 726 760
3 760 726 761
3 726 762 761
3 726 727 762
3 727 763 762
3 727 728 763
3 728 764 763
3 728 729 764
3 729 765 764
3 729 730 765
3 730 766 765
3 730 731 766
3 731 767 766
3 731 732 767
3 732 768 767
3 732 733 768
3 733 769 768
3 733 734 769
3 734 770 769
3 734 735 770
3 735 771 770
3 735 736 771
3 736 772 771
3 736 737 772
3 737 773 772
3 737 738 773
3 738 774 773
3 738 739 774
3 740 741 775
3 775 741 776
3 741 742 776
3 776 742 777
3 742 743 777
3 777 743 778
3 743 779 778
3 743 744 779
3 744 780 779
3 744 745 780
3 745 781 780
3 745 746 781
3 746 782 781
3 746 747 782
3 747 783 782
3 747 748 783
3 748 784 783
3 748 749 784
3 749 785 784
3 749 750 785
3 750 786 785
3 750 751 786
3 751 787 786
3 751 752 787
3 752 788 787
3 752 753 788
3 753 789 788
3 753 754 789
3 754 790 789
3 754 755 790
3 755 791 790
3 755 756 791
3 756 792 791
3 756 757 792
3 757 793 792
3 757 758 793
3 758 794 793
3 758 759 794
3 759 795 794
3 759 760 795
3 760 761 795
3 795 761 796
3 761 762 796
3 796 762 797
3 762 798 797
3 762 763 798
3 763 799 798
3 763 764 799
3 764 800 799
3 764 765 800
3 765 801 800
3 765 766 801
3 766 802 801
3 766 767 802
3 767 803 802
3 767 768 803
3 768 804 803
3 768 769 804
3 769 805 804
3 769 770 805
3 770 806 805
3 770 771 806
3 771 807 806
3 771 772 807
3 772 808 807
3 772 773 808
3 773 809 808
3 773 774 809
3 775 776 810
3 810 776 811
3 776 777 811
3 811 777 812
3 777 813 812
3 777 778 813
3 778 814 813
3 778 779 814
3 779 815 814
3 779 780 815
3 780 816 815
3 780 781 816
3 781 817 816
3 781 782 817
3 782 783 817
3 817 783 818
3 783 784 818
3 818 784 819
3 784 820 819
3 784 785 820
3 785 821 820
3 785 786 821
3 786 822 821
3 786 787 822
3 787 823 822
3 787 788 823
3 788 824 823
3 788 789 824
3 789 825 824
3 789 790 825
3 790 826 825
3 790 791 826
3 791 827 826
3 791 792 827
3 792 828 827
3 792 793 828
3 793 829 828
3 793 794 829
3 794 795 829
3 829 795 830
3 795 796 830
3 830 796 831
3 796 797 831
3 831 797 832
3 797 798 832
3 832 798 833
3 798 834 833
3 798 799 834
3 799 835 834
3 799 800 835
3 800 836 835
3 800 801 836
3 801 837 836
3 801 802 837
3 802 838 837
3 802 803 838
3 803 804 838
3 838 804 839
3 804 805 839
3 839 805 840
3 805 841 840
3 805 806 841
3 806 842 841
3 806 807 842
3 807 843 842
3 807 808 843
3 808 809 843
3 843 809 844
3 811 812 845
3 845 812 846
3 812 847 846
3 812 813 847
3 813 848 847
3 813 814 848
3 814 849 848
3 814 815 849
3 815 816 849
3 849 816 850
3 816 817 850
3 850 817 851
3 817 818 851
3 851 818 852
3 818 819 852
3 852 819 853
3 819 820 853
3 853 820 854
3 820 855 854
3 820 821 855
3 821 856 855
3 821 822 856
3 822 857 856
3 822 823 857
3 823 858 857
3 823 824 858
3 824 859 858
3 824 825 859
3 825 860 859
3 825 826 860
3 826 861 860
3 826 827 861
3 827 862 861
3 827 828 862
3 828 863 862
3 828 829 863
3 829 830 863
3 863 830 864
3 830 831 864
3 864 831 865
3 831 832 865
3 865 832 866
3 832 833 866
3 866 833 867
3 833 868 867
3 833 834 868
3 834 835 868
3 868 835 869
3 835 870 869
3 835 836 870
3 836 871 870
3 836 837 871
3 837 872 871
3 837 838 872
3 838 839 872
3 872 839 873
3 839 840 873
3 873 840 874
3 840 875 874
3 840 841 875
3 841 876 875
3 841 842 876
3 842 843 876
3 876 843 877
3 843 844 877
3 877 844 878
3 845 846 879
3 879 846 880
3 846 881 880
3 846 847 881
3 847 882 881
3 847 848 882
3 848 849 882
3 882 849 883
3 849 850 883
3 883 850 884
3 850 851 884
3 884 851 885
3 851 852 885
3 885 852 886
3 852 853 886
3 886 853 887
3 853 854 887
3 887 854 888
3 854 889 888
3 854 855 889
3 855 890 889
3 855 856 890
3 856 891 890
3 856 857 891
3 857 892 891
3 857 858 892
3 858 859 892
3 892 859 893
3 859 860 893
3 893 860 894
3 860 895 894
3 860 861 895
3 861 862 895
3 895 862 896
3 862 897 896
3 862 863 897
3 863 864 897
3 897 864 898
3 864 865 898
3 898 865 899
3 865 866 899
3 899 866 900
3 866 867 900
3 900 867 901
3 867 902 901
3 867 868 902
3 868 869 902
3 902 869 903
3 869 870 903
3 903 870 904
3 870 905 904
3 870 871 905
3 871 906 905
3 871 872 906
3 872 873 906
3 906 873 907
3 873 874 907
3 907 874 908
3 874 875 908
3 908 875 909
3 875 910 909
3 875 876 910
3 876 877 910
3 910 877 911
3 877 878 911
3 911 878 912
3 879 880 913
3 913 880 914
3 880 915 914
3 880 881 915
3 881 882 915
3 915 882 916
3 882 883 916
3 916 883 917
3 883 884 917
3 917 884 918
3 884 885 918
3 918 885 919
3 885 886 919
3 919 886 920
3 886 887 920
3 920 887 921
3 887 888 921
3 921 888 922
3 888 889 922
3 922 889 923
3 889 924 923
3 889 890 924
3 890 925 924
3 890 891 925
3 891 926 925
3 891 892 926
3 892 893 926
3 926 893 927
3 893 894 927
3 927 894 928
3 894 895 928
3 928 895 929
3 895 896 929
3 929 896 930
3 896 897 930
3 930 897 931
3 897 898 931
3 931 898 932
3 898 899 932
3 932 899 933
3 899 900 933
3 933 900 934
3 900 901 934
3 934 901 935
3 901 902 935
3 935 902 936
3 902 903 936
3 936 903 937
3 903 904 937
3 937 904 938
3 904 939 938
3 904 905 939
3 905 940 939
3 905 906 940
3 906 907 940
3 940 907 941
3 907 908 941
3 941 908 942
3 908 909 942
3 942 909 943
3 909 944 943
3 909 910 944
3 910 911 944
3 944 911 945
3 911 912 945
3 945 912 946
3 947 913 948
3 913 949 948
3 913 914 949
3 914 915 949
3 949 915 950
3 915 916 950
3 950 916 951
3 916 917 951
3 951 917 952
3 917 918 952
3 952 918 953
3 918 919 953
3 953 919 954
3 919 920 954
3 954 920 955
3 920 921 955
3 955 921 956
3 921 922 956
3 956 922 957
3 922 958 957
3 922 923 958
3 923 959 958
3 923 924 959
3 924 960 959
3 924 925 960
3 925 961 960
3 925 926 961
3 926 927 961
3 961 927 962
3 927 928 962
3 962 928 963
3 928 929 963
3 963 929 964
3 929 930 964
3 964 930 965
3 930 931 965
3 965 931 966
3 931 932 966
3 966 932 967
3 932 933 967
3 967 933 968
3 933 934 968
3 968 934 969
3 934 935 969
3 969 935 970
3 935 936 970
3 970 936 971
3 936 937 971
3 971 937 972
3 937 938 972
3 972 938 973
3 938 974 973
3 938 939 974
3 939 975 974
3 939 940 975
3 940 941 975
3 975 941 976
3 941 942 976
3 976 942 977
3 942 943 977
3 977 943 978
3 943 979 978
3 943 944 979
3 944 945 979
3 979 945 980
3 945 946 980
3 980 946 981
3 947 948 982
3 982 948 983
3 948 949 983
3 983 949 984
3 949 950 984
3 984 950 985
3 950 951 985
3 985 951 986
3 951 952 986
3 986 952 987
3 952 953 987
3 987 953 988
3 953 954 988
3 988 954 989
3 954 955 989
3 989 955 990
3 955 956 990
3 990 956 991
3 956 957 991
3 991 957 992
3 957 993 992
3 957 958 993
3 958 994 993
3 958 959 994
3 959 995 994
3 959 960 995
3 960 996 995
3 960 961 996
3 961 962 996
3 996 962 997
3 962 963 997
3 997 963 998
3 963 964 998
3 998 964 999
3 964 965 999
3 999 965 1000
3 965 966 1000
3 1000 966 1001
3 966 967 1001
3 1001 967 1002
3 967 968 1002
3 1002 968 1003
3 968 969 1003
3 1003 969 1004
3 969 970 1004
3 1004 970 1005
3 970 1006 1005
3 970 971 1006
3 971 972 1006
3 1006 972 1007
3 972 973 1007
3 1007 973 1008
3 973 1009 1008
3 973 974 1009
3 974 1010 1009
3 974 975 1010
3 975 976 1010
3 1010 976 1011
3 976 977 1011
3 1011 977 1012
3 977 1013 1012
3 977 978 1013
3 978 1014 1013
3 978 979 1014
3 979 980 1014
3 1014 980 1015
3 980 981 1015
3 1015 981 1016
3 982 983 1017
3 1017 983 1018
3 983 984 1018
3 1018 984 1019
3 984 985 1019
3 1019 985 1020
3 985 986 1020
3 1020 986 1021
3 986 987 1021
3 1021 987 1022
3 987 988 1022
3 1022 988 1023
3 988 989 1023
3 1023 989 1024
3 989 990 1024
3 1024 990 1025
3 990 991 1025
3 1025 991 1026
3 991 992 1026
3 1026 992 1027
3 992 1028 1027
3 992 993 1028
3 993 1029 1028
3 993 994 1029
3 994 1030 1029
3 994 995 1030
3 995 1031 1030
3 995 996 1031
3 996 997 1031
3 1031 997 1032
3 997 998 1032
3 1032 998 1033
3 998 999 1033
3 1033 999 1034
3 999 1000 1034
3 1034 1000 1035
3 1000 1001 1035
3 1035 1001 1036
3 1001 1002 1036
3 1036 1002 1037
3 1002 1003 1037
3 1037 1003 1038
3 1003 1004 1038
3 1038 1004 1039
3 1004 1005 1039
3 1039 1005 1040
3 1005 1041 1040
3 1005 1006 1041
3 1006 1042 1041
3 1006 1007 1042
3 1007 1008 1042
3 1042 1008 1043
3 1008 1044 1043
3 1008 1009 1044
3 1009 1045 1044
3 1009 1010 1045
3 1010 1011 1045
3 1045 1011 1046
3 1011 1012 1046
3 1046 1012 1047
3 1012 1048 1047
3 1012 1013 1048
3 1013 1049 1048
3 1013 1014 1049
3 1014 1050 1049
3 1014 1015 1050
3 1015 1051 1050
3 1015 1016 1051
3 1017 1018 1052
3 1052 1018 1053
3 1018 1019 1053
3 1053 1019 1054
3 1019 1020 1054
3 1054 1020 1055
3 1020 1021 1055
3 1055 1021 1056
3 1021 1022 1056
3 1056 1022 1057
3 1022 1023 1057
3 1057 1023 1058
3 1023 1024 1058
3 1058 1024 1059
3 1024 1025 1059
3 1059 1025 1060
3 1025 1026 1060
3 1060 1026 1061
3 1026 1027 1061
3 1061 1027 1062
3 1027 1063 1062
3 1027 1028 1063
3 1028 1064 1063
3 1028 1029 1064
3 1029 1065 1064
3 1029 1030 1065
3 1030 1066 1065
3 1030 1031 1066
3 1031 1067 1066
3 1031 1032 1067
3 1032 1068 1067
3 1032 1033 1068
3 1033 1069 1068
3 1033 1034 1069
3 1034 1070 1069
3 1034 1035 1070
3 1035 1071 1070
3 1035 1036 1071
3 1036 1037 1071
3 1071 1037 1072
3 1037 1038 1072
3 1072 1038 1073
3 1038 1039 1073
3 1073 1039 1074
3 1039 1075 1074
3 1039 1040 1075
3 1040 1076 1075
3 1040 1041 1076
3 1041 1077 1076
3 1041 1042 1077
3 1042 1078 1077
3 1042 1043 1078
3 1043 1079 1078
3 1043 1044 1079
3 1044 1080 1079
3 1044 1045 1080
3 1045 1081 1080
3 1045 1046 1081
3 1046 1082 1081
3 1046 1047 1082
3 1047 1083 1082
3 1047 1048 1083
3 1048 1084 1083
3 1048 1049 1084
3 1049 1085 1084
3 1049 1050 1085
3 1050 1086 1085
3 1050 1051 1086
3 1052 1053 1087
3 1087 1053 1088
3 1053 1054 1088
3 1088 1054 1089
3 1054 1055 1089
3 1089 1055 1090
3 1055 1056 1090
3 1090 1056 1091
3 1056 1057 1091
3 1091 1057 1092
3 1057 1058 1092
3 1092 1058 1093
3 1058 1059 1093
3 1093 1059 1094
3 1059 1060 1094
3 1094 1060 1095
3 1060 1061 1095
3 1095 1061 1096
3 1061 1062 1096
3 1096 1062 1097
3 1062 1098 1097
3 1062 1063 1098
3 1063 1099 1098
3 1063 1064 1099
3 1064 1100 1099
3 1064 1065 1100
3 1065 1101 1100
3 1065 1066 1101
3 1066 1102 1101
3 1066 1067 1102
3 1067 1103 1102
3 1067 1068 1103
3 1068 1104 1103
3 1068 1069 1104
3 1069 1105 1104
3 1069 1070 1105
3 1070 1106 1105
3 1070 1071 1106
3 1071 1072 1106
3 1106 1072 1107
3 1072 1073 1107
3 1107 1073 1108
3 1073 1074 1108
3 1108 1074 1109
3 1074 1110 1109
3 1074 1075 1110
3 1075 1111 1110
3 1075 1076 1111
3 1076 1112 1111
3 1076 1077 1112
3 1077 1113 1112
3 1077 1078 1113
3 1078 1114 1113
3 1078 1079 1114
3 1079 1115 1114
3 1079 1080 1115
3 1080 1116 1115
3 1080 1081 1116
3 1081 1082 1116
3 1116 1082 1117
3 1082 1118 1117
3 1082 1083 1118
3 1083 1119 1118
3 1083 1084 1119
3 1084 1120 1119
3 1084 1085 1120
3 1085 1086 1120
3 1120 1086 1121
3 1087 1088 1122
3 1122 1088 1123
3 1088 1089 1123
3 1123 1089 1124
3 1089 1090 1124
3 1124 1090 1125
3 1090 1091 1125
3 1125 1091 1126
3 1091 1092 1126
3 1126 1092 1127
3 1092 1093 1127
3 1127 1093 1128
3 1093 1094 1128
3 1128 1094 1129
3 1094 1095 1129
3 1129 1095 1130
3 1095 1096 1130
3 1130 1096 1131
3 1096 1097 1131
3 1131 1097 1132
3 1097 1133 1132
3 1097 1098 1133
3 1098 1134 1133
3 1098 1099 1134
3 1099 1135 1134
3 1099 1100 1135
3 1100 1136 1135
3 1100 1101 1136
3 1101 1137 1136
3 1101 1102 1137
3 1102 1138 1137
3 1102 1103 1138
3 1103 1139 1138
3 1103 1104 1139
3 1104 1140 1139
3 1104 1105 1140
3 1105 1141 1140
3 1105 1106 1141
3 1106 1107 1141
3 1141 1107 1142
3 1107 1108 1142
3 1142 1108 1143
3 1108 1109 1143
3 1143 1109 1144
3 1109 1110 1144
3 1144 1110 1145
3 1110 1146 1145
3 1110 1111 1146
3 1111 1147 1146
3 1111 1112 1147
3 1112 1113 1147
3 1147 1113 1148
3 1113 1149 1148
3 1113 1114 1149
3 1114 1150 1149
3 1114 1115 1150
3 1115 1116 1150
3 1150 1116 1151
3 1116 1117 1151
3 1151 1117 1152
3 1117 1153 1152
3 1117 1118 1153
3 1118 1154 1153
3 1118 1119 1154
3 1119 1120 1154
3 1154 1120 1155
3 1120 1121 1155
3 1155 1121 1156
3 1122 1123 1157
3 1157 1123 1158
3 1123 1124 1158
3 1158 1124 1159
3 1124 1125 1159
3 1159 1125 1160
3 1125 1126 1160
3 1160 1126 1161
3 1126 1127 1161
3 1161 1127 1162
3 1127 1128 1162
3 1162 1128 1163
3 1128 1129 1163
3 1163 1129 1164
3 1129 1130 1164
3 1164 1130 1165
3 1130 1131 1165
3 1165 1131 1166
3 1131 1132 1166
3 1166 1132 1167
3 1132 1168 1167
3 1132 1133 1168
3 1133 1169 1168
3 1133 1134 1169
3 1134 1170 1169
3 1134 1135 1170
3 1135 1171 1170
3 1135 1136 1171
3 1136 1172 1171
3 1136 1137 1172
3 1137 1173 1172
3 1137 1138 1173
3 1138 1174 1173
3 1138 1139 1174
3 1139 1175 1174
3 1139 1140 1175
3 1140 1176 1175
3 1140 1141 1176
3 1141 1142 1176
3 1176 1142 1177
3 1142 1143 1177
3 1177 1143 1178
3 1143 1144 1178
3 1178 1144 1179
3 1144 1145 1179
3 1179 1145 1180
3 1145 1181 1180
3 1145 1146 1181
3 1146 1182 1181
3 1146 1147 1182
3 1147 1148 1182
3 1182 1148 1183
3 1148 1184 1183
3 1148 1149 1184
3 1149 1185 1184
3 1149 1150 1185
3 1150 1151 1185
3 1185 1151 1186
3 1151 1152 1186
3 1186 1152 1187
3 1152 1188 1187
3 1152 1153 1188
3 1153 1189 1188
3 1153 1154 1189
3 1154 1155 1189
3 1189 1155 1190
3 1155 1156 1190
3 1190 1156 1191
3 1157 1158 1192
3 1192 1158 1193
3 1158 1159 1193
3 1193 1159 1194
3 1159 1160 1194
3 1194 1160 1195
3 1160 1161 1195
3 1195 1161 1196
3 1161 1162 1196
3 1196 1162 1197
3 1162 1163 1197
3 1197 1163 1198
3 1163 1164 1198
3 1198 1164 1199
3 1164 1165 1199
3 1199 1165 1200
3 1165 1166 1200
3 1200 1166 1201
3 1166 1167 1201
3 1201 1167 1202
3 1167 1203 1202
3 1167 1168 1203
3 1168 1204 1203
3 1168 1169 1204
3 1169 1205 1204
3 1169 1170 1205
3 1170 1206 1205
3 1170 1171 1206
3 1171 1207 1206
3 1171 1172 1207
3 1172 1208 1207
3 1172 1173 1208
3 1173 1209 1208
3 1173 1174 1209
3 1174 1210 1209
3 1174 1175 1210
3 1175 1211 1210
3 1175 1176 1211
3 1176 1177 1211
3 1211 1177 1212
3 1177 1178 1212
3 1212 1178 1213
3 1178 1179 1213
3 1213 1179 1214
3 1179 1215 1214
3 1179 1180 1215
3 1180 1216 1215
3 1180 1181 1216
3 1181 1217 1216
3 1181 1182 1217
3 1182 1218 1217
3 1182 1183 1218
3 1183 1219 1218
3 1183 1184 1219
3 1184 1220 1219
3 1184 1185 1220
3 1185 1221 1220
3 1185 1186 1221
3 1186 1222 1221
3 1186 1187 1222
3 1187 1223 1222
3 1187 1188 1223
3 1188 1224 1223
3 1188 1189 1224
3 1189 1225 1224
3 1189 1190 1225
3 1190 1226 1225
3 1190 1191 1226
3 1192 1193 1227
3 1227 1193 1228
3 1193 1194 1228
3 1228 1194 1229
3 1194 1195 1229
3 1229 1195 1230
3 1195 1196 1230
3 1230 1196 1231
3 1196 1197 1231
3 1231 1197 1232
3 1197 1198 1232
3 1232 1198 1233
3 1198 1199 1233
3 1233 1199 1234
3 1199 1200 1234
3 1234 1200 1235
3 1200 1201 1235
3 1235 1201 1236
3 1201 1202 1236
3 1236 1202 1237
3 1202 1238 1237
3 1202 1203 1238
3 1203 1239 1238
3 1203 1204 1239
3 1204 1240 1239
3 1204 1205 1240
3 1205 1241 1240
3 1205 1206 1241
3 1206 1242 1241
3 1206 1207 1242
3 1207 1243 1242
3 1207 1208 1243
3 1208 1244 1243
3 1208 1209 1244
3 1209 1245 1244
3 1209 1210 1245
3 1210 1246 1245
3 1210 1211 1246
3 1211 1212 1246
3 1246 1212 1247
3 1212 1213 1247
3 1247 1213 1248
3 1213 1214 1248
3 1248 1214 1249
3 1214 1250 1249
3 1214 1215 1250
3 1215 1251 1250
3 1215 1216 1251
3 1216 1252 1251
3 1216 1217 1252
3 1217 1253 1252
3 1217 1218 1253
3 1218 1254 1253
3 1218 1219 1254
3 1219 1255 1254
3 1219 1220 1255
3 1220 1256 1255
3 1220 1221 1256
3 1221 1222 1256
3 1256 1222 1257
3 1222 1258 1257
3 1222 1223 1258
3 1223 1259 1258
3 1223 1224 1259
3 1224 1260 1259
3 1224 1225 1260
3 1225 1261 1260
3 1225 1226 1261
3 1228 1229 1262
3 1262 1229 1263
3 1229 1230 1263
3 1263 1230 1264
3 1230 1231 1264
3 1264 1231 1265
3 1231 1232 1265
3 1265 1232 1266
3 1232 1233 1266
3 1266 1233 1267
3 1233 1234 1267
3 1267 1234 1268
3 1234 1235 1268
3 1268 1235 1269
3 1235 1236 1269
3 1269 1236 1270
3 1236 1237 1270
3 1270 1237 1271
3 1237 1272 1271
3 1237 1238 1272
3 1238 1273 1272
3 1238 1239 1273
3 1239 1274 1273
3 1239 1240 1274
3 1240 1275 1274
3 1240 1241 1275
3 1241 1276 1275
3 1241 1242 1276
3 1242 1277 1276
3 1242 1243 1277
3 1243 1278 1277
3 1243 1244 1278
3 1244 1279 1278
3 1244 1245 1279
3 1245 1280 1279
3 1245 1246 1280
3 1246 1247 1280
3 1280 1247 1281
3 1247 1248 1281
3 1281 1248 1282
3 1248 1249 1282
3 1282 1249 1283
3 1249 1250 1283
3 1283 1250 1284
3 1250 1285 1284
3 1250 1251 1285
3 1251 1286 1285
3 1251 1252 1286
3 1252 1287 1286
3 1252 1253 1287
3 1253 1288 1287
3 1253 1254 1288
3 1254 1289 1288
3 1254 1255 1289
3 1255 1290 1289
3 1255 1256 1290
3 1256 1257 1290
3 1290 1257 1291
3 1257 1292 1291
3 1257 1258 1292
3 1258 1293 1292
3 1258 1259 1293
3 1259 1294 1293
3 1259 1260 1294
3 1260 1295 1294
3 1260 1261 1295
3 1262 1263 1296
3 1296 1263 1297
3 1263 1264 1297
3 1297 1264 1298
3 1264 1265 1298
3 1298 1265 1299
3 1265 1266 1299
3 1299 1266 1300
3 1266 1267 1300
3 1300 1267 1301
3 1267 1268 1301
3 1301 1268 1302
3 1268 1269 1302
3 1302 1269 1303
3 1269 1270 1303
3 1303 1270 1304
3 1270 1271 1304
3 1304 1271 1305
3 1271 1306 1305
3 1271 1272 1306
3 1272 1307 1306
3 1272 1273 1307
3 1273 1308 1307
3 1273 1274 1308
3 1274 1309 1308
3 1274 1275 1309
3 1275 1310 1309
3 1275 1276 1310
3 1276 1311 1310
3 1276 1277 1311
3 1277 1312 1311
3 1277 1278 1312
3 1278 1313 1312
3 1278 1279 1313
3 1279 1314 1313
3 1279 1280 1314
3 1280 1281 1314
3 1314 1281 1315
3 1281 1282 1315
3 1315 1282 1316
3 1282 1283 1316
3 1316 1283 1317
3 1283 1318 1317
3 1283 1284 1318
3 1284 1319 1318
3 1284 1285 1319
3 1285 1320 1319
3 1285 1286 1320
3 1286 1321 1320
3 1286 1287 1321
3 1287 1322 1321
3 1287 1288 1322
3 1288 1323 1322
3 1288 1289 1323
3 1289 1324 1323
3 1289 1290 1324
3 1290 1325 1324
3 1290 1291 1325
3 1291 1326 1325
3 1291 1292 1326
3 1292 1327 1326
3 1292 1293 1327
3 1293 1328 1327
3 1293 1294 1328
3 1294 1329 1328
3 1294 1295 1329
3 1295 1330 1329
3 1296 1297 1331
3 1331 1297 1332
3 1297 1298 1332
3 1332 1298 1333
3 1298 1299 1333
3 1333 1299 1334
3 1299 1300 1334
3 1334 1300 1335
3 1300 1301 1335
3 1335 1301 1336
3 1301 1302 1336
3 1336 1302 1337
3 1302 1303 1337
3 1337 1303 1338
3 1303 1304 1338
3 1338 1304 1339
3 1304 1305 1339
3 1339 1305 1340
3 1305 1341 1340
3 1305 1306 1341
3 1306 1342 1341
3 1306 1307 1342
3 1307 1343 1342
3 1307 1308 1343
3 1308 1344 1343
3 1308 1309 1344
3 1309 1345 1344
3 1309 1310 1345
3 1310 1346 1345
3 1310 1311 1346
3 1311 1347 1346
3 1311 1312 1347
3 1312 1348 1347
3 1312 1313 1348
3 1313 1349 1348
3 1313 1314 1349
3 1314 1315 1349
3 1349 1315 1350
3 1315 1316 1350
3 1350 1316 1351
3 1316 1317 1351
3 1351 1317 1352
3 1317 1353 1352
3 1317 1318 1353
3 1318 1354 1353
3 1318 1319 1354
3 1319 1355 1354
3 1319 1320 1355
3 1320 1356 1355
3 1320 1321 1356
3 1321 1357 1356
3 1321 1322 1357
3 1322 1358 1357
3 1322 1323 1358
3 1323 1359 1358
3 1323 1324 1359
3 1324 1360 1359
3 1324 1325 1360
3 1325 1361 1360
3 1325 1326 1361
3 1326 1362 1361
3 1326 1327 1362
3 1327 1363 1362
3 1327 1328 1363
3 1328 1364 1363
3 1328 1329 1364
3 1329 1330 1364
3 1364 1330 1365
3 1331 1332 1366
3 1366 1332 1367
3 1332 1333 1367
3 1367 1333 1368
3 1333 1334 1368
3 1368 1334 1369
3 1334 1335 1369
3 1369 1335 1370
3 1335 1336 1370
3 1370 1336 1371
3 1336 1337 1371
3 1371 1337 1372
3 1337 1338 1372
3 1372 1338 1373
3 1338 1339 1373
3 1373 1339 1374
3 1339 1340 1374
3 1374 1340 1375
3 1340 1376 1375
3 1340 1341 1376
3 1341 1377 1376
3 1341 1342 1377
3 1342 1378 1377
3 1342 1343 1378
3 1343 1379 1378
3 1343 1344 1379
3 1344 1380 1379
3 1344 1345 1380
3 1345 1381 1380
3 1345 1346 1381
3 1346 1382 1381
3 1346 1347 1382
3 1347 1383 1382
3 1347 1348 1383
3 1348 1384 1383
3 1348 1349 1384
3 1349 1350 1384
3 1384 1350 1385
3 1350 1351 1385
3 1385 1351 1386
3 1351 1352 1386
3 1386 1352 1387
3 1352 1388 1387
3 1352 1353 1388
3 1353 1389 1388
3 1353 1354 1389
3 1354 1390 1389
3 1354 1355 1390
3 1355 1356 1390
3 1390 1356 1391
3 1356 1392 1391
3 1356 1357 1392
3 1357 1393 1392
3 1357 1358 1393
3 1358 1394 1393
3 1358 1359 1394
3 1359 1395 1394
3 1359 1360 1395
3 1360 1396 1395
3 1360 1361 1396
3 1361 1397 1396
3 1361 1362 1397
3 1362 1398 1397
3 1362 1363 1398
3 1363 1399 1398
3 1363 1364 1399
3 1364 1365 1399
3 1399 1365 1400
3 1366 1367 1401
3 1401 1367 1402
3 1367 1368 1402
3 1402 1368 1403
3 1368 1369 1403
3 1403 1369 1404
3 1369 1370 1404
3 1404 1370 1405
3 1370 1371 1405
3 1405 1371 1406
3 1371 1372 1406
3 1406 1372 1407
3 1372 1373 1407
3 1407 1373 1408
3 1373 1374 1408
3 1408 1374 1409
3 1374 1375 1409
3 1409 1375 1410
3 1375 1411 1410
3 1375 1376 1411
3 1376 1412 1411
3 1376 1377 1412
3 1377 1413 1412
3 1377 1378 1413
3 1378 1414 1413
3 1378 1379 1414
3 1379 1380 1414
3 1414 1380 1415
3 1380 1381 1415
3 1415 1381 1416
3 1381 1417 1416
3 1381 1382 1417
3 1382 1418 1417
3 1382 1383 1418
3 1383 1384 1418
3 1418 1384 1419
3 1384 1385 1419
3 1419 1385 1420
3 1385 1386 1420
3 1420 1386 1421
3 1386 1387 1421
3 1421 1387 1422
3 1387 1388 1422
3 1422 1388 1423
3 1388 1424 1423
3 1388 1389 1424
3 1389 1390 1424
3 1424 1390 1425
3 1390 1391 1425
3 1425 1391 1426
3 1391 1427 1426
3 1391 1392 1427
3 1392 1428 1427
3 1392 1393 1428
3 1393 1394 1428
3 1428 1394 1429
3 1394 1395 1429
3 1429 1395 1430
3 1395 1396 1430
3 1430 1396 1431
3 1396 1432 1431
3 1396 1397 1432
3 1397 1398 1432
3 1432 1398 1433
3 1398 1399 1433
3 1433 1399 1434
3 1399 1400 1434
3 1434 1400 1435
3 1401 1402 1436
3 1436 1402 1437
3 1402 1403 1437
3 1437 1403 1438
3 1403 1404 1438
3 1438 1404 1439
3 1404 1405 1439
3 1439 1405 1440
3 1405 1406 1440
3 1440 1406 1441
3 1406 1407 1441
3 1441 1407 1442
3 1407 1408 1442
3 1442 1408 1443
3 1408 1409 1443
3 1443 1409 1444
3 1409 1410 1444
3 1444 1410 1445
3 1410 1446 1445
3 1410 1411 1446
3 1411 1447 1446
3 1411 1412 1447
3 1412 1448 1447
3 1412 1413 1448
3 1413 1449 1448
3 1413 1414 1449
3 1414 1415 1449
3 1449 1415 1450
3 1415 1416 1450
3 1450 1416 1451
3 1416 1452 1451
3 1416 1417 1452
3 1417 1418 1452
3 1452 1418 1453
3 1418 1419 1453
3 1453 1419 1454
3 1419 1420 1454
3 1454 1420 1455
3 1420 1421 1455
3 1455 1421 1456
3 1421 1422 1456
3 1456 1422 1457
3 1422 1423 1457
3 1457 1423 1458
3 1423 1459 1458
3 1423 1424 1459
3 1424 1425 1459
3 1459 1425 1460
3 1425 1426 1460
3 1460 1426 1461
3 1426 1462 1461
3 1426 1427 1462
3 1427 1463 1462
3 1427 1428 1463
3 1428 1429 1463
3 1463 1429 1464
3 1429 1430 1464
3 1464 1430 1465
3 1430 1431 1465
3 1431 1432 1466
3 1432 1433 1466
3 1436 1437 1467
3 1467 1437 1468
3 1437 1438 1468
3 1468 1438 1469
3 1438 1439 1469
3 1469 1439 1470
3 1439 1440 1470
3 1470 1440 1471
3 1440 1441 1471
3 1471 1441 1472
3 1441 1442 1472
3 1472 1442 1473
3 1442 1443 1473
3 1473 1443 1474
3 1443 1444 1474
3 1474 1444 1475
3 1444 1445 1475
3 1475 1445 1476
3 1445 1477 1476
3 1445 1446 1477
3 1446 1478 1477
3 1446 1447 1478
3 1447 1479 1478
3 1447 1448 1479
3 1448 1480 1479
3 1448 1449 1480
3 1449 1450 1480
3 1480 1450 1481
3 1450 1451 1481
3 1481 1451 1482
3 1451 1483 1482
3 1451 1452 1483
3 1452 1484 1483
3 1452 1453 1484
3 1453 1485 1484
3 1453 1454 1485
3 1454 1455 1485
3 1485 1455 1486
3 1455 1456 1486
3 1467 1468 1487
3 1487 1468 1488
3 1468 1469 1488
3 1488 1469 1489
3 1469 1470 1489
3 1489 1470 1490
3 1470 1471 1490
3 1490 1471 1491
3 1471 1472 1491
3 1491 1472 1492
3 1472 1473 1492
3 1492 1473 1493
3 1473 1474 1493
3 1493 1474 1494
3 1474 1475 1494
3 1494 1475 1495
3 1475 1476 1495
3 1495 1476 1496
3 1476 1497 1496
3 1476 1477 1497
3 1477 1498 1497
3 1477 1478 1498
3 1478 1499 1498
3 1478 1479 1499
3 1479 1500 1499
3 1479 1480 1500
3 1480 1501 1500
3 1480 1481 1501
3 1481 1482 1501
3 1482 1483 1502
3 1487 1488 1503
3 1503 1488 1504
3 1488 1489 1504
3 1504 1489 1505
3 1489 1490 1505
3 1505 1490 1506
3 1490 1491 1506
3 1506 1491 1507
3 1491 1492 1507
3 1507 1492 1508
3 1492 1493 1508
3 1508 1493 1509
3 1493 1494 1509
3 1503 1504 1510
3 1510 1504 1511
3 1504 1505 1511
3 1511 1505 1512
3 1505 1506 1512
3 1512 1506 1513
3 1506 1507 1513
3 1513 1507 1514
3 1507 1508 1514
3 1510 1511 1515
3 1515 1511 1516
3 1511 1512 1516
3 1516 1512 1517
3 1512 1513 1517
CELL_DATA 2873
SCALARS brightness_temperature float
LOOKUP_TABLE default
POINT_DATA 1518
CELL_DATA 2873
SCALARS emission_angle float
LOOKUP_TABLE default
POINT_DATA 1518
CELL_DATA 2873
SCALARS incidence_angle float
LOOKUP_TABLE default
POINT_DATA 1518
CELL_DATA 2873
SCALARS phase_angle float
LOOKUP_TABLE default
POINT_DATA 1518
CELL_DATA 2873
SCALARS local_solar_time float
LOOKUP_TABLE default
POINT_DATA 1518
CELL_DATA 2873
SCALARS local_solar_time_normal_vector float
LOOKUP_TABLE default
CELL_DATA 2873
SCALARS pixel_x float
LOOKUP_TABLE default
POINT_DATA 1518
CELL_DATA 2873
SCALARS pixel_y float
LOOKUP_TABLE default
POINT_DATA 1518
CELL_DATA 2873
SCALARS longitude float
LOOKUP_TABLE default
POINT_DATA 1518
CELL_DATA 2873
SCALARS latitude float
LOOKUP_TABLE default
