# vtk DataFile Version 3.0
SHAPE_sfm_50k_v20200323
ASCII
DATASET POLYDATA
POINTS 313 float
0.06412 -0.50478 0.00304
0.06789 -0.50711 0.00075
0.06749 -0.50524 0.00329
0.06449 -0.50652 0.00046
0.06773 -0.50777 -0.00236
0.06427 -0.50781 -0.00243
0.0646 -0.50793 -0.00558
0.06803 -0.50793 -0.00548
0.06532 -0.50816 -0.00862
0.06874 -0.50797 -0.00853
0.06592 -0.50844 -0.01168
0.06932 -0.50806 -0.01159
0.06928 -0.50827 -0.01471
0.0659 -0.50883 -0.01477
0.06874 -0.50852 -0.01777
0.06538 -0.50917 -0.01782
0.06805 -0.50893 -0.02081
0.06467 -0.50946 -0.02086
0.06752 -0.50962 -0.02382
0.06414 -0.5101 -0.02389
0.06753 -0.51067 -0.0269
0.06399 -0.51063 -0.02701
0.06416 -0.50976 -0.03004
0.06755 -0.50954 -0.02996
0.06434 -0.50864 -0.03295
0.06774 -0.50873 -0.03297
0.06444 -0.50743 -0.03587
0.06782 -0.50775 -0.03596
0.06764 -0.50747 -0.03909
0.06427 -0.50695 -0.03899
0.06423 -0.50635 -0.04206
0.06764 -0.50669 -0.04221
0.06402 -0.50446 -0.04454
0.06742 -0.50455 -0.0446
0.07091 -0.50552 0.00329
0.07133 -0.50682 0.00045
0.07111 -0.50721 -0.00267
0.0714 -0.50746 -0.00577
0.07211 -0.50746 -0.00882
0.07267 -0.50742 -0.01187
0.07256 -0.50741 -0.01499
0.07199 -0.50754 -0.01806
0.07128 -0.50787 -0.02109
0.07061 -0.50824 -0.02414
0.07053 -0.50879 -0.02721
0.07089 -0.50878 -0.03032
0.07115 -0.50835 -0.03342
0.07124 -0.50781 -0.03651
0.07111 -0.50742 -0.03966
0.07101 -0.50602 -0.04259
0.07072 -0.50386 -0.04495
0.07368 -0.50356 0.0054
0.07423 -0.50493 0.00267
0.07462 -0.50601 -0.0002
0.07443 -0.50658 -0.00324
0.07473 -0.50685 -0.00632
0.07542 -0.50682 -0.00936
0.0759 -0.50645 -0.01239
0.07573 -0.50624 -0.01549
0.0751 -0.50625 -0.01854
0.07435 -0.50647 -0.02157
0.07357 -0.50661 -0.02459
0.07333 -0.50689 -0.02769
0.07364 -0.50676 -0.03078
0.07405 -0.50648 -0.03387
0.07435 -0.50625 -0.03698
0.07423 -0.50583 -0.04012
0.07423 -0.50478 -0.04321
0.07703 -0.50288 0.00524
0.07761 -0.5044 0.00261
0.07805 -0.50578 -0.00017
0.0778 -0.50603 -0.00328
0.07808 -0.50616 -0.00637
0.07862 -0.50562 -0.00938
0.07907 -0.50518 -0.0124
0.07886 -0.50485 -0.01548
0.07821 -0.50482 -0.01851
0.07737 -0.50487 -0.0215
0.07661 -0.50505 -0.02452
0.076 -0.50472 -0.02755
0.07598 -0.50421 -0.0306
0.07622 -0.5038 -0.03368
0.07648 -0.50351 -0.03677
0.0767 -0.50338 -0.03989
0.07711 -0.50269 -0.04301
0.0809 -0.50366 0.00313
0.08128 -0.50466 0.00023
0.08106 -0.50507 -0.00284
0.08127 -0.50503 -0.00592
0.08173 -0.5043 -0.00889
0.0821 -0.50366 -0.01188
0.08191 -0.50339 -0.01496
0.08123 -0.50332 -0.01795
0.08031 -0.50323 -0.02091
0.07949 -0.5033 -0.02391
0.07913 -0.50336 -0.027
0.07882 -0.50239 -0.02994
0.07867 -0.5015 -0.0329
0.07865 -0.50096 -0.03598
0.07878 -0.50079 -0.03909
0.07903 -0.49991 -0.04208
0.07873 -0.49808 -0.04459
0.08446 -0.50347 0.00063
0.0841 -0.50258 0.00355
0.08419 -0.50375 -0.00243
0.08434 -0.50356 -0.0055
0.08488 -0.503 -0.00847
0.08519 -0.50223 -0.01144
0.0849 -0.50177 -0.01447
0.08413 -0.50156 -0.01743
0.08324 -0.50155 -0.02039
0.08228 -0.5014 -0.02334
0.08186 -0.50137 -0.02642
0.08171 -0.50066 -0.02939
0.08151 -0.49964 -0.03229
0.0814 -0.49899 -0.03533
0.08098 -0.49825 -0.03827
0.08086 -0.49714 -0.0411
0.08076 -0.49547 -0.04364
0.08762 -0.50215 0.00087
0.08729 -0.50142 0.00381
0.08737 -0.50249 -0.00217
0.08751 -0.50226 -0.00522
0.08799 -0.50157 -0.00817
0.08837 -0.50094 -0.01115
0.08798 -0.50026 -0.01411
0.08706 -0.4998 -0.017
0.0861 -0.49971 -0.01996
0.0852 -0.49964 -0.02292
0.08463 -0.49942 -0.02595
0.08456 -0.49885 -0.02896
0.08444 -0.49796 -0.0319
0.08432 -0.49727 -0.03489
0.08394 -0.49652 -0.03783
0.08374 -0.49528 -0.04062
0.08373 -0.49375 -0.04327
0.09063 -0.50061 0.00403
0.09082 -0.50098 0.00098
0.09053 -0.50119 -0.00206
0.0907 -0.50102 -0.00511
0.09118 -0.50032 -0.00805
0.0915 -0.49955 -0.01099
0.09112 -0.49888 -0.01394
0.09014 -0.49825 -0.01676
0.08905 -0.49793 -0.01966
0.08811 -0.49784 -0.02261
0.08744 -0.49748 -0.0256
0.08738 -0.49691 -0.02863
0.08737 -0.49622 -0.03162
0.08724 -0.49552 -0.0346
0.08696 -0.49492 -0.03758
0.08684 -0.49383 -0.0404
0.08685 -0.49239 -0.0431
0.08362 -0.49213 -0.04587
0.09372 -0.49915 0.00411
0.09397 -0.49965 0.00111
0.09371 -0.49993 -0.00192
0.09388 -0.49976 -0.00496
0.09438 -0.49909 -0.0079
0.09471 -0.49832 -0.01083
0.09431 -0.49754 -0.01375
0.09335 -0.49691 -0.01658
0.09227 -0.49661 -0.01945
0.09113 -0.49619 -0.02229
0.09033 -0.49556 -0.02523
0.09036 -0.4952 -0.02832
0.09035 -0.49449 -0.03131
0.09035 -0.49404 -0.03436
0.09021 -0.49388 -0.03742
0.09012 -0.49289 -0.0403
0.0901 -0.49138 -0.04296
0.08681 -0.491 -0.04584
0.09001 -0.4899 -0.04565
0.09706 -0.49829 0.00167
0.09666 -0.49745 0.00458
0.09687 -0.49872 -0.00135
0.09709 -0.4987 -0.00439
0.0976 -0.49804 -0.00733
0.09797 -0.49732 -0.0103
0.09767 -0.49684 -0.01329
0.09669 -0.49609 -0.01606
0.09556 -0.49569 -0.01888
0.09435 -0.49498 -0.02164
0.09356 -0.49429 -0.02459
0.09349 -0.49374 -0.02764
0.09357 -0.49328 -0.0307
0.09362 -0.49311 -0.03379
0.09342 -0.49292 -0.03683
0.09338 -0.49213 -0.03977
0.09347 -0.49107 -0.04265
0.09335 -0.48948 -0.04528
0.10013 -0.49691 0.00231
0.09974 -0.49609 0.00523
0.10003 -0.49758 -0.00068
0.10028 -0.49764 -0.00371
0.10095 -0.4975 -0.0067
0.10129 -0.49663 -0.00965
0.101 -0.49616 -0.01267
0.10007 -0.49563 -0.01551
0.09893 -0.49513 -0.0183
0.09774 -0.49438 -0.02106
0.09698 -0.49374 -0.02399
0.09693 -0.49338 -0.02704
0.09699 -0.49307 -0.0301
0.09694 -0.49261 -0.03315
0.09675 -0.49246 -0.03623
0.09669 -0.49165 -0.03919
0.09674 -0.49048 -0.04202
0.09668 -0.48916 -0.04479
0.10327 -0.49565 0.00279
0.10323 -0.4965 -0.00016
0.10357 -0.49683 -0.00318
0.10424 -0.49674 -0.00617
0.10467 -0.49628 -0.00918
0.10441 -0.49595 -0.01222
0.10349 -0.49543 -0.01507
0.10233 -0.49485 -0.01785
0.10117 -0.49419 -0.02064
0.10039 -0.49358 -0.02356
0.10027 -0.49299 -0.02655
0.10027 -0.49239 -0.02955
0.1002 -0.49185 -0.03259
0.09992 -0.4914 -0.03561
0.09979 -0.49045 -0.0385
0.09992 -0.48953 -0.04144
0.09993 -0.48841 -0.0443
0.10286 -0.49478 0.00571
0.10631 -0.49436 0.00371
0.10629 -0.49527 0.00079
0.10668 -0.4958 -0.00221
0.1074 -0.49583 -0.00519
0.10791 -0.49575 -0.00822
0.10762 -0.49537 -0.01122
0.10674 -0.49506 -0.01411
0.10564 -0.49482 -0.01696
0.10445 -0.49402 -0.0197
0.10366 -0.49337 -0.02262
0.1035 -0.49263 -0.02558
0.10347 -0.49189 -0.02856
0.10337 -0.49121 -0.03159
0.1031 -0.49075 -0.03459
0.10291 -0.48961 -0.03741
0.10289 -0.48836 -0.04022
0.10288 -0.48726 -0.04308
0.10254 -0.48589 -0.04579
0.1094 -0.49415 0.0017
0.10943 -0.49331 0.00465
0.10983 -0.49483 -0.00126
0.11061 -0.49514 -0.00421
0.11111 -0.495 -0.00722
0.11082 -0.4946 -0.01023
0.10996 -0.49449 -0.01315
0.10887 -0.49433 -0.01601
0.10772 -0.49381 -0.0188
0.10689 -0.49291 -0.02163
0.10674 -0.4922 -0.02461
0.1066 -0.49106 -0.02749
0.10655 -0.4906 -0.03058
0.10628 -0.49013 -0.03359
0.10614 -0.48915 -0.03648
0.10616 -0.48798 -0.03932
0.10606 -0.48667 -0.04209
0.10566 -0.48516 -0.04473
0.11272 -0.49335 0.00183
0.1127 -0.49232 0.00472
0.11312 -0.4939 -0.00116
0.11403 -0.49475 -0.00401
0.1145 -0.49445 -0.00706
0.11422 -0.49412 -0.01008
0.11334 -0.49391 -0.01299
0.11219 -0.49354 -0.0158
0.11104 -0.49301 -0.01859
0.11025 -0.49226 -0.02145
0.11008 -0.49137 -0.02437
0.11001 -0.49057 -0.02733
0.10985 -0.48979 -0.03032
0.10952 -0.48915 -0.0333
0.10939 -0.48824 -0.0362
0.1093 -0.48679 -0.03888
0.10918 -0.48545 -0.04163
0.10883 -0.48406 -0.04435
0.1159 -0.49117 0.00437
0.11586 -0.49199 0.00141
0.11637 -0.49284 -0.0015
0.11734 -0.49388 -0.00423
0.11787 -0.49372 -0.00722
0.1176 -0.4934 -0.01022
0.11668 -0.49309 -0.0131
0.11553 -0.49269 -0.01589
0.11438 -0.49222 -0.0187
0.11365 -0.49179 -0.02165
0.11355 -0.49145 -0.02472
0.11334 -0.48994 -0.02743
0.11315 -0.48901 -0.03036
0.11277 -0.48818 -0.03329
0.11265 -0.4873 -0.03621
0.11259 -0.48595 -0.03894
0.1124 -0.4844 -0.04158
0.11205 -0.48304 -0.04432
0.11921 -0.49027 0.00407
0.11916 -0.491 0.00106
0.11976 -0.49219 -0.00173
0.11895 -0.49235 -0.01586
0.11779 -0.49183 -0.01865
0.11701 -0.49123 -0.02156
0.11677 -0.49026 -0.02442
0.11666 -0.4892 -0.0273
0.11643 -0.48811 -0.03016
0.11599 -0.48713 -0.03302
0.11582 -0.48614 -0.03592
0.11583 -0.48499 -0.03874
0.11561 -0.4834 -0.04136
0.11529 -0.48215 -0.04414
POLYGONS 554 2216
3 0 1 2
3 0 3 1
3 3 4 1
3 3 5 4
3 5 6 4
3 4 6 7
3 6 8 7
3 7 8 9
3 8 10 9
3 9 10 11
3 10 12 11
3 10 13 12
3 13 14 12
3 13 15 14
3 15 16 14
3 15 17 16
3 17 18 16
3 17 19 18
3 19 20 18
3 19 21 20
3 21 22 20
3 20 22 23
3 22 24 23
3 23 24 25
3 24 26 25
3 25 26 27
3 26 28 27
3 26 29 28
3 29 30 28
3 28 30 31
3 30 32 31
3 31 32 33
3 2 1 34
3 34 1 35
3 1 4 35
3 35 4 36
3 4 7 36
3 36 7 37
3 7 9 37
3 37 9 38
3 9 11 38
3 38 11 39
3 11 12 39
3 39 12 40
3 12 41 40
3 12 14 41
3 14 42 41
3 14 16 42
3 16 43 42
3 16 18 43
3 18 20 43
3 43 20 44
3 20 23 44
3 44 23 45
3 23 25 45
3 45 25 46
3 25 27 46
3 46 27 47
3 27 28 47
3 47 28 48
3 28 31 48
3 48 31 49
3 31 33 49
3 49 33 50
3 51 34 52
3 34 35 52
3 52 35 53
3 35 36 53
3 53 36 54
3 36 37 54
3 54 37 55
3 37 38 55
3 55 38 56
3 38 39 56
3 56 39 57
3 39 40 57
3 57 40 58
3 40 59 58
3 40 41 59
3 41 60 59
3 41 42 60
3 42 61 60
3 42 43 61
3 43 44 61
3 61 44 62
3 44 45 62
3 62 45 63
3 45 46 63
3 63 46 64
3 46 47 64
3 64 47 65
3 47 48 65
3 65 48 66
3 48 49 66
3 66 49 67
3 49 50 67
3 51 52 68
3 68 52 69
3 52 53 69
3 69 53 70
3 53 71 70
3 53 54 71
3 54 55 71
3 71 55 72
3 55 56 72
3 72 56 73
3 56 57 73
3 73 57 74
3 57 75 74
3 57 58 75
3 58 76 75
3 58 59 76
3 59 77 76
3 59 60 77
3 60 78 77
3 60 61 78
3 61 79 78
3 61 62 79
3 62 63 79
3 79 63 80
3 63 64 80
3 80 64 81
3 64 65 81
3 81 65 82
3 65 66 82
3 82 66 83
3 66 67 83
3 83 67 84
3 68 69 85
3 69 86 85
3 69 70 86
3 70 87 86
3 70 71 87
3 71 88 87
3 71 72 88
3 72 73 88
3 88 73 89
3 73 74 89
3 89 74 90
3 74 91 90
3 74 75 91
3 75 92 91
3 75 76 92
3 76 93 92
3 76 77 93
3 77 94 93
3 77 78 94
3 78 95 94
3 78 79 95
3 79 96 95
3 79 80 96
3 80 97 96
3 80 81 97
3 81 98 97
3 81 82 98
3 82 99 98
3 82 83 99
3 83 100 99
3 83 84 100
3 84 101 100
3 85 102 103
3 85 86 102
3 86 104 102
3 86 87 104
3 87 105 104
3 87 88 105
3 88 89 105
3 105 89 106
3 89 90 106
3 106 90 107
3 90 108 107
3 90 91 108
3 91 109 108
3 91 92 109
3 92 110 109
3 92 93 110
3 93 111 110
3 93 94 111
3 94 112 111
3 94 95 112
3 95 113 112
3 95 96 113
3 96 114 113
3 96 97 114
3 97 115 114
3 97 98 115
3 98 116 115
3 98 99 116
3 99 117 116
3 99 100 117
3 100 118 117
3 100 101 118
3 103 119 120
3 103 102 119
3 102 121 119
3 102 104 121
3 104 122 121
3 104 105 122
3 105 106 122
3 122 106 123
3 106 107 123
3 123 107 124
3 107 125 124
3 107 108 125
3 108 126 125
3 108 109 126
3 109 127 126
3 109 110 127
3 110 128 127
3 110 111 128
3 111 129 128
3 111 112 129
3 112 130 129
3 112 113 130
3 113 131 130
3 113 114 131
3 114 132 131
3 114 115 132
3 115 133 132
3 115 116 133
3 116 134 133
3 116 117 134
3 117 135 134
3 117 118 135
3 120 119 136
3 136 119 137
3 119 138 137
3 119 121 138
3 121 122 138
3 138 122 139
3 122 123 139
3 139 123 140
3 123 124 140
3 140 124 141
3 124 142 141
3 124 125 142
3 125 143 142
3 125 126 143
3 126 144 143
3 126 127 144
3 127 145 144
3 127 128 145
3 128 146 145
3 128 129 146
3 129 147 146
3 129 130 147
3 130 148 147
3 130 131 148
3 131 149 148
3 131 132 149
3 132 150 149
3 132 133 150
3 133 151 150
3 133 134 151
3 134 135 151
3 151 135 152
3 135 153 152
3 136 137 154
3 154 137 155
3 137 156 155
3 137 138 156
3 138 139 156
3 156 139 157
3 139 140 157
3 157 140 158
3 140 141 158
3 158 141 159
3 141 160 159
3 141 142 160
3 142 161 160
3 142 143 161
3 143 162 161
3 143 144 162
3 144 163 162
3 144 145 163
3 145 164 163
3 145 146 164
3 146 165 164
3 146 147 165
3 147 166 165
3 147 148 166
3 148 167 166
3 148 149 167
3 149 168 167
3 149 150 168
3 150 169 168
3 150 151 169
3 151 152 169
3 169 152 170
3 152 171 170
3 170 171 172
3 154 173 174
3 154 155 173
3 155 175 173
3 155 156 175
3 156 176 175
3 156 157 176
3 157 158 176
3 176 158 177
3 158 159 177
3 177 159 178
3 159 179 178
3 159 160 179
3 160 180 179
3 160 161 180
3 161 181 180
3 161 162 181
3 162 182 181
3 162 163 182
3 163 183 182
3 163 164 183
3 164 184 183
3 164 165 184
3 165 185 184
3 165 166 185
3 166 186 185
3 166 167 186
3 167 187 186
3 167 168 187
3 168 188 187
3 168 169 188
3 169 189 188
3 169 170 189
3 170 190 189
3 170 172 190
3 174 191 192
3 174 173 191
3 173 193 191
3 173 175 193
3 175 194 193
3 175 176 194
3 176 177 194
3 194 177 195
3 177 196 195
3 177 178 196
3 178 197 196
3 178 179 197
3 179 198 197
3 179 180 198
3 180 199 198
3 180 181 199
3 181 200 199
3 181 182 200
3 182 201 200
3 182 183 201
3 183 202 201
3 183 184 202
3 184 203 202
3 184 185 203
3 185 204 203
3 185 186 204
3 186 205 204
3 186 187 205
3 187 206 205
3 187 188 206
3 188 207 206
3 188 189 207
3 189 208 207
3 189 190 208
3 192 191 209
3 191 210 209
3 191 193 210
3 193 211 210
3 193 194 211
3 194 195 211
3 211 195 212
3 195 196 212
3 212 196 213
3 196 214 213
3 196 197 214
3 197 215 214
3 197 198 215
3 198 216 215
3 198 199 216
3 199 217 216
3 199 200 217
3 200 218 217
3 200 201 218
3 201 219 218
3 201 202 219
3 202 220 219
3 202 203 220
3 203 221 220
3 203 204 221
3 204 222 221
3 204 205 222
3 205 223 222
3 205 206 223
3 206 224 223
3 206 207 224
3 207 225 224
3 207 208 225
3 226 209 227
3 209 228 227
3 209 210 228
3 210 229 228
3 210 211 229
3 211 230 229
3 211 212 230
3 212 231 230
3 212 213 231
3 213 232 231
3 213 214 232
3 214 233 232
3 214 215 233
3 215 234 233
3 215 216 234
3 216 235 234
3 216 217 235
3 217 236 235
3 217 218 236
3 218 237 236
3 218 219 237
3 219 238 237
3 219 220 238
3 220 239 238
3 220 221 239
3 221 240 239
3 221 222 240
3 222 241 240
3 222 223 241
3 223 242 241
3 223 224 242
3 224 243 242
3 224 225 243
3 225 244 243
3 227 245 246
3 227 228 245
3 228 247 245
3 228 229 247
3 229 248 247
3 229 230 248
3 230 249 248
3 230 231 249
3 231 250 249
3 231 232 250
3 232 251 250
3 232 233 251
3 233 252 251
3 233 234 252
3 234 253 252
3 234 235 253
3 235 254 253
3 235 236 254
3 236 255 254
3 236 237 255
3 237 256 255
3 237 238 256
3 238 257 256
3 238 239 257
3 239 258 257
3 239 240 258
3 240 259 258
3 240 241 259
3 241 260 259
3 241 242 260
3 242 261 260
3 242 243 261
3 243 262 261
3 243 244 262
3 246 263 264
3 246 245 263
3 245 247 263
3 263 247 265
3 247 248 265
3 265 248 266
3 248 249 266
3 266 249 267
3 249 268 267
3 249 250 268
3 250 269 268
3 250 251 269
3 251 270 269
3 251 252 270
3 252 271 270
3 252 253 271
3 253 272 271
3 253 254 272
3 254 273 272
3 254 255 273
3 255 274 273
3 255 256 274
3 256 275 274
3 256 257 275
3 257 276 275
3 257 258 276
3 258 277 276
3 258 259 277
3 259 278 277
3 259 260 278
3 260 279 278
3 260 261 279
3 261 280 279
3 261 262 280
3 264 263 281
3 281 263 282
3 263 265 282
3 282 265 283
3 265 266 283
3 283 266 284
3 266 267 284
3 284 267 285
3 267 286 285
3 267 268 286
3 268 287 286
3 268 269 287
3 269 288 287
3 269 270 288
3 270 289 288
3 270 271 289
3 271 290 289
3 271 272 290
3 272 273 290
3 290 273 291
3 273 274 291
3 291 274 292
3 274 275 292
3 292 275 293
3 275 294 293
3 275 276 294
3 276 277 294
3 294 277 295
3 277 278 295
3 295 278 296
3 278 279 296
3 296 279 297
3 279 298 297
3 279 280 298
3 281 282 299
3 299 282 300
3 282 283 300
3 300 283 301
3 283 284 301
3 287 288 302
3 288 303 302
3 288 289 303
3 289 304 303
3 289 290 304
3 290 305 304
3 290 291 305
3 291 306 305
3 291 292 306
3 292 307 306
3 292 293 307
3 293 308 307
3 293 294 308
3 294 309 308
3 294 295 309
3 295 296 309
3 309 296 310
3 296 311 310
3 296 297 311
3 297 312 311
3 297 298 312
CELL_DATA 554
SCALARS brightness_temperature float
LOOKUP_TABLE default
POINT_DATA 313
CELL_DATA 554
SCALARS emission_angle float
LOOKUP_TABLE default
POINT_DATA 313
CELL_DATA 554
SCALARS incidence_angle float
LOOKUP_TABLE default
POINT_DATA 313
CELL_DATA 554
SCALARS phase_angle float
LOOKUP_TABLE default
POINT_DATA 313
CELL_DATA 554
SCALARS local_solar_time float
LOOKUP_TABLE default
POINT_DATA 313
CELL_DATA 554
SCALARS local_solar_time_normal_vector float
LOOKUP_TABLE default
CELL_DATA 554
SCALARS pixel_x float
LOOKUP_TABLE default
POINT_DATA 313
CELL_DATA 554
SCALARS pixel_y float
LOOKUP_TABLE default
POINT_DATA 313
CELL_DATA 554
SCALARS longitude float
LOOKUP_TABLE default
POINT_DATA 313
CELL_DATA 554
SCALARS latitude float
LOOKUP_TABLE default
