# vtk DataFile Version 3.0
SHAPE_sfm_50k_v20200323
ASCII
DATASET POLYDATA
POINTS 195 float
-0.31389 -0.28674 0.16317
-0.31276 -0.28961 0.16179
-0.31156 -0.28836 0.16359
-0.31491 -0.28779 0.16115
-0.3139 -0.29066 0.15984
-0.31598 -0.28876 0.15913
-0.3149 -0.29156 0.15773
-0.31704 -0.28967 0.15705
-0.31608 -0.29257 0.15576
-0.31828 -0.29072 0.15514
-0.31724 -0.29385 0.15394
-0.31939 -0.29194 0.15327
-0.31818 -0.29478 0.15182
-0.32042 -0.29294 0.15123
-0.31923 -0.29577 0.14978
-0.32158 -0.29404 0.1493
-0.32032 -0.29673 0.14773
-0.3228 -0.29516 0.14744
-0.32148 -0.29784 0.14579
-0.3239 -0.29622 0.14546
-0.32293 -0.29919 0.14423
-0.32519 -0.29742 0.14366
-0.32454 -0.3006 0.14292
-0.32657 -0.29867 0.14199
-0.32594 -0.30181 0.14122
-0.328 -0.29991 0.14037
-0.31051 -0.29129 0.16249
-0.31156 -0.29229 0.16046
-0.31262 -0.29327 0.1584
-0.31382 -0.29431 0.15646
-0.31479 -0.2954 0.15442
-0.31586 -0.29646 0.15243
-0.31685 -0.29739 0.15033
-0.3179 -0.29833 0.14825
-0.31898 -0.29933 0.14619
-0.32034 -0.30055 0.14444
-0.32192 -0.30192 0.14303
-0.32338 -0.30322 0.14148
-0.30922 -0.29389 0.16116
-0.30839 -0.29304 0.16338
-0.31016 -0.29476 0.15898
-0.31136 -0.29581 0.15702
-0.31234 -0.29692 0.155
-0.31338 -0.29794 0.15295
-0.31434 -0.29883 0.15081
-0.31534 -0.2997 0.14866
-0.31644 -0.30074 0.14664
-0.31768 -0.30178 0.14468
-0.31918 -0.30298 0.14303
-0.32063 -0.30424 0.14142
-0.30702 -0.29566 0.16191
-0.30627 -0.29483 0.16417
-0.30787 -0.29649 0.15967
-0.30892 -0.29739 0.15755
-0.30987 -0.29845 0.15547
-0.31074 -0.29925 0.15325
-0.31162 -0.3 0.15098
-0.31274 -0.30105 0.14894
-0.31392 -0.30222 0.14703
-0.31511 -0.30321 0.14503
-0.31656 -0.30432 0.14325
-0.31804 -0.3056 0.14164
-0.31935 -0.30712 0.14011
-0.30489 -0.29755 0.16251
-0.30405 -0.29659 0.16469
-0.30568 -0.29835 0.16024
-0.30663 -0.29919 0.15804
-0.30754 -0.30022 0.15593
-0.30835 -0.30097 0.15366
-0.30921 -0.30173 0.15138
-0.31026 -0.3027 0.14925
-0.31149 -0.30389 0.14736
-0.31278 -0.30498 0.14547
-0.31417 -0.30601 0.14361
-0.31558 -0.30717 0.14184
-0.31686 -0.30863 0.14021
-0.30265 -0.29914 0.16347
-0.30348 -0.30002 0.16124
-0.30438 -0.30083 0.15901
-0.30532 -0.30189 0.1569
-0.30619 -0.30271 0.15468
-0.30706 -0.3035 0.15243
-0.30802 -0.30441 0.15023
-0.30919 -0.30553 0.14825
-0.31041 -0.30655 0.14627
-0.31174 -0.30751 0.14433
-0.3131 -0.30862 0.14248
-0.31428 -0.30995 0.14068
-0.30129 -0.3017 0.16221
-0.3004 -0.30078 0.16442
-0.30224 -0.30257 0.16002
-0.30304 -0.30352 0.1578
-0.30404 -0.30445 0.15566
-0.30508 -0.30538 0.15353
-0.30613 -0.30636 0.15143
-0.30711 -0.30736 0.14931
-0.30818 -0.30825 0.14718
-0.30942 -0.30913 0.14512
-0.31076 -0.31021 0.14323
-0.31196 -0.31156 0.14145
-0.29886 -0.3032 0.16291
-0.29765 -0.30179 0.16467
-0.29985 -0.30411 0.16074
-0.30062 -0.30503 0.15849
-0.30177 -0.30611 0.15648
-0.30301 -0.30721 0.15454
-0.30411 -0.30821 0.15247
-0.30507 -0.30919 0.15032
-0.30606 -0.31005 0.14813
-0.30719 -0.31083 0.14597
-0.30845 -0.31184 0.14399
-0.30956 -0.31309 0.14207
-0.31058 -0.31421 0.14004
-0.29607 -0.30413 0.16314
-0.29722 -0.30533 0.16122
-0.29818 -0.3065 0.15918
-0.29929 -0.30754 0.15712
-0.30051 -0.30861 0.15515
-0.30165 -0.30967 0.15313
-0.30269 -0.31072 0.15105
-0.30381 -0.31171 0.14898
-0.30501 -0.31254 0.14688
-0.30618 -0.31348 0.14482
-0.30723 -0.31468 0.14283
-0.30814 -0.31569 0.14067
-0.29469 -0.3067 0.16182
-0.29354 -0.3055 0.16378
-0.29567 -0.30791 0.1598
-0.29679 -0.30896 0.15775
-0.29799 -0.31002 0.15575
-0.2991 -0.31103 0.15368
-0.30014 -0.3121 0.15158
-0.30135 -0.31317 0.14958
-0.30267 -0.31413 0.1476
-0.30391 -0.31513 0.14561
-0.30485 -0.31621 0.1435
-0.30574 -0.31722 0.14132
-0.29221 -0.30828 0.16198
-0.29101 -0.30698 0.16385
-0.29328 -0.3096 0.16006
-0.29439 -0.31064 0.15799
-0.29558 -0.31168 0.15596
-0.29672 -0.31275 0.15392
-0.29779 -0.31385 0.15184
-0.29898 -0.31489 0.14981
-0.3004 -0.31593 0.14792
-0.30171 -0.31699 0.14598
-0.30251 -0.31792 0.14372
-0.30344 -0.31901 0.14157
-0.28985 -0.31004 0.16218
-0.28863 -0.3087 0.16402
-0.29089 -0.31133 0.16021
-0.29203 -0.31239 0.15816
-0.2932 -0.31342 0.15609
-0.29435 -0.31449 0.15403
-0.29548 -0.31565 0.15201
-0.29674 -0.31678 0.15005
-0.29804 -0.31767 0.148
-0.29933 -0.31868 0.14601
-0.30025 -0.31977 0.14385
-0.30128 -0.32095 0.14179
-0.30234 -0.32218 0.13978
-0.28755 -0.31187 0.16239
-0.28862 -0.31318 0.16043
-0.28977 -0.31426 0.15838
-0.29089 -0.31523 0.15625
-0.29197 -0.31622 0.15409
-0.29305 -0.31734 0.15199
-0.2944 -0.31855 0.15012
-0.29579 -0.31955 0.14818
-0.29697 -0.32043 0.14604
-0.29797 -0.3216 0.14395
-0.2991 -0.32289 0.14199
-0.30017 -0.32413 0.13998
-0.31533 -0.28466 0.16327
-0.31792 -0.28369 0.16141
-0.31644 -0.28577 0.16133
-0.31919 -0.28479 0.15952
-0.31753 -0.28672 0.15928
-0.32048 -0.28586 0.15762
-0.31871 -0.28771 0.15728
-0.32182 -0.28696 0.15578
-0.31998 -0.28875 0.15538
-0.32295 -0.28817 0.15388
-0.32113 -0.29 0.15352
-0.32408 -0.28928 0.15192
-0.32231 -0.29117 0.15166
-0.32531 -0.29042 0.15004
-0.3234 -0.29218 0.14964
-0.32633 -0.29128 0.1479
-0.32452 -0.29317 0.14763
-0.3256 -0.29421 0.14561
-0.32683 -0.29534 0.14372
-0.32804 -0.29646 0.14181
-0.32946 -0.29771 0.14015
POLYGONS 336 1344
3 0 1 2
3 0 3 1
3 3 4 1
3 3 5 4
3 5 6 4
3 5 7 6
3 7 8 6
3 7 9 8
3 9 10 8
3 9 11 10
3 11 12 10
3 11 13 12
3 13 14 12
3 13 15 14
3 15 16 14
3 15 17 16
3 17 18 16
3 17 19 18
3 19 20 18
3 19 21 20
3 21 22 20
3 21 23 22
3 23 24 22
3 23 25 24
3 2 1 26
3 1 27 26
3 1 4 27
3 4 28 27
3 4 6 28
3 6 29 28
3 6 8 29
3 8 30 29
3 8 10 30
3 10 31 30
3 10 12 31
3 12 32 31
3 12 14 32
3 14 33 32
3 14 16 33
3 16 34 33
3 16 18 34
3 18 35 34
3 18 20 35
3 20 36 35
3 20 22 36
3 22 37 36
3 22 24 37
3 26 38 39
3 26 27 38
3 27 40 38
3 27 28 40
3 28 41 40
3 28 29 41
3 29 42 41
3 29 30 42
3 30 43 42
3 30 31 43
3 31 44 43
3 31 32 44
3 32 45 44
3 32 33 45
3 33 46 45
3 33 34 46
3 34 47 46
3 34 35 47
3 35 48 47
3 35 36 48
3 36 49 48
3 36 37 49
3 39 50 51
3 39 38 50
3 38 52 50
3 38 40 52
3 40 53 52
3 40 41 53
3 41 54 53
3 41 42 54
3 42 55 54
3 42 43 55
3 43 56 55
3 43 44 56
3 44 57 56
3 44 45 57
3 45 58 57
3 45 46 58
3 46 59 58
3 46 47 59
3 47 60 59
3 47 48 60
3 48 61 60
3 48 49 61
3 49 62 61
3 51 63 64
3 51 50 63
3 50 65 63
3 50 52 65
3 52 66 65
3 52 53 66
3 53 67 66
3 53 54 67
3 54 68 67
3 54 55 68
3 55 69 68
3 55 56 69
3 56 70 69
3 56 57 70
3 57 71 70
3 57 58 71
3 58 72 71
3 58 59 72
3 59 73 72
3 59 60 73
3 60 74 73
3 60 61 74
3 61 75 74
3 61 62 75
3 64 63 76
3 63 77 76
3 63 65 77
3 65 78 77
3 65 66 78
3 66 79 78
3 66 67 79
3 67 80 79
3 67 68 80
3 68 81 80
3 68 69 81
3 69 82 81
3 69 70 82
3 70 83 82
3 70 71 83
3 71 84 83
3 71 72 84
3 72 85 84
3 72 73 85
3 73 86 85
3 73 74 86
3 74 87 86
3 74 75 87
3 76 88 89
3 76 77 88
3 77 90 88
3 77 78 90
3 78 91 90
3 78 79 91
3 79 92 91
3 79 80 92
3 80 93 92
3 80 81 93
3 81 94 93
3 81 82 94
3 82 95 94
3 82 83 95
3 83 96 95
3 83 84 96
3 84 97 96
3 84 85 97
3 85 98 97
3 85 86 98
3 86 99 98
3 86 87 99
3 89 100 101
3 89 88 100
3 88 102 100
3 88 90 102
3 90 103 102
3 90 91 103
3 91 104 103
3 91 92 104
3 92 105 104
3 92 93 105
3 93 106 105
3 93 94 106
3 94 107 106
3 94 95 107
3 95 108 107
3 95 96 108
3 96 109 108
3 96 97 109
3 97 110 109
3 97 98 110
3 98 111 110
3 98 99 111
3 99 112 111
3 101 100 113
3 100 114 113
3 100 102 114
3 102 115 114
3 102 103 115
3 103 116 115
3 103 104 116
3 104 117 116
3 104 105 117
3 105 118 117
3 105 106 118
3 106 119 118
3 106 107 119
3 107 120 119
3 107 108 120
3 108 121 120
3 108 109 121
3 109 122 121
3 109 110 122
3 110 123 122
3 110 111 123
3 111 124 123
3 111 112 124
3 113 125 126
3 113 114 125
3 114 127 125
3 114 115 127
3 115 128 127
3 115 116 128
3 116 129 128
3 116 117 129
3 117 130 129
3 117 118 130
3 118 131 130
3 118 119 131
3 119 132 131
3 119 120 132
3 120 133 132
3 120 121 133
3 121 134 133
3 121 122 134
3 122 135 134
3 122 123 135
3 123 136 135
3 123 124 136
3 126 137 138
3 126 125 137
3 125 139 137
3 125 127 139
3 127 140 139
3 127 128 140
3 128 141 140
3 128 129 141
3 129 142 141
3 129 130 142
3 130 143 142
3 130 131 143
3 131 144 143
3 131 132 144
3 132 145 144
3 132 133 145
3 133 146 145
3 133 134 146
3 134 147 146
3 134 135 147
3 135 148 147
3 135 136 148
3 138 149 150
3 138 137 149
3 137 151 149
3 137 139 151
3 139 152 151
3 139 140 152
3 140 153 152
3 140 141 153
3 141 154 153
3 141 142 154
3 142 155 154
3 142 143 155
3 143 156 155
3 143 144 156
3 144 157 156
3 144 145 157
3 145 158 157
3 145 146 158
3 146 159 158
3 146 147 159
3 147 160 159
3 147 148 160
3 148 161 160
3 150 149 162
3 149 163 162
3 149 151 163
3 151 164 163
3 151 152 164
3 152 165 164
3 152 153 165
3 153 166 165
3 153 154 166
3 154 167 166
3 154 155 167
3 155 168 167
3 155 156 168
3 156 169 168
3 156 157 169
3 157 170 169
3 157 158 170
3 158 171 170
3 158 159 171
3 159 172 171
3 159 160 172
3 160 173 172
3 160 161 173
3 174 175 176
3 175 177 176
3 176 177 178
3 177 179 178
3 178 179 180
3 179 181 180
3 180 181 182
3 181 183 182
3 182 183 184
3 183 185 184
3 184 185 186
3 185 187 186
3 186 187 188
3 187 189 188
3 188 189 190
3 174 176 0
3 0 176 3
3 176 178 3
3 3 178 5
3 178 180 5
3 5 180 7
3 180 182 7
3 7 182 9
3 182 184 9
3 9 184 11
3 184 186 11
3 11 186 13
3 186 188 13
3 13 188 15
3 188 190 15
3 15 190 17
3 190 191 17
3 17 191 19
3 191 192 19
3 19 192 21
3 192 193 21
3 21 193 23
3 193 25 23
3 193 194 25
CELL_DATA 336
SCALARS brightness_temperature float
LOOKUP_TABLE default
POINT_DATA 195
CELL_DATA 336
SCALARS emission_angle float
LOOKUP_TABLE default
POINT_DATA 195
CELL_DATA 336
SCALARS incidence_angle float
LOOKUP_TABLE default
POINT_DATA 195
CELL_DATA 336
SCALARS phase_angle float
LOOKUP_TABLE default
POINT_DATA 195
CELL_DATA 336
SCALARS local_solar_time float
LOOKUP_TABLE default
POINT_DATA 195
CELL_DATA 336
SCALARS local_solar_time_normal_vector float
LOOKUP_TABLE default
CELL_DATA 336
SCALARS pixel_x float
LOOKUP_TABLE default
POINT_DATA 195
CELL_DATA 336
SCALARS pixel_y float
LOOKUP_TABLE default
POINT_DATA 195
CELL_DATA 336
SCALARS longitude float
LOOKUP_TABLE default
POINT_DATA 195
CELL_DATA 336
SCALARS latitude float
LOOKUP_TABLE default
